<svg width="460" height="309" viewBox="0 0 460 309" fill="none" xmlns="http://www.w3.org/2000/svg">
<g filter="url(#filter0_dddd_1511_26324)">
<rect x="8" y="13" width="384" height="238" rx="12" fill="white"/>
<rect x="8.55303" y="13.553" width="382.894" height="236.894" rx="11.447" stroke="#D6DAE1" stroke-width="1.10606"/>
<path d="M32.0762 47H26.8643V34.3174H32.0586C33.1777 34.3174 34.0771 34.6074 34.7568 35.1875C35.4365 35.7617 35.7764 36.5264 35.7764 37.4814C35.7764 38.1553 35.5596 38.7588 35.126 39.292C34.6924 39.8193 34.1592 40.1357 33.5264 40.2412V40.3115C34.3877 40.4111 35.082 40.7451 35.6094 41.3135C36.1426 41.876 36.4092 42.5762 36.4092 43.4141C36.4092 44.5332 36.0254 45.4121 35.2578 46.0508C34.4902 46.6836 33.4297 47 32.0762 47ZM28.833 35.9258V39.7139H31.1621C32.0176 39.7139 32.6738 39.5439 33.1309 39.2041C33.5879 38.8643 33.8164 38.3809 33.8164 37.7539C33.8164 37.168 33.6201 36.7168 33.2275 36.4004C32.8408 36.084 32.29 35.9258 31.5752 35.9258H28.833ZM28.833 45.3916H31.6807C32.5654 45.3916 33.2393 45.2129 33.7021 44.8555C34.165 44.498 34.3965 43.9766 34.3965 43.291C34.3965 42.6055 34.1562 42.0898 33.6758 41.7441C33.2012 41.3926 32.498 41.2168 31.5664 41.2168H28.833V45.3916ZM46.2354 37.4551V47H44.416V45.3652H44.3809C44.1055 45.9336 43.7041 46.3672 43.1768 46.666C42.6494 46.959 42.0225 47.1055 41.2959 47.1055C40.2529 47.1055 39.4209 46.7891 38.7998 46.1562C38.1846 45.5234 37.877 44.6621 37.877 43.5723V37.4551H39.7842V43.2119C39.7842 43.9443 39.9717 44.5039 40.3467 44.8906C40.7217 45.2715 41.2549 45.4619 41.9463 45.4619C42.6611 45.4619 43.2354 45.2334 43.6689 44.7764C44.1084 44.3193 44.3281 43.7129 44.3281 42.957V37.4551H46.2354ZM48.1865 47V37.4551H50.0059V39.0635H50.041C50.6328 37.9209 51.667 37.3496 53.1436 37.3496C54.1982 37.3496 55.0273 37.666 55.6309 38.2988C56.2402 38.9258 56.5449 39.7871 56.5449 40.8828V47H54.6377V41.2432C54.6377 40.5166 54.4531 39.96 54.084 39.5732C53.7148 39.1807 53.1816 38.9844 52.4844 38.9844C51.7637 38.9844 51.1836 39.2158 50.7441 39.6787C50.3105 40.1357 50.0938 40.7393 50.0938 41.4893V47H48.1865ZM62.0469 47.0967C60.8457 47.0967 59.873 46.6514 59.1289 45.7607C58.3906 44.8701 58.0215 43.6895 58.0215 42.2188C58.0215 40.7598 58.3906 39.585 59.1289 38.6943C59.873 37.8037 60.8398 37.3584 62.0293 37.3584C62.709 37.3584 63.3096 37.5078 63.8311 37.8066C64.3584 38.0996 64.7598 38.5098 65.0352 39.0371H65.0791V33.7461H66.9775V47H65.1318V45.3828H65.0967C64.8154 45.9277 64.4082 46.3496 63.875 46.6484C63.3477 46.9473 62.7383 47.0967 62.0469 47.0967ZM62.5303 38.9756C61.7627 38.9756 61.1445 39.2715 60.6758 39.8633C60.207 40.4551 59.9727 41.2432 59.9727 42.2275C59.9727 43.2178 60.2041 44.0088 60.667 44.6006C61.1357 45.1865 61.7568 45.4795 62.5303 45.4795C63.2979 45.4795 63.916 45.1807 64.3848 44.583C64.8535 43.9854 65.0879 43.2002 65.0879 42.2275C65.0879 41.2549 64.8506 40.4697 64.376 39.8721C63.9072 39.2744 63.292 38.9756 62.5303 38.9756ZM69.0781 47V33.7461H70.9854V47H69.0781ZM76.9971 38.8877C76.3115 38.8877 75.7402 39.1162 75.2832 39.5732C74.832 40.0303 74.5801 40.625 74.5273 41.3574H79.3701C79.3467 40.6133 79.1182 40.0156 78.6846 39.5645C78.251 39.1133 77.6885 38.8877 76.9971 38.8877ZM79.3613 44.2051H81.1807C81.0459 45.0605 80.5977 45.7607 79.8359 46.3057C79.0742 46.8447 78.1572 47.1143 77.085 47.1143C75.7021 47.1143 74.6064 46.6807 73.7979 45.8135C72.9951 44.9404 72.5938 43.7568 72.5938 42.2627C72.5938 40.7686 72.9951 39.5732 73.7979 38.6768C74.6006 37.7803 75.6699 37.332 77.0059 37.332C78.3184 37.332 79.3584 37.7568 80.126 38.6064C80.8936 39.4502 81.2773 40.5957 81.2773 42.043V42.7109H74.5186V42.8252C74.5186 43.6514 74.7559 44.3164 75.2305 44.8203C75.7051 45.3184 76.335 45.5674 77.1201 45.5674C77.6768 45.5674 78.1572 45.4443 78.5615 45.1982C78.9658 44.9521 79.2324 44.6211 79.3613 44.2051ZM89.126 47H87.1572V34.3174H95.0762V36.0137H89.126V40.0303H94.5752V41.6914H89.126V47ZM100.394 38.8877C99.708 38.8877 99.1367 39.1162 98.6797 39.5732C98.2285 40.0303 97.9766 40.625 97.9238 41.3574H102.767C102.743 40.6133 102.515 40.0156 102.081 39.5645C101.647 39.1133 101.085 38.8877 100.394 38.8877ZM102.758 44.2051H104.577C104.442 45.0605 103.994 45.7607 103.232 46.3057C102.471 46.8447 101.554 47.1143 100.481 47.1143C99.0986 47.1143 98.0029 46.6807 97.1943 45.8135C96.3916 44.9404 95.9902 43.7568 95.9902 42.2627C95.9902 40.7686 96.3916 39.5732 97.1943 38.6768C97.9971 37.7803 99.0664 37.332 100.402 37.332C101.715 37.332 102.755 37.7568 103.522 38.6064C104.29 39.4502 104.674 40.5957 104.674 42.043V42.7109H97.915V42.8252C97.915 43.6514 98.1523 44.3164 98.627 44.8203C99.1016 45.3184 99.7314 45.5674 100.517 45.5674C101.073 45.5674 101.554 45.4443 101.958 45.1982C102.362 44.9521 102.629 44.6211 102.758 44.2051ZM109.525 45.5762C110.234 45.5762 110.826 45.374 111.301 44.9697C111.775 44.5596 112.013 44.041 112.013 43.4141V42.667L109.692 42.8252C108.374 42.9072 107.715 43.376 107.715 44.2314C107.715 44.6416 107.879 44.9697 108.207 45.2158C108.535 45.4561 108.975 45.5762 109.525 45.5762ZM109.016 47.0967C108.061 47.0967 107.284 46.8389 106.687 46.3232C106.089 45.8018 105.79 45.1162 105.79 44.2666C105.79 43.4346 106.101 42.7812 106.722 42.3066C107.349 41.832 108.254 41.5566 109.438 41.4805L112.013 41.3311V40.5928C112.013 40.0479 111.837 39.6318 111.485 39.3447C111.14 39.0518 110.647 38.9053 110.009 38.9053C109.493 38.9053 109.057 39.0283 108.699 39.2744C108.348 39.5205 108.131 39.8516 108.049 40.2676H106.265C106.294 39.4238 106.666 38.7236 107.381 38.167C108.096 37.6104 108.989 37.332 110.062 37.332C111.228 37.332 112.156 37.6162 112.848 38.1846C113.545 38.7529 113.894 39.5088 113.894 40.4521V47H112.074V45.4092H112.03C111.767 45.9248 111.362 46.335 110.817 46.6396C110.272 46.9443 109.672 47.0967 109.016 47.0967ZM116.381 35.3105H118.279V37.4551H120.107V38.958H118.279V44.293C118.279 44.709 118.373 45.0166 118.561 45.2158C118.754 45.4092 119.05 45.5059 119.448 45.5059C119.677 45.5059 119.894 45.4912 120.099 45.4619V46.9648C119.841 47.0293 119.483 47.0615 119.026 47.0615C118.071 47.0615 117.392 46.8652 116.987 46.4727C116.583 46.0742 116.381 45.4121 116.381 44.4863V38.958H115.062V37.4551H116.381V35.3105ZM130.03 37.4551V47H128.211V45.3652H128.176C127.9 45.9336 127.499 46.3672 126.972 46.666C126.444 46.959 125.817 47.1055 125.091 47.1055C124.048 47.1055 123.216 46.7891 122.595 46.1562C121.979 45.5234 121.672 44.6621 121.672 43.5723V37.4551H123.579V43.2119C123.579 43.9443 123.767 44.5039 124.142 44.8906C124.517 45.2715 125.05 45.4619 125.741 45.4619C126.456 45.4619 127.03 45.2334 127.464 44.7764C127.903 44.3193 128.123 43.7129 128.123 42.957V37.4551H130.03ZM131.981 47V37.4551H133.801V39.0635H133.836C133.982 38.5303 134.261 38.1143 134.671 37.8154C135.087 37.5107 135.576 37.3584 136.139 37.3584C136.402 37.3584 136.613 37.3818 136.771 37.4287V39.2129C136.561 39.1309 136.282 39.0898 135.937 39.0898C135.31 39.0898 134.812 39.292 134.442 39.6963C134.073 40.0947 133.889 40.6309 133.889 41.3047V47H131.981ZM141.597 38.8877C140.911 38.8877 140.34 39.1162 139.883 39.5732C139.432 40.0303 139.18 40.625 139.127 41.3574H143.97C143.946 40.6133 143.718 40.0156 143.284 39.5645C142.851 39.1133 142.288 38.8877 141.597 38.8877ZM143.961 44.2051H145.78C145.646 45.0605 145.197 45.7607 144.436 46.3057C143.674 46.8447 142.757 47.1143 141.685 47.1143C140.302 47.1143 139.206 46.6807 138.397 45.8135C137.595 44.9404 137.193 43.7568 137.193 42.2627C137.193 40.7686 137.595 39.5732 138.397 38.6768C139.2 37.7803 140.27 37.332 141.605 37.332C142.918 37.332 143.958 37.7568 144.726 38.6064C145.493 39.4502 145.877 40.5957 145.877 42.043V42.7109H139.118V42.8252C139.118 43.6514 139.355 44.3164 139.83 44.8203C140.305 45.3184 140.935 45.5674 141.72 45.5674C142.276 45.5674 142.757 45.4443 143.161 45.1982C143.565 44.9521 143.832 44.6211 143.961 44.2051ZM147.257 40.1709C147.257 39.333 147.6 38.6533 148.285 38.1318C148.971 37.6045 149.861 37.3408 150.957 37.3408C152 37.3408 152.861 37.6074 153.541 38.1406C154.227 38.668 154.581 39.3477 154.604 40.1797H152.812C152.771 39.7578 152.58 39.4238 152.24 39.1777C151.9 38.9316 151.458 38.8086 150.913 38.8086C150.374 38.8086 149.938 38.9258 149.604 39.1602C149.275 39.3887 149.111 39.6904 149.111 40.0654C149.111 40.6396 149.606 41.0469 150.597 41.2871L152.179 41.665C153.14 41.8994 153.819 42.21 154.218 42.5967C154.616 42.9834 154.815 43.5283 154.815 44.2314C154.815 45.0811 154.449 45.7754 153.717 46.3145C152.984 46.8477 152.041 47.1143 150.887 47.1143C149.779 47.1143 148.871 46.8535 148.162 46.332C147.459 45.8047 147.072 45.1074 147.002 44.2402H148.883C148.959 44.6973 149.176 45.0488 149.533 45.2949C149.896 45.5352 150.38 45.6553 150.983 45.6553C151.575 45.6553 152.044 45.541 152.39 45.3125C152.741 45.084 152.917 44.7764 152.917 44.3896C152.917 44.085 152.812 43.8447 152.601 43.6689C152.396 43.4932 152.041 43.3408 151.537 43.2119L149.832 42.79C148.115 42.3682 147.257 41.4951 147.257 40.1709Z" fill="black"/>
<path d="M37.4375 81.8484H35.8555V76.074H28.8945V81.8484H27.3125V69.1658H28.8945V74.6502H35.8555V69.1658H37.4375V81.8484ZM40.5137 81.8484V72.3738H42.0254V81.8484H40.5137ZM42.0166 70.1414C41.8115 70.3465 41.5625 70.449 41.2695 70.449C40.9766 70.449 40.7275 70.3465 40.5225 70.1414C40.3174 69.9305 40.2148 69.6815 40.2148 69.3943C40.2148 69.1072 40.3174 68.8611 40.5225 68.6561C40.7275 68.4451 40.9766 68.3397 41.2695 68.3397C41.5625 68.3397 41.8115 68.4451 42.0166 68.6561C42.2217 68.8611 42.3242 69.1072 42.3242 69.3943C42.3242 69.6815 42.2217 69.9305 42.0166 70.1414ZM51.5527 76.9705C51.5527 75.9334 51.3008 75.1072 50.7969 74.492C50.293 73.8768 49.6074 73.5692 48.7402 73.5692C47.873 73.5692 47.1992 73.8738 46.7188 74.4832C46.2383 75.0926 45.998 75.9217 45.998 76.9705C45.998 78.0193 46.2383 78.8484 46.7188 79.4578C47.1992 80.0672 47.873 80.3719 48.7402 80.3719C49.6133 80.3719 50.2988 80.0672 50.7969 79.4578C51.3008 78.8426 51.5527 78.0135 51.5527 76.9705ZM48.8105 85.4871C47.6797 85.4871 46.7627 85.2527 46.0596 84.784C45.3623 84.3152 44.9551 83.6854 44.8379 82.8943H46.4375C46.5195 83.2869 46.7686 83.5975 47.1846 83.826C47.6006 84.0545 48.1426 84.1688 48.8105 84.1688C49.6602 84.1688 50.3223 83.9695 50.7969 83.5711C51.2773 83.1785 51.5176 82.6336 51.5176 81.9363V80.0731H51.377C51.0781 80.5945 50.6709 80.9988 50.1553 81.2859C49.6396 81.5672 49.0566 81.7078 48.4062 81.7078C47.1875 81.7078 46.2207 81.2772 45.5059 80.4158C44.791 79.5486 44.4336 78.4002 44.4336 76.9705C44.4336 75.5408 44.7939 74.3895 45.5146 73.5164C46.2354 72.6434 47.1992 72.2068 48.4062 72.2068C49.0684 72.2068 49.6719 72.3592 50.2168 72.6639C50.7617 72.9627 51.1719 73.367 51.4473 73.8768H51.5879V72.3738H53.0293V82.0154C53.0293 83.076 52.6484 83.9197 51.8867 84.5467C51.125 85.1736 50.0996 85.4871 48.8105 85.4871ZM55.9648 81.8484V68.6121H57.4766V73.868H57.6172C57.8574 73.3406 58.2383 72.9334 58.7598 72.6463C59.2812 72.3533 59.9023 72.2068 60.623 72.2068C61.6953 72.2068 62.5215 72.5145 63.1016 73.1297C63.6875 73.7391 63.9805 74.6004 63.9805 75.7137V81.8484H62.4688V76.0828C62.4688 74.407 61.71 73.5692 60.1924 73.5692C59.3545 73.5692 58.6924 73.8123 58.2061 74.2986C57.7197 74.785 57.4766 75.4324 57.4766 76.241V81.8484H55.9648ZM66.8281 81.8484V68.6121H68.3398V81.8484H66.8281ZM71.3105 81.8484V72.3738H72.8223V81.8484H71.3105ZM72.8135 70.1414C72.6084 70.3465 72.3594 70.449 72.0664 70.449C71.7734 70.449 71.5244 70.3465 71.3193 70.1414C71.1143 69.9305 71.0117 69.6815 71.0117 69.3943C71.0117 69.1072 71.1143 68.8611 71.3193 68.6561C71.5244 68.4451 71.7734 68.3397 72.0664 68.3397C72.3594 68.3397 72.6084 68.4451 72.8135 68.6561C73.0186 68.8611 73.1211 69.1072 73.1211 69.3943C73.1211 69.6815 73.0186 69.9305 72.8135 70.1414ZM82.3496 76.9705C82.3496 75.9334 82.0977 75.1072 81.5938 74.492C81.0898 73.8768 80.4043 73.5692 79.5371 73.5692C78.6699 73.5692 77.9961 73.8738 77.5156 74.4832C77.0352 75.0926 76.7949 75.9217 76.7949 76.9705C76.7949 78.0193 77.0352 78.8484 77.5156 79.4578C77.9961 80.0672 78.6699 80.3719 79.5371 80.3719C80.4102 80.3719 81.0957 80.0672 81.5938 79.4578C82.0977 78.8426 82.3496 78.0135 82.3496 76.9705ZM79.6074 85.4871C78.4766 85.4871 77.5596 85.2527 76.8564 84.784C76.1592 84.3152 75.752 83.6854 75.6348 82.8943H77.2344C77.3164 83.2869 77.5654 83.5975 77.9814 83.826C78.3975 84.0545 78.9395 84.1688 79.6074 84.1688C80.457 84.1688 81.1191 83.9695 81.5938 83.5711C82.0742 83.1785 82.3145 82.6336 82.3145 81.9363V80.0731H82.1738C81.875 80.5945 81.4678 80.9988 80.9521 81.2859C80.4365 81.5672 79.8535 81.7078 79.2031 81.7078C77.9844 81.7078 77.0176 81.2772 76.3027 80.4158C75.5879 79.5486 75.2305 78.4002 75.2305 76.9705C75.2305 75.5408 75.5908 74.3895 76.3115 73.5164C77.0322 72.6434 77.9961 72.2068 79.2031 72.2068C79.8652 72.2068 80.4688 72.3592 81.0137 72.6639C81.5586 72.9627 81.9688 73.367 82.2441 73.8768H82.3848V72.3738H83.8262V82.0154C83.8262 83.076 83.4453 83.9197 82.6836 84.5467C81.9219 85.1736 80.8965 85.4871 79.6074 85.4871ZM86.7617 81.8484V68.6121H88.2734V73.868H88.4141C88.6543 73.3406 89.0352 72.9334 89.5566 72.6463C90.0781 72.3533 90.6992 72.2068 91.4199 72.2068C92.4922 72.2068 93.3184 72.5145 93.8984 73.1297C94.4844 73.7391 94.7773 74.6004 94.7773 75.7137V81.8484H93.2656V76.0828C93.2656 74.407 92.5068 73.5692 90.9893 73.5692C90.1514 73.5692 89.4893 73.8123 89.0029 74.2986C88.5166 74.785 88.2734 75.4324 88.2734 76.241V81.8484H86.7617ZM98.1699 70.0096H99.6816V72.3738H101.879V73.6395H99.6816V79.0008C99.6816 79.5574 99.793 79.9617 100.016 80.2137C100.238 80.4656 100.596 80.5916 101.088 80.5916C101.293 80.5916 101.521 80.5799 101.773 80.5565V81.8309C101.439 81.8895 101.149 81.9188 100.903 81.9188C99.9248 81.9188 99.2246 81.7225 98.8027 81.3299C98.3809 80.9373 98.1699 80.2899 98.1699 79.3875V73.6395H96.5791V72.3738H98.1699V70.0096ZM110.976 69.1658V77.3836C110.976 78.3621 111.28 79.159 111.89 79.7742C112.505 80.3836 113.352 80.6883 114.43 80.6883C115.508 80.6883 116.352 80.3836 116.961 79.7742C117.576 79.159 117.884 78.3621 117.884 77.3836V69.1658H119.466V77.4891C119.466 78.866 119.012 79.9881 118.104 80.8553C117.201 81.7166 115.977 82.1473 114.43 82.1473C112.883 82.1473 111.655 81.7166 110.747 80.8553C109.845 79.9881 109.394 78.866 109.394 77.4891V69.1658H110.976ZM122.551 81.8484V72.3738H123.992V73.868H124.133C124.373 73.3406 124.757 72.9334 125.284 72.6463C125.812 72.3533 126.436 72.2068 127.156 72.2068C128.217 72.2068 129.034 72.5115 129.608 73.1209C130.183 73.7244 130.47 74.5887 130.47 75.7137V81.8484H128.958V76.0828C128.958 75.2332 128.773 74.6033 128.404 74.1932C128.041 73.7772 127.481 73.5692 126.726 73.5692C125.894 73.5692 125.24 73.8065 124.766 74.2811C124.297 74.7557 124.062 75.409 124.062 76.241V81.8484H122.551ZM133.273 81.8484V72.3738H134.785V81.8484H133.273ZM134.776 70.1414C134.571 70.3465 134.322 70.449 134.029 70.449C133.736 70.449 133.487 70.3465 133.282 70.1414C133.077 69.9305 132.975 69.6815 132.975 69.3943C132.975 69.1072 133.077 68.8611 133.282 68.6561C133.487 68.4451 133.736 68.3397 134.029 68.3397C134.322 68.3397 134.571 68.4451 134.776 68.6561C134.981 68.8611 135.084 69.1072 135.084 69.3943C135.084 69.6815 134.981 69.9305 134.776 70.1414ZM141.157 72.2068C141.802 72.2068 142.396 72.3651 142.941 72.6815C143.492 72.9979 143.908 73.4227 144.189 73.9559H144.33V72.3738H145.789V85.0125H144.26V80.4246H144.119C143.498 81.4852 142.511 82.0154 141.157 82.0154C139.95 82.0154 138.986 81.5731 138.266 80.6883C137.551 79.7977 137.193 78.6053 137.193 77.1111C137.193 75.6287 137.554 74.4422 138.274 73.5516C138.995 72.6551 139.956 72.2068 141.157 72.2068ZM141.5 80.6531C142.367 80.6531 143.05 80.3367 143.548 79.7039C144.052 79.0652 144.304 78.201 144.304 77.1111C144.304 76.0272 144.052 75.1658 143.548 74.5272C143.044 73.8885 142.364 73.5692 141.509 73.5692C140.647 73.5692 139.974 73.8826 139.487 74.5096C139.001 75.1365 138.758 76.0037 138.758 77.1111C138.758 78.2244 138.998 79.0945 139.479 79.7215C139.965 80.3426 140.639 80.6531 141.5 80.6531ZM156.477 72.3738V81.8484H155.035V80.3631H154.895C154.66 80.8904 154.279 81.2977 153.752 81.5848C153.225 81.8719 152.598 82.0154 151.871 82.0154C150.811 82.0154 149.99 81.7108 149.41 81.1014C148.836 80.492 148.549 79.6277 148.549 78.5086V72.3738H150.061V78.1395C150.061 78.9891 150.242 79.619 150.605 80.0291C150.975 80.4334 151.537 80.6356 152.293 80.6356C153.131 80.6356 153.784 80.4012 154.253 79.9324C154.728 79.4637 154.965 78.8133 154.965 77.9813V72.3738H156.477ZM163.104 73.5428C162.348 73.5428 161.727 73.7977 161.24 74.3074C160.754 74.8172 160.481 75.491 160.423 76.3289H165.644C165.626 75.491 165.386 74.8172 164.923 74.3074C164.46 73.7977 163.854 73.5428 163.104 73.5428ZM165.6 79.3963H167.111C166.883 80.2166 166.417 80.8582 165.714 81.3211C165.017 81.784 164.152 82.0154 163.121 82.0154C161.809 82.0154 160.769 81.576 160.001 80.6971C159.233 79.8123 158.85 78.6199 158.85 77.1199C158.85 75.6258 159.236 74.4334 160.01 73.5428C160.783 72.6522 161.82 72.2068 163.121 72.2068C164.398 72.2068 165.403 72.6317 166.136 73.4813C166.868 74.3309 167.234 75.494 167.234 76.9705V77.5506H160.423V77.6209C160.464 78.5584 160.728 79.3026 161.214 79.8533C161.706 80.4041 162.354 80.6795 163.156 80.6795C164.381 80.6795 165.195 80.2518 165.6 79.3963ZM174.274 78.535H175.874C175.974 79.1971 176.316 79.7244 176.902 80.117C177.488 80.5096 178.232 80.7059 179.135 80.7059C179.99 80.7059 180.696 80.5008 181.253 80.0906C181.815 79.6746 182.097 79.1531 182.097 78.5262C182.097 77.9871 181.892 77.5418 181.481 77.1902C181.071 76.8328 180.43 76.5428 179.557 76.3201L177.931 75.8983C176.782 75.6111 175.947 75.1951 175.426 74.6502C174.904 74.1053 174.644 73.3817 174.644 72.4793C174.644 71.4012 175.054 70.5311 175.874 69.869C176.7 69.201 177.784 68.867 179.126 68.867C180.351 68.867 181.376 69.1951 182.202 69.8514C183.028 70.5076 183.474 71.3484 183.538 72.3738H181.947C181.836 71.7234 181.525 71.2166 181.016 70.8533C180.512 70.4842 179.864 70.2996 179.073 70.2996C178.229 70.2996 177.55 70.4959 177.034 70.8885C176.524 71.2752 176.27 71.7879 176.27 72.4266C176.27 72.9246 176.457 73.3289 176.832 73.6395C177.213 73.95 177.84 74.2166 178.713 74.4393L180.04 74.7908C181.353 75.119 182.293 75.5584 182.861 76.1092C183.436 76.66 183.723 77.4012 183.723 78.3328C183.723 79.4988 183.295 80.4276 182.439 81.119C181.584 81.8045 180.433 82.1473 178.985 82.1473C177.644 82.1473 176.542 81.8192 175.681 81.1629C174.825 80.5067 174.356 79.6307 174.274 78.535ZM189.945 73.5428C189.189 73.5428 188.568 73.7977 188.082 74.3074C187.596 74.8172 187.323 75.491 187.265 76.3289H192.485C192.468 75.491 192.228 74.8172 191.765 74.3074C191.302 73.7977 190.695 73.5428 189.945 73.5428ZM192.441 79.3963H193.953C193.725 80.2166 193.259 80.8582 192.556 81.3211C191.858 81.784 190.994 82.0154 189.963 82.0154C188.65 82.0154 187.61 81.576 186.843 80.6971C186.075 79.8123 185.691 78.6199 185.691 77.1199C185.691 75.6258 186.078 74.4334 186.852 73.5428C187.625 72.6522 188.662 72.2068 189.963 72.2068C191.24 72.2068 192.245 72.6317 192.978 73.4813C193.71 74.3309 194.076 75.494 194.076 76.9705V77.5506H187.265V77.6209C187.306 78.5584 187.569 79.3026 188.056 79.8533C188.548 80.4041 189.195 80.6795 189.998 80.6795C191.223 80.6795 192.037 80.2518 192.441 79.3963ZM196.537 81.8484V68.6121H198.049V81.8484H196.537ZM201.072 81.8484V68.6121H202.584V81.8484H201.072ZM205.555 81.8484V72.3738H207.066V81.8484H205.555ZM207.058 70.1414C206.853 70.3465 206.604 70.449 206.311 70.449C206.018 70.449 205.769 70.3465 205.563 70.1414C205.358 69.9305 205.256 69.6815 205.256 69.3943C205.256 69.1072 205.358 68.8611 205.563 68.6561C205.769 68.4451 206.018 68.3397 206.311 68.3397C206.604 68.3397 206.853 68.4451 207.058 68.6561C207.263 68.8611 207.365 69.1072 207.365 69.3943C207.365 69.6815 207.263 69.9305 207.058 70.1414ZM209.949 81.8484V72.3738H211.391V73.868H211.531C211.771 73.3406 212.155 72.9334 212.683 72.6463C213.21 72.3533 213.834 72.2068 214.555 72.2068C215.615 72.2068 216.433 72.5115 217.007 73.1209C217.581 73.7244 217.868 74.5887 217.868 75.7137V81.8484H216.356V76.0828C216.356 75.2332 216.172 74.6033 215.803 74.1932C215.439 73.7772 214.88 73.5692 214.124 73.5692C213.292 73.5692 212.639 73.8065 212.164 74.2811C211.695 74.7557 211.461 75.409 211.461 76.241V81.8484H209.949ZM227.281 76.9705C227.281 75.9334 227.029 75.1072 226.525 74.492C226.021 73.8768 225.336 73.5692 224.469 73.5692C223.602 73.5692 222.928 73.8738 222.447 74.4832C221.967 75.0926 221.727 75.9217 221.727 76.9705C221.727 78.0193 221.967 78.8484 222.447 79.4578C222.928 80.0672 223.602 80.3719 224.469 80.3719C225.342 80.3719 226.027 80.0672 226.525 79.4578C227.029 78.8426 227.281 78.0135 227.281 76.9705ZM224.539 85.4871C223.408 85.4871 222.491 85.2527 221.788 84.784C221.091 84.3152 220.684 83.6854 220.566 82.8943H222.166C222.248 83.2869 222.497 83.5975 222.913 83.826C223.329 84.0545 223.871 84.1688 224.539 84.1688C225.389 84.1688 226.051 83.9695 226.525 83.5711C227.006 83.1785 227.246 82.6336 227.246 81.9363V80.0731H227.105C226.807 80.5945 226.399 80.9988 225.884 81.2859C225.368 81.5672 224.785 81.7078 224.135 81.7078C222.916 81.7078 221.949 81.2772 221.234 80.4158C220.52 79.5486 220.162 78.4002 220.162 76.9705C220.162 75.5408 220.522 74.3895 221.243 73.5164C221.964 72.6434 222.928 72.2068 224.135 72.2068C224.797 72.2068 225.4 72.3592 225.945 72.6639C226.49 72.9627 226.9 73.367 227.176 73.8768H227.316V72.3738H228.758V82.0154C228.758 83.076 228.377 83.9197 227.615 84.5467C226.854 85.1736 225.828 85.4871 224.539 85.4871ZM236.879 69.1658H241.669C242.87 69.1658 243.846 69.5496 244.596 70.3172C245.352 71.0789 245.729 72.0633 245.729 73.2703C245.729 74.4539 245.346 75.4266 244.578 76.1883C243.816 76.9442 242.841 77.3221 241.651 77.3221H238.461V81.8484H236.879V69.1658ZM238.461 70.5721V75.9158H241.256C242.158 75.9158 242.858 75.6844 243.356 75.2215C243.854 74.7586 244.104 74.1082 244.104 73.2703C244.104 72.3973 243.857 71.7293 243.365 71.2664C242.879 70.8035 242.176 70.5721 241.256 70.5721H238.461ZM249.685 79.7303C250.171 80.3455 250.862 80.6531 251.759 80.6531C252.655 80.6531 253.347 80.3455 253.833 79.7303C254.319 79.1092 254.562 78.2361 254.562 77.1111C254.562 75.9861 254.319 75.116 253.833 74.5008C253.347 73.8797 252.655 73.5692 251.759 73.5692C250.862 73.5692 250.171 73.8797 249.685 74.5008C249.198 75.116 248.955 75.9861 248.955 77.1111C248.955 78.2361 249.198 79.1092 249.685 79.7303ZM254.949 80.7059C254.17 81.5789 253.106 82.0154 251.759 82.0154C250.411 82.0154 249.345 81.5789 248.56 80.7059C247.78 79.827 247.391 78.6287 247.391 77.1111C247.391 75.5877 247.78 74.3895 248.56 73.5164C249.339 72.6434 250.405 72.2068 251.759 72.2068C253.112 72.2068 254.179 72.6434 254.958 73.5164C255.737 74.3895 256.127 75.5877 256.127 77.1111C256.127 78.6287 255.734 79.827 254.949 80.7059ZM258.535 81.8484V72.3738H260.047V81.8484H258.535ZM260.038 70.1414C259.833 70.3465 259.584 70.449 259.291 70.449C258.998 70.449 258.749 70.3465 258.544 70.1414C258.339 69.9305 258.236 69.6815 258.236 69.3943C258.236 69.1072 258.339 68.8611 258.544 68.6561C258.749 68.4451 258.998 68.3397 259.291 68.3397C259.584 68.3397 259.833 68.4451 260.038 68.6561C260.243 68.8611 260.346 69.1072 260.346 69.3943C260.346 69.6815 260.243 69.9305 260.038 70.1414ZM262.93 81.8484V72.3738H264.371V73.868H264.512C264.752 73.3406 265.136 72.9334 265.663 72.6463C266.19 72.3533 266.814 72.2068 267.535 72.2068C268.596 72.2068 269.413 72.5115 269.987 73.1209C270.562 73.7244 270.849 74.5887 270.849 75.7137V81.8484H269.337V76.0828C269.337 75.2332 269.152 74.6033 268.783 74.1932C268.42 73.7772 267.86 73.5692 267.104 73.5692C266.272 73.5692 265.619 73.8065 265.145 74.2811C264.676 74.7557 264.441 75.409 264.441 76.241V81.8484H262.93ZM274.25 70.0096H275.762V72.3738H277.959V73.6395H275.762V79.0008C275.762 79.5574 275.873 79.9617 276.096 80.2137C276.318 80.4656 276.676 80.5916 277.168 80.5916C277.373 80.5916 277.602 80.5799 277.854 80.5565V81.8309C277.52 81.8895 277.229 81.9188 276.983 81.9188C276.005 81.9188 275.305 81.7225 274.883 81.3299C274.461 80.9373 274.25 80.2899 274.25 79.3875V73.6395H272.659V72.3738H274.25V70.0096ZM279.761 74.9666C279.761 74.1815 280.098 73.5252 280.771 72.9979C281.445 72.4705 282.286 72.2068 283.294 72.2068C284.284 72.2068 285.102 72.4354 285.746 72.8924C286.391 73.3494 286.763 73.9676 286.862 74.7469H285.368C285.263 74.3602 285.028 74.0555 284.665 73.8328C284.308 73.6043 283.848 73.4901 283.285 73.4901C282.717 73.4901 282.239 73.6219 281.853 73.8856C281.472 74.1492 281.281 74.4891 281.281 74.9051C281.281 75.2274 281.413 75.4969 281.677 75.7137C281.946 75.9246 282.362 76.0975 282.925 76.2322L284.384 76.5838C285.286 76.8006 285.951 77.1141 286.379 77.5242C286.812 77.9344 287.029 78.4764 287.029 79.1502C287.029 79.9881 286.669 80.6766 285.948 81.2156C285.228 81.7488 284.322 82.0154 283.232 82.0154C282.178 82.0154 281.313 81.7811 280.64 81.3123C279.966 80.8436 279.588 80.2166 279.506 79.4315H281.062C281.19 79.8416 281.445 80.1639 281.826 80.3983C282.207 80.6268 282.693 80.741 283.285 80.741C283.924 80.741 284.448 80.6033 284.858 80.3279C285.269 80.0526 285.474 79.6981 285.474 79.2645C285.474 78.6199 284.973 78.1746 283.971 77.9285L282.345 77.533C281.448 77.3162 280.792 77.0057 280.376 76.6014C279.966 76.1912 279.761 75.6463 279.761 74.9666ZM290.65 81.9363C290.34 81.9363 290.07 81.825 289.842 81.6024C289.619 81.3738 289.508 81.1043 289.508 80.7938C289.508 80.4774 289.619 80.2078 289.842 79.9852C290.07 79.7625 290.34 79.6512 290.65 79.6512C290.967 79.6512 291.236 79.7625 291.459 79.9852C291.682 80.2078 291.793 80.4774 291.793 80.7938C291.793 81.1043 291.682 81.3738 291.459 81.6024C291.236 81.825 290.967 81.9363 290.65 81.9363Z" fill="black" fill-opacity="0.5"/>
<path d="M28.4 114.06C28.2617 114.06 28.1436 114.011 28.0457 113.913C27.9478 113.809 27.8988 113.685 27.8988 113.541C27.8988 113.409 27.9478 113.294 28.0457 113.196C28.1436 113.092 28.2617 113.04 28.4 113.04H44.6711C44.8094 113.04 44.9275 113.092 45.0254 113.196C45.1291 113.294 45.181 113.409 45.181 113.541C45.181 113.685 45.1291 113.809 45.0254 113.913C44.9275 114.011 44.8094 114.06 44.6711 114.06H28.4ZM28.4 110.137C28.2617 110.137 28.1436 110.088 28.0457 109.99C27.9478 109.892 27.8988 109.774 27.8988 109.636C27.8988 109.497 27.9478 109.379 28.0457 109.281C28.1436 109.178 28.2617 109.126 28.4 109.126H44.6711C44.8094 109.126 44.9275 109.178 45.0254 109.281C45.1291 109.379 45.181 109.497 45.181 109.636C45.181 109.774 45.1291 109.892 45.0254 109.99C44.9275 110.088 44.8094 110.137 44.6711 110.137H28.4ZM28.4 106.222C28.2617 106.222 28.1436 106.173 28.0457 106.075C27.9478 105.977 27.8988 105.859 27.8988 105.721C27.8988 105.577 27.9478 105.459 28.0457 105.367C28.1436 105.269 28.2617 105.22 28.4 105.22H44.6711C44.8094 105.22 44.9275 105.269 45.0254 105.367C45.1291 105.459 45.181 105.577 45.181 105.721C45.181 105.859 45.1291 105.977 45.0254 106.075C44.9275 106.173 44.8094 106.222 44.6711 106.222H28.4Z" fill="#6A788D"/>
<path d="M62.3349 118.277C61.1481 118.277 60.0306 118.049 58.9821 117.594C57.9394 117.145 57.0177 116.522 56.217 115.727C55.422 114.927 54.7969 114.005 54.3419 112.962C53.8925 111.914 53.6678 110.796 53.6678 109.61C53.6678 108.423 53.8925 107.308 54.3419 106.265C54.7969 105.217 55.422 104.295 56.217 103.5C57.0119 102.7 57.9308 102.075 58.9735 101.625C60.0219 101.17 61.1395 100.943 62.3262 100.943C63.5129 100.943 64.6305 101.17 65.679 101.625C66.7274 102.075 67.6491 102.7 68.4441 103.5C69.2391 104.295 69.8641 105.217 70.3192 106.265C70.7743 107.308 71.0019 108.423 71.0019 109.61C71.0019 110.796 70.7743 111.914 70.3192 112.962C69.8641 114.005 69.2391 114.927 68.4441 115.727C67.6491 116.522 66.7274 117.145 65.679 117.594C64.6363 118.049 63.5216 118.277 62.3349 118.277ZM61.3843 113.783C61.4938 113.783 61.5946 113.757 61.6868 113.705C61.7789 113.654 61.8596 113.576 61.9287 113.472L66.2061 106.784C66.2464 106.721 66.281 106.651 66.3098 106.577C66.3443 106.502 66.3616 106.427 66.3616 106.352C66.3616 106.202 66.304 106.081 66.1888 105.989C66.0736 105.897 65.9468 105.851 65.8086 105.851C65.6185 105.851 65.46 105.952 65.3333 106.153L61.3584 112.453L59.3191 109.947C59.2385 109.843 59.1578 109.771 59.0772 109.731C59.0023 109.69 58.9159 109.67 58.8179 109.67C58.6739 109.67 58.5501 109.725 58.4464 109.834C58.3427 109.944 58.2908 110.073 58.2908 110.223C58.2908 110.298 58.3052 110.373 58.334 110.448C58.3628 110.517 58.4032 110.586 58.455 110.655L60.8054 113.472C60.8918 113.582 60.9811 113.662 61.0733 113.714C61.1654 113.76 61.2691 113.783 61.3843 113.783Z" fill="#3C4350"/>
<path d="M80.6807 104.166V112.225C80.6807 113.151 80.959 113.898 81.5156 114.467C82.0781 115.029 82.8545 115.31 83.8447 115.31C84.835 115.31 85.6113 115.029 86.1738 114.467C86.7363 113.898 87.0176 113.151 87.0176 112.225V104.166H88.9775V112.392C88.9775 113.781 88.5146 114.906 87.5889 115.767C86.6631 116.629 85.415 117.059 83.8447 117.059C82.2744 117.059 81.0264 116.629 80.1006 115.767C79.1748 114.906 78.7119 113.781 78.7119 112.392V104.166H80.6807ZM90.9639 110.019C90.9639 109.181 91.3066 108.502 91.9922 107.98C92.6777 107.453 93.5684 107.189 94.6641 107.189C95.707 107.189 96.5684 107.456 97.248 107.989C97.9336 108.516 98.2881 109.196 98.3115 110.028H96.5186C96.4775 109.606 96.2871 109.272 95.9473 109.026C95.6074 108.78 95.165 108.657 94.6201 108.657C94.0811 108.657 93.6445 108.774 93.3105 109.009C92.9824 109.237 92.8184 109.539 92.8184 109.914C92.8184 110.488 93.3135 110.895 94.3037 111.136L95.8857 111.513C96.8467 111.748 97.5264 112.058 97.9248 112.445C98.3232 112.832 98.5225 113.377 98.5225 114.08C98.5225 114.93 98.1562 115.624 97.4238 116.163C96.6914 116.696 95.748 116.963 94.5938 116.963C93.4863 116.963 92.5781 116.702 91.8691 116.18C91.166 115.653 90.7793 114.956 90.709 114.089H92.5898C92.666 114.546 92.8828 114.897 93.2402 115.143C93.6035 115.384 94.0869 115.504 94.6904 115.504C95.2822 115.504 95.751 115.389 96.0967 115.161C96.4482 114.932 96.624 114.625 96.624 114.238C96.624 113.933 96.5186 113.693 96.3076 113.517C96.1025 113.342 95.748 113.189 95.2441 113.06L93.5391 112.638C91.8223 112.217 90.9639 111.344 90.9639 110.019ZM104.042 108.736C103.356 108.736 102.785 108.965 102.328 109.422C101.877 109.879 101.625 110.473 101.572 111.206H106.415C106.392 110.462 106.163 109.864 105.729 109.413C105.296 108.962 104.733 108.736 104.042 108.736ZM106.406 114.054H108.226C108.091 114.909 107.643 115.609 106.881 116.154C106.119 116.693 105.202 116.963 104.13 116.963C102.747 116.963 101.651 116.529 100.843 115.662C100.04 114.789 99.6387 113.605 99.6387 112.111C99.6387 110.617 100.04 109.422 100.843 108.525C101.646 107.629 102.715 107.18 104.051 107.18C105.363 107.18 106.403 107.605 107.171 108.455C107.938 109.299 108.322 110.444 108.322 111.891V112.559H101.563V112.674C101.563 113.5 101.801 114.165 102.275 114.669C102.75 115.167 103.38 115.416 104.165 115.416C104.722 115.416 105.202 115.293 105.606 115.047C106.011 114.801 106.277 114.47 106.406 114.054ZM109.86 116.848V107.304H111.68V108.912H111.715C111.861 108.379 112.14 107.963 112.55 107.664C112.966 107.359 113.455 107.207 114.018 107.207C114.281 107.207 114.492 107.23 114.65 107.277V109.061C114.439 108.979 114.161 108.938 113.815 108.938C113.188 108.938 112.69 109.14 112.321 109.545C111.952 109.943 111.768 110.479 111.768 111.153V116.848H109.86ZM121.418 112.674H115.652V110.96H121.418V112.674ZM123.984 116.848V108.806H122.666V107.304H123.984V106.425C123.984 105.528 124.201 104.878 124.635 104.473C125.068 104.063 125.766 103.858 126.727 103.858C127.031 103.858 127.354 103.888 127.693 103.946V105.396C127.488 105.349 127.251 105.326 126.981 105.326C126.589 105.326 126.305 105.417 126.129 105.598C125.959 105.78 125.871 106.076 125.865 106.486V107.304H127.702V108.806H125.883V116.848H123.984ZM129.284 116.848V107.304H131.104V108.912H131.139C131.285 108.379 131.563 107.963 131.974 107.664C132.39 107.359 132.879 107.207 133.441 107.207C133.705 107.207 133.916 107.23 134.074 107.277V109.061C133.863 108.979 133.585 108.938 133.239 108.938C132.612 108.938 132.114 109.14 131.745 109.545C131.376 109.943 131.191 110.479 131.191 111.153V116.848H129.284ZM135.401 116.848V107.304H137.309V116.848H135.401ZM137.15 105.625C136.934 105.836 136.67 105.941 136.359 105.941C136.049 105.941 135.785 105.836 135.568 105.625C135.352 105.408 135.243 105.147 135.243 104.843C135.243 104.532 135.352 104.271 135.568 104.06C135.785 103.849 136.049 103.744 136.359 103.744C136.67 103.744 136.934 103.849 137.15 104.06C137.367 104.271 137.476 104.532 137.476 104.843C137.476 105.147 137.367 105.408 137.15 105.625ZM143.312 108.736C142.626 108.736 142.055 108.965 141.598 109.422C141.146 109.879 140.895 110.473 140.842 111.206H145.685C145.661 110.462 145.433 109.864 144.999 109.413C144.565 108.962 144.003 108.736 143.312 108.736ZM145.676 114.054H147.495C147.36 114.909 146.912 115.609 146.15 116.154C145.389 116.693 144.472 116.963 143.399 116.963C142.017 116.963 140.921 116.529 140.112 115.662C139.31 114.789 138.908 113.605 138.908 112.111C138.908 110.617 139.31 109.422 140.112 108.525C140.915 107.629 141.984 107.18 143.32 107.18C144.633 107.18 145.673 107.605 146.44 108.455C147.208 109.299 147.592 110.444 147.592 111.891V112.559H140.833V112.674C140.833 113.5 141.07 114.165 141.545 114.669C142.02 115.167 142.649 115.416 143.435 115.416C143.991 115.416 144.472 115.293 144.876 115.047C145.28 114.801 145.547 114.47 145.676 114.054ZM149.13 116.848V107.304H150.949V108.912H150.984C151.576 107.769 152.61 107.198 154.087 107.198C155.142 107.198 155.971 107.514 156.574 108.147C157.184 108.774 157.488 109.636 157.488 110.731V116.848H155.581V111.092C155.581 110.365 155.396 109.808 155.027 109.422C154.658 109.029 154.125 108.833 153.428 108.833C152.707 108.833 152.127 109.064 151.688 109.527C151.254 109.984 151.037 110.588 151.037 111.338V116.848H149.13ZM162.99 116.945C161.789 116.945 160.816 116.5 160.072 115.609C159.334 114.719 158.965 113.538 158.965 112.067C158.965 110.608 159.334 109.433 160.072 108.543C160.816 107.652 161.783 107.207 162.973 107.207C163.652 107.207 164.253 107.356 164.774 107.655C165.302 107.948 165.703 108.358 165.979 108.886H166.022V103.595H167.921V116.848H166.075V115.231H166.04C165.759 115.776 165.352 116.198 164.818 116.497C164.291 116.796 163.682 116.945 162.99 116.945ZM163.474 108.824C162.706 108.824 162.088 109.12 161.619 109.712C161.15 110.304 160.916 111.092 160.916 112.076C160.916 113.066 161.147 113.857 161.61 114.449C162.079 115.035 162.7 115.328 163.474 115.328C164.241 115.328 164.859 115.029 165.328 114.431C165.797 113.834 166.031 113.049 166.031 112.076C166.031 111.103 165.794 110.318 165.319 109.721C164.851 109.123 164.235 108.824 163.474 108.824ZM170.021 116.848V103.595H171.929V116.848H170.021ZM174.926 120.32C174.609 120.32 174.352 120.303 174.152 120.267V118.721C174.27 118.75 174.472 118.764 174.759 118.764C175.216 118.764 175.576 118.656 175.84 118.439C176.109 118.228 176.326 117.871 176.49 117.367L176.64 116.875L173.177 107.304H175.225L177.677 115.108H177.721L180.173 107.304H182.177L178.6 117.288C178.189 118.43 177.718 119.221 177.185 119.661C176.657 120.1 175.904 120.32 174.926 120.32ZM187.556 116.848V107.304H189.463V116.848H187.556ZM189.305 105.625C189.088 105.836 188.824 105.941 188.514 105.941C188.203 105.941 187.939 105.836 187.723 105.625C187.506 105.408 187.397 105.147 187.397 104.843C187.397 104.532 187.506 104.271 187.723 104.06C187.939 103.849 188.203 103.744 188.514 103.744C188.824 103.744 189.088 103.849 189.305 104.06C189.521 104.271 189.63 104.532 189.63 104.843C189.63 105.147 189.521 105.408 189.305 105.625ZM191.493 116.848V107.304H193.312V108.912H193.348C193.939 107.769 194.974 107.198 196.45 107.198C197.505 107.198 198.334 107.514 198.938 108.147C199.547 108.774 199.852 109.636 199.852 110.731V116.848H197.944V111.092C197.944 110.365 197.76 109.808 197.391 109.422C197.021 109.029 196.488 108.833 195.791 108.833C195.07 108.833 194.49 109.064 194.051 109.527C193.617 109.984 193.4 110.588 193.4 111.338V116.848H191.493ZM202.33 105.159H204.229V107.304H206.057V108.806H204.229V114.141C204.229 114.557 204.322 114.865 204.51 115.064C204.703 115.258 204.999 115.354 205.397 115.354C205.626 115.354 205.843 115.34 206.048 115.31V116.813C205.79 116.878 205.433 116.91 204.976 116.91C204.021 116.91 203.341 116.714 202.937 116.321C202.532 115.923 202.33 115.261 202.33 114.335V108.806H201.012V107.304H202.33V105.159ZM211.409 108.736C210.724 108.736 210.152 108.965 209.695 109.422C209.244 109.879 208.992 110.473 208.939 111.206H213.782C213.759 110.462 213.53 109.864 213.097 109.413C212.663 108.962 212.101 108.736 211.409 108.736ZM213.773 114.054H215.593C215.458 114.909 215.01 115.609 214.248 116.154C213.486 116.693 212.569 116.963 211.497 116.963C210.114 116.963 209.019 116.529 208.21 115.662C207.407 114.789 207.006 113.605 207.006 112.111C207.006 110.617 207.407 109.422 208.21 108.525C209.013 107.629 210.082 107.18 211.418 107.18C212.73 107.18 213.771 107.605 214.538 108.455C215.306 109.299 215.689 110.444 215.689 111.891V112.559H208.931V112.674C208.931 113.5 209.168 114.165 209.643 114.669C210.117 115.167 210.747 115.416 211.532 115.416C212.089 115.416 212.569 115.293 212.974 115.047C213.378 114.801 213.645 114.47 213.773 114.054ZM217.228 116.848V107.304H219.047V108.912H219.082C219.229 108.379 219.507 107.963 219.917 107.664C220.333 107.359 220.822 107.207 221.385 107.207C221.648 107.207 221.859 107.23 222.018 107.277V109.061C221.807 108.979 221.528 108.938 221.183 108.938C220.556 108.938 220.058 109.14 219.688 109.545C219.319 109.943 219.135 110.479 219.135 111.153V116.848H217.228ZM223.846 116.848V108.806H222.527V107.304H223.846V106.425C223.846 105.528 224.062 104.878 224.496 104.473C224.93 104.063 225.627 103.858 226.588 103.858C226.893 103.858 227.215 103.888 227.555 103.946V105.396C227.35 105.349 227.112 105.326 226.843 105.326C226.45 105.326 226.166 105.417 225.99 105.598C225.82 105.78 225.732 106.076 225.727 106.486V107.304H227.563V108.806H225.744V116.848H223.846ZM232.424 115.425C233.133 115.425 233.725 115.222 234.199 114.818C234.674 114.408 234.911 113.889 234.911 113.263V112.515L232.591 112.674C231.272 112.756 230.613 113.224 230.613 114.08C230.613 114.49 230.777 114.818 231.105 115.064C231.434 115.305 231.873 115.425 232.424 115.425ZM231.914 116.945C230.959 116.945 230.183 116.687 229.585 116.172C228.987 115.65 228.688 114.965 228.688 114.115C228.688 113.283 228.999 112.63 229.62 112.155C230.247 111.68 231.152 111.405 232.336 111.329L234.911 111.18V110.441C234.911 109.896 234.735 109.48 234.384 109.193C234.038 108.9 233.546 108.754 232.907 108.754C232.392 108.754 231.955 108.877 231.598 109.123C231.246 109.369 231.029 109.7 230.947 110.116H229.163C229.192 109.272 229.564 108.572 230.279 108.015C230.994 107.459 231.888 107.18 232.96 107.18C234.126 107.18 235.055 107.465 235.746 108.033C236.443 108.601 236.792 109.357 236.792 110.301V116.848H234.973V115.258H234.929C234.665 115.773 234.261 116.183 233.716 116.488C233.171 116.793 232.57 116.945 231.914 116.945ZM246.864 110.564H245.045C244.951 110.037 244.705 109.609 244.307 109.281C243.914 108.953 243.401 108.789 242.769 108.789C241.995 108.789 241.374 109.088 240.905 109.685C240.442 110.283 240.211 111.08 240.211 112.076C240.211 113.096 240.445 113.898 240.914 114.484C241.383 115.07 242.004 115.363 242.777 115.363C243.398 115.363 243.905 115.217 244.298 114.924C244.696 114.625 244.951 114.197 245.062 113.64H246.882C246.771 114.642 246.343 115.448 245.599 116.057C244.854 116.661 243.911 116.963 242.769 116.963C241.409 116.963 240.319 116.523 239.499 115.644C238.685 114.765 238.277 113.576 238.277 112.076C238.277 110.594 238.685 109.407 239.499 108.516C240.313 107.626 241.397 107.18 242.751 107.18C243.343 107.18 243.891 107.271 244.395 107.453C244.898 107.629 245.32 107.872 245.66 108.182C246.006 108.493 246.281 108.853 246.486 109.263C246.697 109.668 246.823 110.101 246.864 110.564ZM252.261 108.736C251.575 108.736 251.004 108.965 250.547 109.422C250.096 109.879 249.844 110.473 249.791 111.206H254.634C254.61 110.462 254.382 109.864 253.948 109.413C253.515 108.962 252.952 108.736 252.261 108.736ZM254.625 114.054H256.444C256.31 114.909 255.861 115.609 255.1 116.154C254.338 116.693 253.421 116.963 252.349 116.963C250.966 116.963 249.87 116.529 249.062 115.662C248.259 114.789 247.857 113.605 247.857 112.111C247.857 110.617 248.259 109.422 249.062 108.525C249.864 107.629 250.934 107.18 252.27 107.18C253.582 107.18 254.622 107.605 255.39 108.455C256.157 109.299 256.541 110.444 256.541 111.891V112.559H249.782V112.674C249.782 113.5 250.02 114.165 250.494 114.669C250.969 115.167 251.599 115.416 252.384 115.416C252.94 115.416 253.421 115.293 253.825 115.047C254.229 114.801 254.496 114.47 254.625 114.054Z" fill="#3C4350"/>
<path d="M28.4 146.908C28.2617 146.908 28.1436 146.859 28.0457 146.761C27.9478 146.658 27.8988 146.534 27.8988 146.39C27.8988 146.257 27.9478 146.142 28.0457 146.044C28.1436 145.94 28.2617 145.889 28.4 145.889H44.6711C44.8094 145.889 44.9275 145.94 45.0254 146.044C45.1291 146.142 45.181 146.257 45.181 146.39C45.181 146.534 45.1291 146.658 45.0254 146.761C44.9275 146.859 44.8094 146.908 44.6711 146.908H28.4ZM28.4 142.985C28.2617 142.985 28.1436 142.936 28.0457 142.838C27.9478 142.74 27.8988 142.622 27.8988 142.484C27.8988 142.346 27.9478 142.228 28.0457 142.13C28.1436 142.026 28.2617 141.974 28.4 141.974H44.6711C44.8094 141.974 44.9275 142.026 45.0254 142.13C45.1291 142.228 45.181 142.346 45.181 142.484C45.181 142.622 45.1291 142.74 45.0254 142.838C44.9275 142.936 44.8094 142.985 44.6711 142.985H28.4ZM28.4 139.071C28.2617 139.071 28.1436 139.022 28.0457 138.924C27.9478 138.826 27.8988 138.708 27.8988 138.57C27.8988 138.426 27.9478 138.307 28.0457 138.215C28.1436 138.117 28.2617 138.068 28.4 138.068H44.6711C44.8094 138.068 44.9275 138.117 45.0254 138.215C45.1291 138.307 45.181 138.426 45.181 138.57C45.181 138.708 45.1291 138.826 45.0254 138.924C44.9275 139.022 44.8094 139.071 44.6711 139.071H28.4Z" fill="#6A788D"/>
<path d="M62.3349 151.125C61.1481 151.125 60.0306 150.897 58.9821 150.442C57.9394 149.993 57.0177 149.371 56.217 148.576C55.422 147.775 54.7969 146.853 54.3419 145.811C53.8925 144.762 53.6678 143.645 53.6678 142.458C53.6678 141.271 53.8925 140.157 54.3419 139.114C54.7969 138.065 55.422 137.144 56.217 136.349C57.0119 135.548 57.9308 134.923 58.9735 134.474C60.0219 134.019 61.1395 133.791 62.3262 133.791C63.5129 133.791 64.6305 134.019 65.679 134.474C66.7274 134.923 67.6491 135.548 68.4441 136.349C69.2391 137.144 69.8641 138.065 70.3192 139.114C70.7743 140.157 71.0019 141.271 71.0019 142.458C71.0019 143.645 70.7743 144.762 70.3192 145.811C69.8641 146.853 69.2391 147.775 68.4441 148.576C67.6491 149.371 66.7274 149.993 65.679 150.442C64.6363 150.897 63.5216 151.125 62.3349 151.125ZM61.3843 146.632C61.4938 146.632 61.5946 146.606 61.6868 146.554C61.7789 146.502 61.8596 146.424 61.9287 146.321L66.2061 139.632C66.2464 139.569 66.281 139.5 66.3098 139.425C66.3443 139.35 66.3616 139.275 66.3616 139.2C66.3616 139.051 66.304 138.93 66.1888 138.837C66.0736 138.745 65.9468 138.699 65.8086 138.699C65.6185 138.699 65.46 138.8 65.3333 139.002L61.3584 145.301L59.3191 142.795C59.2385 142.691 59.1578 142.619 59.0772 142.579C59.0023 142.539 58.9159 142.519 58.8179 142.519C58.6739 142.519 58.5501 142.573 58.4464 142.683C58.3427 142.792 58.2908 142.922 58.2908 143.072C58.2908 143.146 58.3052 143.221 58.334 143.296C58.3628 143.365 58.4032 143.434 58.455 143.504L60.8054 146.321C60.8918 146.43 60.9811 146.511 61.0733 146.563C61.1654 146.609 61.2691 146.632 61.3843 146.632Z" fill="#3C4350"/>
<path d="M86.7627 147.992V149.697H78.7119V137.014H86.7627V138.711H80.6807V142.42H86.4375V144.054H80.6807V147.992H86.7627ZM91.9043 148.273C92.6133 148.273 93.2051 148.071 93.6797 147.667C94.1543 147.256 94.3916 146.738 94.3916 146.111V145.364L92.0713 145.522C90.7529 145.604 90.0938 146.073 90.0938 146.928C90.0938 147.339 90.2578 147.667 90.5859 147.913C90.9141 148.153 91.3535 148.273 91.9043 148.273ZM91.3945 149.794C90.4395 149.794 89.6631 149.536 89.0654 149.02C88.4678 148.499 88.1689 147.813 88.1689 146.964C88.1689 146.131 88.4795 145.478 89.1006 145.004C89.7275 144.529 90.6328 144.254 91.8164 144.177L94.3916 144.028V143.29C94.3916 142.745 94.2158 142.329 93.8643 142.042C93.5186 141.749 93.0264 141.602 92.3877 141.602C91.8721 141.602 91.4355 141.725 91.0781 141.971C90.7266 142.217 90.5098 142.548 90.4277 142.964H88.6436C88.6729 142.121 89.0449 141.421 89.7598 140.864C90.4746 140.307 91.3682 140.029 92.4404 140.029C93.6064 140.029 94.5352 140.313 95.2266 140.881C95.9238 141.45 96.2725 142.206 96.2725 143.149V149.697H94.4531V148.106H94.4092C94.1455 148.622 93.7412 149.032 93.1963 149.337C92.6514 149.641 92.0508 149.794 91.3945 149.794ZM98.0303 142.868C98.0303 142.03 98.373 141.35 99.0586 140.829C99.7441 140.301 100.635 140.038 101.73 140.038C102.773 140.038 103.635 140.304 104.314 140.838C105 141.365 105.354 142.045 105.378 142.877H103.585C103.544 142.455 103.354 142.121 103.014 141.875C102.674 141.629 102.231 141.505 101.687 141.505C101.147 141.505 100.711 141.623 100.377 141.857C100.049 142.086 99.8848 142.387 99.8848 142.762C99.8848 143.337 100.38 143.744 101.37 143.984L102.952 144.362C103.913 144.596 104.593 144.907 104.991 145.294C105.39 145.68 105.589 146.225 105.589 146.928C105.589 147.778 105.223 148.472 104.49 149.011C103.758 149.545 102.814 149.811 101.66 149.811C100.553 149.811 99.6445 149.55 98.9355 149.029C98.2324 148.502 97.8457 147.804 97.7754 146.937H99.6562C99.7324 147.394 99.9492 147.746 100.307 147.992C100.67 148.232 101.153 148.352 101.757 148.352C102.349 148.352 102.817 148.238 103.163 148.009C103.515 147.781 103.69 147.473 103.69 147.087C103.69 146.782 103.585 146.542 103.374 146.366C103.169 146.19 102.814 146.038 102.311 145.909L100.605 145.487C98.8887 145.065 98.0303 144.192 98.0303 142.868ZM108.094 153.169C107.777 153.169 107.52 153.151 107.32 153.116V151.569C107.438 151.598 107.64 151.613 107.927 151.613C108.384 151.613 108.744 151.505 109.008 151.288C109.277 151.077 109.494 150.719 109.658 150.215L109.808 149.723L106.345 140.152H108.393L110.845 147.957H110.889L113.341 140.152H115.345L111.768 150.136C111.357 151.279 110.886 152.07 110.353 152.509C109.825 152.949 109.072 153.169 108.094 153.169ZM121.225 149.697V141.655H119.906V140.152H121.225V139.273C121.225 138.377 121.441 137.726 121.875 137.322C122.309 136.912 123.006 136.707 123.967 136.707C124.271 136.707 124.594 136.736 124.934 136.795V138.245C124.729 138.198 124.491 138.174 124.222 138.174C123.829 138.174 123.545 138.265 123.369 138.447C123.199 138.629 123.111 138.924 123.105 139.335V140.152H124.942V141.655H123.123V149.697H121.225ZM126.595 149.697V140.152H128.502V149.697H126.595ZM128.344 138.473C128.127 138.684 127.863 138.79 127.553 138.79C127.242 138.79 126.979 138.684 126.762 138.473C126.545 138.256 126.437 137.996 126.437 137.691C126.437 137.38 126.545 137.12 126.762 136.909C126.979 136.698 127.242 136.592 127.553 136.592C127.863 136.592 128.127 136.698 128.344 136.909C128.561 137.12 128.669 137.38 128.669 137.691C128.669 137.996 128.561 138.256 128.344 138.473ZM130.611 149.697V136.443H132.519V149.697H130.611ZM138.53 141.585C137.845 141.585 137.273 141.813 136.816 142.27C136.365 142.727 136.113 143.322 136.061 144.054H140.903C140.88 143.31 140.651 142.713 140.218 142.261C139.784 141.81 139.222 141.585 138.53 141.585ZM140.895 146.902H142.714C142.579 147.757 142.131 148.458 141.369 149.003C140.607 149.542 139.69 149.811 138.618 149.811C137.235 149.811 136.14 149.378 135.331 148.51C134.528 147.637 134.127 146.454 134.127 144.96C134.127 143.465 134.528 142.27 135.331 141.374C136.134 140.477 137.203 140.029 138.539 140.029C139.852 140.029 140.892 140.454 141.659 141.303C142.427 142.147 142.811 143.293 142.811 144.74V145.408H136.052V145.522C136.052 146.348 136.289 147.013 136.764 147.517C137.238 148.015 137.868 148.264 138.653 148.264C139.21 148.264 139.69 148.141 140.095 147.895C140.499 147.649 140.766 147.318 140.895 146.902ZM148.339 142.868C148.339 142.03 148.682 141.35 149.367 140.829C150.053 140.301 150.943 140.038 152.039 140.038C153.082 140.038 153.943 140.304 154.623 140.838C155.309 141.365 155.663 142.045 155.687 142.877H153.894C153.853 142.455 153.662 142.121 153.322 141.875C152.982 141.629 152.54 141.505 151.995 141.505C151.456 141.505 151.02 141.623 150.686 141.857C150.357 142.086 150.193 142.387 150.193 142.762C150.193 143.337 150.688 143.744 151.679 143.984L153.261 144.362C154.222 144.596 154.901 144.907 155.3 145.294C155.698 145.68 155.897 146.225 155.897 146.928C155.897 147.778 155.531 148.472 154.799 149.011C154.066 149.545 153.123 149.811 151.969 149.811C150.861 149.811 149.953 149.55 149.244 149.029C148.541 148.502 148.154 147.804 148.084 146.937H149.965C150.041 147.394 150.258 147.746 150.615 147.992C150.979 148.232 151.462 148.352 152.065 148.352C152.657 148.352 153.126 148.238 153.472 148.009C153.823 147.781 153.999 147.473 153.999 147.087C153.999 146.782 153.894 146.542 153.683 146.366C153.478 146.19 153.123 146.038 152.619 145.909L150.914 145.487C149.197 145.065 148.339 144.192 148.339 142.868ZM157.523 149.697V136.443H159.413V141.76H159.457C160.037 140.618 161.071 140.047 162.56 140.047C163.608 140.047 164.449 140.369 165.082 141.013C165.721 141.658 166.04 142.519 166.04 143.597V149.697H164.142V143.966C164.142 143.252 163.942 142.692 163.544 142.288C163.146 141.883 162.598 141.681 161.9 141.681C161.162 141.681 160.564 141.916 160.107 142.384C159.656 142.853 159.431 143.468 159.431 144.23V149.697H157.523ZM171.27 148.273C171.979 148.273 172.57 148.071 173.045 147.667C173.52 147.256 173.757 146.738 173.757 146.111V145.364L171.437 145.522C170.118 145.604 169.459 146.073 169.459 146.928C169.459 147.339 169.623 147.667 169.951 147.913C170.279 148.153 170.719 148.273 171.27 148.273ZM170.76 149.794C169.805 149.794 169.028 149.536 168.431 149.02C167.833 148.499 167.534 147.813 167.534 146.964C167.534 146.131 167.845 145.478 168.466 145.004C169.093 144.529 169.998 144.254 171.182 144.177L173.757 144.028V143.29C173.757 142.745 173.581 142.329 173.229 142.042C172.884 141.749 172.392 141.602 171.753 141.602C171.237 141.602 170.801 141.725 170.443 141.971C170.092 142.217 169.875 142.548 169.793 142.964H168.009C168.038 142.121 168.41 141.421 169.125 140.864C169.84 140.307 170.733 140.029 171.806 140.029C172.972 140.029 173.9 140.313 174.592 140.881C175.289 141.45 175.638 142.206 175.638 143.149V149.697H173.818V148.106H173.774C173.511 148.622 173.106 149.032 172.562 149.337C172.017 149.641 171.416 149.794 170.76 149.794ZM177.554 149.697V140.152H179.373V141.76H179.408C179.555 141.227 179.833 140.811 180.243 140.512C180.659 140.208 181.148 140.055 181.711 140.055C181.975 140.055 182.186 140.079 182.344 140.126V141.91C182.133 141.828 181.854 141.787 181.509 141.787C180.882 141.787 180.384 141.989 180.015 142.393C179.646 142.792 179.461 143.328 179.461 144.002V149.697H177.554ZM183.671 149.697V140.152H185.578V149.697H183.671ZM185.42 138.473C185.203 138.684 184.939 138.79 184.629 138.79C184.318 138.79 184.055 138.684 183.838 138.473C183.621 138.256 183.513 137.996 183.513 137.691C183.513 137.38 183.621 137.12 183.838 136.909C184.055 136.698 184.318 136.592 184.629 136.592C184.939 136.592 185.203 136.698 185.42 136.909C185.637 137.12 185.745 137.38 185.745 137.691C185.745 137.996 185.637 138.256 185.42 138.473ZM187.608 149.697V140.152H189.428V141.76H189.463C190.055 140.618 191.089 140.047 192.565 140.047C193.62 140.047 194.449 140.363 195.053 140.996C195.662 141.623 195.967 142.484 195.967 143.58V149.697H194.06V143.94C194.06 143.214 193.875 142.657 193.506 142.27C193.137 141.878 192.604 141.681 191.906 141.681C191.186 141.681 190.605 141.913 190.166 142.376C189.732 142.833 189.516 143.436 189.516 144.186V149.697H187.608ZM201.926 148.089C202.699 148.089 203.32 147.798 203.789 147.218C204.264 146.632 204.501 145.859 204.501 144.898C204.501 143.931 204.264 143.152 203.789 142.56C203.32 141.968 202.699 141.672 201.926 141.672C201.158 141.672 200.543 141.965 200.08 142.551C199.623 143.137 199.395 143.92 199.395 144.898C199.395 145.871 199.623 146.647 200.08 147.227C200.543 147.801 201.158 148.089 201.926 148.089ZM201.935 153.133C200.786 153.133 199.837 152.887 199.087 152.395C198.337 151.903 197.915 151.25 197.821 150.435H199.746C199.852 150.804 200.109 151.097 200.52 151.314C200.93 151.531 201.428 151.639 202.014 151.639C202.77 151.639 203.373 151.455 203.824 151.086C204.275 150.716 204.501 150.221 204.501 149.6V148.027H204.457C204.182 148.543 203.774 148.947 203.235 149.24C202.702 149.527 202.099 149.671 201.425 149.671C200.229 149.671 199.266 149.237 198.533 148.37C197.807 147.497 197.443 146.337 197.443 144.889C197.443 143.419 197.807 142.247 198.533 141.374C199.266 140.495 200.244 140.055 201.469 140.055C202.143 140.055 202.746 140.205 203.279 140.504C203.812 140.797 204.226 141.207 204.519 141.734H204.554V140.152H206.399V149.451C206.399 150.588 205.998 151.484 205.195 152.14C204.398 152.802 203.312 153.133 201.935 153.133ZM215.812 148.273C216.521 148.273 217.113 148.071 217.588 147.667C218.062 147.256 218.3 146.738 218.3 146.111V145.364L215.979 145.522C214.661 145.604 214.002 146.073 214.002 146.928C214.002 147.339 214.166 147.667 214.494 147.913C214.822 148.153 215.262 148.273 215.812 148.273ZM215.303 149.794C214.348 149.794 213.571 149.536 212.974 149.02C212.376 148.499 212.077 147.813 212.077 146.964C212.077 146.131 212.388 145.478 213.009 145.004C213.636 144.529 214.541 144.254 215.725 144.177L218.3 144.028V143.29C218.3 142.745 218.124 142.329 217.772 142.042C217.427 141.749 216.935 141.602 216.296 141.602C215.78 141.602 215.344 141.725 214.986 141.971C214.635 142.217 214.418 142.548 214.336 142.964H212.552C212.581 142.121 212.953 141.421 213.668 140.864C214.383 140.307 215.276 140.029 216.349 140.029C217.515 140.029 218.443 140.313 219.135 140.881C219.832 141.45 220.181 142.206 220.181 143.149V149.697H218.361V148.106H218.317C218.054 148.622 217.649 149.032 217.104 149.337C216.56 149.641 215.959 149.794 215.303 149.794ZM222.097 149.697V140.152H223.916V141.76H223.951C224.543 140.618 225.577 140.047 227.054 140.047C228.108 140.047 228.938 140.363 229.541 140.996C230.15 141.623 230.455 142.484 230.455 143.58V149.697H228.548V143.94C228.548 143.214 228.363 142.657 227.994 142.27C227.625 141.878 227.092 141.681 226.395 141.681C225.674 141.681 225.094 141.913 224.654 142.376C224.221 142.833 224.004 143.436 224.004 144.186V149.697H222.097ZM235.957 149.794C234.756 149.794 233.783 149.348 233.039 148.458C232.301 147.567 231.932 146.386 231.932 144.916C231.932 143.457 232.301 142.282 233.039 141.391C233.783 140.501 234.75 140.055 235.939 140.055C236.619 140.055 237.22 140.205 237.741 140.504C238.269 140.797 238.67 141.207 238.945 141.734H238.989V136.443H240.888V149.697H239.042V148.08H239.007C238.726 148.625 238.318 149.047 237.785 149.345C237.258 149.644 236.648 149.794 235.957 149.794ZM236.44 141.672C235.673 141.672 235.055 141.968 234.586 142.56C234.117 143.152 233.883 143.94 233.883 144.924C233.883 145.915 234.114 146.706 234.577 147.297C235.046 147.883 235.667 148.176 236.44 148.176C237.208 148.176 237.826 147.878 238.295 147.28C238.764 146.682 238.998 145.897 238.998 144.924C238.998 143.952 238.761 143.167 238.286 142.569C237.817 141.971 237.202 141.672 236.44 141.672ZM255.214 143.413H253.395C253.301 142.885 253.055 142.458 252.656 142.13C252.264 141.801 251.751 141.637 251.118 141.637C250.345 141.637 249.724 141.936 249.255 142.534C248.792 143.131 248.561 143.928 248.561 144.924C248.561 145.944 248.795 146.747 249.264 147.333C249.732 147.919 250.354 148.212 251.127 148.212C251.748 148.212 252.255 148.065 252.647 147.772C253.046 147.473 253.301 147.046 253.412 146.489H255.231C255.12 147.491 254.692 148.297 253.948 148.906C253.204 149.509 252.261 149.811 251.118 149.811C249.759 149.811 248.669 149.372 247.849 148.493C247.034 147.614 246.627 146.424 246.627 144.924C246.627 143.442 247.034 142.255 247.849 141.365C248.663 140.474 249.747 140.029 251.101 140.029C251.692 140.029 252.24 140.12 252.744 140.301C253.248 140.477 253.67 140.72 254.01 141.031C254.355 141.341 254.631 141.702 254.836 142.112C255.047 142.516 255.173 142.95 255.214 143.413ZM264.012 148.493C263.203 149.372 262.107 149.811 260.725 149.811C259.342 149.811 258.243 149.372 257.429 148.493C256.614 147.614 256.207 146.424 256.207 144.924C256.207 143.43 256.614 142.241 257.429 141.356C258.249 140.471 259.348 140.029 260.725 140.029C262.102 140.029 263.197 140.471 264.012 141.356C264.826 142.235 265.233 143.424 265.233 144.924C265.233 146.424 264.826 147.614 264.012 148.493ZM258.826 147.359C259.283 147.939 259.916 148.229 260.725 148.229C261.533 148.229 262.163 147.939 262.614 147.359C263.071 146.779 263.3 145.967 263.3 144.924C263.3 143.881 263.071 143.07 262.614 142.49C262.163 141.904 261.533 141.611 260.725 141.611C259.916 141.611 259.283 141.904 258.826 142.49C258.369 143.076 258.141 143.887 258.141 144.924C258.141 145.962 258.369 146.773 258.826 147.359ZM266.842 149.697V136.443H268.749V149.697H266.842ZM270.867 149.697V136.443H272.774V149.697H270.867ZM278.127 148.273C278.836 148.273 279.428 148.071 279.902 147.667C280.377 147.256 280.614 146.738 280.614 146.111V145.364L278.294 145.522C276.976 145.604 276.316 146.073 276.316 146.928C276.316 147.339 276.48 147.667 276.809 147.913C277.137 148.153 277.576 148.273 278.127 148.273ZM277.617 149.794C276.662 149.794 275.886 149.536 275.288 149.02C274.69 148.499 274.392 147.813 274.392 146.964C274.392 146.131 274.702 145.478 275.323 145.004C275.95 144.529 276.855 144.254 278.039 144.177L280.614 144.028V143.29C280.614 142.745 280.438 142.329 280.087 142.042C279.741 141.749 279.249 141.602 278.61 141.602C278.095 141.602 277.658 141.725 277.301 141.971C276.949 142.217 276.732 142.548 276.65 142.964H274.866C274.896 142.121 275.268 141.421 275.982 140.864C276.697 140.307 277.591 140.029 278.663 140.029C279.829 140.029 280.758 140.313 281.449 140.881C282.146 141.45 282.495 142.206 282.495 143.149V149.697H280.676V148.106H280.632C280.368 148.622 279.964 149.032 279.419 149.337C278.874 149.641 278.273 149.794 277.617 149.794ZM289.438 149.794C288.747 149.794 288.135 149.647 287.602 149.354C287.074 149.055 286.664 148.63 286.371 148.08H286.327V149.697H284.49V136.443H286.397V141.734H286.433C286.726 141.195 287.133 140.782 287.654 140.495C288.182 140.202 288.782 140.055 289.456 140.055C290.663 140.055 291.63 140.498 292.356 141.382C293.083 142.267 293.446 143.448 293.446 144.924C293.446 146.401 293.08 147.582 292.348 148.466C291.621 149.351 290.651 149.794 289.438 149.794ZM290.801 142.56C290.338 141.968 289.723 141.672 288.955 141.672C288.188 141.672 287.566 141.974 287.092 142.578C286.623 143.175 286.389 143.958 286.389 144.924C286.389 145.897 286.623 146.682 287.092 147.28C287.566 147.878 288.188 148.176 288.955 148.176C289.723 148.176 290.338 147.883 290.801 147.297C291.264 146.706 291.495 145.915 291.495 144.924C291.495 143.934 291.264 143.146 290.801 142.56ZM302.35 148.493C301.541 149.372 300.445 149.811 299.062 149.811C297.68 149.811 296.581 149.372 295.767 148.493C294.952 147.614 294.545 146.424 294.545 144.924C294.545 143.43 294.952 142.241 295.767 141.356C296.587 140.471 297.686 140.029 299.062 140.029C300.439 140.029 301.535 140.471 302.35 141.356C303.164 142.235 303.571 143.424 303.571 144.924C303.571 146.424 303.164 147.614 302.35 148.493ZM297.164 147.359C297.621 147.939 298.254 148.229 299.062 148.229C299.871 148.229 300.501 147.939 300.952 147.359C301.409 146.779 301.638 145.967 301.638 144.924C301.638 143.881 301.409 143.07 300.952 142.49C300.501 141.904 299.871 141.611 299.062 141.611C298.254 141.611 297.621 141.904 297.164 142.49C296.707 143.076 296.479 143.887 296.479 144.924C296.479 145.962 296.707 146.773 297.164 147.359ZM305.101 149.697V140.152H306.92V141.76H306.955C307.102 141.227 307.38 140.811 307.79 140.512C308.206 140.208 308.695 140.055 309.258 140.055C309.521 140.055 309.732 140.079 309.891 140.126V141.91C309.68 141.828 309.401 141.787 309.056 141.787C308.429 141.787 307.931 141.989 307.562 142.393C307.192 142.792 307.008 143.328 307.008 144.002V149.697H305.101ZM314.408 148.273C315.117 148.273 315.709 148.071 316.184 147.667C316.658 147.256 316.896 146.738 316.896 146.111V145.364L314.575 145.522C313.257 145.604 312.598 146.073 312.598 146.928C312.598 147.339 312.762 147.667 313.09 147.913C313.418 148.153 313.857 148.273 314.408 148.273ZM313.898 149.794C312.943 149.794 312.167 149.536 311.569 149.02C310.972 148.499 310.673 147.813 310.673 146.964C310.673 146.131 310.983 145.478 311.604 145.004C312.231 144.529 313.137 144.254 314.32 144.177L316.896 144.028V143.29C316.896 142.745 316.72 142.329 316.368 142.042C316.022 141.749 315.53 141.602 314.892 141.602C314.376 141.602 313.939 141.725 313.582 141.971C313.23 142.217 313.014 142.548 312.932 142.964H311.147C311.177 142.121 311.549 141.421 312.264 140.864C312.979 140.307 313.872 140.029 314.944 140.029C316.11 140.029 317.039 140.313 317.73 140.881C318.428 141.45 318.776 142.206 318.776 143.149V149.697H316.957V148.106H316.913C316.649 148.622 316.245 149.032 315.7 149.337C315.155 149.641 314.555 149.794 313.898 149.794ZM321.264 138.007H323.162V140.152H324.99V141.655H323.162V146.99C323.162 147.406 323.256 147.714 323.443 147.913C323.637 148.106 323.933 148.203 324.331 148.203C324.56 148.203 324.776 148.188 324.981 148.159V149.662C324.724 149.726 324.366 149.758 323.909 149.758C322.954 149.758 322.274 149.562 321.87 149.17C321.466 148.771 321.264 148.109 321.264 147.183V141.655H319.945V140.152H321.264V138.007ZM326.669 149.697V140.152H328.576V149.697H326.669ZM328.418 138.473C328.201 138.684 327.938 138.79 327.627 138.79C327.316 138.79 327.053 138.684 326.836 138.473C326.619 138.256 326.511 137.996 326.511 137.691C326.511 137.38 326.619 137.12 326.836 136.909C327.053 136.698 327.316 136.592 327.627 136.592C327.938 136.592 328.201 136.698 328.418 136.909C328.635 137.12 328.743 137.38 328.743 137.691C328.743 137.996 328.635 138.256 328.418 138.473ZM337.98 148.493C337.172 149.372 336.076 149.811 334.693 149.811C333.311 149.811 332.212 149.372 331.397 148.493C330.583 147.614 330.176 146.424 330.176 144.924C330.176 143.43 330.583 142.241 331.397 141.356C332.218 140.471 333.316 140.029 334.693 140.029C336.07 140.029 337.166 140.471 337.98 141.356C338.795 142.235 339.202 143.424 339.202 144.924C339.202 146.424 338.795 147.614 337.98 148.493ZM332.795 147.359C333.252 147.939 333.885 148.229 334.693 148.229C335.502 148.229 336.132 147.939 336.583 147.359C337.04 146.779 337.269 145.967 337.269 144.924C337.269 143.881 337.04 143.07 336.583 142.49C336.132 141.904 335.502 141.611 334.693 141.611C333.885 141.611 333.252 141.904 332.795 142.49C332.338 143.076 332.109 143.887 332.109 144.924C332.109 145.962 332.338 146.773 332.795 147.359ZM340.731 149.697V140.152H342.551V141.76H342.586C343.178 140.618 344.212 140.047 345.688 140.047C346.743 140.047 347.572 140.363 348.176 140.996C348.785 141.623 349.09 142.484 349.09 143.58V149.697H347.183V143.94C347.183 143.214 346.998 142.657 346.629 142.27C346.26 141.878 345.727 141.681 345.029 141.681C344.309 141.681 343.729 141.913 343.289 142.376C342.855 142.833 342.639 143.436 342.639 144.186V149.697H340.731Z" fill="#3C4350"/>
<path d="M28.4 179.757C28.2617 179.757 28.1436 179.708 28.0457 179.61C27.9478 179.506 27.8988 179.382 27.8988 179.238C27.8988 179.106 27.9478 178.991 28.0457 178.893C28.1436 178.789 28.2617 178.737 28.4 178.737H44.6711C44.8094 178.737 44.9275 178.789 45.0254 178.893C45.1291 178.991 45.181 179.106 45.181 179.238C45.181 179.382 45.1291 179.506 45.0254 179.61C44.9275 179.708 44.8094 179.757 44.6711 179.757H28.4ZM28.4 175.834C28.2617 175.834 28.1436 175.785 28.0457 175.687C27.9478 175.589 27.8988 175.471 27.8988 175.332C27.8988 175.194 27.9478 175.076 28.0457 174.978C28.1436 174.874 28.2617 174.823 28.4 174.823H44.6711C44.8094 174.823 44.9275 174.874 45.0254 174.978C45.1291 175.076 45.181 175.194 45.181 175.332C45.181 175.471 45.1291 175.589 45.0254 175.687C44.9275 175.785 44.8094 175.834 44.6711 175.834H28.4ZM28.4 171.919C28.2617 171.919 28.1436 171.87 28.0457 171.772C27.9478 171.674 27.8988 171.556 27.8988 171.418C27.8988 171.274 27.9478 171.156 28.0457 171.064C28.1436 170.966 28.2617 170.917 28.4 170.917H44.6711C44.8094 170.917 44.9275 170.966 45.0254 171.064C45.1291 171.156 45.181 171.274 45.181 171.418C45.181 171.556 45.1291 171.674 45.0254 171.772C44.9275 171.87 44.8094 171.919 44.6711 171.919H28.4Z" fill="#6A788D"/>
<path d="M62.3349 183.974C61.1481 183.974 60.0306 183.746 58.9821 183.291C57.9394 182.842 57.0177 182.219 56.217 181.424C55.422 180.624 54.7969 179.702 54.3419 178.659C53.8925 177.611 53.6678 176.493 53.6678 175.307C53.6678 174.12 53.8925 173.005 54.3419 171.962C54.7969 170.914 55.422 169.992 56.217 169.197C57.0119 168.397 57.9308 167.772 58.9735 167.322C60.0219 166.867 61.1395 166.64 62.3262 166.64C63.5129 166.64 64.6305 166.867 65.679 167.322C66.7274 167.772 67.6491 168.397 68.4441 169.197C69.2391 169.992 69.8641 170.914 70.3192 171.962C70.7743 173.005 71.0019 174.12 71.0019 175.307C71.0019 176.493 70.7743 177.611 70.3192 178.659C69.8641 179.702 69.2391 180.624 68.4441 181.424C67.6491 182.219 66.7274 182.842 65.679 183.291C64.6363 183.746 63.5216 183.974 62.3349 183.974ZM61.3843 179.48C61.4938 179.48 61.5946 179.454 61.6868 179.402C61.7789 179.351 61.8596 179.273 61.9287 179.169L66.2061 172.481C66.2464 172.418 66.281 172.348 66.3098 172.274C66.3443 172.199 66.3616 172.124 66.3616 172.049C66.3616 171.899 66.304 171.778 66.1888 171.686C66.0736 171.594 65.9468 171.548 65.8086 171.548C65.6185 171.548 65.46 171.648 65.3333 171.85L61.3584 178.149L59.3191 175.644C59.2385 175.54 59.1578 175.468 59.0772 175.428C59.0023 175.387 58.9159 175.367 58.8179 175.367C58.6739 175.367 58.5501 175.422 58.4464 175.531C58.3427 175.641 58.2908 175.77 58.2908 175.92C58.2908 175.995 58.3052 176.07 58.334 176.145C58.3628 176.214 58.4032 176.283 58.455 176.352L60.8054 179.169C60.8918 179.279 60.9811 179.359 61.0733 179.411C61.1654 179.457 61.2691 179.48 61.3843 179.48Z" fill="#3C4350"/>
<path d="M80.6807 169.863V177.922C80.6807 178.848 80.959 179.595 81.5156 180.164C82.0781 180.726 82.8545 181.007 83.8447 181.007C84.835 181.007 85.6113 180.726 86.1738 180.164C86.7363 179.595 87.0176 178.848 87.0176 177.922V169.863H88.9775V178.089C88.9775 179.478 88.5146 180.603 87.5889 181.464C86.6631 182.326 85.415 182.756 83.8447 182.756C82.2744 182.756 81.0264 182.326 80.1006 181.464C79.1748 180.603 78.7119 179.478 78.7119 178.089V169.863H80.6807ZM90.9639 175.716C90.9639 174.878 91.3066 174.199 91.9922 173.677C92.6777 173.15 93.5684 172.886 94.6641 172.886C95.707 172.886 96.5684 173.153 97.248 173.686C97.9336 174.213 98.2881 174.893 98.3115 175.725H96.5186C96.4775 175.303 96.2871 174.969 95.9473 174.723C95.6074 174.477 95.165 174.354 94.6201 174.354C94.0811 174.354 93.6445 174.471 93.3105 174.706C92.9824 174.934 92.8184 175.236 92.8184 175.611C92.8184 176.185 93.3135 176.592 94.3037 176.833L95.8857 177.21C96.8467 177.445 97.5264 177.755 97.9248 178.142C98.3232 178.529 98.5225 179.074 98.5225 179.777C98.5225 180.626 98.1562 181.321 97.4238 181.86C96.6914 182.393 95.748 182.66 94.5938 182.66C93.4863 182.66 92.5781 182.399 91.8691 181.877C91.166 181.35 90.7793 180.653 90.709 179.786H92.5898C92.666 180.243 92.8828 180.594 93.2402 180.84C93.6035 181.081 94.0869 181.201 94.6904 181.201C95.2822 181.201 95.751 181.086 96.0967 180.858C96.4482 180.629 96.624 180.322 96.624 179.935C96.624 179.63 96.5186 179.39 96.3076 179.214C96.1025 179.039 95.748 178.886 95.2441 178.757L93.5391 178.335C91.8223 177.914 90.9639 177.041 90.9639 175.716ZM104.042 174.433C103.356 174.433 102.785 174.662 102.328 175.119C101.877 175.576 101.625 176.17 101.572 176.903H106.415C106.392 176.159 106.163 175.561 105.729 175.11C105.296 174.659 104.733 174.433 104.042 174.433ZM106.406 179.75H108.226C108.091 180.606 107.643 181.306 106.881 181.851C106.119 182.39 105.202 182.66 104.13 182.66C102.747 182.66 101.651 182.226 100.843 181.359C100.04 180.486 99.6387 179.302 99.6387 177.808C99.6387 176.314 100.04 175.119 100.843 174.222C101.646 173.326 102.715 172.877 104.051 172.877C105.363 172.877 106.403 173.302 107.171 174.152C107.938 174.996 108.322 176.141 108.322 177.588V178.256H101.563V178.371C101.563 179.197 101.801 179.862 102.275 180.366C102.75 180.864 103.38 181.113 104.165 181.113C104.722 181.113 105.202 180.99 105.606 180.744C106.011 180.498 106.277 180.167 106.406 179.75ZM109.86 182.545V173H111.68V174.609H111.715C111.861 174.076 112.14 173.66 112.55 173.361C112.966 173.056 113.455 172.904 114.018 172.904C114.281 172.904 114.492 172.927 114.65 172.974V174.758C114.439 174.676 114.161 174.635 113.815 174.635C113.188 174.635 112.69 174.837 112.321 175.242C111.952 175.64 111.768 176.176 111.768 176.85V182.545H109.86ZM121.418 178.371H115.652V176.657H121.418V178.371ZM123.984 182.545V174.503H122.666V173H123.984V172.122C123.984 171.225 124.201 170.575 124.635 170.17C125.068 169.76 125.766 169.555 126.727 169.555C127.031 169.555 127.354 169.584 127.693 169.643V171.093C127.488 171.046 127.251 171.023 126.981 171.023C126.589 171.023 126.305 171.114 126.129 171.295C125.959 171.477 125.871 171.773 125.865 172.183V173H127.702V174.503H125.883V182.545H123.984ZM129.284 182.545V173H131.104V174.609H131.139C131.285 174.076 131.563 173.66 131.974 173.361C132.39 173.056 132.879 172.904 133.441 172.904C133.705 172.904 133.916 172.927 134.074 172.974V174.758C133.863 174.676 133.585 174.635 133.239 174.635C132.612 174.635 132.114 174.837 131.745 175.242C131.376 175.64 131.191 176.176 131.191 176.85V182.545H129.284ZM135.401 182.545V173H137.309V182.545H135.401ZM137.15 171.322C136.934 171.533 136.67 171.638 136.359 171.638C136.049 171.638 135.785 171.533 135.568 171.322C135.352 171.105 135.243 170.844 135.243 170.54C135.243 170.229 135.352 169.968 135.568 169.757C135.785 169.546 136.049 169.441 136.359 169.441C136.67 169.441 136.934 169.546 137.15 169.757C137.367 169.968 137.476 170.229 137.476 170.54C137.476 170.844 137.367 171.105 137.15 171.322ZM143.312 174.433C142.626 174.433 142.055 174.662 141.598 175.119C141.146 175.576 140.895 176.17 140.842 176.903H145.685C145.661 176.159 145.433 175.561 144.999 175.11C144.565 174.659 144.003 174.433 143.312 174.433ZM145.676 179.75H147.495C147.36 180.606 146.912 181.306 146.15 181.851C145.389 182.39 144.472 182.66 143.399 182.66C142.017 182.66 140.921 182.226 140.112 181.359C139.31 180.486 138.908 179.302 138.908 177.808C138.908 176.314 139.31 175.119 140.112 174.222C140.915 173.326 141.984 172.877 143.32 172.877C144.633 172.877 145.673 173.302 146.44 174.152C147.208 174.996 147.592 176.141 147.592 177.588V178.256H140.833V178.371C140.833 179.197 141.07 179.862 141.545 180.366C142.02 180.864 142.649 181.113 143.435 181.113C143.991 181.113 144.472 180.99 144.876 180.744C145.28 180.498 145.547 180.167 145.676 179.75ZM149.13 182.545V173H150.949V174.609H150.984C151.576 173.466 152.61 172.895 154.087 172.895C155.142 172.895 155.971 173.211 156.574 173.844C157.184 174.471 157.488 175.333 157.488 176.428V182.545H155.581V176.789C155.581 176.062 155.396 175.505 155.027 175.119C154.658 174.726 154.125 174.53 153.428 174.53C152.707 174.53 152.127 174.761 151.688 175.224C151.254 175.681 151.037 176.285 151.037 177.035V182.545H149.13ZM162.99 182.642C161.789 182.642 160.816 182.197 160.072 181.306C159.334 180.416 158.965 179.235 158.965 177.764C158.965 176.305 159.334 175.13 160.072 174.24C160.816 173.349 161.783 172.904 162.973 172.904C163.652 172.904 164.253 173.053 164.774 173.352C165.302 173.645 165.703 174.055 165.979 174.583H166.022V169.292H167.921V182.545H166.075V180.928H166.04C165.759 181.473 165.352 181.895 164.818 182.194C164.291 182.493 163.682 182.642 162.99 182.642ZM163.474 174.521C162.706 174.521 162.088 174.817 161.619 175.409C161.15 176 160.916 176.789 160.916 177.773C160.916 178.763 161.147 179.554 161.61 180.146C162.079 180.732 162.7 181.025 163.474 181.025C164.241 181.025 164.859 180.726 165.328 180.128C165.797 179.531 166.031 178.746 166.031 177.773C166.031 176.8 165.794 176.015 165.319 175.417C164.851 174.82 164.235 174.521 163.474 174.521ZM170.021 182.545V169.292H171.929V182.545H170.021ZM174.926 186.017C174.609 186.017 174.352 186 174.152 185.964V184.417C174.27 184.447 174.472 184.461 174.759 184.461C175.216 184.461 175.576 184.353 175.84 184.136C176.109 183.925 176.326 183.568 176.49 183.064L176.64 182.572L173.177 173H175.225L177.677 180.805H177.721L180.173 173H182.177L178.6 182.985C178.189 184.127 177.718 184.918 177.185 185.358C176.657 185.797 175.904 186.017 174.926 186.017ZM187.556 182.545V173H189.463V182.545H187.556ZM189.305 171.322C189.088 171.533 188.824 171.638 188.514 171.638C188.203 171.638 187.939 171.533 187.723 171.322C187.506 171.105 187.397 170.844 187.397 170.54C187.397 170.229 187.506 169.968 187.723 169.757C187.939 169.546 188.203 169.441 188.514 169.441C188.824 169.441 189.088 169.546 189.305 169.757C189.521 169.968 189.63 170.229 189.63 170.54C189.63 170.844 189.521 171.105 189.305 171.322ZM191.493 182.545V173H193.312V174.609H193.348C193.939 173.466 194.974 172.895 196.45 172.895C197.505 172.895 198.334 173.211 198.938 173.844C199.547 174.471 199.852 175.333 199.852 176.428V182.545H197.944V176.789C197.944 176.062 197.76 175.505 197.391 175.119C197.021 174.726 196.488 174.53 195.791 174.53C195.07 174.53 194.49 174.761 194.051 175.224C193.617 175.681 193.4 176.285 193.4 177.035V182.545H191.493ZM202.33 170.856H204.229V173H206.057V174.503H204.229V179.838C204.229 180.254 204.322 180.562 204.51 180.761C204.703 180.955 204.999 181.051 205.397 181.051C205.626 181.051 205.843 181.037 206.048 181.007V182.51C205.79 182.575 205.433 182.607 204.976 182.607C204.021 182.607 203.341 182.411 202.937 182.018C202.532 181.62 202.33 180.958 202.33 180.032V174.503H201.012V173H202.33V170.856ZM211.409 174.433C210.724 174.433 210.152 174.662 209.695 175.119C209.244 175.576 208.992 176.17 208.939 176.903H213.782C213.759 176.159 213.53 175.561 213.097 175.11C212.663 174.659 212.101 174.433 211.409 174.433ZM213.773 179.75H215.593C215.458 180.606 215.01 181.306 214.248 181.851C213.486 182.39 212.569 182.66 211.497 182.66C210.114 182.66 209.019 182.226 208.21 181.359C207.407 180.486 207.006 179.302 207.006 177.808C207.006 176.314 207.407 175.119 208.21 174.222C209.013 173.326 210.082 172.877 211.418 172.877C212.73 172.877 213.771 173.302 214.538 174.152C215.306 174.996 215.689 176.141 215.689 177.588V178.256H208.931V178.371C208.931 179.197 209.168 179.862 209.643 180.366C210.117 180.864 210.747 181.113 211.532 181.113C212.089 181.113 212.569 180.99 212.974 180.744C213.378 180.498 213.645 180.167 213.773 179.75ZM217.228 182.545V173H219.047V174.609H219.082C219.229 174.076 219.507 173.66 219.917 173.361C220.333 173.056 220.822 172.904 221.385 172.904C221.648 172.904 221.859 172.927 222.018 172.974V174.758C221.807 174.676 221.528 174.635 221.183 174.635C220.556 174.635 220.058 174.837 219.688 175.242C219.319 175.64 219.135 176.176 219.135 176.85V182.545H217.228ZM223.846 182.545V174.503H222.527V173H223.846V172.122C223.846 171.225 224.062 170.575 224.496 170.17C224.93 169.76 225.627 169.555 226.588 169.555C226.893 169.555 227.215 169.584 227.555 169.643V171.093C227.35 171.046 227.112 171.023 226.843 171.023C226.45 171.023 226.166 171.114 225.99 171.295C225.82 171.477 225.732 171.773 225.727 172.183V173H227.563V174.503H225.744V182.545H223.846ZM232.424 181.122C233.133 181.122 233.725 180.919 234.199 180.515C234.674 180.105 234.911 179.586 234.911 178.959V178.212L232.591 178.371C231.272 178.453 230.613 178.921 230.613 179.777C230.613 180.187 230.777 180.515 231.105 180.761C231.434 181.001 231.873 181.122 232.424 181.122ZM231.914 182.642C230.959 182.642 230.183 182.384 229.585 181.869C228.987 181.347 228.688 180.662 228.688 179.812C228.688 178.98 228.999 178.327 229.62 177.852C230.247 177.377 231.152 177.102 232.336 177.026L234.911 176.876V176.138C234.911 175.593 234.735 175.177 234.384 174.89C234.038 174.597 233.546 174.451 232.907 174.451C232.392 174.451 231.955 174.574 231.598 174.82C231.246 175.066 231.029 175.397 230.947 175.813H229.163C229.192 174.969 229.564 174.269 230.279 173.712C230.994 173.156 231.888 172.877 232.96 172.877C234.126 172.877 235.055 173.162 235.746 173.73C236.443 174.298 236.792 175.054 236.792 175.998V182.545H234.973V180.955H234.929C234.665 181.47 234.261 181.88 233.716 182.185C233.171 182.49 232.57 182.642 231.914 182.642ZM246.864 176.261H245.045C244.951 175.734 244.705 175.306 244.307 174.978C243.914 174.65 243.401 174.486 242.769 174.486C241.995 174.486 241.374 174.785 240.905 175.382C240.442 175.98 240.211 176.777 240.211 177.773C240.211 178.792 240.445 179.595 240.914 180.181C241.383 180.767 242.004 181.06 242.777 181.06C243.398 181.06 243.905 180.914 244.298 180.621C244.696 180.322 244.951 179.894 245.062 179.337H246.882C246.771 180.339 246.343 181.145 245.599 181.754C244.854 182.358 243.911 182.66 242.769 182.66C241.409 182.66 240.319 182.22 239.499 181.341C238.685 180.462 238.277 179.273 238.277 177.773C238.277 176.291 238.685 175.104 239.499 174.213C240.313 173.323 241.397 172.877 242.751 172.877C243.343 172.877 243.891 172.968 244.395 173.15C244.898 173.326 245.32 173.569 245.66 173.879C246.006 174.19 246.281 174.55 246.486 174.96C246.697 175.365 246.823 175.798 246.864 176.261ZM252.261 174.433C251.575 174.433 251.004 174.662 250.547 175.119C250.096 175.576 249.844 176.17 249.791 176.903H254.634C254.61 176.159 254.382 175.561 253.948 175.11C253.515 174.659 252.952 174.433 252.261 174.433ZM254.625 179.75H256.444C256.31 180.606 255.861 181.306 255.1 181.851C254.338 182.39 253.421 182.66 252.349 182.66C250.966 182.66 249.87 182.226 249.062 181.359C248.259 180.486 247.857 179.302 247.857 177.808C247.857 176.314 248.259 175.119 249.062 174.222C249.864 173.326 250.934 172.877 252.27 172.877C253.582 172.877 254.622 173.302 255.39 174.152C256.157 174.996 256.541 176.141 256.541 177.588V178.256H249.782V178.371C249.782 179.197 250.02 179.862 250.494 180.366C250.969 180.864 251.599 181.113 252.384 181.113C252.94 181.113 253.421 180.99 253.825 180.744C254.229 180.498 254.496 180.167 254.625 179.75Z" fill="#3C4350"/>
<rect x="25.6953" y="197.394" width="349" height="37" rx="4.42424" fill="#F6F7F9"/>
<path d="M37.7422 221.894H36.1602V209.211H43.8594V210.635H37.7422V214.994H43.3584V216.401H37.7422V221.894ZM54.1074 212.419V221.894H52.666V220.409H52.5254C52.291 220.936 51.9102 221.343 51.3828 221.63C50.8555 221.917 50.2285 222.061 49.502 222.061C48.4414 222.061 47.6211 221.756 47.041 221.147C46.4668 220.537 46.1797 219.673 46.1797 218.554V212.419H47.6914V218.185C47.6914 219.034 47.873 219.664 48.2363 220.075C48.6055 220.479 49.168 220.681 49.9238 220.681C50.7617 220.681 51.415 220.447 51.8838 219.978C52.3584 219.509 52.5957 218.859 52.5957 218.027V212.419H54.1074ZM57.043 221.894V208.658H58.5547V221.894H57.043ZM61.5781 221.894V208.658H63.0898V221.894H61.5781ZM66.834 225.33C66.5938 225.33 66.3682 225.313 66.1572 225.278V223.986C66.3096 224.015 66.5205 224.03 66.79 224.03C67.2236 224.03 67.5723 223.909 67.8359 223.669C68.0996 223.435 68.3311 223.034 68.5303 222.465L68.7061 221.903L65.1992 212.419H66.834L69.4355 220.215H69.5762L72.1689 212.419H73.7773L70.0771 222.474C69.6729 223.57 69.2393 224.32 68.7764 224.724C68.3193 225.128 67.6719 225.33 66.834 225.33ZM82.6543 210.617V215.469H85.7744C86.5889 215.469 87.2158 215.261 87.6553 214.845C88.1006 214.423 88.3232 213.823 88.3232 213.043C88.3232 212.282 88.0918 211.687 87.6289 211.259C87.166 210.831 86.5244 210.617 85.7041 210.617H82.6543ZM82.6543 216.875V221.894H81.0723V209.211H85.915C87.1396 209.211 88.1182 209.557 88.8506 210.248C89.5889 210.934 89.958 211.848 89.958 212.991C89.958 213.875 89.7324 214.64 89.2812 215.284C88.8301 215.929 88.2061 216.377 87.4092 216.629L90.3447 221.894H88.4902L85.7744 216.875H82.6543ZM96.1543 213.588C95.3984 213.588 94.7773 213.843 94.291 214.353C93.8047 214.863 93.5322 215.536 93.4736 216.374H98.6943C98.6768 215.536 98.4365 214.863 97.9736 214.353C97.5107 213.843 96.9043 213.588 96.1543 213.588ZM98.6504 219.442H100.162C99.9336 220.262 99.4678 220.904 98.7646 221.367C98.0674 221.829 97.2031 222.061 96.1719 222.061C94.8594 222.061 93.8193 221.621 93.0518 220.742C92.2842 219.858 91.9004 218.665 91.9004 217.165C91.9004 215.671 92.2871 214.479 93.0605 213.588C93.834 212.698 94.8711 212.252 96.1719 212.252C97.4492 212.252 98.4541 212.677 99.1865 213.527C99.9189 214.376 100.285 215.539 100.285 217.016V217.596H93.4736V217.666C93.5146 218.604 93.7783 219.348 94.2646 219.899C94.7568 220.45 95.4043 220.725 96.207 220.725C97.4316 220.725 98.2461 220.297 98.6504 219.442ZM102.438 215.012C102.438 214.227 102.775 213.571 103.449 213.043C104.123 212.516 104.964 212.252 105.972 212.252C106.962 212.252 107.779 212.481 108.424 212.938C109.068 213.395 109.44 214.013 109.54 214.792H108.046C107.94 214.406 107.706 214.101 107.343 213.878C106.985 213.65 106.525 213.535 105.963 213.535C105.395 213.535 104.917 213.667 104.53 213.931C104.149 214.195 103.959 214.534 103.959 214.951C103.959 215.273 104.091 215.542 104.354 215.759C104.624 215.97 105.04 216.143 105.603 216.278L107.062 216.629C107.964 216.846 108.629 217.159 109.057 217.57C109.49 217.98 109.707 218.522 109.707 219.196C109.707 220.034 109.347 220.722 108.626 221.261C107.905 221.794 107 222.061 105.91 222.061C104.855 222.061 103.991 221.826 103.317 221.358C102.644 220.889 102.266 220.262 102.184 219.477H103.739C103.868 219.887 104.123 220.209 104.504 220.444C104.885 220.672 105.371 220.786 105.963 220.786C106.602 220.786 107.126 220.649 107.536 220.373C107.946 220.098 108.151 219.743 108.151 219.31C108.151 218.665 107.65 218.22 106.648 217.974L105.022 217.578C104.126 217.362 103.47 217.051 103.054 216.647C102.644 216.237 102.438 215.692 102.438 215.012ZM116.694 212.252C117.901 212.252 118.865 212.698 119.586 213.588C120.312 214.479 120.676 215.668 120.676 217.157C120.676 218.639 120.312 219.828 119.586 220.725C118.859 221.616 117.896 222.061 116.694 222.061C116.021 222.061 115.423 221.923 114.901 221.648C114.38 221.367 113.99 220.974 113.732 220.47H113.592V225.058H112.08V212.419H113.521V214.001H113.662C113.967 213.456 114.386 213.029 114.919 212.718C115.458 212.408 116.05 212.252 116.694 212.252ZM116.334 220.699C117.201 220.699 117.881 220.385 118.373 219.758C118.865 219.131 119.111 218.264 119.111 217.157C119.111 216.049 118.865 215.182 118.373 214.555C117.887 213.928 117.21 213.615 116.343 213.615C115.487 213.615 114.808 213.934 114.304 214.573C113.8 215.205 113.548 216.067 113.548 217.157C113.548 218.241 113.797 219.102 114.295 219.741C114.799 220.379 115.479 220.699 116.334 220.699ZM124.868 219.776C125.354 220.391 126.046 220.699 126.942 220.699C127.839 220.699 128.53 220.391 129.017 219.776C129.503 219.155 129.746 218.282 129.746 217.157C129.746 216.032 129.503 215.161 129.017 214.546C128.53 213.925 127.839 213.615 126.942 213.615C126.046 213.615 125.354 213.925 124.868 214.546C124.382 215.161 124.139 216.032 124.139 217.157C124.139 218.282 124.382 219.155 124.868 219.776ZM130.133 220.751C129.354 221.624 128.29 222.061 126.942 222.061C125.595 222.061 124.528 221.624 123.743 220.751C122.964 219.872 122.574 218.674 122.574 217.157C122.574 215.633 122.964 214.435 123.743 213.562C124.522 212.689 125.589 212.252 126.942 212.252C128.296 212.252 129.362 212.689 130.142 213.562C130.921 214.435 131.311 215.633 131.311 217.157C131.311 218.674 130.918 219.872 130.133 220.751ZM133.684 221.894V212.419H135.125V213.913H135.266C135.506 213.386 135.89 212.979 136.417 212.692C136.944 212.399 137.568 212.252 138.289 212.252C139.35 212.252 140.167 212.557 140.741 213.166C141.315 213.77 141.603 214.634 141.603 215.759V221.894H140.091V216.128C140.091 215.279 139.906 214.649 139.537 214.239C139.174 213.823 138.614 213.615 137.858 213.615C137.026 213.615 136.373 213.852 135.898 214.326C135.43 214.801 135.195 215.454 135.195 216.286V221.894H133.684ZM144.151 215.012C144.151 214.227 144.488 213.571 145.162 213.043C145.836 212.516 146.677 212.252 147.685 212.252C148.675 212.252 149.492 212.481 150.137 212.938C150.781 213.395 151.153 214.013 151.253 214.792H149.759C149.653 214.406 149.419 214.101 149.056 213.878C148.698 213.65 148.238 213.535 147.676 213.535C147.107 213.535 146.63 213.667 146.243 213.931C145.862 214.195 145.672 214.534 145.672 214.951C145.672 215.273 145.804 215.542 146.067 215.759C146.337 215.97 146.753 216.143 147.315 216.278L148.774 216.629C149.677 216.846 150.342 217.159 150.77 217.57C151.203 217.98 151.42 218.522 151.42 219.196C151.42 220.034 151.06 220.722 150.339 221.261C149.618 221.794 148.713 222.061 147.623 222.061C146.568 222.061 145.704 221.826 145.03 221.358C144.356 220.889 143.979 220.262 143.896 219.477H145.452C145.581 219.887 145.836 220.209 146.217 220.444C146.598 220.672 147.084 220.786 147.676 220.786C148.314 220.786 148.839 220.649 149.249 220.373C149.659 220.098 149.864 219.743 149.864 219.31C149.864 218.665 149.363 218.22 148.361 217.974L146.735 217.578C145.839 217.362 145.183 217.051 144.767 216.647C144.356 216.237 144.151 215.692 144.151 215.012ZM153.828 221.894V212.419H155.34V221.894H153.828ZM155.331 210.187C155.126 210.392 154.877 210.494 154.584 210.494C154.291 210.494 154.042 210.392 153.837 210.187C153.632 209.976 153.529 209.727 153.529 209.44C153.529 209.153 153.632 208.907 153.837 208.701C154.042 208.491 154.291 208.385 154.584 208.385C154.877 208.385 155.126 208.491 155.331 208.701C155.536 208.907 155.639 209.153 155.639 209.44C155.639 209.727 155.536 209.976 155.331 210.187ZM157.396 212.419H159.014L161.606 220.224H161.747L164.34 212.419H165.957L162.45 221.894H160.903L157.396 212.419ZM171.406 213.588C170.65 213.588 170.029 213.843 169.543 214.353C169.057 214.863 168.784 215.536 168.726 216.374H173.946C173.929 215.536 173.688 214.863 173.226 214.353C172.763 213.843 172.156 213.588 171.406 213.588ZM173.902 219.442H175.414C175.186 220.262 174.72 220.904 174.017 221.367C173.319 221.829 172.455 222.061 171.424 222.061C170.111 222.061 169.071 221.621 168.304 220.742C167.536 219.858 167.152 218.665 167.152 217.165C167.152 215.671 167.539 214.479 168.312 213.588C169.086 212.698 170.123 212.252 171.424 212.252C172.701 212.252 173.706 212.677 174.438 213.527C175.171 214.376 175.537 215.539 175.537 217.016V217.596H168.726V217.666C168.767 218.604 169.03 219.348 169.517 219.899C170.009 220.45 170.656 220.725 171.459 220.725C172.684 220.725 173.498 220.297 173.902 219.442ZM183.184 209.211H187.534C189.415 209.211 190.883 209.771 191.938 210.89C192.992 212.003 193.52 213.556 193.52 215.548C193.52 217.546 192.992 219.105 191.938 220.224C190.889 221.337 189.421 221.894 187.534 221.894H183.184V209.211ZM184.766 210.635V220.47H187.429C188.841 220.47 189.939 220.039 190.725 219.178C191.51 218.317 191.902 217.113 191.902 215.566C191.902 214.013 191.507 212.803 190.716 211.936C189.931 211.069 188.835 210.635 187.429 210.635H184.766ZM199.848 213.588C199.092 213.588 198.471 213.843 197.984 214.353C197.498 214.863 197.226 215.536 197.167 216.374H202.388C202.37 215.536 202.13 214.863 201.667 214.353C201.204 213.843 200.598 213.588 199.848 213.588ZM202.344 219.442H203.855C203.627 220.262 203.161 220.904 202.458 221.367C201.761 221.829 200.896 222.061 199.865 222.061C198.553 222.061 197.513 221.621 196.745 220.742C195.978 219.858 195.594 218.665 195.594 217.165C195.594 215.671 195.98 214.479 196.754 213.588C197.527 212.698 198.564 212.252 199.865 212.252C201.143 212.252 202.147 212.677 202.88 213.527C203.612 214.376 203.979 215.539 203.979 217.016V217.596H197.167V217.666C197.208 218.604 197.472 219.348 197.958 219.899C198.45 220.45 199.098 220.725 199.9 220.725C201.125 220.725 201.939 220.297 202.344 219.442ZM206.132 215.012C206.132 214.227 206.469 213.571 207.143 213.043C207.816 212.516 208.657 212.252 209.665 212.252C210.655 212.252 211.473 212.481 212.117 212.938C212.762 213.395 213.134 214.013 213.233 214.792H211.739C211.634 214.406 211.399 214.101 211.036 213.878C210.679 213.65 210.219 213.535 209.656 213.535C209.088 213.535 208.61 213.667 208.224 213.931C207.843 214.195 207.652 214.534 207.652 214.951C207.652 215.273 207.784 215.542 208.048 215.759C208.317 215.97 208.733 216.143 209.296 216.278L210.755 216.629C211.657 216.846 212.322 217.159 212.75 217.57C213.184 217.98 213.4 218.522 213.4 219.196C213.4 220.034 213.04 220.722 212.319 221.261C211.599 221.794 210.693 222.061 209.604 222.061C208.549 222.061 207.685 221.826 207.011 221.358C206.337 220.889 205.959 220.262 205.877 219.477H207.433C207.562 219.887 207.816 220.209 208.197 220.444C208.578 220.672 209.064 220.786 209.656 220.786C210.295 220.786 210.819 220.649 211.229 220.373C211.64 220.098 211.845 219.743 211.845 219.31C211.845 218.665 211.344 218.22 210.342 217.974L208.716 217.578C207.819 217.362 207.163 217.051 206.747 216.647C206.337 216.237 206.132 215.692 206.132 215.012ZM215.809 221.894V212.419H217.32V221.894H215.809ZM217.312 210.187C217.106 210.392 216.857 210.494 216.564 210.494C216.271 210.494 216.022 210.392 215.817 210.187C215.612 209.976 215.51 209.727 215.51 209.44C215.51 209.153 215.612 208.907 215.817 208.701C216.022 208.491 216.271 208.385 216.564 208.385C216.857 208.385 217.106 208.491 217.312 208.701C217.517 208.907 217.619 209.153 217.619 209.44C217.619 209.727 217.517 209.976 217.312 210.187ZM226.848 217.016C226.848 215.979 226.596 215.153 226.092 214.537C225.588 213.922 224.902 213.615 224.035 213.615C223.168 213.615 222.494 213.919 222.014 214.529C221.533 215.138 221.293 215.967 221.293 217.016C221.293 218.065 221.533 218.894 222.014 219.503C222.494 220.113 223.168 220.417 224.035 220.417C224.908 220.417 225.594 220.113 226.092 219.503C226.596 218.888 226.848 218.059 226.848 217.016ZM224.105 225.533C222.975 225.533 222.058 225.298 221.354 224.829C220.657 224.361 220.25 223.731 220.133 222.94H221.732C221.814 223.332 222.063 223.643 222.479 223.871C222.896 224.1 223.438 224.214 224.105 224.214C224.955 224.214 225.617 224.015 226.092 223.617C226.572 223.224 226.812 222.679 226.812 221.982V220.118H226.672C226.373 220.64 225.966 221.044 225.45 221.331C224.935 221.613 224.352 221.753 223.701 221.753C222.482 221.753 221.516 221.323 220.801 220.461C220.086 219.594 219.729 218.446 219.729 217.016C219.729 215.586 220.089 214.435 220.81 213.562C221.53 212.689 222.494 212.252 223.701 212.252C224.363 212.252 224.967 212.405 225.512 212.709C226.057 213.008 226.467 213.412 226.742 213.922H226.883V212.419H228.324V222.061C228.324 223.121 227.943 223.965 227.182 224.592C226.42 225.219 225.395 225.533 224.105 225.533ZM231.172 221.894V212.419H232.613V213.913H232.754C232.994 213.386 233.378 212.979 233.905 212.692C234.433 212.399 235.057 212.252 235.777 212.252C236.838 212.252 237.655 212.557 238.229 213.166C238.804 213.77 239.091 214.634 239.091 215.759V221.894H237.579V216.128C237.579 215.279 237.395 214.649 237.025 214.239C236.662 213.823 236.103 213.615 235.347 213.615C234.515 213.615 233.861 213.852 233.387 214.326C232.918 214.801 232.684 215.454 232.684 216.286V221.894H231.172ZM249.137 224.759H247.836V209.211H249.137V224.759Z" fill="#3C4350"/>
<path d="M324.302 222.785C323.962 222.785 323.663 222.618 323.404 222.284L318.919 216.572C318.833 216.468 318.769 216.365 318.729 216.261C318.688 216.152 318.668 216.045 318.668 215.941C318.668 215.705 318.746 215.512 318.902 215.362C319.057 215.207 319.256 215.129 319.498 215.129C319.786 215.129 320.034 215.27 320.241 215.552L324.268 220.824L332.027 208.458C332.131 208.297 332.238 208.185 332.347 208.121C332.457 208.052 332.598 208.017 332.771 208.017C333.007 208.017 333.197 208.089 333.341 208.233C333.485 208.378 333.557 208.568 333.557 208.804C333.557 208.907 333.54 209.011 333.505 209.115C333.471 209.213 333.416 209.322 333.341 209.443L325.175 222.301C324.962 222.624 324.671 222.785 324.302 222.785Z" fill="#00B0F4"/>
<path d="M352.445 221.23C352.284 221.23 352.154 221.184 352.056 221.091C351.959 220.999 351.907 220.875 351.901 220.72L351.642 211.483C351.636 211.333 351.682 211.212 351.78 211.12C351.884 211.022 352.016 210.973 352.177 210.973C352.333 210.973 352.46 211.019 352.558 211.111C352.661 211.203 352.713 211.324 352.713 211.474L352.981 220.72C352.981 220.87 352.932 220.993 352.834 221.091C352.736 221.184 352.607 221.23 352.445 221.23ZM355.003 221.23C354.842 221.23 354.709 221.184 354.606 221.091C354.502 220.993 354.45 220.87 354.45 220.72V211.483C354.45 211.333 354.502 211.212 354.606 211.12C354.709 211.022 354.842 210.973 355.003 210.973C355.17 210.973 355.306 211.022 355.409 211.12C355.513 211.212 355.565 211.333 355.565 211.483V220.72C355.565 220.87 355.513 220.993 355.409 221.091C355.306 221.184 355.17 221.23 355.003 221.23ZM357.569 221.23C357.402 221.23 357.27 221.184 357.172 221.091C357.074 220.993 357.028 220.87 357.034 220.72L357.293 211.483C357.299 211.327 357.351 211.203 357.448 211.111C357.546 211.019 357.673 210.973 357.829 210.973C357.996 210.973 358.128 211.022 358.226 211.12C358.324 211.212 358.37 211.333 358.364 211.483L358.105 220.72C358.099 220.875 358.048 220.999 357.95 221.091C357.852 221.184 357.725 221.23 357.569 221.23ZM351.21 208.717V206.782C351.21 206.16 351.4 205.67 351.78 205.313C352.166 204.95 352.69 204.768 353.353 204.768H356.636C357.299 204.768 357.82 204.95 358.2 205.313C358.586 205.67 358.779 206.16 358.779 206.782V208.717H357.405V206.868C357.405 206.626 357.325 206.43 357.163 206.281C357.008 206.131 356.8 206.056 356.541 206.056H353.448C353.188 206.056 352.978 206.131 352.817 206.281C352.661 206.43 352.584 206.626 352.584 206.868V208.717H351.21ZM347.287 209.409C347.114 209.409 346.961 209.345 346.829 209.219C346.702 209.086 346.638 208.931 346.638 208.752C346.638 208.579 346.702 208.429 346.829 208.303C346.961 208.17 347.114 208.104 347.287 208.104H362.728C362.901 208.104 363.051 208.167 363.178 208.294C363.304 208.421 363.368 208.573 363.368 208.752C363.368 208.931 363.304 209.086 363.178 209.219C363.057 209.345 362.907 209.409 362.728 209.409H347.287ZM351.045 224.012C350.423 224.012 349.919 223.828 349.533 223.459C349.153 223.096 348.949 222.604 348.92 221.981L348.306 209.244H349.663L350.276 221.826C350.288 222.079 350.377 222.29 350.544 222.457C350.711 222.624 350.919 222.707 351.166 222.707H358.831C359.085 222.707 359.295 222.624 359.462 222.457C359.629 222.295 359.718 222.085 359.73 221.826L360.309 209.244H361.7L361.095 221.973C361.066 222.595 360.859 223.09 360.473 223.459C360.087 223.828 359.586 224.012 358.969 224.012H351.045Z" fill="#3C4350"/>
</g>
<defs>
<filter id="filter0_dddd_1511_26324" x="0.97561" y="0.121954" width="501.073" height="318.78" filterUnits="userSpaceOnUse" color-interpolation-filters="sRGB">
<feFlood flood-opacity="0" result="BackgroundImageFix"/>
<feColorMatrix in="SourceAlpha" type="matrix" values="0 0 0 0 0 0 0 0 0 0 0 0 0 0 0 0 0 0 127 0" result="hardAlpha"/>
<feOffset dx="4.68293" dy="2.34146"/>
<feGaussianBlur stdDeviation="5.85366"/>
<feColorMatrix type="matrix" values="0 0 0 0 0.780392 0 0 0 0 0.780392 0 0 0 0 0.780392 0 0 0 0.1 0"/>
<feBlend mode="normal" in2="BackgroundImageFix" result="effect1_dropShadow_1511_26324"/>
<feColorMatrix in="SourceAlpha" type="matrix" values="0 0 0 0 0 0 0 0 0 0 0 0 0 0 0 0 0 0 127 0" result="hardAlpha"/>
<feOffset dx="18.7317" dy="8.19512"/>
<feGaussianBlur stdDeviation="10.5366"/>
<feColorMatrix type="matrix" values="0 0 0 0 0.780392 0 0 0 0 0.780392 0 0 0 0 0.780392 0 0 0 0.09 0"/>
<feBlend mode="normal" in2="effect1_dropShadow_1511_26324" result="effect2_dropShadow_1511_26324"/>
<feColorMatrix in="SourceAlpha" type="matrix" values="0 0 0 0 0 0 0 0 0 0 0 0 0 0 0 0 0 0 127 0" result="hardAlpha"/>
<feOffset dx="43.3171" dy="18.7317"/>
<feGaussianBlur stdDeviation="14.0488"/>
<feColorMatrix type="matrix" values="0 0 0 0 0.780392 0 0 0 0 0.780392 0 0 0 0 0.780392 0 0 0 0.05 0"/>
<feBlend mode="normal" in2="effect2_dropShadow_1511_26324" result="effect3_dropShadow_1511_26324"/>
<feColorMatrix in="SourceAlpha" type="matrix" values="0 0 0 0 0 0 0 0 0 0 0 0 0 0 0 0 0 0 127 0" result="hardAlpha"/>
<feOffset dx="76.0976" dy="33.9512"/>
<feGaussianBlur stdDeviation="16.9756"/>
<feColorMatrix type="matrix" values="0 0 0 0 0.780392 0 0 0 0 0.780392 0 0 0 0 0.780392 0 0 0 0.01 0"/>
<feBlend mode="normal" in2="effect3_dropShadow_1511_26324" result="effect4_dropShadow_1511_26324"/>
<feBlend mode="normal" in="SourceGraphic" in2="effect4_dropShadow_1511_26324" result="shape"/>
</filter>
</defs>
</svg>
