<svg width="434" height="188" viewBox="0 0 434 188" fill="none" xmlns="http://www.w3.org/2000/svg">
<g filter="url(#filter0_dddd_4214_12602)">
<path d="M6 22.0687C6 16.9321 6 14.3638 7.01549 12.4089C7.87123 10.7616 9.21443 9.41835 10.8618 8.56261C12.8167 7.54712 15.385 7.54712 20.5216 7.54712H347.478C352.615 7.54712 355.183 7.54712 357.138 8.56261C358.786 9.41835 360.129 10.7616 360.984 12.4089C362 14.3638 362 16.9321 362 22.0687V122.126C362 127.262 362 129.83 360.984 131.785C360.129 133.433 358.786 134.776 357.138 135.632C355.183 136.647 352.615 136.647 347.478 136.647H20.5216C15.385 136.647 12.8167 136.647 10.8618 135.632C9.21443 134.776 7.87123 133.433 7.01549 131.785C6 129.83 6 127.262 6 122.126V22.0687Z" fill="white"/>
<path d="M20.5215 8.1106H347.479C350.056 8.1106 351.955 8.11105 353.455 8.2356C354.948 8.35957 355.994 8.60391 356.878 9.06274C358.422 9.865 359.682 11.1248 360.484 12.6692C360.943 13.5526 361.188 14.5994 361.312 16.092C361.436 17.5918 361.437 19.4909 361.437 22.0686V122.125C361.437 124.703 361.436 126.602 361.312 128.102C361.188 129.595 360.943 130.642 360.484 131.526C359.682 133.07 358.422 134.329 356.878 135.131C355.994 135.59 354.948 135.834 353.455 135.958C351.955 136.083 350.056 136.083 347.479 136.083H20.5215C17.9438 136.083 16.0447 136.083 14.5449 135.958C13.0522 135.834 12.0055 135.59 11.1221 135.131C9.57769 134.329 8.31788 133.07 7.51562 131.526C7.05665 130.642 6.81247 129.595 6.68848 128.102C6.56394 126.602 6.56348 124.703 6.56348 122.125V22.0686C6.56348 19.4909 6.56393 17.5918 6.68848 16.092C6.81246 14.5994 7.0568 13.5526 7.51562 12.6692C8.31788 11.1248 9.57766 9.865 11.1221 9.06274C12.0055 8.60392 13.0523 8.35957 14.5449 8.2356C16.0447 8.11105 17.9438 8.1106 20.5215 8.1106Z" stroke="#D6DAE1" stroke-width="1.12745"/>
<path d="M26.3828 35.5471L25.3516 32.5002H21.0547L20.0234 35.5471H18.2031L22.2734 24.2737H24.1641L28.2344 35.5471H26.3828ZM23.1797 26.1487L21.5 31.094H24.9062L23.2266 26.1487H23.1797ZM32.2812 35.6331C31.2135 35.6331 30.349 35.2372 29.6875 34.4456C29.0312 33.6539 28.7031 32.6044 28.7031 31.2971C28.7031 30.0002 29.0312 28.956 29.6875 28.1643C30.349 27.3726 31.2083 26.9768 32.2656 26.9768C32.8698 26.9768 33.4036 27.1096 33.8672 27.3752C34.3359 27.6357 34.6927 28.0002 34.9375 28.469H34.9766V23.7659H36.6641V35.5471H35.0234V34.1096H34.9922C34.7422 34.594 34.3802 34.969 33.9062 35.2346C33.4375 35.5002 32.8958 35.6331 32.2812 35.6331ZM32.7109 28.4143C32.0286 28.4143 31.4792 28.6773 31.0625 29.2034C30.6458 29.7294 30.4375 30.4299 30.4375 31.3049C30.4375 32.1851 30.6432 32.8883 31.0547 33.4143C31.4714 33.9351 32.0234 34.1956 32.7109 34.1956C33.3932 34.1956 33.9427 33.9299 34.3594 33.3987C34.776 32.8674 34.9844 32.1695 34.9844 31.3049C34.9844 30.4403 34.7734 29.7424 34.3516 29.2112C33.9349 28.6799 33.388 28.4143 32.7109 28.4143ZM41.6562 35.6331C40.5885 35.6331 39.724 35.2372 39.0625 34.4456C38.4062 33.6539 38.0781 32.6044 38.0781 31.2971C38.0781 30.0002 38.4062 28.956 39.0625 28.1643C39.724 27.3726 40.5833 26.9768 41.6406 26.9768C42.2448 26.9768 42.7786 27.1096 43.2422 27.3752C43.7109 27.6357 44.0677 28.0002 44.3125 28.469H44.3516V23.7659H46.0391V35.5471H44.3984V34.1096H44.3672C44.1172 34.594 43.7552 34.969 43.2812 35.2346C42.8125 35.5002 42.2708 35.6331 41.6562 35.6331ZM42.0859 28.4143C41.4036 28.4143 40.8542 28.6773 40.4375 29.2034C40.0208 29.7294 39.8125 30.4299 39.8125 31.3049C39.8125 32.1851 40.0182 32.8883 40.4297 33.4143C40.8464 33.9351 41.3984 34.1956 42.0859 34.1956C42.7682 34.1956 43.3177 33.9299 43.7344 33.3987C44.151 32.8674 44.3594 32.1695 44.3594 31.3049C44.3594 30.4403 44.1484 29.7424 43.7266 29.2112C43.3099 28.6799 42.763 28.4143 42.0859 28.4143ZM55.8984 26.9768C56.9818 26.9768 57.849 27.37 58.5 28.1565C59.1562 28.943 59.4844 29.9924 59.4844 31.3049C59.4844 32.6122 59.1589 33.6617 58.5078 34.4534C57.862 35.2398 57.0052 35.6331 55.9375 35.6331C55.3281 35.6331 54.7917 35.5055 54.3281 35.2502C53.8646 34.9898 53.5052 34.6252 53.25 34.1565H53.2188V38.3206H51.5234V27.0627H53.1562V28.469H53.1953C53.4349 28.0107 53.7969 27.6487 54.2812 27.3831C54.7708 27.1122 55.3099 26.9768 55.8984 26.9768ZM55.4688 34.1956C56.1562 34.1956 56.7083 33.9325 57.125 33.4065C57.5417 32.8805 57.75 32.1799 57.75 31.3049C57.75 30.4299 57.5417 29.7294 57.125 29.2034C56.7083 28.6773 56.1562 28.4143 55.4688 28.4143C54.7969 28.4143 54.2526 28.6799 53.8359 29.2112C53.4193 29.7424 53.2083 30.4403 53.2031 31.3049C53.2083 32.1747 53.4167 32.8752 53.8281 33.4065C54.2448 33.9325 54.7917 34.1956 55.4688 34.1956ZM60.8359 35.5471V27.0627H62.4531V28.4924H62.4844C62.6146 28.0185 62.862 27.6487 63.2266 27.3831C63.5964 27.1122 64.0312 26.9768 64.5312 26.9768C64.7656 26.9768 64.9531 26.9976 65.0938 27.0393V28.6252C64.9062 28.5523 64.6589 28.5159 64.3516 28.5159C63.7943 28.5159 63.3516 28.6956 63.0234 29.0549C62.6953 29.4091 62.5312 29.8857 62.5312 30.4846V35.5471H60.8359ZM72.4062 34.4768C71.6875 35.2581 70.7135 35.6487 69.4844 35.6487C68.2552 35.6487 67.2786 35.2581 66.5547 34.4768C65.8307 33.6956 65.4688 32.6383 65.4688 31.3049C65.4688 29.9768 65.8307 28.9195 66.5547 28.1331C67.2839 27.3466 68.2604 26.9534 69.4844 26.9534C70.7083 26.9534 71.6823 27.3466 72.4062 28.1331C73.1302 28.9143 73.4922 29.9716 73.4922 31.3049C73.4922 32.6383 73.1302 33.6956 72.4062 34.4768ZM67.7969 33.469C68.2031 33.9846 68.7656 34.2424 69.4844 34.2424C70.2031 34.2424 70.763 33.9846 71.1641 33.469C71.5703 32.9534 71.7734 32.232 71.7734 31.3049C71.7734 30.3778 71.5703 29.6565 71.1641 29.1409C70.763 28.62 70.2031 28.3596 69.4844 28.3596C68.7656 28.3596 68.2031 28.62 67.7969 29.1409C67.3906 29.6617 67.1875 30.3831 67.1875 31.3049C67.1875 32.2268 67.3906 32.9482 67.7969 33.469ZM78.0469 35.6331C76.9792 35.6331 76.1146 35.2372 75.4531 34.4456C74.7969 33.6539 74.4688 32.6044 74.4688 31.2971C74.4688 30.0002 74.7969 28.956 75.4531 28.1643C76.1146 27.3726 76.974 26.9768 78.0312 26.9768C78.6354 26.9768 79.1693 27.1096 79.6328 27.3752C80.1016 27.6357 80.4583 28.0002 80.7031 28.469H80.7422V23.7659H82.4297V35.5471H80.7891V34.1096H80.7578C80.5078 34.594 80.1458 34.969 79.6719 35.2346C79.2031 35.5002 78.6615 35.6331 78.0469 35.6331ZM78.4766 28.4143C77.7943 28.4143 77.2448 28.6773 76.8281 29.2034C76.4115 29.7294 76.2031 30.4299 76.2031 31.3049C76.2031 32.1851 76.4089 32.8883 76.8203 33.4143C77.237 33.9351 77.7891 34.1956 78.4766 34.1956C79.1589 34.1956 79.7083 33.9299 80.125 33.3987C80.5417 32.8674 80.75 32.1695 80.75 31.3049C80.75 30.4403 80.5391 29.7424 80.1172 29.2112C79.7005 28.6799 79.1536 28.4143 78.4766 28.4143ZM91.6172 27.0627V35.5471H90V34.094H89.9688C89.724 34.5992 89.3672 34.9846 88.8984 35.2502C88.4297 35.5107 87.8724 35.6409 87.2266 35.6409C86.2995 35.6409 85.5599 35.3596 85.0078 34.7971C84.4609 34.2346 84.1875 33.469 84.1875 32.5002V27.0627H85.8828V32.1799C85.8828 32.831 86.0495 33.3284 86.3828 33.6721C86.7161 34.0107 87.1901 34.1799 87.8047 34.1799C88.4401 34.1799 88.9505 33.9768 89.3359 33.5706C89.7266 33.1643 89.9219 32.6252 89.9219 31.9534V27.0627H91.6172ZM100.602 29.9612H98.9844C98.901 29.4924 98.6823 29.1122 98.3281 28.8206C97.9792 28.5289 97.5234 28.3831 96.9609 28.3831C96.2734 28.3831 95.7214 28.6487 95.3047 29.1799C94.8932 29.7112 94.6875 30.4195 94.6875 31.3049C94.6875 32.2112 94.8958 32.9247 95.3125 33.4456C95.7292 33.9664 96.2812 34.2268 96.9688 34.2268C97.5208 34.2268 97.9714 34.0966 98.3203 33.8362C98.6745 33.5706 98.901 33.1903 99 32.6956H100.617C100.518 33.5862 100.138 34.3023 99.4766 34.844C98.8151 35.3805 97.9766 35.6487 96.9609 35.6487C95.7526 35.6487 94.7839 35.2581 94.0547 34.4768C93.3307 33.6956 92.9688 32.6383 92.9688 31.3049C92.9688 29.9872 93.3307 28.9325 94.0547 28.1409C94.7786 27.3492 95.7422 26.9534 96.9453 26.9534C97.4714 26.9534 97.9583 27.0341 98.4062 27.1956C98.8542 27.3518 99.2292 27.568 99.5312 27.844C99.8385 28.12 100.083 28.4403 100.266 28.8049C100.453 29.1643 100.565 29.5497 100.602 29.9612ZM102.375 25.1565H104.062V27.0627H105.688V28.3987H104.062V33.1409C104.062 33.5107 104.146 33.7841 104.312 33.9612C104.484 34.1331 104.747 34.219 105.102 34.219C105.305 34.219 105.497 34.206 105.68 34.1799V35.5159C105.451 35.5732 105.133 35.6018 104.727 35.6018C103.878 35.6018 103.273 35.4273 102.914 35.0784C102.555 34.7242 102.375 34.1357 102.375 33.3127V28.3987H101.203V27.0627H102.375V25.1565Z" fill="#3C4350"/>
<path d="M20.4883 63.6472H19.2578V53.783H25.2461V54.8904H20.4883V58.281H24.8564V59.3748H20.4883V63.6472ZM27.1465 63.6472V56.2781H28.3223V63.6472H27.1465ZM28.3154 54.5417C28.1559 54.7013 27.9622 54.781 27.7344 54.781C27.5065 54.781 27.3128 54.7013 27.1533 54.5417C26.9938 54.3777 26.9141 54.184 26.9141 53.9607C26.9141 53.7374 26.9938 53.546 27.1533 53.3865C27.3128 53.2224 27.5065 53.1404 27.7344 53.1404C27.9622 53.1404 28.1559 53.2224 28.3154 53.3865C28.4749 53.546 28.5547 53.7374 28.5547 53.9607C28.5547 54.184 28.4749 54.3777 28.3154 54.5417ZM30.5645 63.6472V56.2781H31.6855V57.4402H31.7949C31.9818 57.03 32.2803 56.7133 32.6904 56.49C33.1006 56.2621 33.5859 56.1482 34.1465 56.1482C34.9714 56.1482 35.6071 56.3852 36.0537 56.8591C36.5003 57.3285 36.7236 58.0007 36.7236 58.8757V63.6472H35.5479V59.1628C35.5479 58.502 35.4043 58.0121 35.1172 57.6931C34.8346 57.3695 34.3994 57.2078 33.8115 57.2078C33.1644 57.2078 32.6562 57.3923 32.2871 57.7615C31.9225 58.1306 31.7402 58.6388 31.7402 59.2859V63.6472H30.5645ZM41.6045 63.7771C40.6611 63.7771 39.9092 63.4307 39.3486 62.738C38.7881 62.0453 38.5078 61.1202 38.5078 59.9626C38.5078 58.8097 38.7881 57.8868 39.3486 57.1941C39.9137 56.4968 40.6657 56.1482 41.6045 56.1482C42.1195 56.1482 42.5798 56.2644 42.9854 56.4968C43.3955 56.7247 43.7054 57.0391 43.915 57.4402H44.0176V53.3523H45.1934V63.6472H44.0723V62.4714H43.9629C43.7305 62.8816 43.4069 63.2029 42.9922 63.4353C42.5775 63.6632 42.1149 63.7771 41.6045 63.7771ZM41.8779 57.2078C41.208 57.2078 40.6816 57.4539 40.2988 57.946C39.916 58.4337 39.7246 59.1059 39.7246 59.9626C39.7246 60.824 39.9137 61.4985 40.292 61.9861C40.6748 62.4737 41.2035 62.7175 41.8779 62.7175C42.5479 62.7175 43.0765 62.4714 43.4639 61.9792C43.8512 61.4871 44.0449 60.8149 44.0449 59.9626C44.0449 59.1195 43.849 58.4496 43.457 57.9529C43.0697 57.4561 42.5433 57.2078 41.8779 57.2078ZM53.6973 62.7449C54.3034 62.7449 54.8047 62.5694 55.2012 62.2185C55.6022 61.8676 55.8027 61.4278 55.8027 60.8992V60.2224L53.8203 60.3523C53.2643 60.3888 52.8564 60.505 52.5967 60.7009C52.3369 60.8969 52.207 61.1817 52.207 61.5554C52.207 61.9246 52.346 62.2162 52.624 62.4304C52.902 62.6401 53.2598 62.7449 53.6973 62.7449ZM53.4785 63.7771C52.7539 63.7771 52.1569 63.5789 51.6875 63.1824C51.2227 62.7813 50.9902 62.2481 50.9902 61.5828C50.9902 60.9265 51.2227 60.4115 51.6875 60.0378C52.1523 59.6641 52.8154 59.4522 53.6768 59.4021L55.8027 59.2722V58.6023C55.8027 58.1466 55.6615 57.7979 55.3789 57.5564C55.0964 57.3149 54.6816 57.1941 54.1348 57.1941C53.6927 57.1941 53.3258 57.2738 53.0342 57.4333C52.7425 57.5929 52.5557 57.8184 52.4736 58.1101H51.2842C51.3617 57.5222 51.6647 57.0483 52.1934 56.6882C52.7266 56.3282 53.3874 56.1482 54.1758 56.1482C55.069 56.1482 55.7594 56.3647 56.2471 56.7976C56.7347 57.2306 56.9785 57.8321 56.9785 58.6023V63.6472H55.8574V62.5603H55.748C55.5111 62.9522 55.1966 63.253 54.8047 63.4626C54.4128 63.6723 53.9707 63.7771 53.4785 63.7771ZM59.1523 63.6472V56.2781H60.2734V57.4402H60.3828C60.5697 57.03 60.8682 56.7133 61.2783 56.49C61.6885 56.2621 62.1738 56.1482 62.7344 56.1482C63.5592 56.1482 64.195 56.3852 64.6416 56.8591C65.0882 57.3285 65.3115 58.0007 65.3115 58.8757V63.6472H64.1357V59.1628C64.1357 58.502 63.9922 58.0121 63.7051 57.6931C63.4225 57.3695 62.9873 57.2078 62.3994 57.2078C61.7523 57.2078 61.2441 57.3923 60.875 57.7615C60.5104 58.1306 60.3281 58.6388 60.3281 59.2859V63.6472H59.1523ZM70.1924 63.7771C69.249 63.7771 68.4971 63.4307 67.9365 62.738C67.376 62.0453 67.0957 61.1202 67.0957 59.9626C67.0957 58.8097 67.376 57.8868 67.9365 57.1941C68.5016 56.4968 69.2536 56.1482 70.1924 56.1482C70.7074 56.1482 71.1676 56.2644 71.5732 56.4968C71.9834 56.7247 72.2933 57.0391 72.5029 57.4402H72.6055V53.3523H73.7812V63.6472H72.6602V62.4714H72.5508C72.3184 62.8816 71.9948 63.2029 71.5801 63.4353C71.1654 63.6632 70.7028 63.7771 70.1924 63.7771ZM70.4658 57.2078C69.7959 57.2078 69.2695 57.4539 68.8867 57.946C68.5039 58.4337 68.3125 59.1059 68.3125 59.9626C68.3125 60.824 68.5016 61.4985 68.8799 61.9861C69.2627 62.4737 69.7913 62.7175 70.4658 62.7175C71.1357 62.7175 71.6644 62.4714 72.0518 61.9792C72.4391 61.4871 72.6328 60.8149 72.6328 59.9626C72.6328 59.1195 72.4368 58.4496 72.0449 57.9529C71.6576 57.4561 71.1312 57.2078 70.4658 57.2078ZM82.2852 62.7449C82.8913 62.7449 83.3926 62.5694 83.7891 62.2185C84.1901 61.8676 84.3906 61.4278 84.3906 60.8992V60.2224L82.4082 60.3523C81.8522 60.3888 81.4443 60.505 81.1846 60.7009C80.9248 60.8969 80.7949 61.1817 80.7949 61.5554C80.7949 61.9246 80.9339 62.2162 81.2119 62.4304C81.4899 62.6401 81.8477 62.7449 82.2852 62.7449ZM82.0664 63.7771C81.3418 63.7771 80.7448 63.5789 80.2754 63.1824C79.8105 62.7813 79.5781 62.2481 79.5781 61.5828C79.5781 60.9265 79.8105 60.4115 80.2754 60.0378C80.7402 59.6641 81.4033 59.4522 82.2646 59.4021L84.3906 59.2722V58.6023C84.3906 58.1466 84.2493 57.7979 83.9668 57.5564C83.6842 57.3149 83.2695 57.1941 82.7227 57.1941C82.2806 57.1941 81.9137 57.2738 81.6221 57.4333C81.3304 57.5929 81.1436 57.8184 81.0615 58.1101H79.8721C79.9495 57.5222 80.2526 57.0483 80.7812 56.6882C81.3145 56.3282 81.9753 56.1482 82.7637 56.1482C83.6569 56.1482 84.3473 56.3647 84.835 56.7976C85.3226 57.2306 85.5664 57.8321 85.5664 58.6023V63.6472H84.4453V62.5603H84.3359C84.099 62.9522 83.7845 63.253 83.3926 63.4626C83.0007 63.6723 82.5586 63.7771 82.0664 63.7771ZM90.4678 63.7771C89.5244 63.7771 88.7725 63.4307 88.2119 62.738C87.6514 62.0453 87.3711 61.1202 87.3711 59.9626C87.3711 58.8097 87.6514 57.8868 88.2119 57.1941C88.777 56.4968 89.529 56.1482 90.4678 56.1482C90.9827 56.1482 91.443 56.2644 91.8486 56.4968C92.2588 56.7247 92.5687 57.0391 92.7783 57.4402H92.8809V53.3523H94.0566V63.6472H92.9355V62.4714H92.8262C92.5938 62.8816 92.2702 63.2029 91.8555 63.4353C91.4408 63.6632 90.9782 63.7771 90.4678 63.7771ZM90.7412 57.2078C90.0713 57.2078 89.5449 57.4539 89.1621 57.946C88.7793 58.4337 88.5879 59.1059 88.5879 59.9626C88.5879 60.824 88.777 61.4985 89.1553 61.9861C89.5381 62.4737 90.0667 62.7175 90.7412 62.7175C91.4111 62.7175 91.9398 62.4714 92.3271 61.9792C92.7145 61.4871 92.9082 60.8149 92.9082 59.9626C92.9082 59.1195 92.7122 58.4496 92.3203 57.9529C91.9329 57.4561 91.4066 57.2078 90.7412 57.2078ZM99.0674 63.7771C98.124 63.7771 97.3721 63.4307 96.8115 62.738C96.251 62.0453 95.9707 61.1202 95.9707 59.9626C95.9707 58.8097 96.251 57.8868 96.8115 57.1941C97.3766 56.4968 98.1286 56.1482 99.0674 56.1482C99.5824 56.1482 100.043 56.2644 100.448 56.4968C100.858 56.7247 101.168 57.0391 101.378 57.4402H101.48V53.3523H102.656V63.6472H101.535V62.4714H101.426C101.193 62.8816 100.87 63.2029 100.455 63.4353C100.04 63.6632 99.5778 63.7771 99.0674 63.7771ZM99.3408 57.2078C98.6709 57.2078 98.1445 57.4539 97.7617 57.946C97.3789 58.4337 97.1875 59.1059 97.1875 59.9626C97.1875 60.824 97.3766 61.4985 97.7549 61.9861C98.1377 62.4737 98.6663 62.7175 99.3408 62.7175C100.011 62.7175 100.539 62.4714 100.927 61.9792C101.314 61.4871 101.508 60.8149 101.508 59.9626C101.508 59.1195 101.312 58.4496 100.92 57.9529C100.533 57.4561 100.006 57.2078 99.3408 57.2078ZM112.479 56.1482C113.418 56.1482 114.168 56.4945 114.729 57.1873C115.294 57.88 115.576 58.8051 115.576 59.9626C115.576 61.1156 115.294 62.0408 114.729 62.738C114.163 63.4307 113.414 63.7771 112.479 63.7771C111.955 63.7771 111.491 63.67 111.085 63.4558C110.679 63.2371 110.376 62.9317 110.176 62.5398H110.066V66.1082H108.891V56.2781H110.012V57.5085H110.121C110.358 57.0847 110.684 56.752 111.099 56.5105C111.518 56.269 111.978 56.1482 112.479 56.1482ZM112.199 62.7175C112.874 62.7175 113.402 62.4737 113.785 61.9861C114.168 61.4985 114.359 60.824 114.359 59.9626C114.359 59.1013 114.168 58.4268 113.785 57.9392C113.407 57.4516 112.881 57.2078 112.206 57.2078C111.541 57.2078 111.012 57.4561 110.62 57.9529C110.228 58.4451 110.032 59.115 110.032 59.9626C110.032 60.8057 110.226 61.4757 110.613 61.9724C111.005 62.4692 111.534 62.7175 112.199 62.7175ZM117.422 63.6472V56.2781H118.543V57.3718H118.652C118.762 57.0118 119.008 56.7179 119.391 56.49C119.773 56.2621 120.209 56.1482 120.696 56.1482C120.92 56.1482 121.116 56.1596 121.284 56.1824V57.3582C121.125 57.3126 120.874 57.2898 120.532 57.2898C119.972 57.2898 119.509 57.4584 119.145 57.7957C118.78 58.1329 118.598 58.5613 118.598 59.0808V63.6472H117.422ZM123.964 61.9998C124.342 62.4783 124.88 62.7175 125.577 62.7175C126.274 62.7175 126.812 62.4783 127.19 61.9998C127.569 61.5167 127.758 60.8376 127.758 59.9626C127.758 59.0876 127.569 58.4109 127.19 57.9324C126.812 57.4493 126.274 57.2078 125.577 57.2078C124.88 57.2078 124.342 57.4493 123.964 57.9324C123.586 58.4109 123.396 59.0876 123.396 59.9626C123.396 60.8376 123.586 61.5167 123.964 61.9998ZM128.059 62.7585C127.452 63.4376 126.625 63.7771 125.577 63.7771C124.529 63.7771 123.7 63.4376 123.089 62.7585C122.483 62.075 122.18 61.143 122.18 59.9626C122.18 58.7778 122.483 57.8458 123.089 57.1667C123.695 56.4877 124.524 56.1482 125.577 56.1482C126.63 56.1482 127.459 56.4877 128.065 57.1667C128.672 57.8458 128.975 58.7778 128.975 59.9626C128.975 61.143 128.669 62.075 128.059 62.7585ZM133.548 63.7771C132.604 63.7771 131.853 63.4307 131.292 62.738C130.731 62.0453 130.451 61.1202 130.451 59.9626C130.451 58.8097 130.731 57.8868 131.292 57.1941C131.857 56.4968 132.609 56.1482 133.548 56.1482C134.063 56.1482 134.523 56.2644 134.929 56.4968C135.339 56.7247 135.649 57.0391 135.858 57.4402H135.961V53.3523H137.137V63.6472H136.016V62.4714H135.906C135.674 62.8816 135.35 63.2029 134.936 63.4353C134.521 63.6632 134.058 63.7771 133.548 63.7771ZM133.821 57.2078C133.151 57.2078 132.625 57.4539 132.242 57.946C131.859 58.4337 131.668 59.1059 131.668 59.9626C131.668 60.824 131.857 61.4985 132.235 61.9861C132.618 62.4737 133.147 62.7175 133.821 62.7175C134.491 62.7175 135.02 62.4714 135.407 61.9792C135.795 61.4871 135.988 60.8149 135.988 59.9626C135.988 59.1195 135.792 58.4496 135.4 57.9529C135.013 57.4561 134.487 57.2078 133.821 57.2078ZM145.518 56.2781V63.6472H144.396V62.4919H144.287C144.105 62.9021 143.809 63.2188 143.398 63.4421C142.988 63.6654 142.501 63.7771 141.936 63.7771C141.111 63.7771 140.473 63.5401 140.021 63.0662C139.575 62.5922 139.352 61.92 139.352 61.0496V56.2781H140.527V60.7625C140.527 61.4233 140.669 61.9132 140.951 62.2322C141.238 62.5466 141.676 62.7039 142.264 62.7039C142.915 62.7039 143.424 62.5216 143.788 62.157C144.157 61.7924 144.342 61.2865 144.342 60.6394V56.2781H145.518ZM153.83 58.5339H152.641C152.54 58.1466 152.324 57.8298 151.991 57.5837C151.663 57.3331 151.246 57.2078 150.74 57.2078C150.079 57.2078 149.553 57.4539 149.161 57.946C148.774 58.4382 148.58 59.1013 148.58 59.9353C148.58 60.783 148.776 61.4597 149.168 61.9656C149.56 62.4669 150.084 62.7175 150.74 62.7175C151.237 62.7175 151.649 62.6059 151.978 62.3826C152.31 62.1593 152.531 61.8403 152.641 61.4255H153.83C153.721 62.1228 153.395 62.6902 152.853 63.1277C152.31 63.5606 151.608 63.7771 150.747 63.7771C149.713 63.7771 148.89 63.4307 148.279 62.738C147.669 62.0408 147.363 61.1065 147.363 59.9353C147.363 58.7869 147.669 57.8686 148.279 57.1804C148.89 56.4923 149.71 56.1482 150.74 56.1482C151.602 56.1482 152.303 56.3738 152.846 56.825C153.393 57.2761 153.721 57.8458 153.83 58.5339ZM156.195 54.4392H157.371V56.2781H159.08V57.2625H157.371V61.4324C157.371 61.8653 157.458 62.1798 157.631 62.3757C157.804 62.5717 158.082 62.6697 158.465 62.6697C158.624 62.6697 158.802 62.6606 158.998 62.6423V63.6335C158.738 63.6791 158.513 63.7019 158.321 63.7019C157.56 63.7019 157.016 63.5492 156.688 63.2439C156.359 62.9386 156.195 62.435 156.195 61.7332V57.2625H154.958V56.2781H156.195V54.4392ZM160.481 58.2947C160.481 57.684 160.743 57.1736 161.268 56.7634C161.792 56.3533 162.446 56.1482 163.229 56.1482C164 56.1482 164.635 56.3259 165.137 56.6814C165.638 57.0369 165.927 57.5177 166.005 58.1238H164.843C164.761 57.823 164.578 57.586 164.296 57.4128C164.018 57.2351 163.66 57.1462 163.223 57.1462C162.781 57.1462 162.409 57.2488 162.108 57.4539C161.812 57.6589 161.664 57.9233 161.664 58.2468C161.664 58.4975 161.767 58.7071 161.972 58.8757C162.181 59.0398 162.505 59.1742 162.942 59.2791L164.077 59.5525C164.779 59.7211 165.296 59.9649 165.629 60.2839C165.966 60.6029 166.135 61.0245 166.135 61.5486C166.135 62.2003 165.854 62.7358 165.294 63.155C164.733 63.5697 164.029 63.7771 163.182 63.7771C162.361 63.7771 161.689 63.5948 161.165 63.2302C160.641 62.8656 160.347 62.378 160.283 61.7673H161.493C161.593 62.0863 161.792 62.337 162.088 62.5193C162.384 62.697 162.762 62.7859 163.223 62.7859C163.719 62.7859 164.127 62.6788 164.446 62.4646C164.765 62.2504 164.925 61.9747 164.925 61.6375C164.925 61.1361 164.535 60.7898 163.756 60.5984L162.491 60.2908C161.794 60.1222 161.284 59.8806 160.96 59.5662C160.641 59.2472 160.481 58.8233 160.481 58.2947ZM172.424 54.4392H173.6V56.2781H175.309V57.2625H173.6V61.4324C173.6 61.8653 173.686 62.1798 173.859 62.3757C174.033 62.5717 174.311 62.6697 174.693 62.6697C174.853 62.6697 175.031 62.6606 175.227 62.6423V63.6335C174.967 63.6791 174.741 63.7019 174.55 63.7019C173.789 63.7019 173.244 63.5492 172.916 63.2439C172.588 62.9386 172.424 62.435 172.424 61.7332V57.2625H171.187V56.2781H172.424V54.4392ZM178.323 61.9998C178.701 62.4783 179.239 62.7175 179.937 62.7175C180.634 62.7175 181.172 62.4783 181.55 61.9998C181.928 61.5167 182.117 60.8376 182.117 59.9626C182.117 59.0876 181.928 58.4109 181.55 57.9324C181.172 57.4493 180.634 57.2078 179.937 57.2078C179.239 57.2078 178.701 57.4493 178.323 57.9324C177.945 58.4109 177.756 59.0876 177.756 59.9626C177.756 60.8376 177.945 61.5167 178.323 61.9998ZM182.418 62.7585C181.812 63.4376 180.985 63.7771 179.937 63.7771C178.888 63.7771 178.059 63.4376 177.448 62.7585C176.842 62.075 176.539 61.143 176.539 59.9626C176.539 58.7778 176.842 57.8458 177.448 57.1667C178.054 56.4877 178.884 56.1482 179.937 56.1482C180.989 56.1482 181.819 56.4877 182.425 57.1667C183.031 57.8458 183.334 58.7778 183.334 59.9626C183.334 61.143 183.029 62.075 182.418 62.7585ZM189.76 66.3201C189.573 66.3201 189.397 66.3064 189.233 66.2791V65.2742C189.352 65.297 189.516 65.3083 189.726 65.3083C190.063 65.3083 190.334 65.2149 190.539 65.0281C190.744 64.8458 190.924 64.5336 191.079 64.0916L191.216 63.6541L188.488 56.2781H189.76L191.783 62.3416H191.893L193.909 56.2781H195.16L192.282 64.0984C191.968 64.9506 191.631 65.5339 191.271 65.8484C190.915 66.1628 190.411 66.3201 189.76 66.3201ZM197.874 61.9998C198.252 62.4783 198.79 62.7175 199.487 62.7175C200.185 62.7175 200.722 62.4783 201.101 61.9998C201.479 61.5167 201.668 60.8376 201.668 59.9626C201.668 59.0876 201.479 58.4109 201.101 57.9324C200.722 57.4493 200.185 57.2078 199.487 57.2078C198.79 57.2078 198.252 57.4493 197.874 57.9324C197.496 58.4109 197.307 59.0876 197.307 59.9626C197.307 60.8376 197.496 61.5167 197.874 61.9998ZM201.969 62.7585C201.363 63.4376 200.535 63.7771 199.487 63.7771C198.439 63.7771 197.61 63.4376 196.999 62.7585C196.393 62.075 196.09 61.143 196.09 59.9626C196.09 58.7778 196.393 57.8458 196.999 57.1667C197.605 56.4877 198.435 56.1482 199.487 56.1482C200.54 56.1482 201.369 56.4877 201.976 57.1667C202.582 57.8458 202.885 58.7778 202.885 59.9626C202.885 61.143 202.579 62.075 201.969 62.7585ZM210.828 56.2781V63.6472H209.707V62.4919H209.598C209.415 62.9021 209.119 63.2188 208.709 63.4421C208.299 63.6654 207.811 63.7771 207.246 63.7771C206.421 63.7771 205.783 63.5401 205.332 63.0662C204.885 62.5922 204.662 61.92 204.662 61.0496V56.2781H205.838V60.7625C205.838 61.4233 205.979 61.9132 206.262 62.2322C206.549 62.5466 206.986 62.7039 207.574 62.7039C208.226 62.7039 208.734 62.5216 209.099 62.157C209.468 61.7924 209.652 61.2865 209.652 60.6394V56.2781H210.828ZM213.043 63.6472V56.2781H214.164V57.3718H214.273C214.383 57.0118 214.629 56.7179 215.012 56.49C215.395 56.2621 215.83 56.1482 216.317 56.1482C216.541 56.1482 216.737 56.1596 216.905 56.1824V57.3582C216.746 57.3126 216.495 57.2898 216.153 57.2898C215.593 57.2898 215.13 57.4584 214.766 57.7957C214.401 58.1329 214.219 58.5613 214.219 59.0808V63.6472H213.043ZM228.328 58.5339H227.139C227.038 58.1466 226.822 57.8298 226.489 57.5837C226.161 57.3331 225.744 57.2078 225.238 57.2078C224.577 57.2078 224.051 57.4539 223.659 57.946C223.272 58.4382 223.078 59.1013 223.078 59.9353C223.078 60.783 223.274 61.4597 223.666 61.9656C224.058 62.4669 224.582 62.7175 225.238 62.7175C225.735 62.7175 226.147 62.6059 226.476 62.3826C226.808 62.1593 227.029 61.8403 227.139 61.4255H228.328C228.219 62.1228 227.893 62.6902 227.351 63.1277C226.808 63.5606 226.106 63.7771 225.245 63.7771C224.211 63.7771 223.388 63.4307 222.777 62.738C222.167 62.0408 221.861 61.1065 221.861 59.9353C221.861 58.7869 222.167 57.8686 222.777 57.1804C223.388 56.4923 224.208 56.1482 225.238 56.1482C226.1 56.1482 226.801 56.3738 227.344 56.825C227.891 57.2761 228.219 57.8458 228.328 58.5339ZM231.479 61.9998C231.858 62.4783 232.396 62.7175 233.093 62.7175C233.79 62.7175 234.328 62.4783 234.706 61.9998C235.084 61.5167 235.273 60.8376 235.273 59.9626C235.273 59.0876 235.084 58.4109 234.706 57.9324C234.328 57.4493 233.79 57.2078 233.093 57.2078C232.396 57.2078 231.858 57.4493 231.479 57.9324C231.101 58.4109 230.912 59.0876 230.912 59.9626C230.912 60.8376 231.101 61.5167 231.479 61.9998ZM235.574 62.7585C234.968 63.4376 234.141 63.7771 233.093 63.7771C232.045 63.7771 231.215 63.4376 230.604 62.7585C229.998 62.075 229.695 61.143 229.695 59.9626C229.695 58.7778 229.998 57.8458 230.604 57.1667C231.211 56.4877 232.04 56.1482 233.093 56.1482C234.146 56.1482 234.975 56.4877 235.581 57.1667C236.187 57.8458 236.49 58.7778 236.49 59.9626C236.49 61.143 236.185 62.075 235.574 62.7585ZM238.404 63.6472V53.3523H239.58V63.6472H238.404ZM241.932 63.6472V53.3523H243.107V63.6472H241.932ZM248.33 57.1873C247.742 57.1873 247.259 57.3855 246.881 57.782C246.503 58.1785 246.291 58.7026 246.245 59.3542H250.306C250.292 58.7026 250.105 58.1785 249.745 57.782C249.385 57.3855 248.913 57.1873 248.33 57.1873ZM250.271 61.74H251.447C251.27 62.378 250.907 62.877 250.36 63.2371C249.818 63.5971 249.146 63.7771 248.344 63.7771C247.323 63.7771 246.514 63.4353 245.917 62.7517C245.32 62.0636 245.021 61.1361 245.021 59.9695C245.021 58.8074 245.322 57.88 245.924 57.1873C246.525 56.4945 247.332 56.1482 248.344 56.1482C249.337 56.1482 250.119 56.4786 250.688 57.1394C251.258 57.8002 251.543 58.7048 251.543 59.8533V60.3044H246.245V60.3591C246.277 61.0883 246.482 61.6671 246.86 62.0955C247.243 62.5238 247.747 62.738 248.371 62.738C249.324 62.738 249.957 62.4054 250.271 61.74ZM259.486 58.5339H258.297C258.197 58.1466 257.98 57.8298 257.647 57.5837C257.319 57.3331 256.902 57.2078 256.396 57.2078C255.736 57.2078 255.209 57.4539 254.817 57.946C254.43 58.4382 254.236 59.1013 254.236 59.9353C254.236 60.783 254.432 61.4597 254.824 61.9656C255.216 62.4669 255.74 62.7175 256.396 62.7175C256.893 62.7175 257.306 62.6059 257.634 62.3826C257.966 62.1593 258.188 61.8403 258.297 61.4255H259.486C259.377 62.1228 259.051 62.6902 258.509 63.1277C257.966 63.5606 257.265 63.7771 256.403 63.7771C255.369 63.7771 254.546 63.4307 253.936 62.738C253.325 62.0408 253.02 61.1065 253.02 59.9353C253.02 58.7869 253.325 57.8686 253.936 57.1804C254.546 56.4923 255.367 56.1482 256.396 56.1482C257.258 56.1482 257.96 56.3738 258.502 56.825C259.049 57.2761 259.377 57.8458 259.486 58.5339ZM261.852 54.4392H263.027V56.2781H264.736V57.2625H263.027V61.4324C263.027 61.8653 263.114 62.1798 263.287 62.3757C263.46 62.5717 263.738 62.6697 264.121 62.6697C264.281 62.6697 264.458 62.6606 264.654 62.6423V63.6335C264.395 63.6791 264.169 63.7019 263.978 63.7019C263.216 63.7019 262.672 63.5492 262.344 63.2439C262.016 62.9386 261.852 62.435 261.852 61.7332V57.2625H260.614V56.2781H261.852V54.4392ZM266.473 63.6472V56.2781H267.648V63.6472H266.473ZM267.642 54.5417C267.482 54.7013 267.288 54.781 267.061 54.781C266.833 54.781 266.639 54.7013 266.479 54.5417C266.32 54.3777 266.24 54.184 266.24 53.9607C266.24 53.7374 266.32 53.546 266.479 53.3865C266.639 53.2224 266.833 53.1404 267.061 53.1404C267.288 53.1404 267.482 53.2224 267.642 53.3865C267.801 53.546 267.881 53.7374 267.881 53.9607C267.881 54.184 267.801 54.3777 267.642 54.5417ZM271.306 61.9998C271.684 62.4783 272.222 62.7175 272.919 62.7175C273.616 62.7175 274.154 62.4783 274.532 61.9998C274.91 61.5167 275.1 60.8376 275.1 59.9626C275.1 59.0876 274.91 58.4109 274.532 57.9324C274.154 57.4493 273.616 57.2078 272.919 57.2078C272.222 57.2078 271.684 57.4493 271.306 57.9324C270.927 58.4109 270.738 59.0876 270.738 59.9626C270.738 60.8376 270.927 61.5167 271.306 61.9998ZM275.4 62.7585C274.794 63.4376 273.967 63.7771 272.919 63.7771C271.871 63.7771 271.041 63.4376 270.431 62.7585C269.825 62.075 269.521 61.143 269.521 59.9626C269.521 58.7778 269.825 57.8458 270.431 57.1667C271.037 56.4877 271.866 56.1482 272.919 56.1482C273.972 56.1482 274.801 56.4877 275.407 57.1667C276.013 57.8458 276.316 58.7778 276.316 59.9626C276.316 61.143 276.011 62.075 275.4 62.7585ZM278.162 63.6472V56.2781H279.283V57.4402H279.393C279.579 57.03 279.878 56.7133 280.288 56.49C280.698 56.2621 281.184 56.1482 281.744 56.1482C282.569 56.1482 283.205 56.3852 283.651 56.8591C284.098 57.3285 284.321 58.0007 284.321 58.8757V63.6472H283.146V59.1628C283.146 58.502 283.002 58.0121 282.715 57.6931C282.432 57.3695 281.997 57.2078 281.409 57.2078C280.762 57.2078 280.254 57.3923 279.885 57.7615C279.52 58.1306 279.338 58.6388 279.338 59.2859V63.6472H278.162Z" fill="#71737C"/>
<line x1="18" y1="80.0785" x2="350" y2="80.0785" stroke="#DDDDE3" stroke-width="1.1375"/>
<path d="M22.5498 93.2156H345.45C347.649 93.2157 349.432 94.9984 349.432 97.197V120.097C349.432 122.296 347.649 124.079 345.45 124.079H22.5498C20.3512 124.079 18.5685 122.296 18.5684 120.097V97.197C18.5685 94.9984 20.3512 93.2157 22.5498 93.2156Z" stroke="#DDDDE3" stroke-width="1.1375"/>
<path d="M41.1621 113.647H37.1084V103.783H41.1484C42.0189 103.783 42.7184 104.009 43.2471 104.46C43.7757 104.906 44.04 105.501 44.04 106.244C44.04 106.768 43.8714 107.237 43.5342 107.652C43.1969 108.062 42.7822 108.308 42.29 108.39V108.445C42.96 108.523 43.5 108.782 43.9102 109.224C44.3249 109.662 44.5322 110.206 44.5322 110.858C44.5322 111.729 44.2337 112.412 43.6367 112.909C43.0397 113.401 42.2148 113.647 41.1621 113.647ZM38.6396 105.034V107.98H40.4512C41.1165 107.98 41.627 107.848 41.9824 107.584C42.3379 107.319 42.5156 106.943 42.5156 106.456C42.5156 106 42.363 105.649 42.0576 105.403C41.7568 105.157 41.3285 105.034 40.7725 105.034H38.6396ZM38.6396 112.396H40.8545C41.5426 112.396 42.0667 112.257 42.4268 111.979C42.7868 111.701 42.9668 111.296 42.9668 110.762C42.9668 110.229 42.7799 109.828 42.4062 109.559C42.0371 109.286 41.4902 109.149 40.7656 109.149H38.6396V112.396ZM45.708 113.647V106.223H47.123V107.474H47.1504C47.2643 107.06 47.4808 106.736 47.7998 106.504C48.1234 106.267 48.5039 106.148 48.9414 106.148C49.1465 106.148 49.3105 106.166 49.4336 106.203V107.591C49.2695 107.527 49.0531 107.495 48.7842 107.495C48.2965 107.495 47.9092 107.652 47.6221 107.967C47.335 108.276 47.1914 108.693 47.1914 109.218V113.647H45.708ZM55.832 112.711C55.2031 113.394 54.3509 113.736 53.2754 113.736C52.1999 113.736 51.3454 113.394 50.7119 112.711C50.0785 112.027 49.7617 111.102 49.7617 109.935C49.7617 108.773 50.0785 107.848 50.7119 107.16C51.3499 106.472 52.2044 106.128 53.2754 106.128C54.3464 106.128 55.1986 106.472 55.832 107.16C56.4655 107.844 56.7822 108.769 56.7822 109.935C56.7822 111.102 56.4655 112.027 55.832 112.711ZM51.7988 111.829C52.1543 112.28 52.6465 112.506 53.2754 112.506C53.9043 112.506 54.3942 112.28 54.7451 111.829C55.1006 111.378 55.2783 110.747 55.2783 109.935C55.2783 109.124 55.1006 108.493 54.7451 108.042C54.3942 107.586 53.9043 107.358 53.2754 107.358C52.6465 107.358 52.1543 107.586 51.7988 108.042C51.4434 108.497 51.2656 109.129 51.2656 109.935C51.2656 110.742 51.4434 111.373 51.7988 111.829ZM67.6924 106.223L65.6484 113.647H64.1172L62.5381 108.055H62.5039L60.9385 113.647H59.4141L57.3633 106.223H58.8398L60.2207 112.102H60.248L61.8203 106.223H63.2422L64.8213 112.102H64.8486L66.2295 106.223H67.6924ZM68.5127 108.336C68.5127 107.684 68.7793 107.155 69.3125 106.75C69.8457 106.34 70.5384 106.135 71.3906 106.135C72.2018 106.135 72.8717 106.342 73.4004 106.757C73.9336 107.167 74.2093 107.695 74.2275 108.343H72.833C72.8011 108.014 72.653 107.755 72.3887 107.563C72.1243 107.372 71.7803 107.276 71.3564 107.276C70.9372 107.276 70.5977 107.367 70.3379 107.55C70.0827 107.727 69.9551 107.962 69.9551 108.254C69.9551 108.7 70.3402 109.017 71.1104 109.204L72.3408 109.498C73.0882 109.68 73.6169 109.922 73.9268 110.222C74.2367 110.523 74.3916 110.947 74.3916 111.494C74.3916 112.155 74.1068 112.695 73.5371 113.114C72.9674 113.529 72.2337 113.736 71.3359 113.736C70.4746 113.736 69.7682 113.533 69.2168 113.128C68.6699 112.718 68.3691 112.175 68.3145 111.501H69.7773C69.8366 111.856 70.0052 112.13 70.2832 112.321C70.5658 112.508 70.9417 112.601 71.4111 112.601C71.8714 112.601 72.236 112.512 72.5049 112.335C72.7783 112.157 72.915 111.918 72.915 111.617C72.915 111.38 72.833 111.193 72.6689 111.056C72.5094 110.92 72.2337 110.801 71.8418 110.701L70.5156 110.373C69.1803 110.045 68.5127 109.366 68.5127 108.336ZM78.6846 107.338C78.1514 107.338 77.707 107.515 77.3516 107.871C77.0007 108.226 76.8047 108.689 76.7637 109.259H80.5303C80.512 108.68 80.3343 108.215 79.9971 107.864C79.6598 107.513 79.2223 107.338 78.6846 107.338ZM80.5234 111.473H81.9385C81.8337 112.139 81.485 112.683 80.8926 113.107C80.3001 113.526 79.5869 113.736 78.7529 113.736C77.6774 113.736 76.8252 113.399 76.1963 112.724C75.5719 112.045 75.2598 111.125 75.2598 109.963C75.2598 108.801 75.5719 107.871 76.1963 107.174C76.8206 106.476 77.6523 106.128 78.6914 106.128C79.7122 106.128 80.5212 106.458 81.1182 107.119C81.7152 107.775 82.0137 108.666 82.0137 109.792V110.311H76.7568V110.4C76.7568 111.043 76.9414 111.56 77.3105 111.952C77.6797 112.339 78.1696 112.533 78.7803 112.533C79.2132 112.533 79.5869 112.437 79.9014 112.246C80.2158 112.054 80.4232 111.797 80.5234 111.473Z" fill="#3C4350"/>
<path d="M324.04 101.862C324.149 101.862 324.252 101.885 324.348 101.93C324.448 101.976 324.553 102.044 324.662 102.135L329.276 105.868C329.45 106.014 329.536 106.205 329.536 106.442C329.536 106.597 329.5 106.736 329.427 106.859C329.354 106.978 329.258 107.071 329.14 107.139C329.021 107.208 328.887 107.242 328.736 107.242C328.641 107.242 328.545 107.224 328.449 107.187C328.354 107.146 328.258 107.087 328.162 107.01L324.04 103.687L319.918 107.01C319.822 107.087 319.727 107.146 319.631 107.187C319.535 107.224 319.437 107.242 319.337 107.242C319.191 107.242 319.059 107.208 318.94 107.139C318.822 107.071 318.726 106.978 318.653 106.859C318.58 106.736 318.544 106.597 318.544 106.442C318.544 106.205 318.631 106.014 318.804 105.868L323.418 102.135C323.527 102.044 323.63 101.976 323.726 101.93C323.826 101.885 323.931 101.862 324.04 101.862ZM324.04 115.561C323.931 115.561 323.826 115.538 323.726 115.493C323.63 115.447 323.527 115.379 323.418 115.288L318.804 111.555C318.631 111.41 318.544 111.216 318.544 110.974C318.544 110.819 318.58 110.683 318.653 110.564C318.726 110.446 318.822 110.352 318.94 110.284C319.059 110.216 319.191 110.181 319.337 110.181C319.437 110.181 319.535 110.202 319.631 110.243C319.727 110.279 319.822 110.336 319.918 110.414L324.04 113.736L328.162 110.414C328.258 110.336 328.354 110.279 328.449 110.243C328.545 110.202 328.641 110.181 328.736 110.181C328.887 110.181 329.021 110.216 329.14 110.284C329.258 110.352 329.354 110.446 329.427 110.564C329.5 110.683 329.536 110.819 329.536 110.974C329.536 111.216 329.45 111.41 329.276 111.555L324.662 115.288C324.553 115.379 324.448 115.447 324.348 115.493C324.252 115.538 324.149 115.561 324.04 115.561Z" fill="#3C4350"/>
</g>
<defs>
<filter id="filter0_dddd_4214_12602" x="0.63135" y="0.836306" width="432.503" height="186.813" filterUnits="userSpaceOnUse" color-interpolation-filters="sRGB">
<feFlood flood-opacity="0" result="BackgroundImageFix"/>
<feColorMatrix in="SourceAlpha" type="matrix" values="0 0 0 0 0 0 0 0 0 0 0 0 0 0 0 0 0 0 127 0" result="hardAlpha"/>
<feOffset dx="2.68432" dy="1.34216"/>
<feGaussianBlur stdDeviation="4.02649"/>
<feColorMatrix type="matrix" values="0 0 0 0 0.85098 0 0 0 0 0.85098 0 0 0 0 0.85098 0 0 0 0.1 0"/>
<feBlend mode="normal" in2="BackgroundImageFix" result="effect1_dropShadow_4214_12602"/>
<feColorMatrix in="SourceAlpha" type="matrix" values="0 0 0 0 0 0 0 0 0 0 0 0 0 0 0 0 0 0 127 0" result="hardAlpha"/>
<feOffset dx="12.0795" dy="6.71081"/>
<feGaussianBlur stdDeviation="6.71081"/>
<feColorMatrix type="matrix" values="0 0 0 0 0.85098 0 0 0 0 0.85098 0 0 0 0 0.85098 0 0 0 0.09 0"/>
<feBlend mode="normal" in2="effect1_dropShadow_4214_12602" result="effect2_dropShadow_4214_12602"/>
<feColorMatrix in="SourceAlpha" type="matrix" values="0 0 0 0 0 0 0 0 0 0 0 0 0 0 0 0 0 0 127 0" result="hardAlpha"/>
<feOffset dx="26.8433" dy="16.1059"/>
<feGaussianBlur stdDeviation="9.39514"/>
<feColorMatrix type="matrix" values="0 0 0 0 0.85098 0 0 0 0 0.85098 0 0 0 0 0.85098 0 0 0 0.05 0"/>
<feBlend mode="normal" in2="effect2_dropShadow_4214_12602" result="effect3_dropShadow_4214_12602"/>
<feColorMatrix in="SourceAlpha" type="matrix" values="0 0 0 0 0 0 0 0 0 0 0 0 0 0 0 0 0 0 127 0" result="hardAlpha"/>
<feOffset dx="48.3178" dy="28.1854"/>
<feGaussianBlur stdDeviation="11.4084"/>
<feColorMatrix type="matrix" values="0 0 0 0 0.85098 0 0 0 0 0.85098 0 0 0 0 0.85098 0 0 0 0.01 0"/>
<feBlend mode="normal" in2="effect3_dropShadow_4214_12602" result="effect4_dropShadow_4214_12602"/>
<feBlend mode="normal" in="SourceGraphic" in2="effect4_dropShadow_4214_12602" result="shape"/>
</filter>
</defs>
</svg>
