<svg width="345" height="237" viewBox="0 0 345 237" fill="none" xmlns="http://www.w3.org/2000/svg">
<g filter="url(#filter0_dddd_1511_26340)">
<rect x="4" y="5.21631" width="288" height="193.762" rx="12" fill="white"/>
<rect x="4.42001" y="5.63632" width="287.16" height="192.922" rx="11.58" stroke="#D6DAE1" stroke-width="0.840027"/>
<path d="M21.6953 30.6567H18.2207V22.2017H21.6836C22.4297 22.2017 23.0293 22.395 23.4824 22.7817C23.9355 23.1646 24.1621 23.6743 24.1621 24.311C24.1621 24.7603 24.0176 25.1626 23.7285 25.5181C23.4395 25.8696 23.084 26.0806 22.6621 26.1509V26.1978C23.2363 26.2642 23.6992 26.4868 24.0508 26.8657C24.4062 27.2407 24.584 27.7075 24.584 28.2661C24.584 29.0122 24.3281 29.5981 23.8164 30.0239C23.3047 30.4458 22.5977 30.6567 21.6953 30.6567ZM19.5332 23.2739V25.7993H21.0859C21.6562 25.7993 22.0938 25.686 22.3984 25.4595C22.7031 25.2329 22.8555 24.9106 22.8555 24.4927C22.8555 24.1021 22.7246 23.8013 22.4629 23.5903C22.2051 23.3794 21.8379 23.2739 21.3613 23.2739H19.5332ZM19.5332 29.5845H21.4316C22.0215 29.5845 22.4707 29.4653 22.7793 29.2271C23.0879 28.9888 23.2422 28.6411 23.2422 28.1841C23.2422 27.7271 23.082 27.3833 22.7617 27.1528C22.4453 26.9185 21.9766 26.8013 21.3555 26.8013H19.5332V29.5845ZM31.1348 24.2935V30.6567H29.9219V29.5669H29.8984C29.7148 29.9458 29.4473 30.2349 29.0957 30.4341C28.7441 30.6294 28.3262 30.7271 27.8418 30.7271C27.1465 30.7271 26.5918 30.5161 26.1777 30.0942C25.7676 29.6724 25.5625 29.0981 25.5625 28.3716V24.2935H26.834V28.1313C26.834 28.6196 26.959 28.9927 27.209 29.2505C27.459 29.5044 27.8145 29.6313 28.2754 29.6313C28.752 29.6313 29.1348 29.479 29.4238 29.1743C29.7168 28.8696 29.8633 28.4653 29.8633 27.9614V24.2935H31.1348ZM32.4355 30.6567V24.2935H33.6484V25.3657H33.6719C34.0664 24.604 34.7559 24.2231 35.7402 24.2231C36.4434 24.2231 36.9961 24.4341 37.3984 24.856C37.8047 25.2739 38.0078 25.8481 38.0078 26.5786V30.6567H36.7363V26.8188C36.7363 26.3345 36.6133 25.9634 36.3672 25.7056C36.1211 25.4438 35.7656 25.313 35.3008 25.313C34.8203 25.313 34.4336 25.4673 34.1406 25.7759C33.8516 26.0806 33.707 26.4829 33.707 26.9829V30.6567H32.4355ZM41.6758 30.7212C40.875 30.7212 40.2266 30.4243 39.7305 29.8306C39.2383 29.2368 38.9922 28.4497 38.9922 27.4692C38.9922 26.4966 39.2383 25.7134 39.7305 25.1196C40.2266 24.5259 40.8711 24.229 41.6641 24.229C42.1172 24.229 42.5176 24.3286 42.8652 24.5278C43.2168 24.7231 43.4844 24.9966 43.668 25.3481H43.6973V21.8208H44.9629V30.6567H43.7324V29.5786H43.709C43.5215 29.9419 43.25 30.2231 42.8945 30.4224C42.543 30.6216 42.1367 30.7212 41.6758 30.7212ZM41.998 25.3071C41.4863 25.3071 41.0742 25.5044 40.7617 25.8989C40.4492 26.2935 40.293 26.8188 40.293 27.4751C40.293 28.1353 40.4473 28.6626 40.7559 29.0571C41.0684 29.4478 41.4824 29.6431 41.998 29.6431C42.5098 29.6431 42.9219 29.4438 43.2344 29.0454C43.5469 28.647 43.7031 28.1235 43.7031 27.4751C43.7031 26.8267 43.5449 26.3032 43.2285 25.9048C42.916 25.5063 42.5059 25.3071 41.998 25.3071ZM46.3633 30.6567V21.8208H47.6348V30.6567H46.3633ZM51.6426 25.2485C51.1855 25.2485 50.8047 25.4009 50.5 25.7056C50.1992 26.0103 50.0312 26.4067 49.9961 26.895H53.2246C53.209 26.3989 53.0566 26.0005 52.7676 25.6997C52.4785 25.3989 52.1035 25.2485 51.6426 25.2485ZM53.2188 28.7935H54.4316C54.3418 29.3638 54.043 29.8306 53.5352 30.1938C53.0273 30.5532 52.416 30.7329 51.7012 30.7329C50.7793 30.7329 50.0488 30.4438 49.5098 29.8657C48.9746 29.2837 48.707 28.4946 48.707 27.4985C48.707 26.5024 48.9746 25.7056 49.5098 25.1079C50.0449 24.5103 50.7578 24.2114 51.6484 24.2114C52.5234 24.2114 53.2168 24.4946 53.7285 25.061C54.2402 25.6235 54.4961 26.3872 54.4961 27.3521V27.7974H49.9902V27.8735C49.9902 28.4243 50.1484 28.8677 50.4648 29.2036C50.7812 29.5356 51.2012 29.7017 51.7246 29.7017C52.0957 29.7017 52.416 29.6196 52.6855 29.4556C52.9551 29.2915 53.1328 29.0708 53.2188 28.7935ZM60.4961 29.7075C60.9688 29.7075 61.3633 29.5728 61.6797 29.3032C61.9961 29.0298 62.1543 28.6841 62.1543 28.2661V27.7681L60.6074 27.8735C59.7285 27.9282 59.2891 28.2407 59.2891 28.811C59.2891 29.0845 59.3984 29.3032 59.6172 29.4673C59.8359 29.6274 60.1289 29.7075 60.4961 29.7075ZM60.1562 30.7212C59.5195 30.7212 59.002 30.5493 58.6035 30.2056C58.2051 29.8579 58.0059 29.4009 58.0059 28.8345C58.0059 28.2798 58.2129 27.8442 58.627 27.5278C59.0449 27.2114 59.6484 27.0278 60.4375 26.9771L62.1543 26.8774V26.3853C62.1543 26.022 62.0371 25.7446 61.8027 25.5532C61.5723 25.3579 61.2441 25.2603 60.8184 25.2603C60.4746 25.2603 60.1836 25.3423 59.9453 25.5063C59.7109 25.6704 59.5664 25.8911 59.5117 26.1685H58.3223C58.3418 25.606 58.5898 25.1392 59.0664 24.7681C59.543 24.397 60.1387 24.2114 60.8535 24.2114C61.6309 24.2114 62.25 24.4009 62.7109 24.7798C63.1758 25.1587 63.4082 25.6626 63.4082 26.2915V30.6567H62.1953V29.5962H62.166C61.9902 29.9399 61.7207 30.2134 61.3574 30.4165C60.9941 30.6196 60.5938 30.7212 60.1562 30.7212ZM70.123 26.4673H68.9102C68.8477 26.1157 68.6836 25.8306 68.418 25.6118C68.1562 25.3931 67.8145 25.2837 67.3926 25.2837C66.877 25.2837 66.4629 25.4829 66.1504 25.8813C65.8418 26.2798 65.6875 26.811 65.6875 27.4751C65.6875 28.1548 65.8438 28.6899 66.1562 29.0806C66.4688 29.4712 66.8828 29.6665 67.3984 29.6665C67.8125 29.6665 68.1504 29.5688 68.4121 29.3735C68.6777 29.1743 68.8477 28.8892 68.9219 28.5181H70.1348C70.0605 29.186 69.7754 29.7231 69.2793 30.1294C68.7832 30.5317 68.1543 30.7329 67.3926 30.7329C66.4863 30.7329 65.7598 30.4399 65.2129 29.854C64.6699 29.2681 64.3984 28.4751 64.3984 27.4751C64.3984 26.4868 64.6699 25.6958 65.2129 25.1021C65.7559 24.5083 66.4785 24.2114 67.3809 24.2114C67.7754 24.2114 68.1406 24.272 68.4766 24.3931C68.8125 24.5103 69.0938 24.6724 69.3203 24.8794C69.5508 25.0864 69.7344 25.3267 69.8711 25.6001C70.0117 25.8696 70.0957 26.1587 70.123 26.4673ZM76.5098 26.4673H75.2969C75.2344 26.1157 75.0703 25.8306 74.8047 25.6118C74.543 25.3931 74.2012 25.2837 73.7793 25.2837C73.2637 25.2837 72.8496 25.4829 72.5371 25.8813C72.2285 26.2798 72.0742 26.811 72.0742 27.4751C72.0742 28.1548 72.2305 28.6899 72.543 29.0806C72.8555 29.4712 73.2695 29.6665 73.7852 29.6665C74.1992 29.6665 74.5371 29.5688 74.7988 29.3735C75.0645 29.1743 75.2344 28.8892 75.3086 28.5181H76.5215C76.4473 29.186 76.1621 29.7231 75.666 30.1294C75.1699 30.5317 74.541 30.7329 73.7793 30.7329C72.873 30.7329 72.1465 30.4399 71.5996 29.854C71.0566 29.2681 70.7852 28.4751 70.7852 27.4751C70.7852 26.4868 71.0566 25.6958 71.5996 25.1021C72.1426 24.5083 72.8652 24.2114 73.7676 24.2114C74.1621 24.2114 74.5273 24.272 74.8633 24.3931C75.1992 24.5103 75.4805 24.6724 75.707 24.8794C75.9375 25.0864 76.1211 25.3267 76.2578 25.6001C76.3984 25.8696 76.4824 26.1587 76.5098 26.4673ZM80.1074 25.2485C79.6504 25.2485 79.2695 25.4009 78.9648 25.7056C78.6641 26.0103 78.4961 26.4067 78.4609 26.895H81.6895C81.6738 26.3989 81.5215 26.0005 81.2324 25.6997C80.9434 25.3989 80.5684 25.2485 80.1074 25.2485ZM81.6836 28.7935H82.8965C82.8066 29.3638 82.5078 29.8306 82 30.1938C81.4922 30.5532 80.8809 30.7329 80.166 30.7329C79.2441 30.7329 78.5137 30.4438 77.9746 29.8657C77.4395 29.2837 77.1719 28.4946 77.1719 27.4985C77.1719 26.5024 77.4395 25.7056 77.9746 25.1079C78.5098 24.5103 79.2227 24.2114 80.1133 24.2114C80.9883 24.2114 81.6816 24.4946 82.1934 25.061C82.7051 25.6235 82.9609 26.3872 82.9609 27.3521V27.7974H78.4551V27.8735C78.4551 28.4243 78.6133 28.8677 78.9297 29.2036C79.2461 29.5356 79.666 29.7017 80.1895 29.7017C80.5605 29.7017 80.8809 29.6196 81.1504 29.4556C81.4199 29.2915 81.5977 29.0708 81.6836 28.7935ZM83.8809 26.104C83.8809 25.5454 84.1094 25.0923 84.5664 24.7446C85.0234 24.3931 85.6172 24.2173 86.3477 24.2173C87.043 24.2173 87.6172 24.395 88.0703 24.7505C88.5273 25.1021 88.7637 25.5552 88.7793 26.1099H87.584C87.5566 25.8286 87.4297 25.606 87.2031 25.4419C86.9766 25.2778 86.6816 25.1958 86.3184 25.1958C85.959 25.1958 85.668 25.2739 85.4453 25.4302C85.2266 25.5825 85.1172 25.7837 85.1172 26.0337C85.1172 26.4165 85.4473 26.688 86.1074 26.8481L87.1621 27.1001C87.8027 27.2563 88.2559 27.4634 88.5215 27.7212C88.7871 27.979 88.9199 28.3423 88.9199 28.811C88.9199 29.3774 88.6758 29.8403 88.1875 30.1997C87.6992 30.5552 87.0703 30.7329 86.3008 30.7329C85.5625 30.7329 84.957 30.5591 84.4844 30.2114C84.0156 29.8599 83.7578 29.395 83.7109 28.8169H84.9648C85.0156 29.1216 85.1602 29.356 85.3984 29.52C85.6406 29.6802 85.9629 29.7603 86.3652 29.7603C86.7598 29.7603 87.0723 29.6841 87.3027 29.5317C87.5371 29.3794 87.6543 29.1743 87.6543 28.9165C87.6543 28.7134 87.584 28.5532 87.4434 28.436C87.3066 28.3188 87.0703 28.2173 86.7344 28.1313L85.5977 27.8501C84.4531 27.5688 83.8809 26.9868 83.8809 26.104ZM89.8457 26.104C89.8457 25.5454 90.0742 25.0923 90.5312 24.7446C90.9883 24.3931 91.582 24.2173 92.3125 24.2173C93.0078 24.2173 93.582 24.395 94.0352 24.7505C94.4922 25.1021 94.7285 25.5552 94.7441 26.1099H93.5488C93.5215 25.8286 93.3945 25.606 93.168 25.4419C92.9414 25.2778 92.6465 25.1958 92.2832 25.1958C91.9238 25.1958 91.6328 25.2739 91.4102 25.4302C91.1914 25.5825 91.082 25.7837 91.082 26.0337C91.082 26.4165 91.4121 26.688 92.0723 26.8481L93.127 27.1001C93.7676 27.2563 94.2207 27.4634 94.4863 27.7212C94.752 27.979 94.8848 28.3423 94.8848 28.811C94.8848 29.3774 94.6406 29.8403 94.1523 30.1997C93.6641 30.5552 93.0352 30.7329 92.2656 30.7329C91.5273 30.7329 90.9219 30.5591 90.4492 30.2114C89.9805 29.8599 89.7227 29.395 89.6758 28.8169H90.9297C90.9805 29.1216 91.125 29.356 91.3633 29.52C91.6055 29.6802 91.9277 29.7603 92.3301 29.7603C92.7246 29.7603 93.0371 29.6841 93.2676 29.5317C93.502 29.3794 93.6191 29.1743 93.6191 28.9165C93.6191 28.7134 93.5488 28.5532 93.4082 28.436C93.2715 28.3188 93.0352 28.2173 92.6992 28.1313L91.5625 27.8501C90.418 27.5688 89.8457 26.9868 89.8457 26.104Z" fill="black"/>
<path d="M21.9238 52.856C20.7754 52.856 19.8652 52.4595 19.1934 51.6665C18.5254 50.8735 18.1914 49.7954 18.1914 48.4321C18.1914 47.0688 18.5254 45.9907 19.1934 45.1978C19.8613 44.4009 20.7695 44.0024 21.918 44.0024C22.8086 44.0024 23.5703 44.2563 24.2031 44.7642C24.8359 45.272 25.2148 45.9341 25.3398 46.7505H24.2676C24.127 46.2036 23.8457 45.772 23.4238 45.4556C23.002 45.1353 22.5 44.9751 21.918 44.9751C21.1055 44.9751 20.4609 45.2856 19.9844 45.9067C19.5117 46.5278 19.2754 47.3696 19.2754 48.4321C19.2754 49.4946 19.5137 50.3364 19.9902 50.9575C20.4668 51.5747 21.1113 51.8833 21.9238 51.8833C22.5137 51.8833 23.0176 51.7427 23.4355 51.4614C23.8574 51.1763 24.1348 50.7896 24.2676 50.3013H25.3398C25.1992 51.0786 24.8184 51.6997 24.1973 52.1646C23.5801 52.6255 22.8223 52.856 21.9238 52.856ZM27.0391 52.6567V43.8325H28.0469V47.3364H28.1406C28.3008 46.9849 28.5547 46.7134 28.9023 46.522C29.25 46.3267 29.6641 46.229 30.1445 46.229C30.8594 46.229 31.4102 46.4341 31.7969 46.8442C32.1875 47.2505 32.3828 47.8247 32.3828 48.5669V52.6567H31.375V48.813C31.375 47.6958 30.8691 47.1372 29.8574 47.1372C29.2988 47.1372 28.8574 47.2993 28.5332 47.6235C28.209 47.9478 28.0469 48.3794 28.0469 48.9185V52.6567H27.0391ZM35.4355 51.2446C35.7598 51.6548 36.2207 51.8599 36.8184 51.8599C37.416 51.8599 37.877 51.6548 38.2012 51.2446C38.5254 50.8306 38.6875 50.2485 38.6875 49.4985C38.6875 48.7485 38.5254 48.1685 38.2012 47.7583C37.877 47.3442 37.416 47.1372 36.8184 47.1372C36.2207 47.1372 35.7598 47.3442 35.4355 47.7583C35.1113 48.1685 34.9492 48.7485 34.9492 49.4985C34.9492 50.2485 35.1113 50.8306 35.4355 51.2446ZM38.9453 51.895C38.4258 52.4771 37.7168 52.7681 36.8184 52.7681C35.9199 52.7681 35.209 52.4771 34.6855 51.895C34.166 51.3091 33.9062 50.5103 33.9062 49.4985C33.9062 48.4829 34.166 47.6841 34.6855 47.1021C35.2051 46.52 35.916 46.229 36.8184 46.229C37.7207 46.229 38.4316 46.52 38.9512 47.1021C39.4707 47.6841 39.7305 48.4829 39.7305 49.4985C39.7305 50.5103 39.4688 51.3091 38.9453 51.895ZM42.5254 51.2446C42.8496 51.6548 43.3105 51.8599 43.9082 51.8599C44.5059 51.8599 44.9668 51.6548 45.291 51.2446C45.6152 50.8306 45.7773 50.2485 45.7773 49.4985C45.7773 48.7485 45.6152 48.1685 45.291 47.7583C44.9668 47.3442 44.5059 47.1372 43.9082 47.1372C43.3105 47.1372 42.8496 47.3442 42.5254 47.7583C42.2012 48.1685 42.0391 48.7485 42.0391 49.4985C42.0391 50.2485 42.2012 50.8306 42.5254 51.2446ZM46.0352 51.895C45.5156 52.4771 44.8066 52.7681 43.9082 52.7681C43.0098 52.7681 42.2988 52.4771 41.7754 51.895C41.2559 51.3091 40.9961 50.5103 40.9961 49.4985C40.9961 48.4829 41.2559 47.6841 41.7754 47.1021C42.2949 46.52 43.0059 46.229 43.9082 46.229C44.8105 46.229 45.5215 46.52 46.041 47.1021C46.5605 47.6841 46.8203 48.4829 46.8203 49.4985C46.8203 50.5103 46.5586 51.3091 46.0352 51.895ZM48.2559 48.0688C48.2559 47.5454 48.4805 47.1079 48.9297 46.7563C49.3789 46.4048 49.9395 46.229 50.6113 46.229C51.2715 46.229 51.8164 46.3813 52.2461 46.686C52.6758 46.9907 52.9238 47.4028 52.9902 47.9224H51.9941C51.9238 47.6646 51.7676 47.4614 51.5254 47.313C51.2871 47.1606 50.9805 47.0845 50.6055 47.0845C50.2266 47.0845 49.9082 47.1724 49.6504 47.3481C49.3965 47.5239 49.2695 47.7505 49.2695 48.0278C49.2695 48.2427 49.3574 48.4224 49.5332 48.5669C49.7129 48.7075 49.9902 48.8228 50.3652 48.9126L51.3379 49.147C51.9395 49.2915 52.3828 49.5005 52.668 49.7739C52.957 50.0474 53.1016 50.4087 53.1016 50.8579C53.1016 51.4165 52.8613 51.8755 52.3809 52.2349C51.9004 52.5903 51.2969 52.7681 50.5703 52.7681C49.8672 52.7681 49.291 52.6118 48.8418 52.2993C48.3926 51.9868 48.1406 51.5688 48.0859 51.0454H49.123C49.209 51.3188 49.3789 51.5337 49.6328 51.6899C49.8867 51.8423 50.2109 51.9185 50.6055 51.9185C51.0312 51.9185 51.3809 51.8267 51.6543 51.6431C51.9277 51.4595 52.0645 51.2231 52.0645 50.9341C52.0645 50.5044 51.7305 50.2075 51.0625 50.0435L49.9785 49.7798C49.3809 49.6353 48.9434 49.4282 48.666 49.1587C48.3926 48.8853 48.2559 48.522 48.2559 48.0688ZM57.2031 47.1196C56.6992 47.1196 56.2852 47.2896 55.9609 47.6294C55.6367 47.9692 55.4551 48.4185 55.416 48.9771H58.8965C58.8848 48.4185 58.7246 47.9692 58.416 47.6294C58.1074 47.2896 57.7031 47.1196 57.2031 47.1196ZM58.8672 51.022H59.875C59.7227 51.5688 59.4121 51.9966 58.9434 52.3052C58.4785 52.6138 57.9023 52.7681 57.2148 52.7681C56.3398 52.7681 55.6465 52.4751 55.1348 51.8892C54.623 51.2993 54.3672 50.5044 54.3672 49.5044C54.3672 48.5083 54.625 47.7134 55.1406 47.1196C55.6562 46.5259 56.3477 46.229 57.2148 46.229C58.0664 46.229 58.7363 46.5122 59.2246 47.0786C59.7129 47.645 59.957 48.4204 59.957 49.4048V49.7915H55.416V49.8384C55.4434 50.4634 55.6191 50.9595 55.9434 51.3267C56.2715 51.6938 56.7031 51.8774 57.2383 51.8774C58.0547 51.8774 58.5977 51.5923 58.8672 51.022ZM72.8711 46.3403L71.1016 52.6567H70.0762L68.6641 47.77H68.5703L67.1641 52.6567H66.1445L64.375 46.3403H65.3945L66.6367 51.3911H66.7305L68.1426 46.3403H69.1094L70.5215 51.3911H70.6152L71.8574 46.3403H72.8711ZM74.2773 52.6567V43.8325H75.2852V47.3364H75.3789C75.5391 46.9849 75.793 46.7134 76.1406 46.522C76.4883 46.3267 76.9023 46.229 77.3828 46.229C78.0977 46.229 78.6484 46.4341 79.0352 46.8442C79.4258 47.2505 79.6211 47.8247 79.6211 48.5669V52.6567H78.6133V48.813C78.6133 47.6958 78.1074 47.1372 77.0957 47.1372C76.5371 47.1372 76.0957 47.2993 75.7715 47.6235C75.4473 47.9478 75.2852 48.3794 75.2852 48.9185V52.6567H74.2773ZM83.4062 51.8833C83.9258 51.8833 84.3555 51.7329 84.6953 51.4321C85.0391 51.1313 85.2109 50.7544 85.2109 50.3013V49.7212L83.5117 49.8325C83.0352 49.8638 82.6855 49.9634 82.4629 50.1313C82.2402 50.2993 82.1289 50.5435 82.1289 50.8638C82.1289 51.1802 82.248 51.4302 82.4863 51.6138C82.7246 51.7935 83.0312 51.8833 83.4062 51.8833ZM83.2188 52.7681C82.5977 52.7681 82.0859 52.5981 81.6836 52.2583C81.2852 51.9146 81.0859 51.4575 81.0859 50.8872C81.0859 50.3247 81.2852 49.8833 81.6836 49.563C82.082 49.2427 82.6504 49.061 83.3887 49.0181L85.2109 48.9067V48.3325C85.2109 47.9419 85.0898 47.6431 84.8477 47.436C84.6055 47.229 84.25 47.1255 83.7812 47.1255C83.4023 47.1255 83.0879 47.1938 82.8379 47.3306C82.5879 47.4673 82.4277 47.6606 82.3574 47.9106H81.3379C81.4043 47.4067 81.6641 47.0005 82.1172 46.6919C82.5742 46.3833 83.1406 46.229 83.8164 46.229C84.582 46.229 85.1738 46.4146 85.5918 46.7856C86.0098 47.1567 86.2188 47.6724 86.2188 48.3325V52.6567H85.2578V51.7251H85.1641C84.9609 52.061 84.6914 52.3188 84.3555 52.4985C84.0195 52.6782 83.6406 52.7681 83.2188 52.7681ZM88.5039 44.7642H89.5117V46.3403H90.9766V47.1841H89.5117V50.7583C89.5117 51.1294 89.5859 51.3989 89.7344 51.5669C89.8828 51.7349 90.1211 51.8188 90.4492 51.8188C90.5859 51.8188 90.7383 51.811 90.9062 51.7954V52.645C90.6836 52.6841 90.4902 52.7036 90.3262 52.7036C89.6738 52.7036 89.207 52.5728 88.9258 52.311C88.6445 52.0493 88.5039 51.6177 88.5039 51.0161V47.1841H87.4434V46.3403H88.5039V44.7642ZM93.4785 47.3599H92.541V44.2017H93.4785V47.3599ZM95.3301 48.0688C95.3301 47.5454 95.5547 47.1079 96.0039 46.7563C96.4531 46.4048 97.0137 46.229 97.6855 46.229C98.3457 46.229 98.8906 46.3813 99.3203 46.686C99.75 46.9907 99.998 47.4028 100.064 47.9224H99.0684C98.998 47.6646 98.8418 47.4614 98.5996 47.313C98.3613 47.1606 98.0547 47.0845 97.6797 47.0845C97.3008 47.0845 96.9824 47.1724 96.7246 47.3481C96.4707 47.5239 96.3438 47.7505 96.3438 48.0278C96.3438 48.2427 96.4316 48.4224 96.6074 48.5669C96.7871 48.7075 97.0645 48.8228 97.4395 48.9126L98.4121 49.147C99.0137 49.2915 99.457 49.5005 99.7422 49.7739C100.031 50.0474 100.176 50.4087 100.176 50.8579C100.176 51.4165 99.9355 51.8755 99.4551 52.2349C98.9746 52.5903 98.3711 52.7681 97.6445 52.7681C96.9414 52.7681 96.3652 52.6118 95.916 52.2993C95.4668 51.9868 95.2148 51.5688 95.1602 51.0454H96.1973C96.2832 51.3188 96.4531 51.5337 96.707 51.6899C96.9609 51.8423 97.2852 51.9185 97.6797 51.9185C98.1055 51.9185 98.4551 51.8267 98.7285 51.6431C99.002 51.4595 99.1387 51.2231 99.1387 50.9341C99.1387 50.5044 98.8047 50.2075 98.1367 50.0435L97.0527 49.7798C96.4551 49.6353 96.0176 49.4282 95.7402 49.1587C95.4668 48.8853 95.3301 48.522 95.3301 48.0688ZM105.168 52.6567V46.3403H106.176V52.6567H105.168ZM106.17 44.8521C106.033 44.9888 105.867 45.0571 105.672 45.0571C105.477 45.0571 105.311 44.9888 105.174 44.8521C105.037 44.7114 104.969 44.5454 104.969 44.354C104.969 44.1626 105.037 43.9985 105.174 43.8618C105.311 43.7212 105.477 43.6509 105.672 43.6509C105.867 43.6509 106.033 43.7212 106.17 43.8618C106.307 43.9985 106.375 44.1626 106.375 44.354C106.375 44.5454 106.307 44.7114 106.17 44.8521ZM108.098 52.6567V46.3403H109.059V47.3364H109.152C109.312 46.9849 109.568 46.7134 109.92 46.522C110.271 46.3267 110.688 46.229 111.168 46.229C111.875 46.229 112.42 46.4321 112.803 46.8384C113.186 47.2407 113.377 47.8169 113.377 48.5669V52.6567H112.369V48.813C112.369 48.2466 112.246 47.8267 112 47.5532C111.758 47.2759 111.385 47.1372 110.881 47.1372C110.326 47.1372 109.891 47.2954 109.574 47.6118C109.262 47.9282 109.105 48.3638 109.105 48.9185V52.6567H108.098ZM120.449 48.2739H119.43C119.344 47.9419 119.158 47.6704 118.873 47.4595C118.592 47.2446 118.234 47.1372 117.801 47.1372C117.234 47.1372 116.783 47.3481 116.447 47.77C116.115 48.1919 115.949 48.7603 115.949 49.4751C115.949 50.2017 116.117 50.7817 116.453 51.2153C116.789 51.645 117.238 51.8599 117.801 51.8599C118.227 51.8599 118.58 51.7642 118.861 51.5728C119.146 51.3813 119.336 51.1079 119.43 50.7524H120.449C120.355 51.3501 120.076 51.8364 119.611 52.2114C119.146 52.5825 118.545 52.7681 117.807 52.7681C116.92 52.7681 116.215 52.4712 115.691 51.8774C115.168 51.2798 114.906 50.479 114.906 49.4751C114.906 48.4907 115.168 47.7036 115.691 47.1138C116.215 46.5239 116.918 46.229 117.801 46.229C118.539 46.229 119.141 46.4224 119.605 46.8091C120.074 47.1958 120.355 47.6841 120.449 48.2739ZM121.996 52.6567V43.8325H123.004V52.6567H121.996ZM130.188 46.3403V52.6567H129.227V51.6665H129.133C128.977 52.0181 128.723 52.2896 128.371 52.481C128.02 52.6724 127.602 52.7681 127.117 52.7681C126.41 52.7681 125.863 52.5649 125.477 52.1587C125.094 51.7524 124.902 51.1763 124.902 50.4302V46.3403H125.91V50.1841C125.91 50.7505 126.031 51.1704 126.273 51.4438C126.52 51.7134 126.895 51.8481 127.398 51.8481C127.957 51.8481 128.393 51.6919 128.705 51.3794C129.021 51.0669 129.18 50.6333 129.18 50.0786V46.3403H130.188ZM134.424 52.7681C133.615 52.7681 132.971 52.4712 132.49 51.8774C132.01 51.2837 131.77 50.4907 131.77 49.4985C131.77 48.5103 132.01 47.7192 132.49 47.1255C132.975 46.5278 133.619 46.229 134.424 46.229C134.865 46.229 135.26 46.3286 135.607 46.5278C135.959 46.7231 136.225 46.9927 136.404 47.3364H136.492V43.8325H137.5V52.6567H136.539V51.6489H136.445C136.246 52.0005 135.969 52.2759 135.613 52.4751C135.258 52.6704 134.861 52.7681 134.424 52.7681ZM134.658 47.1372C134.084 47.1372 133.633 47.3481 133.305 47.77C132.977 48.188 132.812 48.7642 132.812 49.4985C132.812 50.2368 132.975 50.8149 133.299 51.2329C133.627 51.6509 134.08 51.8599 134.658 51.8599C135.232 51.8599 135.686 51.6489 136.018 51.2271C136.35 50.8052 136.516 50.229 136.516 49.4985C136.516 48.7759 136.348 48.2017 136.012 47.7759C135.68 47.3501 135.229 47.1372 134.658 47.1372ZM141.977 47.1196C141.473 47.1196 141.059 47.2896 140.734 47.6294C140.41 47.9692 140.229 48.4185 140.189 48.9771H143.67C143.658 48.4185 143.498 47.9692 143.189 47.6294C142.881 47.2896 142.477 47.1196 141.977 47.1196ZM143.641 51.022H144.648C144.496 51.5688 144.186 51.9966 143.717 52.3052C143.252 52.6138 142.676 52.7681 141.988 52.7681C141.113 52.7681 140.42 52.4751 139.908 51.8892C139.396 51.2993 139.141 50.5044 139.141 49.5044C139.141 48.5083 139.398 47.7134 139.914 47.1196C140.43 46.5259 141.121 46.229 141.988 46.229C142.84 46.229 143.51 46.5122 143.998 47.0786C144.486 47.645 144.73 48.4204 144.73 49.4048V49.7915H140.189V49.8384C140.217 50.4634 140.393 50.9595 140.717 51.3267C141.045 51.6938 141.477 51.8774 142.012 51.8774C142.828 51.8774 143.371 51.5923 143.641 51.022ZM148.65 52.7681C147.842 52.7681 147.197 52.4712 146.717 51.8774C146.236 51.2837 145.996 50.4907 145.996 49.4985C145.996 48.5103 146.236 47.7192 146.717 47.1255C147.201 46.5278 147.846 46.229 148.65 46.229C149.092 46.229 149.486 46.3286 149.834 46.5278C150.186 46.7231 150.451 46.9927 150.631 47.3364H150.719V43.8325H151.727V52.6567H150.766V51.6489H150.672C150.473 52.0005 150.195 52.2759 149.84 52.4751C149.484 52.6704 149.088 52.7681 148.65 52.7681ZM148.885 47.1372C148.311 47.1372 147.859 47.3481 147.531 47.77C147.203 48.188 147.039 48.7642 147.039 49.4985C147.039 50.2368 147.201 50.8149 147.525 51.2329C147.854 51.6509 148.307 51.8599 148.885 51.8599C149.459 51.8599 149.912 51.6489 150.244 51.2271C150.576 50.8052 150.742 50.229 150.742 49.4985C150.742 48.7759 150.574 48.2017 150.238 47.7759C149.906 47.3501 149.455 47.1372 148.885 47.1372Z" fill="black" fill-opacity="0.5"/>
<path d="M23.7285 77.377L22.9551 75.0918H19.7324L18.959 77.377H17.5938L20.6465 68.9219H22.0645L25.1172 77.377H23.7285ZM21.3262 70.3281L20.0664 74.0371H22.6211L21.3613 70.3281H21.3262ZM25.9727 77.377V68.541H27.2441V77.377H25.9727ZM28.6562 77.377V68.541H29.9277V77.377H28.6562ZM39.6895 77.377L38.916 75.0918H35.6934L34.9199 77.377H33.5547L36.6074 68.9219H38.0254L41.0781 77.377H39.6895ZM37.2871 70.3281L36.0273 74.0371H38.582L37.3223 70.3281H37.2871ZM47.1543 73.1875H45.9414C45.8789 72.8359 45.7148 72.5508 45.4492 72.332C45.1875 72.1133 44.8457 72.0039 44.4238 72.0039C43.9082 72.0039 43.4941 72.2031 43.1816 72.6016C42.873 73 42.7188 73.5312 42.7188 74.1953C42.7188 74.875 42.875 75.4102 43.1875 75.8008C43.5 76.1914 43.9141 76.3867 44.4297 76.3867C44.8438 76.3867 45.1816 76.2891 45.4434 76.0938C45.709 75.8945 45.8789 75.6094 45.9531 75.2383H47.166C47.0918 75.9062 46.8066 76.4434 46.3105 76.8496C45.8145 77.252 45.1855 77.4531 44.4238 77.4531C43.5176 77.4531 42.791 77.1602 42.2441 76.5742C41.7012 75.9883 41.4297 75.1953 41.4297 74.1953C41.4297 73.207 41.7012 72.416 42.2441 71.8223C42.7871 71.2285 43.5098 70.9316 44.4121 70.9316C44.8066 70.9316 45.1719 70.9922 45.5078 71.1133C45.8438 71.2305 46.125 71.3926 46.3516 71.5996C46.582 71.8066 46.7656 72.0469 46.9023 72.3203C47.043 72.5898 47.127 72.8789 47.1543 73.1875ZM53.541 73.1875H52.3281C52.2656 72.8359 52.1016 72.5508 51.8359 72.332C51.5742 72.1133 51.2324 72.0039 50.8105 72.0039C50.2949 72.0039 49.8809 72.2031 49.5684 72.6016C49.2598 73 49.1055 73.5312 49.1055 74.1953C49.1055 74.875 49.2617 75.4102 49.5742 75.8008C49.8867 76.1914 50.3008 76.3867 50.8164 76.3867C51.2305 76.3867 51.5684 76.2891 51.8301 76.0938C52.0957 75.8945 52.2656 75.6094 52.3398 75.2383H53.5527C53.4785 75.9062 53.1934 76.4434 52.6973 76.8496C52.2012 77.252 51.5723 77.4531 50.8105 77.4531C49.9043 77.4531 49.1777 77.1602 48.6309 76.5742C48.0879 75.9883 47.8164 75.1953 47.8164 74.1953C47.8164 73.207 48.0879 72.416 48.6309 71.8223C49.1738 71.2285 49.8965 70.9316 50.7988 70.9316C51.1934 70.9316 51.5586 70.9922 51.8945 71.1133C52.2305 71.2305 52.5117 71.3926 52.7383 71.5996C52.9688 71.8066 53.1523 72.0469 53.2891 72.3203C53.4297 72.5898 53.5137 72.8789 53.541 73.1875ZM57.1387 71.9688C56.6816 71.9688 56.3008 72.1211 55.9961 72.4258C55.6953 72.7305 55.5273 73.127 55.4922 73.6152H58.7207C58.7051 73.1191 58.5527 72.7207 58.2637 72.4199C57.9746 72.1191 57.5996 71.9688 57.1387 71.9688ZM58.7148 75.5137H59.9277C59.8379 76.084 59.5391 76.5508 59.0312 76.9141C58.5234 77.2734 57.9121 77.4531 57.1973 77.4531C56.2754 77.4531 55.5449 77.1641 55.0059 76.5859C54.4707 76.0039 54.2031 75.2148 54.2031 74.2188C54.2031 73.2227 54.4707 72.4258 55.0059 71.8281C55.541 71.2305 56.2539 70.9316 57.1445 70.9316C58.0195 70.9316 58.7129 71.2148 59.2246 71.7812C59.7363 72.3438 59.9922 73.1074 59.9922 74.0723V74.5176H55.4863V74.5938C55.4863 75.1445 55.6445 75.5879 55.9609 75.9238C56.2773 76.2559 56.6973 76.4219 57.2207 76.4219C57.5918 76.4219 57.9121 76.3398 58.1816 76.1758C58.4512 76.0117 58.6289 75.791 58.7148 75.5137ZM60.9121 72.8242C60.9121 72.2656 61.1406 71.8125 61.5977 71.4648C62.0547 71.1133 62.6484 70.9375 63.3789 70.9375C64.0742 70.9375 64.6484 71.1152 65.1016 71.4707C65.5586 71.8223 65.7949 72.2754 65.8105 72.8301H64.6152C64.5879 72.5488 64.4609 72.3262 64.2344 72.1621C64.0078 71.998 63.7129 71.916 63.3496 71.916C62.9902 71.916 62.6992 71.9941 62.4766 72.1504C62.2578 72.3027 62.1484 72.5039 62.1484 72.7539C62.1484 73.1367 62.4785 73.4082 63.1387 73.5684L64.1934 73.8203C64.834 73.9766 65.2871 74.1836 65.5527 74.4414C65.8184 74.6992 65.9512 75.0625 65.9512 75.5312C65.9512 76.0977 65.707 76.5605 65.2188 76.9199C64.7305 77.2754 64.1016 77.4531 63.332 77.4531C62.5938 77.4531 61.9883 77.2793 61.5156 76.9316C61.0469 76.5801 60.7891 76.1152 60.7422 75.5371H61.9961C62.0469 75.8418 62.1914 76.0762 62.4297 76.2402C62.6719 76.4004 62.9941 76.4805 63.3965 76.4805C63.791 76.4805 64.1035 76.4043 64.334 76.252C64.5684 76.0996 64.6855 75.8945 64.6855 75.6367C64.6855 75.4336 64.6152 75.2734 64.4746 75.1562C64.3379 75.0391 64.1016 74.9375 63.7656 74.8516L62.6289 74.5703C61.4844 74.2891 60.9121 73.707 60.9121 72.8242ZM66.877 72.8242C66.877 72.2656 67.1055 71.8125 67.5625 71.4648C68.0195 71.1133 68.6133 70.9375 69.3438 70.9375C70.0391 70.9375 70.6133 71.1152 71.0664 71.4707C71.5234 71.8223 71.7598 72.2754 71.7754 72.8301H70.5801C70.5527 72.5488 70.4258 72.3262 70.1992 72.1621C69.9727 71.998 69.6777 71.916 69.3145 71.916C68.9551 71.916 68.6641 71.9941 68.4414 72.1504C68.2227 72.3027 68.1133 72.5039 68.1133 72.7539C68.1133 73.1367 68.4434 73.4082 69.1035 73.5684L70.1582 73.8203C70.7988 73.9766 71.252 74.1836 71.5176 74.4414C71.7832 74.6992 71.916 75.0625 71.916 75.5312C71.916 76.0977 71.6719 76.5605 71.1836 76.9199C70.6953 77.2754 70.0664 77.4531 69.2969 77.4531C68.5586 77.4531 67.9531 77.2793 67.4805 76.9316C67.0117 76.5801 66.7539 76.1152 66.707 75.5371H67.9609C68.0117 75.8418 68.1562 76.0762 68.3945 76.2402C68.6367 76.4004 68.959 76.4805 69.3613 76.4805C69.7559 76.4805 70.0684 76.4043 70.2988 76.252C70.5332 76.0996 70.6504 75.8945 70.6504 75.6367C70.6504 75.4336 70.5801 75.2734 70.4395 75.1562C70.3027 75.0391 70.0664 74.9375 69.7305 74.8516L68.5938 74.5703C67.4492 74.2891 66.877 73.707 66.877 72.8242Z" fill="#9B9DA5"/>
<g clip-path="url(#clip0_1511_26340)">
<rect x="253.227" y="66.7103" width="24" height="13.3333" rx="6.66667" fill="#E4E4E7"/>
<g filter="url(#filter1_d_1511_26340)">
<circle cx="259.896" cy="73.3769" r="5.33333" fill="white"/>
</g>
</g>
<rect x="17.8614" y="88.5172" width="260.16" height="27.16" rx="6.3002" stroke="#D6DAE1" stroke-width="0.840027"/>
<path d="M28.3027 97.6421H31.6133C32.4336 97.6421 33.1035 97.8999 33.623 98.4155C34.1426 98.9312 34.4023 99.5991 34.4023 100.419C34.4023 101.244 34.1387 101.916 33.6113 102.435C33.084 102.951 32.4043 103.208 31.5723 103.208H29.6152V106.097H28.3027V97.6421ZM29.6152 98.7495V102.107H31.2676C31.8379 102.107 32.2793 101.96 32.5918 101.667C32.9043 101.371 33.0605 100.957 33.0605 100.425C33.0605 99.8901 32.9043 99.478 32.5918 99.189C32.2793 98.896 31.8379 98.7495 31.2676 98.7495H29.6152ZM35.4277 106.097V99.7339H36.6406V100.806H36.6641C36.7617 100.451 36.9473 100.173 37.2207 99.9741C37.498 99.771 37.8242 99.6694 38.1992 99.6694C38.375 99.6694 38.5156 99.6851 38.6211 99.7163V100.906C38.4805 100.851 38.2949 100.824 38.0645 100.824C37.6465 100.824 37.3145 100.958 37.0684 101.228C36.8223 101.494 36.6992 101.851 36.6992 102.3V106.097H35.4277ZM44.1055 105.294C43.5664 105.88 42.8359 106.173 41.9141 106.173C40.9922 106.173 40.2598 105.88 39.7168 105.294C39.1738 104.708 38.9023 103.916 38.9023 102.916C38.9023 101.919 39.1738 101.126 39.7168 100.537C40.2637 99.9468 40.9961 99.6519 41.9141 99.6519C42.832 99.6519 43.5625 99.9468 44.1055 100.537C44.6484 101.123 44.9199 101.916 44.9199 102.916C44.9199 103.916 44.6484 104.708 44.1055 105.294ZM40.6484 104.539C40.9531 104.925 41.375 105.119 41.9141 105.119C42.4531 105.119 42.873 104.925 43.1738 104.539C43.4785 104.152 43.6309 103.611 43.6309 102.916C43.6309 102.22 43.4785 101.679 43.1738 101.292C42.873 100.902 42.4531 100.707 41.9141 100.707C41.375 100.707 40.9531 100.902 40.6484 101.292C40.3438 101.683 40.1914 102.224 40.1914 102.916C40.1914 103.607 40.3438 104.148 40.6484 104.539ZM48.3359 106.162C47.5352 106.162 46.8867 105.865 46.3906 105.271C45.8984 104.677 45.6523 103.89 45.6523 102.91C45.6523 101.937 45.8984 101.154 46.3906 100.56C46.8867 99.9663 47.5312 99.6694 48.3242 99.6694C48.7773 99.6694 49.1777 99.769 49.5254 99.9683C49.877 100.164 50.1445 100.437 50.3281 100.789H50.3574V97.2612H51.623V106.097H50.3926V105.019H50.3691C50.1816 105.382 49.9102 105.664 49.5547 105.863C49.2031 106.062 48.7969 106.162 48.3359 106.162ZM48.6582 100.748C48.1465 100.748 47.7344 100.945 47.4219 101.339C47.1094 101.734 46.9531 102.259 46.9531 102.916C46.9531 103.576 47.1074 104.103 47.416 104.498C47.7285 104.888 48.1426 105.083 48.6582 105.083C49.1699 105.083 49.582 104.884 49.8945 104.486C50.207 104.087 50.3633 103.564 50.3633 102.916C50.3633 102.267 50.2051 101.744 49.8887 101.345C49.5762 100.947 49.166 100.748 48.6582 100.748ZM58.5137 99.7339V106.097H57.3008V105.007H57.2773C57.0938 105.386 56.8262 105.675 56.4746 105.875C56.123 106.07 55.7051 106.167 55.2207 106.167C54.5254 106.167 53.9707 105.957 53.5566 105.535C53.1465 105.113 52.9414 104.539 52.9414 103.812V99.7339H54.2129V103.572C54.2129 104.06 54.3379 104.433 54.5879 104.691C54.8379 104.945 55.1934 105.072 55.6543 105.072C56.1309 105.072 56.5137 104.919 56.8027 104.615C57.0957 104.31 57.2422 103.906 57.2422 103.402V99.7339H58.5137ZM65.252 101.908H64.0391C63.9766 101.556 63.8125 101.271 63.5469 101.052C63.2852 100.833 62.9434 100.724 62.5215 100.724C62.0059 100.724 61.5918 100.923 61.2793 101.322C60.9707 101.72 60.8164 102.251 60.8164 102.916C60.8164 103.595 60.9727 104.13 61.2852 104.521C61.5977 104.912 62.0117 105.107 62.5273 105.107C62.9414 105.107 63.2793 105.009 63.541 104.814C63.8066 104.615 63.9766 104.33 64.0508 103.958H65.2637C65.1895 104.626 64.9043 105.164 64.4082 105.57C63.9121 105.972 63.2832 106.173 62.5215 106.173C61.6152 106.173 60.8887 105.88 60.3418 105.294C59.7988 104.708 59.5273 103.916 59.5273 102.916C59.5273 101.927 59.7988 101.136 60.3418 100.542C60.8848 99.9487 61.6074 99.6519 62.5098 99.6519C62.9043 99.6519 63.2695 99.7124 63.6055 99.8335C63.9414 99.9507 64.2227 100.113 64.4492 100.32C64.6797 100.527 64.8633 100.767 65 101.041C65.1406 101.31 65.2246 101.599 65.252 101.908ZM66.582 98.3042H67.8477V99.7339H69.0664V100.736H67.8477V104.292C67.8477 104.57 67.9102 104.775 68.0352 104.908C68.1641 105.037 68.3613 105.101 68.627 105.101C68.7793 105.101 68.9238 105.091 69.0605 105.072V106.074C68.8887 106.117 68.6504 106.138 68.3457 106.138C67.709 106.138 67.2559 106.007 66.9863 105.746C66.7168 105.48 66.582 105.039 66.582 104.421V100.736H65.7031V99.7339H66.582V98.3042ZM76.4902 106.097H75.1777V98.7729H72.541V97.6421H79.1211V98.7729H76.4902V106.097ZM80.0703 108.412C79.8594 108.412 79.6875 108.4 79.5547 108.376V107.345C79.6328 107.365 79.7676 107.375 79.959 107.375C80.2637 107.375 80.5039 107.302 80.6797 107.158C80.8594 107.017 81.0039 106.779 81.1133 106.443L81.2129 106.115L78.9043 99.7339H80.2695L81.9043 104.937H81.9336L83.5684 99.7339H84.9043L82.5195 106.39C82.2461 107.152 81.9316 107.679 81.5762 107.972C81.2246 108.265 80.7227 108.412 80.0703 108.412ZM88.959 99.6694C89.7715 99.6694 90.4219 99.9644 90.9102 100.554C91.4023 101.144 91.6484 101.931 91.6484 102.916C91.6484 103.896 91.4043 104.683 90.916 105.277C90.4316 105.867 89.7891 106.162 88.9883 106.162C88.5312 106.162 88.1289 106.066 87.7812 105.875C87.4336 105.679 87.1641 105.406 86.9727 105.054H86.9492V108.177H85.6777V99.7339H86.9023V100.789H86.9316C87.1113 100.445 87.3828 100.173 87.7461 99.9741C88.1133 99.771 88.5176 99.6694 88.959 99.6694ZM88.6367 105.083C89.1523 105.083 89.5664 104.886 89.8789 104.492C90.1914 104.097 90.3477 103.572 90.3477 102.916C90.3477 102.259 90.1914 101.734 89.8789 101.339C89.5664 100.945 89.1523 100.748 88.6367 100.748C88.1328 100.748 87.7246 100.947 87.4121 101.345C87.0996 101.744 86.9414 102.267 86.9375 102.916C86.9414 103.568 87.0977 104.093 87.4062 104.492C87.7188 104.886 88.1289 105.083 88.6367 105.083ZM95.3105 100.689C94.8535 100.689 94.4727 100.841 94.168 101.146C93.8672 101.451 93.6992 101.847 93.6641 102.335H96.8926C96.877 101.839 96.7246 101.441 96.4355 101.14C96.1465 100.839 95.7715 100.689 95.3105 100.689ZM96.8867 104.234H98.0996C98.0098 104.804 97.7109 105.271 97.2031 105.634C96.6953 105.994 96.084 106.173 95.3691 106.173C94.4473 106.173 93.7168 105.884 93.1777 105.306C92.6426 104.724 92.375 103.935 92.375 102.939C92.375 101.943 92.6426 101.146 93.1777 100.548C93.7129 99.9507 94.4258 99.6519 95.3164 99.6519C96.1914 99.6519 96.8848 99.9351 97.3965 100.501C97.9082 101.064 98.1641 101.828 98.1641 102.792V103.238H93.6582V103.314C93.6582 103.865 93.8164 104.308 94.1328 104.644C94.4492 104.976 94.8691 105.142 95.3926 105.142C95.7637 105.142 96.084 105.06 96.3535 104.896C96.623 104.732 96.8008 104.511 96.8867 104.234Z" fill="#3C4350"/>
<path d="M260.736 105.357C260.57 105.357 260.421 105.293 260.29 105.166L255.21 99.9688C255.153 99.912 255.109 99.8485 255.079 99.7785C255.048 99.7041 255.033 99.6254 255.033 99.5423C255.033 99.4285 255.059 99.3257 255.112 99.2338C255.164 99.1419 255.234 99.0697 255.322 99.0172C255.414 98.9647 255.516 98.9385 255.63 98.9385C255.796 98.9385 255.939 98.9954 256.057 99.1091L261.084 104.248H260.381L265.409 99.1091C265.531 98.9954 265.673 98.9385 265.835 98.9385C265.949 98.9385 266.049 98.9647 266.137 99.0172C266.229 99.0697 266.301 99.1419 266.354 99.2338C266.406 99.3257 266.432 99.4285 266.432 99.5423C266.432 99.7041 266.373 99.8441 266.255 99.9623L261.176 105.166C261.119 105.228 261.051 105.276 260.972 105.311C260.898 105.342 260.819 105.357 260.736 105.357Z" fill="#464F5E"/>
<rect x="17.8614" y="123.237" width="260.16" height="27.16" rx="6.3002" stroke="#D6DAE1" stroke-width="0.840027"/>
<path d="M31.7598 140.817H30.4473V133.493H27.8105V132.362H34.3906V133.493H31.7598V140.817ZM36.7754 135.409C36.3184 135.409 35.9375 135.562 35.6328 135.866C35.332 136.171 35.1641 136.567 35.1289 137.056H38.3574C38.3418 136.56 38.1895 136.161 37.9004 135.86C37.6113 135.56 37.2363 135.409 36.7754 135.409ZM38.3516 138.954H39.5645C39.4746 139.524 39.1758 139.991 38.668 140.354C38.1602 140.714 37.5488 140.894 36.834 140.894C35.9121 140.894 35.1816 140.604 34.6426 140.026C34.1074 139.444 33.8398 138.655 33.8398 137.659C33.8398 136.663 34.1074 135.866 34.6426 135.269C35.1777 134.671 35.8906 134.372 36.7812 134.372C37.6562 134.372 38.3496 134.655 38.8613 135.222C39.373 135.784 39.6289 136.548 39.6289 137.513V137.958H35.123V138.034C35.123 138.585 35.2812 139.028 35.5977 139.364C35.9141 139.696 36.334 139.862 36.8574 139.862C37.2285 139.862 37.5488 139.78 37.8184 139.616C38.0879 139.452 38.2656 139.231 38.3516 138.954ZM40.6543 140.817V134.454H41.8672V135.532H41.8906C42.0352 135.177 42.2676 134.897 42.5879 134.694C42.9121 134.487 43.2832 134.384 43.7012 134.384C44.1426 134.384 44.5176 134.491 44.8262 134.706C45.1348 134.921 45.3535 135.226 45.4824 135.62H45.5117C45.6797 135.237 45.9395 134.937 46.291 134.718C46.6465 134.495 47.0508 134.384 47.5039 134.384C48.1328 134.384 48.6348 134.575 49.0098 134.958C49.3887 135.337 49.5781 135.845 49.5781 136.481V140.817H48.3125V136.786C48.3125 136.368 48.2031 136.046 47.9844 135.819C47.7695 135.589 47.4648 135.474 47.0703 135.474C46.6797 135.474 46.3594 135.604 46.1094 135.866C45.8633 136.128 45.7402 136.462 45.7402 136.868V140.817H44.4922V136.681C44.4922 136.313 44.3809 136.021 44.1582 135.802C43.9395 135.583 43.6445 135.474 43.2734 135.474C42.8828 135.474 42.5605 135.61 42.3066 135.884C42.0527 136.153 41.9258 136.497 41.9258 136.915V140.817H40.6543ZM54.1309 134.39C54.9434 134.39 55.5938 134.685 56.082 135.274C56.5742 135.864 56.8203 136.651 56.8203 137.636C56.8203 138.616 56.5762 139.403 56.0879 139.997C55.6035 140.587 54.9609 140.882 54.1602 140.882C53.7031 140.882 53.3008 140.786 52.9531 140.595C52.6055 140.399 52.3359 140.126 52.1445 139.774H52.1211V142.897H50.8496V134.454H52.0742V135.509H52.1035C52.2832 135.165 52.5547 134.894 52.918 134.694C53.2852 134.491 53.6895 134.39 54.1309 134.39ZM53.8086 139.804C54.3242 139.804 54.7383 139.606 55.0508 139.212C55.3633 138.817 55.5195 138.292 55.5195 137.636C55.5195 136.979 55.3633 136.454 55.0508 136.06C54.7383 135.665 54.3242 135.468 53.8086 135.468C53.3047 135.468 52.8965 135.667 52.584 136.065C52.2715 136.464 52.1133 136.987 52.1094 137.636C52.1133 138.288 52.2695 138.813 52.5781 139.212C52.8906 139.606 53.3008 139.804 53.8086 139.804ZM57.8867 140.817V131.981H59.1582V140.817H57.8867ZM62.7266 139.868C63.1992 139.868 63.5938 139.733 63.9102 139.464C64.2266 139.19 64.3848 138.845 64.3848 138.427V137.929L62.8379 138.034C61.959 138.089 61.5195 138.401 61.5195 138.972C61.5195 139.245 61.6289 139.464 61.8477 139.628C62.0664 139.788 62.3594 139.868 62.7266 139.868ZM62.3867 140.882C61.75 140.882 61.2324 140.71 60.834 140.366C60.4355 140.019 60.2363 139.562 60.2363 138.995C60.2363 138.44 60.4434 138.005 60.8574 137.688C61.2754 137.372 61.8789 137.188 62.668 137.138L64.3848 137.038V136.546C64.3848 136.183 64.2676 135.905 64.0332 135.714C63.8027 135.519 63.4746 135.421 63.0488 135.421C62.7051 135.421 62.4141 135.503 62.1758 135.667C61.9414 135.831 61.7969 136.052 61.7422 136.329H60.5527C60.5723 135.767 60.8203 135.3 61.2969 134.929C61.7734 134.558 62.3691 134.372 63.084 134.372C63.8613 134.372 64.4805 134.562 64.9414 134.94C65.4062 135.319 65.6387 135.823 65.6387 136.452V140.817H64.4258V139.757H64.3965C64.2207 140.101 63.9512 140.374 63.5879 140.577C63.2246 140.78 62.8242 140.882 62.3867 140.882ZM67.2969 133.024H68.5625V134.454H69.7812V135.456H68.5625V139.013C68.5625 139.29 68.625 139.495 68.75 139.628C68.8789 139.757 69.0762 139.821 69.3418 139.821C69.4941 139.821 69.6387 139.812 69.7754 139.792V140.794C69.6035 140.837 69.3652 140.858 69.0605 140.858C68.4238 140.858 67.9707 140.728 67.7012 140.466C67.4316 140.2 67.2969 139.759 67.2969 139.142V135.456H66.418V134.454H67.2969V133.024ZM73.3496 135.409C72.8926 135.409 72.5117 135.562 72.207 135.866C71.9062 136.171 71.7383 136.567 71.7031 137.056H74.9316C74.916 136.56 74.7637 136.161 74.4746 135.86C74.1855 135.56 73.8105 135.409 73.3496 135.409ZM74.9258 138.954H76.1387C76.0488 139.524 75.75 139.991 75.2422 140.354C74.7344 140.714 74.123 140.894 73.4082 140.894C72.4863 140.894 71.7559 140.604 71.2168 140.026C70.6816 139.444 70.4141 138.655 70.4141 137.659C70.4141 136.663 70.6816 135.866 71.2168 135.269C71.752 134.671 72.4648 134.372 73.3555 134.372C74.2305 134.372 74.9238 134.655 75.4355 135.222C75.9473 135.784 76.2031 136.548 76.2031 137.513V137.958H71.6973V138.034C71.6973 138.585 71.8555 139.028 72.1719 139.364C72.4883 139.696 72.9082 139.862 73.4316 139.862C73.8027 139.862 74.123 139.78 74.3926 139.616C74.6621 139.452 74.8398 139.231 74.9258 138.954Z" fill="#3C4350"/>
<path d="M260.736 140.077C260.57 140.077 260.421 140.014 260.29 139.887L255.21 134.689C255.153 134.632 255.109 134.569 255.079 134.499C255.048 134.424 255.033 134.346 255.033 134.262C255.033 134.149 255.059 134.046 255.112 133.954C255.164 133.862 255.234 133.79 255.322 133.737C255.414 133.685 255.516 133.659 255.63 133.659C255.796 133.659 255.939 133.716 256.057 133.829L261.084 138.968H260.381L265.409 133.829C265.531 133.716 265.673 133.659 265.835 133.659C265.949 133.659 266.049 133.685 266.137 133.737C266.229 133.79 266.301 133.862 266.354 133.954C266.406 134.046 266.432 134.149 266.432 134.262C266.432 134.424 266.373 134.564 266.255 134.682L261.176 139.887C261.119 139.948 261.051 139.996 260.972 140.031C260.898 140.062 260.819 140.077 260.736 140.077Z" fill="#464F5E"/>
<rect x="17.8614" y="157.958" width="260.16" height="27.16" rx="6.3002" stroke="#D6DAE1" stroke-width="0.840027"/>
<path d="M32.1992 175.538V173.868H27.9688V172.719C28.6484 171.438 29.8457 169.559 31.5605 167.083H33.459V172.766H34.6191V173.868H33.459V175.538H32.1992ZM29.1934 172.754V172.784H32.2109V168.096H32.1875C30.7891 170.116 29.791 171.668 29.1934 172.754ZM35.5625 169.561C35.5625 168.799 35.8359 168.17 36.3828 167.674C36.9336 167.174 37.6289 166.924 38.4688 166.924C39.2734 166.924 39.9434 167.151 40.4785 167.604C41.0137 168.057 41.2812 168.62 41.2812 169.292C41.2812 169.764 41.1504 170.213 40.8887 170.639C40.627 171.061 40.1699 171.606 39.5176 172.274L37.4023 174.401V174.43H41.416V175.538H35.6328V174.647L38.6855 171.536C39.2012 170.997 39.5469 170.583 39.7227 170.293C39.8984 170 39.9863 169.688 39.9863 169.356C39.9863 168.981 39.8359 168.663 39.5352 168.401C39.2344 168.139 38.8652 168.008 38.4277 168.008C37.9668 168.008 37.5801 168.157 37.2676 168.454C36.959 168.747 36.8047 169.114 36.8047 169.555V169.573H35.5625V169.561ZM46.7832 175.538H45.4707V167.083H46.7832V175.538ZM48.5938 167.745H49.8594V169.174H51.0781V170.176H49.8594V173.733C49.8594 174.01 49.9219 174.215 50.0469 174.348C50.1758 174.477 50.373 174.542 50.6387 174.542C50.791 174.542 50.9355 174.532 51.0723 174.512V175.514C50.9004 175.557 50.6621 175.579 50.3574 175.579C49.7207 175.579 49.2676 175.448 48.998 175.186C48.7285 174.92 48.5938 174.479 48.5938 173.862V170.176H47.7148V169.174H48.5938V167.745ZM54.6465 170.129C54.1895 170.129 53.8086 170.282 53.5039 170.586C53.2031 170.891 53.0352 171.288 53 171.776H56.2285C56.2129 171.28 56.0605 170.881 55.7715 170.581C55.4824 170.28 55.1074 170.129 54.6465 170.129ZM56.2227 173.674H57.4355C57.3457 174.245 57.0469 174.711 56.5391 175.075C56.0312 175.434 55.4199 175.614 54.7051 175.614C53.7832 175.614 53.0527 175.325 52.5137 174.747C51.9785 174.165 51.7109 173.375 51.7109 172.379C51.7109 171.383 51.9785 170.586 52.5137 169.989C53.0488 169.391 53.7617 169.092 54.6523 169.092C55.5273 169.092 56.2207 169.375 56.7324 169.942C57.2441 170.504 57.5 171.268 57.5 172.233V172.678H52.9941V172.754C52.9941 173.305 53.1523 173.749 53.4688 174.084C53.7852 174.417 54.2051 174.583 54.7285 174.583C55.0996 174.583 55.4199 174.5 55.6895 174.336C55.959 174.172 56.1367 173.952 56.2227 173.674ZM58.5254 175.538V169.174H59.7383V170.252H59.7617C59.9062 169.897 60.1387 169.618 60.459 169.415C60.7832 169.208 61.1543 169.104 61.5723 169.104C62.0137 169.104 62.3887 169.211 62.6973 169.426C63.0059 169.641 63.2246 169.946 63.3535 170.34H63.3828C63.5508 169.958 63.8105 169.657 64.1621 169.438C64.5176 169.215 64.9219 169.104 65.375 169.104C66.0039 169.104 66.5059 169.295 66.8809 169.678C67.2598 170.057 67.4492 170.565 67.4492 171.202V175.538H66.1836V171.506C66.1836 171.088 66.0742 170.766 65.8555 170.54C65.6406 170.309 65.3359 170.194 64.9414 170.194C64.5508 170.194 64.2305 170.325 63.9805 170.586C63.7344 170.848 63.6113 171.182 63.6113 171.588V175.538H62.3633V171.401C62.3633 171.034 62.252 170.741 62.0293 170.522C61.8105 170.303 61.5156 170.194 61.1445 170.194C60.7539 170.194 60.4316 170.331 60.1777 170.604C59.9238 170.874 59.7969 171.217 59.7969 171.635V175.538H58.5254ZM68.6152 170.985C68.6152 170.426 68.8438 169.973 69.3008 169.625C69.7578 169.274 70.3516 169.098 71.082 169.098C71.7773 169.098 72.3516 169.276 72.8047 169.631C73.2617 169.983 73.498 170.436 73.5137 170.991H72.3184C72.291 170.709 72.1641 170.487 71.9375 170.323C71.7109 170.159 71.416 170.077 71.0527 170.077C70.6934 170.077 70.4023 170.155 70.1797 170.311C69.9609 170.463 69.8516 170.665 69.8516 170.915C69.8516 171.297 70.1816 171.569 70.8418 171.729L71.8965 171.981C72.5371 172.137 72.9902 172.344 73.2559 172.602C73.5215 172.86 73.6543 173.223 73.6543 173.692C73.6543 174.258 73.4102 174.721 72.9219 175.081C72.4336 175.436 71.8047 175.614 71.0352 175.614C70.2969 175.614 69.6914 175.44 69.2188 175.092C68.75 174.741 68.4922 174.276 68.4453 173.698H69.6992C69.75 174.002 69.8945 174.237 70.1328 174.401C70.375 174.561 70.6973 174.641 71.0996 174.641C71.4941 174.641 71.8066 174.565 72.0371 174.413C72.2715 174.26 72.3887 174.055 72.3887 173.797C72.3887 173.594 72.3184 173.434 72.1777 173.317C72.041 173.2 71.8047 173.098 71.4688 173.012L70.332 172.731C69.1875 172.45 68.6152 171.868 68.6152 170.985ZM77.2051 173.182H78.5C78.5469 173.6 78.7559 173.936 79.127 174.19C79.498 174.444 79.9629 174.571 80.5215 174.571C81.0527 174.571 81.4902 174.448 81.834 174.202C82.1816 173.956 82.3555 173.643 82.3555 173.264C82.3555 172.936 82.2324 172.668 81.9863 172.461C81.7402 172.25 81.3438 172.079 80.7969 171.946L79.7012 171.682C78.9238 171.495 78.3496 171.215 77.9785 170.844C77.6113 170.473 77.4277 169.993 77.4277 169.403C77.4277 168.676 77.7129 168.084 78.2832 167.627C78.8574 167.17 79.5977 166.942 80.5039 166.942C81.3945 166.942 82.1211 167.17 82.6836 167.627C83.2461 168.081 83.5371 168.672 83.5566 169.403H82.2793C82.2402 168.985 82.0586 168.655 81.7344 168.413C81.4141 168.17 80.998 168.049 80.4863 168.049C79.9785 168.049 79.5645 168.167 79.2441 168.401C78.9277 168.635 78.7695 168.94 78.7695 169.315C78.7695 169.612 78.8887 169.856 79.127 170.047C79.3652 170.235 79.7578 170.397 80.3047 170.534L81.2363 170.762C82.1035 170.965 82.7285 171.252 83.1113 171.624C83.498 171.991 83.6914 172.485 83.6914 173.106C83.6914 173.895 83.3984 174.522 82.8125 174.987C82.2266 175.448 81.4316 175.678 80.4277 175.678C79.4863 175.678 78.7227 175.454 78.1367 175.004C77.5547 174.551 77.2441 173.944 77.2051 173.182ZM87.3887 170.129C86.9316 170.129 86.5508 170.282 86.2461 170.586C85.9453 170.891 85.7773 171.288 85.7422 171.776H88.9707C88.9551 171.28 88.8027 170.881 88.5137 170.581C88.2246 170.28 87.8496 170.129 87.3887 170.129ZM88.9648 173.674H90.1777C90.0879 174.245 89.7891 174.711 89.2812 175.075C88.7734 175.434 88.1621 175.614 87.4473 175.614C86.5254 175.614 85.7949 175.325 85.2559 174.747C84.7207 174.165 84.4531 173.375 84.4531 172.379C84.4531 171.383 84.7207 170.586 85.2559 169.989C85.791 169.391 86.5039 169.092 87.3945 169.092C88.2695 169.092 88.9629 169.375 89.4746 169.942C89.9863 170.504 90.2422 171.268 90.2422 172.233V172.678H85.7363V172.754C85.7363 173.305 85.8945 173.749 86.2109 174.084C86.5273 174.417 86.9473 174.583 87.4707 174.583C87.8418 174.583 88.1621 174.5 88.4316 174.336C88.7012 174.172 88.8789 173.952 88.9648 173.674ZM91.3203 175.538V166.702H92.5918V175.538H91.3203ZM96.5996 170.129C96.1426 170.129 95.7617 170.282 95.457 170.586C95.1562 170.891 94.9883 171.288 94.9531 171.776H98.1816C98.166 171.28 98.0137 170.881 97.7246 170.581C97.4355 170.28 97.0605 170.129 96.5996 170.129ZM98.1758 173.674H99.3887C99.2988 174.245 99 174.711 98.4922 175.075C97.9844 175.434 97.373 175.614 96.6582 175.614C95.7363 175.614 95.0059 175.325 94.4668 174.747C93.9316 174.165 93.6641 173.375 93.6641 172.379C93.6641 171.383 93.9316 170.586 94.4668 169.989C95.002 169.391 95.7148 169.092 96.6055 169.092C97.4805 169.092 98.1738 169.375 98.6855 169.942C99.1973 170.504 99.4531 171.268 99.4531 172.233V172.678H94.9473V172.754C94.9473 173.305 95.1055 173.749 95.4219 174.084C95.7383 174.417 96.1582 174.583 96.6816 174.583C97.0527 174.583 97.373 174.5 97.6426 174.336C97.9121 174.172 98.0898 173.952 98.1758 173.674ZM105.916 171.348H104.703C104.641 170.997 104.477 170.711 104.211 170.493C103.949 170.274 103.607 170.165 103.186 170.165C102.67 170.165 102.256 170.364 101.943 170.762C101.635 171.161 101.48 171.692 101.48 172.356C101.48 173.036 101.637 173.571 101.949 173.961C102.262 174.352 102.676 174.547 103.191 174.547C103.605 174.547 103.943 174.45 104.205 174.254C104.471 174.055 104.641 173.77 104.715 173.399H105.928C105.854 174.067 105.568 174.604 105.072 175.01C104.576 175.413 103.947 175.614 103.186 175.614C102.279 175.614 101.553 175.321 101.006 174.735C100.463 174.149 100.191 173.356 100.191 172.356C100.191 171.368 100.463 170.577 101.006 169.983C101.549 169.389 102.271 169.092 103.174 169.092C103.568 169.092 103.934 169.153 104.27 169.274C104.605 169.391 104.887 169.553 105.113 169.76C105.344 169.967 105.527 170.208 105.664 170.481C105.805 170.75 105.889 171.04 105.916 171.348ZM107.246 167.745H108.512V169.174H109.73V170.176H108.512V173.733C108.512 174.01 108.574 174.215 108.699 174.348C108.828 174.477 109.025 174.542 109.291 174.542C109.443 174.542 109.588 174.532 109.725 174.512V175.514C109.553 175.557 109.314 175.579 109.01 175.579C108.373 175.579 107.92 175.448 107.65 175.186C107.381 174.92 107.246 174.479 107.246 173.862V170.176H106.367V169.174H107.246V167.745ZM113.299 170.129C112.842 170.129 112.461 170.282 112.156 170.586C111.855 170.891 111.688 171.288 111.652 171.776H114.881C114.865 171.28 114.713 170.881 114.424 170.581C114.135 170.28 113.76 170.129 113.299 170.129ZM114.875 173.674H116.088C115.998 174.245 115.699 174.711 115.191 175.075C114.684 175.434 114.072 175.614 113.357 175.614C112.436 175.614 111.705 175.325 111.166 174.747C110.631 174.165 110.363 173.375 110.363 172.379C110.363 171.383 110.631 170.586 111.166 169.989C111.701 169.391 112.414 169.092 113.305 169.092C114.18 169.092 114.873 169.375 115.385 169.942C115.896 170.504 116.152 171.268 116.152 172.233V172.678H111.646V172.754C111.646 173.305 111.805 173.749 112.121 174.084C112.438 174.417 112.857 174.583 113.381 174.583C113.752 174.583 114.072 174.5 114.342 174.336C114.611 174.172 114.789 173.952 114.875 173.674ZM119.574 175.602C118.773 175.602 118.125 175.305 117.629 174.711C117.137 174.118 116.891 173.331 116.891 172.35C116.891 171.377 117.137 170.594 117.629 170C118.125 169.407 118.77 169.11 119.562 169.11C120.016 169.11 120.416 169.209 120.764 169.409C121.115 169.604 121.383 169.877 121.566 170.229H121.596V166.702H122.861V175.538H121.631V174.459H121.607C121.42 174.823 121.148 175.104 120.793 175.303C120.441 175.502 120.035 175.602 119.574 175.602ZM119.896 170.188C119.385 170.188 118.973 170.385 118.66 170.78C118.348 171.174 118.191 171.7 118.191 172.356C118.191 173.016 118.346 173.543 118.654 173.938C118.967 174.329 119.381 174.524 119.896 174.524C120.408 174.524 120.82 174.325 121.133 173.926C121.445 173.528 121.602 173.004 121.602 172.356C121.602 171.708 121.443 171.184 121.127 170.786C120.814 170.387 120.404 170.188 119.896 170.188Z" fill="#3C4350"/>
<path d="M260.736 174.797C260.57 174.797 260.421 174.734 260.29 174.607L255.21 169.409C255.153 169.352 255.109 169.289 255.079 169.219C255.048 169.145 255.033 169.066 255.033 168.983C255.033 168.869 255.059 168.766 255.112 168.674C255.164 168.582 255.234 168.51 255.322 168.458C255.414 168.405 255.516 168.379 255.63 168.379C255.796 168.379 255.939 168.436 256.057 168.55L261.084 173.688H260.381L265.409 168.55C265.531 168.436 265.673 168.379 265.835 168.379C265.949 168.379 266.049 168.405 266.137 168.458C266.229 168.51 266.301 168.582 266.354 168.674C266.406 168.766 266.432 168.869 266.432 168.983C266.432 169.145 266.373 169.285 266.255 169.403L261.176 174.607C261.119 174.668 261.051 174.716 260.972 174.751C260.898 174.782 260.819 174.797 260.736 174.797Z" fill="#464F5E"/>
</g>
<defs>
<filter id="filter0_dddd_1511_26340" x="0" y="0.216309" width="345" height="236.762" filterUnits="userSpaceOnUse" color-interpolation-filters="sRGB">
<feFlood flood-opacity="0" result="BackgroundImageFix"/>
<feColorMatrix in="SourceAlpha" type="matrix" values="0 0 0 0 0 0 0 0 0 0 0 0 0 0 0 0 0 0 127 0" result="hardAlpha"/>
<feOffset dx="2" dy="1"/>
<feGaussianBlur stdDeviation="3"/>
<feColorMatrix type="matrix" values="0 0 0 0 0.85098 0 0 0 0 0.85098 0 0 0 0 0.85098 0 0 0 0.1 0"/>
<feBlend mode="normal" in2="BackgroundImageFix" result="effect1_dropShadow_1511_26340"/>
<feColorMatrix in="SourceAlpha" type="matrix" values="0 0 0 0 0 0 0 0 0 0 0 0 0 0 0 0 0 0 127 0" result="hardAlpha"/>
<feOffset dx="9" dy="5"/>
<feGaussianBlur stdDeviation="5"/>
<feColorMatrix type="matrix" values="0 0 0 0 0.85098 0 0 0 0 0.85098 0 0 0 0 0.85098 0 0 0 0.09 0"/>
<feBlend mode="normal" in2="effect1_dropShadow_1511_26340" result="effect2_dropShadow_1511_26340"/>
<feColorMatrix in="SourceAlpha" type="matrix" values="0 0 0 0 0 0 0 0 0 0 0 0 0 0 0 0 0 0 127 0" result="hardAlpha"/>
<feOffset dx="20" dy="12"/>
<feGaussianBlur stdDeviation="7"/>
<feColorMatrix type="matrix" values="0 0 0 0 0.85098 0 0 0 0 0.85098 0 0 0 0 0.85098 0 0 0 0.05 0"/>
<feBlend mode="normal" in2="effect2_dropShadow_1511_26340" result="effect3_dropShadow_1511_26340"/>
<feColorMatrix in="SourceAlpha" type="matrix" values="0 0 0 0 0 0 0 0 0 0 0 0 0 0 0 0 0 0 127 0" result="hardAlpha"/>
<feOffset dx="36" dy="21"/>
<feGaussianBlur stdDeviation="8.5"/>
<feColorMatrix type="matrix" values="0 0 0 0 0.85098 0 0 0 0 0.85098 0 0 0 0 0.85098 0 0 0 0.01 0"/>
<feBlend mode="normal" in2="effect3_dropShadow_1511_26340" result="effect4_dropShadow_1511_26340"/>
<feBlend mode="normal" in="SourceGraphic" in2="effect4_dropShadow_1511_26340" result="shape"/>
</filter>
<filter id="filter1_d_1511_26340" x="250.562" y="62.7102" width="21.3346" height="21.3333" filterUnits="userSpaceOnUse" color-interpolation-filters="sRGB">
<feFlood flood-opacity="0" result="BackgroundImageFix"/>
<feColorMatrix in="SourceAlpha" type="matrix" values="0 0 0 0 0 0 0 0 0 0 0 0 0 0 0 0 0 0 127 0" result="hardAlpha"/>
<feOffset dx="1.33333"/>
<feGaussianBlur stdDeviation="2.66667"/>
<feComposite in2="hardAlpha" operator="out"/>
<feColorMatrix type="matrix" values="0 0 0 0 0.826134 0 0 0 0 0.826134 0 0 0 0 0.849316 0 0 0 0.5 0"/>
<feBlend mode="normal" in2="BackgroundImageFix" result="effect1_dropShadow_1511_26340"/>
<feBlend mode="normal" in="SourceGraphic" in2="effect1_dropShadow_1511_26340" result="shape"/>
</filter>
<clipPath id="clip0_1511_26340">
<rect width="26.6667" height="16" fill="white" transform="translate(251.895 65.377)"/>
</clipPath>
</defs>
</svg>
