<svg width="388" height="132" viewBox="0 0 388 132" fill="none" xmlns="http://www.w3.org/2000/svg">
<g filter="url(#filter0_dddd_4214_3422)">
<rect x="5" y="5.6189" width="334" height="84.9567" rx="12" fill="white"/>
<rect x="5.44746" y="6.06635" width="333.105" height="84.0618" rx="11.5525" stroke="#D6DAE1" stroke-width="0.89491"/>
<path d="M24.6183 31.0652C24.5649 30.5652 24.3397 30.1759 23.9427 29.8973C23.5496 29.6186 23.0382 29.4793 22.4084 29.4793C21.9657 29.4793 21.5859 29.5461 21.2691 29.6797C20.9524 29.8133 20.71 29.9946 20.5421 30.2236C20.3741 30.4526 20.2882 30.714 20.2844 31.0079C20.2844 31.2522 20.3398 31.464 20.4505 31.6434C20.565 31.8228 20.7195 31.9755 20.9142 32.1014C21.1088 32.2235 21.3245 32.3266 21.5611 32.4106C21.7978 32.4945 22.0363 32.5651 22.2768 32.6224L23.376 32.8972C23.8187 33.0002 24.2443 33.1396 24.6527 33.3151C25.0649 33.4907 25.4332 33.7121 25.7576 33.9792C26.0858 34.2464 26.3454 34.5689 26.5362 34.9468C26.727 35.3246 26.8225 35.7674 26.8225 36.275C26.8225 36.962 26.6469 37.5669 26.2958 38.0898C25.9446 38.6089 25.437 39.0154 24.7729 39.3093C24.1126 39.5993 23.313 39.7444 22.3741 39.7444C21.4619 39.7444 20.6699 39.6032 19.9982 39.3207C19.3303 39.0383 18.8074 38.6261 18.4295 38.0841C18.0555 37.5421 17.8532 36.8818 17.8227 36.1032H19.9123C19.9428 36.5116 20.0688 36.8513 20.2902 37.1223C20.5115 37.3933 20.7997 37.5956 21.1546 37.7291C21.5134 37.8627 21.9142 37.9295 22.3569 37.9295C22.8187 37.9295 23.2233 37.8608 23.5706 37.7234C23.9218 37.5822 24.1966 37.3876 24.395 37.1395C24.5935 36.8876 24.6946 36.5937 24.6985 36.2578C24.6946 35.9525 24.6049 35.7006 24.4294 35.5021C24.2538 35.2998 24.0076 35.1319 23.6908 34.9983C23.3779 34.8609 23.0115 34.7388 22.5916 34.6319L21.2577 34.2884C20.2921 34.0403 19.5287 33.6644 18.9677 33.1605C18.4104 32.6529 18.1318 31.9793 18.1318 31.1396C18.1318 30.4488 18.3188 29.8438 18.6929 29.3247C19.0707 28.8057 19.5841 28.403 20.2329 28.1168C20.8817 27.8267 21.6165 27.6817 22.4371 27.6817C23.2691 27.6817 23.9981 27.8267 24.624 28.1168C25.2538 28.403 25.7481 28.8019 26.1068 29.3133C26.4656 29.8209 26.6507 30.4049 26.6622 31.0652H24.6183ZM30.6969 34.4143V39.5669H28.6244V27.842H30.6511V32.2674H30.7541C30.9603 31.7713 31.2789 31.38 31.7102 31.0938C32.1453 30.8037 32.6988 30.6587 33.3705 30.6587C33.9812 30.6587 34.5136 30.7865 34.9678 31.0423C35.422 31.298 35.7731 31.672 36.0212 32.1644C36.2731 32.6567 36.3991 33.2579 36.3991 33.9678V39.5669H34.3266V34.2884C34.3266 33.6968 34.1739 33.2369 33.8686 32.9086C33.5671 32.5766 33.1434 32.4106 32.5976 32.4106C32.2312 32.4106 31.903 32.4907 31.6129 32.651C31.3267 32.8075 31.1015 33.0346 30.9374 33.3323C30.777 33.63 30.6969 33.9907 30.6969 34.4143ZM42.3474 39.7386C41.4887 39.7386 40.7444 39.5497 40.1146 39.1719C39.4849 38.794 38.9963 38.2654 38.649 37.586C38.3055 36.9066 38.1338 36.1128 38.1338 35.2044C38.1338 34.296 38.3055 33.5002 38.649 32.817C38.9963 32.1338 39.4849 31.6033 40.1146 31.2255C40.7444 30.8476 41.4887 30.6587 42.3474 30.6587C43.2062 30.6587 43.9504 30.8476 44.5802 31.2255C45.2099 31.6033 45.6966 32.1338 46.0401 32.817C46.3874 33.5002 46.5611 34.296 46.5611 35.2044C46.5611 36.1128 46.3874 36.9066 46.0401 37.586C45.6966 38.2654 45.2099 38.794 44.5802 39.1719C43.9504 39.5497 43.2062 39.7386 42.3474 39.7386ZM42.3589 38.0784C42.8245 38.0784 43.2138 37.9505 43.5268 37.6948C43.8397 37.4353 44.0726 37.0879 44.2252 36.6528C44.3817 36.2177 44.46 35.733 44.46 35.1987C44.46 34.6605 44.3817 34.1739 44.2252 33.7388C44.0726 33.2999 43.8397 32.9506 43.5268 32.6911C43.2138 32.4316 42.8245 32.3018 42.3589 32.3018C41.8818 32.3018 41.4848 32.4316 41.168 32.6911C40.8551 32.9506 40.6203 33.2999 40.4639 33.7388C40.3112 34.1739 40.2349 34.6605 40.2349 35.1987C40.2349 35.733 40.3112 36.2177 40.4639 36.6528C40.6203 37.0879 40.8551 37.4353 41.168 37.6948C41.4848 37.9505 41.8818 38.0784 42.3589 38.0784ZM48.3201 42.8645V30.7732H50.3582V32.2274H50.4784C50.5853 32.0136 50.7361 31.7865 50.9307 31.5461C51.1254 31.3018 51.3887 31.0938 51.7208 30.922C52.0528 30.7465 52.4765 30.6587 52.9917 30.6587C53.6711 30.6587 54.2837 30.8323 54.8295 31.1797C55.3791 31.5232 55.8142 32.0327 56.1348 32.7083C56.4592 33.38 56.6214 34.2044 56.6214 35.1815C56.6214 36.1471 56.463 36.9677 56.1463 37.6433C55.8295 38.3188 55.3982 38.8341 54.8524 39.189C54.3066 39.544 53.6883 39.7215 52.9975 39.7215C52.4937 39.7215 52.0757 39.6375 51.7437 39.4696C51.4116 39.3016 51.1445 39.0993 50.9422 38.8627C50.7437 38.6223 50.5891 38.3952 50.4784 38.1814H50.3926V42.8645H48.3201ZM50.3525 35.17C50.3525 35.7387 50.4326 36.2368 50.5929 36.6643C50.7571 37.0918 50.9918 37.4257 51.2971 37.6662C51.6063 37.9028 51.9803 38.0211 52.4192 38.0211C52.8772 38.0211 53.2608 37.899 53.57 37.6547C53.8791 37.4066 54.1119 37.0689 54.2684 36.6414C54.4287 36.2101 54.5089 35.7196 54.5089 35.17C54.5089 34.6243 54.4306 34.1395 54.2742 33.7159C54.1177 33.2922 53.8849 32.9602 53.5757 32.7197C53.2665 32.4793 52.8811 32.359 52.4192 32.359C51.9765 32.359 51.6006 32.4754 51.2914 32.7083C50.9822 32.9411 50.7475 33.2674 50.5872 33.6873C50.4307 34.1071 50.3525 34.6014 50.3525 35.17ZM58.3962 39.5669V30.7732H60.4687V39.5669H58.3962ZM59.4382 29.5251C59.1099 29.5251 58.8275 29.4163 58.5909 29.1988C58.3542 28.9774 58.2359 28.7122 58.2359 28.403C58.2359 28.09 58.3542 27.8248 58.5909 27.6072C58.8275 27.3859 59.1099 27.2752 59.4382 27.2752C59.7702 27.2752 60.0527 27.3859 60.2855 27.6072C60.5221 27.8248 60.6404 28.09 60.6404 28.403C60.6404 28.7122 60.5221 28.9774 60.2855 29.1988C60.0527 29.4163 59.7702 29.5251 59.4382 29.5251ZM67.0539 30.7732V32.3762H61.8556V30.7732H67.0539ZM63.1552 39.5669V29.9431C63.1552 29.3515 63.2773 28.8591 63.5216 28.466C63.7697 28.0729 64.1017 27.779 64.5177 27.5843C64.9338 27.3897 65.3956 27.2923 65.9032 27.2923C66.262 27.2923 66.5807 27.321 66.8593 27.3782C67.1379 27.4355 67.344 27.487 67.4776 27.5328L67.0654 29.1358C66.9776 29.1091 66.8669 29.0824 66.7333 29.0557C66.5997 29.0251 66.4509 29.0099 66.2868 29.0099C65.9013 29.0099 65.6284 29.1034 65.4681 29.2904C65.3116 29.4736 65.2334 29.737 65.2334 30.0805V39.5669H63.1552ZM69.9651 42.8645C69.6827 42.8645 69.4213 42.8416 69.1808 42.7958C68.9442 42.7538 68.7552 42.7042 68.614 42.647L69.0949 41.0325C69.3964 41.1203 69.6655 41.1623 69.9022 41.1585C70.1388 41.1546 70.3468 41.0802 70.5262 40.9352C70.7094 40.794 70.864 40.5573 70.9899 40.2253L71.1674 39.7501L67.9785 30.7732H70.177L72.2036 37.4143H72.2952L74.3276 30.7732H76.5318L73.0109 40.6318C72.8468 41.0974 72.6292 41.4962 72.3582 41.8283C72.0872 42.1642 71.7552 42.4199 71.3621 42.5955C70.9727 42.7748 70.5071 42.8645 69.9651 42.8645ZM88.4285 31.0652C88.375 30.5652 88.1499 30.1759 87.7529 29.8973C87.3598 29.6186 86.8484 29.4793 86.2186 29.4793C85.7759 29.4793 85.3961 29.5461 85.0793 29.6797C84.7625 29.8133 84.5202 29.9946 84.3522 30.2236C84.1843 30.4526 84.0984 30.714 84.0946 31.0079C84.0946 31.2522 84.1499 31.464 84.2606 31.6434C84.3751 31.8228 84.5297 31.9755 84.7244 32.1014C84.919 32.2235 85.1347 32.3266 85.3713 32.4106C85.6079 32.4945 85.8465 32.5651 86.0869 32.6224L87.1861 32.8972C87.6289 33.0002 88.0544 33.1396 88.4628 33.3151C88.875 33.4907 89.2433 33.7121 89.5678 33.9792C89.896 34.2464 90.1555 34.5689 90.3464 34.9468C90.5372 35.3246 90.6326 35.7674 90.6326 36.275C90.6326 36.962 90.4571 37.5669 90.1059 38.0898C89.7548 38.6089 89.2472 39.0154 88.5831 39.3093C87.9228 39.5993 87.1232 39.7444 86.1843 39.7444C85.2721 39.7444 84.4801 39.6032 83.8083 39.3207C83.1404 39.0383 82.6175 38.6261 82.2397 38.0841C81.8656 37.5421 81.6634 36.8818 81.6328 36.1032H83.7225C83.753 36.5116 83.879 36.8513 84.1003 37.1223C84.3217 37.3933 84.6099 37.5956 84.9648 37.7291C85.3236 37.8627 85.7243 37.9295 86.1671 37.9295C86.6289 37.9295 87.0335 37.8608 87.3808 37.7234C87.7319 37.5822 88.0067 37.3876 88.2052 37.1395C88.4037 36.8876 88.5048 36.5937 88.5086 36.2578C88.5048 35.9525 88.4151 35.7006 88.2395 35.5021C88.064 35.2998 87.8178 35.1319 87.501 34.9983C87.188 34.8609 86.8216 34.7388 86.4018 34.6319L85.0679 34.2884C84.1022 34.0403 83.3389 33.6644 82.7778 33.1605C82.2206 32.6529 81.942 31.9793 81.942 31.1396C81.942 30.4488 82.129 29.8438 82.503 29.3247C82.8809 28.8057 83.3942 28.403 84.0431 28.1168C84.6919 27.8267 85.4266 27.6817 86.2472 27.6817C87.0793 27.6817 87.8083 27.8267 88.4342 28.1168C89.064 28.403 89.5582 28.8019 89.917 29.3133C90.2758 29.8209 90.4609 30.4049 90.4723 31.0652H88.4285ZM93.7227 42.8645C93.4403 42.8645 93.1788 42.8416 92.9384 42.7958C92.7018 42.7538 92.5128 42.7042 92.3716 42.647L92.8525 41.0325C93.154 41.1203 93.4231 41.1623 93.6598 41.1585C93.8964 41.1546 94.1044 41.0802 94.2838 40.9352C94.467 40.794 94.6216 40.5573 94.7475 40.2253L94.925 39.7501L91.7361 30.7732H93.9346L95.9612 37.4143H96.0528L98.0852 30.7732H100.289L96.7685 40.6318C96.6043 41.0974 96.3868 41.4962 96.1158 41.8283C95.8448 42.1642 95.5128 42.4199 95.1196 42.5955C94.7303 42.7748 94.2647 42.8645 93.7227 42.8645ZM103.796 34.4143V39.5669H101.724V30.7732H103.704V32.2674H103.807C104.01 31.7751 104.332 31.3839 104.775 31.0938C105.222 30.8037 105.773 30.6587 106.43 30.6587C107.036 30.6587 107.565 30.7885 108.015 31.048C108.47 31.3075 108.821 31.6835 109.069 32.1758C109.321 32.6682 109.445 33.2655 109.441 33.9678V39.5669H107.368V34.2884C107.368 33.7006 107.216 33.2407 106.91 32.9086C106.609 32.5766 106.191 32.4106 105.657 32.4106C105.294 32.4106 104.972 32.4907 104.689 32.651C104.41 32.8075 104.191 33.0346 104.031 33.3323C103.874 33.63 103.796 33.9907 103.796 34.4143ZM115.384 39.7386C114.506 39.7386 113.752 39.5459 113.122 39.1604C112.496 38.7749 112.013 38.2425 111.674 37.5631C111.338 36.8799 111.17 36.0937 111.17 35.2044C111.17 34.3113 111.342 33.5231 111.685 32.8399C112.029 32.1529 112.513 31.6186 113.139 31.2369C113.769 30.8514 114.513 30.6587 115.372 30.6587C116.086 30.6587 116.717 30.7904 117.267 31.0537C117.821 31.3133 118.261 31.6816 118.59 32.1587C118.918 32.6319 119.105 33.1854 119.151 33.8189H117.17C117.09 33.3953 116.899 33.0422 116.597 32.7598C116.3 32.4735 115.901 32.3304 115.401 32.3304C114.977 32.3304 114.605 32.4449 114.284 32.6739C113.964 32.8991 113.714 33.2235 113.534 33.6472C113.359 34.0708 113.271 34.5785 113.271 35.17C113.271 35.7693 113.359 36.2845 113.534 36.7158C113.71 37.1433 113.956 37.4734 114.273 37.7062C114.593 37.9353 114.969 38.0498 115.401 38.0498C115.706 38.0498 115.979 37.9925 116.219 37.878C116.464 37.7597 116.668 37.5898 116.832 37.3685C116.996 37.1471 117.109 36.878 117.17 36.5612H119.151C119.101 37.1834 118.918 37.7349 118.601 38.2158C118.284 38.6929 117.853 39.0669 117.307 39.3379C116.761 39.6051 116.12 39.7386 115.384 39.7386Z" fill="#0E0E1E"/>
<g clip-path="url(#clip0_4214_3422)">
<rect x="273.625" y="21.7407" width="40.5569" height="24.6523" rx="12.3261" fill="#787880" fill-opacity="0.32"/>
<g filter="url(#filter1_ddd_4214_3422)">
<rect x="275.215" y="22.6074" width="21.4713" height="21.4713" rx="10.7357" fill="white"/>
</g>
</g>
<path d="M23.9427 61.7594C23.8826 61.2517 23.6388 60.8577 23.2114 60.5771C22.7839 60.2966 22.2596 60.1563 21.6384 60.1563C21.1842 60.1563 20.7868 60.2298 20.4462 60.3768C20.1089 60.5237 19.845 60.7258 19.6547 60.9829C19.4677 61.2401 19.3741 61.5323 19.3741 61.8596C19.3741 62.1334 19.4393 62.3688 19.5695 62.5659C19.7031 62.7596 19.8734 62.9216 20.0805 63.0518C20.2875 63.1787 20.5046 63.2839 20.7317 63.3674C20.9588 63.4475 21.1675 63.5127 21.3579 63.5628L22.3998 63.8433C22.667 63.9134 22.9642 64.0103 23.2915 64.1338C23.6221 64.2574 23.9377 64.4261 24.2383 64.6398C24.5422 64.8502 24.7927 65.1207 24.9897 65.4513C25.1868 65.7819 25.2853 66.1877 25.2853 66.6686C25.2853 67.223 25.14 67.7239 24.8495 68.1714C24.5622 68.619 24.1415 68.9746 23.5871 69.2385C23.036 69.5023 22.3664 69.6342 21.5783 69.6342C20.8436 69.6342 20.2074 69.5156 19.6697 69.2785C19.1354 69.0414 18.7146 68.7108 18.4073 68.2867C18.1034 67.8625 17.9314 67.3699 17.8914 66.8089H19.1738C19.2072 67.1963 19.3374 67.5169 19.5645 67.7707C19.7949 68.0212 20.0855 68.2082 20.4361 68.3317C20.7901 68.452 21.1709 68.5121 21.5783 68.5121C22.0525 68.5121 22.4783 68.4353 22.8557 68.2816C23.2331 68.1247 23.532 67.9076 23.7524 67.6304C23.9728 67.3499 24.083 67.0226 24.083 66.6486C24.083 66.3079 23.9878 66.0307 23.7975 65.817C23.6071 65.6033 23.3566 65.4296 23.0461 65.296C22.7355 65.1624 22.3998 65.0456 22.0392 64.9454L20.7768 64.5847C19.9753 64.3543 19.3407 64.0253 18.8732 63.5978C18.4057 63.1704 18.1719 62.611 18.1719 61.9197C18.1719 61.3453 18.3272 60.8443 18.6378 60.4168C18.9517 59.986 19.3725 59.6521 19.9001 59.415C20.4311 59.1745 21.0239 59.0543 21.6785 59.0543C22.3397 59.0543 22.9275 59.1728 23.4418 59.4099C23.9561 59.6437 24.3635 59.9643 24.6641 60.3718C24.968 60.7792 25.1283 61.2417 25.145 61.7594H23.9427ZM30.5139 61.7594V62.7613H26.5264V61.7594H30.5139ZM27.6886 59.9159H28.8708V67.2497C28.8708 67.5837 28.9192 67.8341 29.0161 68.0011C29.1162 68.1648 29.2431 68.275 29.3968 68.3317C29.5537 68.3852 29.719 68.4119 29.8927 68.4119C30.0229 68.4119 30.1298 68.4052 30.2133 68.3919C30.2968 68.3752 30.3636 68.3618 30.4137 68.3518L30.6541 69.4138C30.574 69.4438 30.4621 69.4739 30.3185 69.504C30.1749 69.5373 29.9929 69.554 29.7725 69.554C29.4385 69.554 29.1112 69.4822 28.7906 69.3386C28.4734 69.195 28.2095 68.9763 27.9991 68.6824C27.7921 68.3885 27.6886 68.0178 27.6886 67.5703V59.9159ZM32.2922 69.4539V61.7594H33.4344V62.9216H33.5145C33.6548 62.5408 33.9086 62.2319 34.276 61.9948C34.6433 61.7577 35.0574 61.6391 35.5183 61.6391C35.6051 61.6391 35.7137 61.6408 35.8439 61.6441C35.9742 61.6475 36.0727 61.6525 36.1395 61.6592V62.8614C36.0994 62.8514 36.0076 62.8364 35.8639 62.8164C35.7237 62.793 35.5751 62.7813 35.4181 62.7813C35.0441 62.7813 34.7101 62.8598 34.4162 63.0167C34.1257 63.1704 33.8952 63.3841 33.7249 63.6579C33.5579 63.9285 33.4744 64.2374 33.4744 64.5847V69.4539H32.2922ZM40.5327 69.6142C39.7913 69.6142 39.1518 69.4505 38.6141 69.1232C38.0798 68.7926 37.6673 68.3317 37.3768 67.7406C37.0896 67.1462 36.946 66.4549 36.946 65.6667C36.946 64.8786 37.0896 64.1839 37.3768 63.5828C37.6673 62.9783 38.0714 62.5074 38.5891 62.1701C39.1101 61.8295 39.7179 61.6592 40.4125 61.6592C40.8133 61.6592 41.209 61.726 41.5998 61.8596C41.9905 61.9931 42.3462 62.2102 42.6668 62.5108C42.9874 62.808 43.2428 63.2021 43.4332 63.693C43.6236 64.1839 43.7187 64.7884 43.7187 65.5064V66.0074H37.7876V64.9854H42.5165C42.5165 64.5513 42.4296 64.1639 42.256 63.8233C42.0857 63.4826 41.8419 63.2138 41.5246 63.0167C41.2107 62.8197 40.84 62.7212 40.4125 62.7212C39.9416 62.7212 39.5342 62.8381 39.1902 63.0718C38.8496 63.3023 38.5874 63.6028 38.4037 63.9735C38.2201 64.3442 38.1282 64.7416 38.1282 65.1658V65.8471C38.1282 66.4282 38.2284 66.9208 38.4288 67.3248C38.6325 67.7256 38.9147 68.0312 39.2754 68.2416C39.6361 68.4486 40.0552 68.5522 40.5327 68.5522C40.8433 68.5522 41.1239 68.5087 41.3743 68.4219C41.6281 68.3317 41.8469 68.1982 42.0306 68.0212C42.2142 67.8408 42.3562 67.6171 42.4564 67.3499L43.5985 67.6705C43.4783 68.0579 43.2762 68.3985 42.9924 68.6924C42.7085 68.983 42.3578 69.2101 41.9404 69.3737C41.5229 69.534 41.0537 69.6142 40.5327 69.6142ZM47.7814 69.6342C47.2938 69.6342 46.8513 69.5424 46.4539 69.3587C46.0565 69.1717 45.7409 68.9028 45.5071 68.5522C45.2733 68.1982 45.1564 67.7707 45.1564 67.2697C45.1564 66.8289 45.2433 66.4716 45.4169 66.1977C45.5906 65.9205 45.8227 65.7035 46.1132 65.5465C46.4038 65.3895 46.7244 65.2726 47.0751 65.1958C47.4291 65.1157 47.7847 65.0522 48.1421 65.0055C48.6096 64.9454 48.9887 64.9003 49.2792 64.8702C49.5731 64.8368 49.7868 64.7817 49.9204 64.7049C50.0573 64.6281 50.1258 64.4945 50.1258 64.3042V64.2641C50.1258 63.7698 49.9906 63.3858 49.72 63.1119C49.4529 62.8381 49.0471 62.7011 48.5027 62.7011C47.9384 62.7011 47.4959 62.8247 47.1752 63.0718C46.8546 63.319 46.6292 63.5828 46.499 63.8633L45.3769 63.4626C45.5772 62.995 45.8444 62.631 46.1784 62.3705C46.5157 62.1067 46.883 61.923 47.2804 61.8195C47.6812 61.7126 48.0753 61.6592 48.4627 61.6592C48.7098 61.6592 48.9937 61.6892 49.3143 61.7493C49.6382 61.8061 49.9505 61.9247 50.251 62.105C50.5549 62.2854 50.8071 62.5575 51.0075 62.9216C51.2078 63.2856 51.308 63.7732 51.308 64.3843V69.4539H50.1258V68.4119H50.0657C49.9855 68.5789 49.852 68.7575 49.6649 68.9479C49.4779 69.1383 49.2291 69.3002 48.9185 69.4338C48.6079 69.5674 48.2289 69.6342 47.7814 69.6342ZM47.9617 68.5722C48.4293 68.5722 48.8234 68.4804 49.144 68.2967C49.4679 68.113 49.7117 67.8759 49.8753 67.5853C50.0423 67.2948 50.1258 66.9892 50.1258 66.6686V65.5866C50.0757 65.6467 49.9655 65.7018 49.7952 65.7519C49.6282 65.7986 49.4345 65.8404 49.2141 65.8771C48.997 65.9105 48.7849 65.9406 48.5779 65.9673C48.3742 65.9907 48.2089 66.0107 48.082 66.0274C47.7747 66.0675 47.4875 66.1326 47.2203 66.2228C46.9565 66.3096 46.7428 66.4415 46.5791 66.6185C46.4188 66.7922 46.3387 67.0293 46.3387 67.3299C46.3387 67.7406 46.4906 68.0512 46.7945 68.2616C47.1018 68.4687 47.4908 68.5722 47.9617 68.5722ZM53.4658 69.4539V61.7594H54.608V62.9616H54.7082C54.8685 62.5509 55.1273 62.2319 55.4846 62.0048C55.842 61.7744 56.2711 61.6592 56.7721 61.6592C57.2797 61.6592 57.7022 61.7744 58.0395 62.0048C58.3801 62.2319 58.6456 62.5509 58.836 62.9616H58.9161C59.1131 62.5642 59.4087 62.2486 59.8028 62.0148C60.1969 61.7777 60.6694 61.6592 61.2204 61.6592C61.9084 61.6592 62.4711 61.8746 62.9086 62.3054C63.3461 62.7329 63.5649 63.3991 63.5649 64.3042V69.4539H62.3826V64.3042C62.3826 63.7364 62.2273 63.3307 61.9168 63.0869C61.6062 62.8431 61.2405 62.7212 60.8197 62.7212C60.2787 62.7212 59.8596 62.8848 59.5623 63.2121C59.2651 63.536 59.1165 63.9468 59.1165 64.4444V69.4539H57.9142V64.1839C57.9142 63.7464 57.7723 63.3941 57.4884 63.1269C57.2046 62.8564 56.8389 62.7212 56.3914 62.7212C56.0841 62.7212 55.7969 62.803 55.5297 62.9666C55.2659 63.1303 55.0522 63.3574 54.8885 63.6479C54.7282 63.9351 54.6481 64.2674 54.6481 64.6448V69.4539H53.4658ZM66.9087 59.1945V69.4539H65.7264V59.1945H66.9087ZM69.074 69.4539V61.7594H70.2562V69.4539H69.074ZM69.6751 60.477C69.4447 60.477 69.246 60.3985 69.079 60.2415C68.9154 60.0845 68.8335 59.8959 68.8335 59.6754C68.8335 59.455 68.9154 59.2663 69.079 59.1094C69.246 58.9524 69.4447 58.8739 69.6751 58.8739C69.9056 58.8739 70.1026 58.9524 70.2662 59.1094C70.4332 59.2663 70.5167 59.455 70.5167 59.6754C70.5167 59.8959 70.4332 60.0845 70.2662 60.2415C70.1026 60.3985 69.9056 60.477 69.6751 60.477ZM73.6038 64.8251V69.4539H72.4215V61.7594H73.5637V62.9616H73.6639C73.8442 62.5709 74.1181 62.257 74.4854 62.0199C74.8528 61.7794 75.327 61.6592 75.9081 61.6592C76.4291 61.6592 76.885 61.766 77.2757 61.9798C77.6664 62.1902 77.9703 62.5108 78.1874 62.9416C78.4045 63.3691 78.513 63.9101 78.513 64.5647V69.4539H77.3308V64.6448C77.3308 64.0403 77.1738 63.5694 76.8599 63.2321C76.546 62.8915 76.1152 62.7212 75.5675 62.7212C75.1901 62.7212 74.8528 62.803 74.5556 62.9666C74.2617 63.1303 74.0296 63.3691 73.8593 63.683C73.6889 63.9969 73.6038 64.3776 73.6038 64.8251ZM83.8994 69.6142C83.158 69.6142 82.5185 69.4505 81.9808 69.1232C81.4465 68.7926 81.034 68.3317 80.7435 67.7406C80.4563 67.1462 80.3127 66.4549 80.3127 65.6667C80.3127 64.8786 80.4563 64.1839 80.7435 63.5828C81.034 62.9783 81.4381 62.5074 81.9557 62.1701C82.4767 61.8295 83.0845 61.6592 83.7792 61.6592C84.1799 61.6592 84.5757 61.726 84.9664 61.8596C85.3572 61.9931 85.7128 62.2102 86.0334 62.5108C86.354 62.808 86.6095 63.2021 86.7999 63.693C86.9902 64.1839 87.0854 64.7884 87.0854 65.5064V66.0074H81.1542V64.9854H85.8831C85.8831 64.5513 85.7963 64.1639 85.6227 63.8233C85.4523 63.4826 85.2085 63.2138 84.8913 63.0167C84.5774 62.8197 84.2067 62.7212 83.7792 62.7212C83.3083 62.7212 82.9009 62.8381 82.5569 63.0718C82.2162 63.3023 81.9541 63.6028 81.7704 63.9735C81.5867 64.3442 81.4949 64.7416 81.4949 65.1658V65.8471C81.4949 66.4282 81.5951 66.9208 81.7954 67.3248C81.9992 67.7256 82.2814 68.0312 82.642 68.2416C83.0027 68.4486 83.4218 68.5522 83.8994 68.5522C84.21 68.5522 84.4905 68.5087 84.741 68.4219C84.9948 68.3317 85.2136 68.1982 85.3972 68.0212C85.5809 67.8408 85.7228 67.6171 85.823 67.3499L86.9652 67.6705C86.845 68.0579 86.6429 68.3985 86.359 68.6924C86.0752 68.983 85.7245 69.2101 85.3071 69.3737C84.8896 69.534 84.4204 69.6142 83.8994 69.6142ZM92.1299 59.1945H93.5526L96.398 63.9836H96.5182L99.3635 59.1945H100.786L97.0792 65.2259V69.4539H95.8369V65.2259L92.1299 59.1945ZM104.27 69.6142C103.576 69.6142 102.966 69.4488 102.442 69.1182C101.921 68.7876 101.513 68.3251 101.22 67.7306C100.929 67.1362 100.784 66.4415 100.784 65.6467C100.784 64.8452 100.929 64.1455 101.22 63.5477C101.513 62.9499 101.921 62.4857 102.442 62.1551C102.966 61.8245 103.576 61.6592 104.27 61.6592C104.965 61.6592 105.573 61.8245 106.094 62.1551C106.618 62.4857 107.025 62.9499 107.316 63.5477C107.61 64.1455 107.757 64.8452 107.757 65.6467C107.757 66.4415 107.61 67.1362 107.316 67.7306C107.025 68.3251 106.618 68.7876 106.094 69.1182C105.573 69.4488 104.965 69.6142 104.27 69.6142ZM104.27 68.5522C104.798 68.5522 105.232 68.4169 105.573 68.1464C105.913 67.8759 106.166 67.5202 106.329 67.0794C106.493 66.6386 106.575 66.161 106.575 65.6467C106.575 65.1324 106.493 64.6531 106.329 64.209C106.166 63.7648 105.913 63.4058 105.573 63.132C105.232 62.8581 104.798 62.7212 104.27 62.7212C103.743 62.7212 103.308 62.8581 102.968 63.132C102.627 63.4058 102.375 63.7648 102.211 64.209C102.048 64.6531 101.966 65.1324 101.966 65.6467C101.966 66.161 102.048 66.6386 102.211 67.0794C102.375 67.5202 102.627 67.8759 102.968 68.1464C103.308 68.4169 103.743 68.5522 104.27 68.5522ZM114.411 66.3079V61.7594H115.593V69.4539H114.411V68.1514H114.33C114.15 68.5421 113.87 68.8744 113.489 69.1483C113.108 69.4188 112.627 69.554 112.046 69.554C111.565 69.554 111.138 69.4488 110.764 69.2385C110.39 69.0247 110.096 68.7041 109.882 68.2766C109.668 67.8458 109.561 67.3031 109.561 66.6486V61.7594H110.744V66.5684C110.744 67.1295 110.901 67.577 111.215 67.911C111.532 68.2449 111.936 68.4119 112.427 68.4119C112.721 68.4119 113.02 68.3368 113.324 68.1865C113.631 68.0362 113.888 67.8058 114.095 67.4952C114.305 67.1846 114.411 66.7888 114.411 66.3079ZM117.758 69.4539V61.7594H118.9V62.9216H118.98C119.121 62.5408 119.375 62.2319 119.742 61.9948C120.109 61.7577 120.523 61.6391 120.984 61.6391C121.071 61.6391 121.18 61.6408 121.31 61.6441C121.44 61.6475 121.539 61.6525 121.605 61.6592V62.8614C121.565 62.8514 121.474 62.8364 121.33 62.8164C121.19 62.793 121.041 62.7813 120.884 62.7813C120.51 62.7813 120.176 62.8598 119.882 63.0167C119.592 63.1704 119.361 63.3841 119.191 63.6579C119.024 63.9285 118.94 64.2374 118.94 64.5847V69.4539H117.758ZM127.135 69.4539V59.1945H130.601C131.406 59.1945 132.064 59.3398 132.575 59.6304C133.089 59.9176 133.47 60.3066 133.717 60.7976C133.964 61.2885 134.088 61.8362 134.088 62.4407C134.088 63.0451 133.964 63.5945 133.717 64.0888C133.473 64.583 133.096 64.9771 132.585 65.271C132.074 65.5615 131.419 65.7068 130.621 65.7068H128.136V64.6047H130.581C131.132 64.6047 131.575 64.5095 131.909 64.3192C132.243 64.1288 132.485 63.8717 132.635 63.5477C132.789 63.2205 132.865 62.8514 132.865 62.4407C132.865 62.0299 132.789 61.6625 132.635 61.3386C132.485 61.0146 132.241 60.7608 131.904 60.5771C131.566 60.3901 131.119 60.2966 130.561 60.2966H128.377V69.4539H127.135ZM135.929 69.4539V61.7594H137.071V62.9216H137.151C137.291 62.5408 137.545 62.2319 137.912 61.9948C138.28 61.7577 138.694 61.6391 139.155 61.6391C139.242 61.6391 139.35 61.6408 139.48 61.6441C139.611 61.6475 139.709 61.6525 139.776 61.6592V62.8614C139.736 62.8514 139.644 62.8364 139.5 62.8164C139.36 62.793 139.211 62.7813 139.055 62.7813C138.68 62.7813 138.347 62.8598 138.053 63.0167C137.762 63.1704 137.532 63.3841 137.361 63.6579C137.194 63.9285 137.111 64.2374 137.111 64.5847V69.4539H135.929ZM144.069 69.6142C143.374 69.6142 142.765 69.4488 142.241 69.1182C141.72 68.7876 141.312 68.3251 141.018 67.7306C140.728 67.1362 140.582 66.4415 140.582 65.6467C140.582 64.8452 140.728 64.1455 141.018 63.5477C141.312 62.9499 141.72 62.4857 142.241 62.1551C142.765 61.8245 143.374 61.6592 144.069 61.6592C144.764 61.6592 145.371 61.8245 145.892 62.1551C146.417 62.4857 146.824 62.9499 147.115 63.5477C147.409 64.1455 147.556 64.8452 147.556 65.6467C147.556 66.4415 147.409 67.1362 147.115 67.7306C146.824 68.3251 146.417 68.7876 145.892 69.1182C145.371 69.4488 144.764 69.6142 144.069 69.6142ZM144.069 68.5522C144.597 68.5522 145.031 68.4169 145.371 68.1464C145.712 67.8759 145.964 67.5202 146.128 67.0794C146.291 66.6386 146.373 66.161 146.373 65.6467C146.373 65.1324 146.291 64.6531 146.128 64.209C145.964 63.7648 145.712 63.4058 145.371 63.132C145.031 62.8581 144.597 62.7212 144.069 62.7212C143.541 62.7212 143.107 62.8581 142.767 63.132C142.426 63.4058 142.174 63.7648 142.01 64.209C141.846 64.6531 141.765 65.1324 141.765 65.6467C141.765 66.161 141.846 66.6386 142.01 67.0794C142.174 67.5202 142.426 67.8759 142.767 68.1464C143.107 68.4169 143.541 68.5522 144.069 68.5522ZM152.266 69.6142C151.624 69.6142 151.058 69.4522 150.567 69.1282C150.077 68.801 149.692 68.3401 149.415 67.7456C149.138 67.1478 149 66.4415 149 65.6267C149 64.8185 149.138 64.1171 149.415 63.5227C149.692 62.9282 150.078 62.469 150.572 62.1451C151.067 61.8212 151.638 61.6592 152.286 61.6592C152.787 61.6592 153.182 61.7427 153.473 61.9097C153.767 62.0733 153.991 62.2603 154.144 62.4707C154.301 62.6778 154.423 62.8481 154.51 62.9817H154.61V59.1945H155.792V69.4539H154.65V68.2716H154.51C154.423 68.4119 154.299 68.5889 154.139 68.8026C153.979 69.013 153.75 69.2017 153.453 69.3687C153.156 69.5323 152.76 69.6142 152.266 69.6142ZM152.426 68.5522C152.9 68.5522 153.301 68.4286 153.628 68.1815C153.956 67.931 154.204 67.5853 154.375 67.1445C154.545 66.7003 154.63 66.1877 154.63 65.6066C154.63 65.0322 154.547 64.5296 154.38 64.0988C154.213 63.6646 153.966 63.3273 153.638 63.0869C153.311 62.8431 152.907 62.7212 152.426 62.7212C151.925 62.7212 151.508 62.8498 151.174 63.1069C150.843 63.3607 150.594 63.7064 150.427 64.1439C150.264 64.578 150.182 65.0656 150.182 65.6066C150.182 66.1543 150.265 66.6519 150.432 67.0994C150.603 67.5436 150.853 67.8976 151.184 68.1614C151.518 68.4219 151.932 68.5522 152.426 68.5522ZM162.971 66.3079V61.7594H164.153V69.4539H162.971V68.1514H162.891C162.71 68.5421 162.43 68.8744 162.049 69.1483C161.668 69.4188 161.187 69.554 160.606 69.554C160.125 69.554 159.698 69.4488 159.324 69.2385C158.95 69.0247 158.656 68.7041 158.442 68.2766C158.229 67.8458 158.122 67.3031 158.122 66.6486V61.7594H159.304V66.5684C159.304 67.1295 159.461 67.577 159.775 67.911C160.092 68.2449 160.496 68.4119 160.987 68.4119C161.281 68.4119 161.58 68.3368 161.884 68.1865C162.191 68.0362 162.448 67.8058 162.655 67.4952C162.866 67.1846 162.971 66.7888 162.971 66.3079ZM169.444 69.6142C168.723 69.6142 168.102 69.4438 167.581 69.1032C167.06 68.7626 166.659 68.2933 166.378 67.6955C166.098 67.0978 165.958 66.4148 165.958 65.6467C165.958 64.8652 166.101 64.1756 166.388 63.5778C166.679 62.9767 167.083 62.5074 167.601 62.1701C168.122 61.8295 168.73 61.6592 169.424 61.6592C169.965 61.6592 170.453 61.7594 170.887 61.9597C171.321 62.1601 171.677 62.4406 171.954 62.8013C172.231 63.162 172.403 63.5828 172.47 64.0637H171.288C171.198 63.713 170.997 63.4025 170.687 63.132C170.379 62.8581 169.965 62.7212 169.444 62.7212C168.983 62.7212 168.579 62.8414 168.232 63.0819C167.888 63.319 167.619 63.6546 167.425 64.0888C167.235 64.5196 167.14 65.0255 167.14 65.6066C167.14 66.2011 167.233 66.7187 167.42 67.1595C167.611 67.6004 167.878 67.9427 168.222 68.1865C168.569 68.4303 168.977 68.5522 169.444 68.5522C169.751 68.5522 170.03 68.4987 170.281 68.3919C170.531 68.285 170.743 68.1314 170.917 67.931C171.091 67.7306 171.214 67.4902 171.288 67.2096H172.47C172.403 67.6638 172.238 68.0729 171.974 68.4369C171.714 68.7976 171.368 69.0848 170.937 69.2986C170.51 69.509 170.012 69.6142 169.444 69.6142ZM177.545 61.7594V62.7613H173.557V61.7594H177.545ZM174.719 59.9159H175.901V67.2497C175.901 67.5837 175.95 67.8341 176.047 68.0011C176.147 68.1648 176.274 68.275 176.427 68.3317C176.584 68.3852 176.75 68.4119 176.923 68.4119C177.054 68.4119 177.16 68.4052 177.244 68.3919C177.327 68.3752 177.394 68.3618 177.444 68.3518L177.685 69.4138C177.605 69.4438 177.493 69.4739 177.349 69.504C177.206 69.5373 177.024 69.554 176.803 69.554C176.469 69.554 176.142 69.4822 175.821 69.3386C175.504 69.195 175.24 68.9763 175.03 68.6824C174.823 68.3885 174.719 68.0178 174.719 67.5703V59.9159ZM183.451 59.1945H184.933L188.42 67.7106H188.54L192.027 59.1945H193.51V69.4539H192.347V61.6592H192.247L189.041 69.4539H187.919L184.713 61.6592H184.613V69.4539H183.451V59.1945ZM198.104 69.6342C197.617 69.6342 197.174 69.5424 196.777 69.3587C196.38 69.1717 196.064 68.9028 195.83 68.5522C195.596 68.1982 195.48 67.7707 195.48 67.2697C195.48 66.8289 195.566 66.4716 195.74 66.1977C195.914 65.9205 196.146 65.7035 196.436 65.5465C196.727 65.3895 197.047 65.2726 197.398 65.1958C197.752 65.1157 198.108 65.0522 198.465 65.0055C198.933 64.9454 199.312 64.9003 199.602 64.8702C199.896 64.8368 200.11 64.7817 200.244 64.7049C200.38 64.6281 200.449 64.4945 200.449 64.3042V64.2641C200.449 63.7698 200.314 63.3858 200.043 63.1119C199.776 62.8381 199.37 62.7011 198.826 62.7011C198.261 62.7011 197.819 62.8247 197.498 63.0718C197.178 63.319 196.952 63.5828 196.822 63.8633L195.7 63.4626C195.9 62.995 196.167 62.631 196.501 62.3705C196.839 62.1067 197.206 61.923 197.604 61.8195C198.004 61.7126 198.398 61.6592 198.786 61.6592C199.033 61.6592 199.317 61.6892 199.637 61.7493C199.961 61.8061 200.274 61.9247 200.574 62.105C200.878 62.2854 201.13 62.5575 201.331 62.9216C201.531 63.2856 201.631 63.7732 201.631 64.3843V69.4539H200.449V68.4119H200.389C200.309 68.5789 200.175 68.7575 199.988 68.9479C199.801 69.1383 199.552 69.3002 199.242 69.4338C198.931 69.5674 198.552 69.6342 198.104 69.6342ZM198.285 68.5722C198.752 68.5722 199.146 68.4804 199.467 68.2967C199.791 68.113 200.035 67.8759 200.198 67.5853C200.365 67.2948 200.449 66.9892 200.449 66.6686V65.5866C200.399 65.6467 200.289 65.7018 200.118 65.7519C199.951 65.7986 199.758 65.8404 199.537 65.8771C199.32 65.9105 199.108 65.9406 198.901 65.9673C198.697 65.9907 198.532 66.0107 198.405 66.0274C198.098 66.0675 197.811 66.1326 197.543 66.2228C197.28 66.3096 197.066 66.4415 196.902 66.6185C196.742 66.7922 196.662 67.0293 196.662 67.3299C196.662 67.7406 196.814 68.0512 197.118 68.2616C197.425 68.4687 197.814 68.5722 198.285 68.5722ZM204.971 64.8251V69.4539H203.789V61.7594H204.931V62.9616H205.031C205.212 62.5709 205.485 62.257 205.853 62.0199C206.22 61.7794 206.694 61.6592 207.275 61.6592C207.796 61.6592 208.252 61.766 208.643 61.9798C209.034 62.1902 209.338 62.5108 209.555 62.9416C209.772 63.3691 209.88 63.9101 209.88 64.5647V69.4539H208.698V64.6448C208.698 64.0403 208.541 63.5694 208.227 63.2321C207.913 62.8915 207.483 62.7212 206.935 62.7212C206.557 62.7212 206.22 62.803 205.923 62.9666C205.629 63.1303 205.397 63.3691 205.227 63.683C205.056 63.9969 204.971 64.3776 204.971 64.8251ZM214.305 69.6342C213.817 69.6342 213.375 69.5424 212.977 69.3587C212.58 69.1717 212.264 68.9028 212.031 68.5522C211.797 68.1982 211.68 67.7707 211.68 67.2697C211.68 66.8289 211.767 66.4716 211.941 66.1977C212.114 65.9205 212.346 65.7035 212.637 65.5465C212.927 65.3895 213.248 65.2726 213.599 65.1958C213.953 65.1157 214.308 65.0522 214.666 65.0055C215.133 64.9454 215.512 64.9003 215.803 64.8702C216.097 64.8368 216.31 64.7817 216.444 64.7049C216.581 64.6281 216.649 64.4945 216.649 64.3042V64.2641C216.649 63.7698 216.514 63.3858 216.244 63.1119C215.976 62.8381 215.571 62.7011 215.026 62.7011C214.462 62.7011 214.019 62.8247 213.699 63.0718C213.378 63.319 213.153 63.5828 213.023 63.8633L211.9 63.4626C212.101 62.995 212.368 62.631 212.702 62.3705C213.039 62.1067 213.407 61.923 213.804 61.8195C214.205 61.7126 214.599 61.6592 214.986 61.6592C215.233 61.6592 215.517 61.6892 215.838 61.7493C216.162 61.8061 216.474 61.9247 216.775 62.105C217.079 62.2854 217.331 62.5575 217.531 62.9216C217.731 63.2856 217.832 63.7732 217.832 64.3843V69.4539H216.649V68.4119H216.589C216.509 68.5789 216.376 68.7575 216.189 68.9479C216.002 69.1383 215.753 69.3002 215.442 69.4338C215.132 69.5674 214.753 69.6342 214.305 69.6342ZM214.485 68.5722C214.953 68.5722 215.347 68.4804 215.668 68.2967C215.992 68.113 216.235 67.8759 216.399 67.5853C216.566 67.2948 216.649 66.9892 216.649 66.6686V65.5866C216.599 65.6467 216.489 65.7018 216.319 65.7519C216.152 65.7986 215.958 65.8404 215.738 65.8771C215.521 65.9105 215.309 65.9406 215.101 65.9673C214.898 65.9907 214.732 66.0107 214.606 66.0274C214.298 66.0675 214.011 66.1326 213.744 66.2228C213.48 66.3096 213.266 66.4415 213.103 66.6185C212.942 66.7922 212.862 67.0293 212.862 67.3299C212.862 67.7406 213.014 68.0512 213.318 68.2616C213.625 68.4687 214.014 68.5722 214.485 68.5722ZM223.095 72.4996C222.524 72.4996 222.033 72.4261 221.623 72.2792C221.212 72.1356 220.869 71.9452 220.596 71.7081C220.325 71.4743 220.11 71.2239 219.949 70.9567L220.891 70.2954C220.998 70.4357 221.133 70.596 221.297 70.7763C221.461 70.96 221.684 71.1187 221.968 71.2522C222.255 71.3892 222.631 71.4576 223.095 71.4576C223.716 71.4576 224.229 71.3073 224.633 71.0068C225.037 70.7062 225.239 70.2353 225.239 69.5941V68.0312H225.139C225.052 68.1714 224.929 68.3451 224.768 68.5522C224.611 68.7559 224.384 68.9379 224.087 69.0982C223.793 69.2551 223.396 69.3336 222.895 69.3336C222.274 69.3336 221.716 69.1867 221.222 68.8928C220.731 68.5989 220.342 68.1714 220.055 67.6104C219.771 67.0493 219.629 66.368 219.629 65.5665C219.629 64.7784 219.767 64.0921 220.045 63.5077C220.322 62.9199 220.707 62.4657 221.202 62.1451C221.696 61.8212 222.267 61.6592 222.915 61.6592C223.416 61.6592 223.813 61.7427 224.107 61.9097C224.404 62.0733 224.632 62.2603 224.788 62.4707C224.949 62.6778 225.072 62.8481 225.159 62.9817H225.279V61.7594H226.422V69.6743C226.422 70.3355 226.271 70.8732 225.971 71.2873C225.673 71.7048 225.273 72.0103 224.768 72.204C224.268 72.4011 223.71 72.4996 223.095 72.4996ZM223.055 68.2716C223.529 68.2716 223.93 68.1631 224.257 67.946C224.585 67.7289 224.834 67.4167 225.004 67.0093C225.174 66.6018 225.259 66.1142 225.259 65.5465C225.259 64.9921 225.176 64.5029 225.009 64.0787C224.842 63.6546 224.595 63.3223 224.268 63.0819C223.94 62.8414 223.536 62.7212 223.055 62.7212C222.554 62.7212 222.137 62.8481 221.803 63.1019C221.472 63.3557 221.223 63.6963 221.056 64.1238C220.893 64.5513 220.811 65.0255 220.811 65.5465C220.811 66.0808 220.894 66.5534 221.061 66.9642C221.232 67.3716 221.482 67.6922 221.813 67.926C222.147 68.1564 222.561 68.2716 223.055 68.2716ZM231.812 69.6142C231.07 69.6142 230.431 69.4505 229.893 69.1232C229.359 68.7926 228.946 68.3317 228.656 67.7406C228.369 67.1462 228.225 66.4549 228.225 65.6667C228.225 64.8786 228.369 64.1839 228.656 63.5828C228.946 62.9783 229.35 62.5074 229.868 62.1701C230.389 61.8295 230.997 61.6592 231.691 61.6592C232.092 61.6592 232.488 61.726 232.879 61.8596C233.269 61.9931 233.625 62.2102 233.946 62.5108C234.266 62.808 234.522 63.2021 234.712 63.693C234.903 64.1839 234.998 64.7884 234.998 65.5064V66.0074H229.067V64.9854H233.795C233.795 64.5513 233.709 64.1639 233.535 63.8233C233.365 63.4826 233.121 63.2138 232.804 63.0167C232.49 62.8197 232.119 62.7212 231.691 62.7212C231.221 62.7212 230.813 62.8381 230.469 63.0718C230.129 63.3023 229.866 63.6028 229.683 63.9735C229.499 64.3442 229.407 64.7416 229.407 65.1658V65.8471C229.407 66.4282 229.507 66.9208 229.708 67.3248C229.911 67.7256 230.194 68.0312 230.554 68.2416C230.915 68.4486 231.334 68.5522 231.812 68.5522C232.122 68.5522 232.403 68.5087 232.653 68.4219C232.907 68.3317 233.126 68.1982 233.31 68.0212C233.493 67.8408 233.635 67.6171 233.735 67.3499L234.877 67.6705C234.757 68.0579 234.555 68.3985 234.271 68.6924C233.987 68.983 233.637 69.2101 233.219 69.3737C232.802 69.534 232.333 69.6142 231.812 69.6142ZM236.796 69.4539V61.7594H237.938V62.9616H238.038C238.199 62.5509 238.458 62.2319 238.815 62.0048C239.172 61.7744 239.601 61.6592 240.102 61.6592C240.61 61.6592 241.032 61.7744 241.37 62.0048C241.71 62.2319 241.976 62.5509 242.166 62.9616H242.246C242.443 62.5642 242.739 62.2486 243.133 62.0148C243.527 61.7777 244 61.6592 244.551 61.6592C245.239 61.6592 245.801 61.8746 246.239 62.3054C246.676 62.7329 246.895 63.3991 246.895 64.3042V69.4539H245.713V64.3042C245.713 63.7364 245.558 63.3307 245.247 63.0869C244.936 62.8431 244.571 62.7212 244.15 62.7212C243.609 62.7212 243.19 62.8848 242.893 63.2121C242.595 63.536 242.447 63.9468 242.447 64.4444V69.4539H241.244V64.1839C241.244 63.7464 241.103 63.3941 240.819 63.1269C240.535 62.8564 240.169 62.7212 239.722 62.7212C239.414 62.7212 239.127 62.803 238.86 62.9666C238.596 63.1303 238.382 63.3574 238.219 63.6479C238.058 63.9351 237.978 64.2674 237.978 64.6448V69.4539H236.796ZM252.283 69.6142C251.541 69.6142 250.902 69.4505 250.364 69.1232C249.83 68.7926 249.417 68.3317 249.127 67.7406C248.84 67.1462 248.696 66.4549 248.696 65.6667C248.696 64.8786 248.84 64.1839 249.127 63.5828C249.417 62.9783 249.821 62.5074 250.339 62.1701C250.86 61.8295 251.468 61.6592 252.163 61.6592C252.563 61.6592 252.959 61.726 253.35 61.8596C253.74 61.9931 254.096 62.2102 254.417 62.5108C254.737 62.808 254.993 63.2021 255.183 63.693C255.374 64.1839 255.469 64.7884 255.469 65.5064V66.0074H249.538V64.9854H254.266C254.266 64.5513 254.18 64.1639 254.006 63.8233C253.836 63.4826 253.592 63.2138 253.275 63.0167C252.961 62.8197 252.59 62.7212 252.163 62.7212C251.692 62.7212 251.284 62.8381 250.94 63.0718C250.6 63.3023 250.337 63.6028 250.154 63.9735C249.97 64.3442 249.878 64.7416 249.878 65.1658V65.8471C249.878 66.4282 249.978 66.9208 250.179 67.3248C250.383 67.7256 250.665 68.0312 251.025 68.2416C251.386 68.4486 251.805 68.5522 252.283 68.5522C252.593 68.5522 252.874 68.5087 253.124 68.4219C253.378 68.3317 253.597 68.1982 253.781 68.0212C253.964 67.8408 254.106 67.6171 254.206 67.3499L255.349 67.6705C255.228 68.0579 255.026 68.3985 254.742 68.6924C254.459 68.983 254.108 69.2101 253.69 69.3737C253.273 69.534 252.804 69.6142 252.283 69.6142ZM258.449 64.8251V69.4539H257.267V61.7594H258.409V62.9616H258.509C258.69 62.5709 258.964 62.257 259.331 62.0199C259.698 61.7794 260.173 61.6592 260.754 61.6592C261.275 61.6592 261.731 61.766 262.121 61.9798C262.512 62.1902 262.816 62.5108 263.033 62.9416C263.25 63.3691 263.359 63.9101 263.359 64.5647V69.4539H262.176V64.6448C262.176 64.0403 262.019 63.5694 261.706 63.2321C261.392 62.8915 260.961 62.7212 260.413 62.7212C260.036 62.7212 259.698 62.803 259.401 62.9666C259.107 63.1303 258.875 63.3691 258.705 63.683C258.535 63.9969 258.449 64.3776 258.449 64.8251ZM268.865 61.7594V62.7613H264.878V61.7594H268.865ZM266.04 59.9159H267.222V67.2497C267.222 67.5837 267.271 67.8341 267.367 68.0011C267.468 68.1648 267.595 68.275 267.748 68.3317C267.905 68.3852 268.07 68.4119 268.244 68.4119C268.374 68.4119 268.481 68.4052 268.565 68.3919C268.648 68.3752 268.715 68.3618 268.765 68.3518L269.006 69.4138C268.925 69.4438 268.813 69.4739 268.67 69.504C268.526 69.5373 268.344 69.554 268.124 69.554C267.79 69.554 267.463 69.4822 267.142 69.3386C266.825 69.195 266.561 68.9763 266.351 68.6824C266.143 68.3885 266.04 68.0178 266.04 67.5703V59.9159Z" fill="#71737C"/>
</g>
<defs>
<filter id="filter0_dddd_4214_3422" x="0.738658" y="0.29222" width="394.724" height="130.766" filterUnits="userSpaceOnUse" color-interpolation-filters="sRGB">
<feFlood flood-opacity="0" result="BackgroundImageFix"/>
<feColorMatrix in="SourceAlpha" type="matrix" values="0 0 0 0 0 0 0 0 0 0 0 0 0 0 0 0 0 0 127 0" result="hardAlpha"/>
<feOffset dx="2.13067" dy="1.06533"/>
<feGaussianBlur stdDeviation="3.19601"/>
<feColorMatrix type="matrix" values="0 0 0 0 0.85098 0 0 0 0 0.85098 0 0 0 0 0.85098 0 0 0 0.1 0"/>
<feBlend mode="normal" in2="BackgroundImageFix" result="effect1_dropShadow_4214_3422"/>
<feColorMatrix in="SourceAlpha" type="matrix" values="0 0 0 0 0 0 0 0 0 0 0 0 0 0 0 0 0 0 127 0" result="hardAlpha"/>
<feOffset dx="9.58801" dy="5.32668"/>
<feGaussianBlur stdDeviation="5.32668"/>
<feColorMatrix type="matrix" values="0 0 0 0 0.85098 0 0 0 0 0.85098 0 0 0 0 0.85098 0 0 0 0.09 0"/>
<feBlend mode="normal" in2="effect1_dropShadow_4214_3422" result="effect2_dropShadow_4214_3422"/>
<feColorMatrix in="SourceAlpha" type="matrix" values="0 0 0 0 0 0 0 0 0 0 0 0 0 0 0 0 0 0 127 0" result="hardAlpha"/>
<feOffset dx="21.3067" dy="12.784"/>
<feGaussianBlur stdDeviation="7.45735"/>
<feColorMatrix type="matrix" values="0 0 0 0 0.85098 0 0 0 0 0.85098 0 0 0 0 0.85098 0 0 0 0.05 0"/>
<feBlend mode="normal" in2="effect2_dropShadow_4214_3422" result="effect3_dropShadow_4214_3422"/>
<feColorMatrix in="SourceAlpha" type="matrix" values="0 0 0 0 0 0 0 0 0 0 0 0 0 0 0 0 0 0 127 0" result="hardAlpha"/>
<feOffset dx="38.3521" dy="22.372"/>
<feGaussianBlur stdDeviation="9.05535"/>
<feColorMatrix type="matrix" values="0 0 0 0 0.85098 0 0 0 0 0.85098 0 0 0 0 0.85098 0 0 0 0.01 0"/>
<feBlend mode="normal" in2="effect3_dropShadow_4214_3422" result="effect4_dropShadow_4214_3422"/>
<feBlend mode="normal" in="SourceGraphic" in2="effect4_dropShadow_4214_3422" result="shape"/>
</filter>
<filter id="filter1_ddd_4214_3422" x="268.853" y="18.6313" width="34.1964" height="34.1951" filterUnits="userSpaceOnUse" color-interpolation-filters="sRGB">
<feFlood flood-opacity="0" result="BackgroundImageFix"/>
<feColorMatrix in="SourceAlpha" type="matrix" values="0 0 0 0 0 0 0 0 0 0 0 0 0 0 0 0 0 0 127 0" result="hardAlpha"/>
<feOffset dy="2.3857"/>
<feGaussianBlur stdDeviation="0.397617"/>
<feComposite in2="hardAlpha" operator="out"/>
<feColorMatrix type="matrix" values="0 0 0 0 0 0 0 0 0 0 0 0 0 0 0 0 0 0 0.06 0"/>
<feBlend mode="normal" in2="BackgroundImageFix" result="effect1_dropShadow_4214_3422"/>
<feColorMatrix in="SourceAlpha" type="matrix" values="0 0 0 0 0 0 0 0 0 0 0 0 0 0 0 0 0 0 127 0" result="hardAlpha"/>
<feOffset dy="2.3857"/>
<feGaussianBlur stdDeviation="3.18094"/>
<feComposite in2="hardAlpha" operator="out"/>
<feColorMatrix type="matrix" values="0 0 0 0 0 0 0 0 0 0 0 0 0 0 0 0 0 0 0.15 0"/>
<feBlend mode="normal" in2="effect1_dropShadow_4214_3422" result="effect2_dropShadow_4214_3422"/>
<feColorMatrix in="SourceAlpha" type="matrix" values="0 0 0 0 0 0 0 0 0 0 0 0 0 0 0 0 0 0 127 0" result="hardAlpha"/>
<feMorphology radius="0.795234" operator="dilate" in="SourceAlpha" result="effect3_dropShadow_4214_3422"/>
<feOffset/>
<feComposite in2="hardAlpha" operator="out"/>
<feColorMatrix type="matrix" values="0 0 0 0 0 0 0 0 0 0 0 0 0 0 0 0 0 0 0.04 0"/>
<feBlend mode="normal" in2="effect2_dropShadow_4214_3422" result="effect3_dropShadow_4214_3422"/>
<feBlend mode="normal" in="SourceGraphic" in2="effect3_dropShadow_4214_3422" result="shape"/>
</filter>
<clipPath id="clip0_4214_3422">
<rect x="273.625" y="21.7407" width="40.5569" height="24.6523" rx="12.3261" fill="white"/>
</clipPath>
</defs>
</svg>
