<svg width="380" height="132" viewBox="0 0 380 132" fill="none" xmlns="http://www.w3.org/2000/svg">
<g filter="url(#filter0_dddd_4214_19161)">
<rect x="5" y="5.6189" width="334" height="84.9567" rx="12" fill="white"/>
<rect x="5.44746" y="6.06635" width="333.105" height="84.0618" rx="11.5525" stroke="#D6DAE1" stroke-width="0.89491"/>
<path d="M24.6183 31.0652C24.5649 30.5652 24.3397 30.1759 23.9427 29.8973C23.5496 29.6186 23.0382 29.4793 22.4084 29.4793C21.9657 29.4793 21.5859 29.5461 21.2691 29.6797C20.9524 29.8133 20.71 29.9946 20.5421 30.2236C20.3741 30.4526 20.2882 30.714 20.2844 31.0079C20.2844 31.2522 20.3398 31.464 20.4505 31.6434C20.565 31.8228 20.7195 31.9755 20.9142 32.1014C21.1088 32.2235 21.3245 32.3266 21.5611 32.4106C21.7978 32.4945 22.0363 32.5651 22.2768 32.6224L23.376 32.8972C23.8187 33.0002 24.2443 33.1396 24.6527 33.3151C25.0649 33.4907 25.4332 33.7121 25.7576 33.9792C26.0858 34.2464 26.3454 34.5689 26.5362 34.9468C26.727 35.3246 26.8225 35.7674 26.8225 36.275C26.8225 36.962 26.6469 37.5669 26.2958 38.0898C25.9446 38.6089 25.437 39.0154 24.7729 39.3093C24.1126 39.5993 23.313 39.7444 22.3741 39.7444C21.4619 39.7444 20.6699 39.6032 19.9982 39.3207C19.3303 39.0383 18.8074 38.6261 18.4295 38.0841C18.0555 37.5421 17.8532 36.8818 17.8227 36.1032H19.9123C19.9428 36.5116 20.0688 36.8513 20.2902 37.1223C20.5115 37.3933 20.7997 37.5956 21.1546 37.7291C21.5134 37.8627 21.9142 37.9295 22.3569 37.9295C22.8187 37.9295 23.2233 37.8608 23.5706 37.7234C23.9218 37.5822 24.1966 37.3876 24.395 37.1395C24.5935 36.8876 24.6946 36.5937 24.6985 36.2578C24.6946 35.9525 24.6049 35.7006 24.4294 35.5021C24.2538 35.2998 24.0076 35.1319 23.6908 34.9983C23.3779 34.8609 23.0115 34.7388 22.5916 34.6319L21.2577 34.2884C20.2921 34.0403 19.5287 33.6644 18.9677 33.1605C18.4104 32.6529 18.1318 31.9793 18.1318 31.1396C18.1318 30.4488 18.3188 29.8438 18.6929 29.3247C19.0707 28.8057 19.5841 28.403 20.2329 28.1168C20.8817 27.8267 21.6165 27.6817 22.4371 27.6817C23.2691 27.6817 23.9981 27.8267 24.624 28.1168C25.2538 28.403 25.7481 28.8019 26.1068 29.3133C26.4656 29.8209 26.6507 30.4049 26.6622 31.0652H24.6183ZM28.6244 39.5669V30.7732H30.6053V32.2674H30.7083C30.8916 31.7636 31.195 31.3705 31.6186 31.0881C32.0423 30.8018 32.548 30.6587 33.1358 30.6587C33.7312 30.6587 34.2331 30.8037 34.6415 31.0938C35.0537 31.38 35.3437 31.7713 35.5117 32.2674H35.6033C35.7979 31.7789 36.1262 31.3896 36.588 31.0995C37.0536 30.8056 37.6051 30.6587 38.2425 30.6587C39.0517 30.6587 39.712 30.9144 40.2234 31.4258C40.7348 31.9373 40.9906 32.6835 40.9906 33.6644V39.5669H38.9124V33.985C38.9124 33.4392 38.7673 33.0403 38.4773 32.7884C38.1872 32.5327 37.8322 32.4048 37.4124 32.4048C36.9124 32.4048 36.5212 32.5613 36.2388 32.8743C35.9601 33.1834 35.8208 33.5861 35.8208 34.0823V39.5669H33.7884V33.8991C33.7884 33.4449 33.651 33.0823 33.3762 32.8113C33.1052 32.5403 32.7503 32.4048 32.3114 32.4048C32.0137 32.4048 31.7427 32.4812 31.4984 32.6338C31.2541 32.7827 31.0595 32.9945 30.9145 33.2693C30.7694 33.5403 30.6969 33.8571 30.6969 34.2197V39.5669H28.6244ZM45.6236 39.7444C45.0663 39.7444 44.5644 39.6451 44.1179 39.4467C43.6751 39.2444 43.324 38.9467 43.0645 38.5536C42.8088 38.1604 42.6809 37.6757 42.6809 37.0994C42.6809 36.6032 42.7725 36.1929 42.9557 35.8685C43.1389 35.5441 43.3889 35.2845 43.7057 35.0899C44.0225 34.8952 44.3793 34.7483 44.7763 34.6491C45.177 34.546 45.5911 34.4716 46.0186 34.4258C46.5339 34.3723 46.9518 34.3246 47.2724 34.2827C47.593 34.2369 47.8258 34.1682 47.9709 34.0766C48.1197 33.9811 48.1941 33.8342 48.1941 33.6357V33.6014C48.1941 33.1701 48.0663 32.8361 47.8106 32.5995C47.5548 32.3629 47.1865 32.2445 46.7056 32.2445C46.198 32.2445 45.7953 32.3552 45.4976 32.5766C45.2037 32.798 45.0053 33.0594 44.9022 33.3609L42.9671 33.0861C43.1198 32.5518 43.3717 32.1052 43.7229 31.7465C44.074 31.3839 44.5034 31.1129 45.011 30.9335C45.5186 30.7503 46.0797 30.6587 46.6942 30.6587C47.1178 30.6587 47.5396 30.7083 47.9594 30.8075C48.3792 30.9068 48.7628 31.0709 49.1101 31.2999C49.4575 31.5251 49.7361 31.8323 49.946 32.2216C50.1597 32.6109 50.2666 33.0976 50.2666 33.6815V39.5669H48.2743V38.3589H48.2056C48.0796 38.6032 47.9022 38.8322 47.6732 39.0459C47.448 39.2558 47.1636 39.4257 46.8201 39.5554C46.4804 39.6814 46.0816 39.7444 45.6236 39.7444ZM46.1617 38.2215C46.5778 38.2215 46.9384 38.1394 47.2438 37.9753C47.5491 37.8074 47.7838 37.586 47.948 37.3112C48.1159 37.0364 48.1999 36.7368 48.1999 36.4124V35.3761C48.135 35.4296 48.0243 35.4792 47.8678 35.525C47.7151 35.5708 47.5434 35.6109 47.3525 35.6452C47.1617 35.6796 46.9728 35.7101 46.7858 35.7368C46.5987 35.7635 46.4365 35.7864 46.2991 35.8055C45.99 35.8475 45.7133 35.9162 45.469 36.0116C45.2247 36.107 45.032 36.2406 44.8908 36.4124C44.7496 36.5803 44.6789 36.7979 44.6789 37.065C44.6789 37.4467 44.8183 37.7349 45.0969 37.9295C45.3755 38.1242 45.7304 38.2215 46.1617 38.2215ZM52.3505 39.5669V30.7732H54.36V32.2388H54.4516C54.6119 31.7312 54.8867 31.34 55.276 31.0652C55.6692 30.7865 56.1176 30.6472 56.6214 30.6472C56.7359 30.6472 56.8638 30.653 57.005 30.6644C57.15 30.672 57.2703 30.6854 57.3657 30.7045V32.6109C57.2779 32.5804 57.1386 32.5537 56.9478 32.5308C56.7607 32.5041 56.5795 32.4907 56.4039 32.4907C56.026 32.4907 55.6863 32.5728 55.3848 32.7369C55.0871 32.8972 54.8524 33.1205 54.6806 33.4067C54.5089 33.693 54.423 34.0231 54.423 34.3972V39.5669H52.3505ZM63.606 30.7732V32.3762H58.5508V30.7732H63.606ZM59.7988 28.6664H61.8713V36.9219C61.8713 37.2005 61.9133 37.4143 61.9973 37.5631C62.0851 37.7082 62.1996 37.8074 62.3408 37.8608C62.482 37.9143 62.6385 37.941 62.8102 37.941C62.94 37.941 63.0583 37.9314 63.1652 37.9123C63.2759 37.8933 63.3598 37.8761 63.4171 37.8608L63.7663 39.481C63.6556 39.5192 63.4972 39.5612 63.2911 39.607C63.0889 39.6528 62.8408 39.6795 62.5469 39.6871C62.0278 39.7024 61.5603 39.6241 61.1442 39.4524C60.7282 39.2768 60.3981 39.0058 60.1538 38.6394C59.9133 38.273 59.795 37.815 59.7988 37.2654V28.6664ZM79.4659 31.798H77.3247C77.2636 31.4468 77.151 31.1358 76.9869 30.8648C76.8228 30.59 76.6186 30.3572 76.3743 30.1663C76.1301 29.9755 75.8515 29.8324 75.5385 29.737C75.2293 29.6377 74.8954 29.5881 74.5366 29.5881C73.8992 29.5881 73.3343 29.7484 72.842 30.069C72.3496 30.3858 71.9641 30.8514 71.6855 31.4659C71.4069 32.0766 71.2676 32.8228 71.2676 33.7044C71.2676 34.6014 71.4069 35.3571 71.6855 35.9716C71.968 36.5822 72.3534 37.044 72.842 37.357C73.3343 37.6662 73.8973 37.8207 74.5309 37.8207C74.882 37.8207 75.2103 37.7749 75.5156 37.6833C75.8247 37.5879 76.1015 37.4486 76.3457 37.2654C76.5938 37.0822 76.8018 36.857 76.9698 36.5899C77.1415 36.3227 77.2598 36.0174 77.3247 35.6738L79.4659 35.6853C79.3857 36.2425 79.2121 36.7654 78.9449 37.254C78.6815 37.7425 78.3361 38.1738 77.9087 38.5478C77.4812 38.9181 76.9812 39.2081 76.4087 39.418C75.8362 39.6241 75.2007 39.7272 74.5023 39.7272C73.4717 39.7272 72.5519 39.4887 71.7428 39.0116C70.9336 38.5345 70.2962 37.8456 69.8306 36.9448C69.365 36.0441 69.1321 34.9639 69.1321 33.7044C69.1321 32.4411 69.3669 31.361 69.8363 30.464C70.3058 29.5633 70.9451 28.8744 71.7542 28.3973C72.5634 27.9202 73.4794 27.6817 74.5023 27.6817C75.1549 27.6817 75.7618 27.7733 76.3228 27.9565C76.8839 28.1397 77.3839 28.4087 77.8228 28.7637C78.2617 29.1148 78.6224 29.5461 78.9048 30.0576C79.1911 30.5652 79.3781 31.1453 79.4659 31.798ZM85.1552 39.7386C84.2964 39.7386 83.5522 39.5497 82.9224 39.1719C82.2926 38.794 81.8041 38.2654 81.4568 37.586C81.1133 36.9066 80.9415 36.1128 80.9415 35.2044C80.9415 34.296 81.1133 33.5002 81.4568 32.817C81.8041 32.1338 82.2926 31.6033 82.9224 31.2255C83.5522 30.8476 84.2964 30.6587 85.1552 30.6587C86.0139 30.6587 86.7582 30.8476 87.3879 31.2255C88.0177 31.6033 88.5043 32.1338 88.8478 32.817C89.1952 33.5002 89.3688 34.296 89.3688 35.2044C89.3688 36.1128 89.1952 36.9066 88.8478 37.586C88.5043 38.2654 88.0177 38.794 87.3879 39.1719C86.7582 39.5497 86.0139 39.7386 85.1552 39.7386ZM85.1666 38.0784C85.6323 38.0784 86.0216 37.9505 86.3345 37.6948C86.6475 37.4353 86.8803 37.0879 87.033 36.6528C87.1895 36.2177 87.2677 35.733 87.2677 35.1987C87.2677 34.6605 87.1895 34.1739 87.033 33.7388C86.8803 33.2999 86.6475 32.9506 86.3345 32.6911C86.0216 32.4316 85.6323 32.3018 85.1666 32.3018C84.6895 32.3018 84.2926 32.4316 83.9758 32.6911C83.6628 32.9506 83.4281 33.2999 83.2716 33.7388C83.119 34.1739 83.0426 34.6605 83.0426 35.1987C83.0426 35.733 83.119 36.2177 83.2716 36.6528C83.4281 37.0879 83.6628 37.4353 83.9758 37.6948C84.2926 37.9505 84.6895 38.0784 85.1666 38.0784ZM93.2003 27.842V39.5669H91.1279V27.842H93.2003ZM97.404 27.842V39.5669H95.3315V27.842H97.404ZM103.428 39.7386C102.546 39.7386 101.785 39.5554 101.144 39.189C100.506 38.8188 100.016 38.2959 99.6725 37.6204C99.329 36.941 99.1573 36.1414 99.1573 35.2216C99.1573 34.317 99.329 33.5231 99.6725 32.8399C100.02 32.1529 100.505 31.6186 101.127 31.2369C101.749 30.8514 102.48 30.6587 103.319 30.6587C103.861 30.6587 104.373 30.7465 104.854 30.922C105.338 31.0938 105.766 31.361 106.136 31.7236C106.51 32.0861 106.804 32.548 107.018 33.109C107.232 33.6663 107.338 34.3304 107.338 35.1013V35.7368H100.131V34.3399H105.352C105.348 33.943 105.262 33.5899 105.094 33.2808C104.926 32.9678 104.691 32.7216 104.39 32.5422C104.092 32.3629 103.745 32.2732 103.348 32.2732C102.924 32.2732 102.552 32.3762 102.232 32.5823C101.911 32.7846 101.661 33.0518 101.482 33.3838C101.306 33.7121 101.216 34.0727 101.213 34.4659V35.6853C101.213 36.1967 101.306 36.6357 101.493 37.0021C101.68 37.3647 101.942 37.6433 102.277 37.8379C102.613 38.0288 103.006 38.1242 103.457 38.1242C103.758 38.1242 104.031 38.0822 104.275 37.9982C104.52 37.9104 104.732 37.7826 104.911 37.6146C105.09 37.4467 105.226 37.2387 105.317 36.9906L107.252 37.2082C107.13 37.7196 106.898 38.1662 106.554 38.5478C106.214 38.9257 105.779 39.2196 105.249 39.4295C104.718 39.6356 104.111 39.7386 103.428 39.7386ZM112.927 39.7386C112.05 39.7386 111.296 39.5459 110.666 39.1604C110.04 38.7749 109.557 38.2425 109.218 37.5631C108.882 36.8799 108.714 36.0937 108.714 35.2044C108.714 34.3113 108.886 33.5231 109.229 32.8399C109.573 32.1529 110.057 31.6186 110.683 31.2369C111.313 30.8514 112.057 30.6587 112.916 30.6587C113.63 30.6587 114.261 30.7904 114.811 31.0537C115.364 31.3133 115.805 31.6816 116.134 32.1587C116.462 32.6319 116.649 33.1854 116.695 33.8189H114.714C114.634 33.3953 114.443 33.0422 114.141 32.7598C113.843 32.4735 113.445 32.3304 112.945 32.3304C112.521 32.3304 112.149 32.4449 111.828 32.6739C111.508 32.8991 111.258 33.2235 111.078 33.6472C110.903 34.0708 110.815 34.5785 110.815 35.17C110.815 35.7693 110.903 36.2845 111.078 36.7158C111.254 37.1433 111.5 37.4734 111.817 37.7062C112.137 37.9353 112.513 38.0498 112.945 38.0498C113.25 38.0498 113.523 37.9925 113.763 37.878C114.008 37.7597 114.212 37.5898 114.376 37.3685C114.54 37.1471 114.653 36.878 114.714 36.5612H116.695C116.645 37.1834 116.462 37.7349 116.145 38.2158C115.828 38.6929 115.397 39.0669 114.851 39.3379C114.305 39.6051 113.664 39.7386 112.927 39.7386ZM122.787 30.7732V32.3762H117.732V30.7732H122.787ZM118.98 28.6664H121.053V36.9219C121.053 37.2005 121.095 37.4143 121.179 37.5631C121.267 37.7082 121.381 37.8074 121.522 37.8608C121.663 37.9143 121.82 37.941 121.992 37.941C122.121 37.941 122.24 37.9314 122.347 37.9123C122.457 37.8933 122.541 37.8761 122.599 37.8608L122.948 39.481C122.837 39.5192 122.679 39.5612 122.473 39.607C122.27 39.6528 122.022 39.6795 121.728 39.6871C121.209 39.7024 120.742 39.6241 120.326 39.4524C119.91 39.2768 119.58 39.0058 119.335 38.6394C119.095 38.273 118.976 37.815 118.98 37.2654V28.6664ZM124.521 39.5669V30.7732H126.593V39.5669H124.521ZM125.563 29.5251C125.234 29.5251 124.952 29.4163 124.715 29.1988C124.479 28.9774 124.36 28.7122 124.36 28.403C124.36 28.09 124.479 27.8248 124.715 27.6072C124.952 27.3859 125.234 27.2752 125.563 27.2752C125.895 27.2752 126.177 27.3859 126.41 27.6072C126.647 27.8248 126.765 28.09 126.765 28.403C126.765 28.7122 126.647 28.9774 126.41 29.1988C126.177 29.4163 125.895 29.5251 125.563 29.5251ZM132.56 39.7386C131.701 39.7386 130.957 39.5497 130.327 39.1719C129.698 38.794 129.209 38.2654 128.862 37.586C128.518 36.9066 128.347 36.1128 128.347 35.2044C128.347 34.296 128.518 33.5002 128.862 32.817C129.209 32.1338 129.698 31.6033 130.327 31.2255C130.957 30.8476 131.701 30.6587 132.56 30.6587C133.419 30.6587 134.163 30.8476 134.793 31.2255C135.423 31.6033 135.909 32.1338 136.253 32.817C136.6 33.5002 136.774 34.296 136.774 35.2044C136.774 36.1128 136.6 36.9066 136.253 37.586C135.909 38.2654 135.423 38.794 134.793 39.1719C134.163 39.5497 133.419 39.7386 132.56 39.7386ZM132.572 38.0784C133.037 38.0784 133.427 37.9505 133.74 37.6948C134.052 37.4353 134.285 37.0879 134.438 36.6528C134.594 36.2177 134.673 35.733 134.673 35.1987C134.673 34.6605 134.594 34.1739 134.438 33.7388C134.285 33.2999 134.052 32.9506 133.74 32.6911C133.427 32.4316 133.037 32.3018 132.572 32.3018C132.095 32.3018 131.698 32.4316 131.381 32.6911C131.068 32.9506 130.833 33.2999 130.677 33.7388C130.524 34.1739 130.448 34.6605 130.448 35.1987C130.448 35.733 130.524 36.2177 130.677 36.6528C130.833 37.0879 131.068 37.4353 131.381 37.6948C131.698 37.9505 132.095 38.0784 132.572 38.0784ZM140.605 34.4143V39.5669H138.533V30.7732H140.514V32.2674H140.617C140.819 31.7751 141.142 31.3839 141.584 31.0938C142.031 30.8037 142.582 30.6587 143.239 30.6587C143.846 30.6587 144.374 30.7885 144.825 31.048C145.279 31.3075 145.63 31.6835 145.878 32.1758C146.13 32.6682 146.254 33.2655 146.25 33.9678V39.5669H144.178V34.2884C144.178 33.7006 144.025 33.2407 143.72 32.9086C143.418 32.5766 143 32.4106 142.466 32.4106C142.103 32.4106 141.781 32.4907 141.498 32.651C141.22 32.8075 141 33.0346 140.84 33.3323C140.684 33.63 140.605 33.9907 140.605 34.4143ZM158.82 31.0652C158.766 30.5652 158.541 30.1759 158.144 29.8973C157.751 29.6186 157.239 29.4793 156.61 29.4793C156.167 29.4793 155.787 29.5461 155.47 29.6797C155.154 29.8133 154.911 29.9946 154.743 30.2236C154.575 30.4526 154.49 30.714 154.486 31.0079C154.486 31.2522 154.541 31.464 154.652 31.6434C154.766 31.8228 154.921 31.9755 155.115 32.1014C155.31 32.2235 155.526 32.3266 155.762 32.4106C155.999 32.4945 156.238 32.5651 156.478 32.6224L157.577 32.8972C158.02 33.0002 158.446 33.1396 158.854 33.3151C159.266 33.4907 159.634 33.7121 159.959 33.9792C160.287 34.2464 160.547 34.5689 160.738 34.9468C160.928 35.3246 161.024 35.7674 161.024 36.275C161.024 36.962 160.848 37.5669 160.497 38.0898C160.146 38.6089 159.638 39.0154 158.974 39.3093C158.314 39.5993 157.514 39.7444 156.575 39.7444C155.663 39.7444 154.871 39.6032 154.199 39.3207C153.532 39.0383 153.009 38.6261 152.631 38.0841C152.257 37.5421 152.054 36.8818 152.024 36.1032H154.114C154.144 36.5116 154.27 36.8513 154.491 37.1223C154.713 37.3933 155.001 37.5956 155.356 37.7291C155.715 37.8627 156.115 37.9295 156.558 37.9295C157.02 37.9295 157.425 37.8608 157.772 37.7234C158.123 37.5822 158.398 37.3876 158.596 37.1395C158.795 36.8876 158.896 36.5937 158.9 36.2578C158.896 35.9525 158.806 35.7006 158.631 35.5021C158.455 35.2998 158.209 35.1319 157.892 34.9983C157.579 34.8609 157.213 34.7388 156.793 34.6319L155.459 34.2884C154.493 34.0403 153.73 33.6644 153.169 33.1605C152.612 32.6529 152.333 31.9793 152.333 31.1396C152.333 30.4488 152.52 29.8438 152.894 29.3247C153.272 28.8057 153.785 28.403 154.434 28.1168C155.083 27.8267 155.818 27.6817 156.638 27.6817C157.47 27.6817 158.199 27.8267 158.825 28.1168C159.455 28.403 159.949 28.8019 160.308 29.3133C160.667 29.8209 160.852 30.4049 160.863 31.0652H158.82ZM164.114 42.8645C163.831 42.8645 163.57 42.8416 163.33 42.7958C163.093 42.7538 162.904 42.7042 162.763 42.647L163.244 41.0325C163.545 41.1203 163.814 41.1623 164.051 41.1585C164.288 41.1546 164.496 41.0802 164.675 40.9352C164.858 40.794 165.013 40.5573 165.139 40.2253L165.316 39.7501L162.127 30.7732H164.326L166.352 37.4143H166.444L168.476 30.7732H170.681L167.16 40.6318C166.995 41.0974 166.778 41.4962 166.507 41.8283C166.236 42.1642 165.904 42.4199 165.511 42.5955C165.121 42.7748 164.656 42.8645 164.114 42.8645ZM174.187 34.4143V39.5669H172.115V30.7732H174.096V32.2674H174.199C174.401 31.7751 174.723 31.3839 175.166 31.0938C175.613 30.8037 176.164 30.6587 176.821 30.6587C177.428 30.6587 177.956 30.7885 178.407 31.048C178.861 31.3075 179.212 31.6835 179.46 32.1758C179.712 32.6682 179.836 33.2655 179.832 33.9678V39.5669H177.76V34.2884C177.76 33.7006 177.607 33.2407 177.302 32.9086C177 32.5766 176.582 32.4106 176.048 32.4106C175.685 32.4106 175.363 32.4907 175.08 32.651C174.802 32.8075 174.582 33.0346 174.422 33.3323C174.265 33.63 174.187 33.9907 174.187 34.4143ZM185.775 39.7386C184.897 39.7386 184.143 39.5459 183.513 39.1604C182.887 38.7749 182.405 38.2425 182.065 37.5631C181.729 36.8799 181.561 36.0937 181.561 35.2044C181.561 34.3113 181.733 33.5231 182.076 32.8399C182.42 32.1529 182.904 31.6186 183.53 31.2369C184.16 30.8514 184.904 30.6587 185.763 30.6587C186.477 30.6587 187.109 30.7904 187.658 31.0537C188.212 31.3133 188.652 31.6816 188.981 32.1587C189.309 32.6319 189.496 33.1854 189.542 33.8189H187.561C187.481 33.3953 187.29 33.0422 186.988 32.7598C186.691 32.4735 186.292 32.3304 185.792 32.3304C185.368 32.3304 184.996 32.4449 184.675 32.6739C184.355 32.8991 184.105 33.2235 183.925 33.6472C183.75 34.0708 183.662 34.5785 183.662 35.17C183.662 35.7693 183.75 36.2845 183.925 36.7158C184.101 37.1433 184.347 37.4734 184.664 37.7062C184.985 37.9353 185.361 38.0498 185.792 38.0498C186.097 38.0498 186.37 37.9925 186.611 37.878C186.855 37.7597 187.059 37.5898 187.223 37.3685C187.387 37.1471 187.5 36.878 187.561 36.5612H189.542C189.492 37.1834 189.309 37.7349 188.992 38.2158C188.675 38.6929 188.244 39.0669 187.698 39.3379C187.152 39.6051 186.511 39.7386 185.775 39.7386Z" fill="#0E0E1E"/>
<g clip-path="url(#clip0_4214_19161)">
<rect x="273.625" y="21.7407" width="40.5569" height="24.6523" rx="12.3261" fill="#787880" fill-opacity="0.32"/>
<g filter="url(#filter1_ddd_4214_19161)">
<rect x="275.215" y="22.6074" width="21.4713" height="21.4713" rx="10.7357" fill="white"/>
</g>
</g>
<path d="M23.9427 61.7594C23.8826 61.2517 23.6388 60.8577 23.2114 60.5771C22.7839 60.2966 22.2596 60.1563 21.6384 60.1563C21.1842 60.1563 20.7868 60.2298 20.4462 60.3768C20.1089 60.5237 19.845 60.7258 19.6547 60.9829C19.4677 61.2401 19.3741 61.5323 19.3741 61.8596C19.3741 62.1334 19.4393 62.3688 19.5695 62.5659C19.7031 62.7596 19.8734 62.9216 20.0805 63.0518C20.2875 63.1787 20.5046 63.2839 20.7317 63.3674C20.9588 63.4475 21.1675 63.5127 21.3579 63.5628L22.3998 63.8433C22.667 63.9134 22.9642 64.0103 23.2915 64.1338C23.6221 64.2574 23.9377 64.4261 24.2383 64.6398C24.5422 64.8502 24.7927 65.1207 24.9897 65.4513C25.1868 65.7819 25.2853 66.1877 25.2853 66.6686C25.2853 67.223 25.14 67.7239 24.8495 68.1714C24.5622 68.619 24.1415 68.9746 23.5871 69.2385C23.036 69.5023 22.3664 69.6342 21.5783 69.6342C20.8436 69.6342 20.2074 69.5156 19.6697 69.2785C19.1354 69.0414 18.7146 68.7108 18.4073 68.2867C18.1034 67.8625 17.9314 67.3699 17.8914 66.8089H19.1738C19.2072 67.1963 19.3374 67.5169 19.5645 67.7707C19.7949 68.0212 20.0855 68.2082 20.4361 68.3317C20.7901 68.452 21.1709 68.5121 21.5783 68.5121C22.0525 68.5121 22.4783 68.4353 22.8557 68.2816C23.2331 68.1247 23.532 67.9076 23.7524 67.6304C23.9728 67.3499 24.083 67.0226 24.083 66.6486C24.083 66.3079 23.9878 66.0307 23.7975 65.817C23.6071 65.6033 23.3566 65.4296 23.0461 65.296C22.7355 65.1624 22.3998 65.0456 22.0392 64.9454L20.7768 64.5847C19.9753 64.3543 19.3407 64.0253 18.8732 63.5978C18.4057 63.1704 18.1719 62.611 18.1719 61.9197C18.1719 61.3453 18.3272 60.8443 18.6378 60.4168C18.9517 59.986 19.3725 59.6521 19.9001 59.415C20.4311 59.1745 21.0239 59.0543 21.6785 59.0543C22.3397 59.0543 22.9275 59.1728 23.4418 59.4099C23.9561 59.6437 24.3635 59.9643 24.6641 60.3718C24.968 60.7792 25.1283 61.2417 25.145 61.7594H23.9427ZM30.5139 61.7594V62.7613H26.5264V61.7594H30.5139ZM27.6886 59.9159H28.8708V67.2497C28.8708 67.5837 28.9192 67.8341 29.0161 68.0011C29.1162 68.1648 29.2431 68.275 29.3968 68.3317C29.5537 68.3852 29.719 68.4119 29.8927 68.4119C30.0229 68.4119 30.1298 68.4052 30.2133 68.3919C30.2968 68.3752 30.3636 68.3618 30.4137 68.3518L30.6541 69.4138C30.574 69.4438 30.4621 69.4739 30.3185 69.504C30.1749 69.5373 29.9929 69.554 29.7725 69.554C29.4385 69.554 29.1112 69.4822 28.7906 69.3386C28.4734 69.195 28.2095 68.9763 27.9991 68.6824C27.7921 68.3885 27.6886 68.0178 27.6886 67.5703V59.9159ZM32.2922 69.4539V61.7594H33.4344V62.9216H33.5145C33.6548 62.5408 33.9086 62.2319 34.276 61.9948C34.6433 61.7577 35.0574 61.6391 35.5183 61.6391C35.6051 61.6391 35.7137 61.6408 35.8439 61.6441C35.9742 61.6475 36.0727 61.6525 36.1395 61.6592V62.8614C36.0994 62.8514 36.0076 62.8364 35.8639 62.8164C35.7237 62.793 35.5751 62.7813 35.4181 62.7813C35.0441 62.7813 34.7101 62.8598 34.4162 63.0167C34.1257 63.1704 33.8952 63.3841 33.7249 63.6579C33.5579 63.9285 33.4744 64.2374 33.4744 64.5847V69.4539H32.2922ZM40.5327 69.6142C39.7913 69.6142 39.1518 69.4505 38.6141 69.1232C38.0798 68.7926 37.6673 68.3317 37.3768 67.7406C37.0896 67.1462 36.946 66.4549 36.946 65.6667C36.946 64.8786 37.0896 64.1839 37.3768 63.5828C37.6673 62.9783 38.0714 62.5074 38.5891 62.1701C39.1101 61.8295 39.7179 61.6592 40.4125 61.6592C40.8133 61.6592 41.209 61.726 41.5998 61.8596C41.9905 61.9931 42.3462 62.2102 42.6668 62.5108C42.9874 62.808 43.2428 63.2021 43.4332 63.693C43.6236 64.1839 43.7187 64.7884 43.7187 65.5064V66.0074H37.7876V64.9854H42.5165C42.5165 64.5513 42.4296 64.1639 42.256 63.8233C42.0857 63.4826 41.8419 63.2138 41.5246 63.0167C41.2107 62.8197 40.84 62.7212 40.4125 62.7212C39.9416 62.7212 39.5342 62.8381 39.1902 63.0718C38.8496 63.3023 38.5874 63.6028 38.4037 63.9735C38.2201 64.3442 38.1282 64.7416 38.1282 65.1658V65.8471C38.1282 66.4282 38.2284 66.9208 38.4288 67.3248C38.6325 67.7256 38.9147 68.0312 39.2754 68.2416C39.6361 68.4486 40.0552 68.5522 40.5327 68.5522C40.8433 68.5522 41.1239 68.5087 41.3743 68.4219C41.6281 68.3317 41.8469 68.1982 42.0306 68.0212C42.2142 67.8408 42.3562 67.6171 42.4564 67.3499L43.5985 67.6705C43.4783 68.0579 43.2762 68.3985 42.9924 68.6924C42.7085 68.983 42.3578 69.2101 41.9404 69.3737C41.5229 69.534 41.0537 69.6142 40.5327 69.6142ZM47.7814 69.6342C47.2938 69.6342 46.8513 69.5424 46.4539 69.3587C46.0565 69.1717 45.7409 68.9028 45.5071 68.5522C45.2733 68.1982 45.1564 67.7707 45.1564 67.2697C45.1564 66.8289 45.2433 66.4716 45.4169 66.1977C45.5906 65.9205 45.8227 65.7035 46.1132 65.5465C46.4038 65.3895 46.7244 65.2726 47.0751 65.1958C47.4291 65.1157 47.7847 65.0522 48.1421 65.0055C48.6096 64.9454 48.9887 64.9003 49.2792 64.8702C49.5731 64.8368 49.7868 64.7817 49.9204 64.7049C50.0573 64.6281 50.1258 64.4945 50.1258 64.3042V64.2641C50.1258 63.7698 49.9906 63.3858 49.72 63.1119C49.4529 62.8381 49.0471 62.7011 48.5027 62.7011C47.9384 62.7011 47.4959 62.8247 47.1752 63.0718C46.8546 63.319 46.6292 63.5828 46.499 63.8633L45.3769 63.4626C45.5772 62.995 45.8444 62.631 46.1784 62.3705C46.5157 62.1067 46.883 61.923 47.2804 61.8195C47.6812 61.7126 48.0753 61.6592 48.4627 61.6592C48.7098 61.6592 48.9937 61.6892 49.3143 61.7493C49.6382 61.8061 49.9505 61.9247 50.251 62.105C50.5549 62.2854 50.8071 62.5575 51.0075 62.9216C51.2078 63.2856 51.308 63.7732 51.308 64.3843V69.4539H50.1258V68.4119H50.0657C49.9855 68.5789 49.852 68.7575 49.6649 68.9479C49.4779 69.1383 49.2291 69.3002 48.9185 69.4338C48.6079 69.5674 48.2289 69.6342 47.7814 69.6342ZM47.9617 68.5722C48.4293 68.5722 48.8234 68.4804 49.144 68.2967C49.4679 68.113 49.7117 67.8759 49.8753 67.5853C50.0423 67.2948 50.1258 66.9892 50.1258 66.6686V65.5866C50.0757 65.6467 49.9655 65.7018 49.7952 65.7519C49.6282 65.7986 49.4345 65.8404 49.2141 65.8771C48.997 65.9105 48.7849 65.9406 48.5779 65.9673C48.3742 65.9907 48.2089 66.0107 48.082 66.0274C47.7747 66.0675 47.4875 66.1326 47.2203 66.2228C46.9565 66.3096 46.7428 66.4415 46.5791 66.6185C46.4188 66.7922 46.3387 67.0293 46.3387 67.3299C46.3387 67.7406 46.4906 68.0512 46.7945 68.2616C47.1018 68.4687 47.4908 68.5722 47.9617 68.5722ZM53.4658 69.4539V61.7594H54.608V62.9616H54.7082C54.8685 62.5509 55.1273 62.2319 55.4846 62.0048C55.842 61.7744 56.2711 61.6592 56.7721 61.6592C57.2797 61.6592 57.7022 61.7744 58.0395 62.0048C58.3801 62.2319 58.6456 62.5509 58.836 62.9616H58.9161C59.1131 62.5642 59.4087 62.2486 59.8028 62.0148C60.1969 61.7777 60.6694 61.6592 61.2204 61.6592C61.9084 61.6592 62.4711 61.8746 62.9086 62.3054C63.3461 62.7329 63.5649 63.3991 63.5649 64.3042V69.4539H62.3826V64.3042C62.3826 63.7364 62.2273 63.3307 61.9168 63.0869C61.6062 62.8431 61.2405 62.7212 60.8197 62.7212C60.2787 62.7212 59.8596 62.8848 59.5623 63.2121C59.2651 63.536 59.1165 63.9468 59.1165 64.4444V69.4539H57.9142V64.1839C57.9142 63.7464 57.7723 63.3941 57.4884 63.1269C57.2046 62.8564 56.8389 62.7212 56.3914 62.7212C56.0841 62.7212 55.7969 62.803 55.5297 62.9666C55.2659 63.1303 55.0522 63.3574 54.8885 63.6479C54.7282 63.9351 54.6481 64.2674 54.6481 64.6448V69.4539H53.4658ZM66.9087 59.1945V69.4539H65.7264V59.1945H66.9087ZM69.074 69.4539V61.7594H70.2562V69.4539H69.074ZM69.6751 60.477C69.4447 60.477 69.246 60.3985 69.079 60.2415C68.9154 60.0845 68.8335 59.8959 68.8335 59.6754C68.8335 59.455 68.9154 59.2663 69.079 59.1094C69.246 58.9524 69.4447 58.8739 69.6751 58.8739C69.9056 58.8739 70.1026 58.9524 70.2662 59.1094C70.4332 59.2663 70.5167 59.455 70.5167 59.6754C70.5167 59.8959 70.4332 60.0845 70.2662 60.2415C70.1026 60.3985 69.9056 60.477 69.6751 60.477ZM73.6038 64.8251V69.4539H72.4215V61.7594H73.5637V62.9616H73.6639C73.8442 62.5709 74.1181 62.257 74.4854 62.0199C74.8528 61.7794 75.327 61.6592 75.9081 61.6592C76.4291 61.6592 76.885 61.766 77.2757 61.9798C77.6664 62.1902 77.9703 62.5108 78.1874 62.9416C78.4045 63.3691 78.513 63.9101 78.513 64.5647V69.4539H77.3308V64.6448C77.3308 64.0403 77.1738 63.5694 76.8599 63.2321C76.546 62.8915 76.1152 62.7212 75.5675 62.7212C75.1901 62.7212 74.8528 62.803 74.5556 62.9666C74.2617 63.1303 74.0296 63.3691 73.8593 63.683C73.6889 63.9969 73.6038 64.3776 73.6038 64.8251ZM83.8994 69.6142C83.158 69.6142 82.5185 69.4505 81.9808 69.1232C81.4465 68.7926 81.034 68.3317 80.7435 67.7406C80.4563 67.1462 80.3127 66.4549 80.3127 65.6667C80.3127 64.8786 80.4563 64.1839 80.7435 63.5828C81.034 62.9783 81.4381 62.5074 81.9557 62.1701C82.4767 61.8295 83.0845 61.6592 83.7792 61.6592C84.1799 61.6592 84.5757 61.726 84.9664 61.8596C85.3572 61.9931 85.7128 62.2102 86.0334 62.5108C86.354 62.808 86.6095 63.2021 86.7999 63.693C86.9902 64.1839 87.0854 64.7884 87.0854 65.5064V66.0074H81.1542V64.9854H85.8831C85.8831 64.5513 85.7963 64.1639 85.6227 63.8233C85.4523 63.4826 85.2085 63.2138 84.8913 63.0167C84.5774 62.8197 84.2067 62.7212 83.7792 62.7212C83.3083 62.7212 82.9009 62.8381 82.5569 63.0718C82.2162 63.3023 81.9541 63.6028 81.7704 63.9735C81.5867 64.3442 81.4949 64.7416 81.4949 65.1658V65.8471C81.4949 66.4282 81.5951 66.9208 81.7954 67.3248C81.9992 67.7256 82.2814 68.0312 82.642 68.2416C83.0027 68.4486 83.4218 68.5522 83.8994 68.5522C84.21 68.5522 84.4905 68.5087 84.741 68.4219C84.9948 68.3317 85.2136 68.1982 85.3972 68.0212C85.5809 67.8408 85.7228 67.6171 85.823 67.3499L86.9652 67.6705C86.845 68.0579 86.6429 68.3985 86.359 68.6924C86.0752 68.983 85.7245 69.2101 85.3071 69.3737C84.8896 69.534 84.4204 69.6142 83.8994 69.6142ZM92.1299 59.1945H93.5526L96.398 63.9836H96.5182L99.3635 59.1945H100.786L97.0792 65.2259V69.4539H95.8369V65.2259L92.1299 59.1945ZM104.27 69.6142C103.576 69.6142 102.966 69.4488 102.442 69.1182C101.921 68.7876 101.513 68.3251 101.22 67.7306C100.929 67.1362 100.784 66.4415 100.784 65.6467C100.784 64.8452 100.929 64.1455 101.22 63.5477C101.513 62.9499 101.921 62.4857 102.442 62.1551C102.966 61.8245 103.576 61.6592 104.27 61.6592C104.965 61.6592 105.573 61.8245 106.094 62.1551C106.618 62.4857 107.025 62.9499 107.316 63.5477C107.61 64.1455 107.757 64.8452 107.757 65.6467C107.757 66.4415 107.61 67.1362 107.316 67.7306C107.025 68.3251 106.618 68.7876 106.094 69.1182C105.573 69.4488 104.965 69.6142 104.27 69.6142ZM104.27 68.5522C104.798 68.5522 105.232 68.4169 105.573 68.1464C105.913 67.8759 106.166 67.5202 106.329 67.0794C106.493 66.6386 106.575 66.161 106.575 65.6467C106.575 65.1324 106.493 64.6531 106.329 64.209C106.166 63.7648 105.913 63.4058 105.573 63.132C105.232 62.8581 104.798 62.7212 104.27 62.7212C103.743 62.7212 103.308 62.8581 102.968 63.132C102.627 63.4058 102.375 63.7648 102.211 64.209C102.048 64.6531 101.966 65.1324 101.966 65.6467C101.966 66.161 102.048 66.6386 102.211 67.0794C102.375 67.5202 102.627 67.8759 102.968 68.1464C103.308 68.4169 103.743 68.5522 104.27 68.5522ZM114.411 66.3079V61.7594H115.593V69.4539H114.411V68.1514H114.33C114.15 68.5421 113.87 68.8744 113.489 69.1483C113.108 69.4188 112.627 69.554 112.046 69.554C111.565 69.554 111.138 69.4488 110.764 69.2385C110.39 69.0247 110.096 68.7041 109.882 68.2766C109.668 67.8458 109.561 67.3031 109.561 66.6486V61.7594H110.744V66.5684C110.744 67.1295 110.901 67.577 111.215 67.911C111.532 68.2449 111.936 68.4119 112.427 68.4119C112.721 68.4119 113.02 68.3368 113.324 68.1865C113.631 68.0362 113.888 67.8058 114.095 67.4952C114.305 67.1846 114.411 66.7888 114.411 66.3079ZM117.758 69.4539V61.7594H118.9V62.9216H118.98C119.121 62.5408 119.375 62.2319 119.742 61.9948C120.109 61.7577 120.523 61.6391 120.984 61.6391C121.071 61.6391 121.18 61.6408 121.31 61.6441C121.44 61.6475 121.539 61.6525 121.605 61.6592V62.8614C121.565 62.8514 121.474 62.8364 121.33 62.8164C121.19 62.793 121.041 62.7813 120.884 62.7813C120.51 62.7813 120.176 62.8598 119.882 63.0167C119.592 63.1704 119.361 63.3841 119.191 63.6579C119.024 63.9285 118.94 64.2374 118.94 64.5847V69.4539H117.758ZM127.135 69.4539V59.1945H130.601C131.406 59.1945 132.064 59.3398 132.575 59.6304C133.089 59.9176 133.47 60.3066 133.717 60.7976C133.964 61.2885 134.088 61.8362 134.088 62.4407C134.088 63.0451 133.964 63.5945 133.717 64.0888C133.473 64.583 133.096 64.9771 132.585 65.271C132.074 65.5615 131.419 65.7068 130.621 65.7068H128.136V64.6047H130.581C131.132 64.6047 131.575 64.5095 131.909 64.3192C132.243 64.1288 132.485 63.8717 132.635 63.5477C132.789 63.2205 132.865 62.8514 132.865 62.4407C132.865 62.0299 132.789 61.6625 132.635 61.3386C132.485 61.0146 132.241 60.7608 131.904 60.5771C131.566 60.3901 131.119 60.2966 130.561 60.2966H128.377V69.4539H127.135ZM135.929 69.4539V61.7594H137.071V62.9216H137.151C137.291 62.5408 137.545 62.2319 137.912 61.9948C138.28 61.7577 138.694 61.6391 139.155 61.6391C139.242 61.6391 139.35 61.6408 139.48 61.6441C139.611 61.6475 139.709 61.6525 139.776 61.6592V62.8614C139.736 62.8514 139.644 62.8364 139.5 62.8164C139.36 62.793 139.211 62.7813 139.055 62.7813C138.68 62.7813 138.347 62.8598 138.053 63.0167C137.762 63.1704 137.532 63.3841 137.361 63.6579C137.194 63.9285 137.111 64.2374 137.111 64.5847V69.4539H135.929ZM144.069 69.6142C143.374 69.6142 142.765 69.4488 142.241 69.1182C141.72 68.7876 141.312 68.3251 141.018 67.7306C140.728 67.1362 140.582 66.4415 140.582 65.6467C140.582 64.8452 140.728 64.1455 141.018 63.5477C141.312 62.9499 141.72 62.4857 142.241 62.1551C142.765 61.8245 143.374 61.6592 144.069 61.6592C144.764 61.6592 145.371 61.8245 145.892 62.1551C146.417 62.4857 146.824 62.9499 147.115 63.5477C147.409 64.1455 147.556 64.8452 147.556 65.6467C147.556 66.4415 147.409 67.1362 147.115 67.7306C146.824 68.3251 146.417 68.7876 145.892 69.1182C145.371 69.4488 144.764 69.6142 144.069 69.6142ZM144.069 68.5522C144.597 68.5522 145.031 68.4169 145.371 68.1464C145.712 67.8759 145.964 67.5202 146.128 67.0794C146.291 66.6386 146.373 66.161 146.373 65.6467C146.373 65.1324 146.291 64.6531 146.128 64.209C145.964 63.7648 145.712 63.4058 145.371 63.132C145.031 62.8581 144.597 62.7212 144.069 62.7212C143.541 62.7212 143.107 62.8581 142.767 63.132C142.426 63.4058 142.174 63.7648 142.01 64.209C141.846 64.6531 141.765 65.1324 141.765 65.6467C141.765 66.161 141.846 66.6386 142.01 67.0794C142.174 67.5202 142.426 67.8759 142.767 68.1464C143.107 68.4169 143.541 68.5522 144.069 68.5522ZM152.266 69.6142C151.624 69.6142 151.058 69.4522 150.567 69.1282C150.077 68.801 149.692 68.3401 149.415 67.7456C149.138 67.1478 149 66.4415 149 65.6267C149 64.8185 149.138 64.1171 149.415 63.5227C149.692 62.9282 150.078 62.469 150.572 62.1451C151.067 61.8212 151.638 61.6592 152.286 61.6592C152.787 61.6592 153.182 61.7427 153.473 61.9097C153.767 62.0733 153.991 62.2603 154.144 62.4707C154.301 62.6778 154.423 62.8481 154.51 62.9817H154.61V59.1945H155.792V69.4539H154.65V68.2716H154.51C154.423 68.4119 154.299 68.5889 154.139 68.8026C153.979 69.013 153.75 69.2017 153.453 69.3687C153.156 69.5323 152.76 69.6142 152.266 69.6142ZM152.426 68.5522C152.9 68.5522 153.301 68.4286 153.628 68.1815C153.956 67.931 154.204 67.5853 154.375 67.1445C154.545 66.7003 154.63 66.1877 154.63 65.6066C154.63 65.0322 154.547 64.5296 154.38 64.0988C154.213 63.6646 153.966 63.3273 153.638 63.0869C153.311 62.8431 152.907 62.7212 152.426 62.7212C151.925 62.7212 151.508 62.8498 151.174 63.1069C150.843 63.3607 150.594 63.7064 150.427 64.1439C150.264 64.578 150.182 65.0656 150.182 65.6066C150.182 66.1543 150.265 66.6519 150.432 67.0994C150.603 67.5436 150.853 67.8976 151.184 68.1614C151.518 68.4219 151.932 68.5522 152.426 68.5522ZM162.971 66.3079V61.7594H164.153V69.4539H162.971V68.1514H162.891C162.71 68.5421 162.43 68.8744 162.049 69.1483C161.668 69.4188 161.187 69.554 160.606 69.554C160.125 69.554 159.698 69.4488 159.324 69.2385C158.95 69.0247 158.656 68.7041 158.442 68.2766C158.229 67.8458 158.122 67.3031 158.122 66.6486V61.7594H159.304V66.5684C159.304 67.1295 159.461 67.577 159.775 67.911C160.092 68.2449 160.496 68.4119 160.987 68.4119C161.281 68.4119 161.58 68.3368 161.884 68.1865C162.191 68.0362 162.448 67.8058 162.655 67.4952C162.866 67.1846 162.971 66.7888 162.971 66.3079ZM169.444 69.6142C168.723 69.6142 168.102 69.4438 167.581 69.1032C167.06 68.7626 166.659 68.2933 166.378 67.6955C166.098 67.0978 165.958 66.4148 165.958 65.6467C165.958 64.8652 166.101 64.1756 166.388 63.5778C166.679 62.9767 167.083 62.5074 167.601 62.1701C168.122 61.8295 168.73 61.6592 169.424 61.6592C169.965 61.6592 170.453 61.7594 170.887 61.9597C171.321 62.1601 171.677 62.4406 171.954 62.8013C172.231 63.162 172.403 63.5828 172.47 64.0637H171.288C171.198 63.713 170.997 63.4025 170.687 63.132C170.379 62.8581 169.965 62.7212 169.444 62.7212C168.983 62.7212 168.579 62.8414 168.232 63.0819C167.888 63.319 167.619 63.6546 167.425 64.0888C167.235 64.5196 167.14 65.0255 167.14 65.6066C167.14 66.2011 167.233 66.7187 167.42 67.1595C167.611 67.6004 167.878 67.9427 168.222 68.1865C168.569 68.4303 168.977 68.5522 169.444 68.5522C169.751 68.5522 170.03 68.4987 170.281 68.3919C170.531 68.285 170.743 68.1314 170.917 67.931C171.091 67.7306 171.214 67.4902 171.288 67.2096H172.47C172.403 67.6638 172.238 68.0729 171.974 68.4369C171.714 68.7976 171.368 69.0848 170.937 69.2986C170.51 69.509 170.012 69.6142 169.444 69.6142ZM177.545 61.7594V62.7613H173.557V61.7594H177.545ZM174.719 59.9159H175.901V67.2497C175.901 67.5837 175.95 67.8341 176.047 68.0011C176.147 68.1648 176.274 68.275 176.427 68.3317C176.584 68.3852 176.75 68.4119 176.923 68.4119C177.054 68.4119 177.16 68.4052 177.244 68.3919C177.327 68.3752 177.394 68.3618 177.444 68.3518L177.685 69.4138C177.605 69.4438 177.493 69.4739 177.349 69.504C177.206 69.5373 177.024 69.554 176.803 69.554C176.469 69.554 176.142 69.4822 175.821 69.3386C175.504 69.195 175.24 68.9763 175.03 68.6824C174.823 68.3885 174.719 68.0178 174.719 67.5703V59.9159ZM183.451 59.1945H184.933L188.42 67.7106H188.54L192.027 59.1945H193.51V69.4539H192.347V61.6592H192.247L189.041 69.4539H187.919L184.713 61.6592H184.613V69.4539H183.451V59.1945ZM198.104 69.6342C197.617 69.6342 197.174 69.5424 196.777 69.3587C196.38 69.1717 196.064 68.9028 195.83 68.5522C195.596 68.1982 195.48 67.7707 195.48 67.2697C195.48 66.8289 195.566 66.4716 195.74 66.1977C195.914 65.9205 196.146 65.7035 196.436 65.5465C196.727 65.3895 197.047 65.2726 197.398 65.1958C197.752 65.1157 198.108 65.0522 198.465 65.0055C198.933 64.9454 199.312 64.9003 199.602 64.8702C199.896 64.8368 200.11 64.7817 200.244 64.7049C200.38 64.6281 200.449 64.4945 200.449 64.3042V64.2641C200.449 63.7698 200.314 63.3858 200.043 63.1119C199.776 62.8381 199.37 62.7011 198.826 62.7011C198.261 62.7011 197.819 62.8247 197.498 63.0718C197.178 63.319 196.952 63.5828 196.822 63.8633L195.7 63.4626C195.9 62.995 196.167 62.631 196.501 62.3705C196.839 62.1067 197.206 61.923 197.604 61.8195C198.004 61.7126 198.398 61.6592 198.786 61.6592C199.033 61.6592 199.317 61.6892 199.637 61.7493C199.961 61.8061 200.274 61.9247 200.574 62.105C200.878 62.2854 201.13 62.5575 201.331 62.9216C201.531 63.2856 201.631 63.7732 201.631 64.3843V69.4539H200.449V68.4119H200.389C200.309 68.5789 200.175 68.7575 199.988 68.9479C199.801 69.1383 199.552 69.3002 199.242 69.4338C198.931 69.5674 198.552 69.6342 198.104 69.6342ZM198.285 68.5722C198.752 68.5722 199.146 68.4804 199.467 68.2967C199.791 68.113 200.035 67.8759 200.198 67.5853C200.365 67.2948 200.449 66.9892 200.449 66.6686V65.5866C200.399 65.6467 200.289 65.7018 200.118 65.7519C199.951 65.7986 199.758 65.8404 199.537 65.8771C199.32 65.9105 199.108 65.9406 198.901 65.9673C198.697 65.9907 198.532 66.0107 198.405 66.0274C198.098 66.0675 197.811 66.1326 197.543 66.2228C197.28 66.3096 197.066 66.4415 196.902 66.6185C196.742 66.7922 196.662 67.0293 196.662 67.3299C196.662 67.7406 196.814 68.0512 197.118 68.2616C197.425 68.4687 197.814 68.5722 198.285 68.5722ZM204.971 64.8251V69.4539H203.789V61.7594H204.931V62.9616H205.031C205.212 62.5709 205.485 62.257 205.853 62.0199C206.22 61.7794 206.694 61.6592 207.275 61.6592C207.796 61.6592 208.252 61.766 208.643 61.9798C209.034 62.1902 209.338 62.5108 209.555 62.9416C209.772 63.3691 209.88 63.9101 209.88 64.5647V69.4539H208.698V64.6448C208.698 64.0403 208.541 63.5694 208.227 63.2321C207.913 62.8915 207.483 62.7212 206.935 62.7212C206.557 62.7212 206.22 62.803 205.923 62.9666C205.629 63.1303 205.397 63.3691 205.227 63.683C205.056 63.9969 204.971 64.3776 204.971 64.8251ZM214.305 69.6342C213.817 69.6342 213.375 69.5424 212.977 69.3587C212.58 69.1717 212.264 68.9028 212.031 68.5522C211.797 68.1982 211.68 67.7707 211.68 67.2697C211.68 66.8289 211.767 66.4716 211.941 66.1977C212.114 65.9205 212.346 65.7035 212.637 65.5465C212.927 65.3895 213.248 65.2726 213.599 65.1958C213.953 65.1157 214.308 65.0522 214.666 65.0055C215.133 64.9454 215.512 64.9003 215.803 64.8702C216.097 64.8368 216.31 64.7817 216.444 64.7049C216.581 64.6281 216.649 64.4945 216.649 64.3042V64.2641C216.649 63.7698 216.514 63.3858 216.244 63.1119C215.976 62.8381 215.571 62.7011 215.026 62.7011C214.462 62.7011 214.019 62.8247 213.699 63.0718C213.378 63.319 213.153 63.5828 213.023 63.8633L211.9 63.4626C212.101 62.995 212.368 62.631 212.702 62.3705C213.039 62.1067 213.407 61.923 213.804 61.8195C214.205 61.7126 214.599 61.6592 214.986 61.6592C215.233 61.6592 215.517 61.6892 215.838 61.7493C216.162 61.8061 216.474 61.9247 216.775 62.105C217.079 62.2854 217.331 62.5575 217.531 62.9216C217.731 63.2856 217.832 63.7732 217.832 64.3843V69.4539H216.649V68.4119H216.589C216.509 68.5789 216.376 68.7575 216.189 68.9479C216.002 69.1383 215.753 69.3002 215.442 69.4338C215.132 69.5674 214.753 69.6342 214.305 69.6342ZM214.485 68.5722C214.953 68.5722 215.347 68.4804 215.668 68.2967C215.992 68.113 216.235 67.8759 216.399 67.5853C216.566 67.2948 216.649 66.9892 216.649 66.6686V65.5866C216.599 65.6467 216.489 65.7018 216.319 65.7519C216.152 65.7986 215.958 65.8404 215.738 65.8771C215.521 65.9105 215.309 65.9406 215.101 65.9673C214.898 65.9907 214.732 66.0107 214.606 66.0274C214.298 66.0675 214.011 66.1326 213.744 66.2228C213.48 66.3096 213.266 66.4415 213.103 66.6185C212.942 66.7922 212.862 67.0293 212.862 67.3299C212.862 67.7406 213.014 68.0512 213.318 68.2616C213.625 68.4687 214.014 68.5722 214.485 68.5722ZM223.095 72.4996C222.524 72.4996 222.033 72.4261 221.623 72.2792C221.212 72.1356 220.869 71.9452 220.596 71.7081C220.325 71.4743 220.11 71.2239 219.949 70.9567L220.891 70.2954C220.998 70.4357 221.133 70.596 221.297 70.7763C221.461 70.96 221.684 71.1187 221.968 71.2522C222.255 71.3892 222.631 71.4576 223.095 71.4576C223.716 71.4576 224.229 71.3073 224.633 71.0068C225.037 70.7062 225.239 70.2353 225.239 69.5941V68.0312H225.139C225.052 68.1714 224.929 68.3451 224.768 68.5522C224.611 68.7559 224.384 68.9379 224.087 69.0982C223.793 69.2551 223.396 69.3336 222.895 69.3336C222.274 69.3336 221.716 69.1867 221.222 68.8928C220.731 68.5989 220.342 68.1714 220.055 67.6104C219.771 67.0493 219.629 66.368 219.629 65.5665C219.629 64.7784 219.767 64.0921 220.045 63.5077C220.322 62.9199 220.707 62.4657 221.202 62.1451C221.696 61.8212 222.267 61.6592 222.915 61.6592C223.416 61.6592 223.813 61.7427 224.107 61.9097C224.404 62.0733 224.632 62.2603 224.788 62.4707C224.949 62.6778 225.072 62.8481 225.159 62.9817H225.279V61.7594H226.422V69.6743C226.422 70.3355 226.271 70.8732 225.971 71.2873C225.673 71.7048 225.273 72.0103 224.768 72.204C224.268 72.4011 223.71 72.4996 223.095 72.4996ZM223.055 68.2716C223.529 68.2716 223.93 68.1631 224.257 67.946C224.585 67.7289 224.834 67.4167 225.004 67.0093C225.174 66.6018 225.259 66.1142 225.259 65.5465C225.259 64.9921 225.176 64.5029 225.009 64.0787C224.842 63.6546 224.595 63.3223 224.268 63.0819C223.94 62.8414 223.536 62.7212 223.055 62.7212C222.554 62.7212 222.137 62.8481 221.803 63.1019C221.472 63.3557 221.223 63.6963 221.056 64.1238C220.893 64.5513 220.811 65.0255 220.811 65.5465C220.811 66.0808 220.894 66.5534 221.061 66.9642C221.232 67.3716 221.482 67.6922 221.813 67.926C222.147 68.1564 222.561 68.2716 223.055 68.2716ZM231.812 69.6142C231.07 69.6142 230.431 69.4505 229.893 69.1232C229.359 68.7926 228.946 68.3317 228.656 67.7406C228.369 67.1462 228.225 66.4549 228.225 65.6667C228.225 64.8786 228.369 64.1839 228.656 63.5828C228.946 62.9783 229.35 62.5074 229.868 62.1701C230.389 61.8295 230.997 61.6592 231.691 61.6592C232.092 61.6592 232.488 61.726 232.879 61.8596C233.269 61.9931 233.625 62.2102 233.946 62.5108C234.266 62.808 234.522 63.2021 234.712 63.693C234.903 64.1839 234.998 64.7884 234.998 65.5064V66.0074H229.067V64.9854H233.795C233.795 64.5513 233.709 64.1639 233.535 63.8233C233.365 63.4826 233.121 63.2138 232.804 63.0167C232.49 62.8197 232.119 62.7212 231.691 62.7212C231.221 62.7212 230.813 62.8381 230.469 63.0718C230.129 63.3023 229.866 63.6028 229.683 63.9735C229.499 64.3442 229.407 64.7416 229.407 65.1658V65.8471C229.407 66.4282 229.507 66.9208 229.708 67.3248C229.911 67.7256 230.194 68.0312 230.554 68.2416C230.915 68.4486 231.334 68.5522 231.812 68.5522C232.122 68.5522 232.403 68.5087 232.653 68.4219C232.907 68.3317 233.126 68.1982 233.31 68.0212C233.493 67.8408 233.635 67.6171 233.735 67.3499L234.877 67.6705C234.757 68.0579 234.555 68.3985 234.271 68.6924C233.987 68.983 233.637 69.2101 233.219 69.3737C232.802 69.534 232.333 69.6142 231.812 69.6142ZM236.796 69.4539V61.7594H237.938V62.9616H238.038C238.199 62.5509 238.458 62.2319 238.815 62.0048C239.172 61.7744 239.601 61.6592 240.102 61.6592C240.61 61.6592 241.032 61.7744 241.37 62.0048C241.71 62.2319 241.976 62.5509 242.166 62.9616H242.246C242.443 62.5642 242.739 62.2486 243.133 62.0148C243.527 61.7777 244 61.6592 244.551 61.6592C245.239 61.6592 245.801 61.8746 246.239 62.3054C246.676 62.7329 246.895 63.3991 246.895 64.3042V69.4539H245.713V64.3042C245.713 63.7364 245.558 63.3307 245.247 63.0869C244.936 62.8431 244.571 62.7212 244.15 62.7212C243.609 62.7212 243.19 62.8848 242.893 63.2121C242.595 63.536 242.447 63.9468 242.447 64.4444V69.4539H241.244V64.1839C241.244 63.7464 241.103 63.3941 240.819 63.1269C240.535 62.8564 240.169 62.7212 239.722 62.7212C239.414 62.7212 239.127 62.803 238.86 62.9666C238.596 63.1303 238.382 63.3574 238.219 63.6479C238.058 63.9351 237.978 64.2674 237.978 64.6448V69.4539H236.796ZM252.283 69.6142C251.541 69.6142 250.902 69.4505 250.364 69.1232C249.83 68.7926 249.417 68.3317 249.127 67.7406C248.84 67.1462 248.696 66.4549 248.696 65.6667C248.696 64.8786 248.84 64.1839 249.127 63.5828C249.417 62.9783 249.821 62.5074 250.339 62.1701C250.86 61.8295 251.468 61.6592 252.163 61.6592C252.563 61.6592 252.959 61.726 253.35 61.8596C253.74 61.9931 254.096 62.2102 254.417 62.5108C254.737 62.808 254.993 63.2021 255.183 63.693C255.374 64.1839 255.469 64.7884 255.469 65.5064V66.0074H249.538V64.9854H254.266C254.266 64.5513 254.18 64.1639 254.006 63.8233C253.836 63.4826 253.592 63.2138 253.275 63.0167C252.961 62.8197 252.59 62.7212 252.163 62.7212C251.692 62.7212 251.284 62.8381 250.94 63.0718C250.6 63.3023 250.337 63.6028 250.154 63.9735C249.97 64.3442 249.878 64.7416 249.878 65.1658V65.8471C249.878 66.4282 249.978 66.9208 250.179 67.3248C250.383 67.7256 250.665 68.0312 251.025 68.2416C251.386 68.4486 251.805 68.5522 252.283 68.5522C252.593 68.5522 252.874 68.5087 253.124 68.4219C253.378 68.3317 253.597 68.1982 253.781 68.0212C253.964 67.8408 254.106 67.6171 254.206 67.3499L255.349 67.6705C255.228 68.0579 255.026 68.3985 254.742 68.6924C254.459 68.983 254.108 69.2101 253.69 69.3737C253.273 69.534 252.804 69.6142 252.283 69.6142ZM258.449 64.8251V69.4539H257.267V61.7594H258.409V62.9616H258.509C258.69 62.5709 258.964 62.257 259.331 62.0199C259.698 61.7794 260.173 61.6592 260.754 61.6592C261.275 61.6592 261.731 61.766 262.121 61.9798C262.512 62.1902 262.816 62.5108 263.033 62.9416C263.25 63.3691 263.359 63.9101 263.359 64.5647V69.4539H262.176V64.6448C262.176 64.0403 262.019 63.5694 261.706 63.2321C261.392 62.8915 260.961 62.7212 260.413 62.7212C260.036 62.7212 259.698 62.803 259.401 62.9666C259.107 63.1303 258.875 63.3691 258.705 63.683C258.535 63.9969 258.449 64.3776 258.449 64.8251ZM268.865 61.7594V62.7613H264.878V61.7594H268.865ZM266.04 59.9159H267.222V67.2497C267.222 67.5837 267.271 67.8341 267.367 68.0011C267.468 68.1648 267.595 68.275 267.748 68.3317C267.905 68.3852 268.07 68.4119 268.244 68.4119C268.374 68.4119 268.481 68.4052 268.565 68.3919C268.648 68.3752 268.715 68.3618 268.765 68.3518L269.006 69.4138C268.925 69.4438 268.813 69.4739 268.67 69.504C268.526 69.5373 268.344 69.554 268.124 69.554C267.79 69.554 267.463 69.4822 267.142 69.3386C266.825 69.195 266.561 68.9763 266.351 68.6824C266.143 68.3885 266.04 68.0178 266.04 67.5703V59.9159Z" fill="#71737C"/>
</g>
<defs>
<filter id="filter0_dddd_4214_19161" x="0.738658" y="0.29222" width="394.724" height="130.766" filterUnits="userSpaceOnUse" color-interpolation-filters="sRGB">
<feFlood flood-opacity="0" result="BackgroundImageFix"/>
<feColorMatrix in="SourceAlpha" type="matrix" values="0 0 0 0 0 0 0 0 0 0 0 0 0 0 0 0 0 0 127 0" result="hardAlpha"/>
<feOffset dx="2.13067" dy="1.06533"/>
<feGaussianBlur stdDeviation="3.19601"/>
<feColorMatrix type="matrix" values="0 0 0 0 0.85098 0 0 0 0 0.85098 0 0 0 0 0.85098 0 0 0 0.1 0"/>
<feBlend mode="normal" in2="BackgroundImageFix" result="effect1_dropShadow_4214_19161"/>
<feColorMatrix in="SourceAlpha" type="matrix" values="0 0 0 0 0 0 0 0 0 0 0 0 0 0 0 0 0 0 127 0" result="hardAlpha"/>
<feOffset dx="9.58801" dy="5.32668"/>
<feGaussianBlur stdDeviation="5.32668"/>
<feColorMatrix type="matrix" values="0 0 0 0 0.85098 0 0 0 0 0.85098 0 0 0 0 0.85098 0 0 0 0.09 0"/>
<feBlend mode="normal" in2="effect1_dropShadow_4214_19161" result="effect2_dropShadow_4214_19161"/>
<feColorMatrix in="SourceAlpha" type="matrix" values="0 0 0 0 0 0 0 0 0 0 0 0 0 0 0 0 0 0 127 0" result="hardAlpha"/>
<feOffset dx="21.3067" dy="12.784"/>
<feGaussianBlur stdDeviation="7.45735"/>
<feColorMatrix type="matrix" values="0 0 0 0 0.85098 0 0 0 0 0.85098 0 0 0 0 0.85098 0 0 0 0.05 0"/>
<feBlend mode="normal" in2="effect2_dropShadow_4214_19161" result="effect3_dropShadow_4214_19161"/>
<feColorMatrix in="SourceAlpha" type="matrix" values="0 0 0 0 0 0 0 0 0 0 0 0 0 0 0 0 0 0 127 0" result="hardAlpha"/>
<feOffset dx="38.3521" dy="22.372"/>
<feGaussianBlur stdDeviation="9.05535"/>
<feColorMatrix type="matrix" values="0 0 0 0 0.85098 0 0 0 0 0.85098 0 0 0 0 0.85098 0 0 0 0.01 0"/>
<feBlend mode="normal" in2="effect3_dropShadow_4214_19161" result="effect4_dropShadow_4214_19161"/>
<feBlend mode="normal" in="SourceGraphic" in2="effect4_dropShadow_4214_19161" result="shape"/>
</filter>
<filter id="filter1_ddd_4214_19161" x="268.853" y="18.6313" width="34.1964" height="34.1952" filterUnits="userSpaceOnUse" color-interpolation-filters="sRGB">
<feFlood flood-opacity="0" result="BackgroundImageFix"/>
<feColorMatrix in="SourceAlpha" type="matrix" values="0 0 0 0 0 0 0 0 0 0 0 0 0 0 0 0 0 0 127 0" result="hardAlpha"/>
<feOffset dy="2.3857"/>
<feGaussianBlur stdDeviation="0.397617"/>
<feComposite in2="hardAlpha" operator="out"/>
<feColorMatrix type="matrix" values="0 0 0 0 0 0 0 0 0 0 0 0 0 0 0 0 0 0 0.06 0"/>
<feBlend mode="normal" in2="BackgroundImageFix" result="effect1_dropShadow_4214_19161"/>
<feColorMatrix in="SourceAlpha" type="matrix" values="0 0 0 0 0 0 0 0 0 0 0 0 0 0 0 0 0 0 127 0" result="hardAlpha"/>
<feOffset dy="2.3857"/>
<feGaussianBlur stdDeviation="3.18094"/>
<feComposite in2="hardAlpha" operator="out"/>
<feColorMatrix type="matrix" values="0 0 0 0 0 0 0 0 0 0 0 0 0 0 0 0 0 0 0.15 0"/>
<feBlend mode="normal" in2="effect1_dropShadow_4214_19161" result="effect2_dropShadow_4214_19161"/>
<feColorMatrix in="SourceAlpha" type="matrix" values="0 0 0 0 0 0 0 0 0 0 0 0 0 0 0 0 0 0 127 0" result="hardAlpha"/>
<feMorphology radius="0.795234" operator="dilate" in="SourceAlpha" result="effect3_dropShadow_4214_19161"/>
<feOffset/>
<feComposite in2="hardAlpha" operator="out"/>
<feColorMatrix type="matrix" values="0 0 0 0 0 0 0 0 0 0 0 0 0 0 0 0 0 0 0.04 0"/>
<feBlend mode="normal" in2="effect2_dropShadow_4214_19161" result="effect3_dropShadow_4214_19161"/>
<feBlend mode="normal" in="SourceGraphic" in2="effect3_dropShadow_4214_19161" result="shape"/>
</filter>
<clipPath id="clip0_4214_19161">
<rect x="273.625" y="21.7407" width="40.5569" height="24.6523" rx="12.3261" fill="white"/>
</clipPath>
</defs>
</svg>
