                        <svg width="395" height="163" viewBox="0 0 395 163" fill="none"
                            xmlns="http://www.w3.org/2000/svg">
                            <g filter="url(#filter0_dddd_4116_937)">
                                <rect x="4" y="4" width="348" height="128" rx="12" fill="white" />
                                <rect x="4.33475" y="4.33475" width="347.331" height="127.33" rx="11.6652"
                                    stroke="#D6DAE1" stroke-width="0.669508" />
                                <path
                                    d="M28.1686 25.2455H26.3705C26.3192 24.9506 26.2247 24.6894 26.0868 24.4618C25.949 24.2311 25.7775 24.0356 25.5724 23.8753C25.3673 23.715 25.1333 23.5949 24.8705 23.5147C24.6109 23.4314 24.3304 23.3897 24.0291 23.3897C23.4939 23.3897 23.0195 23.5243 22.6061 23.7936C22.1926 24.0596 21.8689 24.4506 21.6349 24.9666C21.4009 25.4795 21.284 26.1061 21.284 26.8465C21.284 27.5997 21.4009 28.2343 21.6349 28.7503C21.8721 29.2631 22.1958 29.6509 22.6061 29.9138C23.0195 30.1734 23.4923 30.3032 24.0243 30.3032C24.3192 30.3032 24.5949 30.2647 24.8513 30.1878C25.1109 30.1077 25.3432 29.9907 25.5484 29.8368C25.7567 29.683 25.9314 29.4939 26.0724 29.2695C26.2166 29.0452 26.316 28.7888 26.3705 28.5003L28.1686 28.5099C28.1013 28.9779 27.9554 29.417 27.7311 29.8272C27.5099 30.2375 27.2198 30.5997 26.8609 30.9138C26.5019 31.2247 26.082 31.4682 25.6013 31.6445C25.1205 31.8176 24.5868 31.9041 24.0003 31.9041C23.1349 31.9041 22.3625 31.7038 21.683 31.3032C21.0035 30.9025 20.4682 30.324 20.0772 29.5676C19.6862 28.8112 19.4907 27.9041 19.4907 26.8465C19.4907 25.7856 19.6878 24.8785 20.082 24.1253C20.4763 23.3689 21.0131 22.7904 21.6926 22.3897C22.3721 21.9891 23.1413 21.7888 24.0003 21.7888C24.5484 21.7888 25.058 21.8657 25.5291 22.0195C26.0003 22.1734 26.4202 22.3993 26.7888 22.6974C27.1573 22.9923 27.4602 23.3545 27.6974 23.784C27.9378 24.2102 28.0948 24.6974 28.1686 25.2455ZM32.9462 31.9138C32.2251 31.9138 31.6001 31.7551 31.0712 31.4378C30.5424 31.1205 30.1321 30.6766 29.8404 30.1061C29.552 29.5356 29.4077 28.8689 29.4077 28.1061C29.4077 27.3433 29.552 26.675 29.8404 26.1013C30.1321 25.5275 30.5424 25.082 31.0712 24.7647C31.6001 24.4474 32.2251 24.2888 32.9462 24.2888C33.6674 24.2888 34.2924 24.4474 34.8212 24.7647C35.3501 25.082 35.7587 25.5275 36.0472 26.1013C36.3388 26.675 36.4847 27.3433 36.4847 28.1061C36.4847 28.8689 36.3388 29.5356 36.0472 30.1061C35.7587 30.6766 35.3501 31.1205 34.8212 31.4378C34.2924 31.7551 33.6674 31.9138 32.9462 31.9138ZM32.9558 30.5195C33.3469 30.5195 33.6738 30.4122 33.9366 30.1974C34.1994 29.9795 34.3949 29.6878 34.5231 29.3224C34.6545 28.957 34.7202 28.55 34.7202 28.1013C34.7202 27.6493 34.6545 27.2407 34.5231 26.8753C34.3949 26.5067 34.1994 26.2134 33.9366 25.9955C33.6738 25.7775 33.3469 25.6686 32.9558 25.6686C32.5552 25.6686 32.2219 25.7775 31.9558 25.9955C31.693 26.2134 31.4959 26.5067 31.3645 26.8753C31.2363 27.2407 31.1722 27.6493 31.1722 28.1013C31.1722 28.55 31.2363 28.957 31.3645 29.3224C31.4959 29.6878 31.693 29.9795 31.9558 30.1974C32.2219 30.4122 32.5552 30.5195 32.9558 30.5195ZM39.7022 27.4426V31.7695H37.9618V24.3849H39.6253V25.6397H39.7118C39.8817 25.2263 40.1525 24.8977 40.5243 24.6541C40.8993 24.4106 41.3625 24.2888 41.9138 24.2888C42.4234 24.2888 42.8673 24.3977 43.2455 24.6157C43.6269 24.8336 43.9218 25.1493 44.1301 25.5628C44.3416 25.9763 44.4458 26.4779 44.4426 27.0676V31.7695H42.7022V27.3368C42.7022 26.8433 42.574 26.457 42.3176 26.1782C42.0644 25.8993 41.7134 25.7599 41.2647 25.7599C40.9602 25.7599 40.6894 25.8272 40.4522 25.9618C40.2182 26.0933 40.0339 26.284 39.8993 26.534C39.7679 26.784 39.7022 27.0868 39.7022 27.4426ZM47.9522 27.4426V31.7695H46.2118V24.3849H47.8753V25.6397H47.9618C48.1317 25.2263 48.4025 24.8977 48.7743 24.6541C49.1493 24.4106 49.6125 24.2888 50.1638 24.2888C50.6734 24.2888 51.1173 24.3977 51.4955 24.6157C51.8769 24.8336 52.1718 25.1493 52.3801 25.5628C52.5916 25.9763 52.6958 26.4779 52.6926 27.0676V31.7695H50.9522V27.3368C50.9522 26.8433 50.824 26.457 50.5676 26.1782C50.3144 25.8993 49.9634 25.7599 49.5147 25.7599C49.2102 25.7599 48.9394 25.8272 48.7022 25.9618C48.4682 26.0933 48.2839 26.284 48.1493 26.534C48.0179 26.784 47.9522 27.0868 47.9522 27.4426ZM57.7311 31.9138C56.9907 31.9138 56.3512 31.7599 55.8128 31.4522C55.2775 31.1413 54.8657 30.7022 54.5772 30.1349C54.2888 29.5644 54.1445 28.8929 54.1445 28.1205C54.1445 27.3609 54.2888 26.6942 54.5772 26.1205C54.8689 25.5436 55.2759 25.0949 55.7984 24.7743C56.3208 24.4506 56.9346 24.2888 57.6397 24.2888C58.0948 24.2888 58.5243 24.3625 58.9282 24.5099C59.3352 24.6541 59.6942 24.8785 60.0051 25.183C60.3192 25.4875 60.566 25.8753 60.7455 26.3465C60.925 26.8144 61.0147 27.3721 61.0147 28.0195V28.5532H54.9618V27.3801H59.3464C59.3432 27.0468 59.2711 26.7503 59.1301 26.4907C58.9891 26.2279 58.792 26.0211 58.5387 25.8705C58.2887 25.7199 57.9971 25.6445 57.6637 25.6445C57.308 25.6445 56.9955 25.7311 56.7262 25.9041C56.457 26.074 56.2471 26.2984 56.0964 26.5772C55.949 26.8529 55.8737 27.1558 55.8705 27.4859V28.5099C55.8705 28.9394 55.949 29.308 56.1061 29.6157C56.2631 29.9202 56.4827 30.1541 56.7647 30.3176C57.0468 30.4779 57.3769 30.558 57.7551 30.558C58.0083 30.558 58.2375 30.5227 58.4426 30.4522C58.6477 30.3785 58.8256 30.2711 58.9762 30.1301C59.1269 29.9891 59.2407 29.8144 59.3176 29.6061L60.9426 29.7888C60.84 30.2182 60.6445 30.5932 60.3561 30.9138C60.0708 31.2311 59.7054 31.4779 59.2599 31.6541C58.8144 31.8272 58.3048 31.9138 57.7311 31.9138ZM65.7082 31.9138C64.971 31.9138 64.338 31.7519 63.8092 31.4282C63.2835 31.1045 62.8781 30.6574 62.5928 30.0868C62.3108 29.5131 62.1698 28.8529 62.1698 28.1061C62.1698 27.3561 62.314 26.6942 62.6024 26.1205C62.8909 25.5436 63.298 25.0949 63.8236 24.7743C64.3524 24.4506 64.9774 24.2888 65.6986 24.2888C66.298 24.2888 66.8284 24.3993 67.2899 24.6205C67.7547 24.8384 68.1249 25.1477 68.4005 25.5484C68.6762 25.9458 68.8332 26.4106 68.8717 26.9426H67.2082C67.1409 26.5868 66.9807 26.2904 66.7274 26.0532C66.4774 25.8128 66.1425 25.6926 65.7226 25.6926C65.3669 25.6926 65.0544 25.7888 64.7851 25.9811C64.5159 26.1702 64.306 26.4426 64.1553 26.7984C64.0079 27.1541 63.9342 27.5804 63.9342 28.0772C63.9342 28.5804 64.0079 29.0131 64.1553 29.3753C64.3028 29.7343 64.5095 30.0115 64.7755 30.207C65.0448 30.3993 65.3605 30.4955 65.7226 30.4955C65.9791 30.4955 66.2082 30.4474 66.4101 30.3513C66.6153 30.2519 66.7867 30.1093 66.9246 29.9234C67.0624 29.7375 67.1569 29.5115 67.2082 29.2455H68.8717C68.83 29.7679 68.6762 30.2311 68.4101 30.6349C68.1441 31.0356 67.7819 31.3497 67.3236 31.5772C66.8653 31.8016 66.3268 31.9138 65.7082 31.9138ZM73.9883 24.3849V25.7311H69.7431V24.3849H73.9883ZM70.7911 22.6157H72.5315V29.5484C72.5315 29.7824 72.5668 29.9618 72.6373 30.0868C72.711 30.2086 72.8072 30.292 72.9258 30.3368C73.0444 30.3817 73.1758 30.4041 73.32 30.4041C73.429 30.4041 73.5283 30.3961 73.6181 30.3801C73.711 30.3641 73.7815 30.3497 73.8296 30.3368L74.1229 31.6974C74.0299 31.7295 73.8969 31.7647 73.7238 31.8032C73.554 31.8416 73.3456 31.8641 73.0988 31.8705C72.6629 31.8833 72.2703 31.8176 71.921 31.6734C71.5716 31.5259 71.2944 31.2984 71.0892 30.9907C70.8873 30.683 70.7879 30.2984 70.7911 29.8368V22.6157ZM80.927 31.9186C80.459 31.9186 80.0375 31.8352 79.6625 31.6686C79.2907 31.4987 78.9959 31.2487 78.7779 30.9186C78.5632 30.5884 78.4558 30.1814 78.4558 29.6974C78.4558 29.2808 78.5327 28.9362 78.6866 28.6638C78.8404 28.3913 79.0504 28.1734 79.3164 28.0099C79.5824 27.8465 79.8821 27.7231 80.2154 27.6397C80.552 27.5532 80.8997 27.4907 81.2587 27.4522C81.6914 27.4074 82.0423 27.3673 82.3116 27.332C82.5808 27.2936 82.7763 27.2359 82.8981 27.159C83.0231 27.0788 83.0856 26.9554 83.0856 26.7888V26.7599C83.0856 26.3977 82.9782 26.1173 82.7635 25.9186C82.5488 25.7199 82.2395 25.6205 81.8356 25.6205C81.4093 25.6205 81.0712 25.7134 80.8212 25.8993C80.5744 26.0852 80.4077 26.3048 80.3212 26.558L78.6962 26.3272C78.8244 25.8785 79.0359 25.5035 79.3308 25.2022C79.6257 24.8977 79.9863 24.6702 80.4125 24.5195C80.8388 24.3657 81.31 24.2888 81.826 24.2888C82.1818 24.2888 82.5359 24.3304 82.8885 24.4138C83.2411 24.4971 83.5632 24.6349 83.8548 24.8272C84.1465 25.0163 84.3805 25.2743 84.5568 25.6013C84.7363 25.9282 84.826 26.3368 84.826 26.8272V31.7695H83.1529V30.7551H83.0952C82.9895 30.9602 82.8404 31.1525 82.6481 31.332C82.459 31.5083 82.2202 31.6509 81.9318 31.7599C81.6465 31.8657 81.3116 31.9186 80.927 31.9186ZM81.3789 30.6397C81.7282 30.6397 82.0311 30.5708 82.2875 30.433C82.544 30.292 82.7411 30.1061 82.8789 29.8753C83.0199 29.6445 83.0904 29.3929 83.0904 29.1205V28.2503C83.0359 28.2952 82.943 28.3368 82.8116 28.3753C82.6834 28.4138 82.5391 28.4474 82.3789 28.4763C82.2186 28.5051 82.06 28.5308 81.9029 28.5532C81.7459 28.5756 81.6097 28.5949 81.4943 28.6109C81.2347 28.6461 81.0023 28.7038 80.7972 28.784C80.592 28.8641 80.4302 28.9763 80.3116 29.1205C80.193 29.2615 80.1337 29.4442 80.1337 29.6686C80.1337 29.9891 80.2507 30.2311 80.4847 30.3945C80.7186 30.558 81.0167 30.6397 81.3789 30.6397ZM92.6746 31.8993C92.0944 31.8993 91.5752 31.7503 91.1169 31.4522C90.6585 31.1541 90.2963 30.7215 90.0303 30.1541C89.7643 29.5868 89.6313 28.8977 89.6313 28.0868C89.6313 27.2663 89.7659 26.574 90.0351 26.0099C90.3076 25.4426 90.6746 25.0147 91.1361 24.7263C91.5976 24.4346 92.1121 24.2888 92.6794 24.2888C93.1121 24.2888 93.4678 24.3625 93.7467 24.5099C94.0255 24.6541 94.2467 24.8288 94.4101 25.034C94.5736 25.2359 94.7002 25.4266 94.7899 25.6061H94.8621V21.9234H96.6072V31.7695H94.8957V30.6061H94.7899C94.7002 30.7856 94.5704 30.9763 94.4005 31.1782C94.2306 31.3769 94.0063 31.5468 93.7274 31.6878C93.4486 31.8288 93.0976 31.8993 92.6746 31.8993ZM93.1601 30.4715C93.5287 30.4715 93.8428 30.3721 94.1024 30.1734C94.3621 29.9715 94.5592 29.691 94.6938 29.332C94.8284 28.9731 94.8957 28.5548 94.8957 28.0772C94.8957 27.5997 94.8284 27.1846 94.6938 26.832C94.5624 26.4795 94.3669 26.2054 94.1072 26.0099C93.8508 25.8144 93.5351 25.7166 93.1601 25.7166C92.7723 25.7166 92.4486 25.8176 92.189 26.0195C91.9294 26.2215 91.7338 26.5003 91.6024 26.8561C91.471 27.2118 91.4053 27.6189 91.4053 28.0772C91.4053 28.5388 91.471 28.9506 91.6024 29.3128C91.7371 29.6718 91.9342 29.9554 92.1938 30.1638C92.4566 30.3689 92.7787 30.4715 93.1601 30.4715ZM101.683 31.9138C100.962 31.9138 100.337 31.7551 99.808 31.4378C99.2791 31.1205 98.8689 30.6766 98.5772 30.1061C98.2887 29.5356 98.1445 28.8689 98.1445 28.1061C98.1445 27.3433 98.2887 26.675 98.5772 26.1013C98.8689 25.5275 99.2791 25.082 99.808 24.7647C100.337 24.4474 100.962 24.2888 101.683 24.2888C102.404 24.2888 103.029 24.4474 103.558 24.7647C104.087 25.082 104.495 25.5275 104.784 26.1013C105.076 26.675 105.221 27.3433 105.221 28.1061C105.221 28.8689 105.076 29.5356 104.784 30.1061C104.495 30.6766 104.087 31.1205 103.558 31.4378C103.029 31.7551 102.404 31.9138 101.683 31.9138ZM101.693 30.5195C102.084 30.5195 102.411 30.4122 102.673 30.1974C102.936 29.9795 103.132 29.6878 103.26 29.3224C103.391 28.957 103.457 28.55 103.457 28.1013C103.457 27.6493 103.391 27.2407 103.26 26.8753C103.132 26.5067 102.936 26.2134 102.673 25.9955C102.411 25.7775 102.084 25.6686 101.693 25.6686C101.292 25.6686 100.959 25.7775 100.693 25.9955C100.43 26.2134 100.233 26.5067 100.101 26.8753C99.973 27.2407 99.9089 27.6493 99.9089 28.1013C99.9089 28.55 99.973 28.957 100.101 29.3224C100.233 29.6878 100.43 29.9795 100.693 30.1974C100.959 30.4122 101.292 30.5195 101.693 30.5195ZM106.699 31.7695V24.3849H108.362V25.6397H108.449C108.602 25.2166 108.857 24.8865 109.213 24.6493C109.569 24.409 109.993 24.2888 110.487 24.2888C110.987 24.2888 111.409 24.4106 111.751 24.6541C112.098 24.8945 112.341 25.2231 112.482 25.6397H112.559C112.723 25.2295 112.998 24.9025 113.386 24.659C113.777 24.4122 114.24 24.2888 114.776 24.2888C115.455 24.2888 116.009 24.5035 116.439 24.933C116.868 25.3625 117.083 25.9891 117.083 26.8128V31.7695H115.338V27.082C115.338 26.6237 115.216 26.2888 114.973 26.0772C114.729 25.8625 114.431 25.7551 114.078 25.7551C113.659 25.7551 113.33 25.8865 113.093 26.1493C112.859 26.409 112.742 26.7471 112.742 27.1638V31.7695H111.035V27.0099C111.035 26.6285 110.92 26.324 110.689 26.0965C110.461 25.8689 110.163 25.7551 109.795 25.7551C109.545 25.7551 109.317 25.8192 109.112 25.9474C108.907 26.0724 108.743 26.2503 108.622 26.4811C108.5 26.7086 108.439 26.9747 108.439 27.2791V31.7695H106.699ZM120.974 31.9186C120.506 31.9186 120.084 31.8352 119.709 31.6686C119.338 31.4987 119.043 31.2487 118.825 30.9186C118.61 30.5884 118.503 30.1814 118.503 29.6974C118.503 29.2808 118.58 28.9362 118.733 28.6638C118.887 28.3913 119.097 28.1734 119.363 28.0099C119.629 27.8465 119.929 27.7231 120.262 27.6397C120.599 27.5532 120.947 27.4907 121.306 27.4522C121.738 27.4074 122.089 27.3673 122.358 27.332C122.628 27.2936 122.823 27.2359 122.945 27.159C123.07 27.0788 123.132 26.9554 123.132 26.7888V26.7599C123.132 26.3977 123.025 26.1173 122.81 25.9186C122.596 25.7199 122.286 25.6205 121.882 25.6205C121.456 25.6205 121.118 25.7134 120.868 25.8993C120.621 26.0852 120.455 26.3048 120.368 26.558L118.743 26.3272C118.871 25.8785 119.083 25.5035 119.378 25.2022C119.673 24.8977 120.033 24.6702 120.459 24.5195C120.886 24.3657 121.357 24.2888 121.873 24.2888C122.229 24.2888 122.583 24.3304 122.935 24.4138C123.288 24.4971 123.61 24.6349 123.902 24.8272C124.193 25.0163 124.427 25.2743 124.604 25.6013C124.783 25.9282 124.873 26.3368 124.873 26.8272V31.7695H123.2V30.7551H123.142C123.036 30.9602 122.887 31.1525 122.695 31.332C122.506 31.5083 122.267 31.6509 121.979 31.7599C121.693 31.8657 121.358 31.9186 120.974 31.9186ZM121.426 30.6397C121.775 30.6397 122.078 30.5708 122.334 30.433C122.591 30.292 122.788 30.1061 122.926 29.8753C123.067 29.6445 123.137 29.3929 123.137 29.1205V28.2503C123.083 28.2952 122.99 28.3368 122.858 28.3753C122.73 28.4138 122.586 28.4474 122.426 28.4763C122.265 28.5051 122.107 28.5308 121.95 28.5532C121.793 28.5756 121.657 28.5949 121.541 28.6109C121.282 28.6461 121.049 28.7038 120.844 28.784C120.639 28.8641 120.477 28.9763 120.358 29.1205C120.24 29.2615 120.181 29.4442 120.181 29.6686C120.181 29.9891 120.298 30.2311 120.532 30.3945C120.765 30.558 121.064 30.6397 121.426 30.6397ZM126.623 31.7695V24.3849H128.363V31.7695H126.623ZM127.498 23.3368C127.222 23.3368 126.985 23.2455 126.786 23.0628C126.588 22.8769 126.488 22.6541 126.488 22.3945C126.488 22.1317 126.588 21.909 126.786 21.7263C126.985 21.5404 127.222 21.4474 127.498 21.4474C127.777 21.4474 128.014 21.5404 128.209 21.7263C128.408 21.909 128.507 22.1317 128.507 22.3945C128.507 22.6541 128.408 22.8769 128.209 23.0628C128.014 23.2455 127.777 23.3368 127.498 23.3368ZM131.893 27.4426V31.7695H130.153V24.3849H131.816V25.6397H131.903C132.073 25.2263 132.344 24.8977 132.715 24.6541C133.09 24.4106 133.554 24.2888 134.105 24.2888C134.614 24.2888 135.058 24.3977 135.437 24.6157C135.818 24.8336 136.113 25.1493 136.321 25.5628C136.533 25.9763 136.637 26.4779 136.634 27.0676V31.7695H134.893V27.3368C134.893 26.8433 134.765 26.457 134.509 26.1782C134.255 25.8993 133.905 25.7599 133.456 25.7599C133.151 25.7599 132.88 25.8272 132.643 25.9618C132.409 26.0933 132.225 26.284 132.09 26.534C131.959 26.784 131.893 27.0868 131.893 27.4426Z"
                                    fill="#3C4350" />
                                <rect x="19.2695" y="45.1152" width="317.462" height="31" rx="3.5" fill="white" />
                                <rect x="19.2695" y="45.1152" width="317.462" height="31" rx="3.5" stroke="#DDDDE3" />
                                <path
                                    d="M39.0195 65.8652C42.3332 65.8652 45.0195 63.1789 45.0195 59.8652C45.0195 56.5515 42.3332 53.8652 39.0195 53.8652C35.7058 53.8652 33.0195 56.5515 33.0195 59.8652C33.0195 63.1789 35.7058 65.8652 39.0195 65.8652Z"
                                    stroke="#9B9DA5" stroke-width="1.5" stroke-linecap="round"
                                    stroke-linejoin="round" />
                                <path d="M46.5203 67.365L43.2578 64.1025" stroke="#9B9DA5" stroke-width="1.5"
                                    stroke-linecap="round" stroke-linejoin="round" />
                                <path
                                    d="M57.5557 63.0381H58.7998C58.8773 63.5531 59.1439 63.9632 59.5996 64.2686C60.0553 64.5739 60.6341 64.7266 61.3359 64.7266C62.0013 64.7266 62.5505 64.5671 62.9834 64.248C63.4209 63.9245 63.6396 63.5189 63.6396 63.0312C63.6396 62.612 63.4801 62.2656 63.1611 61.9922C62.8421 61.7142 62.3431 61.4886 61.6641 61.3154L60.3994 60.9873C59.5062 60.764 58.8568 60.4404 58.4512 60.0166C58.0456 59.5928 57.8428 59.0299 57.8428 58.3281C57.8428 57.4896 58.1618 56.8128 58.7998 56.2979C59.4424 55.7783 60.2855 55.5186 61.3291 55.5186C62.2816 55.5186 63.0791 55.7738 63.7217 56.2842C64.3643 56.7946 64.7106 57.4486 64.7607 58.2461H63.5234C63.4368 57.7402 63.1953 57.346 62.7988 57.0635C62.4069 56.7764 61.9033 56.6328 61.2881 56.6328C60.6318 56.6328 60.1032 56.7855 59.7021 57.0908C59.3057 57.3916 59.1074 57.7904 59.1074 58.2871C59.1074 58.6745 59.2533 58.9889 59.5449 59.2305C59.8411 59.472 60.3288 59.6794 61.0078 59.8525L62.04 60.126C63.0609 60.3812 63.7923 60.723 64.2344 61.1514C64.681 61.5798 64.9043 62.1562 64.9043 62.8809C64.9043 63.7878 64.5716 64.5101 63.9062 65.0479C63.2409 65.5811 62.3454 65.8477 61.2197 65.8477C60.1761 65.8477 59.3193 65.5924 58.6494 65.082C57.984 64.5716 57.6195 63.8903 57.5557 63.0381ZM69.7441 59.1553C69.1562 59.1553 68.6732 59.3535 68.2949 59.75C67.9167 60.1465 67.7048 60.6706 67.6592 61.3223H71.7197C71.7061 60.6706 71.5192 60.1465 71.1592 59.75C70.7992 59.3535 70.3275 59.1553 69.7441 59.1553ZM71.6855 63.708H72.8613C72.6836 64.346 72.3213 64.8451 71.7744 65.2051C71.2321 65.5651 70.5599 65.7451 69.7578 65.7451C68.737 65.7451 67.9281 65.4033 67.3311 64.7197C66.734 64.0316 66.4355 63.1042 66.4355 61.9375C66.4355 60.7754 66.7363 59.848 67.3379 59.1553C67.9395 58.4626 68.7461 58.1162 69.7578 58.1162C70.7513 58.1162 71.5329 58.4466 72.1025 59.1074C72.6722 59.7682 72.957 60.6729 72.957 61.8213V62.2725H67.6592V62.3271C67.6911 63.0563 67.8962 63.6351 68.2744 64.0635C68.6572 64.4919 69.1608 64.7061 69.7852 64.7061C70.7376 64.7061 71.3711 64.3734 71.6855 63.708ZM77.0723 64.7129C77.6784 64.7129 78.1797 64.5374 78.5762 64.1865C78.9772 63.8356 79.1777 63.3958 79.1777 62.8672V62.1904L77.1953 62.3203C76.6393 62.3568 76.2314 62.473 75.9717 62.6689C75.7119 62.8649 75.582 63.1497 75.582 63.5234C75.582 63.8926 75.721 64.1842 75.999 64.3984C76.277 64.6081 76.6348 64.7129 77.0723 64.7129ZM76.8535 65.7451C76.1289 65.7451 75.5319 65.5469 75.0625 65.1504C74.5977 64.7493 74.3652 64.2161 74.3652 63.5508C74.3652 62.8945 74.5977 62.3796 75.0625 62.0059C75.5273 61.6322 76.1904 61.4202 77.0518 61.3701L79.1777 61.2402V60.5703C79.1777 60.1146 79.0365 59.766 78.7539 59.5244C78.4714 59.2829 78.0566 59.1621 77.5098 59.1621C77.0677 59.1621 76.7008 59.2419 76.4092 59.4014C76.1175 59.5609 75.9307 59.7865 75.8486 60.0781H74.6592C74.7367 59.4902 75.0397 59.0163 75.5684 58.6562C76.1016 58.2962 76.7624 58.1162 77.5508 58.1162C78.444 58.1162 79.1344 58.3327 79.6221 58.7656C80.1097 59.1986 80.3535 59.8001 80.3535 60.5703V65.6152H79.2324V64.5283H79.123C78.8861 64.9202 78.5716 65.221 78.1797 65.4307C77.7878 65.6403 77.3457 65.7451 76.8535 65.7451ZM82.5273 65.6152V58.2461H83.6484V59.3398H83.7578C83.8672 58.9798 84.1133 58.6859 84.4961 58.458C84.8789 58.2301 85.3141 58.1162 85.8018 58.1162C86.0251 58.1162 86.221 58.1276 86.3896 58.1504V59.3262C86.2301 59.2806 85.9795 59.2578 85.6377 59.2578C85.0771 59.2578 84.6146 59.4264 84.25 59.7637C83.8854 60.1009 83.7031 60.5293 83.7031 61.0488V65.6152H82.5273ZM93.752 60.502H92.5625C92.4622 60.1146 92.2458 59.7979 91.9131 59.5518C91.585 59.3011 91.168 59.1758 90.6621 59.1758C90.0013 59.1758 89.4749 59.4219 89.083 59.9141C88.6956 60.4062 88.502 61.0693 88.502 61.9033C88.502 62.751 88.6979 63.4277 89.0898 63.9336C89.4818 64.4349 90.0059 64.6855 90.6621 64.6855C91.1589 64.6855 91.5713 64.5739 91.8994 64.3506C92.2321 64.1273 92.4531 63.8083 92.5625 63.3936H93.752C93.6426 64.0908 93.3167 64.6582 92.7744 65.0957C92.2321 65.5286 91.5303 65.7451 90.6689 65.7451C89.6344 65.7451 88.8118 65.3988 88.2012 64.7061C87.5905 64.0088 87.2852 63.0745 87.2852 61.9033C87.2852 60.7549 87.5905 59.8366 88.2012 59.1484C88.8118 58.4603 89.6322 58.1162 90.6621 58.1162C91.5234 58.1162 92.2253 58.3418 92.7676 58.793C93.3145 59.2441 93.6426 59.8138 93.752 60.502ZM95.5566 65.6152V55.3203H96.7324V59.4082H96.8418C97.0286 58.998 97.3249 58.6813 97.7305 58.458C98.1361 58.2301 98.6191 58.1162 99.1797 58.1162C100.014 58.1162 100.656 58.3555 101.107 58.834C101.563 59.3079 101.791 59.9779 101.791 60.8438V65.6152H100.615V61.1309C100.615 59.8275 100.025 59.1758 98.8447 59.1758C98.193 59.1758 97.6781 59.3649 97.2998 59.7432C96.9215 60.1214 96.7324 60.625 96.7324 61.2539V65.6152H95.5566ZM108.039 55.751H111.423C112.886 55.751 114.027 56.1862 114.848 57.0566C115.668 57.9225 116.078 59.1302 116.078 60.6797C116.078 62.2337 115.668 63.446 114.848 64.3164C114.032 65.1823 112.89 65.6152 111.423 65.6152H108.039V55.751ZM109.27 56.8584V64.5078H111.341C112.439 64.5078 113.294 64.1729 113.904 63.5029C114.515 62.833 114.82 61.8965 114.82 60.6934C114.82 59.4857 114.513 58.5446 113.897 57.8701C113.287 57.1956 112.435 56.8584 111.341 56.8584H109.27ZM119.476 63.9678C119.854 64.4463 120.392 64.6855 121.089 64.6855C121.786 64.6855 122.324 64.4463 122.702 63.9678C123.08 63.4847 123.27 62.8057 123.27 61.9307C123.27 61.0557 123.08 60.3789 122.702 59.9004C122.324 59.4173 121.786 59.1758 121.089 59.1758C120.392 59.1758 119.854 59.4173 119.476 59.9004C119.097 60.3789 118.908 61.0557 118.908 61.9307C118.908 62.8057 119.097 63.4847 119.476 63.9678ZM123.57 64.7266C122.964 65.4056 122.137 65.7451 121.089 65.7451C120.041 65.7451 119.211 65.4056 118.601 64.7266C117.994 64.043 117.691 63.111 117.691 61.9307C117.691 60.7458 117.994 59.8138 118.601 59.1348C119.207 58.4557 120.036 58.1162 121.089 58.1162C122.142 58.1162 122.971 58.4557 123.577 59.1348C124.183 59.8138 124.486 60.7458 124.486 61.9307C124.486 63.111 124.181 64.043 123.57 64.7266ZM126.332 65.6152V58.2461H127.453V59.4082H127.562C127.731 58.998 127.993 58.6813 128.349 58.458C128.704 58.2301 129.128 58.1162 129.62 58.1162C130.103 58.1162 130.518 58.2324 130.864 58.4648C131.215 58.6973 131.479 59.0117 131.657 59.4082H131.767C131.967 59.0117 132.268 58.6973 132.669 58.4648C133.07 58.2324 133.521 58.1162 134.022 58.1162C134.774 58.1162 135.353 58.3258 135.759 58.7451C136.164 59.1598 136.367 59.7523 136.367 60.5225V65.6152H135.191V60.7959C135.191 59.7158 134.674 59.1758 133.64 59.1758C133.138 59.1758 132.728 59.3398 132.409 59.668C132.09 59.9961 131.931 60.3994 131.931 60.8779V65.6152H130.755V60.6113C130.755 60.1738 130.614 59.8252 130.331 59.5654C130.053 59.3057 129.682 59.1758 129.217 59.1758C128.738 59.1758 128.333 59.3581 128 59.7227C127.672 60.0872 127.508 60.5293 127.508 61.0488V65.6152H126.332ZM140.783 64.7129C141.389 64.7129 141.891 64.5374 142.287 64.1865C142.688 63.8356 142.889 63.3958 142.889 62.8672V62.1904L140.906 62.3203C140.35 62.3568 139.942 62.473 139.683 62.6689C139.423 62.8649 139.293 63.1497 139.293 63.5234C139.293 63.8926 139.432 64.1842 139.71 64.3984C139.988 64.6081 140.346 64.7129 140.783 64.7129ZM140.564 65.7451C139.84 65.7451 139.243 65.5469 138.773 65.1504C138.309 64.7493 138.076 64.2161 138.076 63.5508C138.076 62.8945 138.309 62.3796 138.773 62.0059C139.238 61.6322 139.901 61.4202 140.763 61.3701L142.889 61.2402V60.5703C142.889 60.1146 142.747 59.766 142.465 59.5244C142.182 59.2829 141.768 59.1621 141.221 59.1621C140.779 59.1621 140.412 59.2419 140.12 59.4014C139.828 59.5609 139.642 59.7865 139.56 60.0781H138.37C138.448 59.4902 138.751 59.0163 139.279 58.6562C139.812 58.2962 140.473 58.1162 141.262 58.1162C142.155 58.1162 142.845 58.3327 143.333 58.7656C143.821 59.1986 144.064 59.8001 144.064 60.5703V65.6152H142.943V64.5283H142.834C142.597 64.9202 142.283 65.221 141.891 65.4307C141.499 65.6403 141.057 65.7451 140.564 65.7451ZM146.266 65.6152V58.2461H147.441V65.6152H146.266ZM147.435 56.5098C147.275 56.6693 147.081 56.749 146.854 56.749C146.626 56.749 146.432 56.6693 146.272 56.5098C146.113 56.3457 146.033 56.152 146.033 55.9287C146.033 55.7054 146.113 55.514 146.272 55.3545C146.432 55.1904 146.626 55.1084 146.854 55.1084C147.081 55.1084 147.275 55.1904 147.435 55.3545C147.594 55.514 147.674 55.7054 147.674 55.9287C147.674 56.152 147.594 56.3457 147.435 56.5098ZM149.684 65.6152V58.2461H150.805V59.4082H150.914C151.101 58.998 151.399 58.6813 151.81 58.458C152.22 58.2301 152.705 58.1162 153.266 58.1162C154.09 58.1162 154.726 58.3532 155.173 58.8271C155.619 59.2965 155.843 59.9688 155.843 60.8438V65.6152H154.667V61.1309C154.667 60.4701 154.523 59.9801 154.236 59.6611C153.954 59.3376 153.519 59.1758 152.931 59.1758C152.284 59.1758 151.775 59.3604 151.406 59.7295C151.042 60.0986 150.859 60.6068 150.859 61.2539V65.6152H149.684Z"
                                    fill="#9B9DA5" />
                                <path
                                    d="M18.7695 88.964C18.7695 87.5821 19.8897 86.4619 21.2716 86.4619H179.806C181.188 86.4619 182.308 87.5821 182.308 88.964V114.729C182.308 116.111 181.188 117.231 179.806 117.231H21.2716C19.8897 117.231 18.7695 116.111 18.7695 114.729V88.964Z"
                                    fill="#00B0F4" />
                                <path
                                    d="M38.6113 107.011C37.2259 107.011 36.1253 106.553 35.3096 105.637C34.4984 104.721 34.0928 103.479 34.0928 101.911C34.0928 100.353 34.5007 99.1152 35.3164 98.1992C36.1322 97.2786 37.2305 96.8184 38.6113 96.8184C39.7324 96.8184 40.6781 97.1351 41.4482 97.7686C42.2184 98.3975 42.6673 99.2246 42.7949 100.25H41.2773C41.1406 99.6165 40.8285 99.1107 40.3408 98.7324C39.8577 98.3496 39.2812 98.1582 38.6113 98.1582C37.7135 98.1582 36.9958 98.5 36.458 99.1836C35.9248 99.8626 35.6582 100.772 35.6582 101.911C35.6582 103.064 35.9248 103.98 36.458 104.659C36.9912 105.334 37.7113 105.671 38.6182 105.671C39.3018 105.671 39.876 105.505 40.3408 105.172C40.8102 104.839 41.1224 104.374 41.2773 103.777H42.8018C42.6149 104.798 42.1523 105.593 41.4141 106.163C40.6803 106.728 39.7461 107.011 38.6113 107.011ZM49.7676 105.91C49.1387 106.594 48.2865 106.936 47.2109 106.936C46.1354 106.936 45.2809 106.594 44.6475 105.91C44.014 105.227 43.6973 104.301 43.6973 103.135C43.6973 101.973 44.014 101.048 44.6475 100.359C45.2855 99.6712 46.14 99.3271 47.2109 99.3271C48.2819 99.3271 49.1341 99.6712 49.7676 100.359C50.401 101.043 50.7178 101.968 50.7178 103.135C50.7178 104.301 50.401 105.227 49.7676 105.91ZM45.7344 105.028C46.0898 105.479 46.582 105.705 47.2109 105.705C47.8398 105.705 48.3298 105.479 48.6807 105.028C49.0361 104.577 49.2139 103.946 49.2139 103.135C49.2139 102.324 49.0361 101.692 48.6807 101.241C48.3298 100.785 47.8398 100.558 47.2109 100.558C46.582 100.558 46.0898 100.785 45.7344 101.241C45.3789 101.697 45.2012 102.328 45.2012 103.135C45.2012 103.941 45.3789 104.573 45.7344 105.028ZM51.9072 106.847V99.4229H53.3223V100.674H53.3496C53.8099 99.7852 54.6143 99.3408 55.7627 99.3408C56.583 99.3408 57.2279 99.5869 57.6973 100.079C58.1712 100.567 58.4082 101.237 58.4082 102.089V106.847H56.9248V102.369C56.9248 101.804 56.7812 101.371 56.4941 101.07C56.207 100.765 55.7923 100.612 55.25 100.612C54.6895 100.612 54.2383 100.792 53.8965 101.152C53.5592 101.508 53.3906 101.977 53.3906 102.561V106.847H51.9072ZM59.8916 106.847V99.4229H61.3066V100.674H61.334C61.7943 99.7852 62.5986 99.3408 63.7471 99.3408C64.5674 99.3408 65.2122 99.5869 65.6816 100.079C66.1556 100.567 66.3926 101.237 66.3926 102.089V106.847H64.9092V102.369C64.9092 101.804 64.7656 101.371 64.4785 101.07C64.1914 100.765 63.7767 100.612 63.2344 100.612C62.6738 100.612 62.2227 100.792 61.8809 101.152C61.5436 101.508 61.375 101.977 61.375 102.561V106.847H59.8916ZM70.9658 100.537C70.4326 100.537 69.9883 100.715 69.6328 101.07C69.2819 101.426 69.0859 101.888 69.0449 102.458H72.8115C72.7933 101.879 72.6156 101.414 72.2783 101.063C71.9411 100.713 71.5036 100.537 70.9658 100.537ZM72.8047 104.673H74.2197C74.1149 105.338 73.7663 105.883 73.1738 106.307C72.5814 106.726 71.8682 106.936 71.0342 106.936C69.9587 106.936 69.1064 106.598 68.4775 105.924C67.8532 105.245 67.541 104.324 67.541 103.162C67.541 102 67.8532 101.07 68.4775 100.373C69.1019 99.6758 69.9336 99.3271 70.9727 99.3271C71.9935 99.3271 72.8024 99.6576 73.3994 100.318C73.9964 100.975 74.2949 101.866 74.2949 102.991V103.511H69.0381V103.6C69.0381 104.242 69.2227 104.759 69.5918 105.151C69.9609 105.539 70.4508 105.732 71.0615 105.732C71.4945 105.732 71.8682 105.637 72.1826 105.445C72.4971 105.254 72.7044 104.996 72.8047 104.673ZM81.835 101.959H80.4199C80.347 101.549 80.1556 101.216 79.8457 100.961C79.5404 100.706 79.1416 100.578 78.6494 100.578C78.0479 100.578 77.5648 100.811 77.2002 101.275C76.8402 101.74 76.6602 102.36 76.6602 103.135C76.6602 103.928 76.8424 104.552 77.207 105.008C77.5716 105.464 78.0547 105.691 78.6562 105.691C79.1393 105.691 79.5335 105.577 79.8389 105.35C80.1488 105.117 80.347 104.785 80.4336 104.352H81.8486C81.762 105.131 81.4294 105.757 80.8506 106.231C80.2718 106.701 79.5381 106.936 78.6494 106.936C77.5921 106.936 76.7445 106.594 76.1064 105.91C75.473 105.227 75.1562 104.301 75.1562 103.135C75.1562 101.982 75.473 101.059 76.1064 100.366C76.7399 99.6735 77.583 99.3271 78.6357 99.3271C79.096 99.3271 79.5221 99.3978 79.9141 99.5391C80.306 99.6758 80.6341 99.8649 80.8984 100.106C81.1673 100.348 81.3815 100.628 81.541 100.947C81.7051 101.262 81.8031 101.599 81.835 101.959ZM83.3867 97.7549H84.8633V99.4229H86.2852V100.592H84.8633V104.741C84.8633 105.065 84.9362 105.304 85.082 105.459C85.2324 105.609 85.4626 105.685 85.7725 105.685C85.9502 105.685 86.1188 105.673 86.2783 105.65V106.819C86.0778 106.869 85.7998 106.895 85.4443 106.895C84.7015 106.895 84.1729 106.742 83.8584 106.437C83.5439 106.127 83.3867 105.612 83.3867 104.892V100.592H82.3613V99.4229H83.3867V97.7549ZM91.5078 109.547C91.2617 109.547 91.0612 109.533 90.9062 109.506V108.303C90.9974 108.326 91.1546 108.337 91.3779 108.337C91.7334 108.337 92.0137 108.253 92.2188 108.084C92.4284 107.92 92.597 107.642 92.7246 107.25L92.8408 106.867L90.1475 99.4229H91.7402L93.6475 105.493H93.6816L95.5889 99.4229H97.1475L94.3652 107.188C94.0462 108.077 93.6794 108.692 93.2646 109.034C92.8545 109.376 92.2689 109.547 91.5078 109.547ZM103.58 105.91C102.951 106.594 102.099 106.936 101.023 106.936C99.9479 106.936 99.0934 106.594 98.46 105.91C97.8265 105.227 97.5098 104.301 97.5098 103.135C97.5098 101.973 97.8265 101.048 98.46 100.359C99.098 99.6712 99.9525 99.3271 101.023 99.3271C102.094 99.3271 102.947 99.6712 103.58 100.359C104.214 101.043 104.53 101.968 104.53 103.135C104.53 104.301 104.214 105.227 103.58 105.91ZM99.5469 105.028C99.9023 105.479 100.395 105.705 101.023 105.705C101.652 105.705 102.142 105.479 102.493 105.028C102.849 104.577 103.026 103.946 103.026 103.135C103.026 102.324 102.849 101.692 102.493 101.241C102.142 100.785 101.652 100.558 101.023 100.558C100.395 100.558 99.9023 100.785 99.5469 101.241C99.1914 101.697 99.0137 102.328 99.0137 103.135C99.0137 103.941 99.1914 104.573 99.5469 105.028ZM112.187 99.4229V106.847H110.771V105.575H110.744C110.53 106.017 110.218 106.354 109.808 106.587C109.397 106.815 108.91 106.929 108.345 106.929C107.534 106.929 106.886 106.683 106.403 106.19C105.925 105.698 105.686 105.028 105.686 104.181V99.4229H107.169V103.9C107.169 104.47 107.315 104.905 107.606 105.206C107.898 105.502 108.313 105.65 108.851 105.65C109.407 105.65 109.853 105.473 110.19 105.117C110.532 104.762 110.703 104.29 110.703 103.702V99.4229H112.187ZM113.704 106.847V99.4229H115.119V100.674H115.146C115.26 100.259 115.477 99.9355 115.796 99.7031C116.119 99.4661 116.5 99.3477 116.938 99.3477C117.143 99.3477 117.307 99.3659 117.43 99.4023V100.79C117.266 100.726 117.049 100.694 116.78 100.694C116.293 100.694 115.905 100.852 115.618 101.166C115.331 101.476 115.188 101.893 115.188 102.417V106.847H113.704ZM124.43 106.922C123.495 106.922 122.739 106.576 122.16 105.883C121.586 105.19 121.299 104.272 121.299 103.128C121.299 101.993 121.586 101.079 122.16 100.387C122.739 99.694 123.491 99.3477 124.416 99.3477C124.945 99.3477 125.412 99.4639 125.817 99.6963C126.228 99.9242 126.54 100.243 126.754 100.653H126.788V96.5381H128.265V106.847H126.829V105.589H126.802C126.583 106.013 126.266 106.341 125.852 106.573C125.441 106.806 124.967 106.922 124.43 106.922ZM124.806 100.605C124.209 100.605 123.728 100.836 123.363 101.296C122.999 101.756 122.816 102.369 122.816 103.135C122.816 103.905 122.996 104.52 123.356 104.98C123.721 105.436 124.204 105.664 124.806 105.664C125.403 105.664 125.883 105.432 126.248 104.967C126.613 104.502 126.795 103.891 126.795 103.135C126.795 102.378 126.61 101.768 126.241 101.303C125.877 100.838 125.398 100.605 124.806 100.605ZM135.572 105.91C134.943 106.594 134.091 106.936 133.016 106.936C131.94 106.936 131.086 106.594 130.452 105.91C129.819 105.227 129.502 104.301 129.502 103.135C129.502 101.973 129.819 101.048 130.452 100.359C131.09 99.6712 131.945 99.3271 133.016 99.3271C134.087 99.3271 134.939 99.6712 135.572 100.359C136.206 101.043 136.522 101.968 136.522 103.135C136.522 104.301 136.206 105.227 135.572 105.91ZM131.539 105.028C131.895 105.479 132.387 105.705 133.016 105.705C133.645 105.705 134.134 105.479 134.485 105.028C134.841 104.577 135.019 103.946 135.019 103.135C135.019 102.324 134.841 101.692 134.485 101.241C134.134 100.785 133.645 100.558 133.016 100.558C132.387 100.558 131.895 100.785 131.539 101.241C131.184 101.697 131.006 102.328 131.006 103.135C131.006 103.941 131.184 104.573 131.539 105.028ZM137.712 106.847V99.4229H139.127V100.681H139.154C139.323 100.266 139.594 99.9401 139.968 99.7031C140.346 99.4616 140.779 99.3408 141.267 99.3408C141.782 99.3408 142.219 99.4661 142.579 99.7168C142.939 99.9674 143.194 100.323 143.345 100.783H143.379C143.575 100.337 143.878 99.9857 144.288 99.7305C144.703 99.4707 145.174 99.3408 145.703 99.3408C146.437 99.3408 147.022 99.5641 147.46 100.011C147.902 100.453 148.123 101.045 148.123 101.788V106.847H146.646V102.144C146.646 101.656 146.519 101.28 146.264 101.016C146.013 100.747 145.658 100.612 145.197 100.612C144.742 100.612 144.368 100.765 144.076 101.07C143.789 101.376 143.646 101.765 143.646 102.239V106.847H142.189V102.021C142.189 101.592 142.06 101.25 141.8 100.995C141.545 100.74 141.201 100.612 140.768 100.612C140.312 100.612 139.936 100.772 139.64 101.091C139.343 101.405 139.195 101.806 139.195 102.294V106.847H137.712ZM152.184 105.739C152.735 105.739 153.195 105.582 153.564 105.268C153.934 104.949 154.118 104.545 154.118 104.058V103.477L152.313 103.6C151.288 103.663 150.775 104.028 150.775 104.693C150.775 105.012 150.903 105.268 151.158 105.459C151.413 105.646 151.755 105.739 152.184 105.739ZM151.787 106.922C151.044 106.922 150.44 106.721 149.976 106.32C149.511 105.915 149.278 105.382 149.278 104.721C149.278 104.074 149.52 103.565 150.003 103.196C150.491 102.827 151.195 102.613 152.115 102.554L154.118 102.438V101.863C154.118 101.439 153.981 101.116 153.708 100.893C153.439 100.665 153.056 100.551 152.56 100.551C152.159 100.551 151.819 100.646 151.541 100.838C151.268 101.029 151.099 101.287 151.035 101.61H149.647C149.67 100.954 149.96 100.41 150.516 99.9766C151.072 99.5436 151.767 99.3271 152.601 99.3271C153.507 99.3271 154.23 99.5482 154.768 99.9902C155.31 100.432 155.581 101.02 155.581 101.754V106.847H154.166V105.609H154.132C153.927 106.01 153.612 106.329 153.188 106.566C152.765 106.803 152.298 106.922 151.787 106.922ZM157.126 106.847V99.4229H158.609V106.847H157.126ZM158.486 98.1172C158.318 98.2812 158.113 98.3633 157.871 98.3633C157.63 98.3633 157.424 98.2812 157.256 98.1172C157.087 97.9486 157.003 97.7458 157.003 97.5088C157.003 97.2673 157.087 97.0645 157.256 96.9004C157.424 96.7363 157.63 96.6543 157.871 96.6543C158.113 96.6543 158.318 96.7363 158.486 96.9004C158.655 97.0645 158.739 97.2673 158.739 97.5088C158.739 97.7458 158.655 97.9486 158.486 98.1172ZM160.188 106.847V99.4229H161.604V100.674H161.631C162.091 99.7852 162.896 99.3408 164.044 99.3408C164.864 99.3408 165.509 99.5869 165.979 100.079C166.452 100.567 166.689 101.237 166.689 102.089V106.847H165.206V102.369C165.206 101.804 165.062 101.371 164.775 101.07C164.488 100.765 164.074 100.612 163.531 100.612C162.971 100.612 162.52 100.792 162.178 101.152C161.84 101.508 161.672 101.977 161.672 102.561V106.847H160.188Z"
                                    fill="white" />
                            </g>
                            <defs>
                                <filter id="filter0_dddd_4116_937" x="0.811968" y="0.0149596" width="393.429"
                                    height="162.271" filterUnits="userSpaceOnUse" color-interpolation-filters="sRGB">
                                    <feFlood flood-opacity="0" result="BackgroundImageFix" />
                                    <feColorMatrix in="SourceAlpha" type="matrix"
                                        values="0 0 0 0 0 0 0 0 0 0 0 0 0 0 0 0 0 0 127 0" result="hardAlpha" />
                                    <feOffset dx="1.59402" dy="0.797008" />
                                    <feGaussianBlur stdDeviation="2.39102" />
                                    <feColorMatrix type="matrix"
                                        values="0 0 0 0 0.85098 0 0 0 0 0.85098 0 0 0 0 0.85098 0 0 0 0.1 0" />
                                    <feBlend mode="normal" in2="BackgroundImageFix"
                                        result="effect1_dropShadow_4116_937" />
                                    <feColorMatrix in="SourceAlpha" type="matrix"
                                        values="0 0 0 0 0 0 0 0 0 0 0 0 0 0 0 0 0 0 127 0" result="hardAlpha" />
                                    <feOffset dx="7.17307" dy="3.98504" />
                                    <feGaussianBlur stdDeviation="3.98504" />
                                    <feColorMatrix type="matrix"
                                        values="0 0 0 0 0.85098 0 0 0 0 0.85098 0 0 0 0 0.85098 0 0 0 0.09 0" />
                                    <feBlend mode="normal" in2="effect1_dropShadow_4116_937"
                                        result="effect2_dropShadow_4116_937" />
                                    <feColorMatrix in="SourceAlpha" type="matrix"
                                        values="0 0 0 0 0 0 0 0 0 0 0 0 0 0 0 0 0 0 127 0" result="hardAlpha" />
                                    <feOffset dx="15.9402" dy="9.56409" />
                                    <feGaussianBlur stdDeviation="5.57905" />
                                    <feColorMatrix type="matrix"
                                        values="0 0 0 0 0.85098 0 0 0 0 0.85098 0 0 0 0 0.85098 0 0 0 0.05 0" />
                                    <feBlend mode="normal" in2="effect2_dropShadow_4116_937"
                                        result="effect3_dropShadow_4116_937" />
                                    <feColorMatrix in="SourceAlpha" type="matrix"
                                        values="0 0 0 0 0 0 0 0 0 0 0 0 0 0 0 0 0 0 127 0" result="hardAlpha" />
                                    <feOffset dx="28.6923" dy="16.7372" />
                                    <feGaussianBlur stdDeviation="6.77457" />
                                    <feColorMatrix type="matrix"
                                        values="0 0 0 0 0.85098 0 0 0 0 0.85098 0 0 0 0 0.85098 0 0 0 0.01 0" />
                                    <feBlend mode="normal" in2="effect3_dropShadow_4116_937"
                                        result="effect4_dropShadow_4116_937" />
                                    <feBlend mode="normal" in="SourceGraphic" in2="effect4_dropShadow_4116_937"
                                        result="shape" />
                                </filter>
                            </defs>
                        </svg>