                    <svg width="689" height="320" viewBox="0 0 689 320" fill="none" xmlns="http://www.w3.org/2000/svg">
                        <g filter="url(#filter0_dddd_1699_48320)">
                            <rect x="196" y="100" width="298" height="120" rx="12" fill="white" />
                            <rect x="196.444" y="100.444" width="297.112" height="119.112" rx="11.5559" stroke="#D6DAE1"
                                strokeWidth="0.88815" />
                            <path
                                d="M209.125 118.897C209.125 115.157 212.157 112.125 215.897 112.125H233.353C237.093 112.125 240.125 115.157 240.125 118.897V136.353C240.125 140.093 237.093 143.125 233.353 143.125H215.897C212.157 143.125 209.125 140.093 209.125 136.353V118.897Z"
                                fill="#FAFAFA" />
                            <g clipPath="url(#clip0_1699_48320)">
                                <path
                                    d="M232.509 122.791C232.495 122.69 232.407 122.634 232.334 122.628C232.262 122.622 230.725 122.508 230.725 122.508C230.725 122.508 229.657 121.448 229.54 121.331C229.423 121.214 229.194 121.249 229.105 121.276C229.092 121.279 228.871 121.347 228.507 121.46C228.151 120.434 227.521 119.491 226.414 119.491C226.383 119.491 226.352 119.492 226.32 119.494C226.005 119.077 225.615 118.896 225.278 118.896C222.699 118.896 221.467 122.121 221.08 123.76C220.078 124.07 219.366 124.291 219.275 124.319C218.716 124.495 218.698 124.513 218.625 125.04C218.569 125.439 217.105 136.759 217.105 136.759L228.512 138.896L234.692 137.559C234.692 137.559 232.523 122.891 232.509 122.791H232.509ZM227.877 121.655L226.912 121.954C226.912 121.886 226.912 121.819 226.912 121.746C226.912 121.108 226.824 120.594 226.682 120.187C227.252 120.259 227.632 120.908 227.877 121.655ZM225.974 120.314C226.133 120.711 226.236 121.282 226.236 122.051C226.236 122.091 226.235 122.127 226.235 122.163C225.607 122.358 224.925 122.569 224.242 122.78C224.626 121.299 225.345 120.584 225.974 120.314ZM225.208 119.588C225.319 119.588 225.431 119.626 225.538 119.7C224.712 120.089 223.826 121.069 223.452 123.025L221.876 123.513C222.314 122.021 223.355 119.588 225.208 119.588H225.208Z"
                                    fill="#95BF46" />
                                <path
                                    d="M232.334 122.628C232.261 122.622 230.724 122.508 230.724 122.508C230.724 122.508 229.656 121.448 229.539 121.331C229.495 121.287 229.436 121.265 229.374 121.255L228.512 138.896L234.692 137.559C234.692 137.559 232.522 122.891 232.508 122.79C232.494 122.69 232.406 122.634 232.334 122.628Z"
                                    fill="#5E8E3E" />
                                <path
                                    d="M226.415 126.044L225.653 128.311C225.653 128.311 224.986 127.954 224.167 127.954C222.967 127.954 222.907 128.707 222.907 128.897C222.907 129.932 225.606 130.329 225.606 132.754C225.606 134.662 224.396 135.891 222.764 135.891C220.806 135.891 219.805 134.672 219.805 134.672L220.329 132.94C220.329 132.94 221.358 133.824 222.227 133.824C222.794 133.824 223.025 133.377 223.025 133.05C223.025 131.7 220.811 131.639 220.811 129.42C220.811 127.553 222.152 125.745 224.858 125.745C225.9 125.745 226.415 126.044 226.415 126.044Z"
                                    fill="white" />
                            </g>
                            <g clipPath="url(#clip1_1699_48320)">
                                <rect x="430.391" y="115.625" width="39" height="24" rx="12" fill="#787880"
                                    fillOpacity="0.32" />
                                <g filter="url(#filter1_ddd_1699_48320)">
                                    <rect x="431.918" y="116.921" width="20.6425" height="20.6425" rx="10.3213"
                                        fill="white" />
                                </g>
                            </g>
                            <path
                                d="M208.082 162.713H209.545C209.598 163.185 209.835 163.565 210.254 163.852C210.673 164.139 211.199 164.282 211.83 164.282C212.43 164.282 212.925 164.143 213.313 163.865C213.706 163.587 213.903 163.234 213.903 162.806C213.903 162.435 213.764 162.132 213.486 161.898C213.207 161.66 212.759 161.466 212.141 161.316L210.903 161.018C210.024 160.806 209.375 160.49 208.956 160.071C208.541 159.651 208.334 159.108 208.334 158.442C208.334 157.621 208.656 156.952 209.3 156.435C209.949 155.919 210.786 155.66 211.81 155.66C212.817 155.66 213.638 155.919 214.274 156.435C214.909 156.947 215.238 157.616 215.26 158.442H213.817C213.773 157.969 213.567 157.596 213.201 157.323C212.839 157.049 212.369 156.912 211.79 156.912C211.216 156.912 210.748 157.044 210.386 157.309C210.029 157.574 209.85 157.919 209.85 158.342C209.85 158.678 209.985 158.954 210.254 159.17C210.523 159.382 210.967 159.565 211.585 159.72L212.638 159.978C213.618 160.208 214.324 160.532 214.757 160.951C215.194 161.366 215.413 161.925 215.413 162.627C215.413 163.519 215.081 164.227 214.419 164.753C213.757 165.273 212.859 165.534 211.724 165.534C210.66 165.534 209.797 165.28 209.135 164.772C208.477 164.26 208.126 163.574 208.082 162.713ZM216.658 165.375V155.389H218.081V159.395H218.114C218.551 158.534 219.331 158.104 220.452 158.104C221.242 158.104 221.876 158.347 222.353 158.832C222.834 159.318 223.074 159.967 223.074 160.779V165.375H221.644V161.057C221.644 160.519 221.494 160.097 221.194 159.793C220.893 159.488 220.481 159.336 219.955 159.336C219.399 159.336 218.949 159.512 218.604 159.865C218.265 160.219 218.095 160.682 218.095 161.256V165.375H216.658ZM230.074 164.468C229.465 165.13 228.639 165.461 227.597 165.461C226.555 165.461 225.728 165.13 225.114 164.468C224.5 163.806 224.193 162.909 224.193 161.779C224.193 160.653 224.5 159.757 225.114 159.091C225.732 158.424 226.56 158.091 227.597 158.091C228.635 158.091 229.46 158.424 230.074 159.091C230.688 159.753 230.994 160.649 230.994 161.779C230.994 162.909 230.688 163.806 230.074 164.468ZM226.167 163.614C226.511 164.051 226.988 164.269 227.597 164.269C228.206 164.269 228.681 164.051 229.021 163.614C229.365 163.176 229.538 162.565 229.538 161.779C229.538 160.993 229.365 160.382 229.021 159.945C228.681 159.503 228.206 159.283 227.597 159.283C226.988 159.283 226.511 159.503 226.167 159.945C225.823 160.386 225.65 160.998 225.65 161.779C225.65 162.561 225.823 163.172 226.167 163.614ZM235.855 158.111C236.773 158.111 237.508 158.444 238.06 159.11C238.616 159.777 238.895 160.667 238.895 161.779C238.895 162.887 238.619 163.777 238.067 164.448C237.519 165.115 236.793 165.448 235.888 165.448C235.372 165.448 234.917 165.34 234.524 165.123C234.131 164.903 233.826 164.594 233.61 164.196H233.584V167.726H232.147V158.183H233.531V159.375H233.564C233.767 158.987 234.074 158.68 234.484 158.455C234.899 158.225 235.356 158.111 235.855 158.111ZM235.491 164.229C236.074 164.229 236.541 164.006 236.895 163.561C237.248 163.115 237.424 162.521 237.424 161.779C237.424 161.038 237.248 160.444 236.895 159.998C236.541 159.552 236.074 159.329 235.491 159.329C234.921 159.329 234.46 159.554 234.107 160.004C233.754 160.455 233.575 161.046 233.57 161.779C233.575 162.516 233.751 163.11 234.1 163.561C234.453 164.006 234.917 164.229 235.491 164.229ZM240.093 165.375V158.183H241.53V165.375H240.093ZM241.411 156.919C241.248 157.078 241.049 157.157 240.815 157.157C240.581 157.157 240.382 157.078 240.219 156.919C240.056 156.755 239.974 156.559 239.974 156.329C239.974 156.095 240.056 155.899 240.219 155.74C240.382 155.581 240.581 155.501 240.815 155.501C241.049 155.501 241.248 155.581 241.411 155.74C241.574 155.899 241.656 156.095 241.656 156.329C241.656 156.559 241.574 156.755 241.411 156.919ZM243.49 165.375V159.316H242.497V158.183H243.49V157.521C243.49 156.846 243.654 156.356 243.98 156.051C244.307 155.742 244.832 155.588 245.556 155.588C245.786 155.588 246.029 155.61 246.285 155.654V156.746C246.13 156.711 245.951 156.693 245.748 156.693C245.453 156.693 245.239 156.762 245.106 156.899C244.978 157.036 244.912 157.259 244.907 157.568V158.183H246.291V159.316H244.921V165.375H243.49ZM248.205 167.991C247.967 167.991 247.773 167.977 247.622 167.951V166.786C247.711 166.808 247.863 166.819 248.079 166.819C248.424 166.819 248.695 166.737 248.894 166.574C249.097 166.415 249.26 166.145 249.384 165.766L249.497 165.395L246.887 158.183H248.43L250.278 164.064H250.311L252.159 158.183H253.668L250.973 165.706C250.664 166.567 250.309 167.163 249.907 167.494C249.51 167.825 248.942 167.991 248.205 167.991Z"
                                fill="#0E0E1E" />
                            <path
                                d="M211.244 189.693C210.316 189.693 209.582 189.373 209.039 188.733C208.5 188.093 208.23 187.222 208.23 186.122C208.23 185.021 208.5 184.151 209.039 183.511C209.579 182.868 210.312 182.546 211.239 182.546C211.958 182.546 212.573 182.751 213.084 183.161C213.594 183.571 213.9 184.105 214.001 184.764H213.136C213.022 184.323 212.795 183.974 212.454 183.719C212.114 183.46 211.709 183.331 211.239 183.331C210.583 183.331 210.063 183.582 209.678 184.083C209.296 184.585 209.106 185.264 209.106 186.122C209.106 186.98 209.298 187.659 209.683 188.161C210.067 188.659 210.588 188.908 211.244 188.908C211.72 188.908 212.126 188.794 212.464 188.567C212.804 188.337 213.028 188.025 213.136 187.631H214.001C213.888 188.258 213.58 188.76 213.079 189.135C212.581 189.507 211.969 189.693 211.244 189.693ZM216.305 188.392C216.566 188.723 216.939 188.889 217.421 188.889C217.903 188.889 218.276 188.723 218.537 188.392C218.799 188.058 218.93 187.588 218.93 186.983C218.93 186.377 218.799 185.909 218.537 185.578C218.276 185.244 217.903 185.077 217.421 185.077C216.939 185.077 216.566 185.244 216.305 185.578C216.043 185.909 215.912 186.377 215.912 186.983C215.912 187.588 216.043 188.058 216.305 188.392ZM219.138 188.917C218.719 189.387 218.146 189.622 217.421 189.622C216.696 189.622 216.122 189.387 215.699 188.917C215.28 188.444 215.07 187.799 215.07 186.983C215.07 186.163 215.28 185.518 215.699 185.048C216.119 184.578 216.693 184.343 217.421 184.343C218.149 184.343 218.723 184.578 219.143 185.048C219.562 185.518 219.772 186.163 219.772 186.983C219.772 187.799 219.561 188.444 219.138 188.917ZM221.049 189.532V184.433H221.825V185.237H221.9C222.03 184.954 222.236 184.734 222.52 184.58C222.804 184.422 223.14 184.343 223.527 184.343C224.098 184.343 224.538 184.507 224.847 184.835C225.156 185.16 225.311 185.625 225.311 186.231V189.532H224.497V186.429C224.497 185.972 224.398 185.633 224.199 185.412C224.004 185.188 223.703 185.077 223.296 185.077C222.848 185.077 222.496 185.204 222.241 185.46C221.989 185.715 221.863 186.067 221.863 186.514V189.532H221.049ZM226.801 189.532V184.433H227.576V185.237H227.652C227.781 184.954 227.988 184.734 228.272 184.58C228.556 184.422 228.891 184.343 229.279 184.343C229.85 184.343 230.29 184.507 230.599 184.835C230.908 185.16 231.062 185.625 231.062 186.231V189.532H230.249V186.429C230.249 185.972 230.15 185.633 229.951 185.412C229.755 185.188 229.454 185.077 229.047 185.077C228.6 185.077 228.248 185.204 227.993 185.46C227.74 185.715 227.614 186.067 227.614 186.514V189.532H226.801ZM234.586 185.062C234.18 185.062 233.845 185.199 233.584 185.474C233.322 185.748 233.175 186.111 233.144 186.562H235.953C235.944 186.111 235.815 185.748 235.566 185.474C235.316 185.199 234.99 185.062 234.586 185.062ZM235.93 188.213H236.743C236.62 188.654 236.37 188.999 235.991 189.248C235.616 189.498 235.151 189.622 234.596 189.622C233.89 189.622 233.33 189.386 232.917 188.913C232.504 188.436 232.297 187.795 232.297 186.987C232.297 186.183 232.505 185.542 232.921 185.062C233.338 184.583 233.896 184.343 234.596 184.343C235.283 184.343 235.824 184.572 236.218 185.029C236.612 185.486 236.81 186.112 236.81 186.907V187.219H233.144V187.257C233.166 187.762 233.308 188.162 233.569 188.459C233.834 188.755 234.183 188.903 234.615 188.903C235.274 188.903 235.712 188.673 235.93 188.213ZM242.306 185.994H241.483C241.413 185.726 241.264 185.507 241.033 185.337C240.806 185.163 240.518 185.077 240.168 185.077C239.711 185.077 239.346 185.247 239.075 185.587C238.807 185.928 238.673 186.387 238.673 186.964C238.673 187.55 238.809 188.019 239.08 188.369C239.351 188.716 239.714 188.889 240.168 188.889C240.512 188.889 240.797 188.812 241.024 188.657C241.254 188.503 241.407 188.282 241.483 187.995H242.306C242.23 188.477 242.005 188.87 241.629 189.173C241.254 189.472 240.769 189.622 240.173 189.622C239.457 189.622 238.888 189.382 238.465 188.903C238.043 188.421 237.831 187.774 237.831 186.964C237.831 186.169 238.043 185.534 238.465 185.058C238.888 184.581 239.455 184.343 240.168 184.343C240.764 184.343 241.249 184.499 241.625 184.812C242.003 185.124 242.23 185.518 242.306 185.994ZM243.942 183.161H244.756V184.433H245.939V185.114H244.756V188C244.756 188.299 244.816 188.517 244.936 188.652C245.056 188.788 245.248 188.856 245.513 188.856C245.623 188.856 245.746 188.85 245.882 188.837V189.523C245.702 189.554 245.546 189.57 245.414 189.57C244.887 189.57 244.51 189.464 244.283 189.253C244.056 189.042 243.942 188.693 243.942 188.208V185.114H243.086V184.433H243.942V183.161ZM249.633 187.749H250.494C250.547 188.105 250.732 188.389 251.047 188.6C251.362 188.812 251.763 188.917 252.248 188.917C252.709 188.917 253.089 188.807 253.388 188.586C253.691 188.362 253.843 188.082 253.843 187.744C253.843 187.454 253.732 187.214 253.511 187.025C253.291 186.833 252.945 186.677 252.476 186.557L251.6 186.33C250.982 186.175 250.533 185.952 250.252 185.658C249.972 185.365 249.831 184.976 249.831 184.49C249.831 183.91 250.052 183.441 250.494 183.085C250.938 182.726 251.522 182.546 252.244 182.546C252.903 182.546 253.455 182.723 253.899 183.076C254.344 183.429 254.584 183.881 254.618 184.433H253.762C253.702 184.083 253.535 183.81 253.261 183.615C252.99 183.416 252.641 183.317 252.215 183.317C251.761 183.317 251.395 183.423 251.118 183.634C250.844 183.842 250.706 184.118 250.706 184.462C250.706 184.73 250.807 184.947 251.009 185.114C251.214 185.281 251.552 185.425 252.021 185.545L252.736 185.734C253.442 185.911 253.948 186.147 254.254 186.443C254.563 186.74 254.718 187.139 254.718 187.64C254.718 188.268 254.487 188.768 254.027 189.14C253.567 189.509 252.947 189.693 252.168 189.693C251.446 189.693 250.853 189.516 250.39 189.163C249.929 188.81 249.677 188.339 249.633 187.749ZM258.066 185.062C257.66 185.062 257.325 185.199 257.064 185.474C256.802 185.748 256.655 186.111 256.624 186.562H259.433C259.424 186.111 259.295 185.748 259.046 185.474C258.796 185.199 258.47 185.062 258.066 185.062ZM259.41 188.213H260.223C260.1 188.654 259.85 188.999 259.471 189.248C259.096 189.498 258.631 189.622 258.076 189.622C257.37 189.622 256.81 189.386 256.397 188.913C255.984 188.436 255.777 187.795 255.777 186.987C255.777 186.183 255.985 185.542 256.401 185.062C256.818 184.583 257.376 184.343 258.076 184.343C258.763 184.343 259.304 184.572 259.698 185.029C260.093 185.486 260.29 186.112 260.29 186.907V187.219H256.624V187.257C256.646 187.762 256.788 188.162 257.05 188.459C257.314 188.755 257.663 188.903 258.095 188.903C258.754 188.903 259.192 188.673 259.41 188.213ZM261.614 189.532V182.409H262.428V189.532H261.614ZM264.055 189.532V182.409H264.868V189.532H264.055ZM266.33 189.532V188.936L269.272 185.19V185.114H266.335V184.433H270.242V185.043L267.314 188.775V188.851H270.256V189.532H266.33ZM271.552 189.532V188.936L274.494 185.19V185.114H271.557V184.433H275.464V185.043L272.536 188.775V188.851H275.478V189.532H271.552ZM277.327 191.382C277.198 191.382 277.077 191.372 276.963 191.353V190.658C277.045 190.674 277.159 190.682 277.304 190.682C277.537 190.682 277.725 190.617 277.867 190.488C278.008 190.362 278.133 190.146 278.24 189.84L278.335 189.537L276.448 184.433H277.327L278.727 188.629H278.803L280.198 184.433H281.064L279.073 189.844C278.855 190.434 278.622 190.838 278.373 191.055C278.127 191.273 277.778 191.382 277.327 191.382ZM291.3 184.433L289.871 189.532H289.044L287.904 185.587H287.828L286.693 189.532H285.87L284.441 184.433H285.264L286.267 188.511H286.343L287.483 184.433H288.263L289.403 188.511H289.479L290.482 184.433H291.3ZM292.407 189.532V184.433H293.22V189.532H292.407ZM293.216 183.232C293.105 183.342 292.971 183.397 292.814 183.397C292.656 183.397 292.522 183.342 292.412 183.232C292.301 183.118 292.246 182.984 292.246 182.83C292.246 182.675 292.301 182.543 292.412 182.432C292.522 182.319 292.656 182.262 292.814 182.262C292.971 182.262 293.105 182.319 293.216 182.432C293.326 182.543 293.381 182.675 293.381 182.83C293.381 182.984 293.326 183.118 293.216 183.232ZM295.112 183.161H295.926V184.433H297.108V185.114H295.926V188C295.926 188.299 295.986 188.517 296.106 188.652C296.226 188.788 296.418 188.856 296.683 188.856C296.793 188.856 296.916 188.85 297.052 188.837V189.523C296.872 189.554 296.716 189.57 296.583 189.57C296.057 189.57 295.68 189.464 295.453 189.253C295.226 189.042 295.112 188.693 295.112 188.208V185.114H294.256V184.433H295.112V183.161ZM298.338 189.532V182.409H299.152V185.237H299.228C299.357 184.954 299.562 184.734 299.842 184.58C300.123 184.422 300.457 184.343 300.845 184.343C301.422 184.343 301.867 184.509 302.179 184.84C302.494 185.168 302.652 185.631 302.652 186.231V189.532H301.839V186.429C301.839 185.527 301.43 185.077 300.613 185.077C300.163 185.077 299.806 185.207 299.544 185.469C299.283 185.731 299.152 186.079 299.152 186.514V189.532H298.338ZM306.649 187.749H307.51C307.563 188.105 307.748 188.389 308.063 188.6C308.379 188.812 308.779 188.917 309.265 188.917C309.725 188.917 310.105 188.807 310.405 188.586C310.707 188.362 310.859 188.082 310.859 187.744C310.859 187.454 310.748 187.214 310.528 187.025C310.307 186.833 309.962 186.677 309.492 186.557L308.617 186.33C307.999 186.175 307.549 185.952 307.269 185.658C306.988 185.365 306.848 184.976 306.848 184.49C306.848 183.91 307.068 183.441 307.51 183.085C307.955 182.726 308.538 182.546 309.26 182.546C309.919 182.546 310.471 182.723 310.916 183.076C311.36 183.429 311.6 183.881 311.635 184.433H310.778C310.718 184.083 310.551 183.81 310.277 183.615C310.006 183.416 309.657 183.317 309.232 183.317C308.778 183.317 308.412 183.423 308.134 183.634C307.86 183.842 307.723 184.118 307.723 184.462C307.723 184.73 307.824 184.947 308.025 185.114C308.23 185.281 308.568 185.425 309.038 185.545L309.752 185.734C310.458 185.911 310.964 186.147 311.27 186.443C311.579 186.74 311.734 187.139 311.734 187.64C311.734 188.268 311.504 188.768 311.043 189.14C310.583 189.509 309.963 189.693 309.184 189.693C308.462 189.693 307.869 189.516 307.406 189.163C306.945 188.81 306.693 188.339 306.649 187.749ZM313.096 189.532V182.409H313.91V185.237H313.985C314.115 184.954 314.32 184.734 314.6 184.58C314.881 184.422 315.215 184.343 315.603 184.343C316.18 184.343 316.625 184.509 316.937 184.84C317.252 185.168 317.41 185.631 317.41 186.231V189.532H316.596V186.429C316.596 185.527 316.188 185.077 315.371 185.077C314.92 185.077 314.564 185.207 314.302 185.469C314.041 185.731 313.91 186.079 313.91 186.514V189.532H313.096ZM319.874 188.392C320.136 188.723 320.508 188.889 320.991 188.889C321.473 188.889 321.845 188.723 322.107 188.392C322.369 188.058 322.499 187.588 322.499 186.983C322.499 186.377 322.369 185.909 322.107 185.578C321.845 185.244 321.473 185.077 320.991 185.077C320.508 185.077 320.136 185.244 319.874 185.578C319.613 185.909 319.482 186.377 319.482 186.983C319.482 187.588 319.613 188.058 319.874 188.392ZM322.708 188.917C322.288 189.387 321.716 189.622 320.991 189.622C320.265 189.622 319.691 189.387 319.269 188.917C318.849 188.444 318.64 187.799 318.64 186.983C318.64 186.163 318.849 185.518 319.269 185.048C319.688 184.578 320.262 184.343 320.991 184.343C321.719 184.343 322.293 184.578 322.712 185.048C323.132 185.518 323.341 186.163 323.341 186.983C323.341 187.799 323.13 188.444 322.708 188.917ZM327.102 184.343C327.751 184.343 328.27 184.583 328.658 185.062C329.049 185.542 329.245 186.182 329.245 186.983C329.245 187.781 329.049 188.421 328.658 188.903C328.267 189.382 327.748 189.622 327.102 189.622C326.739 189.622 326.418 189.548 326.137 189.4C325.856 189.248 325.647 189.037 325.508 188.766H325.432V191.235H324.619V184.433H325.394V185.285H325.47C325.634 184.991 325.859 184.761 326.146 184.594C326.436 184.427 326.755 184.343 327.102 184.343ZM326.908 188.889C327.375 188.889 327.74 188.72 328.005 188.383C328.27 188.045 328.403 187.579 328.403 186.983C328.403 186.387 328.27 185.92 328.005 185.583C327.744 185.245 327.379 185.077 326.913 185.077C326.452 185.077 326.086 185.248 325.815 185.592C325.544 185.933 325.408 186.396 325.408 186.983C325.408 187.566 325.542 188.03 325.811 188.373C326.082 188.717 326.448 188.889 326.908 188.889ZM330.541 189.532V184.433H331.354V189.532H330.541ZM331.349 183.232C331.239 183.342 331.105 183.397 330.947 183.397C330.79 183.397 330.656 183.342 330.545 183.232C330.435 183.118 330.38 182.984 330.38 182.83C330.38 182.675 330.435 182.543 330.545 182.432C330.656 182.319 330.79 182.262 330.947 182.262C331.105 182.262 331.239 182.319 331.349 182.432C331.46 182.543 331.515 182.675 331.515 182.83C331.515 182.984 331.46 183.118 331.349 183.232ZM333.246 189.532V185.114H332.39V184.433H333.246V183.937C333.246 183.426 333.374 183.052 333.629 182.816C333.888 182.576 334.269 182.456 334.774 182.456C334.919 182.456 335.086 182.472 335.275 182.503V183.184C335.146 183.156 334.995 183.142 334.821 183.142C334.314 183.142 334.06 183.415 334.06 183.96V184.433H335.228V185.114H334.06V189.532H333.246ZM336.851 191.382C336.721 191.382 336.6 191.372 336.486 191.353V190.658C336.568 190.674 336.682 190.682 336.827 190.682C337.06 190.682 337.248 190.617 337.39 190.488C337.532 190.362 337.656 190.146 337.763 189.84L337.858 189.537L335.971 184.433H336.851L338.251 188.629H338.326L339.722 184.433H340.587L338.596 189.844C338.378 190.434 338.145 190.838 337.896 191.055C337.65 191.273 337.301 191.382 336.851 191.382ZM344.75 183.161H345.563V184.433H346.746V185.114H345.563V188C345.563 188.299 345.623 188.517 345.743 188.652C345.863 188.788 346.055 188.856 346.32 188.856C346.43 188.856 346.553 188.85 346.689 188.837V189.523C346.509 189.554 346.353 189.57 346.221 189.57C345.694 189.57 345.317 189.464 345.09 189.253C344.863 189.042 344.75 188.693 344.75 188.208V185.114H343.894V184.433H344.75V183.161ZM348.832 188.392C349.094 188.723 349.466 188.889 349.948 188.889C350.431 188.889 350.803 188.723 351.064 188.392C351.326 188.058 351.457 187.588 351.457 186.983C351.457 186.377 351.326 185.909 351.064 185.578C350.803 185.244 350.431 185.077 349.948 185.077C349.466 185.077 349.094 185.244 348.832 185.578C348.57 185.909 348.439 186.377 348.439 186.983C348.439 187.588 348.57 188.058 348.832 188.392ZM351.665 188.917C351.246 189.387 350.673 189.622 349.948 189.622C349.223 189.622 348.649 189.387 348.226 188.917C347.807 188.444 347.597 187.799 347.597 186.983C347.597 186.163 347.807 185.518 348.226 185.048C348.646 184.578 349.22 184.343 349.948 184.343C350.677 184.343 351.25 184.578 351.67 185.048C352.089 185.518 352.299 186.163 352.299 186.983C352.299 187.799 352.088 188.444 351.665 188.917ZM358.344 185.062C357.937 185.062 357.603 185.199 357.341 185.474C357.079 185.748 356.933 186.111 356.901 186.562H359.711C359.701 186.111 359.572 185.748 359.323 185.474C359.074 185.199 358.748 185.062 358.344 185.062ZM359.687 188.213H360.501C360.378 188.654 360.127 188.999 359.749 189.248C359.374 189.498 358.908 189.622 358.353 189.622C357.647 189.622 357.087 189.386 356.674 188.913C356.261 188.436 356.055 187.795 356.055 186.987C356.055 186.183 356.263 185.542 356.679 185.062C357.095 184.583 357.653 184.343 358.353 184.343C359.041 184.343 359.582 184.572 359.976 185.029C360.37 185.486 360.567 186.112 360.567 186.907V187.219H356.901V187.257C356.923 187.762 357.065 188.162 357.327 188.459C357.592 188.755 357.94 188.903 358.372 188.903C359.031 188.903 359.47 188.673 359.687 188.213ZM362.185 189.532V185.114H361.329V184.433H362.185V183.937C362.185 183.426 362.312 183.052 362.568 182.816C362.826 182.576 363.208 182.456 363.713 182.456C363.858 182.456 364.025 182.472 364.214 182.503V183.184C364.085 183.156 363.933 183.142 363.76 183.142C363.252 183.142 362.998 183.415 362.998 183.96V184.433H364.167V185.114H362.998V189.532H362.185ZM365.694 189.532V185.114H364.838V184.433H365.694V183.937C365.694 183.426 365.822 183.052 366.078 182.816C366.336 182.576 366.718 182.456 367.222 182.456C367.367 182.456 367.534 182.472 367.724 182.503V183.184C367.594 183.156 367.443 183.142 367.27 183.142C366.762 183.142 366.508 183.415 366.508 183.96V184.433H367.676V185.114H366.508V189.532H365.694ZM369.625 188.392C369.887 188.723 370.259 188.889 370.741 188.889C371.224 188.889 371.596 188.723 371.858 188.392C372.119 188.058 372.25 187.588 372.25 186.983C372.25 186.377 372.119 185.909 371.858 185.578C371.596 185.244 371.224 185.077 370.741 185.077C370.259 185.077 369.887 185.244 369.625 185.578C369.363 185.909 369.233 186.377 369.233 186.983C369.233 187.588 369.363 188.058 369.625 188.392ZM372.458 188.917C372.039 189.387 371.467 189.622 370.741 189.622C370.016 189.622 369.442 189.387 369.02 188.917C368.6 188.444 368.391 187.799 368.391 186.983C368.391 186.163 368.6 185.518 369.02 185.048C369.439 184.578 370.013 184.343 370.741 184.343C371.47 184.343 372.044 184.578 372.463 185.048C372.883 185.518 373.092 186.163 373.092 186.983C373.092 187.799 372.881 188.444 372.458 188.917ZM374.369 189.532V184.433H375.145V185.19H375.221C375.297 184.941 375.467 184.738 375.732 184.58C375.997 184.422 376.298 184.343 376.635 184.343C376.79 184.343 376.925 184.351 377.042 184.367V185.181C376.932 185.149 376.758 185.133 376.522 185.133C376.134 185.133 375.814 185.25 375.561 185.483C375.309 185.717 375.183 186.013 375.183 186.373V189.532H374.369ZM378.617 183.161H379.431V184.433H380.613V185.114H379.431V188C379.431 188.299 379.491 188.517 379.61 188.652C379.73 188.788 379.923 188.856 380.187 188.856C380.298 188.856 380.421 188.85 380.556 188.837V189.523C380.377 189.554 380.221 189.57 380.088 189.57C379.561 189.57 379.185 189.464 378.958 189.253C378.731 189.042 378.617 188.693 378.617 188.208V185.114H377.761V184.433H378.617V183.161ZM381.843 189.532V182.409H382.657V189.532H381.843ZM386.27 185.062C385.863 185.062 385.529 185.199 385.268 185.474C385.006 185.748 384.859 186.111 384.828 186.562H387.637C387.628 186.111 387.499 185.748 387.249 185.474C387 185.199 386.674 185.062 386.27 185.062ZM387.614 188.213H388.427C388.304 188.654 388.054 188.999 387.675 189.248C387.3 189.498 386.835 189.622 386.28 189.622C385.573 189.622 385.014 189.386 384.601 188.913C384.187 188.436 383.981 187.795 383.981 186.987C383.981 186.183 384.189 185.542 384.605 185.062C385.022 184.583 385.58 184.343 386.28 184.343C386.967 184.343 387.508 184.572 387.902 185.029C388.296 185.486 388.493 186.112 388.493 186.907V187.219H384.828V187.257C384.85 187.762 384.992 188.162 385.253 188.459C385.518 188.755 385.867 188.903 386.299 188.903C386.958 188.903 387.396 188.673 387.614 188.213ZM389.652 185.829C389.652 185.406 389.834 185.053 390.196 184.769C390.559 184.485 391.011 184.343 391.554 184.343C392.087 184.343 392.527 184.466 392.873 184.712C393.22 184.958 393.421 185.291 393.474 185.71H392.67C392.613 185.502 392.487 185.338 392.292 185.218C392.099 185.095 391.852 185.034 391.549 185.034C391.243 185.034 390.986 185.105 390.778 185.247C390.573 185.389 390.471 185.572 390.471 185.795C390.471 185.969 390.542 186.114 390.683 186.231C390.829 186.344 391.052 186.437 391.355 186.51L392.14 186.699C392.626 186.816 392.984 186.984 393.214 187.205C393.447 187.426 393.564 187.717 393.564 188.08C393.564 188.531 393.37 188.902 392.982 189.192C392.594 189.479 392.107 189.622 391.521 189.622C390.953 189.622 390.488 189.496 390.125 189.244C389.763 188.991 389.559 188.654 389.515 188.231H390.352C390.422 188.452 390.559 188.626 390.764 188.752C390.969 188.875 391.231 188.936 391.549 188.936C391.893 188.936 392.175 188.862 392.396 188.714C392.616 188.566 392.727 188.375 392.727 188.142C392.727 187.795 392.457 187.555 391.918 187.423L391.043 187.21C390.56 187.093 390.207 186.926 389.983 186.708C389.763 186.488 389.652 186.194 389.652 185.829ZM394.628 185.829C394.628 185.406 394.81 185.053 395.172 184.769C395.535 184.485 395.987 184.343 396.53 184.343C397.063 184.343 397.503 184.466 397.849 184.712C398.196 184.958 398.397 185.291 398.45 185.71H397.646C397.589 185.502 397.463 185.338 397.268 185.218C397.075 185.095 396.828 185.034 396.525 185.034C396.219 185.034 395.962 185.105 395.754 185.247C395.549 185.389 395.447 185.572 395.447 185.795C395.447 185.969 395.518 186.114 395.659 186.231C395.805 186.344 396.028 186.437 396.331 186.51L397.116 186.699C397.602 186.816 397.96 186.984 398.19 187.205C398.423 187.426 398.54 187.717 398.54 188.08C398.54 188.531 398.346 188.902 397.958 189.192C397.57 189.479 397.083 189.622 396.497 189.622C395.929 189.622 395.464 189.496 395.101 189.244C394.739 188.991 394.535 188.654 394.491 188.231H395.328C395.398 188.452 395.535 188.626 395.74 188.752C395.945 188.875 396.207 188.936 396.525 188.936C396.869 188.936 397.151 188.862 397.372 188.714C397.592 188.566 397.703 188.375 397.703 188.142C397.703 187.795 397.433 187.555 396.894 187.423L396.019 187.21C395.536 187.093 395.183 186.926 394.959 186.708C394.739 186.488 394.628 186.194 394.628 185.829ZM399.865 189.532V182.409H400.678V189.532H399.865ZM402.693 191.382C402.564 191.382 402.442 191.372 402.329 191.353V190.658C402.411 190.674 402.524 190.682 402.669 190.682C402.903 190.682 403.09 190.617 403.232 190.488C403.374 190.362 403.499 190.146 403.606 189.84L403.701 189.537L401.813 184.433H402.693L404.093 188.629H404.169L405.564 184.433H406.43L404.438 189.844C404.221 190.434 403.988 190.838 403.738 191.055C403.492 191.273 403.144 191.382 402.693 191.382ZM410.252 189.532V184.433H411.027V185.237H411.103C411.22 184.954 411.401 184.734 411.647 184.58C411.893 184.422 412.186 184.343 412.527 184.343C412.861 184.343 413.148 184.424 413.388 184.585C413.631 184.745 413.813 184.963 413.936 185.237H414.012C414.151 184.963 414.359 184.745 414.637 184.585C414.914 184.424 415.226 184.343 415.573 184.343C416.093 184.343 416.494 184.488 416.775 184.779C417.055 185.065 417.195 185.475 417.195 186.008V189.532H416.382V186.198C416.382 185.45 416.024 185.077 415.308 185.077C414.961 185.077 414.678 185.19 414.457 185.417C414.236 185.644 414.126 185.923 414.126 186.254V189.532H413.312V186.07C413.312 185.767 413.214 185.526 413.019 185.346C412.826 185.166 412.569 185.077 412.248 185.077C411.917 185.077 411.636 185.203 411.406 185.455C411.179 185.707 411.065 186.013 411.065 186.373V189.532H410.252ZM420.251 188.908C420.671 188.908 421.017 188.786 421.292 188.544C421.569 188.301 421.708 187.997 421.708 187.631V187.162L420.336 187.252C419.952 187.278 419.669 187.358 419.49 187.494C419.31 187.629 419.22 187.826 419.22 188.085C419.22 188.34 419.316 188.542 419.508 188.69C419.701 188.835 419.948 188.908 420.251 188.908ZM420.1 189.622C419.598 189.622 419.185 189.485 418.86 189.211C418.539 188.933 418.378 188.564 418.378 188.104C418.378 187.65 418.539 187.293 418.86 187.035C419.182 186.776 419.641 186.63 420.237 186.595L421.708 186.505V186.041C421.708 185.726 421.61 185.485 421.415 185.318C421.219 185.151 420.932 185.067 420.554 185.067C420.248 185.067 419.994 185.122 419.792 185.233C419.59 185.343 419.461 185.499 419.404 185.701H418.581C418.635 185.294 418.845 184.966 419.21 184.717C419.579 184.468 420.037 184.343 420.582 184.343C421.2 184.343 421.678 184.493 422.015 184.793C422.353 185.092 422.522 185.509 422.522 186.041V189.532H421.746V188.78H421.67C421.506 189.051 421.289 189.259 421.017 189.405C420.746 189.55 420.44 189.622 420.1 189.622ZM424.026 189.532V184.433H424.801V185.237H424.877C425.006 184.954 425.213 184.734 425.497 184.58C425.781 184.422 426.116 184.343 426.504 184.343C427.075 184.343 427.515 184.507 427.824 184.835C428.133 185.16 428.287 185.625 428.287 186.231V189.532H427.474V186.429C427.474 185.972 427.375 185.633 427.176 185.412C426.98 185.188 426.679 185.077 426.272 185.077C425.825 185.077 425.473 185.204 425.218 185.46C424.965 185.715 424.839 186.067 424.839 186.514V189.532H424.026ZM431.348 188.908C431.767 188.908 432.114 188.786 432.388 188.544C432.666 188.301 432.805 187.997 432.805 187.631V187.162L431.433 187.252C431.048 187.278 430.766 187.358 430.586 187.494C430.407 187.629 430.317 187.826 430.317 188.085C430.317 188.34 430.413 188.542 430.605 188.69C430.798 188.835 431.045 188.908 431.348 188.908ZM431.196 189.622C430.695 189.622 430.282 189.485 429.957 189.211C429.636 188.933 429.475 188.564 429.475 188.104C429.475 187.65 429.636 187.293 429.957 187.035C430.279 186.776 430.738 186.63 431.334 186.595L432.805 186.505V186.041C432.805 185.726 432.707 185.485 432.511 185.318C432.316 185.151 432.029 185.067 431.651 185.067C431.345 185.067 431.091 185.122 430.889 185.233C430.687 185.343 430.558 185.499 430.501 185.701H429.678C429.732 185.294 429.941 184.966 430.307 184.717C430.676 184.468 431.133 184.343 431.679 184.343C432.297 184.343 432.775 184.493 433.112 184.793C433.45 185.092 433.618 185.509 433.618 186.041V189.532H432.843V188.78H432.767C432.603 189.051 432.385 189.259 432.114 189.405C431.843 189.55 431.537 189.622 431.196 189.622ZM438.698 186.907C438.698 186.349 438.563 185.904 438.292 185.573C438.02 185.242 437.651 185.077 437.185 185.077C436.718 185.077 436.355 185.24 436.097 185.568C435.838 185.896 435.709 186.343 435.709 186.907C435.709 187.471 435.838 187.918 436.097 188.246C436.355 188.574 436.718 188.738 437.185 188.738C437.655 188.738 438.024 188.574 438.292 188.246C438.563 187.915 438.698 187.468 438.698 186.907ZM437.223 191.49C436.614 191.49 436.12 191.364 435.742 191.112C435.367 190.86 435.148 190.521 435.085 190.095H435.945C435.99 190.306 436.124 190.474 436.348 190.596C436.571 190.719 436.863 190.781 437.223 190.781C437.68 190.781 438.036 190.674 438.292 190.459C438.55 190.248 438.679 189.955 438.679 189.58V188.577H438.604C438.443 188.857 438.224 189.075 437.946 189.23C437.669 189.381 437.355 189.457 437.005 189.457C436.349 189.457 435.829 189.225 435.444 188.761C435.059 188.295 434.867 187.676 434.867 186.907C434.867 186.138 435.061 185.518 435.449 185.048C435.837 184.578 436.355 184.343 437.005 184.343C437.361 184.343 437.686 184.425 437.979 184.589C438.273 184.75 438.493 184.968 438.642 185.242H438.717V184.433H439.493V189.622C439.493 190.193 439.288 190.647 438.878 190.984C438.468 191.322 437.916 191.49 437.223 191.49ZM443.06 185.062C442.653 185.062 442.318 185.199 442.057 185.474C441.795 185.748 441.648 186.111 441.617 186.562H444.426C444.417 186.111 444.288 185.748 444.039 185.474C443.79 185.199 443.463 185.062 443.06 185.062ZM444.403 188.213H445.216C445.093 188.654 444.843 188.999 444.464 189.248C444.089 189.498 443.624 189.622 443.069 189.622C442.363 189.622 441.803 189.386 441.39 188.913C440.977 188.436 440.77 187.795 440.77 186.987C440.77 186.183 440.978 185.542 441.395 185.062C441.811 184.583 442.369 184.343 443.069 184.343C443.756 184.343 444.297 184.572 444.691 185.029C445.086 185.486 445.283 186.112 445.283 186.907V187.219H441.617V187.257C441.639 187.762 441.781 188.162 442.043 188.459C442.307 188.755 442.656 188.903 443.088 188.903C443.747 188.903 444.185 188.673 444.403 188.213ZM449.729 191.382C449.6 191.382 449.478 191.372 449.365 191.353V190.658C449.447 190.674 449.56 190.682 449.705 190.682C449.939 190.682 450.126 190.617 450.268 190.488C450.41 190.362 450.535 190.146 450.642 189.84L450.736 189.537L448.849 184.433H449.729L451.129 188.629H451.205L452.6 184.433H453.466L451.474 189.844C451.257 190.434 451.023 190.838 450.774 191.055C450.528 191.273 450.18 191.382 449.729 191.382ZM455.343 188.392C455.605 188.723 455.977 188.889 456.46 188.889C456.942 188.889 457.314 188.723 457.576 188.392C457.838 188.058 457.969 187.588 457.969 186.983C457.969 186.377 457.838 185.909 457.576 185.578C457.314 185.244 456.942 185.077 456.46 185.077C455.977 185.077 455.605 185.244 455.343 185.578C455.082 185.909 454.951 186.377 454.951 186.983C454.951 187.588 455.082 188.058 455.343 188.392ZM458.177 188.917C457.757 189.387 457.185 189.622 456.46 189.622C455.735 189.622 455.161 189.387 454.738 188.917C454.319 188.444 454.109 187.799 454.109 186.983C454.109 186.163 454.319 185.518 454.738 185.048C455.157 184.578 455.731 184.343 456.46 184.343C457.188 184.343 457.762 184.578 458.182 185.048C458.601 185.518 458.811 186.163 458.811 186.983C458.811 187.799 458.599 188.444 458.177 188.917ZM464.307 184.433V189.532H463.531V188.733H463.456C463.329 189.017 463.124 189.236 462.841 189.39C462.557 189.545 462.219 189.622 461.828 189.622C461.258 189.622 460.816 189.458 460.504 189.13C460.195 188.802 460.04 188.337 460.04 187.735V184.433H460.854V187.536C460.854 187.993 460.952 188.332 461.147 188.553C461.346 188.771 461.649 188.879 462.055 188.879C462.506 188.879 462.858 188.753 463.11 188.501C463.366 188.249 463.493 187.899 463.493 187.451V184.433H464.307ZM465.84 189.532V184.433H466.615V185.19H466.691C466.767 184.941 466.937 184.738 467.202 184.58C467.467 184.422 467.768 184.343 468.105 184.343C468.26 184.343 468.395 184.351 468.512 184.367V185.181C468.402 185.149 468.228 185.133 467.992 185.133C467.604 185.133 467.284 185.25 467.031 185.483C466.779 185.717 466.653 186.013 466.653 186.373V189.532H465.84ZM208.273 201.829C208.273 201.406 208.454 201.053 208.817 200.769C209.18 200.485 209.632 200.343 210.175 200.343C210.707 200.343 211.147 200.466 211.494 200.712C211.841 200.958 212.041 201.291 212.095 201.71H211.291C211.234 201.502 211.108 201.338 210.912 201.218C210.72 201.095 210.473 201.034 210.17 201.034C209.864 201.034 209.607 201.105 209.399 201.247C209.194 201.389 209.091 201.572 209.091 201.795C209.091 201.969 209.162 202.114 209.304 202.231C209.449 202.344 209.673 202.437 209.976 202.51L210.761 202.699C211.247 202.816 211.605 202.984 211.835 203.205C212.068 203.426 212.185 203.717 212.185 204.08C212.185 204.531 211.991 204.902 211.603 205.192C211.215 205.479 210.728 205.622 210.141 205.622C209.574 205.622 209.109 205.496 208.746 205.244C208.383 204.991 208.18 204.654 208.136 204.231H208.973C209.042 204.452 209.18 204.626 209.385 204.752C209.59 204.875 209.851 204.936 210.17 204.936C210.513 204.936 210.796 204.862 211.016 204.714C211.237 204.566 211.348 204.375 211.348 204.142C211.348 203.795 211.078 203.555 210.539 203.423L209.664 203.21C209.181 203.093 208.828 202.926 208.604 202.708C208.383 202.488 208.273 202.194 208.273 201.829ZM213.755 199.161H214.569V200.433H215.751V201.114H214.569V204C214.569 204.299 214.629 204.517 214.748 204.652C214.868 204.788 215.061 204.856 215.326 204.856C215.436 204.856 215.559 204.85 215.694 204.837V205.523C215.515 205.554 215.359 205.57 215.226 205.57C214.7 205.57 214.323 205.464 214.096 205.253C213.869 205.042 213.755 204.693 213.755 204.208V201.114H212.899V200.433H213.755V199.161ZM217.837 204.392C218.099 204.723 218.471 204.889 218.954 204.889C219.436 204.889 219.808 204.723 220.07 204.392C220.332 204.058 220.462 203.588 220.462 202.983C220.462 202.377 220.332 201.909 220.07 201.578C219.808 201.244 219.436 201.077 218.954 201.077C218.471 201.077 218.099 201.244 217.837 201.578C217.575 201.909 217.445 202.377 217.445 202.983C217.445 203.588 217.575 204.058 217.837 204.392ZM220.671 204.917C220.251 205.387 219.679 205.622 218.954 205.622C218.228 205.622 217.654 205.387 217.232 204.917C216.812 204.444 216.603 203.799 216.603 202.983C216.603 202.163 216.812 201.518 217.232 201.048C217.651 200.578 218.225 200.343 218.954 200.343C219.682 200.343 220.256 200.578 220.675 201.048C221.095 201.518 221.304 202.163 221.304 202.983C221.304 203.799 221.093 204.444 220.671 204.917ZM222.581 205.532V200.433H223.357V201.19H223.433C223.509 200.941 223.679 200.738 223.944 200.58C224.209 200.422 224.51 200.343 224.847 200.343C225.002 200.343 225.137 200.351 225.254 200.367V201.181C225.144 201.149 224.97 201.133 224.734 201.133C224.346 201.133 224.026 201.25 223.773 201.483C223.521 201.717 223.395 202.013 223.395 202.373V205.532H222.581ZM228.163 201.062C227.756 201.062 227.422 201.199 227.16 201.474C226.898 201.748 226.752 202.111 226.72 202.562H229.53C229.52 202.111 229.391 201.748 229.142 201.474C228.893 201.199 228.567 201.062 228.163 201.062ZM229.506 204.213H230.32C230.197 204.654 229.946 204.999 229.568 205.248C229.193 205.498 228.727 205.622 228.172 205.622C227.466 205.622 226.906 205.386 226.493 204.913C226.08 204.436 225.874 203.795 225.874 202.987C225.874 202.183 226.082 201.542 226.498 201.062C226.914 200.583 227.472 200.343 228.172 200.343C228.86 200.343 229.401 200.572 229.795 201.029C230.189 201.486 230.386 202.112 230.386 202.907V203.219H226.72V203.257C226.742 203.762 226.884 204.162 227.146 204.459C227.411 204.755 227.759 204.903 228.191 204.903C228.85 204.903 229.289 204.673 229.506 204.213ZM232.335 201.256H231.578L232.226 198.707H233.078L232.335 201.256ZM233.796 201.829C233.796 201.406 233.978 201.053 234.34 200.769C234.703 200.485 235.156 200.343 235.698 200.343C236.231 200.343 236.671 200.466 237.018 200.712C237.365 200.958 237.565 201.291 237.618 201.71H236.814C236.758 201.502 236.631 201.338 236.436 201.218C236.244 201.095 235.996 201.034 235.693 201.034C235.387 201.034 235.13 201.105 234.922 201.247C234.717 201.389 234.615 201.572 234.615 201.795C234.615 201.969 234.686 202.114 234.828 202.231C234.973 202.344 235.197 202.437 235.499 202.51L236.284 202.699C236.77 202.816 237.128 202.984 237.358 203.205C237.592 203.426 237.708 203.717 237.708 204.08C237.708 204.531 237.514 204.902 237.126 205.192C236.739 205.479 236.251 205.622 235.665 205.622C235.097 205.622 234.632 205.496 234.269 205.244C233.907 204.991 233.703 204.654 233.659 204.231H234.497C234.566 204.452 234.703 204.626 234.908 204.752C235.113 204.875 235.375 204.936 235.693 204.936C236.037 204.936 236.319 204.862 236.54 204.714C236.761 204.566 236.871 204.375 236.871 204.142C236.871 203.795 236.601 203.555 236.062 203.423L235.187 203.21C234.705 203.093 234.351 202.926 234.128 202.708C233.907 202.488 233.796 202.194 233.796 201.829ZM244.203 200.343C244.852 200.343 245.371 200.583 245.759 201.062C246.15 201.542 246.345 202.182 246.345 202.983C246.345 203.781 246.15 204.421 245.759 204.903C245.368 205.382 244.849 205.622 244.203 205.622C243.84 205.622 243.518 205.548 243.238 205.4C242.957 205.248 242.747 205.037 242.609 204.766H242.533V207.235H241.719V200.433H242.495V201.285H242.571C242.735 200.991 242.96 200.761 243.247 200.594C243.537 200.427 243.856 200.343 244.203 200.343ZM244.009 204.889C244.475 204.889 244.841 204.72 245.106 204.383C245.371 204.045 245.503 203.579 245.503 202.983C245.503 202.387 245.371 201.92 245.106 201.583C244.844 201.245 244.48 201.077 244.013 201.077C243.553 201.077 243.187 201.248 242.916 201.592C242.645 201.933 242.509 202.396 242.509 202.983C242.509 203.566 242.643 204.03 242.911 204.373C243.183 204.717 243.548 204.889 244.009 204.889ZM247.622 205.532V200.433H248.398V201.19H248.474C248.55 200.941 248.72 200.738 248.985 200.58C249.25 200.422 249.551 200.343 249.888 200.343C250.043 200.343 250.178 200.351 250.295 200.367V201.181C250.185 201.149 250.011 201.133 249.775 201.133C249.387 201.133 249.067 201.25 248.814 201.483C248.562 201.717 248.436 202.013 248.436 202.373V205.532H247.622ZM252.149 204.392C252.411 204.723 252.783 204.889 253.265 204.889C253.748 204.889 254.12 204.723 254.382 204.392C254.643 204.058 254.774 203.588 254.774 202.983C254.774 202.377 254.643 201.909 254.382 201.578C254.12 201.244 253.748 201.077 253.265 201.077C252.783 201.077 252.411 201.244 252.149 201.578C251.887 201.909 251.757 202.377 251.757 202.983C251.757 203.588 251.887 204.058 252.149 204.392ZM254.982 204.917C254.563 205.387 253.991 205.622 253.265 205.622C252.54 205.622 251.966 205.387 251.544 204.917C251.124 204.444 250.915 203.799 250.915 202.983C250.915 202.163 251.124 201.518 251.544 201.048C251.963 200.578 252.537 200.343 253.265 200.343C253.994 200.343 254.568 200.578 254.987 201.048C255.407 201.518 255.616 202.163 255.616 202.983C255.616 203.799 255.405 204.444 254.982 204.917ZM258.781 205.622C258.128 205.622 257.608 205.382 257.22 204.903C256.832 204.424 256.638 203.784 256.638 202.983C256.638 202.185 256.832 201.546 257.22 201.067C257.611 200.585 258.131 200.343 258.781 200.343C259.137 200.343 259.456 200.424 259.736 200.585C260.02 200.742 260.234 200.96 260.379 201.237H260.45V198.409H261.264V205.532H260.488V204.719H260.413C260.252 205.002 260.028 205.225 259.741 205.386C259.454 205.543 259.134 205.622 258.781 205.622ZM258.97 201.077C258.506 201.077 258.142 201.247 257.877 201.587C257.612 201.925 257.48 202.39 257.48 202.983C257.48 203.579 257.611 204.045 257.873 204.383C258.137 204.72 258.503 204.889 258.97 204.889C259.433 204.889 259.799 204.719 260.067 204.378C260.335 204.038 260.469 203.572 260.469 202.983C260.469 202.399 260.334 201.936 260.063 201.592C259.795 201.248 259.43 201.077 258.97 201.077ZM267.063 200.433V205.532H266.287V204.733H266.212C266.086 205.017 265.881 205.236 265.597 205.39C265.313 205.545 264.976 205.622 264.585 205.622C264.014 205.622 263.572 205.458 263.26 205.13C262.951 204.802 262.797 204.337 262.797 203.735V200.433H263.61V203.536C263.61 203.993 263.708 204.332 263.903 204.553C264.102 204.771 264.405 204.879 264.812 204.879C265.262 204.879 265.614 204.753 265.866 204.501C266.122 204.249 266.249 203.899 266.249 203.451V200.433H267.063ZM272.815 201.994H271.992C271.922 201.726 271.773 201.507 271.542 201.337C271.315 201.163 271.027 201.077 270.677 201.077C270.22 201.077 269.855 201.247 269.584 201.587C269.316 201.928 269.182 202.387 269.182 202.964C269.182 203.55 269.318 204.019 269.589 204.369C269.86 204.716 270.223 204.889 270.677 204.889C271.021 204.889 271.306 204.812 271.533 204.657C271.763 204.503 271.916 204.282 271.992 203.995H272.815C272.739 204.477 272.514 204.87 272.138 205.173C271.763 205.472 271.278 205.622 270.682 205.622C269.966 205.622 269.397 205.382 268.974 204.903C268.551 204.421 268.34 203.774 268.34 202.964C268.34 202.169 268.551 201.534 268.974 201.058C269.397 200.581 269.964 200.343 270.677 200.343C271.273 200.343 271.758 200.499 272.134 200.812C272.512 201.124 272.739 201.518 272.815 201.994ZM274.451 199.161H275.265V200.433H276.448V201.114H275.265V204C275.265 204.299 275.325 204.517 275.445 204.652C275.565 204.788 275.757 204.856 276.022 204.856C276.132 204.856 276.255 204.85 276.391 204.837V205.523C276.211 205.554 276.055 205.57 275.922 205.57C275.396 205.57 275.019 205.464 274.792 205.253C274.565 205.042 274.451 204.693 274.451 204.208V201.114H273.595V200.433H274.451V199.161ZM277.417 201.829C277.417 201.406 277.599 201.053 277.961 200.769C278.324 200.485 278.776 200.343 279.319 200.343C279.852 200.343 280.291 200.466 280.638 200.712C280.985 200.958 281.185 201.291 281.239 201.71H280.435C280.378 201.502 280.252 201.338 280.057 201.218C279.864 201.095 279.617 201.034 279.314 201.034C279.008 201.034 278.751 201.105 278.543 201.247C278.338 201.389 278.235 201.572 278.235 201.795C278.235 201.969 278.306 202.114 278.448 202.231C278.593 202.344 278.817 202.437 279.12 202.51L279.905 202.699C280.391 202.816 280.749 202.984 280.979 203.205C281.212 203.426 281.329 203.717 281.329 204.08C281.329 204.531 281.135 204.902 280.747 205.192C280.359 205.479 279.872 205.622 279.286 205.622C278.718 205.622 278.253 205.496 277.89 205.244C277.528 204.991 277.324 204.654 277.28 204.231H278.117C278.187 204.452 278.324 204.626 278.529 204.752C278.734 204.875 278.995 204.936 279.314 204.936C279.658 204.936 279.94 204.862 280.161 204.714C280.381 204.566 280.492 204.375 280.492 204.142C280.492 203.795 280.222 203.555 279.683 203.423L278.808 203.21C278.325 203.093 277.972 202.926 277.748 202.708C277.528 202.488 277.417 202.194 277.417 201.829ZM283.07 207.268H282.36L282.814 204.577H283.77L283.07 207.268ZM289.29 204.392C289.551 204.723 289.923 204.889 290.406 204.889C290.888 204.889 291.261 204.723 291.522 204.392C291.784 204.058 291.915 203.588 291.915 202.983C291.915 202.377 291.784 201.909 291.522 201.578C291.261 201.244 290.888 201.077 290.406 201.077C289.923 201.077 289.551 201.244 289.29 201.578C289.028 201.909 288.897 202.377 288.897 202.983C288.897 203.588 289.028 204.058 289.29 204.392ZM292.123 204.917C291.704 205.387 291.131 205.622 290.406 205.622C289.681 205.622 289.107 205.387 288.684 204.917C288.265 204.444 288.055 203.799 288.055 202.983C288.055 202.163 288.265 201.518 288.684 201.048C289.104 200.578 289.678 200.343 290.406 200.343C291.134 200.343 291.708 200.578 292.128 201.048C292.547 201.518 292.757 202.163 292.757 202.983C292.757 203.799 292.546 204.444 292.123 204.917ZM294.034 205.532V200.433H294.81V201.19H294.885C294.961 200.941 295.131 200.738 295.396 200.58C295.661 200.422 295.962 200.343 296.3 200.343C296.454 200.343 296.59 200.351 296.706 200.367V201.181C296.596 201.149 296.423 201.133 296.186 201.133C295.798 201.133 295.478 201.25 295.226 201.483C294.974 201.717 294.847 202.013 294.847 202.373V205.532H294.034ZM299.469 205.622C298.816 205.622 298.296 205.382 297.908 204.903C297.52 204.424 297.326 203.784 297.326 202.983C297.326 202.185 297.52 201.546 297.908 201.067C298.299 200.585 298.819 200.343 299.469 200.343C299.825 200.343 300.144 200.424 300.424 200.585C300.708 200.742 300.922 200.96 301.068 201.237H301.138V198.409H301.952V205.532H301.176V204.719H301.101C300.94 205.002 300.716 205.225 300.429 205.386C300.142 205.543 299.822 205.622 299.469 205.622ZM299.658 201.077C299.194 201.077 298.83 201.247 298.565 201.587C298.3 201.925 298.168 202.39 298.168 202.983C298.168 203.579 298.299 204.045 298.561 204.383C298.825 204.72 299.191 204.889 299.658 204.889C300.122 204.889 300.487 204.719 300.755 204.378C301.023 204.038 301.157 203.572 301.157 202.983C301.157 202.399 301.022 201.936 300.751 201.592C300.483 201.248 300.118 201.077 299.658 201.077ZM305.566 201.062C305.159 201.062 304.825 201.199 304.563 201.474C304.301 201.748 304.155 202.111 304.123 202.562H306.933C306.923 202.111 306.794 201.748 306.545 201.474C306.296 201.199 305.969 201.062 305.566 201.062ZM306.909 204.213H307.723C307.6 204.654 307.349 204.999 306.971 205.248C306.595 205.498 306.13 205.622 305.575 205.622C304.869 205.622 304.309 205.386 303.896 204.913C303.483 204.436 303.276 203.795 303.276 202.987C303.276 202.183 303.485 201.542 303.901 201.062C304.317 200.583 304.875 200.343 305.575 200.343C306.263 200.343 306.804 200.572 307.198 201.029C307.592 201.486 307.789 202.112 307.789 202.907V203.219H304.123V203.257C304.145 203.762 304.287 204.162 304.549 204.459C304.814 204.755 305.162 204.903 305.594 204.903C306.253 204.903 306.692 204.673 306.909 204.213ZM309.066 205.532V200.433H309.842V201.19H309.917C309.993 200.941 310.163 200.738 310.428 200.58C310.693 200.422 310.994 200.343 311.332 200.343C311.486 200.343 311.622 200.351 311.739 200.367V201.181C311.628 201.149 311.455 201.133 311.218 201.133C310.83 201.133 310.51 201.25 310.258 201.483C310.006 201.717 309.88 202.013 309.88 202.373V205.532H309.066ZM312.476 201.829C312.476 201.406 312.658 201.053 313.02 200.769C313.383 200.485 313.836 200.343 314.378 200.343C314.911 200.343 315.351 200.466 315.698 200.712C316.045 200.958 316.245 201.291 316.298 201.71H315.494C315.437 201.502 315.311 201.338 315.116 201.218C314.923 201.095 314.676 201.034 314.373 201.034C314.067 201.034 313.81 201.105 313.602 201.247C313.397 201.389 313.295 201.572 313.295 201.795C313.295 201.969 313.366 202.114 313.508 202.231C313.653 202.344 313.877 202.437 314.179 202.51L314.964 202.699C315.45 202.816 315.808 202.984 316.038 203.205C316.272 203.426 316.388 203.717 316.388 204.08C316.388 204.531 316.194 204.902 315.806 205.192C315.419 205.479 314.931 205.622 314.345 205.622C313.777 205.622 313.312 205.496 312.949 205.244C312.587 204.991 312.383 204.654 312.339 204.231H313.177C313.246 204.452 313.383 204.626 313.588 204.752C313.793 204.875 314.055 204.936 314.373 204.936C314.717 204.936 314.999 204.862 315.22 204.714C315.441 204.566 315.551 204.375 315.551 204.142C315.551 203.795 315.281 203.555 314.742 203.423L313.867 203.21C313.385 203.093 313.031 202.926 312.808 202.708C312.587 202.488 312.476 202.194 312.476 201.829ZM318.129 207.268H317.419L317.873 204.577H318.829L318.129 207.268ZM324.94 204.908C325.36 204.908 325.706 204.786 325.981 204.544C326.258 204.301 326.397 203.997 326.397 203.631V203.162L325.025 203.252C324.641 203.278 324.358 203.358 324.179 203.494C323.999 203.629 323.909 203.826 323.909 204.085C323.909 204.34 324.005 204.542 324.198 204.69C324.39 204.835 324.637 204.908 324.94 204.908ZM324.789 205.622C324.287 205.622 323.874 205.485 323.55 205.211C323.228 204.933 323.067 204.564 323.067 204.104C323.067 203.65 323.228 203.293 323.55 203.035C323.871 202.776 324.33 202.63 324.926 202.595L326.397 202.505V202.041C326.397 201.726 326.299 201.485 326.104 201.318C325.908 201.151 325.621 201.067 325.243 201.067C324.937 201.067 324.683 201.122 324.481 201.233C324.28 201.343 324.15 201.499 324.094 201.701H323.27C323.324 201.294 323.534 200.966 323.9 200.717C324.269 200.468 324.726 200.343 325.271 200.343C325.889 200.343 326.367 200.493 326.705 200.793C327.042 201.092 327.211 201.509 327.211 202.041V205.532H326.435V204.78H326.359C326.195 205.051 325.978 205.259 325.706 205.405C325.435 205.55 325.129 205.622 324.789 205.622ZM328.715 205.532V200.433H329.491V201.237H329.566C329.695 200.954 329.902 200.734 330.186 200.58C330.47 200.422 330.805 200.343 331.193 200.343C331.764 200.343 332.204 200.507 332.513 200.835C332.822 201.16 332.977 201.625 332.977 202.231V205.532H332.163V202.429C332.163 201.972 332.064 201.633 331.865 201.412C331.67 201.188 331.368 201.077 330.962 201.077C330.514 201.077 330.162 201.204 329.907 201.46C329.655 201.715 329.528 202.067 329.528 202.514V205.532H328.715ZM336.354 205.622C335.701 205.622 335.181 205.382 334.793 204.903C334.405 204.424 334.211 203.784 334.211 202.983C334.211 202.185 334.405 201.546 334.793 201.067C335.184 200.585 335.704 200.343 336.354 200.343C336.71 200.343 337.029 200.424 337.309 200.585C337.593 200.742 337.808 200.96 337.953 201.237H338.024V198.409H338.837V205.532H338.061V204.719H337.986C337.825 205.002 337.601 205.225 337.314 205.386C337.027 205.543 336.707 205.622 336.354 205.622ZM336.543 201.077C336.08 201.077 335.715 201.247 335.45 201.587C335.186 201.925 335.053 202.39 335.053 202.983C335.053 203.579 335.184 204.045 335.446 204.383C335.711 204.72 336.076 204.889 336.543 204.889C337.007 204.889 337.372 204.719 337.64 204.378C337.908 204.038 338.042 203.572 338.042 202.983C338.042 202.399 337.907 201.936 337.636 201.592C337.368 201.248 337.003 201.077 336.543 201.077ZM347.37 201.994H346.547C346.478 201.726 346.328 201.507 346.098 201.337C345.871 201.163 345.582 201.077 345.232 201.077C344.775 201.077 344.411 201.247 344.14 201.587C343.872 201.928 343.737 202.387 343.737 202.964C343.737 203.55 343.873 204.019 344.144 204.369C344.415 204.716 344.778 204.889 345.232 204.889C345.576 204.889 345.861 204.812 346.088 204.657C346.319 204.503 346.471 204.282 346.547 203.995H347.37C347.295 204.477 347.069 204.87 346.694 205.173C346.319 205.472 345.833 205.622 345.237 205.622C344.521 205.622 343.952 205.382 343.529 204.903C343.107 204.421 342.896 203.774 342.896 202.964C342.896 202.169 343.107 201.534 343.529 201.058C343.952 200.581 344.52 200.343 345.232 200.343C345.828 200.343 346.314 200.499 346.689 200.812C347.067 201.124 347.295 201.518 347.37 201.994ZM352.791 200.433V205.532H352.015V204.733H351.939C351.813 205.017 351.608 205.236 351.325 205.39C351.041 205.545 350.703 205.622 350.312 205.622C349.742 205.622 349.3 205.458 348.988 205.13C348.679 204.802 348.524 204.337 348.524 203.735V200.433H349.338V203.536C349.338 203.993 349.436 204.332 349.631 204.553C349.83 204.771 350.133 204.879 350.539 204.879C350.99 204.879 351.342 204.753 351.594 204.501C351.85 204.249 351.977 203.899 351.977 203.451V200.433H352.791ZM354.205 201.829C354.205 201.406 354.386 201.053 354.749 200.769C355.112 200.485 355.564 200.343 356.107 200.343C356.64 200.343 357.079 200.466 357.426 200.712C357.773 200.958 357.973 201.291 358.027 201.71H357.223C357.166 201.502 357.04 201.338 356.845 201.218C356.652 201.095 356.405 201.034 356.102 201.034C355.796 201.034 355.539 201.105 355.331 201.247C355.126 201.389 355.023 201.572 355.023 201.795C355.023 201.969 355.094 202.114 355.236 202.231C355.381 202.344 355.605 202.437 355.908 202.51L356.693 202.699C357.179 202.816 357.537 202.984 357.767 203.205C358 203.426 358.117 203.717 358.117 204.08C358.117 204.531 357.923 204.902 357.535 205.192C357.147 205.479 356.66 205.622 356.074 205.622C355.506 205.622 355.041 205.496 354.678 205.244C354.316 204.991 354.112 204.654 354.068 204.231H354.905C354.975 204.452 355.112 204.626 355.317 204.752C355.522 204.875 355.783 204.936 356.102 204.936C356.446 204.936 356.728 204.862 356.949 204.714C357.169 204.566 357.28 204.375 357.28 204.142C357.28 203.795 357.01 203.555 356.471 203.423L355.596 203.21C355.113 203.093 354.76 202.926 354.536 202.708C354.316 202.488 354.205 202.194 354.205 201.829ZM359.687 199.161H360.501V200.433H361.683V201.114H360.501V204C360.501 204.299 360.561 204.517 360.681 204.652C360.8 204.788 360.993 204.856 361.258 204.856C361.368 204.856 361.491 204.85 361.627 204.837V205.523C361.447 205.554 361.291 205.57 361.158 205.57C360.632 205.57 360.255 205.464 360.028 205.253C359.801 205.042 359.687 204.693 359.687 204.208V201.114H358.831V200.433H359.687V199.161ZM363.769 204.392C364.031 204.723 364.403 204.889 364.886 204.889C365.368 204.889 365.74 204.723 366.002 204.392C366.264 204.058 366.395 203.588 366.395 202.983C366.395 202.377 366.264 201.909 366.002 201.578C365.74 201.244 365.368 201.077 364.886 201.077C364.403 201.077 364.031 201.244 363.769 201.578C363.508 201.909 363.377 202.377 363.377 202.983C363.377 203.588 363.508 204.058 363.769 204.392ZM366.603 204.917C366.183 205.387 365.611 205.622 364.886 205.622C364.16 205.622 363.586 205.387 363.164 204.917C362.744 204.444 362.535 203.799 362.535 202.983C362.535 202.163 362.744 201.518 363.164 201.048C363.583 200.578 364.157 200.343 364.886 200.343C365.614 200.343 366.188 200.578 366.607 201.048C367.027 201.518 367.236 202.163 367.236 202.983C367.236 203.799 367.025 204.444 366.603 204.917ZM368.514 205.532V200.433H369.289V201.237H369.365C369.482 200.954 369.663 200.734 369.909 200.58C370.155 200.422 370.448 200.343 370.789 200.343C371.123 200.343 371.41 200.424 371.65 200.585C371.892 200.745 372.075 200.963 372.198 201.237H372.274C372.413 200.963 372.621 200.745 372.898 200.585C373.176 200.424 373.488 200.343 373.835 200.343C374.355 200.343 374.756 200.488 375.036 200.779C375.317 201.065 375.457 201.475 375.457 202.008V205.532H374.644V202.198C374.644 201.45 374.286 201.077 373.57 201.077C373.223 201.077 372.939 201.19 372.719 201.417C372.498 201.644 372.388 201.923 372.388 202.254V205.532H371.574V202.07C371.574 201.767 371.476 201.526 371.281 201.346C371.088 201.166 370.831 201.077 370.51 201.077C370.179 201.077 369.898 201.203 369.668 201.455C369.441 201.707 369.327 202.013 369.327 202.373V205.532H368.514ZM378.977 201.062C378.57 201.062 378.235 201.199 377.974 201.474C377.712 201.748 377.565 202.111 377.534 202.562H380.344C380.334 202.111 380.205 201.748 379.956 201.474C379.707 201.199 379.38 201.062 378.977 201.062ZM380.32 204.213H381.133C381.01 204.654 380.76 204.999 380.381 205.248C380.006 205.498 379.541 205.622 378.986 205.622C378.28 205.622 377.72 205.386 377.307 204.913C376.894 204.436 376.687 203.795 376.687 202.987C376.687 202.183 376.895 201.542 377.312 201.062C377.728 200.583 378.286 200.343 378.986 200.343C379.673 200.343 380.214 200.572 380.608 201.029C381.003 201.486 381.2 202.112 381.2 202.907V203.219H377.534V203.257C377.556 203.762 377.698 204.162 377.96 204.459C378.224 204.755 378.573 204.903 379.005 204.903C379.664 204.903 380.102 204.673 380.32 204.213ZM382.477 205.532V200.433H383.252V201.19H383.328C383.404 200.941 383.574 200.738 383.839 200.58C384.104 200.422 384.405 200.343 384.742 200.343C384.897 200.343 385.033 200.351 385.149 200.367V201.181C385.039 201.149 384.865 201.133 384.629 201.133C384.241 201.133 383.921 201.25 383.669 201.483C383.416 201.717 383.29 202.013 383.29 202.373V205.532H382.477ZM385.887 201.829C385.887 201.406 386.068 201.053 386.431 200.769C386.794 200.485 387.246 200.343 387.789 200.343C388.322 200.343 388.761 200.466 389.108 200.712C389.455 200.958 389.655 201.291 389.709 201.71H388.905C388.848 201.502 388.722 201.338 388.527 201.218C388.334 201.095 388.087 201.034 387.784 201.034C387.478 201.034 387.221 201.105 387.013 201.247C386.808 201.389 386.705 201.572 386.705 201.795C386.705 201.969 386.776 202.114 386.918 202.231C387.063 202.344 387.287 202.437 387.59 202.51L388.375 202.699C388.861 202.816 389.219 202.984 389.449 203.205C389.682 203.426 389.799 203.717 389.799 204.08C389.799 204.531 389.605 204.902 389.217 205.192C388.829 205.479 388.342 205.622 387.756 205.622C387.188 205.622 386.723 205.496 386.36 205.244C385.998 204.991 385.794 204.654 385.75 204.231H386.587C386.657 204.452 386.794 204.626 386.999 204.752C387.204 204.875 387.465 204.936 387.784 204.936C388.128 204.936 388.41 204.862 388.631 204.714C388.851 204.566 388.962 204.375 388.962 204.142C388.962 203.795 388.692 203.555 388.153 203.423L387.278 203.21C386.795 203.093 386.442 202.926 386.218 202.708C385.998 202.488 385.887 202.194 385.887 201.829ZM399.997 203.172H390.31V202.401H399.997V203.172ZM402.334 204.908C402.753 204.908 403.1 204.786 403.374 204.544C403.652 204.301 403.79 203.997 403.79 203.631V203.162L402.419 203.252C402.034 203.278 401.752 203.358 401.572 203.494C401.392 203.629 401.302 203.826 401.302 204.085C401.302 204.34 401.399 204.542 401.591 204.69C401.783 204.835 402.031 204.908 402.334 204.908ZM402.182 205.622C401.681 205.622 401.268 205.485 400.943 205.211C400.621 204.933 400.46 204.564 400.46 204.104C400.46 203.65 400.621 203.293 400.943 203.035C401.265 202.776 401.723 202.63 402.319 202.595L403.79 202.505V202.041C403.79 201.726 403.693 201.485 403.497 201.318C403.302 201.151 403.015 201.067 402.636 201.067C402.33 201.067 402.077 201.122 401.875 201.233C401.673 201.343 401.544 201.499 401.487 201.701H400.664C400.717 201.294 400.927 200.966 401.293 200.717C401.662 200.468 402.119 200.343 402.665 200.343C403.283 200.343 403.761 200.493 404.098 200.793C404.435 201.092 404.604 201.509 404.604 202.041V205.532H403.828V204.78H403.753C403.589 205.051 403.371 205.259 403.1 205.405C402.829 205.55 402.523 205.622 402.182 205.622ZM406.156 205.532V198.409H406.969V205.532H406.156ZM408.596 205.532V198.409H409.41V205.532H408.596ZM413.743 205.532V200.433H414.556V205.532H413.743ZM414.551 199.232C414.441 199.342 414.307 199.397 414.149 199.397C413.992 199.397 413.858 199.342 413.747 199.232C413.637 199.118 413.582 198.984 413.582 198.83C413.582 198.675 413.637 198.543 413.747 198.432C413.858 198.319 413.992 198.262 414.149 198.262C414.307 198.262 414.441 198.319 414.551 198.432C414.662 198.543 414.717 198.675 414.717 198.83C414.717 198.984 414.662 199.118 414.551 199.232ZM416.108 205.532V200.433H416.883V201.237H416.959C417.088 200.954 417.295 200.734 417.579 200.58C417.862 200.422 418.198 200.343 418.586 200.343C419.157 200.343 419.597 200.507 419.906 200.835C420.215 201.16 420.369 201.625 420.369 202.231V205.532H419.556V202.429C419.556 201.972 419.456 201.633 419.258 201.412C419.062 201.188 418.761 201.077 418.354 201.077C417.907 201.077 417.555 201.204 417.3 201.46C417.047 201.715 416.921 202.067 416.921 202.514V205.532H416.108ZM425.572 204.392C425.834 204.723 426.206 204.889 426.689 204.889C427.171 204.889 427.543 204.723 427.805 204.392C428.067 204.058 428.198 203.588 428.198 202.983C428.198 202.377 428.067 201.909 427.805 201.578C427.543 201.244 427.171 201.077 426.689 201.077C426.206 201.077 425.834 201.244 425.572 201.578C425.311 201.909 425.18 202.377 425.18 202.983C425.18 203.588 425.311 204.058 425.572 204.392ZM428.406 204.917C427.986 205.387 427.414 205.622 426.689 205.622C425.963 205.622 425.39 205.387 424.967 204.917C424.548 204.444 424.338 203.799 424.338 202.983C424.338 202.163 424.548 201.518 424.967 201.048C425.386 200.578 425.96 200.343 426.689 200.343C427.417 200.343 427.991 200.578 428.41 201.048C428.83 201.518 429.04 202.163 429.04 202.983C429.04 203.799 428.828 204.444 428.406 204.917ZM430.317 205.532V200.433H431.092V201.237H431.168C431.297 200.954 431.504 200.734 431.788 200.58C432.072 200.422 432.407 200.343 432.795 200.343C433.366 200.343 433.806 200.507 434.115 200.835C434.424 201.16 434.578 201.625 434.578 202.231V205.532H433.765V202.429C433.765 201.972 433.666 201.633 433.467 201.412C433.271 201.188 432.97 201.077 432.563 201.077C432.116 201.077 431.764 201.204 431.509 201.46C431.256 201.715 431.13 202.067 431.13 202.514V205.532H430.317ZM438.102 201.062C437.696 201.062 437.361 201.199 437.1 201.474C436.838 201.748 436.691 202.111 436.66 202.562H439.469C439.46 202.111 439.331 201.748 439.082 201.474C438.832 201.199 438.506 201.062 438.102 201.062ZM439.446 204.213H440.259C440.136 204.654 439.886 204.999 439.507 205.248C439.132 205.498 438.667 205.622 438.112 205.622C437.405 205.622 436.846 205.386 436.433 204.913C436.02 204.436 435.813 203.795 435.813 202.987C435.813 202.183 436.021 201.542 436.437 201.062C436.854 200.583 437.412 200.343 438.112 200.343C438.799 200.343 439.34 200.572 439.734 201.029C440.128 201.486 440.326 202.112 440.326 202.907V203.219H436.66V203.257C436.682 203.762 436.824 204.162 437.085 204.459C437.35 204.755 437.699 204.903 438.131 204.903C438.79 204.903 439.228 204.673 439.446 204.213ZM446.82 200.343C447.47 200.343 447.988 200.583 448.376 201.062C448.767 201.542 448.963 202.182 448.963 202.983C448.963 203.781 448.767 204.421 448.376 204.903C447.985 205.382 447.466 205.622 446.82 205.622C446.457 205.622 446.136 205.548 445.855 205.4C445.574 205.248 445.365 205.037 445.226 204.766H445.15V207.235H444.337V200.433H445.112V201.285H445.188C445.352 200.991 445.577 200.761 445.864 200.594C446.155 200.427 446.473 200.343 446.82 200.343ZM446.626 204.889C447.093 204.889 447.458 204.72 447.723 204.383C447.988 204.045 448.121 203.579 448.121 202.983C448.121 202.387 447.988 201.92 447.723 201.583C447.462 201.245 447.097 201.077 446.631 201.077C446.17 201.077 445.805 201.248 445.533 201.592C445.262 201.933 445.127 202.396 445.127 202.983C445.127 203.566 445.261 204.03 445.529 204.373C445.8 204.717 446.166 204.889 446.626 204.889ZM450.287 205.532V198.409H451.101V205.532H450.287ZM454.251 204.908C454.67 204.908 455.017 204.786 455.291 204.544C455.569 204.301 455.708 203.997 455.708 203.631V203.162L454.336 203.252C453.951 203.278 453.669 203.358 453.489 203.494C453.31 203.629 453.22 203.826 453.22 204.085C453.22 204.34 453.316 204.542 453.508 204.69C453.701 204.835 453.948 204.908 454.251 204.908ZM454.099 205.622C453.598 205.622 453.185 205.485 452.86 205.211C452.539 204.933 452.378 204.564 452.378 204.104C452.378 203.65 452.539 203.293 452.86 203.035C453.182 202.776 453.641 202.63 454.237 202.595L455.708 202.505V202.041C455.708 201.726 455.61 201.485 455.414 201.318C455.219 201.151 454.932 201.067 454.554 201.067C454.248 201.067 453.994 201.122 453.792 201.233C453.59 201.343 453.461 201.499 453.404 201.701H452.581C452.635 201.294 452.844 200.966 453.21 200.717C453.579 200.468 454.036 200.343 454.582 200.343C455.2 200.343 455.678 200.493 456.015 200.793C456.353 201.092 456.521 201.509 456.521 202.041V205.532H455.746V204.78H455.67C455.506 205.051 455.288 205.259 455.017 205.405C454.746 205.55 454.44 205.622 454.099 205.622ZM462.245 201.994H461.422C461.352 201.726 461.202 201.507 460.972 201.337C460.745 201.163 460.457 201.077 460.107 201.077C459.649 201.077 459.285 201.247 459.014 201.587C458.746 201.928 458.612 202.387 458.612 202.964C458.612 203.55 458.748 204.019 459.019 204.369C459.29 204.716 459.653 204.889 460.107 204.889C460.45 204.889 460.736 204.812 460.963 204.657C461.193 204.503 461.346 204.282 461.422 203.995H462.245C462.169 204.477 461.944 204.87 461.568 205.173C461.193 205.472 460.707 205.622 460.111 205.622C459.396 205.622 458.826 205.382 458.404 204.903C457.981 204.421 457.77 203.774 457.77 202.964C457.77 202.169 457.981 201.534 458.404 201.058C458.826 200.581 459.394 200.343 460.107 200.343C460.703 200.343 461.188 200.499 461.564 200.812C461.942 201.124 462.169 201.518 462.245 201.994ZM465.48 201.062C465.073 201.062 464.739 201.199 464.477 201.474C464.216 201.748 464.069 202.111 464.037 202.562H466.847C466.838 202.111 466.708 201.748 466.459 201.474C466.21 201.199 465.884 201.062 465.48 201.062ZM466.823 204.213H467.637C467.514 204.654 467.263 204.999 466.885 205.248C466.51 205.498 466.044 205.622 465.49 205.622C464.783 205.622 464.223 205.386 463.81 204.913C463.397 204.436 463.191 203.795 463.191 202.987C463.191 202.183 463.399 201.542 463.815 201.062C464.231 200.583 464.789 200.343 465.49 200.343C466.177 200.343 466.718 200.572 467.112 201.029C467.506 201.486 467.703 202.112 467.703 202.907V203.219H464.037V203.257C464.059 203.762 464.201 204.162 464.463 204.459C464.728 204.755 465.076 204.903 465.508 204.903C466.167 204.903 466.606 204.673 466.823 204.213ZM469.652 205.58C469.485 205.58 469.34 205.52 469.217 205.4C469.097 205.277 469.037 205.132 469.037 204.965C469.037 204.794 469.097 204.649 469.217 204.529C469.34 204.41 469.485 204.35 469.652 204.35C469.822 204.35 469.967 204.41 470.087 204.529C470.207 204.649 470.267 204.794 470.267 204.965C470.267 205.132 470.207 205.277 470.087 205.4C469.967 205.52 469.822 205.58 469.652 205.58Z"
                                fill="#71737C" />
                        </g>
                        <defs>
                            <filter id="filter0_dddd_1699_48320" x="191.771" y="94.7136" width="358.265"
                                height="165.463" filterUnits="userSpaceOnUse" color-interpolation-filters="sRGB">
                                <feFlood flood-opacity="0" result="BackgroundImageFix" />
                                <feColorMatrix in="SourceAlpha" type="matrix"
                                    values="0 0 0 0 0 0 0 0 0 0 0 0 0 0 0 0 0 0 127 0" result="hardAlpha" />
                                <feOffset dx="2.11457" dy="1.05729" />
                                <feGaussianBlur stdDeviation="3.17186" />
                                <feColorMatrix type="matrix"
                                    values="0 0 0 0 0.85098 0 0 0 0 0.85098 0 0 0 0 0.85098 0 0 0 0.1 0" />
                                <feBlend mode="normal" in2="BackgroundImageFix"
                                    result="effect1_dropShadow_1699_48320" />
                                <feColorMatrix in="SourceAlpha" type="matrix"
                                    values="0 0 0 0 0 0 0 0 0 0 0 0 0 0 0 0 0 0 127 0" result="hardAlpha" />
                                <feOffset dx="9.51558" dy="5.28644" />
                                <feGaussianBlur stdDeviation="5.28644" />
                                <feColorMatrix type="matrix"
                                    values="0 0 0 0 0.85098 0 0 0 0 0.85098 0 0 0 0 0.85098 0 0 0 0.09 0" />
                                <feBlend mode="normal" in2="effect1_dropShadow_1699_48320"
                                    result="effect2_dropShadow_1699_48320" />
                                <feColorMatrix in="SourceAlpha" type="matrix"
                                    values="0 0 0 0 0 0 0 0 0 0 0 0 0 0 0 0 0 0 127 0" result="hardAlpha" />
                                <feOffset dx="21.1457" dy="12.6874" />
                                <feGaussianBlur stdDeviation="7.40101" />
                                <feColorMatrix type="matrix"
                                    values="0 0 0 0 0.85098 0 0 0 0 0.85098 0 0 0 0 0.85098 0 0 0 0.05 0" />
                                <feBlend mode="normal" in2="effect2_dropShadow_1699_48320"
                                    result="effect3_dropShadow_1699_48320" />
                                <feColorMatrix in="SourceAlpha" type="matrix"
                                    values="0 0 0 0 0 0 0 0 0 0 0 0 0 0 0 0 0 0 127 0" result="hardAlpha" />
                                <feOffset dx="38.0623" dy="22.203" />
                                <feGaussianBlur stdDeviation="8.98694" />
                                <feColorMatrix type="matrix"
                                    values="0 0 0 0 0.85098 0 0 0 0 0.85098 0 0 0 0 0.85098 0 0 0 0.01 0" />
                                <feBlend mode="normal" in2="effect3_dropShadow_1699_48320"
                                    result="effect4_dropShadow_1699_48320" />
                                <feBlend mode="normal" in="SourceGraphic" in2="effect4_dropShadow_1699_48320"
                                    result="shape" />
                            </filter>
                            <filter id="filter1_ddd_1699_48320" x="425.802" y="113.098" width="32.8732" height="32.8752"
                                filterUnits="userSpaceOnUse" color-interpolation-filters="sRGB">
                                <feFlood flood-opacity="0" result="BackgroundImageFix" />
                                <feColorMatrix in="SourceAlpha" type="matrix"
                                    values="0 0 0 0 0 0 0 0 0 0 0 0 0 0 0 0 0 0 127 0" result="hardAlpha" />
                                <feOffset dy="2.29361" />
                                <feGaussianBlur stdDeviation="0.382269" />
                                <feComposite in2="hardAlpha" operator="out" />
                                <feColorMatrix type="matrix" values="0 0 0 0 0 0 0 0 0 0 0 0 0 0 0 0 0 0 0.06 0" />
                                <feBlend mode="normal" in2="BackgroundImageFix"
                                    result="effect1_dropShadow_1699_48320" />
                                <feColorMatrix in="SourceAlpha" type="matrix"
                                    values="0 0 0 0 0 0 0 0 0 0 0 0 0 0 0 0 0 0 127 0" result="hardAlpha" />
                                <feOffset dy="2.29361" />
                                <feGaussianBlur stdDeviation="3.05815" />
                                <feComposite in2="hardAlpha" operator="out" />
                                <feColorMatrix type="matrix" values="0 0 0 0 0 0 0 0 0 0 0 0 0 0 0 0 0 0 0.15 0" />
                                <feBlend mode="normal" in2="effect1_dropShadow_1699_48320"
                                    result="effect2_dropShadow_1699_48320" />
                                <feColorMatrix in="SourceAlpha" type="matrix"
                                    values="0 0 0 0 0 0 0 0 0 0 0 0 0 0 0 0 0 0 127 0" result="hardAlpha" />
                                <feMorphology radius="0.764538" operator="dilate" in="SourceAlpha"
                                    result="effect3_dropShadow_1699_48320" />
                                <feOffset />
                                <feComposite in2="hardAlpha" operator="out" />
                                <feColorMatrix type="matrix" values="0 0 0 0 0 0 0 0 0 0 0 0 0 0 0 0 0 0 0.04 0" />
                                <feBlend mode="normal" in2="effect2_dropShadow_1699_48320"
                                    result="effect3_dropShadow_1699_48320" />
                                <feBlend mode="normal" in="SourceGraphic" in2="effect3_dropShadow_1699_48320"
                                    result="shape" />
                            </filter>
                            <clipPath id="clip0_1699_48320">
                                <rect width="20" height="20" fill="white" transform="translate(215.898 118.896)" />
                            </clipPath>
                            <clipPath id="clip1_1699_48320">
                                <rect x="430.391" y="115.625" width="39" height="24" rx="12" fill="white" />
                            </clipPath>
                        </defs>
                    </svg>