<svg width="560" height="320" viewBox="0 0 560 320" fill="none" xmlns="http://www.w3.org/2000/svg">
<g filter="url(#filter0_dddd_1511_26960)">
<rect x="136" y="46" width="288" height="228.423" rx="6.72022" fill="white"/>
<rect x="136.42" y="46.42" width="287.16" height="227.583" rx="6.3002" stroke="#D6DAE1" stroke-width="0.840027"/>
<path d="M155.847 65.2334C155.796 64.7815 155.586 64.4315 155.217 64.1833C154.847 63.932 154.383 63.8063 153.823 63.8063C153.422 63.8063 153.075 63.8699 152.782 63.9972C152.49 64.1213 152.262 64.2931 152.1 64.5127C151.941 64.729 151.861 64.9756 151.861 65.2525C151.861 65.4848 151.915 65.6852 152.024 65.8539C152.135 66.0225 152.28 66.1641 152.458 66.2786C152.639 66.39 152.833 66.4839 153.04 66.5602C153.247 66.6334 153.446 66.6939 153.637 66.7416L154.591 66.9898C154.903 67.0662 155.223 67.1696 155.551 67.3C155.878 67.4305 156.182 67.6023 156.462 67.8155C156.742 68.0287 156.968 68.2928 157.14 68.6078C157.315 68.9228 157.403 69.2999 157.403 69.739C157.403 70.2926 157.259 70.7842 156.973 71.2138C156.69 71.6434 156.278 71.9822 155.737 72.2304C155.199 72.4786 154.548 72.6027 153.785 72.6027C153.053 72.6027 152.42 72.4866 151.885 72.2543C151.351 72.022 150.932 71.6927 150.63 71.2663C150.328 70.8367 150.161 70.3276 150.129 69.739H151.608C151.637 70.0922 151.751 70.3865 151.952 70.622C152.156 70.8542 152.415 71.0277 152.73 71.1422C153.048 71.2536 153.397 71.3093 153.775 71.3093C154.192 71.3093 154.563 71.244 154.887 71.1136C155.215 70.9799 155.473 70.7954 155.66 70.5599C155.848 70.3213 155.942 70.0429 155.942 69.7247C155.942 69.4351 155.859 69.1981 155.694 69.0135C155.532 68.829 155.31 68.6762 155.03 68.5553C154.754 68.4344 154.44 68.3278 154.09 68.2355L152.935 67.9205C152.152 67.7073 151.532 67.3939 151.074 66.9803C150.619 66.5666 150.391 66.0193 150.391 65.3384C150.391 64.7752 150.544 64.2836 150.849 63.8636C151.155 63.4435 151.569 63.1174 152.09 62.8851C152.612 62.6497 153.201 62.5319 153.856 62.5319C154.518 62.5319 155.102 62.6481 155.608 62.8804C156.117 63.1126 156.518 63.4324 156.811 63.8397C157.103 64.2438 157.256 64.7084 157.269 65.2334H155.847ZM163.694 69.4001V65.1093H165.126V72.4404H163.723V71.1708H163.647C163.478 71.5622 163.208 71.8884 162.835 72.1493C162.466 72.407 162.006 72.5359 161.456 72.5359C160.985 72.5359 160.568 72.4325 160.205 72.2257C159.846 72.0156 159.563 71.7054 159.356 71.2949C159.152 70.8845 159.05 70.377 159.05 69.7724V65.1093H160.477V69.6006C160.477 70.1001 160.616 70.4979 160.893 70.7938C161.17 71.0897 161.529 71.2377 161.971 71.2377C162.239 71.2377 162.504 71.1708 162.768 71.0372C163.036 70.9036 163.257 70.7015 163.432 70.431C163.61 70.1606 163.698 69.8169 163.694 69.4001ZM167.158 72.4404V62.6656H168.585V66.2977H168.671C168.754 66.145 168.873 65.9684 169.029 65.7679C169.185 65.5675 169.402 65.3925 169.678 65.2429C169.955 65.0902 170.321 65.0138 170.776 65.0138C171.368 65.0138 171.896 65.1634 172.361 65.4625C172.825 65.7616 173.19 66.1927 173.454 66.7559C173.721 67.3191 173.855 67.9969 173.855 68.7892C173.855 69.5815 173.723 70.2608 173.459 70.8272C173.194 71.3904 172.832 71.8247 172.37 72.1302C171.909 72.4325 171.382 72.5836 170.791 72.5836C170.345 72.5836 169.981 72.5088 169.698 72.3593C169.418 72.2097 169.198 72.0347 169.039 71.8343C168.88 71.6338 168.757 71.4556 168.671 71.2997H168.552V72.4404H167.158ZM168.557 68.7749C168.557 69.2903 168.632 69.7422 168.781 70.1304C168.931 70.5185 169.147 70.8224 169.43 71.042C169.713 71.2583 170.06 71.3665 170.471 71.3665C170.897 71.3665 171.253 71.2536 171.54 71.0277C171.826 70.7986 172.043 70.4883 172.189 70.0969C172.339 69.7056 172.413 69.2649 172.413 68.7749C172.413 68.2912 172.34 67.8569 172.194 67.4719C172.051 67.0868 171.834 66.783 171.545 66.5602C171.258 66.3375 170.9 66.2261 170.471 66.2261C170.057 66.2261 169.707 66.3327 169.421 66.5459C169.137 66.7591 168.923 67.0566 168.776 67.4385C168.63 67.8203 168.557 68.2658 168.557 68.7749ZM180.951 66.8991L179.657 67.1282C179.603 66.9628 179.517 66.8052 179.4 66.6557C179.285 66.5061 179.129 66.3836 178.932 66.2882C178.735 66.1927 178.488 66.145 178.192 66.145C177.788 66.145 177.451 66.2357 177.18 66.4171C176.91 66.5952 176.774 66.8259 176.774 67.1091C176.774 67.3541 176.865 67.5514 177.047 67.701C177.228 67.8505 177.521 67.973 177.925 68.0685L179.089 68.3358C179.764 68.4917 180.267 68.7319 180.598 69.0565C180.928 69.381 181.094 69.8026 181.094 70.3213C181.094 70.7604 180.967 71.1518 180.712 71.4954C180.461 71.8359 180.109 72.1031 179.657 72.2972C179.209 72.4913 178.688 72.5884 178.097 72.5884C177.276 72.5884 176.606 72.4134 176.087 72.0634C175.569 71.7102 175.25 71.209 175.133 70.5599L176.512 70.3499C176.598 70.7095 176.774 70.9815 177.042 71.1661C177.309 71.3474 177.657 71.4381 178.087 71.4381C178.555 71.4381 178.929 71.3411 179.209 71.147C179.489 70.9497 179.629 70.7095 179.629 70.4263C179.629 70.1972 179.543 70.0047 179.371 69.8488C179.202 69.6928 178.943 69.5751 178.593 69.4956L177.352 69.2235C176.668 69.0676 176.162 68.8194 175.834 68.4789C175.51 68.1385 175.347 67.7073 175.347 67.1855C175.347 66.7527 175.468 66.3741 175.71 66.0495C175.952 65.725 176.286 65.472 176.712 65.2907C177.139 65.1061 177.627 65.0138 178.178 65.0138C178.97 65.0138 179.594 65.1857 180.049 65.5293C180.504 65.8698 180.804 66.3264 180.951 66.8991ZM185.751 72.5884C185.042 72.5884 184.431 72.4277 183.918 72.1063C183.409 71.7818 183.018 71.3347 182.744 70.7651C182.471 70.1956 182.334 69.5433 182.334 68.8083C182.334 68.0637 182.474 67.4066 182.754 66.8371C183.034 66.2643 183.428 65.8173 183.937 65.4959C184.447 65.1745 185.046 65.0138 185.737 65.0138C186.294 65.0138 186.79 65.1172 187.226 65.3241C187.662 65.5277 188.013 65.8141 188.281 66.1832C188.551 66.5523 188.712 66.9834 188.763 67.4766H187.374C187.298 67.133 187.122 66.8371 186.849 66.5889C186.578 66.3407 186.216 66.2166 185.761 66.2166C185.363 66.2166 185.014 66.3216 184.715 66.5316C184.419 66.7384 184.189 67.0343 184.023 67.4194C183.858 67.8012 183.775 68.253 183.775 68.7749C183.775 69.3094 183.856 69.7708 184.019 70.159C184.181 70.5472 184.41 70.8479 184.706 71.0611C185.005 71.2743 185.357 71.3809 185.761 71.3809C186.031 71.3809 186.276 71.3315 186.496 71.2329C186.718 71.1311 186.905 70.9863 187.054 70.7986C187.207 70.6108 187.313 70.3849 187.374 70.1208H188.763C188.712 70.5949 188.558 71.0181 188.3 71.3904C188.042 71.7627 187.697 72.0554 187.264 72.2686C186.835 72.4818 186.33 72.5884 185.751 72.5884ZM190.289 72.4404V65.1093H191.668V66.2739H191.745C191.878 65.8793 192.114 65.5691 192.451 65.3432C192.791 65.1141 193.177 64.9995 193.606 64.9995C193.695 64.9995 193.8 65.0027 193.921 65.0091C194.045 65.0154 194.142 65.0234 194.212 65.0329V66.398C194.155 66.3821 194.053 66.3646 193.907 66.3455C193.76 66.3232 193.614 66.3121 193.468 66.3121C193.13 66.3121 192.83 66.3836 192.566 66.5268C192.305 66.6668 192.098 66.8625 191.945 67.1139C191.792 67.3621 191.716 67.6453 191.716 67.9635V72.4404H190.289ZM195.447 72.4404V65.1093H196.874V72.4404H195.447ZM196.168 63.9781C195.92 63.9781 195.707 63.8954 195.528 63.7299C195.353 63.5613 195.266 63.3608 195.266 63.1285C195.266 62.8931 195.353 62.6926 195.528 62.5272C195.707 62.3585 195.92 62.2742 196.168 62.2742C196.416 62.2742 196.628 62.3585 196.803 62.5272C196.981 62.6926 197.07 62.8931 197.07 63.1285C197.07 63.3608 196.981 63.5613 196.803 63.7299C196.628 63.8954 196.416 63.9781 196.168 63.9781ZM198.794 75.1896V65.1093H200.188V66.2977H200.307C200.39 66.145 200.509 65.9684 200.665 65.7679C200.821 65.5675 201.037 65.3925 201.314 65.2429C201.591 65.0902 201.957 65.0138 202.412 65.0138C203.004 65.0138 203.532 65.1634 203.997 65.4625C204.461 65.7616 204.826 66.1927 205.09 66.7559C205.357 67.3191 205.491 67.9969 205.491 68.7892C205.491 69.5815 205.358 70.2608 205.094 70.8272C204.83 71.3904 204.468 71.8247 204.006 72.1302C203.545 72.4325 203.018 72.5836 202.426 72.5836C201.981 72.5836 201.617 72.5088 201.333 72.3593C201.053 72.2097 200.834 72.0347 200.675 71.8343C200.516 71.6338 200.393 71.4556 200.307 71.2997H200.221V75.1896H198.794ZM200.193 68.7749C200.193 69.2903 200.267 69.7422 200.417 70.1304C200.567 70.5185 200.783 70.8224 201.066 71.042C201.349 71.2583 201.696 71.3665 202.107 71.3665C202.533 71.3665 202.889 71.2536 203.176 71.0277C203.462 70.7986 203.678 70.4883 203.825 70.0969C203.974 69.7056 204.049 69.2649 204.049 68.7749C204.049 68.2912 203.976 67.8569 203.83 67.4719C203.686 67.0868 203.47 66.783 203.18 66.5602C202.894 66.3375 202.536 66.2261 202.107 66.2261C201.693 66.2261 201.343 66.3327 201.057 66.5459C200.773 66.7591 200.559 67.0566 200.412 67.4385C200.266 67.8203 200.193 68.2658 200.193 68.7749ZM210.512 65.1093V66.2548H206.507V65.1093H210.512ZM207.581 63.3529H209.008V70.2879C209.008 70.5647 209.05 70.7731 209.132 70.9131C209.215 71.0499 209.322 71.1438 209.452 71.1947C209.586 71.2424 209.73 71.2663 209.886 71.2663C210.001 71.2663 210.101 71.2583 210.187 71.2424C210.273 71.2265 210.34 71.2138 210.388 71.2043L210.645 72.3832C210.563 72.415 210.445 72.4468 210.292 72.4786C210.139 72.5136 209.948 72.5327 209.719 72.5359C209.344 72.5423 208.994 72.4754 208.669 72.3354C208.345 72.1954 208.082 71.9791 207.882 71.6863C207.681 71.3936 207.581 71.0261 207.581 70.5838V63.3529ZM212.09 72.4404V65.1093H213.517V72.4404H212.09ZM212.811 63.9781C212.563 63.9781 212.35 63.8954 212.171 63.7299C211.996 63.5613 211.909 63.3608 211.909 63.1285C211.909 62.8931 211.996 62.6926 212.171 62.5272C212.35 62.3585 212.563 62.2742 212.811 62.2742C213.059 62.2742 213.271 62.3585 213.446 62.5272C213.624 62.6926 213.713 62.8931 213.713 63.1285C213.713 63.3608 213.624 63.5613 213.446 63.7299C213.271 63.8954 213.059 63.9781 212.811 63.9781ZM218.525 72.5884C217.838 72.5884 217.238 72.4309 216.726 72.1159C216.214 71.8009 215.816 71.3602 215.533 70.7938C215.249 70.2274 215.108 69.5656 215.108 68.8083C215.108 68.0478 215.249 67.3828 215.533 66.8132C215.816 66.2436 216.214 65.8014 216.726 65.4863C217.238 65.1713 217.838 65.0138 218.525 65.0138C219.213 65.0138 219.812 65.1713 220.325 65.4863C220.837 65.8014 221.235 66.2436 221.518 66.8132C221.801 67.3828 221.943 68.0478 221.943 68.8083C221.943 69.5656 221.801 70.2274 221.518 70.7938C221.235 71.3602 220.837 71.8009 220.325 72.1159C219.812 72.4309 219.213 72.5884 218.525 72.5884ZM218.53 71.3904C218.976 71.3904 219.345 71.2727 219.637 71.0372C219.93 70.8017 220.146 70.4883 220.286 70.0969C220.43 69.7056 220.501 69.2744 220.501 68.8035C220.501 68.3358 220.43 67.9062 220.286 67.5148C220.146 67.1203 219.93 66.8037 219.637 66.565C219.345 66.3264 218.976 66.207 218.53 66.207C218.081 66.207 217.709 66.3264 217.413 66.565C217.12 66.8037 216.902 67.1203 216.759 67.5148C216.619 67.9062 216.549 68.3358 216.549 68.8035C216.549 69.2744 216.619 69.7056 216.759 70.0969C216.902 70.4883 217.12 70.8017 217.413 71.0372C217.709 71.2727 218.081 71.3904 218.53 71.3904ZM224.963 68.0876V72.4404H223.536V65.1093H224.905V66.3025H224.996C225.165 65.9143 225.429 65.6025 225.788 65.367C226.151 65.1316 226.608 65.0138 227.158 65.0138C227.658 65.0138 228.095 65.1188 228.471 65.3288C228.846 65.5357 229.137 65.8443 229.344 66.2548C229.551 66.6652 229.654 67.1728 229.654 67.7773V72.4404H228.227V67.9491C228.227 67.4178 228.089 67.0025 227.812 66.7034C227.535 66.4011 227.155 66.25 226.671 66.25C226.34 66.25 226.046 66.3216 225.788 66.4648C225.534 66.608 225.332 66.818 225.182 67.0948C225.036 67.3684 224.963 67.6994 224.963 68.0876ZM237.259 72.6027C236.794 72.6027 236.374 72.5168 235.999 72.345C235.623 72.17 235.326 71.917 235.106 71.5861C234.89 71.2552 234.782 70.8495 234.782 70.369C234.782 69.9553 234.861 69.6149 235.02 69.3476C235.179 69.0803 235.394 68.8687 235.665 68.7128C235.935 68.5569 236.237 68.4392 236.572 68.3596C236.906 68.2801 237.246 68.2196 237.593 68.1782C238.032 68.1273 238.388 68.086 238.662 68.0542C238.936 68.0192 239.135 67.9635 239.259 67.8871C239.383 67.8107 239.445 67.6866 239.445 67.5148V67.4814C239.445 67.0646 239.327 66.7416 239.092 66.5125C238.859 66.2834 238.513 66.1689 238.051 66.1689C237.571 66.1689 237.192 66.2755 236.915 66.4886C236.642 66.6987 236.452 66.9325 236.347 67.1903L235.006 66.8848C235.165 66.4393 235.397 66.0798 235.703 65.8061C236.012 65.5293 236.366 65.3288 236.767 65.2047C237.168 65.0775 237.59 65.0138 238.032 65.0138C238.325 65.0138 238.635 65.0488 238.963 65.1188C239.294 65.1857 239.602 65.3097 239.889 65.4911C240.178 65.6725 240.415 65.9318 240.6 66.2691C240.784 66.6032 240.877 67.0375 240.877 67.5721V72.4404H239.483V71.4381H239.426C239.333 71.6227 239.195 71.804 239.01 71.9822C238.826 72.1604 238.589 72.3084 238.299 72.4261C238.01 72.5438 237.663 72.6027 237.259 72.6027ZM237.569 71.4572C237.964 71.4572 238.301 71.3793 238.581 71.2233C238.864 71.0674 239.079 70.8638 239.225 70.6124C239.375 70.3579 239.45 70.0858 239.45 69.7963V68.8512C239.399 68.9021 239.3 68.9499 239.154 68.9944C239.01 69.0358 238.847 69.0724 238.662 69.1042C238.478 69.1328 238.298 69.1599 238.123 69.1853C237.948 69.2076 237.801 69.2267 237.684 69.2426C237.407 69.2776 237.154 69.3365 236.925 69.4192C236.699 69.5019 236.517 69.6212 236.381 69.7772C236.247 69.9299 236.18 70.1335 236.18 70.3881C236.18 70.7413 236.311 71.0086 236.572 71.1899C236.832 71.3681 237.165 71.4572 237.569 71.4572ZM245.866 72.5884C245.156 72.5884 244.545 72.4277 244.033 72.1063C243.524 71.7818 243.132 71.3347 242.859 70.7651C242.585 70.1956 242.448 69.5433 242.448 68.8083C242.448 68.0637 242.588 67.4066 242.868 66.8371C243.148 66.2643 243.543 65.8173 244.052 65.4959C244.561 65.1745 245.161 65.0138 245.851 65.0138C246.408 65.0138 246.904 65.1172 247.34 65.3241C247.776 65.5277 248.128 65.8141 248.395 66.1832C248.666 66.5523 248.826 66.9834 248.877 67.4766H247.488C247.412 67.133 247.237 66.8371 246.963 66.5889C246.693 66.3407 246.33 66.2166 245.875 66.2166C245.477 66.2166 245.129 66.3216 244.83 66.5316C244.534 66.7384 244.303 67.0343 244.138 67.4194C243.972 67.8012 243.89 68.253 243.89 68.7749C243.89 69.3094 243.971 69.7708 244.133 70.159C244.295 70.5472 244.524 70.8479 244.82 71.0611C245.119 71.2743 245.471 71.3809 245.875 71.3809C246.146 71.3809 246.391 71.3315 246.61 71.2329C246.833 71.1311 247.019 70.9863 247.169 70.7986C247.321 70.6108 247.428 70.3849 247.488 70.1208H248.877C248.826 70.5949 248.672 71.0181 248.414 71.3904C248.157 71.7627 247.811 72.0554 247.379 72.2686C246.949 72.4818 246.445 72.5884 245.866 72.5884ZM253.491 72.5884C252.782 72.5884 252.171 72.4277 251.659 72.1063C251.149 71.7818 250.758 71.3347 250.484 70.7651C250.211 70.1956 250.074 69.5433 250.074 68.8083C250.074 68.0637 250.214 67.4066 250.494 66.8371C250.774 66.2643 251.169 65.8173 251.678 65.4959C252.187 65.1745 252.787 65.0138 253.477 65.0138C254.034 65.0138 254.53 65.1172 254.966 65.3241C255.402 65.5277 255.754 65.8141 256.021 66.1832C256.291 66.5523 256.452 66.9834 256.503 67.4766H255.114C255.038 67.133 254.863 66.8371 254.589 66.5889C254.319 66.3407 253.956 66.2166 253.501 66.2166C253.103 66.2166 252.755 66.3216 252.456 66.5316C252.16 66.7384 251.929 67.0343 251.764 67.4194C251.598 67.8012 251.515 68.253 251.515 68.7749C251.515 69.3094 251.597 69.7708 251.759 70.159C251.921 70.5472 252.15 70.8479 252.446 71.0611C252.745 71.2743 253.097 71.3809 253.501 71.3809C253.771 71.3809 254.016 71.3315 254.236 71.2329C254.459 71.1311 254.645 70.9863 254.794 70.7986C254.947 70.6108 255.054 70.3849 255.114 70.1208H256.503C256.452 70.5949 256.298 71.0181 256.04 71.3904C255.782 71.7627 255.437 72.0554 255.004 72.2686C254.575 72.4818 254.07 72.5884 253.491 72.5884ZM261.189 72.5884C260.467 72.5884 259.844 72.4341 259.323 72.1254C258.804 71.8136 258.403 71.3761 258.12 70.8129C257.84 70.2465 257.7 69.5831 257.7 68.8226C257.7 68.0717 257.84 67.4098 258.12 66.8371C258.403 66.2643 258.798 65.8173 259.304 65.4959C259.813 65.1745 260.408 65.0138 261.089 65.0138C261.502 65.0138 261.903 65.0822 262.291 65.2191C262.68 65.3559 263.028 65.5707 263.337 65.8634C263.645 66.1561 263.889 66.5364 264.067 67.0041C264.245 67.4687 264.334 68.0335 264.334 68.6985V69.2044H258.506V68.1353H262.936C262.936 67.7598 262.859 67.4273 262.707 67.1378C262.554 66.845 262.339 66.6143 262.062 66.4457C261.789 66.2771 261.467 66.1927 261.098 66.1927C260.697 66.1927 260.347 66.2914 260.048 66.4886C259.752 66.6827 259.523 66.9373 259.361 67.2523C259.202 67.5641 259.122 67.903 259.122 68.2689V69.1042C259.122 69.5942 259.208 70.011 259.38 70.3547C259.555 70.6983 259.798 70.9608 260.11 71.1422C260.422 71.3204 260.786 71.4095 261.203 71.4095C261.474 71.4095 261.72 71.3713 261.943 71.2949C262.166 71.2154 262.358 71.0977 262.52 70.9417C262.683 70.7858 262.807 70.5933 262.893 70.3642L264.243 70.6076C264.135 71.0054 263.941 71.3538 263.661 71.6529C263.384 71.9488 263.036 72.1795 262.616 72.345C262.199 72.5073 261.723 72.5884 261.189 72.5884ZM271.411 66.8991L270.118 67.1282C270.064 66.9628 269.978 66.8052 269.86 66.6557C269.745 66.5061 269.59 66.3836 269.392 66.2882C269.195 66.1927 268.948 66.145 268.652 66.145C268.248 66.145 267.911 66.2357 267.641 66.4171C267.37 66.5952 267.235 66.8259 267.235 67.1091C267.235 67.3541 267.326 67.5514 267.507 67.701C267.688 67.8505 267.981 67.973 268.385 68.0685L269.55 68.3358C270.224 68.4917 270.727 68.7319 271.058 69.0565C271.389 69.381 271.554 69.8026 271.554 70.3213C271.554 70.7604 271.427 71.1518 271.173 71.4954C270.921 71.8359 270.57 72.1031 270.118 72.2972C269.669 72.4913 269.149 72.5884 268.557 72.5884C267.736 72.5884 267.066 72.4134 266.548 72.0634C266.029 71.7102 265.711 71.209 265.593 70.5599L266.972 70.3499C267.058 70.7095 267.235 70.9815 267.502 71.1661C267.769 71.3474 268.118 71.4381 268.547 71.4381C269.015 71.4381 269.389 71.3411 269.669 71.147C269.949 70.9497 270.089 70.7095 270.089 70.4263C270.089 70.1972 270.003 70.0047 269.831 69.8488C269.663 69.6928 269.403 69.5751 269.053 69.4956L267.812 69.2235C267.128 69.0676 266.622 68.8194 266.295 68.4789C265.97 68.1385 265.808 67.7073 265.808 67.1855C265.808 66.7527 265.929 66.3741 266.171 66.0495C266.412 65.725 266.746 65.472 267.173 65.2907C267.599 65.1061 268.088 65.0138 268.638 65.0138C269.43 65.0138 270.054 65.1857 270.509 65.5293C270.964 65.8698 271.265 66.3264 271.411 66.8991ZM278.617 66.8991L277.324 67.1282C277.269 66.9628 277.184 66.8052 277.066 66.6557C276.951 66.5061 276.795 66.3836 276.598 66.2882C276.401 66.1927 276.154 66.145 275.858 66.145C275.454 66.145 275.117 66.2357 274.846 66.4171C274.576 66.5952 274.441 66.8259 274.441 67.1091C274.441 67.3541 274.531 67.5514 274.713 67.701C274.894 67.8505 275.187 67.973 275.591 68.0685L276.756 68.3358C277.43 68.4917 277.933 68.7319 278.264 69.0565C278.595 69.381 278.76 69.8026 278.76 70.3213C278.76 70.7604 278.633 71.1518 278.378 71.4954C278.127 71.8359 277.775 72.1031 277.324 72.2972C276.875 72.4913 276.355 72.5884 275.763 72.5884C274.942 72.5884 274.272 72.4134 273.753 72.0634C273.235 71.7102 272.917 71.209 272.799 70.5599L274.178 70.3499C274.264 70.7095 274.441 70.9815 274.708 71.1661C274.975 71.3474 275.324 71.4381 275.753 71.4381C276.221 71.4381 276.595 71.3411 276.875 71.147C277.155 70.9497 277.295 70.7095 277.295 70.4263C277.295 70.1972 277.209 70.0047 277.037 69.8488C276.869 69.6928 276.609 69.5751 276.259 69.4956L275.018 69.2235C274.334 69.0676 273.828 68.8194 273.5 68.4789C273.176 68.1385 273.014 67.7073 273.014 67.1855C273.014 66.7527 273.135 66.3741 273.376 66.0495C273.618 65.725 273.952 65.472 274.379 65.2907C274.805 65.1061 275.294 65.0138 275.844 65.0138C276.636 65.0138 277.26 65.1857 277.715 65.5293C278.17 65.8698 278.471 66.3264 278.617 66.8991ZM290.881 74.4814C289.953 74.4814 289.081 74.3042 288.262 73.9499C287.444 73.5998 286.722 73.112 286.097 72.4864C285.475 71.8607 284.988 71.1388 284.633 70.3207C284.279 69.5025 284.102 68.6297 284.102 67.7022C284.102 66.7746 284.279 65.9018 284.633 65.0836C284.988 64.2655 285.475 63.5458 286.097 62.9245C286.722 62.2989 287.442 61.8088 288.256 61.4545C289.074 61.1001 289.947 60.9229 290.874 60.9229C291.806 60.9229 292.681 61.1001 293.499 61.4545C294.318 61.8088 295.04 62.2989 295.665 62.9245C296.291 63.5458 296.781 64.2655 297.135 65.0836C297.49 65.9018 297.667 66.7746 297.667 67.7022C297.667 68.6297 297.49 69.5025 297.135 70.3207C296.781 71.1388 296.291 71.8607 295.665 72.4864C295.04 73.112 294.318 73.5998 293.499 73.9499C292.681 74.3042 291.808 74.4814 290.881 74.4814ZM290.881 73.1426C291.638 73.1426 292.344 73.0026 293.001 72.7226C293.657 72.4426 294.234 72.0532 294.733 71.5545C295.232 71.0557 295.621 70.4782 295.901 69.8219C296.181 69.1656 296.321 68.4591 296.321 67.7022C296.321 66.9496 296.181 66.2452 295.901 65.589C295.621 64.9283 295.232 64.3486 294.733 63.8498C294.234 63.3511 293.655 62.9617 292.994 62.6817C292.338 62.4017 291.631 62.2617 290.874 62.2617C290.122 62.2617 289.415 62.4017 288.755 62.6817C288.098 62.9617 287.523 63.3511 287.029 63.8498C286.534 64.3486 286.147 64.9283 285.867 65.589C285.587 66.2452 285.447 66.9496 285.447 67.7022C285.447 68.4591 285.587 69.1656 285.867 69.8219C286.147 70.4782 286.534 71.0557 287.029 71.5545C287.527 72.0532 288.105 72.4426 288.761 72.7226C289.422 73.0026 290.128 73.1426 290.881 73.1426ZM290.737 69.0081C290.321 69.0081 290.113 68.8222 290.113 68.4503C290.113 68.4372 290.113 68.4241 290.113 68.4109C290.113 68.3978 290.113 68.3869 290.113 68.3781C290.113 68.0762 290.187 67.8312 290.336 67.6431C290.489 67.455 290.684 67.28 290.92 67.1181C291.2 66.9256 291.408 66.7615 291.544 66.6259C291.684 66.4902 291.754 66.3196 291.754 66.114C291.754 65.8908 291.671 65.7093 291.504 65.5693C291.343 65.4249 291.128 65.3527 290.861 65.3527C290.73 65.3527 290.607 65.3746 290.494 65.4183C290.384 65.4621 290.282 65.5255 290.185 65.6086C290.093 65.6874 290.01 65.7858 289.936 65.904L289.831 66.0418C289.77 66.1249 289.695 66.1905 289.608 66.2387C289.525 66.2868 289.424 66.3109 289.306 66.3109C289.17 66.3109 289.05 66.2649 288.945 66.173C288.84 66.0812 288.787 65.9565 288.787 65.799C288.787 65.7377 288.792 65.6808 288.801 65.6283C288.814 65.5715 288.831 65.5146 288.853 65.4577C288.954 65.1514 289.186 64.8868 289.549 64.6636C289.916 64.4405 290.382 64.3289 290.947 64.3289C291.332 64.3289 291.686 64.3967 292.01 64.5324C292.338 64.668 292.6 64.8627 292.797 65.1164C292.994 65.3702 293.093 65.6787 293.093 66.0418C293.093 66.4268 292.994 66.7309 292.797 66.954C292.605 67.1771 292.349 67.3959 292.029 67.6103C291.811 67.7503 291.644 67.8837 291.531 68.0106C291.417 68.1375 291.356 68.2862 291.347 68.4569C291.347 68.4656 291.347 68.4787 291.347 68.4962C291.347 68.5094 291.345 68.5225 291.34 68.5356C291.332 68.6669 291.273 68.7784 291.163 68.8703C291.058 68.9622 290.916 69.0081 290.737 69.0081ZM290.723 71.0229C290.513 71.0229 290.332 70.9551 290.179 70.8194C290.03 70.6794 289.956 70.5066 289.956 70.301C289.956 70.0954 290.03 69.9247 290.179 69.7891C290.327 69.6491 290.509 69.5791 290.723 69.5791C290.938 69.5791 291.119 69.6469 291.268 69.7825C291.417 69.9182 291.491 70.091 291.491 70.301C291.491 70.511 291.417 70.6838 291.268 70.8194C291.119 70.9551 290.938 71.0229 290.723 71.0229Z" fill="black"/>
<path d="M158.395 88.4404H157.498C157.431 88.1063 157.31 87.7977 157.135 87.5145C156.963 87.2281 156.747 86.9783 156.486 86.7651C156.225 86.552 155.929 86.3865 155.598 86.2688C155.268 86.151 154.91 86.0922 154.525 86.0922C153.907 86.0922 153.344 86.2529 152.835 86.5742C152.329 86.8956 151.923 87.3681 151.618 87.9918C151.316 88.6123 151.164 89.3727 151.164 90.2732C151.164 91.1801 151.316 91.9437 151.618 92.5642C151.923 93.1847 152.329 93.6556 152.835 93.977C153.344 94.2952 153.907 94.4543 154.525 94.4543C154.91 94.4543 155.268 94.3954 155.598 94.2777C155.929 94.1599 156.225 93.9961 156.486 93.7861C156.747 93.5729 156.963 93.3231 157.135 93.0367C157.31 92.7503 157.431 92.4401 157.498 92.106H158.395C158.316 92.5547 158.166 92.9731 157.947 93.3613C157.73 93.7463 157.453 94.0836 157.116 94.3731C156.782 94.6627 156.397 94.8886 155.961 95.0509C155.525 95.2131 155.046 95.2943 154.525 95.2943C153.704 95.2943 152.975 95.0891 152.339 94.6786C151.702 94.2649 151.203 93.6826 150.84 92.9317C150.48 92.1808 150.301 91.2946 150.301 90.2732C150.301 89.2518 150.48 88.3657 150.84 87.6147C151.203 86.8638 151.702 86.2831 152.339 85.8726C152.975 85.459 153.704 85.2521 154.525 85.2521C155.046 85.2521 155.525 85.3333 155.961 85.4956C156.397 85.6547 156.782 85.8806 157.116 86.1733C157.453 86.4629 157.73 86.8001 157.947 87.1852C158.166 87.5702 158.316 87.9886 158.395 88.4404ZM161.165 90.5787V95.1606H160.315V85.3858H161.165V88.9798H161.241C161.413 88.6011 161.679 88.2988 162.038 88.0729C162.401 87.847 162.859 87.734 163.413 87.734C163.909 87.734 164.345 87.8359 164.721 88.0395C165.096 88.2431 165.389 88.5438 165.599 88.9416C165.809 89.3393 165.914 89.8293 165.914 90.4116V95.1606H165.059V90.4641C165.059 89.8596 164.891 89.3839 164.554 89.037C164.219 88.687 163.768 88.512 163.198 88.512C162.807 88.512 162.458 88.5948 162.153 88.7602C161.847 88.9257 161.605 89.1643 161.427 89.4761C161.252 89.7848 161.165 90.1523 161.165 90.5787ZM171.001 95.3134C170.367 95.3134 169.807 95.1527 169.32 94.8313C168.837 94.5099 168.458 94.0661 168.185 93.4997C167.911 92.9301 167.774 92.2731 167.774 91.5285C167.774 90.7775 167.911 90.1173 168.185 89.5477C168.458 88.975 168.837 88.5295 169.32 88.2113C169.807 87.89 170.367 87.7293 171.001 87.7293C171.634 87.7293 172.192 87.89 172.676 88.2113C173.159 88.5327 173.538 88.9782 173.812 89.5477C174.089 90.1173 174.227 90.7775 174.227 91.5285C174.227 92.2731 174.09 92.9301 173.817 93.4997C173.543 94.0661 173.163 94.5099 172.676 94.8313C172.192 95.1527 171.634 95.3134 171.001 95.3134ZM171.001 94.5354C171.51 94.5354 171.941 94.3986 172.294 94.1249C172.647 93.8513 172.914 93.487 173.096 93.0319C173.28 92.5769 173.373 92.0758 173.373 91.5285C173.373 90.9812 173.28 90.4784 173.096 90.0203C172.914 89.5621 172.647 89.1945 172.294 88.9177C171.941 88.6409 171.51 88.5025 171.001 88.5025C170.495 88.5025 170.063 88.6409 169.707 88.9177C169.354 89.1945 169.085 89.5621 168.9 90.0203C168.719 90.4784 168.628 90.9812 168.628 91.5285C168.628 92.0758 168.719 92.5769 168.9 93.0319C169.085 93.487 169.354 93.8513 169.707 94.1249C170.06 94.3986 170.491 94.5354 171.001 94.5354ZM178.941 95.3134C178.308 95.3134 177.748 95.1527 177.261 94.8313C176.778 94.5099 176.399 94.0661 176.125 93.4997C175.852 92.9301 175.715 92.2731 175.715 91.5285C175.715 90.7775 175.852 90.1173 176.125 89.5477C176.399 88.975 176.778 88.5295 177.261 88.2113C177.748 87.89 178.308 87.7293 178.941 87.7293C179.575 87.7293 180.133 87.89 180.617 88.2113C181.1 88.5327 181.479 88.9782 181.753 89.5477C182.029 90.1173 182.168 90.7775 182.168 91.5285C182.168 92.2731 182.031 92.9301 181.757 93.4997C181.484 94.0661 181.103 94.5099 180.617 94.8313C180.133 95.1527 179.575 95.3134 178.941 95.3134ZM178.941 94.5354C179.45 94.5354 179.882 94.3986 180.235 94.1249C180.588 93.8513 180.855 93.487 181.037 93.0319C181.221 92.5769 181.314 92.0758 181.314 91.5285C181.314 90.9812 181.221 90.4784 181.037 90.0203C180.855 89.5621 180.588 89.1945 180.235 88.9177C179.882 88.6409 179.45 88.5025 178.941 88.5025C178.435 88.5025 178.004 88.6409 177.648 88.9177C177.295 89.1945 177.026 89.5621 176.841 90.0203C176.66 90.4784 176.569 90.9812 176.569 91.5285C176.569 92.0758 176.66 92.5769 176.841 93.0319C177.026 93.487 177.295 93.8513 177.648 94.1249C178.001 94.3986 178.432 94.5354 178.941 94.5354ZM188.958 89.438L188.18 89.6575C188.104 89.438 187.996 89.2391 187.856 89.0609C187.716 88.8827 187.533 88.7411 187.307 88.6361C187.084 88.5311 186.807 88.4786 186.477 88.4786C185.98 88.4786 185.573 88.5963 185.255 88.8318C184.937 89.0673 184.777 89.3711 184.777 89.7434C184.777 90.0584 184.886 90.3146 185.102 90.5119C185.322 90.706 185.659 90.8603 186.114 90.9748L187.221 91.2469C187.835 91.3964 188.295 91.6335 188.601 91.958C188.909 92.2826 189.063 92.6899 189.063 93.1799C189.063 93.5935 188.949 93.9611 188.72 94.2824C188.491 94.6038 188.171 94.8568 187.76 95.0413C187.353 95.2227 186.881 95.3134 186.343 95.3134C185.627 95.3134 185.037 95.1527 184.572 94.8313C184.108 94.5068 183.81 94.039 183.68 93.4281L184.496 93.2276C184.601 93.6636 184.806 93.9929 185.112 94.2156C185.42 94.4383 185.826 94.5497 186.329 94.5497C186.892 94.5497 187.342 94.424 187.679 94.1727C188.017 93.9181 188.185 93.5999 188.185 93.2181C188.185 92.9222 188.087 92.674 187.889 92.4735C187.692 92.2699 187.393 92.1203 186.992 92.0249L185.794 91.7385C185.158 91.5858 184.687 91.3439 184.381 91.013C184.076 90.6821 183.923 90.2716 183.923 89.7816C183.923 89.3775 184.033 89.0227 184.252 88.7173C184.472 88.4086 184.774 88.1668 185.159 87.9918C185.544 87.8168 185.983 87.7293 186.477 87.7293C187.148 87.7293 187.684 87.882 188.085 88.1875C188.489 88.4897 188.78 88.9066 188.958 89.438ZM193.888 95.3134C193.204 95.3134 192.612 95.1543 192.112 94.8361C191.613 94.5147 191.226 94.0708 190.952 93.5045C190.682 92.9349 190.547 92.2794 190.547 91.538C190.547 90.7998 190.682 90.1443 190.952 89.5716C191.226 88.9957 191.603 88.5454 192.084 88.2209C192.567 87.8931 193.126 87.7293 193.759 87.7293C194.157 87.7293 194.54 87.8025 194.909 87.9488C195.278 88.092 195.609 88.3132 195.902 88.6123C196.198 88.9082 196.432 89.282 196.603 89.7339C196.775 90.1825 196.861 90.7139 196.861 91.328V91.748H191.134V90.9987H195.993C195.993 90.5278 195.897 90.1046 195.706 89.7291C195.518 89.3505 195.256 89.0514 194.919 88.8318C194.585 88.6123 194.198 88.5025 193.759 88.5025C193.294 88.5025 192.885 88.6266 192.532 88.8748C192.179 89.123 191.902 89.4507 191.702 89.858C191.504 90.2653 191.404 90.7107 191.401 91.1944V91.643C191.401 92.2253 191.501 92.7344 191.702 93.1704C191.905 93.6031 192.193 93.9388 192.566 94.1774C192.938 94.4161 193.379 94.5354 193.888 94.5354C194.234 94.5354 194.538 94.4813 194.799 94.3731C195.063 94.2649 195.285 94.1202 195.463 93.9388C195.644 93.7542 195.781 93.5522 195.873 93.3326L196.68 93.5951C196.568 93.9038 196.385 94.1886 196.131 94.4495C195.88 94.7104 195.565 94.9204 195.186 95.0795C194.81 95.2354 194.378 95.3134 193.888 95.3134ZM204.141 95.1606L201.926 87.8295H202.824L204.561 93.8767H204.623L206.356 87.8295H207.258L208.976 93.8624H209.043L210.78 87.8295H211.677L209.463 95.1606H208.585L206.847 89.1516H206.757L205.019 95.1606H204.141ZM214.178 90.5787V95.1606H213.329V85.3858H214.178V88.9798H214.255C214.427 88.6011 214.692 88.2988 215.052 88.0729C215.415 87.847 215.873 87.734 216.426 87.734C216.923 87.734 217.359 87.8359 217.734 88.0395C218.11 88.2431 218.402 88.5438 218.612 88.9416C218.822 89.3393 218.927 89.8293 218.927 90.4116V95.1606H218.073V90.4641C218.073 89.8596 217.904 89.3839 217.567 89.037C217.233 88.687 216.781 88.512 216.212 88.512C215.82 88.512 215.472 88.5948 215.166 88.7602C214.861 88.9257 214.619 89.1643 214.441 89.4761C214.266 89.7848 214.178 90.1523 214.178 90.5787ZM223.212 95.3277C222.77 95.3277 222.366 95.2418 222 95.07C221.634 94.895 221.343 94.6436 221.126 94.3158C220.91 93.9849 220.802 93.584 220.802 93.1131C220.802 92.7503 220.87 92.4449 221.007 92.1967C221.144 91.9485 221.338 91.7449 221.589 91.5858C221.841 91.4267 222.138 91.301 222.482 91.2087C222.826 91.1164 223.204 91.0448 223.618 90.9939C224.028 90.943 224.375 90.8985 224.658 90.8603C224.945 90.8221 225.163 90.7616 225.312 90.6789C225.462 90.5962 225.537 90.4625 225.537 90.278V90.1062C225.537 89.6066 225.387 89.2136 225.088 88.9273C224.792 88.6377 224.366 88.4929 223.809 88.4929C223.281 88.4929 222.849 88.6091 222.515 88.8414C222.184 89.0736 221.952 89.3473 221.819 89.6623L221.012 89.3711C221.177 88.9702 221.406 88.6504 221.699 88.4118C221.992 88.17 222.32 87.9966 222.682 87.8915C223.045 87.7834 223.413 87.7293 223.785 87.7293C224.065 87.7293 224.356 87.7659 224.658 87.839C224.964 87.9122 225.247 88.0395 225.508 88.2209C225.769 88.3991 225.981 88.6488 226.143 88.9702C226.305 89.2884 226.386 89.6925 226.386 90.1825V95.1606H225.537V94.0008H225.484C225.382 94.2172 225.231 94.4272 225.031 94.6309C224.83 94.8345 224.579 95.0015 224.277 95.132C223.974 95.2625 223.62 95.3277 223.212 95.3277ZM223.327 94.5497C223.779 94.5497 224.17 94.4495 224.501 94.249C224.832 94.0486 225.086 93.7829 225.265 93.452C225.446 93.1179 225.537 92.7503 225.537 92.3494V91.2898C225.473 91.3503 225.366 91.4044 225.217 91.4521C225.07 91.4998 224.9 91.5428 224.706 91.581C224.515 91.616 224.324 91.6462 224.133 91.6717C223.942 91.6971 223.771 91.7194 223.618 91.7385C223.204 91.7894 222.851 91.8689 222.558 91.9771C222.266 92.0853 222.041 92.2349 221.885 92.4258C221.729 92.6135 221.652 92.8553 221.652 93.1513C221.652 93.5967 221.811 93.942 222.129 94.187C222.447 94.4288 222.846 94.5497 223.327 94.5497ZM231.534 87.8295V88.5693H228.035V87.8295H231.534ZM229.128 86.0731H229.983V93.2467C229.983 93.5522 230.035 93.7924 230.14 93.9674C230.245 94.1392 230.382 94.2618 230.551 94.3349C230.719 94.4049 230.899 94.4399 231.09 94.4399C231.201 94.4399 231.297 94.4336 231.376 94.4208C231.456 94.4049 231.526 94.389 231.586 94.3731L231.768 95.1416C231.685 95.1734 231.583 95.202 231.462 95.2275C231.341 95.2561 231.192 95.2704 231.014 95.2704C230.702 95.2704 230.401 95.202 230.111 95.0652C229.825 94.9284 229.59 94.7247 229.405 94.4543C229.22 94.1838 229.128 93.8481 229.128 93.4472V86.0731ZM234.189 85.3858V88.6457H233.387V85.3858H234.189ZM241.29 89.438L240.512 89.6575C240.435 89.438 240.327 89.2391 240.187 89.0609C240.047 88.8827 239.864 88.7411 239.638 88.6361C239.415 88.5311 239.139 88.4786 238.808 88.4786C238.311 88.4786 237.904 88.5963 237.586 88.8318C237.268 89.0673 237.108 89.3711 237.108 89.7434C237.108 90.0584 237.217 90.3146 237.433 90.5119C237.653 90.706 237.99 90.8603 238.445 90.9748L239.552 91.2469C240.166 91.3964 240.626 91.6335 240.932 91.958C241.24 92.2826 241.395 92.6899 241.395 93.1799C241.395 93.5935 241.28 93.9611 241.051 94.2824C240.822 94.6038 240.502 94.8568 240.092 95.0413C239.684 95.2227 239.212 95.3134 238.674 95.3134C237.958 95.3134 237.368 95.1527 236.903 94.8313C236.439 94.5068 236.141 94.039 236.011 93.4281L236.827 93.2276C236.932 93.6636 237.137 93.9929 237.443 94.2156C237.751 94.4383 238.157 94.5497 238.66 94.5497C239.223 94.5497 239.673 94.424 240.01 94.1727C240.348 93.9181 240.516 93.5999 240.516 93.2181C240.516 92.9222 240.418 92.674 240.22 92.4735C240.023 92.2699 239.724 92.1203 239.323 92.0249L238.125 91.7385C237.489 91.5858 237.018 91.3439 236.712 91.013C236.407 90.6821 236.254 90.2716 236.254 89.7816C236.254 89.3775 236.364 89.0227 236.583 88.7173C236.803 88.4086 237.105 88.1668 237.49 87.9918C237.875 87.8168 238.314 87.7293 238.808 87.7293C239.479 87.7293 240.015 87.882 240.416 88.1875C240.82 88.4897 241.111 88.9066 241.29 89.438ZM247.044 95.1606V87.8295H247.899V95.1606H247.044ZM247.479 86.5695C247.304 86.5695 247.154 86.5106 247.03 86.3929C246.906 86.272 246.844 86.1272 246.844 85.9585C246.844 85.7899 246.906 85.6467 247.03 85.529C247.154 85.4081 247.304 85.3476 247.479 85.3476C247.654 85.3476 247.803 85.4081 247.927 85.529C248.051 85.6467 248.114 85.7899 248.114 85.9585C248.114 86.1272 248.051 86.272 247.927 86.3929C247.803 86.5106 247.654 86.5695 247.479 86.5695ZM250.995 90.5787V95.1606H250.146V87.8295H250.971V88.9798H251.048C251.219 88.6043 251.487 88.3036 251.85 88.0777C252.215 87.8486 252.667 87.734 253.205 87.734C253.698 87.734 254.131 87.8375 254.503 88.0443C254.879 88.2479 255.17 88.5486 255.377 88.9464C255.587 89.3441 255.692 89.8325 255.692 90.4116V95.1606H254.842V90.4641C254.842 89.8627 254.673 89.3871 254.336 89.037C254.002 88.687 253.553 88.512 252.99 88.512C252.605 88.512 252.263 88.5948 251.964 88.7602C251.665 88.9257 251.428 89.1643 251.253 89.4761C251.081 89.7848 250.995 90.1523 250.995 90.5787ZM260.793 95.3134C260.137 95.3134 259.566 95.1495 259.079 94.8218C258.596 94.494 258.22 94.0454 257.953 93.4758C257.686 92.9063 257.552 92.2571 257.552 91.5285C257.552 90.7935 257.687 90.1396 257.958 89.5668C258.231 88.9941 258.61 88.5454 259.094 88.2209C259.577 87.8931 260.139 87.7293 260.778 87.7293C261.268 87.7293 261.712 87.8247 262.11 88.0156C262.508 88.2034 262.835 88.4691 263.093 88.8127C263.354 89.1532 263.518 89.5509 263.585 90.0059H262.726C262.637 89.5923 262.422 89.2391 262.081 88.9464C261.744 88.6504 261.315 88.5025 260.793 88.5025C260.325 88.5025 259.911 88.6298 259.552 88.8843C259.192 89.1357 258.911 89.4873 258.707 89.9391C258.506 90.3878 258.406 90.908 258.406 91.4998C258.406 92.0949 258.505 92.6215 258.702 93.0797C258.899 93.5347 259.176 93.8911 259.533 94.1488C259.892 94.4065 260.312 94.5354 260.793 94.5354C261.117 94.5354 261.413 94.4749 261.68 94.354C261.951 94.2299 262.177 94.0549 262.358 93.829C262.543 93.6031 262.667 93.3342 262.73 93.0224H263.59C263.526 93.4647 263.368 93.8592 263.117 94.2061C262.869 94.5497 262.546 94.8202 262.148 95.0175C261.754 95.2147 261.302 95.3134 260.793 95.3134ZM266.26 85.3858V95.1606H265.41V85.3858H266.26ZM273.166 92.359V87.8295H274.016V95.1606H273.166V93.9436H273.1C272.928 94.319 272.656 94.6324 272.283 94.8838C271.911 95.132 271.456 95.2561 270.918 95.2561C270.451 95.2561 270.035 95.1543 269.673 94.9506C269.31 94.7438 269.025 94.4415 268.818 94.0438C268.611 93.6461 268.508 93.1576 268.508 92.5785V87.8295H269.358V92.526C269.358 93.0988 269.526 93.5601 269.864 93.9101C270.201 94.257 270.634 94.4304 271.162 94.4304C271.493 94.4304 271.811 94.3508 272.116 94.1917C272.422 94.0327 272.673 93.8004 272.87 93.4949C273.068 93.1863 273.166 92.8076 273.166 92.359ZM278.905 95.3134C278.303 95.3134 277.777 95.1543 277.325 94.8361C276.873 94.5179 276.52 94.074 276.265 93.5045C276.014 92.9349 275.888 92.2715 275.888 91.5142C275.888 90.76 276.014 90.0998 276.265 89.5334C276.52 88.9639 276.875 88.5216 277.33 88.2066C277.785 87.8884 278.314 87.7293 278.919 87.7293C279.364 87.7293 279.735 87.8088 280.031 87.9679C280.327 88.1238 280.564 88.3179 280.742 88.5502C280.92 88.7825 281.059 89.0084 281.157 89.228H281.234V85.3858H282.088V95.1606H281.258V93.8004H281.157C281.059 94.0231 280.919 94.2522 280.737 94.4877C280.556 94.7199 280.316 94.9156 280.017 95.0747C279.721 95.2338 279.35 95.3134 278.905 95.3134ZM279.005 94.5354C279.479 94.5354 279.883 94.4065 280.217 94.1488C280.551 93.8879 280.806 93.5299 280.981 93.0749C281.159 92.6167 281.248 92.0917 281.248 91.4998C281.248 90.9144 281.161 90.3973 280.986 89.9487C280.811 89.4968 280.556 89.1436 280.222 88.8891C279.888 88.6313 279.482 88.5025 279.005 88.5025C278.515 88.5025 278.101 88.6361 277.764 88.9034C277.43 89.1675 277.175 89.5255 277 89.9773C276.828 90.4291 276.742 90.9366 276.742 91.4998C276.742 92.0694 276.83 92.5833 277.005 93.0415C277.18 93.4997 277.435 93.864 277.769 94.1345C278.106 94.4018 278.518 94.5354 279.005 94.5354ZM287.472 95.3134C286.788 95.3134 286.196 95.1543 285.696 94.8361C285.197 94.5147 284.81 94.0708 284.537 93.5045C284.266 92.9349 284.131 92.2794 284.131 91.538C284.131 90.7998 284.266 90.1443 284.537 89.5716C284.81 88.9957 285.187 88.5454 285.668 88.2209C286.151 87.8931 286.71 87.7293 287.343 87.7293C287.741 87.7293 288.124 87.8025 288.493 87.9488C288.862 88.092 289.193 88.3132 289.486 88.6123C289.782 88.9082 290.016 89.282 290.188 89.7339C290.359 90.1825 290.445 90.7139 290.445 91.328V91.748H284.718V90.9987H289.577C289.577 90.5278 289.481 90.1046 289.29 89.7291C289.103 89.3505 288.84 89.0514 288.503 88.8318C288.169 88.6123 287.782 88.5025 287.343 88.5025C286.878 88.5025 286.47 88.6266 286.116 88.8748C285.763 89.123 285.486 89.4507 285.286 89.858C285.089 90.2653 284.988 90.7107 284.985 91.1944V91.643C284.985 92.2253 285.085 92.7344 285.286 93.1704C285.49 93.6031 285.778 93.9388 286.15 94.1774C286.522 94.4161 286.963 94.5354 287.472 94.5354C287.819 94.5354 288.123 94.4813 288.384 94.3731C288.648 94.2649 288.869 94.1202 289.047 93.9388C289.228 93.7542 289.365 93.5522 289.457 93.3326L290.264 93.5951C290.153 93.9038 289.97 94.1886 289.715 94.4495C289.464 94.7104 289.149 94.9204 288.77 95.0795C288.395 95.2354 287.962 95.3134 287.472 95.3134ZM294.957 95.3134C294.356 95.3134 293.829 95.1543 293.377 94.8361C292.925 94.5179 292.572 94.074 292.318 93.5045C292.066 92.9349 291.941 92.2715 291.941 91.5142C291.941 90.76 292.066 90.0998 292.318 89.5334C292.572 88.9639 292.927 88.5216 293.382 88.2066C293.837 87.8884 294.367 87.7293 294.971 87.7293C295.417 87.7293 295.787 87.8088 296.083 87.9679C296.379 88.1238 296.616 88.3179 296.795 88.5502C296.973 88.7825 297.111 89.0084 297.21 89.228H297.286V85.3858H298.14V95.1606H297.31V93.8004H297.21C297.111 94.0231 296.971 94.2522 296.79 94.4877C296.608 94.7199 296.368 94.9156 296.069 95.0747C295.773 95.2338 295.402 95.3134 294.957 95.3134ZM295.057 94.5354C295.531 94.5354 295.935 94.4065 296.27 94.1488C296.604 93.8879 296.858 93.5299 297.033 93.0749C297.211 92.6167 297.3 92.0917 297.3 91.4998C297.3 90.9144 297.213 90.3973 297.038 89.9487C296.863 89.4968 296.608 89.1436 296.274 88.8891C295.94 88.6313 295.535 88.5025 295.057 88.5025C294.567 88.5025 294.154 88.6361 293.816 88.9034C293.482 89.1675 293.228 89.5255 293.053 89.9773C292.881 90.4291 292.795 90.9366 292.795 91.4998C292.795 92.0694 292.882 92.5833 293.057 93.0415C293.232 93.4997 293.487 93.864 293.821 94.1345C294.158 94.4018 294.57 94.5354 295.057 94.5354Z" fill="black" fill-opacity="0.5"/>
<g clip-path="url(#clip0_1511_26960)">
<rect x="149.441" y="104.881" width="24.6774" height="15" rx="7.5" fill="#30D158"/>
<g filter="url(#filter1_ddd_1511_26960)">
<rect x="160.086" y="105.849" width="13.0645" height="13.0645" rx="6.53226" fill="white"/>
</g>
</g>
<path d="M191.172 117.881H190.236L193.792 108.106H194.747L198.303 117.881H197.367L194.303 109.266H194.236L191.172 117.881ZM191.845 114.134H196.694V114.936H191.845V114.134ZM200.651 108.106V117.881H199.801V108.106H200.651ZM203.748 108.106V117.881H202.899V108.106H203.748ZM209.968 117.881H209.032L212.588 108.106H213.542L217.098 117.881H216.163L213.099 109.266H213.032L209.968 117.881ZM210.64 114.134H215.49V114.936H210.64V114.134ZM221.461 118.034C220.805 118.034 220.234 117.87 219.747 117.542C219.263 117.214 218.888 116.766 218.621 116.196C218.353 115.626 218.22 114.977 218.22 114.249C218.22 113.514 218.355 112.86 218.626 112.287C218.899 111.714 219.278 111.266 219.761 110.941C220.245 110.613 220.807 110.449 221.446 110.449C221.936 110.449 222.38 110.545 222.778 110.736C223.176 110.924 223.503 111.189 223.761 111.533C224.022 111.873 224.186 112.271 224.253 112.726H223.394C223.305 112.312 223.09 111.959 222.749 111.667C222.412 111.371 221.982 111.223 221.461 111.223C220.993 111.223 220.579 111.35 220.22 111.605C219.86 111.856 219.579 112.207 219.375 112.659C219.174 113.108 219.074 113.628 219.074 114.22C219.074 114.815 219.173 115.342 219.37 115.8C219.567 116.255 219.844 116.611 220.201 116.869C220.56 117.127 220.98 117.256 221.461 117.256C221.785 117.256 222.081 117.195 222.348 117.074C222.619 116.95 222.845 116.775 223.026 116.549C223.211 116.323 223.335 116.054 223.398 115.743H224.258C224.194 116.185 224.036 116.579 223.785 116.926C223.537 117.27 223.214 117.54 222.816 117.738C222.422 117.935 221.97 118.034 221.461 118.034ZM228.942 118.034C228.287 118.034 227.715 117.87 227.229 117.542C226.745 117.214 226.37 116.766 226.102 116.196C225.835 115.626 225.701 114.977 225.701 114.249C225.701 113.514 225.837 112.86 226.107 112.287C226.381 111.714 226.759 111.266 227.243 110.941C227.727 110.613 228.288 110.449 228.928 110.449C229.418 110.449 229.862 110.545 230.259 110.736C230.657 110.924 230.985 111.189 231.243 111.533C231.504 111.873 231.667 112.271 231.734 112.726H230.875C230.786 112.312 230.571 111.959 230.231 111.667C229.893 111.371 229.464 111.223 228.942 111.223C228.474 111.223 228.061 111.35 227.701 111.605C227.342 111.856 227.06 112.207 226.856 112.659C226.656 113.108 226.556 113.628 226.556 114.22C226.556 114.815 226.654 115.342 226.852 115.8C227.049 116.255 227.326 116.611 227.682 116.869C228.042 117.127 228.462 117.256 228.942 117.256C229.267 117.256 229.563 117.195 229.83 117.074C230.1 116.95 230.326 116.775 230.508 116.549C230.692 116.323 230.816 116.054 230.88 115.743H231.739C231.675 116.185 231.518 116.579 231.266 116.926C231.018 117.27 230.695 117.54 230.298 117.738C229.903 117.935 229.451 118.034 228.942 118.034ZM236.524 118.034C235.84 118.034 235.248 117.874 234.748 117.556C234.249 117.235 233.862 116.791 233.589 116.225C233.318 115.655 233.183 115 233.183 114.258C233.183 113.52 233.318 112.865 233.589 112.292C233.862 111.716 234.239 111.266 234.72 110.941C235.203 110.613 235.762 110.449 236.395 110.449C236.793 110.449 237.176 110.523 237.545 110.669C237.914 110.812 238.245 111.033 238.538 111.332C238.834 111.628 239.068 112.002 239.24 112.454C239.411 112.903 239.497 113.434 239.497 114.048V114.468H233.77V113.719H238.629C238.629 113.248 238.533 112.825 238.342 112.449C238.155 112.071 237.892 111.772 237.555 111.552C237.221 111.332 236.834 111.223 236.395 111.223C235.93 111.223 235.522 111.347 235.168 111.595C234.815 111.843 234.538 112.171 234.338 112.578C234.141 112.985 234.04 113.431 234.037 113.915V114.363C234.037 114.946 234.137 115.455 234.338 115.891C234.541 116.323 234.829 116.659 235.202 116.898C235.574 117.136 236.015 117.256 236.524 117.256C236.871 117.256 237.175 117.202 237.435 117.093C237.7 116.985 237.921 116.84 238.099 116.659C238.28 116.474 238.417 116.272 238.509 116.053L239.316 116.315C239.205 116.624 239.022 116.909 238.767 117.17C238.516 117.431 238.201 117.641 237.822 117.8C237.447 117.956 237.014 118.034 236.524 118.034ZM246.295 112.158L245.517 112.378C245.441 112.158 245.333 111.959 245.193 111.781C245.053 111.603 244.87 111.461 244.644 111.356C244.421 111.251 244.144 111.199 243.813 111.199C243.317 111.199 242.91 111.317 242.591 111.552C242.273 111.787 242.114 112.091 242.114 112.464C242.114 112.779 242.222 113.035 242.439 113.232C242.658 113.426 242.995 113.58 243.45 113.695L244.558 113.967C245.172 114.117 245.632 114.354 245.937 114.678C246.246 115.003 246.4 115.41 246.4 115.9C246.4 116.314 246.286 116.681 246.056 117.003C245.827 117.324 245.508 117.577 245.097 117.762C244.69 117.943 244.217 118.034 243.68 118.034C242.964 118.034 242.373 117.873 241.909 117.552C241.444 117.227 241.147 116.759 241.016 116.148L241.832 115.948C241.937 116.384 242.143 116.713 242.448 116.936C242.757 117.159 243.163 117.27 243.665 117.27C244.228 117.27 244.679 117.144 245.016 116.893C245.353 116.638 245.522 116.32 245.522 115.938C245.522 115.642 245.423 115.394 245.226 115.194C245.029 114.99 244.73 114.841 244.329 114.745L243.131 114.459C242.494 114.306 242.023 114.064 241.718 113.733C241.412 113.402 241.26 112.992 241.26 112.502C241.26 112.098 241.369 111.743 241.589 111.437C241.809 111.129 242.111 110.887 242.496 110.712C242.881 110.537 243.32 110.449 243.813 110.449C244.485 110.449 245.021 110.602 245.422 110.908C245.826 111.21 246.117 111.627 246.295 112.158ZM253.186 112.158L252.408 112.378C252.332 112.158 252.223 111.959 252.083 111.781C251.943 111.603 251.76 111.461 251.535 111.356C251.312 111.251 251.035 111.199 250.704 111.199C250.208 111.199 249.8 111.317 249.482 111.552C249.164 111.787 249.005 112.091 249.005 112.464C249.005 112.779 249.113 113.035 249.329 113.232C249.549 113.426 249.886 113.58 250.341 113.695L251.449 113.967C252.063 114.117 252.523 114.354 252.828 114.678C253.137 115.003 253.291 115.41 253.291 115.9C253.291 116.314 253.176 116.681 252.947 117.003C252.718 117.324 252.398 117.577 251.988 117.762C251.581 117.943 251.108 118.034 250.57 118.034C249.854 118.034 249.264 117.873 248.8 117.552C248.335 117.227 248.038 116.759 247.907 116.148L248.723 115.948C248.828 116.384 249.034 116.713 249.339 116.936C249.648 117.159 250.053 117.27 250.556 117.27C251.119 117.27 251.57 117.144 251.907 116.893C252.244 116.638 252.413 116.32 252.413 115.938C252.413 115.642 252.314 115.394 252.117 115.194C251.92 114.99 251.62 114.841 251.22 114.745L250.022 114.459C249.385 114.306 248.914 114.064 248.609 113.733C248.303 113.402 248.151 112.992 248.151 112.502C248.151 112.098 248.26 111.743 248.48 111.437C248.699 111.129 249.002 110.887 249.387 110.712C249.772 110.537 250.211 110.449 250.704 110.449C251.375 110.449 251.912 110.602 252.313 110.908C252.717 111.21 253.008 111.627 253.186 112.158Z" fill="black"/>
<rect x="149.861" y="128.021" width="260.16" height="37.16" rx="6.3002" stroke="#D6DAE1" stroke-width="0.840027"/>
<path d="M166.053 143.67C165.995 143.187 165.763 142.811 165.356 142.544C164.949 142.277 164.449 142.143 163.857 142.143C163.424 142.143 163.046 142.213 162.721 142.353C162.4 142.493 162.149 142.685 161.967 142.93C161.789 143.175 161.7 143.454 161.7 143.766C161.7 144.027 161.762 144.251 161.886 144.439C162.013 144.623 162.176 144.778 162.373 144.902C162.57 145.023 162.777 145.123 162.993 145.202C163.21 145.279 163.409 145.341 163.59 145.388L164.583 145.656C164.837 145.723 165.12 145.815 165.432 145.933C165.747 146.05 166.048 146.211 166.334 146.415C166.624 146.615 166.863 146.873 167.05 147.188C167.238 147.503 167.332 147.889 167.332 148.348C167.332 148.876 167.193 149.353 166.917 149.779C166.643 150.206 166.242 150.545 165.714 150.796C165.189 151.047 164.551 151.173 163.8 151.173C163.1 151.173 162.494 151.06 161.981 150.834C161.472 150.608 161.071 150.293 160.779 149.889C160.489 149.485 160.325 149.016 160.287 148.481H161.509C161.541 148.85 161.665 149.156 161.881 149.398C162.101 149.636 162.378 149.814 162.712 149.932C163.049 150.047 163.412 150.104 163.8 150.104C164.252 150.104 164.657 150.031 165.017 149.884C165.377 149.735 165.661 149.528 165.871 149.264C166.081 148.997 166.186 148.685 166.186 148.329C166.186 148.004 166.096 147.74 165.914 147.536C165.733 147.333 165.494 147.167 165.198 147.04C164.902 146.913 164.583 146.801 164.239 146.706L163.036 146.362C162.273 146.143 161.668 145.829 161.223 145.422C160.777 145.015 160.554 144.482 160.554 143.823C160.554 143.276 160.702 142.798 160.998 142.391C161.297 141.981 161.698 141.662 162.201 141.436C162.707 141.207 163.272 141.093 163.895 141.093C164.525 141.093 165.085 141.206 165.575 141.432C166.065 141.654 166.454 141.96 166.74 142.348C167.03 142.736 167.182 143.177 167.198 143.67H166.053ZM172.199 151.154C171.493 151.154 170.883 150.998 170.371 150.686C169.862 150.371 169.469 149.932 169.192 149.369C168.918 148.803 168.782 148.144 168.782 147.393C168.782 146.642 168.918 145.98 169.192 145.408C169.469 144.832 169.854 144.383 170.347 144.062C170.844 143.737 171.423 143.575 172.084 143.575C172.466 143.575 172.843 143.638 173.216 143.766C173.588 143.893 173.927 144.1 174.232 144.386C174.538 144.669 174.781 145.045 174.963 145.513C175.144 145.98 175.235 146.556 175.235 147.24V147.718H169.583V146.744H174.089C174.089 146.33 174.006 145.961 173.841 145.637C173.679 145.312 173.446 145.056 173.144 144.868C172.845 144.68 172.492 144.587 172.084 144.587C171.636 144.587 171.248 144.698 170.92 144.921C170.595 145.14 170.346 145.427 170.171 145.78C169.996 146.133 169.908 146.512 169.908 146.916V147.565C169.908 148.119 170.003 148.588 170.194 148.973C170.389 149.355 170.657 149.646 171.001 149.846C171.345 150.044 171.744 150.142 172.199 150.142C172.495 150.142 172.762 150.101 173.001 150.018C173.243 149.932 173.451 149.805 173.626 149.636C173.801 149.464 173.936 149.251 174.032 148.997L175.12 149.302C175.005 149.671 174.813 149.996 174.542 150.276C174.272 150.553 173.938 150.769 173.54 150.925C173.142 151.078 172.695 151.154 172.199 151.154ZM178.074 141.226V151.001H176.948V141.226H178.074ZM183.211 151.154C182.505 151.154 181.896 150.998 181.383 150.686C180.874 150.371 180.481 149.932 180.204 149.369C179.931 148.803 179.794 148.144 179.794 147.393C179.794 146.642 179.931 145.98 180.204 145.408C180.481 144.832 180.866 144.383 181.359 144.062C181.856 143.737 182.435 143.575 183.097 143.575C183.479 143.575 183.856 143.638 184.228 143.766C184.6 143.893 184.939 144.1 185.244 144.386C185.55 144.669 185.793 145.045 185.975 145.513C186.156 145.98 186.247 146.556 186.247 147.24V147.718H180.596V146.744H185.101C185.101 146.33 185.019 145.961 184.853 145.637C184.691 145.312 184.459 145.056 184.156 144.868C183.857 144.68 183.504 144.587 183.097 144.587C182.648 144.587 182.26 144.698 181.932 144.921C181.608 145.14 181.358 145.427 181.183 145.78C181.008 146.133 180.92 146.512 180.92 146.916V147.565C180.92 148.119 181.016 148.588 181.207 148.973C181.401 149.355 181.67 149.646 182.013 149.846C182.357 150.044 182.756 150.142 183.211 150.142C183.507 150.142 183.774 150.101 184.013 150.018C184.255 149.932 184.463 149.805 184.638 149.636C184.813 149.464 184.949 149.251 185.044 148.997L186.132 149.302C186.018 149.671 185.825 149.996 185.555 150.276C185.284 150.553 184.95 150.769 184.552 150.925C184.155 151.078 183.708 151.154 183.211 151.154ZM190.939 151.154C190.251 151.154 189.659 150.992 189.163 150.667C188.667 150.343 188.285 149.896 188.018 149.326C187.75 148.756 187.617 148.106 187.617 147.374C187.617 146.629 187.753 145.972 188.027 145.403C188.304 144.83 188.689 144.383 189.182 144.062C189.678 143.737 190.258 143.575 190.919 143.575C191.435 143.575 191.899 143.67 192.313 143.861C192.727 144.052 193.066 144.319 193.33 144.663C193.594 145.007 193.758 145.408 193.821 145.866H192.695C192.609 145.532 192.418 145.236 192.122 144.978C191.829 144.717 191.435 144.587 190.939 144.587C190.499 144.587 190.114 144.701 189.783 144.93C189.456 145.156 189.2 145.476 189.015 145.89C188.834 146.3 188.743 146.782 188.743 147.336C188.743 147.902 188.832 148.395 189.01 148.815C189.192 149.235 189.446 149.562 189.774 149.794C190.105 150.026 190.493 150.142 190.939 150.142C191.231 150.142 191.497 150.091 191.736 149.989C191.974 149.888 192.176 149.741 192.342 149.55C192.507 149.359 192.625 149.13 192.695 148.863H193.821C193.758 149.296 193.6 149.686 193.349 150.032C193.101 150.376 192.771 150.65 192.361 150.853C191.954 151.054 191.479 151.154 190.939 151.154ZM198.656 143.67V144.625H194.857V143.67H198.656ZM195.964 141.914H197.091V148.901C197.091 149.219 197.137 149.458 197.229 149.617C197.325 149.773 197.446 149.878 197.592 149.932C197.741 149.983 197.899 150.009 198.064 150.009C198.189 150.009 198.29 150.002 198.37 149.989C198.449 149.974 198.513 149.961 198.561 149.951L198.79 150.963C198.714 150.992 198.607 151.02 198.47 151.049C198.333 151.081 198.16 151.097 197.95 151.097C197.632 151.097 197.32 151.028 197.014 150.892C196.712 150.755 196.461 150.546 196.26 150.266C196.063 149.986 195.964 149.633 195.964 149.207V141.914ZM204.284 151.001V141.226H207.586C208.353 141.226 208.98 141.365 209.467 141.642C209.957 141.915 210.32 142.286 210.555 142.754C210.791 143.222 210.908 143.743 210.908 144.319C210.908 144.895 210.791 145.419 210.555 145.89C210.323 146.361 209.963 146.736 209.476 147.016C208.99 147.293 208.366 147.431 207.605 147.431H205.238V146.381H207.567C208.092 146.381 208.514 146.291 208.832 146.109C209.15 145.928 209.381 145.683 209.524 145.374C209.67 145.062 209.744 144.711 209.744 144.319C209.744 143.928 209.67 143.578 209.524 143.269C209.381 142.961 209.149 142.719 208.827 142.544C208.506 142.366 208.08 142.277 207.548 142.277H205.467V151.001H204.284ZM212.662 151.001V143.67H213.751V144.778H213.827C213.961 144.415 214.202 144.12 214.552 143.895C214.902 143.669 215.297 143.556 215.736 143.556C215.819 143.556 215.922 143.557 216.046 143.56C216.17 143.564 216.264 143.568 216.328 143.575V144.72C216.29 144.711 216.202 144.696 216.065 144.677C215.932 144.655 215.79 144.644 215.641 144.644C215.284 144.644 214.966 144.719 214.686 144.868C214.409 145.015 214.19 145.218 214.027 145.479C213.868 145.737 213.789 146.031 213.789 146.362V151.001H212.662ZM220.418 151.154C219.756 151.154 219.176 150.997 218.676 150.682C218.18 150.367 217.792 149.926 217.512 149.359C217.235 148.793 217.096 148.131 217.096 147.374C217.096 146.61 217.235 145.944 217.512 145.374C217.792 144.805 218.18 144.362 218.676 144.047C219.176 143.732 219.756 143.575 220.418 143.575C221.08 143.575 221.659 143.732 222.156 144.047C222.655 144.362 223.043 144.805 223.32 145.374C223.6 145.944 223.74 146.61 223.74 147.374C223.74 148.131 223.6 148.793 223.32 149.359C223.043 149.926 222.655 150.367 222.156 150.682C221.659 150.997 221.08 151.154 220.418 151.154ZM220.418 150.142C220.921 150.142 221.335 150.013 221.659 149.756C221.984 149.498 222.224 149.159 222.38 148.739C222.536 148.319 222.614 147.864 222.614 147.374C222.614 146.884 222.536 146.427 222.38 146.004C222.224 145.581 221.984 145.239 221.659 144.978C221.335 144.717 220.921 144.587 220.418 144.587C219.915 144.587 219.502 144.717 219.177 144.978C218.853 145.239 218.612 145.581 218.457 146.004C218.301 146.427 218.223 146.884 218.223 147.374C218.223 147.864 218.301 148.319 218.457 148.739C218.612 149.159 218.853 149.498 219.177 149.756C219.502 150.013 219.915 150.142 220.418 150.142ZM228.228 151.154C227.617 151.154 227.078 151 226.61 150.691C226.142 150.379 225.776 149.94 225.512 149.374C225.248 148.804 225.116 148.131 225.116 147.355C225.116 146.585 225.248 145.917 225.512 145.35C225.776 144.784 226.144 144.346 226.615 144.038C227.086 143.729 227.63 143.575 228.247 143.575C228.724 143.575 229.101 143.654 229.378 143.813C229.658 143.969 229.871 144.147 230.018 144.348C230.167 144.545 230.283 144.708 230.366 144.835H230.462V141.226H231.588V151.001H230.5V149.875H230.366C230.283 150.009 230.166 150.177 230.013 150.381C229.86 150.581 229.642 150.761 229.359 150.92C229.076 151.076 228.699 151.154 228.228 151.154ZM228.381 150.142C228.832 150.142 229.214 150.024 229.526 149.789C229.838 149.55 230.075 149.221 230.237 148.801C230.4 148.378 230.481 147.889 230.481 147.336C230.481 146.788 230.401 146.31 230.242 145.899C230.083 145.485 229.847 145.164 229.536 144.935C229.224 144.703 228.839 144.587 228.381 144.587C227.903 144.587 227.506 144.709 227.187 144.954C226.872 145.196 226.635 145.525 226.476 145.942C226.32 146.356 226.242 146.82 226.242 147.336C226.242 147.858 226.322 148.332 226.481 148.758C226.643 149.181 226.882 149.519 227.197 149.77C227.515 150.018 227.91 150.142 228.381 150.142ZM238.428 148.004V143.67H239.554V151.001H238.428V149.76H238.351C238.179 150.133 237.912 150.449 237.549 150.71C237.187 150.968 236.728 151.097 236.175 151.097C235.717 151.097 235.309 150.997 234.953 150.796C234.596 150.592 234.316 150.287 234.113 149.88C233.909 149.469 233.807 148.952 233.807 148.329V143.67H234.934V148.252C234.934 148.787 235.083 149.213 235.382 149.531C235.685 149.849 236.07 150.009 236.537 150.009C236.817 150.009 237.102 149.937 237.392 149.794C237.685 149.651 237.93 149.431 238.127 149.135C238.327 148.839 238.428 148.462 238.428 148.004ZM244.595 151.154C243.908 151.154 243.316 150.992 242.82 150.667C242.323 150.343 241.942 149.896 241.674 149.326C241.407 148.756 241.273 148.106 241.273 147.374C241.273 146.629 241.41 145.972 241.684 145.403C241.961 144.83 242.346 144.383 242.839 144.062C243.335 143.737 243.914 143.575 244.576 143.575C245.092 143.575 245.556 143.67 245.97 143.861C246.383 144.052 246.722 144.319 246.986 144.663C247.251 145.007 247.414 145.408 247.478 145.866H246.352C246.266 145.532 246.075 145.236 245.779 144.978C245.486 144.717 245.092 144.587 244.595 144.587C244.156 144.587 243.771 144.701 243.44 144.93C243.112 145.156 242.856 145.476 242.672 145.89C242.49 146.3 242.4 146.782 242.4 147.336C242.4 147.902 242.489 148.395 242.667 148.815C242.848 149.235 243.103 149.562 243.431 149.794C243.762 150.026 244.15 150.142 244.595 150.142C244.888 150.142 245.154 150.091 245.392 149.989C245.631 149.888 245.833 149.741 245.998 149.55C246.164 149.359 246.282 149.13 246.352 148.863H247.478C247.414 149.296 247.257 149.686 247.006 150.032C246.757 150.376 246.428 150.65 246.018 150.853C245.61 151.054 245.136 151.154 244.595 151.154ZM252.313 143.67V144.625H248.514V143.67H252.313ZM249.621 141.914H250.748V148.901C250.748 149.219 250.794 149.458 250.886 149.617C250.981 149.773 251.102 149.878 251.249 149.932C251.398 149.983 251.556 150.009 251.721 150.009C251.845 150.009 251.947 150.002 252.027 149.989C252.106 149.974 252.17 149.961 252.218 149.951L252.447 150.963C252.37 150.992 252.264 151.02 252.127 151.049C251.99 151.081 251.817 151.097 251.607 151.097C251.288 151.097 250.977 151.028 250.671 150.892C250.369 150.755 250.117 150.546 249.917 150.266C249.72 149.986 249.621 149.633 249.621 149.207V141.914ZM257.406 142.277V141.226H264.737V142.277H261.663V151.001H260.479V142.277H257.406ZM266.296 153.751C266.105 153.751 265.935 153.735 265.786 153.703C265.636 153.674 265.533 153.646 265.475 153.617L265.762 152.624C266.035 152.694 266.277 152.72 266.487 152.7C266.697 152.681 266.883 152.588 267.046 152.419C267.211 152.253 267.362 151.985 267.499 151.612L267.709 151.04L264.998 143.67H266.22L268.244 149.512H268.32L270.344 143.67H271.566L268.454 152.07C268.314 152.449 268.14 152.763 267.933 153.011C267.727 153.262 267.486 153.448 267.213 153.569C266.942 153.69 266.637 153.751 266.296 153.751ZM273.052 153.751V143.67H274.141V144.835H274.274C274.357 144.708 274.471 144.545 274.618 144.348C274.767 144.147 274.981 143.969 275.257 143.813C275.537 143.654 275.916 143.575 276.393 143.575C277.011 143.575 277.555 143.729 278.026 144.038C278.497 144.346 278.864 144.784 279.128 145.35C279.392 145.917 279.524 146.585 279.524 147.355C279.524 148.131 279.392 148.804 279.128 149.374C278.864 149.94 278.498 150.379 278.03 150.691C277.563 151 277.023 151.154 276.412 151.154C275.942 151.154 275.564 151.076 275.281 150.92C274.998 150.761 274.78 150.581 274.627 150.381C274.475 150.177 274.357 150.009 274.274 149.875H274.179V153.751H273.052ZM274.16 147.336C274.16 147.889 274.241 148.378 274.403 148.801C274.565 149.221 274.802 149.55 275.114 149.789C275.426 150.024 275.808 150.142 276.26 150.142C276.731 150.142 277.124 150.018 277.439 149.77C277.757 149.519 277.995 149.181 278.155 148.758C278.317 148.332 278.398 147.858 278.398 147.336C278.398 146.82 278.318 146.356 278.159 145.942C278.003 145.525 277.766 145.196 277.448 144.954C277.133 144.709 276.737 144.587 276.26 144.587C275.802 144.587 275.417 144.703 275.105 144.935C274.793 145.164 274.557 145.485 274.398 145.899C274.239 146.31 274.16 146.788 274.16 147.336ZM284.316 151.154C283.61 151.154 283.001 150.998 282.488 150.686C281.979 150.371 281.586 149.932 281.309 149.369C281.036 148.803 280.899 148.144 280.899 147.393C280.899 146.642 281.036 145.98 281.309 145.408C281.586 144.832 281.971 144.383 282.464 144.062C282.961 143.737 283.54 143.575 284.202 143.575C284.584 143.575 284.961 143.638 285.333 143.766C285.705 143.893 286.044 144.1 286.35 144.386C286.655 144.669 286.898 145.045 287.08 145.513C287.261 145.98 287.352 146.556 287.352 147.24V147.718H281.701V146.744H286.206C286.206 146.33 286.124 145.961 285.958 145.637C285.796 145.312 285.564 145.056 285.261 144.868C284.962 144.68 284.609 144.587 284.202 144.587C283.753 144.587 283.365 144.698 283.037 144.921C282.713 145.14 282.463 145.427 282.288 145.78C282.113 146.133 282.025 146.512 282.025 146.916V147.565C282.025 148.119 282.121 148.588 282.312 148.973C282.506 149.355 282.775 149.646 283.118 149.846C283.462 150.044 283.861 150.142 284.316 150.142C284.612 150.142 284.88 150.101 285.118 150.018C285.36 149.932 285.568 149.805 285.743 149.636C285.918 149.464 286.054 149.251 286.149 148.997L287.237 149.302C287.123 149.671 286.93 149.996 286.66 150.276C286.389 150.553 286.055 150.769 285.658 150.925C285.26 151.078 284.813 151.154 284.316 151.154Z" fill="#D6DAE1"/>
<path d="M392.736 149.761C392.57 149.761 392.421 149.698 392.29 149.571L387.21 144.373C387.153 144.316 387.109 144.253 387.079 144.183C387.048 144.108 387.033 144.03 387.033 143.946C387.033 143.833 387.059 143.73 387.112 143.638C387.164 143.546 387.234 143.474 387.322 143.421C387.414 143.369 387.516 143.343 387.63 143.343C387.796 143.343 387.939 143.4 388.057 143.513L393.084 148.652H392.381L397.409 143.513C397.531 143.4 397.673 143.343 397.835 143.343C397.949 143.343 398.049 143.369 398.137 143.421C398.229 143.474 398.301 143.546 398.354 143.638C398.406 143.73 398.432 143.833 398.432 143.946C398.432 144.108 398.373 144.248 398.255 144.366L393.176 149.571C393.119 149.632 393.051 149.68 392.972 149.715C392.898 149.746 392.819 149.761 392.736 149.761Z" fill="#464F5E"/>
<rect x="149.861" y="172.741" width="260.16" height="37.16" rx="6.3002" stroke="#D6DAE1" stroke-width="0.840027"/>
<path d="M166.053 188.39C165.995 187.907 165.763 187.531 165.356 187.264C164.949 186.997 164.449 186.863 163.857 186.863C163.424 186.863 163.046 186.933 162.721 187.073C162.4 187.213 162.149 187.406 161.967 187.651C161.789 187.896 161.7 188.174 161.7 188.486C161.7 188.747 161.762 188.971 161.886 189.159C162.013 189.343 162.176 189.498 162.373 189.622C162.57 189.743 162.777 189.843 162.993 189.923C163.21 189.999 163.409 190.061 163.59 190.109L164.583 190.376C164.837 190.443 165.12 190.535 165.432 190.653C165.747 190.77 166.048 190.931 166.334 191.135C166.624 191.335 166.863 191.593 167.05 191.908C167.238 192.223 167.332 192.61 167.332 193.068C167.332 193.596 167.193 194.073 166.917 194.5C166.643 194.926 166.242 195.265 165.714 195.516C165.189 195.768 164.551 195.893 163.8 195.893C163.1 195.893 162.494 195.78 161.981 195.555C161.472 195.329 161.071 195.014 160.779 194.609C160.489 194.205 160.325 193.736 160.287 193.201H161.509C161.541 193.571 161.665 193.876 161.881 194.118C162.101 194.357 162.378 194.535 162.712 194.652C163.049 194.767 163.412 194.824 163.8 194.824C164.252 194.824 164.657 194.751 165.017 194.605C165.377 194.455 165.661 194.248 165.871 193.984C166.081 193.717 166.186 193.405 166.186 193.049C166.186 192.724 166.096 192.46 165.914 192.256C165.733 192.053 165.494 191.887 165.198 191.76C164.902 191.633 164.583 191.521 164.239 191.426L163.036 191.082C162.273 190.863 161.668 190.549 161.223 190.142C160.777 189.735 160.554 189.202 160.554 188.543C160.554 187.996 160.702 187.519 160.998 187.111C161.297 186.701 161.698 186.383 162.201 186.157C162.707 185.928 163.272 185.813 163.895 185.813C164.525 185.813 165.085 185.926 165.575 186.152C166.065 186.375 166.454 186.68 166.74 187.068C167.03 187.457 167.182 187.897 167.198 188.39H166.053ZM172.199 195.874C171.493 195.874 170.883 195.718 170.371 195.407C169.862 195.092 169.469 194.652 169.192 194.089C168.918 193.523 168.782 192.864 168.782 192.113C168.782 191.362 168.918 190.7 169.192 190.128C169.469 189.552 169.854 189.103 170.347 188.782C170.844 188.457 171.423 188.295 172.084 188.295C172.466 188.295 172.843 188.359 173.216 188.486C173.588 188.613 173.927 188.82 174.232 189.106C174.538 189.39 174.781 189.765 174.963 190.233C175.144 190.7 175.235 191.276 175.235 191.961V192.438H169.583V191.464H174.089C174.089 191.05 174.006 190.681 173.841 190.357C173.679 190.032 173.446 189.776 173.144 189.588C172.845 189.401 172.492 189.307 172.084 189.307C171.636 189.307 171.248 189.418 170.92 189.641C170.595 189.86 170.346 190.147 170.171 190.5C169.996 190.853 169.908 191.232 169.908 191.636V192.285C169.908 192.839 170.003 193.308 170.194 193.693C170.389 194.075 170.657 194.366 171.001 194.567C171.345 194.764 171.744 194.862 172.199 194.862C172.495 194.862 172.762 194.821 173.001 194.738C173.243 194.652 173.451 194.525 173.626 194.357C173.801 194.185 173.936 193.972 174.032 193.717L175.12 194.022C175.005 194.392 174.813 194.716 174.542 194.996C174.272 195.273 173.938 195.489 173.54 195.645C173.142 195.798 172.695 195.874 172.199 195.874ZM178.074 185.947V195.722H176.948V185.947H178.074ZM183.211 195.874C182.505 195.874 181.896 195.718 181.383 195.407C180.874 195.092 180.481 194.652 180.204 194.089C179.931 193.523 179.794 192.864 179.794 192.113C179.794 191.362 179.931 190.7 180.204 190.128C180.481 189.552 180.866 189.103 181.359 188.782C181.856 188.457 182.435 188.295 183.097 188.295C183.479 188.295 183.856 188.359 184.228 188.486C184.6 188.613 184.939 188.82 185.244 189.106C185.55 189.39 185.793 189.765 185.975 190.233C186.156 190.7 186.247 191.276 186.247 191.961V192.438H180.596V191.464H185.101C185.101 191.05 185.019 190.681 184.853 190.357C184.691 190.032 184.459 189.776 184.156 189.588C183.857 189.401 183.504 189.307 183.097 189.307C182.648 189.307 182.26 189.418 181.932 189.641C181.608 189.86 181.358 190.147 181.183 190.5C181.008 190.853 180.92 191.232 180.92 191.636V192.285C180.92 192.839 181.016 193.308 181.207 193.693C181.401 194.075 181.67 194.366 182.013 194.567C182.357 194.764 182.756 194.862 183.211 194.862C183.507 194.862 183.774 194.821 184.013 194.738C184.255 194.652 184.463 194.525 184.638 194.357C184.813 194.185 184.949 193.972 185.044 193.717L186.132 194.022C186.018 194.392 185.825 194.716 185.555 194.996C185.284 195.273 184.95 195.489 184.552 195.645C184.155 195.798 183.708 195.874 183.211 195.874ZM190.939 195.874C190.251 195.874 189.659 195.712 189.163 195.387C188.667 195.063 188.285 194.616 188.018 194.046C187.75 193.477 187.617 192.826 187.617 192.094C187.617 191.35 187.753 190.693 188.027 190.123C188.304 189.55 188.689 189.103 189.182 188.782C189.678 188.457 190.258 188.295 190.919 188.295C191.435 188.295 191.899 188.39 192.313 188.581C192.727 188.772 193.066 189.04 193.33 189.383C193.594 189.727 193.758 190.128 193.821 190.586H192.695C192.609 190.252 192.418 189.956 192.122 189.698C191.829 189.437 191.435 189.307 190.939 189.307C190.499 189.307 190.114 189.421 189.783 189.65C189.456 189.876 189.2 190.196 189.015 190.61C188.834 191.02 188.743 191.502 188.743 192.056C188.743 192.622 188.832 193.116 189.01 193.536C189.192 193.956 189.446 194.282 189.774 194.514C190.105 194.746 190.493 194.862 190.939 194.862C191.231 194.862 191.497 194.812 191.736 194.71C191.974 194.608 192.176 194.462 192.342 194.271C192.507 194.08 192.625 193.851 192.695 193.583H193.821C193.758 194.016 193.6 194.406 193.349 194.753C193.101 195.096 192.771 195.37 192.361 195.574C191.954 195.774 191.479 195.874 190.939 195.874ZM198.656 188.39V189.345H194.857V188.39H198.656ZM195.964 186.634H197.091V193.621C197.091 193.94 197.137 194.178 197.229 194.337C197.325 194.493 197.446 194.598 197.592 194.652C197.741 194.703 197.899 194.729 198.064 194.729C198.189 194.729 198.29 194.722 198.37 194.71C198.449 194.694 198.513 194.681 198.561 194.672L198.79 195.683C198.714 195.712 198.607 195.741 198.47 195.769C198.333 195.801 198.16 195.817 197.95 195.817C197.632 195.817 197.32 195.749 197.014 195.612C196.712 195.475 196.461 195.267 196.26 194.987C196.063 194.707 195.964 194.353 195.964 193.927V186.634ZM212.149 189.001H210.966C210.896 188.661 210.773 188.362 210.598 188.104C210.426 187.846 210.216 187.63 209.968 187.455C209.723 187.277 209.451 187.143 209.152 187.054C208.853 186.965 208.541 186.92 208.216 186.92C207.625 186.92 207.088 187.07 206.608 187.369C206.131 187.668 205.75 188.109 205.467 188.691C205.187 189.273 205.047 189.988 205.047 190.834C205.047 191.681 205.187 192.395 205.467 192.977C205.75 193.559 206.131 194 206.608 194.299C207.088 194.598 207.625 194.748 208.216 194.748C208.541 194.748 208.853 194.703 209.152 194.614C209.451 194.525 209.723 194.393 209.968 194.218C210.216 194.04 210.426 193.822 210.598 193.564C210.773 193.303 210.896 193.004 210.966 192.667H212.149C212.06 193.166 211.898 193.614 211.662 194.008C211.427 194.403 211.134 194.738 210.784 195.015C210.434 195.289 210.041 195.497 209.605 195.64C209.173 195.784 208.71 195.855 208.216 195.855C207.383 195.855 206.641 195.652 205.992 195.244C205.343 194.837 204.832 194.258 204.46 193.507C204.088 192.756 203.902 191.865 203.902 190.834C203.902 189.803 204.088 188.912 204.46 188.161C204.832 187.41 205.343 186.831 205.992 186.424C206.641 186.017 207.383 185.813 208.216 185.813C208.71 185.813 209.173 185.885 209.605 186.028C210.041 186.171 210.434 186.381 210.784 186.658C211.134 186.932 211.427 187.266 211.662 187.66C211.898 188.052 212.06 188.499 212.149 189.001ZM216.887 195.874C216.226 195.874 215.645 195.717 215.145 195.402C214.649 195.087 214.261 194.646 213.981 194.08C213.704 193.513 213.566 192.851 213.566 192.094C213.566 191.331 213.704 190.664 213.981 190.094C214.261 189.525 214.649 189.082 215.145 188.767C215.645 188.452 216.226 188.295 216.887 188.295C217.549 188.295 218.128 188.452 218.625 188.767C219.124 189.082 219.513 189.525 219.789 190.094C220.069 190.664 220.209 191.331 220.209 192.094C220.209 192.851 220.069 193.513 219.789 194.08C219.513 194.646 219.124 195.087 218.625 195.402C218.128 195.717 217.549 195.874 216.887 195.874ZM216.887 194.862C217.39 194.862 217.804 194.734 218.128 194.476C218.453 194.218 218.693 193.879 218.849 193.459C219.005 193.039 219.083 192.584 219.083 192.094C219.083 191.604 219.005 191.148 218.849 190.724C218.693 190.301 218.453 189.959 218.128 189.698C217.804 189.437 217.39 189.307 216.887 189.307C216.385 189.307 215.971 189.437 215.647 189.698C215.322 189.959 215.082 190.301 214.926 190.724C214.77 191.148 214.692 191.604 214.692 192.094C214.692 192.584 214.77 193.039 214.926 193.459C215.082 193.879 215.322 194.218 215.647 194.476C215.971 194.734 216.385 194.862 216.887 194.862ZM223.055 185.947V195.722H221.929V185.947H223.055ZM226.245 185.947V195.722H225.118V185.947H226.245ZM231.382 195.874C230.675 195.874 230.066 195.718 229.554 195.407C229.044 195.092 228.651 194.652 228.375 194.089C228.101 193.523 227.964 192.864 227.964 192.113C227.964 191.362 228.101 190.7 228.375 190.128C228.651 189.552 229.036 189.103 229.53 188.782C230.026 188.457 230.605 188.295 231.267 188.295C231.649 188.295 232.026 188.359 232.398 188.486C232.77 188.613 233.109 188.82 233.415 189.106C233.72 189.39 233.964 189.765 234.145 190.233C234.326 190.7 234.417 191.276 234.417 191.961V192.438H228.766V191.464H233.272C233.272 191.05 233.189 190.681 233.023 190.357C232.861 190.032 232.629 189.776 232.327 189.588C232.027 189.401 231.674 189.307 231.267 189.307C230.818 189.307 230.43 189.418 230.102 189.641C229.778 189.86 229.528 190.147 229.353 190.5C229.178 190.853 229.091 191.232 229.091 191.636V192.285C229.091 192.839 229.186 193.308 229.377 193.693C229.571 194.075 229.84 194.366 230.184 194.567C230.527 194.764 230.927 194.862 231.382 194.862C231.677 194.862 231.945 194.821 232.183 194.738C232.425 194.652 232.634 194.525 232.809 194.357C232.984 194.185 233.119 193.972 233.214 193.717L234.303 194.022C234.188 194.392 233.995 194.716 233.725 194.996C233.455 195.273 233.12 195.489 232.723 195.645C232.325 195.798 231.878 195.874 231.382 195.874ZM239.109 195.874C238.422 195.874 237.83 195.712 237.333 195.387C236.837 195.063 236.455 194.616 236.188 194.046C235.921 193.477 235.787 192.826 235.787 192.094C235.787 191.35 235.924 190.693 236.197 190.123C236.474 189.55 236.859 189.103 237.352 188.782C237.849 188.457 238.428 188.295 239.09 188.295C239.605 188.295 240.07 188.39 240.483 188.581C240.897 188.772 241.236 189.04 241.5 189.383C241.764 189.727 241.928 190.128 241.992 190.586H240.865C240.779 190.252 240.588 189.956 240.293 189.698C240 189.437 239.605 189.307 239.109 189.307C238.67 189.307 238.285 189.421 237.954 189.65C237.626 189.876 237.37 190.196 237.185 190.61C237.004 191.02 236.913 191.502 236.913 192.056C236.913 192.622 237.002 193.116 237.181 193.536C237.362 193.956 237.617 194.282 237.944 194.514C238.275 194.746 238.663 194.862 239.109 194.862C239.402 194.862 239.667 194.812 239.906 194.71C240.145 194.608 240.347 194.462 240.512 194.271C240.678 194.08 240.795 193.851 240.865 193.583H241.992C241.928 194.016 241.771 194.406 241.519 194.753C241.271 195.096 240.942 195.37 240.531 195.574C240.124 195.774 239.65 195.874 239.109 195.874ZM246.827 188.39V189.345H243.027V188.39H246.827ZM244.135 186.634H245.261V193.621C245.261 193.94 245.307 194.178 245.399 194.337C245.495 194.493 245.616 194.598 245.762 194.652C245.912 194.703 246.069 194.729 246.235 194.729C246.359 194.729 246.461 194.722 246.54 194.71C246.62 194.694 246.683 194.681 246.731 194.672L246.96 195.683C246.884 195.712 246.777 195.741 246.64 195.769C246.504 195.801 246.33 195.817 246.12 195.817C245.802 195.817 245.49 195.749 245.185 195.612C244.882 195.475 244.631 195.267 244.431 194.987C244.233 194.707 244.135 194.353 244.135 193.927V186.634ZM248.521 195.722V188.39H249.647V195.722H248.521ZM249.094 187.169C248.874 187.169 248.685 187.094 248.526 186.944C248.37 186.795 248.292 186.615 248.292 186.405C248.292 186.195 248.37 186.015 248.526 185.866C248.685 185.716 248.874 185.641 249.094 185.641C249.313 185.641 249.501 185.716 249.657 185.866C249.816 186.015 249.896 186.195 249.896 186.405C249.896 186.615 249.816 186.795 249.657 186.944C249.501 187.094 249.313 187.169 249.094 187.169ZM254.689 195.874C254.027 195.874 253.446 195.717 252.947 195.402C252.45 195.087 252.062 194.646 251.782 194.08C251.505 193.513 251.367 192.851 251.367 192.094C251.367 191.331 251.505 190.664 251.782 190.094C252.062 189.525 252.45 189.082 252.947 188.767C253.446 188.452 254.027 188.295 254.689 188.295C255.351 188.295 255.93 188.452 256.426 188.767C256.926 189.082 257.314 189.525 257.591 190.094C257.871 190.664 258.011 191.331 258.011 192.094C258.011 192.851 257.871 193.513 257.591 194.08C257.314 194.646 256.926 195.087 256.426 195.402C255.93 195.717 255.351 195.874 254.689 195.874ZM254.689 194.862C255.191 194.862 255.605 194.734 255.93 194.476C256.254 194.218 256.494 193.879 256.65 193.459C256.806 193.039 256.884 192.584 256.884 192.094C256.884 191.604 256.806 191.148 256.65 190.724C256.494 190.301 256.254 189.959 255.93 189.698C255.605 189.437 255.191 189.307 254.689 189.307C254.186 189.307 253.772 189.437 253.448 189.698C253.123 189.959 252.883 190.301 252.727 190.724C252.571 191.148 252.493 191.604 252.493 192.094C252.493 192.584 252.571 193.039 252.727 193.459C252.883 193.879 253.123 194.218 253.448 194.476C253.772 194.734 254.186 194.862 254.689 194.862ZM260.856 191.311V195.722H259.73V188.39H260.818V189.536H260.914C261.086 189.164 261.346 188.865 261.696 188.639C262.046 188.41 262.498 188.295 263.052 188.295C263.548 188.295 263.983 188.397 264.355 188.6C264.727 188.801 265.017 189.106 265.224 189.517C265.43 189.924 265.534 190.44 265.534 191.063V195.722H264.407V191.14C264.407 190.564 264.258 190.115 263.959 189.794C263.66 189.469 263.249 189.307 262.727 189.307C262.368 189.307 262.046 189.385 261.763 189.541C261.483 189.697 261.262 189.924 261.1 190.223C260.938 190.522 260.856 190.885 260.856 191.311Z" fill="#D6DAE1"/>
<path d="M392.736 194.481C392.57 194.481 392.421 194.418 392.29 194.291L387.21 189.093C387.153 189.036 387.109 188.973 387.079 188.903C387.048 188.829 387.033 188.75 387.033 188.667C387.033 188.553 387.059 188.45 387.112 188.358C387.164 188.266 387.234 188.194 387.322 188.142C387.414 188.089 387.516 188.063 387.63 188.063C387.796 188.063 387.939 188.12 388.057 188.234L393.084 193.372H392.381L397.409 188.234C397.531 188.12 397.673 188.063 397.835 188.063C397.949 188.063 398.049 188.089 398.137 188.142C398.229 188.194 398.301 188.266 398.354 188.358C398.406 188.45 398.432 188.553 398.432 188.667C398.432 188.829 398.373 188.969 398.255 189.087L393.176 194.291C393.119 194.352 393.051 194.4 392.972 194.435C392.898 194.466 392.819 194.481 392.736 194.481Z" fill="#464F5E"/>
<rect x="149.861" y="217.462" width="260.16" height="37.16" rx="6.3002" stroke="#D6DAE1" stroke-width="0.840027"/>
<path d="M166.053 233.111C165.995 232.627 165.763 232.252 165.356 231.984C164.949 231.717 164.449 231.583 163.857 231.583C163.424 231.583 163.046 231.653 162.721 231.793C162.4 231.933 162.149 232.126 161.967 232.371C161.789 232.616 161.7 232.894 161.7 233.206C161.7 233.467 161.762 233.691 161.886 233.879C162.013 234.064 162.176 234.218 162.373 234.342C162.57 234.463 162.777 234.563 162.993 234.643C163.21 234.719 163.409 234.781 163.59 234.829L164.583 235.096C164.837 235.163 165.12 235.255 165.432 235.373C165.747 235.491 166.048 235.651 166.334 235.855C166.624 236.055 166.863 236.313 167.05 236.628C167.238 236.943 167.332 237.33 167.332 237.788C167.332 238.316 167.193 238.794 166.917 239.22C166.643 239.646 166.242 239.985 165.714 240.237C165.189 240.488 164.551 240.614 163.8 240.614C163.1 240.614 162.494 240.501 161.981 240.275C161.472 240.049 161.071 239.734 160.779 239.33C160.489 238.926 160.325 238.456 160.287 237.922H161.509C161.541 238.291 161.665 238.596 161.881 238.838C162.101 239.077 162.378 239.255 162.712 239.373C163.049 239.487 163.412 239.544 163.8 239.544C164.252 239.544 164.657 239.471 165.017 239.325C165.377 239.175 165.661 238.969 165.871 238.704C166.081 238.437 166.186 238.125 166.186 237.769C166.186 237.444 166.096 237.18 165.914 236.977C165.733 236.773 165.494 236.608 165.198 236.48C164.902 236.353 164.583 236.242 164.239 236.146L163.036 235.803C162.273 235.583 161.668 235.27 161.223 234.862C160.777 234.455 160.554 233.922 160.554 233.263C160.554 232.716 160.702 232.239 160.998 231.831C161.297 231.421 161.698 231.103 162.201 230.877C162.707 230.648 163.272 230.533 163.895 230.533C164.525 230.533 165.085 230.646 165.575 230.872C166.065 231.095 166.454 231.4 166.74 231.789C167.03 232.177 167.182 232.617 167.198 233.111H166.053ZM172.199 240.595C171.493 240.595 170.883 240.439 170.371 240.127C169.862 239.812 169.469 239.373 169.192 238.809C168.918 238.243 168.782 237.584 168.782 236.833C168.782 236.083 168.918 235.421 169.192 234.848C169.469 234.272 169.854 233.823 170.347 233.502C170.844 233.177 171.423 233.015 172.084 233.015C172.466 233.015 172.843 233.079 173.216 233.206C173.588 233.333 173.927 233.54 174.232 233.827C174.538 234.11 174.781 234.485 174.963 234.953C175.144 235.421 175.235 235.997 175.235 236.681V237.158H169.583V236.184H174.089C174.089 235.771 174.006 235.402 173.841 235.077C173.679 234.752 173.446 234.496 173.144 234.309C172.845 234.121 172.492 234.027 172.084 234.027C171.636 234.027 171.248 234.138 170.92 234.361C170.595 234.581 170.346 234.867 170.171 235.22C169.996 235.573 169.908 235.952 169.908 236.356V237.005C169.908 237.559 170.003 238.028 170.194 238.413C170.389 238.795 170.657 239.086 171.001 239.287C171.345 239.484 171.744 239.583 172.199 239.583C172.495 239.583 172.762 239.541 173.001 239.459C173.243 239.373 173.451 239.245 173.626 239.077C173.801 238.905 173.936 238.692 174.032 238.437L175.12 238.743C175.005 239.112 174.813 239.436 174.542 239.716C174.272 239.993 173.938 240.209 173.54 240.365C173.142 240.518 172.695 240.595 172.199 240.595ZM178.074 230.667V240.442H176.948V230.667H178.074ZM183.211 240.595C182.505 240.595 181.896 240.439 181.383 240.127C180.874 239.812 180.481 239.373 180.204 238.809C179.931 238.243 179.794 237.584 179.794 236.833C179.794 236.083 179.931 235.421 180.204 234.848C180.481 234.272 180.866 233.823 181.359 233.502C181.856 233.177 182.435 233.015 183.097 233.015C183.479 233.015 183.856 233.079 184.228 233.206C184.6 233.333 184.939 233.54 185.244 233.827C185.55 234.11 185.793 234.485 185.975 234.953C186.156 235.421 186.247 235.997 186.247 236.681V237.158H180.596V236.184H185.101C185.101 235.771 185.019 235.402 184.853 235.077C184.691 234.752 184.459 234.496 184.156 234.309C183.857 234.121 183.504 234.027 183.097 234.027C182.648 234.027 182.26 234.138 181.932 234.361C181.608 234.581 181.358 234.867 181.183 235.22C181.008 235.573 180.92 235.952 180.92 236.356V237.005C180.92 237.559 181.016 238.028 181.207 238.413C181.401 238.795 181.67 239.086 182.013 239.287C182.357 239.484 182.756 239.583 183.211 239.583C183.507 239.583 183.774 239.541 184.013 239.459C184.255 239.373 184.463 239.245 184.638 239.077C184.813 238.905 184.949 238.692 185.044 238.437L186.132 238.743C186.018 239.112 185.825 239.436 185.555 239.716C185.284 239.993 184.95 240.209 184.552 240.365C184.155 240.518 183.708 240.595 183.211 240.595ZM190.939 240.595C190.251 240.595 189.659 240.432 189.163 240.108C188.667 239.783 188.285 239.336 188.018 238.766C187.75 238.197 187.617 237.546 187.617 236.814C187.617 236.07 187.753 235.413 188.027 234.843C188.304 234.27 188.689 233.823 189.182 233.502C189.678 233.177 190.258 233.015 190.919 233.015C191.435 233.015 191.899 233.111 192.313 233.302C192.727 233.492 193.066 233.76 193.33 234.103C193.594 234.447 193.758 234.848 193.821 235.306H192.695C192.609 234.972 192.418 234.676 192.122 234.418C191.829 234.157 191.435 234.027 190.939 234.027C190.499 234.027 190.114 234.142 189.783 234.371C189.456 234.597 189.2 234.916 189.015 235.33C188.834 235.74 188.743 236.223 188.743 236.776C188.743 237.343 188.832 237.836 189.01 238.256C189.192 238.676 189.446 239.002 189.774 239.234C190.105 239.467 190.493 239.583 190.939 239.583C191.231 239.583 191.497 239.532 191.736 239.43C191.974 239.328 192.176 239.182 192.342 238.991C192.507 238.8 192.625 238.571 192.695 238.304H193.821C193.758 238.736 193.6 239.126 193.349 239.473C193.101 239.817 192.771 240.09 192.361 240.294C191.954 240.494 191.479 240.595 190.939 240.595ZM198.656 233.111V234.065H194.857V233.111H198.656ZM195.964 231.354H197.091V238.342C197.091 238.66 197.137 238.899 197.229 239.058C197.325 239.214 197.446 239.319 197.592 239.373C197.741 239.424 197.899 239.449 198.064 239.449C198.189 239.449 198.29 239.443 198.37 239.43C198.449 239.414 198.513 239.401 198.561 239.392L198.79 240.404C198.714 240.432 198.607 240.461 198.47 240.49C198.333 240.521 198.16 240.537 197.95 240.537C197.632 240.537 197.32 240.469 197.014 240.332C196.712 240.195 196.461 239.987 196.26 239.707C196.063 239.427 195.964 239.074 195.964 238.647V231.354ZM204.284 240.442V230.667H207.586C208.353 230.667 208.98 230.805 209.467 231.082C209.957 231.356 210.32 231.726 210.555 232.194C210.791 232.662 210.908 233.184 210.908 233.76C210.908 234.336 210.791 234.859 210.555 235.33C210.323 235.801 209.963 236.176 209.476 236.456C208.99 236.733 208.366 236.872 207.605 236.872H205.238V235.822H207.567C208.092 235.822 208.514 235.731 208.832 235.55C209.15 235.368 209.381 235.123 209.524 234.815C209.67 234.503 209.744 234.151 209.744 233.76C209.744 233.368 209.67 233.018 209.524 232.71C209.381 232.401 209.149 232.159 208.827 231.984C208.506 231.806 208.08 231.717 207.548 231.717H205.467V240.442H204.284ZM212.662 240.442V233.111H213.751V234.218H213.827C213.961 233.855 214.202 233.561 214.552 233.335C214.902 233.109 215.297 232.996 215.736 232.996C215.819 232.996 215.922 232.998 216.046 233.001C216.17 233.004 216.264 233.009 216.328 233.015V234.161C216.29 234.151 216.202 234.137 216.065 234.118C215.932 234.095 215.79 234.084 215.641 234.084C215.284 234.084 214.966 234.159 214.686 234.309C214.409 234.455 214.19 234.659 214.027 234.92C213.868 235.177 213.789 235.472 213.789 235.803V240.442H212.662ZM220.418 240.595C219.756 240.595 219.176 240.437 218.676 240.122C218.18 239.807 217.792 239.366 217.512 238.8C217.235 238.234 217.096 237.572 217.096 236.814C217.096 236.051 217.235 235.384 217.512 234.815C217.792 234.245 218.18 233.803 218.676 233.488C219.176 233.173 219.756 233.015 220.418 233.015C221.08 233.015 221.659 233.173 222.156 233.488C222.655 233.803 223.043 234.245 223.32 234.815C223.6 235.384 223.74 236.051 223.74 236.814C223.74 237.572 223.6 238.234 223.32 238.8C223.043 239.366 222.655 239.807 222.156 240.122C221.659 240.437 221.08 240.595 220.418 240.595ZM220.418 239.583C220.921 239.583 221.335 239.454 221.659 239.196C221.984 238.938 222.224 238.599 222.38 238.179C222.536 237.759 222.614 237.304 222.614 236.814C222.614 236.324 222.536 235.868 222.38 235.445C222.224 235.021 221.984 234.679 221.659 234.418C221.335 234.157 220.921 234.027 220.418 234.027C219.915 234.027 219.502 234.157 219.177 234.418C218.853 234.679 218.612 235.021 218.457 235.445C218.301 235.868 218.223 236.324 218.223 236.814C218.223 237.304 218.301 237.759 218.457 238.179C218.612 238.599 218.853 238.938 219.177 239.196C219.502 239.454 219.915 239.583 220.418 239.583ZM228.228 240.595C227.617 240.595 227.078 240.44 226.61 240.132C226.142 239.82 225.776 239.381 225.512 238.814C225.248 238.245 225.116 237.572 225.116 236.795C225.116 236.025 225.248 235.357 225.512 234.791C225.776 234.224 226.144 233.787 226.615 233.478C227.086 233.169 227.63 233.015 228.247 233.015C228.724 233.015 229.101 233.095 229.378 233.254C229.658 233.41 229.871 233.588 230.018 233.788C230.167 233.986 230.283 234.148 230.366 234.275H230.462V230.667H231.588V240.442H230.5V239.315H230.366C230.283 239.449 230.166 239.618 230.013 239.821C229.86 240.022 229.642 240.202 229.359 240.361C229.076 240.517 228.699 240.595 228.228 240.595ZM228.381 239.583C228.832 239.583 229.214 239.465 229.526 239.229C229.838 238.991 230.075 238.661 230.237 238.241C230.4 237.818 230.481 237.33 230.481 236.776C230.481 236.229 230.401 235.75 230.242 235.34C230.083 234.926 229.847 234.605 229.536 234.375C229.224 234.143 228.839 234.027 228.381 234.027C227.903 234.027 227.506 234.15 227.187 234.395C226.872 234.636 226.635 234.966 226.476 235.383C226.32 235.796 226.242 236.261 226.242 236.776C226.242 237.298 226.322 237.772 226.481 238.199C226.643 238.622 226.882 238.959 227.197 239.21C227.515 239.459 227.91 239.583 228.381 239.583ZM238.428 237.444V233.111H239.554V240.442H238.428V239.201H238.351C238.179 239.573 237.912 239.89 237.549 240.151C237.187 240.408 236.728 240.537 236.175 240.537C235.717 240.537 235.309 240.437 234.953 240.237C234.596 240.033 234.316 239.727 234.113 239.32C233.909 238.91 233.807 238.393 233.807 237.769V233.111H234.934V237.693C234.934 238.227 235.083 238.654 235.382 238.972C235.685 239.29 236.07 239.449 236.537 239.449C236.817 239.449 237.102 239.377 237.392 239.234C237.685 239.091 237.93 238.871 238.127 238.576C238.327 238.28 238.428 237.903 238.428 237.444ZM244.595 240.595C243.908 240.595 243.316 240.432 242.82 240.108C242.323 239.783 241.942 239.336 241.674 238.766C241.407 238.197 241.273 237.546 241.273 236.814C241.273 236.07 241.41 235.413 241.684 234.843C241.961 234.27 242.346 233.823 242.839 233.502C243.335 233.177 243.914 233.015 244.576 233.015C245.092 233.015 245.556 233.111 245.97 233.302C246.383 233.492 246.722 233.76 246.986 234.103C247.251 234.447 247.414 234.848 247.478 235.306H246.352C246.266 234.972 246.075 234.676 245.779 234.418C245.486 234.157 245.092 234.027 244.595 234.027C244.156 234.027 243.771 234.142 243.44 234.371C243.112 234.597 242.856 234.916 242.672 235.33C242.49 235.74 242.4 236.223 242.4 236.776C242.4 237.343 242.489 237.836 242.667 238.256C242.848 238.676 243.103 239.002 243.431 239.234C243.762 239.467 244.15 239.583 244.595 239.583C244.888 239.583 245.154 239.532 245.392 239.43C245.631 239.328 245.833 239.182 245.998 238.991C246.164 238.8 246.282 238.571 246.352 238.304H247.478C247.414 238.736 247.257 239.126 247.006 239.473C246.757 239.817 246.428 240.09 246.018 240.294C245.61 240.494 245.136 240.595 244.595 240.595ZM252.313 233.111V234.065H248.514V233.111H252.313ZM249.621 231.354H250.748V238.342C250.748 238.66 250.794 238.899 250.886 239.058C250.981 239.214 251.102 239.319 251.249 239.373C251.398 239.424 251.556 239.449 251.721 239.449C251.845 239.449 251.947 239.443 252.027 239.43C252.106 239.414 252.17 239.401 252.218 239.392L252.447 240.404C252.37 240.432 252.264 240.461 252.127 240.49C251.99 240.521 251.817 240.537 251.607 240.537C251.288 240.537 250.977 240.469 250.671 240.332C250.369 240.195 250.117 239.987 249.917 239.707C249.72 239.427 249.621 239.074 249.621 238.647V231.354ZM259.069 234.752L258.057 235.039C257.994 234.87 257.9 234.706 257.776 234.547C257.655 234.385 257.489 234.251 257.279 234.146C257.069 234.041 256.8 233.989 256.473 233.989C256.024 233.989 255.65 234.092 255.351 234.299C255.055 234.503 254.907 234.762 254.907 235.077C254.907 235.357 255.009 235.578 255.213 235.74C255.416 235.903 255.734 236.038 256.167 236.146L257.255 236.413C257.911 236.573 258.399 236.816 258.721 237.144C259.042 237.468 259.203 237.887 259.203 238.399C259.203 238.819 259.082 239.194 258.84 239.525C258.601 239.856 258.267 240.117 257.838 240.308C257.408 240.499 256.908 240.595 256.339 240.595C255.591 240.595 254.972 240.432 254.482 240.108C253.992 239.783 253.682 239.309 253.552 238.685L254.621 238.418C254.723 238.813 254.915 239.109 255.198 239.306C255.485 239.503 255.858 239.602 256.32 239.602C256.845 239.602 257.262 239.49 257.57 239.268C257.882 239.042 258.038 238.771 258.038 238.456C258.038 238.202 257.949 237.989 257.771 237.817C257.593 237.642 257.319 237.511 256.95 237.425L255.728 237.139C255.057 236.98 254.563 236.733 254.248 236.399C253.937 236.062 253.781 235.64 253.781 235.134C253.781 234.721 253.897 234.355 254.129 234.037C254.365 233.718 254.684 233.469 255.088 233.287C255.496 233.106 255.957 233.015 256.473 233.015C257.198 233.015 257.768 233.174 258.181 233.492C258.598 233.811 258.894 234.231 259.069 234.752Z" fill="#D6DAE1"/>
<path d="M392.736 239.201C392.57 239.201 392.421 239.138 392.29 239.011L387.21 233.813C387.153 233.757 387.109 233.693 387.079 233.623C387.048 233.549 387.033 233.47 387.033 233.387C387.033 233.273 387.059 233.17 387.112 233.078C387.164 232.987 387.234 232.914 387.322 232.862C387.414 232.809 387.516 232.783 387.63 232.783C387.796 232.783 387.939 232.84 388.057 232.954L393.084 238.092H392.381L397.409 232.954C397.531 232.84 397.673 232.783 397.835 232.783C397.949 232.783 398.049 232.809 398.137 232.862C398.229 232.914 398.301 232.987 398.354 233.078C398.406 233.17 398.432 233.273 398.432 233.387C398.432 233.549 398.373 233.689 398.255 233.807L393.176 239.011C393.119 239.072 393.051 239.12 392.972 239.155C392.898 239.186 392.819 239.201 392.736 239.201Z" fill="#464F5E"/>
</g>
<defs>
<filter id="filter0_dddd_1511_26960" x="132" y="41" width="345" height="271.423" filterUnits="userSpaceOnUse" color-interpolation-filters="sRGB">
<feFlood flood-opacity="0" result="BackgroundImageFix"/>
<feColorMatrix in="SourceAlpha" type="matrix" values="0 0 0 0 0 0 0 0 0 0 0 0 0 0 0 0 0 0 127 0" result="hardAlpha"/>
<feOffset dx="2" dy="1"/>
<feGaussianBlur stdDeviation="3"/>
<feColorMatrix type="matrix" values="0 0 0 0 0.85098 0 0 0 0 0.85098 0 0 0 0 0.85098 0 0 0 0.1 0"/>
<feBlend mode="normal" in2="BackgroundImageFix" result="effect1_dropShadow_1511_26960"/>
<feColorMatrix in="SourceAlpha" type="matrix" values="0 0 0 0 0 0 0 0 0 0 0 0 0 0 0 0 0 0 127 0" result="hardAlpha"/>
<feOffset dx="9" dy="5"/>
<feGaussianBlur stdDeviation="5"/>
<feColorMatrix type="matrix" values="0 0 0 0 0.85098 0 0 0 0 0.85098 0 0 0 0 0.85098 0 0 0 0.09 0"/>
<feBlend mode="normal" in2="effect1_dropShadow_1511_26960" result="effect2_dropShadow_1511_26960"/>
<feColorMatrix in="SourceAlpha" type="matrix" values="0 0 0 0 0 0 0 0 0 0 0 0 0 0 0 0 0 0 127 0" result="hardAlpha"/>
<feOffset dx="20" dy="12"/>
<feGaussianBlur stdDeviation="7"/>
<feColorMatrix type="matrix" values="0 0 0 0 0.85098 0 0 0 0 0.85098 0 0 0 0 0.85098 0 0 0 0.05 0"/>
<feBlend mode="normal" in2="effect2_dropShadow_1511_26960" result="effect3_dropShadow_1511_26960"/>
<feColorMatrix in="SourceAlpha" type="matrix" values="0 0 0 0 0 0 0 0 0 0 0 0 0 0 0 0 0 0 127 0" result="hardAlpha"/>
<feOffset dx="36" dy="21"/>
<feGaussianBlur stdDeviation="8.5"/>
<feColorMatrix type="matrix" values="0 0 0 0 0.85098 0 0 0 0 0.85098 0 0 0 0 0.85098 0 0 0 0.01 0"/>
<feBlend mode="normal" in2="effect3_dropShadow_1511_26960" result="effect4_dropShadow_1511_26960"/>
<feBlend mode="normal" in="SourceGraphic" in2="effect4_dropShadow_1511_26960" result="shape"/>
</filter>
<filter id="filter1_ddd_1511_26960" x="156.215" y="103.429" width="20.8083" height="20.8065" filterUnits="userSpaceOnUse" color-interpolation-filters="sRGB">
<feFlood flood-opacity="0" result="BackgroundImageFix"/>
<feColorMatrix in="SourceAlpha" type="matrix" values="0 0 0 0 0 0 0 0 0 0 0 0 0 0 0 0 0 0 127 0" result="hardAlpha"/>
<feOffset dy="1.45161"/>
<feGaussianBlur stdDeviation="0.241935"/>
<feComposite in2="hardAlpha" operator="out"/>
<feColorMatrix type="matrix" values="0 0 0 0 0 0 0 0 0 0 0 0 0 0 0 0 0 0 0.06 0"/>
<feBlend mode="normal" in2="BackgroundImageFix" result="effect1_dropShadow_1511_26960"/>
<feColorMatrix in="SourceAlpha" type="matrix" values="0 0 0 0 0 0 0 0 0 0 0 0 0 0 0 0 0 0 127 0" result="hardAlpha"/>
<feOffset dy="1.45161"/>
<feGaussianBlur stdDeviation="1.93548"/>
<feComposite in2="hardAlpha" operator="out"/>
<feColorMatrix type="matrix" values="0 0 0 0 0 0 0 0 0 0 0 0 0 0 0 0 0 0 0.15 0"/>
<feBlend mode="normal" in2="effect1_dropShadow_1511_26960" result="effect2_dropShadow_1511_26960"/>
<feColorMatrix in="SourceAlpha" type="matrix" values="0 0 0 0 0 0 0 0 0 0 0 0 0 0 0 0 0 0 127 0" result="hardAlpha"/>
<feMorphology radius="0.483871" operator="dilate" in="SourceAlpha" result="effect3_dropShadow_1511_26960"/>
<feOffset/>
<feComposite in2="hardAlpha" operator="out"/>
<feColorMatrix type="matrix" values="0 0 0 0 0 0 0 0 0 0 0 0 0 0 0 0 0 0 0.04 0"/>
<feBlend mode="normal" in2="effect2_dropShadow_1511_26960" result="effect3_dropShadow_1511_26960"/>
<feBlend mode="normal" in="SourceGraphic" in2="effect3_dropShadow_1511_26960" result="shape"/>
</filter>
<clipPath id="clip0_1511_26960">
<rect x="149.441" y="104.881" width="24.6774" height="15" rx="7.5" fill="white"/>
</clipPath>
</defs>
</svg>
