<svg width="620" height="320" viewBox="0 0 620 320" fill="none" xmlns="http://www.w3.org/2000/svg">
<g filter="url(#filter0_d_1511_26943)">
<rect x="81" y="24" width="458.99" height="228.584" rx="12" fill="white"/>
<rect x="81.5168" y="24.5168" width="457.956" height="227.551" rx="11.4832" stroke="#D6DAE1" stroke-width="1.03354"/>
<path d="M98.0742 53.3959H99.8008C99.8633 53.9532 100.142 54.4011 100.637 54.7397C101.132 55.0782 101.751 55.2475 102.496 55.2475C103.204 55.2475 103.788 55.0834 104.246 54.7553C104.71 54.4272 104.941 54.0105 104.941 53.5053C104.941 53.0678 104.777 52.711 104.449 52.435C104.121 52.1537 103.592 51.9246 102.863 51.7475L101.402 51.3959C100.366 51.1459 99.6003 50.7735 99.1055 50.2787C98.6159 49.784 98.3711 49.1433 98.3711 48.3569C98.3711 47.3881 98.7513 46.5991 99.5117 45.9897C100.277 45.3803 101.264 45.0756 102.473 45.0756C103.66 45.0756 104.629 45.3803 105.379 45.9897C106.129 46.5939 106.517 47.3829 106.543 48.3569H104.84C104.788 47.7996 104.546 47.3595 104.113 47.0366C103.686 46.7136 103.132 46.5522 102.449 46.5522C101.772 46.5522 101.22 46.7084 100.793 47.0209C100.371 47.3334 100.16 47.7397 100.16 48.2397C100.16 48.6355 100.319 48.961 100.637 49.2162C100.954 49.4662 101.478 49.6824 102.207 49.8647L103.449 50.1694C104.605 50.4402 105.439 50.823 105.949 51.3178C106.465 51.8074 106.723 52.4662 106.723 53.2944C106.723 54.3465 106.332 55.1824 105.551 55.8022C104.77 56.4168 103.71 56.7241 102.371 56.7241C101.116 56.7241 100.098 56.4246 99.3164 55.8256C98.5404 55.2215 98.1263 54.4116 98.0742 53.3959ZM115.512 48.0522V56.5366H113.895V55.0834H113.863C113.618 55.5886 113.262 55.9741 112.793 56.2397C112.324 56.5001 111.767 56.6303 111.121 56.6303C110.194 56.6303 109.454 56.3491 108.902 55.7866C108.355 55.2241 108.082 54.4584 108.082 53.4897V48.0522H109.777V53.1694C109.777 53.8204 109.944 54.3178 110.277 54.6616C110.611 55.0001 111.085 55.1694 111.699 55.1694C112.335 55.1694 112.845 54.9662 113.23 54.56C113.621 54.1537 113.816 53.6147 113.816 52.9428V48.0522H115.512ZM121.715 56.6225C121.1 56.6225 120.556 56.4923 120.082 56.2319C119.613 55.9662 119.249 55.5886 118.988 55.0991H118.949V56.5366H117.316V44.7553H119.012V49.4584H119.043C119.303 48.9793 119.665 48.6121 120.129 48.3569C120.598 48.0965 121.132 47.9662 121.73 47.9662C122.803 47.9662 123.663 48.3595 124.309 49.1459C124.954 49.9324 125.277 50.9819 125.277 52.2944C125.277 53.6069 124.952 54.6564 124.301 55.4428C123.655 56.2293 122.793 56.6225 121.715 56.6225ZM122.926 50.1928C122.514 49.6668 121.967 49.4037 121.285 49.4037C120.603 49.4037 120.051 49.672 119.629 50.2084C119.212 50.7397 119.004 51.435 119.004 52.2944C119.004 53.159 119.212 53.8569 119.629 54.3881C120.051 54.9194 120.603 55.185 121.285 55.185C121.967 55.185 122.514 54.9246 122.926 54.4037C123.337 53.8777 123.543 53.1746 123.543 52.2944C123.543 51.4142 123.337 50.7136 122.926 50.1928ZM126.496 50.4662C126.496 49.7215 126.801 49.1173 127.41 48.6537C128.02 48.185 128.811 47.9506 129.785 47.9506C130.712 47.9506 131.478 48.1876 132.082 48.6616C132.691 49.1303 133.007 49.7345 133.027 50.4741H131.434C131.397 50.0991 131.228 49.8022 130.926 49.5834C130.624 49.3647 130.23 49.2553 129.746 49.2553C129.267 49.2553 128.879 49.3595 128.582 49.5678C128.29 49.7709 128.145 50.0392 128.145 50.3725C128.145 50.8829 128.585 51.2449 129.465 51.4584L130.871 51.7944C131.725 52.0027 132.329 52.2787 132.684 52.6225C133.038 52.9662 133.215 53.4506 133.215 54.0756C133.215 54.8308 132.889 55.448 132.238 55.9272C131.587 56.4011 130.749 56.6381 129.723 56.6381C128.738 56.6381 127.931 56.4064 127.301 55.9428C126.676 55.4741 126.332 54.8543 126.27 54.0834H127.941C128.009 54.4897 128.202 54.8022 128.52 55.0209C128.842 55.2345 129.272 55.3412 129.809 55.3412C130.335 55.3412 130.751 55.2397 131.059 55.0366C131.371 54.8334 131.527 54.56 131.527 54.2162C131.527 53.9454 131.434 53.7319 131.246 53.5756C131.064 53.4194 130.749 53.284 130.301 53.1694L128.785 52.7944C127.259 52.4194 126.496 51.6433 126.496 50.4662ZM141.84 50.9506H140.223C140.139 50.4819 139.921 50.1017 139.566 49.81C139.217 49.5183 138.762 49.3725 138.199 49.3725C137.512 49.3725 136.96 49.6381 136.543 50.1694C136.132 50.7006 135.926 51.409 135.926 52.2944C135.926 53.2006 136.134 53.9142 136.551 54.435C136.967 54.9558 137.52 55.2162 138.207 55.2162C138.759 55.2162 139.21 55.086 139.559 54.8256C139.913 54.56 140.139 54.1798 140.238 53.685H141.855C141.757 54.5756 141.376 55.2918 140.715 55.8334C140.053 56.3699 139.215 56.6381 138.199 56.6381C136.991 56.6381 136.022 56.2475 135.293 55.4662C134.569 54.685 134.207 53.6277 134.207 52.2944C134.207 50.9767 134.569 49.922 135.293 49.1303C136.017 48.3386 136.98 47.9428 138.184 47.9428C138.71 47.9428 139.197 48.0235 139.645 48.185C140.092 48.3412 140.467 48.5574 140.77 48.8334C141.077 49.1095 141.322 49.4298 141.504 49.7944C141.691 50.1537 141.803 50.5392 141.84 50.9506ZM143.105 56.5366V48.0522H144.723V49.4819H144.754C144.884 49.0079 145.132 48.6381 145.496 48.3725C145.866 48.1017 146.301 47.9662 146.801 47.9662C147.035 47.9662 147.223 47.9871 147.363 48.0287V49.6147C147.176 49.5418 146.928 49.5053 146.621 49.5053C146.064 49.5053 145.621 49.685 145.293 50.0444C144.965 50.3985 144.801 50.8751 144.801 51.4741V56.5366H143.105ZM148.543 56.5366V48.0522H150.238V56.5366H148.543ZM150.098 46.56C149.905 46.7475 149.671 46.8412 149.395 46.8412C149.118 46.8412 148.884 46.7475 148.691 46.56C148.499 46.3673 148.402 46.1355 148.402 45.8647C148.402 45.5886 148.499 45.3569 148.691 45.1694C148.884 44.9819 149.118 44.8881 149.395 44.8881C149.671 44.8881 149.905 44.9819 150.098 45.1694C150.29 45.3569 150.387 45.5886 150.387 45.8647C150.387 46.1355 150.29 46.3673 150.098 46.56ZM156.418 47.9662C157.501 47.9662 158.368 48.3595 159.02 49.1459C159.676 49.9324 160.004 50.9819 160.004 52.2944C160.004 53.6017 159.678 54.6511 159.027 55.4428C158.382 56.2293 157.525 56.6225 156.457 56.6225C155.848 56.6225 155.311 56.4949 154.848 56.2397C154.384 55.9793 154.025 55.6147 153.77 55.1459H153.738V59.31H152.043V48.0522H153.676V49.4584H153.715C153.954 49.0001 154.316 48.6381 154.801 48.3725C155.29 48.1017 155.829 47.9662 156.418 47.9662ZM155.988 55.185C156.676 55.185 157.228 54.922 157.645 54.3959C158.061 53.8699 158.27 53.1694 158.27 52.2944C158.27 51.4194 158.061 50.7189 157.645 50.1928C157.228 49.6668 156.676 49.4037 155.988 49.4037C155.316 49.4037 154.772 49.6694 154.355 50.2006C153.939 50.7319 153.728 51.4298 153.723 52.2944C153.728 53.1642 153.936 53.8647 154.348 54.3959C154.764 54.922 155.311 55.185 155.988 55.185ZM161.863 46.1459H163.551V48.0522H165.176V49.3881H163.551V54.1303C163.551 54.5001 163.634 54.7735 163.801 54.9506C163.973 55.1225 164.236 55.2084 164.59 55.2084C164.793 55.2084 164.986 55.1954 165.168 55.1694V56.5053C164.939 56.5626 164.621 56.5912 164.215 56.5912C163.366 56.5912 162.762 56.4168 162.402 56.0678C162.043 55.7136 161.863 55.1251 161.863 54.3022V49.3881H160.691V48.0522H161.863V46.1459ZM166.668 56.5366V48.0522H168.363V56.5366H166.668ZM168.223 46.56C168.03 46.7475 167.796 46.8412 167.52 46.8412C167.243 46.8412 167.009 46.7475 166.816 46.56C166.624 46.3673 166.527 46.1355 166.527 45.8647C166.527 45.5886 166.624 45.3569 166.816 45.1694C167.009 44.9819 167.243 44.8881 167.52 44.8881C167.796 44.8881 168.03 44.9819 168.223 45.1694C168.415 45.3569 168.512 45.5886 168.512 45.8647C168.512 46.1355 168.415 46.3673 168.223 46.56ZM176.723 55.4662C176.004 56.2475 175.03 56.6381 173.801 56.6381C172.572 56.6381 171.595 56.2475 170.871 55.4662C170.147 54.685 169.785 53.6277 169.785 52.2944C169.785 50.9662 170.147 49.909 170.871 49.1225C171.6 48.336 172.577 47.9428 173.801 47.9428C175.025 47.9428 175.999 48.336 176.723 49.1225C177.447 49.9037 177.809 50.961 177.809 52.2944C177.809 53.6277 177.447 54.685 176.723 55.4662ZM172.113 54.4584C172.52 54.9741 173.082 55.2319 173.801 55.2319C174.52 55.2319 175.079 54.9741 175.48 54.4584C175.887 53.9428 176.09 53.2215 176.09 52.2944C176.09 51.3673 175.887 50.6459 175.48 50.1303C175.079 49.6095 174.52 49.3491 173.801 49.3491C173.082 49.3491 172.52 49.6095 172.113 50.1303C171.707 50.6511 171.504 51.3725 171.504 52.2944C171.504 53.2162 171.707 53.9376 172.113 54.4584ZM179.168 56.5366V48.0522H180.785V49.4819H180.816C181.342 48.4662 182.262 47.9584 183.574 47.9584C184.512 47.9584 185.249 48.2397 185.785 48.8022C186.327 49.3595 186.598 50.1251 186.598 51.0991V56.5366H184.902V51.4194C184.902 50.7735 184.738 50.2787 184.41 49.935C184.082 49.586 183.608 49.4116 182.988 49.4116C182.348 49.4116 181.832 49.6173 181.441 50.0287C181.056 50.435 180.863 50.9715 180.863 51.6381V56.5366H179.168ZM192.051 56.5366V44.7553H193.73V49.4819H193.77C194.285 48.4662 195.204 47.9584 196.527 47.9584C197.46 47.9584 198.207 48.2449 198.77 48.8178C199.337 49.3907 199.621 50.1564 199.621 51.1147V56.5366H197.934V51.4428C197.934 50.8074 197.757 50.31 197.402 49.9506C197.048 49.5912 196.561 49.4116 195.941 49.4116C195.285 49.4116 194.754 49.6199 194.348 50.0366C193.947 50.4532 193.746 51.0001 193.746 51.6772V56.5366H192.051ZM201.387 56.5366V48.0522H203.082V56.5366H201.387ZM202.941 46.56C202.749 46.7475 202.514 46.8412 202.238 46.8412C201.962 46.8412 201.728 46.7475 201.535 46.56C201.342 46.3673 201.246 46.1355 201.246 45.8647C201.246 45.5886 201.342 45.3569 201.535 45.1694C201.728 44.9819 201.962 44.8881 202.238 44.8881C202.514 44.8881 202.749 44.9819 202.941 45.1694C203.134 45.3569 203.23 45.5886 203.23 45.8647C203.23 46.1355 203.134 46.3673 202.941 46.56ZM208.488 55.1069C209.176 55.1069 209.728 54.8491 210.145 54.3334C210.566 53.8126 210.777 53.1251 210.777 52.2709C210.777 51.4116 210.566 50.7189 210.145 50.1928C209.728 49.6668 209.176 49.4037 208.488 49.4037C207.806 49.4037 207.259 49.6642 206.848 50.185C206.441 50.7058 206.238 51.4011 206.238 52.2709C206.238 53.1355 206.441 53.8256 206.848 54.3412C207.259 54.8517 207.806 55.1069 208.488 55.1069ZM208.496 59.5912C207.475 59.5912 206.632 59.3725 205.965 58.935C205.298 58.4975 204.923 57.9168 204.84 57.1928H206.551C206.645 57.5209 206.874 57.7814 207.238 57.9741C207.603 58.1668 208.046 58.2631 208.566 58.2631C209.238 58.2631 209.775 58.0991 210.176 57.7709C210.577 57.4428 210.777 57.0027 210.777 56.4506V55.0522H210.738C210.493 55.5105 210.132 55.8699 209.652 56.1303C209.178 56.3855 208.642 56.5131 208.043 56.5131C206.98 56.5131 206.124 56.1277 205.473 55.3569C204.827 54.5808 204.504 53.5496 204.504 52.2631C204.504 50.9558 204.827 49.9142 205.473 49.1381C206.124 48.3569 206.993 47.9662 208.082 47.9662C208.681 47.9662 209.217 48.0991 209.691 48.3647C210.165 48.6251 210.533 48.9897 210.793 49.4584H210.824V48.0522H212.465V56.3178C212.465 57.3282 212.108 58.1251 211.395 58.7084C210.686 59.297 209.72 59.5912 208.496 59.5912ZM214.27 56.5366V44.7553H215.949V49.4819H215.988C216.504 48.4662 217.423 47.9584 218.746 47.9584C219.678 47.9584 220.426 48.2449 220.988 48.8178C221.556 49.3907 221.84 50.1564 221.84 51.1147V56.5366H220.152V51.4428C220.152 50.8074 219.975 50.31 219.621 49.9506C219.267 49.5912 218.78 49.4116 218.16 49.4116C217.504 49.4116 216.973 49.6199 216.566 50.0366C216.165 50.4532 215.965 51.0001 215.965 51.6772V56.5366H214.27ZM223.613 56.5366V44.7553H225.309V56.5366H223.613ZM227.184 56.5366V48.0522H228.879V56.5366H227.184ZM228.738 46.56C228.546 46.7475 228.311 46.8412 228.035 46.8412C227.759 46.8412 227.525 46.7475 227.332 46.56C227.139 46.3673 227.043 46.1355 227.043 45.8647C227.043 45.5886 227.139 45.3569 227.332 45.1694C227.525 44.9819 227.759 44.8881 228.035 44.8881C228.311 44.8881 228.546 44.9819 228.738 45.1694C228.931 45.3569 229.027 45.5886 229.027 45.8647C229.027 46.1355 228.931 46.3673 228.738 46.56ZM234.285 55.1069C234.973 55.1069 235.525 54.8491 235.941 54.3334C236.363 53.8126 236.574 53.1251 236.574 52.2709C236.574 51.4116 236.363 50.7189 235.941 50.1928C235.525 49.6668 234.973 49.4037 234.285 49.4037C233.603 49.4037 233.056 49.6642 232.645 50.185C232.238 50.7058 232.035 51.4011 232.035 52.2709C232.035 53.1355 232.238 53.8256 232.645 54.3412C233.056 54.8517 233.603 55.1069 234.285 55.1069ZM234.293 59.5912C233.272 59.5912 232.428 59.3725 231.762 58.935C231.095 58.4975 230.72 57.9168 230.637 57.1928H232.348C232.441 57.5209 232.671 57.7814 233.035 57.9741C233.4 58.1668 233.842 58.2631 234.363 58.2631C235.035 58.2631 235.572 58.0991 235.973 57.7709C236.374 57.4428 236.574 57.0027 236.574 56.4506V55.0522H236.535C236.29 55.5105 235.928 55.8699 235.449 56.1303C234.975 56.3855 234.439 56.5131 233.84 56.5131C232.777 56.5131 231.921 56.1277 231.27 55.3569C230.624 54.5808 230.301 53.5496 230.301 52.2631C230.301 50.9558 230.624 49.9142 231.27 49.1381C231.921 48.3569 232.79 47.9662 233.879 47.9662C234.478 47.9662 235.014 48.0991 235.488 48.3647C235.962 48.6251 236.329 48.9897 236.59 49.4584H236.621V48.0522H238.262V56.3178C238.262 57.3282 237.905 58.1251 237.191 58.7084C236.483 59.297 235.517 59.5912 234.293 59.5912ZM240.066 56.5366V44.7553H241.746V49.4819H241.785C242.301 48.4662 243.22 47.9584 244.543 47.9584C245.475 47.9584 246.223 48.2449 246.785 48.8178C247.353 49.3907 247.637 50.1564 247.637 51.1147V56.5366H245.949V51.4428C245.949 50.8074 245.772 50.31 245.418 49.9506C245.064 49.5912 244.577 49.4116 243.957 49.4116C243.301 49.4116 242.77 49.6199 242.363 50.0366C241.962 50.4532 241.762 51.0001 241.762 51.6772V56.5366H240.066ZM249.848 46.1459H251.535V48.0522H253.16V49.3881H251.535V54.1303C251.535 54.5001 251.618 54.7735 251.785 54.9506C251.957 55.1225 252.22 55.2084 252.574 55.2084C252.777 55.2084 252.97 55.1954 253.152 55.1694V56.5053C252.923 56.5626 252.605 56.5912 252.199 56.5912C251.35 56.5912 250.746 56.4168 250.387 56.0678C250.027 55.7136 249.848 55.1251 249.848 54.3022V49.3881H248.676V48.0522H249.848V46.1459ZM254.449 50.4662C254.449 49.7215 254.754 49.1173 255.363 48.6537C255.973 48.185 256.764 47.9506 257.738 47.9506C258.665 47.9506 259.431 48.1876 260.035 48.6616C260.645 49.1303 260.96 49.7345 260.98 50.4741H259.387C259.35 50.0991 259.181 49.8022 258.879 49.5834C258.577 49.3647 258.184 49.2553 257.699 49.2553C257.22 49.2553 256.832 49.3595 256.535 49.5678C256.243 49.7709 256.098 50.0392 256.098 50.3725C256.098 50.8829 256.538 51.2449 257.418 51.4584L258.824 51.7944C259.678 52.0027 260.283 52.2787 260.637 52.6225C260.991 52.9662 261.168 53.4506 261.168 54.0756C261.168 54.8308 260.842 55.448 260.191 55.9272C259.54 56.4011 258.702 56.6381 257.676 56.6381C256.691 56.6381 255.884 56.4064 255.254 55.9428C254.629 55.4741 254.285 54.8543 254.223 54.0834H255.895C255.962 54.4897 256.155 54.8022 256.473 55.0209C256.796 55.2345 257.225 55.3412 257.762 55.3412C258.288 55.3412 258.704 55.2397 259.012 55.0366C259.324 54.8334 259.48 54.56 259.48 54.2162C259.48 53.9454 259.387 53.7319 259.199 53.5756C259.017 53.4194 258.702 53.284 258.254 53.1694L256.738 52.7944C255.212 52.4194 254.449 51.6433 254.449 50.4662Z" fill="#0E0E1E"/>
<path d="M98.793 73.7145H102.519C103.453 73.7145 104.212 74.013 104.795 74.61C105.383 75.2024 105.677 75.9681 105.677 76.9069C105.677 77.8274 105.378 78.5839 104.781 79.1764C104.189 79.7643 103.43 80.0582 102.505 80.0582H100.023V83.5787H98.793V73.7145ZM100.023 74.8082V78.9645H102.197C102.899 78.9645 103.444 78.7845 103.831 78.4244C104.218 78.0644 104.412 77.5586 104.412 76.9069C104.412 76.2278 104.221 75.7083 103.838 75.3483C103.46 74.9882 102.913 74.8082 102.197 74.8082H100.023ZM107.543 83.5787V76.2096H108.664V77.3033H108.773C108.883 76.9433 109.129 76.6494 109.512 76.4215C109.895 76.1936 110.33 76.0797 110.817 76.0797C111.041 76.0797 111.237 76.0911 111.405 76.1139V77.2897C111.246 77.2441 110.995 77.2213 110.653 77.2213C110.093 77.2213 109.63 77.3899 109.266 77.7272C108.901 78.0644 108.719 78.4928 108.719 79.0123V83.5787H107.543ZM114.085 81.9313C114.463 82.4098 115.001 82.649 115.698 82.649C116.396 82.649 116.933 82.4098 117.312 81.9313C117.69 81.4482 117.879 80.7692 117.879 79.8942C117.879 79.0192 117.69 78.3424 117.312 77.8639C116.933 77.3808 116.396 77.1393 115.698 77.1393C115.001 77.1393 114.463 77.3808 114.085 77.8639C113.707 78.3424 113.518 79.0192 113.518 79.8942C113.518 80.7692 113.707 81.4482 114.085 81.9313ZM118.18 82.6901C117.574 83.3691 116.746 83.7086 115.698 83.7086C114.65 83.7086 113.821 83.3691 113.21 82.6901C112.604 82.0065 112.301 81.0745 112.301 79.8942C112.301 78.7093 112.604 77.7773 113.21 77.0983C113.816 76.4192 114.646 76.0797 115.698 76.0797C116.751 76.0797 117.58 76.4192 118.187 77.0983C118.793 77.7773 119.096 78.7093 119.096 79.8942C119.096 81.0745 118.79 82.0065 118.18 82.6901ZM120.941 83.5787V76.2096H122.062V77.3717H122.172C122.34 76.9615 122.603 76.6448 122.958 76.4215C123.313 76.1936 123.737 76.0797 124.229 76.0797C124.713 76.0797 125.127 76.1959 125.474 76.4283C125.825 76.6608 126.089 76.9752 126.267 77.3717H126.376C126.576 76.9752 126.877 76.6608 127.278 76.4283C127.679 76.1959 128.131 76.0797 128.632 76.0797C129.384 76.0797 129.963 76.2893 130.368 76.7086C130.774 77.1233 130.977 77.7158 130.977 78.486V83.5787H129.801V78.7594C129.801 77.6793 129.284 77.1393 128.249 77.1393C127.748 77.1393 127.338 77.3033 127.019 77.6315C126.7 77.9596 126.54 78.3629 126.54 78.8414V83.5787H125.364V78.5748C125.364 78.1373 125.223 77.7887 124.94 77.5289C124.662 77.2692 124.291 77.1393 123.826 77.1393C123.348 77.1393 122.942 77.3216 122.609 77.6862C122.281 78.0507 122.117 78.4928 122.117 79.0123V83.5787H120.941ZM134.538 81.9313C134.916 82.4098 135.454 82.649 136.151 82.649C136.849 82.649 137.386 82.4098 137.765 81.9313C138.143 81.4482 138.332 80.7692 138.332 79.8942C138.332 79.0192 138.143 78.3424 137.765 77.8639C137.386 77.3808 136.849 77.1393 136.151 77.1393C135.454 77.1393 134.916 77.3808 134.538 77.8639C134.16 78.3424 133.971 79.0192 133.971 79.8942C133.971 80.7692 134.16 81.4482 134.538 81.9313ZM138.633 82.6901C138.027 83.3691 137.2 83.7086 136.151 83.7086C135.103 83.7086 134.274 83.3691 133.663 82.6901C133.057 82.0065 132.754 81.0745 132.754 79.8942C132.754 78.7093 133.057 77.7773 133.663 77.0983C134.269 76.4192 135.099 76.0797 136.151 76.0797C137.204 76.0797 138.034 76.4192 138.64 77.0983C139.246 77.7773 139.549 78.7093 139.549 79.8942C139.549 81.0745 139.243 82.0065 138.633 82.6901ZM141.887 74.3707H143.062V76.2096H144.771V77.194H143.062V81.3639C143.062 81.7968 143.149 82.1113 143.322 82.3073C143.495 82.5032 143.773 82.6012 144.156 82.6012C144.316 82.6012 144.493 82.5921 144.689 82.5739V83.5651C144.43 83.6106 144.204 83.6334 144.013 83.6334C143.252 83.6334 142.707 83.4808 142.379 83.1754C142.051 82.8701 141.887 82.3665 141.887 81.6647V77.194H140.649V76.2096H141.887V74.3707ZM149.311 77.1188C148.723 77.1188 148.24 77.317 147.861 77.7135C147.483 78.11 147.271 78.6341 147.226 79.2858H151.286C151.272 78.6341 151.086 78.11 150.726 77.7135C150.366 77.317 149.894 77.1188 149.311 77.1188ZM151.252 81.6715H152.428C152.25 82.3095 151.888 82.8086 151.341 83.1686C150.799 83.5286 150.126 83.7086 149.324 83.7086C148.303 83.7086 147.494 83.3668 146.897 82.6832C146.3 81.9951 146.002 81.0677 146.002 79.901C146.002 78.7389 146.303 77.8115 146.904 77.1188C147.506 76.4261 148.312 76.0797 149.324 76.0797C150.318 76.0797 151.099 76.4101 151.669 77.0709C152.239 77.7317 152.523 78.6364 152.523 79.7848V80.236H147.226V80.2906C147.257 81.0198 147.463 81.5986 147.841 82.027C148.224 82.4554 148.727 82.6696 149.352 82.6696C150.304 82.6696 150.938 82.3369 151.252 81.6715ZM158.812 74.3707H159.988V76.2096H161.697V77.194H159.988V81.3639C159.988 81.7968 160.075 82.1113 160.248 82.3073C160.421 82.5032 160.699 82.6012 161.082 82.6012C161.242 82.6012 161.419 82.5921 161.615 82.5739V83.5651C161.355 83.6106 161.13 83.6334 160.938 83.6334C160.177 83.6334 159.633 83.4808 159.305 83.1754C158.977 82.8701 158.812 82.3665 158.812 81.6647V77.194H157.575V76.2096H158.812V74.3707ZM163.475 83.5787V73.2838H164.65V77.3717H164.76C164.947 76.9615 165.243 76.6448 165.648 76.4215C166.054 76.1936 166.537 76.0797 167.098 76.0797C167.932 76.0797 168.574 76.319 169.025 76.7975C169.481 77.2714 169.709 77.9414 169.709 78.8073V83.5787H168.533V79.0944C168.533 77.791 167.943 77.1393 166.763 77.1393C166.111 77.1393 165.596 77.3284 165.218 77.7067C164.84 78.0849 164.65 78.5885 164.65 79.2174V83.5787H163.475ZM174.795 77.1188C174.207 77.1188 173.724 77.317 173.346 77.7135C172.967 78.11 172.756 78.6341 172.71 79.2858H176.771C176.757 78.6341 176.57 78.11 176.21 77.7135C175.85 77.317 175.378 77.1188 174.795 77.1188ZM176.736 81.6715H177.912C177.734 82.3095 177.372 82.8086 176.825 83.1686C176.283 83.5286 175.611 83.7086 174.809 83.7086C173.788 83.7086 172.979 83.3668 172.382 82.6832C171.785 81.9951 171.486 81.0677 171.486 79.901C171.486 78.7389 171.787 77.8115 172.389 77.1188C172.99 76.4261 173.797 76.0797 174.809 76.0797C175.802 76.0797 176.584 76.4101 177.153 77.0709C177.723 77.7317 178.008 78.6364 178.008 79.7848V80.236H172.71V80.2906C172.742 81.0198 172.947 81.5986 173.325 82.027C173.708 82.4554 174.212 82.6696 174.836 82.6696C175.788 82.6696 176.422 82.3369 176.736 81.6715ZM187.469 83.7086C186.958 83.7086 186.493 83.5947 186.074 83.3668C185.66 83.1344 185.336 82.8131 185.104 82.403H184.994V83.5787H183.873V73.2838H185.049V77.3717H185.158C185.359 76.9752 185.666 76.6608 186.081 76.4283C186.5 76.1959 186.963 76.0797 187.469 76.0797C188.408 76.0797 189.157 76.4261 189.718 77.1188C190.278 77.8115 190.559 78.7366 190.559 79.8942C190.559 81.0472 190.276 81.9723 189.711 82.6696C189.15 83.3623 188.403 83.7086 187.469 83.7086ZM187.195 77.1393C186.525 77.1393 185.994 77.3854 185.603 77.8776C185.215 78.3698 185.021 79.042 185.021 79.8942C185.021 80.7464 185.215 81.4186 185.603 81.9108C185.994 82.403 186.525 82.649 187.195 82.649C187.87 82.649 188.396 82.4052 188.774 81.9176C189.153 81.43 189.342 80.7555 189.342 79.8942C189.342 79.0328 189.153 78.3584 188.774 77.8707C188.396 77.3831 187.87 77.1393 187.195 77.1393ZM195.344 77.1188C194.756 77.1188 194.273 77.317 193.895 77.7135C193.516 78.11 193.304 78.6341 193.259 79.2858H197.319C197.306 78.6341 197.119 78.11 196.759 77.7135C196.399 77.317 195.927 77.1188 195.344 77.1188ZM197.285 81.6715H198.461C198.283 82.3095 197.921 82.8086 197.374 83.1686C196.832 83.5286 196.16 83.7086 195.357 83.7086C194.337 83.7086 193.528 83.3668 192.931 82.6832C192.334 81.9951 192.035 81.0677 192.035 79.901C192.035 78.7389 192.336 77.8115 192.938 77.1188C193.539 76.4261 194.346 76.0797 195.357 76.0797C196.351 76.0797 197.132 76.4101 197.702 77.0709C198.272 77.7317 198.557 78.6364 198.557 79.7848V80.236H193.259V80.2906C193.291 81.0198 193.496 81.5986 193.874 82.027C194.257 82.4554 194.76 82.6696 195.385 82.6696C196.337 82.6696 196.971 82.3369 197.285 81.6715ZM200.402 83.5787V76.2096H201.523V77.3717H201.633C201.82 76.9615 202.118 76.6448 202.528 76.4215C202.938 76.1936 203.424 76.0797 203.984 76.0797C204.809 76.0797 205.445 76.3167 205.892 76.7906C206.338 77.2601 206.562 77.9323 206.562 78.8073V83.5787H205.386V79.0944C205.386 78.4336 205.242 77.9436 204.955 77.6246C204.673 77.3011 204.237 77.1393 203.649 77.1393C203.002 77.1393 202.494 77.3239 202.125 77.693C201.76 78.0621 201.578 78.5703 201.578 79.2174V83.5787H200.402ZM211.654 77.1188C211.066 77.1188 210.583 77.317 210.205 77.7135C209.827 78.11 209.615 78.6341 209.569 79.2858H213.63C213.616 78.6341 213.429 78.11 213.069 77.7135C212.709 77.317 212.238 77.1188 211.654 77.1188ZM213.596 81.6715H214.771C214.594 82.3095 214.231 82.8086 213.685 83.1686C213.142 83.5286 212.47 83.7086 211.668 83.7086C210.647 83.7086 209.838 83.3668 209.241 82.6832C208.644 81.9951 208.346 81.0677 208.346 79.901C208.346 78.7389 208.646 77.8115 209.248 77.1188C209.85 76.4261 210.656 76.0797 211.668 76.0797C212.661 76.0797 213.443 76.4101 214.013 77.0709C214.582 77.7317 214.867 78.6364 214.867 79.7848V80.236H209.569V80.2906C209.601 81.0198 209.806 81.5986 210.185 82.027C210.567 82.4554 211.071 82.6696 211.695 82.6696C212.648 82.6696 213.281 82.3369 213.596 81.6715ZM217.205 83.5787V77.194H215.968V76.2096H217.205V75.4918C217.205 74.7535 217.39 74.2135 217.759 73.8717C218.132 73.5253 218.684 73.3522 219.413 73.3522C219.623 73.3522 219.864 73.375 220.138 73.4205V74.4049C219.951 74.3639 219.732 74.3434 219.481 74.3434C218.748 74.3434 218.381 74.7376 218.381 75.526V76.2096H220.069V77.194H218.381V83.5787H217.205ZM221.812 83.5787V76.2096H222.988V83.5787H221.812ZM222.981 74.4733C222.822 74.6328 222.628 74.7125 222.4 74.7125C222.173 74.7125 221.979 74.6328 221.819 74.4733C221.66 74.3092 221.58 74.1155 221.58 73.8922C221.58 73.6689 221.66 73.4775 221.819 73.318C221.979 73.1539 222.173 73.0719 222.4 73.0719C222.628 73.0719 222.822 73.1539 222.981 73.318C223.141 73.4775 223.221 73.6689 223.221 73.8922C223.221 74.1155 223.141 74.3092 222.981 74.4733ZM225.723 74.3707H226.898V76.2096H228.607V77.194H226.898V81.3639C226.898 81.7968 226.985 82.1113 227.158 82.3073C227.331 82.5032 227.609 82.6012 227.992 82.6012C228.152 82.6012 228.329 82.5921 228.525 82.5739V83.5651C228.266 83.6106 228.04 83.6334 227.849 83.6334C227.088 83.6334 226.543 83.4808 226.215 83.1754C225.887 82.8701 225.723 82.3665 225.723 81.6647V77.194H224.485V76.2096H225.723V74.3707ZM230.009 78.2262C230.009 77.6155 230.271 77.1051 230.795 76.6949C231.319 76.2848 231.973 76.0797 232.757 76.0797C233.527 76.0797 234.163 76.2574 234.664 76.6129C235.165 76.9684 235.455 77.4492 235.532 78.0553H234.37C234.288 77.7545 234.106 77.5175 233.823 77.3444C233.545 77.1666 233.188 77.0778 232.75 77.0778C232.308 77.0778 231.937 77.1803 231.636 77.3854C231.34 77.5905 231.191 77.8548 231.191 78.1783C231.191 78.429 231.294 78.6386 231.499 78.8073C231.709 78.9713 232.032 79.1058 232.47 79.2106L233.604 79.484C234.306 79.6526 234.824 79.8964 235.156 80.2155C235.493 80.5345 235.662 80.956 235.662 81.4801C235.662 82.1318 235.382 82.6673 234.821 83.0865C234.261 83.5013 233.557 83.7086 232.709 83.7086C231.889 83.7086 231.216 83.5263 230.692 83.1617C230.168 82.7972 229.874 82.3095 229.811 81.6989H231.021C231.121 82.0179 231.319 82.2685 231.615 82.4508C231.911 82.6285 232.29 82.7174 232.75 82.7174C233.247 82.7174 233.655 82.6103 233.974 82.3961C234.293 82.1819 234.452 81.9062 234.452 81.569C234.452 81.0677 234.062 80.7213 233.283 80.5299L232.019 80.2223C231.321 80.0537 230.811 79.8121 230.487 79.4977C230.168 79.1787 230.009 78.7548 230.009 78.2262Z" fill="#71737C"/>
<g filter="url(#filter1_d_1511_26943)">
<path d="M97.5352 104.681C97.5352 100.354 101.042 96.847 105.369 96.847H465.146V132.931H105.369C101.042 132.931 97.5352 129.424 97.5352 125.098V104.681Z" fill="white" shape-rendering="crispEdges"/>
<path d="M105.369 97.35H464.644V132.429H105.369C101.32 132.429 98.0382 129.147 98.0381 125.098V104.681C98.0381 100.632 101.32 97.35 105.369 97.35Z" stroke="#DDDDE3" stroke-width="1.00527" shape-rendering="crispEdges"/>
<path d="M113.645 113.429C113.057 113.429 112.574 113.628 112.195 114.024C111.817 114.42 111.605 114.945 111.56 115.596H115.62C115.606 114.945 115.42 114.42 115.06 114.024C114.7 113.628 114.228 113.429 113.645 113.429ZM115.586 117.982H116.762C116.584 118.62 116.222 119.119 115.675 119.479C115.132 119.839 114.46 120.019 113.658 120.019C112.637 120.019 111.828 119.677 111.231 118.994C110.634 118.306 110.336 117.378 110.336 116.211C110.336 115.049 110.637 114.122 111.238 113.429C111.84 112.737 112.646 112.39 113.658 112.39C114.652 112.39 115.433 112.721 116.003 113.381C116.573 114.042 116.857 114.947 116.857 116.095V116.546H111.56V116.601C111.591 117.33 111.797 117.909 112.175 118.337C112.558 118.766 113.061 118.98 113.686 118.98C114.638 118.98 115.271 118.647 115.586 117.982ZM119.674 119.958C119.432 119.958 119.223 119.871 119.045 119.698C118.872 119.52 118.785 119.31 118.785 119.069C118.785 118.823 118.872 118.613 119.045 118.44C119.223 118.267 119.432 118.18 119.674 118.18C119.92 118.18 120.13 118.267 120.303 118.44C120.476 118.613 120.562 118.823 120.562 119.069C120.562 119.31 120.476 119.52 120.303 119.698C120.13 119.871 119.92 119.958 119.674 119.958ZM127.754 116.095C127.754 115.289 127.558 114.646 127.166 114.168C126.774 113.689 126.241 113.45 125.566 113.45C124.892 113.45 124.368 113.687 123.994 114.161C123.62 114.635 123.434 115.28 123.434 116.095C123.434 116.911 123.62 117.556 123.994 118.03C124.368 118.504 124.892 118.741 125.566 118.741C126.245 118.741 126.779 118.504 127.166 118.03C127.558 117.551 127.754 116.906 127.754 116.095ZM125.621 122.719C124.742 122.719 124.028 122.537 123.481 122.172C122.939 121.808 122.622 121.318 122.531 120.703H123.775C123.839 121.008 124.033 121.25 124.356 121.427C124.68 121.605 125.102 121.694 125.621 121.694C126.282 121.694 126.797 121.539 127.166 121.229C127.54 120.924 127.727 120.5 127.727 119.958V118.508H127.617C127.385 118.914 127.068 119.228 126.667 119.452C126.266 119.67 125.812 119.78 125.307 119.78C124.359 119.78 123.607 119.445 123.051 118.775C122.495 118.1 122.217 117.207 122.217 116.095C122.217 114.983 122.497 114.088 123.058 113.409C123.618 112.73 124.368 112.39 125.307 112.39C125.822 112.39 126.291 112.509 126.715 112.746C127.139 112.978 127.458 113.293 127.672 113.689H127.781V112.52H128.902V120.019C128.902 120.844 128.606 121.5 128.014 121.988C127.421 122.475 126.624 122.719 125.621 122.719ZM132.088 119.958C131.846 119.958 131.637 119.871 131.459 119.698C131.286 119.52 131.199 119.31 131.199 119.069C131.199 118.823 131.286 118.613 131.459 118.44C131.637 118.267 131.846 118.18 132.088 118.18C132.334 118.18 132.544 118.267 132.717 118.44C132.89 118.613 132.977 118.823 132.977 119.069C132.977 119.31 132.89 119.52 132.717 119.698C132.544 119.871 132.334 119.958 132.088 119.958ZM140.605 119.889H139.375V110.025H140.605V119.889ZM142.971 119.889V112.52H144.092V113.682H144.201C144.388 113.272 144.687 112.955 145.097 112.732C145.507 112.504 145.992 112.39 146.553 112.39C147.378 112.39 148.013 112.627 148.46 113.101C148.907 113.571 149.13 114.243 149.13 115.118V119.889H147.954V115.405C147.954 114.744 147.811 114.254 147.523 113.935C147.241 113.612 146.806 113.45 146.218 113.45C145.571 113.45 145.062 113.634 144.693 114.003C144.329 114.373 144.146 114.881 144.146 115.528V119.889H142.971ZM151.112 114.537C151.112 113.926 151.374 113.416 151.898 113.005C152.423 112.595 153.076 112.39 153.86 112.39C154.631 112.39 155.266 112.568 155.768 112.923C156.269 113.279 156.558 113.76 156.636 114.366H155.474C155.392 114.065 155.209 113.828 154.927 113.655C154.649 113.477 154.291 113.388 153.854 113.388C153.411 113.388 153.04 113.491 152.739 113.696C152.443 113.901 152.295 114.165 152.295 114.489C152.295 114.739 152.397 114.949 152.603 115.118C152.812 115.282 153.136 115.416 153.573 115.521L154.708 115.794C155.41 115.963 155.927 116.207 156.26 116.526C156.597 116.845 156.766 117.266 156.766 117.791C156.766 118.442 156.485 118.978 155.925 119.397C155.364 119.812 154.66 120.019 153.812 120.019C152.992 120.019 152.32 119.837 151.796 119.472C151.272 119.108 150.978 118.62 150.914 118.009H152.124C152.224 118.328 152.423 118.579 152.719 118.761C153.015 118.939 153.393 119.028 153.854 119.028C154.35 119.028 154.758 118.921 155.077 118.707C155.396 118.492 155.556 118.217 155.556 117.879C155.556 117.378 155.166 117.032 154.387 116.84L153.122 116.533C152.425 116.364 151.914 116.123 151.591 115.808C151.272 115.489 151.112 115.065 151.112 114.537ZM159.035 110.681H160.211V112.52H161.92V113.504H160.211V117.674C160.211 118.107 160.298 118.422 160.471 118.618C160.644 118.814 160.922 118.912 161.305 118.912C161.464 118.912 161.642 118.903 161.838 118.884V119.876C161.578 119.921 161.353 119.944 161.161 119.944C160.4 119.944 159.855 119.791 159.527 119.486C159.199 119.181 159.035 118.677 159.035 117.975V113.504H157.798V112.52H159.035V110.681ZM165.898 118.987C166.505 118.987 167.006 118.811 167.402 118.461C167.803 118.11 168.004 117.67 168.004 117.141V116.464L166.021 116.594C165.465 116.631 165.058 116.747 164.798 116.943C164.538 117.139 164.408 117.424 164.408 117.797C164.408 118.167 164.547 118.458 164.825 118.672C165.103 118.882 165.461 118.987 165.898 118.987ZM165.68 120.019C164.955 120.019 164.358 119.821 163.889 119.424C163.424 119.023 163.191 118.49 163.191 117.825C163.191 117.169 163.424 116.654 163.889 116.28C164.354 115.906 165.017 115.694 165.878 115.644L168.004 115.514V114.844C168.004 114.389 167.863 114.04 167.58 113.798C167.298 113.557 166.883 113.436 166.336 113.436C165.894 113.436 165.527 113.516 165.235 113.675C164.944 113.835 164.757 114.06 164.675 114.352H163.485C163.563 113.764 163.866 113.29 164.395 112.93C164.928 112.57 165.589 112.39 166.377 112.39C167.27 112.39 167.961 112.607 168.448 113.04C168.936 113.473 169.18 114.074 169.18 114.844V119.889H168.059V118.802H167.949C167.712 119.194 167.398 119.495 167.006 119.705C166.614 119.914 166.172 120.019 165.68 120.019ZM171.354 119.889V112.52H172.475V113.682H172.584C172.771 113.272 173.069 112.955 173.479 112.732C173.89 112.504 174.375 112.39 174.936 112.39C175.76 112.39 176.396 112.627 176.843 113.101C177.289 113.571 177.513 114.243 177.513 115.118V119.889H176.337V115.405C176.337 114.744 176.193 114.254 175.906 113.935C175.624 113.612 175.188 113.45 174.601 113.45C173.953 113.45 173.445 113.634 173.076 114.003C172.712 114.373 172.529 114.881 172.529 115.528V119.889H171.354ZM180.158 110.681H181.334V112.52H183.043V113.504H181.334V117.674C181.334 118.107 181.421 118.422 181.594 118.618C181.767 118.814 182.045 118.912 182.428 118.912C182.587 118.912 182.765 118.903 182.961 118.884V119.876C182.701 119.921 182.476 119.944 182.284 119.944C181.523 119.944 180.979 119.791 180.65 119.486C180.322 119.181 180.158 118.677 180.158 117.975V113.504H178.921V112.52H180.158V110.681ZM191.431 120.019C190.487 120.019 189.735 119.673 189.175 118.98C188.614 118.287 188.334 117.362 188.334 116.205C188.334 115.052 188.614 114.129 189.175 113.436C189.74 112.739 190.492 112.39 191.431 112.39C191.946 112.39 192.406 112.506 192.812 112.739C193.222 112.967 193.532 113.281 193.741 113.682H193.844V109.594H195.02V119.889H193.898V118.713H193.789C193.557 119.124 193.233 119.445 192.818 119.677C192.404 119.905 191.941 120.019 191.431 120.019ZM191.704 113.45C191.034 113.45 190.508 113.696 190.125 114.188C189.742 114.676 189.551 115.348 189.551 116.205C189.551 117.066 189.74 117.74 190.118 118.228C190.501 118.716 191.03 118.96 191.704 118.96C192.374 118.96 192.903 118.713 193.29 118.221C193.677 117.729 193.871 117.057 193.871 116.205C193.871 115.362 193.675 114.692 193.283 114.195C192.896 113.698 192.369 113.45 191.704 113.45ZM198.718 118.242C199.096 118.72 199.634 118.96 200.331 118.96C201.028 118.96 201.566 118.72 201.944 118.242C202.323 117.759 202.512 117.08 202.512 116.205C202.512 115.33 202.323 114.653 201.944 114.174C201.566 113.691 201.028 113.45 200.331 113.45C199.634 113.45 199.096 113.691 198.718 114.174C198.34 114.653 198.15 115.33 198.15 116.205C198.15 117.08 198.34 117.759 198.718 118.242ZM202.812 119.001C202.206 119.68 201.379 120.019 200.331 120.019C199.283 120.019 198.453 119.68 197.843 119.001C197.237 118.317 196.934 117.385 196.934 116.205C196.934 115.02 197.237 114.088 197.843 113.409C198.449 112.73 199.278 112.39 200.331 112.39C201.384 112.39 202.213 112.73 202.819 113.409C203.425 114.088 203.729 115.02 203.729 116.205C203.729 117.385 203.423 118.317 202.812 119.001ZM214.57 112.52L212.506 119.889H211.31L209.662 114.188H209.553L207.912 119.889H206.723L204.658 112.52H205.848L207.297 118.413H207.406L209.054 112.52H210.182L211.829 118.413H211.938L213.388 112.52H214.57ZM216.143 119.889V112.52H217.264V113.682H217.373C217.56 113.272 217.858 112.955 218.269 112.732C218.679 112.504 219.164 112.39 219.725 112.39C220.549 112.39 221.185 112.627 221.632 113.101C222.078 113.571 222.302 114.243 222.302 115.118V119.889H221.126V115.405C221.126 114.744 220.982 114.254 220.695 113.935C220.413 113.612 219.978 113.45 219.39 113.45C218.743 113.45 218.234 113.634 217.865 114.003C217.501 114.373 217.318 114.881 217.318 115.528V119.889H216.143ZM224.523 119.889V109.594H225.699V119.889H224.523ZM229.397 118.242C229.776 118.72 230.313 118.96 231.011 118.96C231.708 118.96 232.246 118.72 232.624 118.242C233.002 117.759 233.191 117.08 233.191 116.205C233.191 115.33 233.002 114.653 232.624 114.174C232.246 113.691 231.708 113.45 231.011 113.45C230.313 113.45 229.776 113.691 229.397 114.174C229.019 114.653 228.83 115.33 228.83 116.205C228.83 117.08 229.019 117.759 229.397 118.242ZM233.492 119.001C232.886 119.68 232.059 120.019 231.011 120.019C229.963 120.019 229.133 119.68 228.522 119.001C227.916 118.317 227.613 117.385 227.613 116.205C227.613 115.02 227.916 114.088 228.522 113.409C229.129 112.73 229.958 112.39 231.011 112.39C232.063 112.39 232.893 112.73 233.499 113.409C234.105 114.088 234.408 115.02 234.408 116.205C234.408 117.385 234.103 118.317 233.492 119.001ZM238.523 118.987C239.13 118.987 239.631 118.811 240.027 118.461C240.428 118.11 240.629 117.67 240.629 117.141V116.464L238.646 116.594C238.09 116.631 237.683 116.747 237.423 116.943C237.163 117.139 237.033 117.424 237.033 117.797C237.033 118.167 237.172 118.458 237.45 118.672C237.728 118.882 238.086 118.987 238.523 118.987ZM238.305 120.019C237.58 120.019 236.983 119.821 236.514 119.424C236.049 119.023 235.816 118.49 235.816 117.825C235.816 117.169 236.049 116.654 236.514 116.28C236.979 115.906 237.642 115.694 238.503 115.644L240.629 115.514V114.844C240.629 114.389 240.488 114.04 240.205 113.798C239.923 113.557 239.508 113.436 238.961 113.436C238.519 113.436 238.152 113.516 237.86 113.675C237.569 113.835 237.382 114.06 237.3 114.352H236.11C236.188 113.764 236.491 113.29 237.02 112.93C237.553 112.57 238.214 112.39 239.002 112.39C239.895 112.39 240.586 112.607 241.073 113.04C241.561 113.473 241.805 114.074 241.805 114.844V119.889H240.684V118.802H240.574C240.337 119.194 240.023 119.495 239.631 119.705C239.239 119.914 238.797 120.019 238.305 120.019ZM246.706 120.019C245.763 120.019 245.011 119.673 244.45 118.98C243.89 118.287 243.609 117.362 243.609 116.205C243.609 115.052 243.89 114.129 244.45 113.436C245.015 112.739 245.767 112.39 246.706 112.39C247.221 112.39 247.681 112.506 248.087 112.739C248.497 112.967 248.807 113.281 249.017 113.682H249.119V109.594H250.295V119.889H249.174V118.713H249.064C248.832 119.124 248.508 119.445 248.094 119.677C247.679 119.905 247.216 120.019 246.706 120.019ZM246.979 113.45C246.31 113.45 245.783 113.696 245.4 114.188C245.018 114.676 244.826 115.348 244.826 116.205C244.826 117.066 245.015 117.74 245.394 118.228C245.776 118.716 246.305 118.96 246.979 118.96C247.649 118.96 248.178 118.713 248.565 118.221C248.953 117.729 249.146 117.057 249.146 116.205C249.146 115.362 248.951 114.692 248.559 114.195C248.171 113.698 247.645 113.45 246.979 113.45Z" fill="#9B9DA5"/>
</g>
<g filter="url(#filter2_d_1511_26943)">
<mask id="path-8-inside-1_1511_26943" fill="white">
<path d="M465.145 96.847H515.617C519.943 96.847 523.45 100.354 523.45 104.681V125.098C523.45 129.424 519.943 132.931 515.617 132.931H465.145V96.847Z"/>
</mask>
<path d="M465.145 96.847H515.617C519.943 96.847 523.45 100.354 523.45 104.681V125.098C523.45 129.424 519.943 132.931 515.617 132.931H465.145V96.847Z" fill="white" shape-rendering="crispEdges"/>
<path d="M465.145 95.8418H515.617C520.498 95.8418 524.456 99.7991 524.456 104.681H522.445C522.445 100.909 519.388 97.8523 515.617 97.8523H465.145V95.8418ZM524.456 125.098C524.456 129.979 520.498 133.937 515.617 133.937H465.145V131.926H515.617C519.388 131.926 522.445 128.869 522.445 125.098H524.456ZM465.145 132.931V96.847V132.931ZM515.617 95.8418C520.498 95.8418 524.456 99.7991 524.456 104.681V125.098C524.456 129.979 520.498 133.937 515.617 133.937V131.926C519.388 131.926 522.445 128.869 522.445 125.098V104.681C522.445 100.909 519.388 97.8523 515.617 97.8523V95.8418Z" fill="#DDDDE3" mask="url(#path-8-inside-1_1511_26943)"/>
<path d="M494.297 108.104V121.675" stroke="#0E0E1E" stroke-width="1.50791" stroke-linecap="round" stroke-linejoin="round"/>
<path d="M487.512 114.889H501.083" stroke="#0E0E1E" stroke-width="1.50791" stroke-linecap="round" stroke-linejoin="round"/>
</g>
<path d="M100.436 165.103C100.254 165.103 100.099 165.039 99.9697 164.91C99.8408 164.775 99.7764 164.614 99.7764 164.427C99.7764 164.245 99.8408 164.09 99.9697 163.961C100.099 163.832 100.254 163.767 100.436 163.767H116.889C117.07 163.767 117.226 163.832 117.354 163.961C117.489 164.09 117.557 164.245 117.557 164.427C117.557 164.614 117.489 164.775 117.354 164.91C117.226 165.039 117.07 165.103 116.889 165.103H100.436ZM100.436 161.262C100.254 161.262 100.099 161.198 99.9697 161.069C99.8408 160.94 99.7764 160.785 99.7764 160.603C99.7764 160.416 99.8408 160.258 99.9697 160.129C100.099 159.994 100.254 159.927 100.436 159.927H116.889C117.07 159.927 117.226 159.994 117.354 160.129C117.489 160.258 117.557 160.416 117.557 160.603C117.557 160.785 117.489 160.94 117.354 161.069C117.226 161.198 117.07 161.262 116.889 161.262H100.436ZM100.436 157.43C100.254 157.43 100.099 157.366 99.9697 157.237C99.8408 157.108 99.7764 156.953 99.7764 156.771C99.7764 156.584 99.8408 156.426 99.9697 156.297C100.099 156.168 100.254 156.103 100.436 156.103H116.889C117.07 156.103 117.226 156.168 117.354 156.297C117.489 156.426 117.557 156.584 117.557 156.771C117.557 156.953 117.489 157.108 117.354 157.237C117.226 157.366 117.07 157.43 116.889 157.43H100.436Z" fill="#6A788D"/>
<path d="M134.851 169.551C133.626 169.551 132.472 169.316 131.388 168.847C130.31 168.379 129.357 167.731 128.531 166.905C127.705 166.079 127.058 165.127 126.589 164.049C126.12 162.965 125.886 161.81 125.886 160.586C125.886 159.361 126.12 158.21 126.589 157.132C127.058 156.048 127.702 155.093 128.522 154.266C129.349 153.44 130.301 152.793 131.379 152.324C132.463 151.855 133.617 151.621 134.842 151.621C136.066 151.621 137.221 151.855 138.305 152.324C139.389 152.793 140.344 153.44 141.17 154.266C141.996 155.093 142.644 156.048 143.112 157.132C143.581 158.21 143.815 159.361 143.815 160.586C143.815 161.81 143.581 162.965 143.112 164.049C142.644 165.127 141.996 166.079 141.17 166.905C140.344 167.731 139.389 168.379 138.305 168.847C137.227 169.316 136.075 169.551 134.851 169.551ZM133.866 164.875C134.019 164.875 134.156 164.84 134.279 164.769C134.402 164.699 134.511 164.594 134.604 164.453L138.735 157.94C138.788 157.852 138.838 157.759 138.885 157.659C138.932 157.559 138.955 157.46 138.955 157.36C138.955 157.155 138.879 156.994 138.727 156.877C138.574 156.754 138.404 156.692 138.217 156.692C137.959 156.692 137.748 156.827 137.584 157.096L133.831 163.126L132.047 160.823C131.936 160.677 131.827 160.577 131.722 160.524C131.622 160.471 131.508 160.445 131.379 160.445C131.18 160.445 131.013 160.518 130.878 160.665C130.743 160.805 130.676 160.975 130.676 161.175C130.676 161.274 130.693 161.374 130.729 161.473C130.77 161.567 130.822 161.658 130.887 161.746L133.093 164.453C133.21 164.605 133.33 164.714 133.453 164.778C133.576 164.843 133.714 164.875 133.866 164.875Z" fill="#3C4350"/>
<path d="M153.231 154.249V162.308C153.231 163.234 153.51 163.981 154.066 164.55C154.629 165.112 155.405 165.393 156.396 165.393C157.386 165.393 158.162 165.112 158.725 164.55C159.287 163.981 159.568 163.234 159.568 162.308V154.249H161.528V162.475C161.528 163.864 161.065 164.989 160.14 165.85C159.214 166.712 157.966 167.142 156.396 167.142C154.825 167.142 153.577 166.712 152.651 165.85C151.726 164.989 151.263 163.864 151.263 162.475V154.249H153.231ZM163.515 160.102C163.515 159.264 163.857 158.585 164.543 158.063C165.229 157.536 166.119 157.272 167.215 157.272C168.258 157.272 169.119 157.539 169.799 158.072C170.484 158.599 170.839 159.279 170.862 160.111H169.069C169.028 159.689 168.838 159.355 168.498 159.109C168.158 158.863 167.716 158.74 167.171 158.74C166.632 158.74 166.195 158.857 165.861 159.092C165.533 159.32 165.369 159.622 165.369 159.997C165.369 160.571 165.864 160.978 166.854 161.219L168.437 161.596C169.397 161.831 170.077 162.141 170.476 162.528C170.874 162.915 171.073 163.46 171.073 164.163C171.073 165.012 170.707 165.707 169.975 166.246C169.242 166.779 168.299 167.046 167.145 167.046C166.037 167.046 165.129 166.785 164.42 166.263C163.717 165.736 163.33 165.039 163.26 164.172H165.141C165.217 164.629 165.434 164.98 165.791 165.226C166.154 165.467 166.638 165.587 167.241 165.587C167.833 165.587 168.302 165.472 168.647 165.244C168.999 165.015 169.175 164.708 169.175 164.321C169.175 164.016 169.069 163.776 168.858 163.6C168.653 163.425 168.299 163.272 167.795 163.143L166.09 162.721C164.373 162.3 163.515 161.427 163.515 160.102ZM176.593 158.819C175.907 158.819 175.336 159.048 174.879 159.505C174.428 159.962 174.176 160.556 174.123 161.289H178.966C178.942 160.545 178.714 159.947 178.28 159.496C177.847 159.045 177.284 158.819 176.593 158.819ZM178.957 164.136H180.776C180.642 164.992 180.193 165.692 179.432 166.237C178.67 166.776 177.753 167.046 176.681 167.046C175.298 167.046 174.202 166.612 173.394 165.745C172.591 164.872 172.189 163.688 172.189 162.194C172.189 160.7 172.591 159.505 173.394 158.608C174.196 157.712 175.266 157.263 176.602 157.263C177.914 157.263 178.954 157.688 179.722 158.538C180.489 159.382 180.873 160.527 180.873 161.974V162.642H174.114V162.757C174.114 163.583 174.352 164.248 174.826 164.752C175.301 165.25 175.931 165.499 176.716 165.499C177.272 165.499 177.753 165.376 178.157 165.13C178.562 164.884 178.828 164.552 178.957 164.136ZM182.411 166.931V157.386H184.23V158.995H184.266C184.412 158.462 184.69 158.046 185.101 157.747C185.517 157.442 186.006 157.29 186.568 157.29C186.832 157.29 187.043 157.313 187.201 157.36V159.144C186.99 159.062 186.712 159.021 186.366 159.021C185.739 159.021 185.241 159.223 184.872 159.628C184.503 160.026 184.318 160.562 184.318 161.236V166.931H182.411ZM193.969 162.757H188.203V161.043H193.969V162.757ZM196.535 166.931V158.889H195.217V157.386H196.535V156.508C196.535 155.611 196.752 154.961 197.186 154.556C197.619 154.146 198.316 153.941 199.277 153.941C199.582 153.941 199.904 153.97 200.244 154.029V155.479C200.039 155.432 199.802 155.409 199.532 155.409C199.14 155.409 198.855 155.5 198.68 155.681C198.51 155.863 198.422 156.159 198.416 156.569V157.386H200.253V158.889H198.434V166.931H196.535ZM201.835 166.931V157.386H203.654V158.995H203.689C203.836 158.462 204.114 158.046 204.524 157.747C204.94 157.442 205.43 157.29 205.992 157.29C206.256 157.29 206.467 157.313 206.625 157.36V159.144C206.414 159.062 206.136 159.021 205.79 159.021C205.163 159.021 204.665 159.223 204.296 159.628C203.927 160.026 203.742 160.562 203.742 161.236V166.931H201.835ZM207.952 166.931V157.386H209.859V166.931H207.952ZM209.701 155.708C209.484 155.919 209.221 156.024 208.91 156.024C208.6 156.024 208.336 155.919 208.119 155.708C207.902 155.491 207.794 155.23 207.794 154.926C207.794 154.615 207.902 154.354 208.119 154.143C208.336 153.932 208.6 153.827 208.91 153.827C209.221 153.827 209.484 153.932 209.701 154.143C209.918 154.354 210.026 154.615 210.026 154.926C210.026 155.23 209.918 155.491 209.701 155.708ZM215.862 158.819C215.177 158.819 214.605 159.048 214.148 159.505C213.697 159.962 213.445 160.556 213.393 161.289H218.235C218.212 160.545 217.983 159.947 217.55 159.496C217.116 159.045 216.554 158.819 215.862 158.819ZM218.227 164.136H220.046C219.911 164.992 219.463 165.692 218.701 166.237C217.939 166.776 217.022 167.046 215.95 167.046C214.567 167.046 213.472 166.612 212.663 165.745C211.86 164.872 211.459 163.688 211.459 162.194C211.459 160.7 211.86 159.505 212.663 158.608C213.466 157.712 214.535 157.263 215.871 157.263C217.184 157.263 218.224 157.688 218.991 158.538C219.759 159.382 220.143 160.527 220.143 161.974V162.642H213.384V162.757C213.384 163.583 213.621 164.248 214.096 164.752C214.57 165.25 215.2 165.499 215.985 165.499C216.542 165.499 217.022 165.376 217.427 165.13C217.831 164.884 218.098 164.552 218.227 164.136ZM221.681 166.931V157.386H223.5V158.995H223.535C224.127 157.852 225.161 157.281 226.638 157.281C227.692 157.281 228.521 157.597 229.125 158.23C229.734 158.857 230.039 159.719 230.039 160.814V166.931H228.132V161.175C228.132 160.448 227.947 159.891 227.578 159.505C227.209 159.112 226.676 158.916 225.979 158.916C225.258 158.916 224.678 159.147 224.238 159.61C223.805 160.067 223.588 160.671 223.588 161.421V166.931H221.681ZM235.541 167.028C234.34 167.028 233.367 166.583 232.623 165.692C231.885 164.802 231.516 163.621 231.516 162.15C231.516 160.691 231.885 159.516 232.623 158.626C233.367 157.735 234.334 157.29 235.523 157.29C236.203 157.29 236.804 157.439 237.325 157.738C237.853 158.031 238.254 158.441 238.529 158.969H238.573V153.677H240.472V166.931H238.626V165.314H238.591C238.31 165.859 237.902 166.281 237.369 166.58C236.842 166.879 236.232 167.028 235.541 167.028ZM236.024 158.907C235.257 158.907 234.639 159.203 234.17 159.795C233.701 160.386 233.467 161.175 233.467 162.159C233.467 163.149 233.698 163.94 234.161 164.532C234.63 165.118 235.251 165.411 236.024 165.411C236.792 165.411 237.41 165.112 237.879 164.514C238.348 163.917 238.582 163.132 238.582 162.159C238.582 161.186 238.345 160.401 237.87 159.803C237.401 159.206 236.786 158.907 236.024 158.907ZM242.572 166.931V153.677H244.479V166.931H242.572ZM247.477 170.403C247.16 170.403 246.902 170.385 246.703 170.35V168.803C246.82 168.833 247.022 168.847 247.31 168.847C247.767 168.847 248.127 168.739 248.391 168.522C248.66 168.311 248.877 167.954 249.041 167.45L249.19 166.958L245.728 157.386H247.775L250.228 165.191H250.271L252.724 157.386H254.728L251.15 167.371C250.74 168.513 250.269 169.304 249.735 169.744C249.208 170.183 248.455 170.403 247.477 170.403ZM260.106 166.931V157.386H262.014V166.931H260.106ZM261.855 155.708C261.639 155.919 261.375 156.024 261.064 156.024C260.754 156.024 260.49 155.919 260.273 155.708C260.057 155.491 259.948 155.23 259.948 154.926C259.948 154.615 260.057 154.354 260.273 154.143C260.49 153.932 260.754 153.827 261.064 153.827C261.375 153.827 261.639 153.932 261.855 154.143C262.072 154.354 262.181 154.615 262.181 154.926C262.181 155.23 262.072 155.491 261.855 155.708ZM264.044 166.931V157.386H265.863V158.995H265.898C266.49 157.852 267.524 157.281 269.001 157.281C270.056 157.281 270.885 157.597 271.488 158.23C272.098 158.857 272.402 159.719 272.402 160.814V166.931H270.495V161.175C270.495 160.448 270.311 159.891 269.941 159.505C269.572 159.112 269.039 158.916 268.342 158.916C267.621 158.916 267.041 159.147 266.602 159.61C266.168 160.067 265.951 160.671 265.951 161.421V166.931H264.044ZM274.881 155.242H276.779V157.386H278.607V158.889H276.779V164.224C276.779 164.64 276.873 164.948 277.061 165.147C277.254 165.341 277.55 165.437 277.948 165.437C278.177 165.437 278.394 165.423 278.599 165.393V166.896C278.341 166.961 277.983 166.993 277.526 166.993C276.571 166.993 275.892 166.797 275.487 166.404C275.083 166.006 274.881 165.344 274.881 164.418V158.889H273.562V157.386H274.881V155.242ZM283.96 158.819C283.274 158.819 282.703 159.048 282.246 159.505C281.795 159.962 281.543 160.556 281.49 161.289H286.333C286.31 160.545 286.081 159.947 285.647 159.496C285.214 159.045 284.651 158.819 283.96 158.819ZM286.324 164.136H288.144C288.009 164.992 287.561 165.692 286.799 166.237C286.037 166.776 285.12 167.046 284.048 167.046C282.665 167.046 281.569 166.612 280.761 165.745C279.958 164.872 279.557 163.688 279.557 162.194C279.557 160.7 279.958 159.505 280.761 158.608C281.563 157.712 282.633 157.263 283.969 157.263C285.281 157.263 286.321 157.688 287.089 158.538C287.856 159.382 288.24 160.527 288.24 161.974V162.642H281.481V162.757C281.481 163.583 281.719 164.248 282.193 164.752C282.668 165.25 283.298 165.499 284.083 165.499C284.64 165.499 285.12 165.376 285.524 165.13C285.929 164.884 286.195 164.552 286.324 164.136ZM289.778 166.931V157.386H291.598V158.995H291.633C291.779 158.462 292.058 158.046 292.468 157.747C292.884 157.442 293.373 157.29 293.936 157.29C294.199 157.29 294.41 157.313 294.568 157.36V159.144C294.357 159.062 294.079 159.021 293.733 159.021C293.106 159.021 292.608 159.223 292.239 159.628C291.87 160.026 291.686 160.562 291.686 161.236V166.931H289.778ZM296.396 166.931V158.889H295.078V157.386H296.396V156.508C296.396 155.611 296.613 154.961 297.047 154.556C297.48 154.146 298.178 153.941 299.139 153.941C299.443 153.941 299.766 153.97 300.105 154.029V155.479C299.9 155.432 299.663 155.409 299.394 155.409C299.001 155.409 298.717 155.5 298.541 155.681C298.371 155.863 298.283 156.159 298.277 156.569V157.386H300.114V158.889H298.295V166.931H296.396ZM304.975 165.508C305.684 165.508 306.275 165.305 306.75 164.901C307.225 164.491 307.462 163.972 307.462 163.345V162.598L305.142 162.757C303.823 162.839 303.164 163.307 303.164 164.163C303.164 164.573 303.328 164.901 303.656 165.147C303.984 165.387 304.424 165.508 304.975 165.508ZM304.465 167.028C303.51 167.028 302.733 166.77 302.136 166.255C301.538 165.733 301.239 165.048 301.239 164.198C301.239 163.366 301.55 162.713 302.171 162.238C302.798 161.763 303.703 161.488 304.887 161.412L307.462 161.262V160.524C307.462 159.979 307.286 159.563 306.935 159.276C306.589 158.983 306.097 158.837 305.458 158.837C304.942 158.837 304.506 158.96 304.148 159.206C303.797 159.452 303.58 159.783 303.498 160.199H301.714C301.743 159.355 302.115 158.655 302.83 158.098C303.545 157.542 304.438 157.263 305.511 157.263C306.677 157.263 307.605 157.548 308.297 158.116C308.994 158.684 309.343 159.44 309.343 160.384V166.931H307.523V165.341H307.479C307.216 165.856 306.812 166.266 306.267 166.571C305.722 166.876 305.121 167.028 304.465 167.028ZM319.415 160.647H317.596C317.502 160.12 317.256 159.692 316.857 159.364C316.465 159.036 315.952 158.872 315.319 158.872C314.546 158.872 313.925 159.171 313.456 159.768C312.993 160.366 312.762 161.163 312.762 162.159C312.762 163.178 312.996 163.981 313.465 164.567C313.934 165.153 314.555 165.446 315.328 165.446C315.949 165.446 316.456 165.3 316.849 165.007C317.247 164.708 317.502 164.28 317.613 163.723H319.433C319.321 164.725 318.894 165.531 318.149 166.14C317.405 166.744 316.462 167.046 315.319 167.046C313.96 167.046 312.87 166.606 312.05 165.727C311.235 164.848 310.828 163.659 310.828 162.159C310.828 160.677 311.235 159.49 312.05 158.599C312.864 157.709 313.948 157.263 315.302 157.263C315.894 157.263 316.441 157.354 316.945 157.536C317.449 157.712 317.871 157.955 318.211 158.265C318.557 158.576 318.832 158.936 319.037 159.346C319.248 159.751 319.374 160.184 319.415 160.647ZM324.812 158.819C324.126 158.819 323.555 159.048 323.098 159.505C322.646 159.962 322.395 160.556 322.342 161.289H327.185C327.161 160.545 326.933 159.947 326.499 159.496C326.065 159.045 325.503 158.819 324.812 158.819ZM327.176 164.136H328.995C328.86 164.992 328.412 165.692 327.65 166.237C326.889 166.776 325.972 167.046 324.899 167.046C323.517 167.046 322.421 166.612 321.612 165.745C320.81 164.872 320.408 163.688 320.408 162.194C320.408 160.7 320.81 159.505 321.612 158.608C322.415 157.712 323.484 157.263 324.82 157.263C326.133 157.263 327.173 157.688 327.94 158.538C328.708 159.382 329.092 160.527 329.092 161.974V162.642H322.333V162.757C322.333 163.583 322.57 164.248 323.045 164.752C323.52 165.25 324.149 165.499 324.935 165.499C325.491 165.499 325.972 165.376 326.376 165.13C326.78 164.884 327.047 164.552 327.176 164.136Z" fill="#3C4350"/>
<path d="M100.436 196.661C100.254 196.661 100.099 196.597 99.9697 196.468C99.8408 196.333 99.7764 196.172 99.7764 195.985C99.7764 195.803 99.8408 195.648 99.9697 195.519C100.099 195.39 100.254 195.325 100.436 195.325H116.889C117.07 195.325 117.226 195.39 117.354 195.519C117.489 195.648 117.557 195.803 117.557 195.985C117.557 196.172 117.489 196.333 117.354 196.468C117.226 196.597 117.07 196.661 116.889 196.661H100.436ZM100.436 192.821C100.254 192.821 100.099 192.756 99.9697 192.627C99.8408 192.498 99.7764 192.343 99.7764 192.161C99.7764 191.974 99.8408 191.816 99.9697 191.687C100.099 191.552 100.254 191.485 100.436 191.485H116.889C117.07 191.485 117.226 191.552 117.354 191.687C117.489 191.816 117.557 191.974 117.557 192.161C117.557 192.343 117.489 192.498 117.354 192.627C117.226 192.756 117.07 192.821 116.889 192.821H100.436ZM100.436 188.989C100.254 188.989 100.099 188.924 99.9697 188.795C99.8408 188.666 99.7764 188.511 99.7764 188.329C99.7764 188.142 99.8408 187.984 99.9697 187.855C100.099 187.726 100.254 187.661 100.436 187.661H116.889C117.07 187.661 117.226 187.726 117.354 187.855C117.489 187.984 117.557 188.142 117.557 188.329C117.557 188.511 117.489 188.666 117.354 188.795C117.226 188.924 117.07 188.989 116.889 188.989H100.436Z" fill="#6A788D"/>
<path d="M134.851 201.109C133.626 201.109 132.472 200.874 131.388 200.406C130.31 199.937 129.357 199.289 128.531 198.463C127.705 197.637 127.058 196.685 126.589 195.607C126.12 194.523 125.886 193.368 125.886 192.144C125.886 190.919 126.12 189.768 126.589 188.69C127.058 187.606 127.702 186.651 128.522 185.824C129.349 184.998 130.301 184.351 131.379 183.882C132.463 183.413 133.617 183.179 134.842 183.179C136.066 183.179 137.221 183.413 138.305 183.882C139.389 184.351 140.344 184.998 141.17 185.824C141.996 186.651 142.644 187.606 143.112 188.69C143.581 189.768 143.815 190.919 143.815 192.144C143.815 193.368 143.581 194.523 143.112 195.607C142.644 196.685 141.996 197.637 141.17 198.463C140.344 199.289 139.389 199.937 138.305 200.406C137.227 200.874 136.075 201.109 134.851 201.109ZM133.866 196.433C134.019 196.433 134.156 196.398 134.279 196.327C134.402 196.257 134.511 196.152 134.604 196.011L138.735 189.498C138.788 189.41 138.838 189.317 138.885 189.217C138.932 189.117 138.955 189.018 138.955 188.918C138.955 188.713 138.879 188.552 138.727 188.435C138.574 188.312 138.404 188.25 138.217 188.25C137.959 188.25 137.748 188.385 137.584 188.655L133.831 194.684L132.047 192.381C131.936 192.235 131.827 192.135 131.722 192.082C131.622 192.03 131.508 192.003 131.379 192.003C131.18 192.003 131.013 192.076 130.878 192.223C130.743 192.364 130.676 192.533 130.676 192.733C130.676 192.832 130.693 192.932 130.729 193.031C130.77 193.125 130.822 193.216 130.887 193.304L133.093 196.011C133.21 196.163 133.33 196.272 133.453 196.336C133.576 196.401 133.714 196.433 133.866 196.433Z" fill="#3C4350"/>
<path d="M159.313 196.784V198.49H151.263V185.807H159.313V187.503H153.231V191.212H158.988V192.847H153.231V196.784H159.313ZM164.455 197.066C165.164 197.066 165.756 196.864 166.23 196.459C166.705 196.049 166.942 195.531 166.942 194.904V194.156L164.622 194.315C163.304 194.397 162.645 194.865 162.645 195.721C162.645 196.131 162.809 196.459 163.137 196.705C163.465 196.946 163.904 197.066 164.455 197.066ZM163.945 198.586C162.99 198.586 162.214 198.328 161.616 197.813C161.019 197.291 160.72 196.606 160.72 195.756C160.72 194.924 161.03 194.271 161.651 193.796C162.278 193.322 163.184 193.046 164.367 192.97L166.942 192.821V192.082C166.942 191.537 166.767 191.121 166.415 190.834C166.069 190.541 165.577 190.395 164.938 190.395C164.423 190.395 163.986 190.518 163.629 190.764C163.277 191.01 163.061 191.341 162.979 191.757H161.194C161.224 190.913 161.596 190.213 162.311 189.656C163.025 189.1 163.919 188.822 164.991 188.822C166.157 188.822 167.086 189.106 167.777 189.674C168.475 190.242 168.823 190.998 168.823 191.942V198.49H167.004V196.899H166.96C166.696 197.414 166.292 197.824 165.747 198.129C165.202 198.434 164.602 198.586 163.945 198.586ZM170.581 191.66C170.581 190.823 170.924 190.143 171.609 189.621C172.295 189.094 173.186 188.83 174.281 188.83C175.324 188.83 176.186 189.097 176.865 189.63C177.551 190.157 177.905 190.837 177.929 191.669H176.136C176.095 191.247 175.904 190.913 175.564 190.667C175.225 190.421 174.782 190.298 174.237 190.298C173.698 190.298 173.262 190.415 172.928 190.65C172.6 190.878 172.436 191.18 172.436 191.555C172.436 192.129 172.931 192.536 173.921 192.777L175.503 193.155C176.464 193.389 177.144 193.699 177.542 194.086C177.94 194.473 178.14 195.018 178.14 195.721C178.14 196.571 177.773 197.265 177.041 197.804C176.309 198.337 175.365 198.604 174.211 198.604C173.104 198.604 172.195 198.343 171.486 197.822C170.783 197.294 170.396 196.597 170.326 195.73H172.207C172.283 196.187 172.5 196.538 172.857 196.784C173.221 197.025 173.704 197.145 174.308 197.145C174.899 197.145 175.368 197.031 175.714 196.802C176.065 196.573 176.241 196.266 176.241 195.879C176.241 195.574 176.136 195.334 175.925 195.158C175.72 194.983 175.365 194.83 174.861 194.701L173.156 194.28C171.439 193.858 170.581 192.985 170.581 191.66ZM180.645 201.961C180.328 201.961 180.07 201.944 179.871 201.908V200.362C179.988 200.391 180.19 200.406 180.478 200.406C180.935 200.406 181.295 200.297 181.559 200.08C181.828 199.869 182.045 199.512 182.209 199.008L182.358 198.516L178.896 188.945H180.943L183.396 196.749H183.439L185.892 188.945H187.896L184.318 198.929C183.908 200.072 183.437 200.863 182.903 201.302C182.376 201.741 181.623 201.961 180.645 201.961ZM193.775 198.49V190.448H192.457V188.945H193.775V188.066C193.775 187.169 193.992 186.519 194.426 186.115C194.859 185.704 195.557 185.499 196.518 185.499C196.822 185.499 197.145 185.529 197.484 185.587V187.037C197.279 186.99 197.042 186.967 196.772 186.967C196.38 186.967 196.096 187.058 195.92 187.24C195.75 187.421 195.662 187.717 195.656 188.127V188.945H197.493V190.448H195.674V198.49H193.775ZM199.146 198.49V188.945H201.053V198.49H199.146ZM200.895 187.266C200.678 187.477 200.414 187.582 200.104 187.582C199.793 187.582 199.529 187.477 199.312 187.266C199.096 187.049 198.987 186.788 198.987 186.484C198.987 186.173 199.096 185.912 199.312 185.701C199.529 185.49 199.793 185.385 200.104 185.385C200.414 185.385 200.678 185.49 200.895 185.701C201.111 185.912 201.22 186.173 201.22 186.484C201.22 186.788 201.111 187.049 200.895 187.266ZM203.162 198.49V185.236H205.069V198.49H203.162ZM211.081 190.377C210.396 190.377 209.824 190.606 209.367 191.063C208.916 191.52 208.664 192.115 208.611 192.847H213.454C213.431 192.103 213.202 191.505 212.769 191.054C212.335 190.603 211.772 190.377 211.081 190.377ZM213.445 195.695H215.265C215.13 196.55 214.682 197.25 213.92 197.795C213.158 198.334 212.241 198.604 211.169 198.604C209.786 198.604 208.69 198.17 207.882 197.303C207.079 196.43 206.678 195.246 206.678 193.752C206.678 192.258 207.079 191.063 207.882 190.166C208.685 189.27 209.754 188.822 211.09 188.822C212.402 188.822 213.442 189.246 214.21 190.096C214.978 190.94 215.361 192.085 215.361 193.532V194.2H208.603V194.315C208.603 195.141 208.84 195.806 209.314 196.31C209.789 196.808 210.419 197.057 211.204 197.057C211.761 197.057 212.241 196.934 212.646 196.688C213.05 196.442 213.316 196.111 213.445 195.695ZM220.89 191.66C220.89 190.823 221.232 190.143 221.918 189.621C222.604 189.094 223.494 188.83 224.59 188.83C225.633 188.83 226.494 189.097 227.174 189.63C227.859 190.157 228.214 190.837 228.237 191.669H226.444C226.403 191.247 226.213 190.913 225.873 190.667C225.533 190.421 225.091 190.298 224.546 190.298C224.007 190.298 223.57 190.415 223.236 190.65C222.908 190.878 222.744 191.18 222.744 191.555C222.744 192.129 223.239 192.536 224.229 192.777L225.812 193.155C226.772 193.389 227.452 193.699 227.851 194.086C228.249 194.473 228.448 195.018 228.448 195.721C228.448 196.571 228.082 197.265 227.35 197.804C226.617 198.337 225.674 198.604 224.52 198.604C223.412 198.604 222.504 198.343 221.795 197.822C221.092 197.294 220.705 196.597 220.635 195.73H222.516C222.592 196.187 222.809 196.538 223.166 196.784C223.529 197.025 224.013 197.145 224.616 197.145C225.208 197.145 225.677 197.031 226.022 196.802C226.374 196.573 226.55 196.266 226.55 195.879C226.55 195.574 226.444 195.334 226.233 195.158C226.028 194.983 225.674 194.83 225.17 194.701L223.465 194.28C221.748 193.858 220.89 192.985 220.89 191.66ZM230.074 198.49V185.236H231.964V190.553H232.008C232.588 189.41 233.622 188.839 235.11 188.839C236.159 188.839 237 189.161 237.633 189.806C238.271 190.45 238.591 191.312 238.591 192.39V198.49H236.692V192.759C236.692 192.044 236.493 191.485 236.095 191.08C235.696 190.676 235.148 190.474 234.451 190.474C233.713 190.474 233.115 190.708 232.658 191.177C232.207 191.646 231.981 192.261 231.981 193.023V198.49H230.074ZM243.82 197.066C244.529 197.066 245.121 196.864 245.596 196.459C246.07 196.049 246.308 195.531 246.308 194.904V194.156L243.987 194.315C242.669 194.397 242.01 194.865 242.01 195.721C242.01 196.131 242.174 196.459 242.502 196.705C242.83 196.946 243.27 197.066 243.82 197.066ZM243.311 198.586C242.355 198.586 241.579 198.328 240.981 197.813C240.384 197.291 240.085 196.606 240.085 195.756C240.085 194.924 240.396 194.271 241.017 193.796C241.644 193.322 242.549 193.046 243.732 192.97L246.308 192.821V192.082C246.308 191.537 246.132 191.121 245.78 190.834C245.435 190.541 244.942 190.395 244.304 190.395C243.788 190.395 243.352 190.518 242.994 190.764C242.643 191.01 242.426 191.341 242.344 191.757H240.56C240.589 190.913 240.961 190.213 241.676 189.656C242.391 189.1 243.284 188.822 244.356 188.822C245.522 188.822 246.451 189.106 247.143 189.674C247.84 190.242 248.188 190.998 248.188 191.942V198.49H246.369V196.899H246.325C246.062 197.414 245.657 197.824 245.112 198.129C244.567 198.434 243.967 198.586 243.311 198.586ZM250.104 198.49V188.945H251.924V190.553H251.959C252.105 190.02 252.384 189.604 252.794 189.305C253.21 189 253.699 188.848 254.262 188.848C254.525 188.848 254.736 188.871 254.895 188.918V190.702C254.684 190.62 254.405 190.579 254.06 190.579C253.433 190.579 252.935 190.781 252.565 191.186C252.196 191.584 252.012 192.12 252.012 192.794V198.49H250.104ZM256.222 198.49V188.945H258.129V198.49H256.222ZM257.971 187.266C257.754 187.477 257.49 187.582 257.18 187.582C256.869 187.582 256.605 187.477 256.389 187.266C256.172 187.049 256.063 186.788 256.063 186.484C256.063 186.173 256.172 185.912 256.389 185.701C256.605 185.49 256.869 185.385 257.18 185.385C257.49 185.385 257.754 185.49 257.971 185.701C258.188 185.912 258.296 186.173 258.296 186.484C258.296 186.788 258.188 187.049 257.971 187.266ZM260.159 198.49V188.945H261.979V190.553H262.014C262.605 189.41 263.64 188.839 265.116 188.839C266.171 188.839 267 189.156 267.604 189.788C268.213 190.415 268.518 191.277 268.518 192.372V198.49H266.61V192.733C266.61 192.006 266.426 191.449 266.057 191.063C265.688 190.67 265.154 190.474 264.457 190.474C263.736 190.474 263.156 190.705 262.717 191.168C262.283 191.625 262.066 192.229 262.066 192.979V198.49H260.159ZM274.477 196.881C275.25 196.881 275.871 196.591 276.34 196.011C276.814 195.425 277.052 194.652 277.052 193.691C277.052 192.724 276.814 191.945 276.34 191.353C275.871 190.761 275.25 190.465 274.477 190.465C273.709 190.465 273.094 190.758 272.631 191.344C272.174 191.93 271.945 192.712 271.945 193.691C271.945 194.663 272.174 195.44 272.631 196.02C273.094 196.594 273.709 196.881 274.477 196.881ZM274.485 201.926C273.337 201.926 272.388 201.68 271.638 201.188C270.888 200.696 270.466 200.042 270.372 199.228H272.297C272.402 199.597 272.66 199.89 273.07 200.107C273.48 200.323 273.979 200.432 274.564 200.432C275.32 200.432 275.924 200.247 276.375 199.878C276.826 199.509 277.052 199.014 277.052 198.393V196.82H277.008C276.732 197.335 276.325 197.74 275.786 198.032C275.253 198.32 274.649 198.463 273.976 198.463C272.78 198.463 271.816 198.03 271.084 197.162C270.357 196.289 269.994 195.129 269.994 193.682C269.994 192.211 270.357 191.039 271.084 190.166C271.816 189.287 272.795 188.848 274.02 188.848C274.693 188.848 275.297 188.997 275.83 189.296C276.363 189.589 276.776 189.999 277.069 190.527H277.104V188.945H278.95V198.243C278.95 199.38 278.549 200.277 277.746 200.933C276.949 201.595 275.862 201.926 274.485 201.926ZM288.363 197.066C289.072 197.066 289.664 196.864 290.139 196.459C290.613 196.049 290.851 195.531 290.851 194.904V194.156L288.53 194.315C287.212 194.397 286.553 194.865 286.553 195.721C286.553 196.131 286.717 196.459 287.045 196.705C287.373 196.946 287.812 197.066 288.363 197.066ZM287.854 198.586C286.898 198.586 286.122 198.328 285.524 197.813C284.927 197.291 284.628 196.606 284.628 195.756C284.628 194.924 284.938 194.271 285.56 193.796C286.187 193.322 287.092 193.046 288.275 192.97L290.851 192.821V192.082C290.851 191.537 290.675 191.121 290.323 190.834C289.978 190.541 289.485 190.395 288.847 190.395C288.331 190.395 287.895 190.518 287.537 190.764C287.186 191.01 286.969 191.341 286.887 191.757H285.103C285.132 190.913 285.504 190.213 286.219 189.656C286.934 189.1 287.827 188.822 288.899 188.822C290.065 188.822 290.994 189.106 291.686 189.674C292.383 190.242 292.731 190.998 292.731 191.942V198.49H290.912V196.899H290.868C290.604 197.414 290.2 197.824 289.655 198.129C289.11 198.434 288.51 198.586 287.854 198.586ZM294.647 198.49V188.945H296.467V190.553H296.502C297.094 189.41 298.128 188.839 299.604 188.839C300.659 188.839 301.488 189.156 302.092 189.788C302.701 190.415 303.006 191.277 303.006 192.372V198.49H301.099V192.733C301.099 192.006 300.914 191.449 300.545 191.063C300.176 190.67 299.643 190.474 298.945 190.474C298.225 190.474 297.645 190.705 297.205 191.168C296.771 191.625 296.555 192.229 296.555 192.979V198.49H294.647ZM308.508 198.586C307.307 198.586 306.334 198.141 305.59 197.25C304.852 196.36 304.482 195.179 304.482 193.708C304.482 192.249 304.852 191.074 305.59 190.184C306.334 189.293 307.301 188.848 308.49 188.848C309.17 188.848 309.771 188.997 310.292 189.296C310.819 189.589 311.221 189.999 311.496 190.527H311.54V185.236H313.438V198.49H311.593V196.872H311.558C311.276 197.417 310.869 197.839 310.336 198.138C309.809 198.437 309.199 198.586 308.508 198.586ZM308.991 190.465C308.224 190.465 307.605 190.761 307.137 191.353C306.668 191.945 306.434 192.733 306.434 193.717C306.434 194.707 306.665 195.498 307.128 196.09C307.597 196.676 308.218 196.969 308.991 196.969C309.759 196.969 310.377 196.67 310.846 196.073C311.314 195.475 311.549 194.69 311.549 193.717C311.549 192.744 311.312 191.959 310.837 191.362C310.368 190.764 309.753 190.465 308.991 190.465ZM327.765 192.205H325.945C325.852 191.678 325.605 191.25 325.207 190.922C324.814 190.594 324.302 190.43 323.669 190.43C322.896 190.43 322.274 190.729 321.806 191.326C321.343 191.924 321.111 192.721 321.111 193.717C321.111 194.737 321.346 195.539 321.814 196.125C322.283 196.711 322.904 197.004 323.678 197.004C324.299 197.004 324.806 196.858 325.198 196.565C325.597 196.266 325.852 195.838 325.963 195.281H327.782C327.671 196.283 327.243 197.089 326.499 197.698C325.755 198.302 324.812 198.604 323.669 198.604C322.31 198.604 321.22 198.164 320.399 197.285C319.585 196.406 319.178 195.217 319.178 193.717C319.178 192.235 319.585 191.048 320.399 190.157C321.214 189.267 322.298 188.822 323.651 188.822C324.243 188.822 324.791 188.912 325.295 189.094C325.799 189.27 326.221 189.513 326.561 189.823C326.906 190.134 327.182 190.494 327.387 190.905C327.598 191.309 327.724 191.742 327.765 192.205ZM336.562 197.285C335.754 198.164 334.658 198.604 333.275 198.604C331.893 198.604 330.794 198.164 329.979 197.285C329.165 196.406 328.758 195.217 328.758 193.717C328.758 192.223 329.165 191.033 329.979 190.149C330.8 189.264 331.898 188.822 333.275 188.822C334.652 188.822 335.748 189.264 336.562 190.149C337.377 191.028 337.784 192.217 337.784 193.717C337.784 195.217 337.377 196.406 336.562 197.285ZM331.377 196.152C331.834 196.732 332.467 197.022 333.275 197.022C334.084 197.022 334.714 196.732 335.165 196.152C335.622 195.572 335.851 194.76 335.851 193.717C335.851 192.674 335.622 191.863 335.165 191.282C334.714 190.697 334.084 190.404 333.275 190.404C332.467 190.404 331.834 190.697 331.377 191.282C330.92 191.868 330.691 192.68 330.691 193.717C330.691 194.754 330.92 195.566 331.377 196.152ZM339.393 198.49V185.236H341.3V198.49H339.393ZM343.418 198.49V185.236H345.325V198.49H343.418ZM350.678 197.066C351.387 197.066 351.979 196.864 352.453 196.459C352.928 196.049 353.165 195.531 353.165 194.904V194.156L350.845 194.315C349.526 194.397 348.867 194.865 348.867 195.721C348.867 196.131 349.031 196.459 349.359 196.705C349.688 196.946 350.127 197.066 350.678 197.066ZM350.168 198.586C349.213 198.586 348.437 198.328 347.839 197.813C347.241 197.291 346.942 196.606 346.942 195.756C346.942 194.924 347.253 194.271 347.874 193.796C348.501 193.322 349.406 193.046 350.59 192.97L353.165 192.821V192.082C353.165 191.537 352.989 191.121 352.638 190.834C352.292 190.541 351.8 190.395 351.161 190.395C350.646 190.395 350.209 190.518 349.852 190.764C349.5 191.01 349.283 191.341 349.201 191.757H347.417C347.446 190.913 347.818 190.213 348.533 189.656C349.248 189.1 350.142 188.822 351.214 188.822C352.38 188.822 353.309 189.106 354 189.674C354.697 190.242 355.046 190.998 355.046 191.942V198.49H353.227V196.899H353.183C352.919 197.414 352.515 197.824 351.97 198.129C351.425 198.434 350.824 198.586 350.168 198.586ZM361.989 198.586C361.298 198.586 360.686 198.44 360.152 198.147C359.625 197.848 359.215 197.423 358.922 196.872H358.878V198.49H357.041V185.236H358.948V190.527H358.983C359.276 189.988 359.684 189.574 360.205 189.287C360.732 188.994 361.333 188.848 362.007 188.848C363.214 188.848 364.181 189.29 364.907 190.175C365.634 191.06 365.997 192.24 365.997 193.717C365.997 195.194 365.631 196.374 364.898 197.259C364.172 198.144 363.202 198.586 361.989 198.586ZM363.352 191.353C362.889 190.761 362.273 190.465 361.506 190.465C360.738 190.465 360.117 190.767 359.643 191.37C359.174 191.968 358.939 192.75 358.939 193.717C358.939 194.69 359.174 195.475 359.643 196.073C360.117 196.67 360.738 196.969 361.506 196.969C362.273 196.969 362.889 196.676 363.352 196.09C363.814 195.498 364.046 194.707 364.046 193.717C364.046 192.727 363.814 191.939 363.352 191.353ZM374.9 197.285C374.092 198.164 372.996 198.604 371.613 198.604C370.23 198.604 369.132 198.164 368.317 197.285C367.503 196.406 367.096 195.217 367.096 193.717C367.096 192.223 367.503 191.033 368.317 190.149C369.138 189.264 370.236 188.822 371.613 188.822C372.99 188.822 374.086 189.264 374.9 190.149C375.715 191.028 376.122 192.217 376.122 193.717C376.122 195.217 375.715 196.406 374.9 197.285ZM369.715 196.152C370.172 196.732 370.805 197.022 371.613 197.022C372.422 197.022 373.052 196.732 373.503 196.152C373.96 195.572 374.188 194.76 374.188 193.717C374.188 192.674 373.96 191.863 373.503 191.282C373.052 190.697 372.422 190.404 371.613 190.404C370.805 190.404 370.172 190.697 369.715 191.282C369.258 191.868 369.029 192.68 369.029 193.717C369.029 194.754 369.258 195.566 369.715 196.152ZM377.651 198.49V188.945H379.471V190.553H379.506C379.652 190.02 379.931 189.604 380.341 189.305C380.757 189 381.246 188.848 381.809 188.848C382.072 188.848 382.283 188.871 382.441 188.918V190.702C382.23 190.62 381.952 190.579 381.606 190.579C380.979 190.579 380.481 190.781 380.112 191.186C379.743 191.584 379.559 192.12 379.559 192.794V198.49H377.651ZM386.959 197.066C387.668 197.066 388.26 196.864 388.734 196.459C389.209 196.049 389.446 195.531 389.446 194.904V194.156L387.126 194.315C385.808 194.397 385.148 194.865 385.148 195.721C385.148 196.131 385.312 196.459 385.641 196.705C385.969 196.946 386.408 197.066 386.959 197.066ZM386.449 198.586C385.494 198.586 384.718 198.328 384.12 197.813C383.522 197.291 383.224 196.606 383.224 195.756C383.224 194.924 383.534 194.271 384.155 193.796C384.782 193.322 385.688 193.046 386.871 192.97L389.446 192.821V192.082C389.446 191.537 389.271 191.121 388.919 190.834C388.573 190.541 388.081 190.395 387.442 190.395C386.927 190.395 386.49 190.518 386.133 190.764C385.781 191.01 385.564 191.341 385.482 191.757H383.698C383.728 190.913 384.1 190.213 384.814 189.656C385.529 189.1 386.423 188.822 387.495 188.822C388.661 188.822 389.59 189.106 390.281 189.674C390.979 190.242 391.327 190.998 391.327 191.942V198.49H389.508V196.899H389.464C389.2 197.414 388.796 197.824 388.251 198.129C387.706 198.434 387.105 198.586 386.449 198.586ZM393.814 186.8H395.713V188.945H397.541V190.448H395.713V195.782C395.713 196.198 395.807 196.506 395.994 196.705C396.188 196.899 396.483 196.995 396.882 196.995C397.11 196.995 397.327 196.981 397.532 196.951V198.454C397.274 198.519 396.917 198.551 396.46 198.551C395.505 198.551 394.825 198.355 394.421 197.962C394.017 197.564 393.814 196.902 393.814 195.976V190.448H392.496V188.945H393.814V186.8ZM399.22 198.49V188.945H401.127V198.49H399.22ZM400.969 187.266C400.752 187.477 400.488 187.582 400.178 187.582C399.867 187.582 399.604 187.477 399.387 187.266C399.17 187.049 399.062 186.788 399.062 186.484C399.062 186.173 399.17 185.912 399.387 185.701C399.604 185.49 399.867 185.385 400.178 185.385C400.488 185.385 400.752 185.49 400.969 185.701C401.186 185.912 401.294 186.173 401.294 186.484C401.294 186.788 401.186 187.049 400.969 187.266ZM410.531 197.285C409.723 198.164 408.627 198.604 407.244 198.604C405.861 198.604 404.763 198.164 403.948 197.285C403.134 196.406 402.727 195.217 402.727 193.717C402.727 192.223 403.134 191.033 403.948 190.149C404.769 189.264 405.867 188.822 407.244 188.822C408.621 188.822 409.717 189.264 410.531 190.149C411.346 191.028 411.753 192.217 411.753 193.717C411.753 195.217 411.346 196.406 410.531 197.285ZM405.346 196.152C405.803 196.732 406.436 197.022 407.244 197.022C408.053 197.022 408.683 196.732 409.134 196.152C409.591 195.572 409.819 194.76 409.819 193.717C409.819 192.674 409.591 191.863 409.134 191.282C408.683 190.697 408.053 190.404 407.244 190.404C406.436 190.404 405.803 190.697 405.346 191.282C404.889 191.868 404.66 192.68 404.66 193.717C404.66 194.754 404.889 195.566 405.346 196.152ZM413.282 198.49V188.945H415.102V190.553H415.137C415.729 189.41 416.763 188.839 418.239 188.839C419.294 188.839 420.123 189.156 420.727 189.788C421.336 190.415 421.641 191.277 421.641 192.372V198.49H419.733V192.733C419.733 192.006 419.549 191.449 419.18 191.063C418.811 190.67 418.277 190.474 417.58 190.474C416.859 190.474 416.279 190.705 415.84 191.168C415.406 191.625 415.189 192.229 415.189 192.979V198.49H413.282Z" fill="#3C4350"/>
<path d="M100.436 228.219C100.254 228.219 100.099 228.155 99.9697 228.026C99.8408 227.891 99.7764 227.73 99.7764 227.543C99.7764 227.361 99.8408 227.206 99.9697 227.077C100.099 226.948 100.254 226.883 100.436 226.883H116.889C117.07 226.883 117.226 226.948 117.354 227.077C117.489 227.206 117.557 227.361 117.557 227.543C117.557 227.73 117.489 227.891 117.354 228.026C117.226 228.155 117.07 228.219 116.889 228.219H100.436ZM100.436 224.379C100.254 224.379 100.099 224.314 99.9697 224.185C99.8408 224.056 99.7764 223.901 99.7764 223.719C99.7764 223.532 99.8408 223.374 99.9697 223.245C100.099 223.11 100.254 223.043 100.436 223.043H116.889C117.07 223.043 117.226 223.11 117.354 223.245C117.489 223.374 117.557 223.532 117.557 223.719C117.557 223.901 117.489 224.056 117.354 224.185C117.226 224.314 117.07 224.379 116.889 224.379H100.436ZM100.436 220.547C100.254 220.547 100.099 220.482 99.9697 220.353C99.8408 220.224 99.7764 220.069 99.7764 219.887C99.7764 219.7 99.8408 219.542 99.9697 219.413C100.099 219.284 100.254 219.219 100.436 219.219H116.889C117.07 219.219 117.226 219.284 117.354 219.413C117.489 219.542 117.557 219.7 117.557 219.887C117.557 220.069 117.489 220.224 117.354 220.353C117.226 220.482 117.07 220.547 116.889 220.547H100.436Z" fill="#6A788D"/>
<path d="M134.851 232.667C133.626 232.667 132.472 232.432 131.388 231.964C130.31 231.495 129.357 230.847 128.531 230.021C127.705 229.195 127.058 228.243 126.589 227.165C126.12 226.081 125.886 224.926 125.886 223.702C125.886 222.477 126.12 221.326 126.589 220.248C127.058 219.164 127.702 218.209 128.522 217.382C129.349 216.556 130.301 215.909 131.379 215.44C132.463 214.971 133.617 214.737 134.842 214.737C136.066 214.737 137.221 214.971 138.305 215.44C139.389 215.909 140.344 216.556 141.17 217.382C141.996 218.209 142.644 219.164 143.112 220.248C143.581 221.326 143.815 222.477 143.815 223.702C143.815 224.926 143.581 226.081 143.112 227.165C142.644 228.243 141.996 229.195 141.17 230.021C140.344 230.847 139.389 231.495 138.305 231.964C137.227 232.432 136.075 232.667 134.851 232.667ZM133.866 227.991C134.019 227.991 134.156 227.956 134.279 227.885C134.402 227.815 134.511 227.71 134.604 227.569L138.735 221.056C138.788 220.968 138.838 220.875 138.885 220.775C138.932 220.675 138.955 220.576 138.955 220.476C138.955 220.271 138.879 220.11 138.727 219.993C138.574 219.87 138.404 219.808 138.217 219.808C137.959 219.808 137.748 219.943 137.584 220.213L133.831 226.242L132.047 223.939C131.936 223.793 131.827 223.693 131.722 223.64C131.622 223.588 131.508 223.561 131.379 223.561C131.18 223.561 131.013 223.634 130.878 223.781C130.743 223.922 130.676 224.091 130.676 224.291C130.676 224.39 130.693 224.49 130.729 224.589C130.77 224.683 130.822 224.774 130.887 224.862L133.093 227.569C133.21 227.721 133.33 227.83 133.453 227.894C133.576 227.959 133.714 227.991 133.866 227.991Z" fill="#3C4350"/>
<path d="M153.231 217.365V225.424C153.231 226.35 153.51 227.097 154.066 227.666C154.629 228.228 155.405 228.509 156.396 228.509C157.386 228.509 158.162 228.228 158.725 227.666C159.287 227.097 159.568 226.35 159.568 225.424V217.365H161.528V225.591C161.528 226.98 161.065 228.105 160.14 228.966C159.214 229.828 157.966 230.258 156.396 230.258C154.825 230.258 153.577 229.828 152.651 228.966C151.726 228.105 151.263 226.98 151.263 225.591V217.365H153.231ZM163.515 223.218C163.515 222.38 163.857 221.701 164.543 221.179C165.229 220.652 166.119 220.388 167.215 220.388C168.258 220.388 169.119 220.655 169.799 221.188C170.484 221.715 170.839 222.395 170.862 223.227H169.069C169.028 222.805 168.838 222.471 168.498 222.225C168.158 221.979 167.716 221.856 167.171 221.856C166.632 221.856 166.195 221.973 165.861 222.208C165.533 222.436 165.369 222.738 165.369 223.113C165.369 223.687 165.864 224.094 166.854 224.335L168.437 224.713C169.397 224.947 170.077 225.257 170.476 225.644C170.874 226.031 171.073 226.576 171.073 227.279C171.073 228.129 170.707 228.823 169.975 229.362C169.242 229.895 168.299 230.162 167.145 230.162C166.037 230.162 165.129 229.901 164.42 229.38C163.717 228.852 163.33 228.155 163.26 227.288H165.141C165.217 227.745 165.434 228.096 165.791 228.342C166.154 228.583 166.638 228.703 167.241 228.703C167.833 228.703 168.302 228.589 168.647 228.36C168.999 228.131 169.175 227.824 169.175 227.437C169.175 227.132 169.069 226.892 168.858 226.716C168.653 226.541 168.299 226.388 167.795 226.259L166.09 225.838C164.373 225.416 163.515 224.543 163.515 223.218ZM176.593 221.935C175.907 221.935 175.336 222.164 174.879 222.621C174.428 223.078 174.176 223.672 174.123 224.405H178.966C178.942 223.661 178.714 223.063 178.28 222.612C177.847 222.161 177.284 221.935 176.593 221.935ZM178.957 227.253H180.776C180.642 228.108 180.193 228.808 179.432 229.353C178.67 229.892 177.753 230.162 176.681 230.162C175.298 230.162 174.202 229.728 173.394 228.861C172.591 227.988 172.189 226.804 172.189 225.31C172.189 223.816 172.591 222.621 173.394 221.724C174.196 220.828 175.266 220.38 176.602 220.38C177.914 220.38 178.954 220.804 179.722 221.654C180.489 222.498 180.873 223.643 180.873 225.09V225.758H174.114V225.873C174.114 226.699 174.352 227.364 174.826 227.868C175.301 228.366 175.931 228.615 176.716 228.615C177.272 228.615 177.753 228.492 178.157 228.246C178.562 228 178.828 227.669 178.957 227.253ZM182.411 230.047V220.503H184.23V222.111H184.266C184.412 221.578 184.69 221.162 185.101 220.863C185.517 220.558 186.006 220.406 186.568 220.406C186.832 220.406 187.043 220.429 187.201 220.476V222.26C186.99 222.178 186.712 222.137 186.366 222.137C185.739 222.137 185.241 222.339 184.872 222.744C184.503 223.142 184.318 223.678 184.318 224.352V230.047H182.411ZM193.969 225.873H188.203V224.159H193.969V225.873ZM196.535 230.047V222.005H195.217V220.503H196.535V219.624C196.535 218.727 196.752 218.077 197.186 217.672C197.619 217.262 198.316 217.057 199.277 217.057C199.582 217.057 199.904 217.087 200.244 217.145V218.595C200.039 218.548 199.802 218.525 199.532 218.525C199.14 218.525 198.855 218.616 198.68 218.797C198.51 218.979 198.422 219.275 198.416 219.685V220.503H200.253V222.005H198.434V230.047H196.535ZM201.835 230.047V220.503H203.654V222.111H203.689C203.836 221.578 204.114 221.162 204.524 220.863C204.94 220.558 205.43 220.406 205.992 220.406C206.256 220.406 206.467 220.429 206.625 220.476V222.26C206.414 222.178 206.136 222.137 205.79 222.137C205.163 222.137 204.665 222.339 204.296 222.744C203.927 223.142 203.742 223.678 203.742 224.352V230.047H201.835ZM207.952 230.047V220.503H209.859V230.047H207.952ZM209.701 218.824C209.484 219.035 209.221 219.14 208.91 219.14C208.6 219.14 208.336 219.035 208.119 218.824C207.902 218.607 207.794 218.346 207.794 218.042C207.794 217.731 207.902 217.47 208.119 217.259C208.336 217.048 208.6 216.943 208.91 216.943C209.221 216.943 209.484 217.048 209.701 217.259C209.918 217.47 210.026 217.731 210.026 218.042C210.026 218.346 209.918 218.607 209.701 218.824ZM215.862 221.935C215.177 221.935 214.605 222.164 214.148 222.621C213.697 223.078 213.445 223.672 213.393 224.405H218.235C218.212 223.661 217.983 223.063 217.55 222.612C217.116 222.161 216.554 221.935 215.862 221.935ZM218.227 227.253H220.046C219.911 228.108 219.463 228.808 218.701 229.353C217.939 229.892 217.022 230.162 215.95 230.162C214.567 230.162 213.472 229.728 212.663 228.861C211.86 227.988 211.459 226.804 211.459 225.31C211.459 223.816 211.86 222.621 212.663 221.724C213.466 220.828 214.535 220.38 215.871 220.38C217.184 220.38 218.224 220.804 218.991 221.654C219.759 222.498 220.143 223.643 220.143 225.09V225.758H213.384V225.873C213.384 226.699 213.621 227.364 214.096 227.868C214.57 228.366 215.2 228.615 215.985 228.615C216.542 228.615 217.022 228.492 217.427 228.246C217.831 228 218.098 227.669 218.227 227.253ZM221.681 230.047V220.503H223.5V222.111H223.535C224.127 220.968 225.161 220.397 226.638 220.397C227.692 220.397 228.521 220.714 229.125 221.346C229.734 221.973 230.039 222.835 230.039 223.93V230.047H228.132V224.291C228.132 223.564 227.947 223.007 227.578 222.621C227.209 222.228 226.676 222.032 225.979 222.032C225.258 222.032 224.678 222.263 224.238 222.726C223.805 223.183 223.588 223.787 223.588 224.537V230.047H221.681ZM235.541 230.144C234.34 230.144 233.367 229.699 232.623 228.808C231.885 227.918 231.516 226.737 231.516 225.266C231.516 223.807 231.885 222.632 232.623 221.742C233.367 220.851 234.334 220.406 235.523 220.406C236.203 220.406 236.804 220.555 237.325 220.854C237.853 221.147 238.254 221.557 238.529 222.085H238.573V216.794H240.472V230.047H238.626V228.43H238.591C238.31 228.975 237.902 229.397 237.369 229.696C236.842 229.995 236.232 230.144 235.541 230.144ZM236.024 222.023C235.257 222.023 234.639 222.319 234.17 222.911C233.701 223.503 233.467 224.291 233.467 225.275C233.467 226.265 233.698 227.056 234.161 227.648C234.63 228.234 235.251 228.527 236.024 228.527C236.792 228.527 237.41 228.228 237.879 227.63C238.348 227.033 238.582 226.248 238.582 225.275C238.582 224.302 238.345 223.517 237.87 222.92C237.401 222.322 236.786 222.023 236.024 222.023ZM242.572 230.047V216.794H244.479V230.047H242.572ZM247.477 233.519C247.16 233.519 246.902 233.502 246.703 233.466V231.92C246.82 231.949 247.022 231.964 247.31 231.964C247.767 231.964 248.127 231.855 248.391 231.638C248.66 231.427 248.877 231.07 249.041 230.566L249.19 230.074L245.728 220.503H247.775L250.228 228.307H250.271L252.724 220.503H254.728L251.15 230.487C250.74 231.63 250.269 232.421 249.735 232.86C249.208 233.299 248.455 233.519 247.477 233.519ZM260.106 230.047V220.503H262.014V230.047H260.106ZM261.855 218.824C261.639 219.035 261.375 219.14 261.064 219.14C260.754 219.14 260.49 219.035 260.273 218.824C260.057 218.607 259.948 218.346 259.948 218.042C259.948 217.731 260.057 217.47 260.273 217.259C260.49 217.048 260.754 216.943 261.064 216.943C261.375 216.943 261.639 217.048 261.855 217.259C262.072 217.47 262.181 217.731 262.181 218.042C262.181 218.346 262.072 218.607 261.855 218.824ZM264.044 230.047V220.503H265.863V222.111H265.898C266.49 220.968 267.524 220.397 269.001 220.397C270.056 220.397 270.885 220.714 271.488 221.346C272.098 221.973 272.402 222.835 272.402 223.93V230.047H270.495V224.291C270.495 223.564 270.311 223.007 269.941 222.621C269.572 222.228 269.039 222.032 268.342 222.032C267.621 222.032 267.041 222.263 266.602 222.726C266.168 223.183 265.951 223.787 265.951 224.537V230.047H264.044ZM274.881 218.358H276.779V220.503H278.607V222.005H276.779V227.34C276.779 227.756 276.873 228.064 277.061 228.263C277.254 228.457 277.55 228.553 277.948 228.553C278.177 228.553 278.394 228.539 278.599 228.509V230.012C278.341 230.077 277.983 230.109 277.526 230.109C276.571 230.109 275.892 229.913 275.487 229.52C275.083 229.122 274.881 228.46 274.881 227.534V222.005H273.562V220.503H274.881V218.358ZM283.96 221.935C283.274 221.935 282.703 222.164 282.246 222.621C281.795 223.078 281.543 223.672 281.49 224.405H286.333C286.31 223.661 286.081 223.063 285.647 222.612C285.214 222.161 284.651 221.935 283.96 221.935ZM286.324 227.253H288.144C288.009 228.108 287.561 228.808 286.799 229.353C286.037 229.892 285.12 230.162 284.048 230.162C282.665 230.162 281.569 229.728 280.761 228.861C279.958 227.988 279.557 226.804 279.557 225.31C279.557 223.816 279.958 222.621 280.761 221.724C281.563 220.828 282.633 220.38 283.969 220.38C285.281 220.38 286.321 220.804 287.089 221.654C287.856 222.498 288.24 223.643 288.24 225.09V225.758H281.481V225.873C281.481 226.699 281.719 227.364 282.193 227.868C282.668 228.366 283.298 228.615 284.083 228.615C284.64 228.615 285.12 228.492 285.524 228.246C285.929 228 286.195 227.669 286.324 227.253ZM289.778 230.047V220.503H291.598V222.111H291.633C291.779 221.578 292.058 221.162 292.468 220.863C292.884 220.558 293.373 220.406 293.936 220.406C294.199 220.406 294.41 220.429 294.568 220.476V222.26C294.357 222.178 294.079 222.137 293.733 222.137C293.106 222.137 292.608 222.339 292.239 222.744C291.87 223.142 291.686 223.678 291.686 224.352V230.047H289.778ZM296.396 230.047V222.005H295.078V220.503H296.396V219.624C296.396 218.727 296.613 218.077 297.047 217.672C297.48 217.262 298.178 217.057 299.139 217.057C299.443 217.057 299.766 217.087 300.105 217.145V218.595C299.9 218.548 299.663 218.525 299.394 218.525C299.001 218.525 298.717 218.616 298.541 218.797C298.371 218.979 298.283 219.275 298.277 219.685V220.503H300.114V222.005H298.295V230.047H296.396ZM304.975 228.624C305.684 228.624 306.275 228.422 306.75 228.017C307.225 227.607 307.462 227.089 307.462 226.462V225.714L305.142 225.873C303.823 225.955 303.164 226.423 303.164 227.279C303.164 227.689 303.328 228.017 303.656 228.263C303.984 228.504 304.424 228.624 304.975 228.624ZM304.465 230.144C303.51 230.144 302.733 229.886 302.136 229.371C301.538 228.849 301.239 228.164 301.239 227.314C301.239 226.482 301.55 225.829 302.171 225.354C302.798 224.88 303.703 224.604 304.887 224.528L307.462 224.379V223.64C307.462 223.095 307.286 222.679 306.935 222.392C306.589 222.099 306.097 221.953 305.458 221.953C304.942 221.953 304.506 222.076 304.148 222.322C303.797 222.568 303.58 222.899 303.498 223.315H301.714C301.743 222.471 302.115 221.771 302.83 221.214C303.545 220.658 304.438 220.38 305.511 220.38C306.677 220.38 307.605 220.664 308.297 221.232C308.994 221.8 309.343 222.556 309.343 223.5V230.047H307.523V228.457H307.479C307.216 228.972 306.812 229.382 306.267 229.687C305.722 229.992 305.121 230.144 304.465 230.144ZM319.415 223.763H317.596C317.502 223.236 317.256 222.808 316.857 222.48C316.465 222.152 315.952 221.988 315.319 221.988C314.546 221.988 313.925 222.287 313.456 222.884C312.993 223.482 312.762 224.279 312.762 225.275C312.762 226.295 312.996 227.097 313.465 227.683C313.934 228.269 314.555 228.562 315.328 228.562C315.949 228.562 316.456 228.416 316.849 228.123C317.247 227.824 317.502 227.396 317.613 226.839H319.433C319.321 227.841 318.894 228.647 318.149 229.256C317.405 229.86 316.462 230.162 315.319 230.162C313.96 230.162 312.87 229.722 312.05 228.843C311.235 227.964 310.828 226.775 310.828 225.275C310.828 223.793 311.235 222.606 312.05 221.715C312.864 220.825 313.948 220.38 315.302 220.38C315.894 220.38 316.441 220.47 316.945 220.652C317.449 220.828 317.871 221.071 318.211 221.381C318.557 221.692 318.832 222.052 319.037 222.463C319.248 222.867 319.374 223.3 319.415 223.763ZM324.812 221.935C324.126 221.935 323.555 222.164 323.098 222.621C322.646 223.078 322.395 223.672 322.342 224.405H327.185C327.161 223.661 326.933 223.063 326.499 222.612C326.065 222.161 325.503 221.935 324.812 221.935ZM327.176 227.253H328.995C328.86 228.108 328.412 228.808 327.65 229.353C326.889 229.892 325.972 230.162 324.899 230.162C323.517 230.162 322.421 229.728 321.612 228.861C320.81 227.988 320.408 226.804 320.408 225.31C320.408 223.816 320.81 222.621 321.612 221.724C322.415 220.828 323.484 220.38 324.82 220.38C326.133 220.38 327.173 220.804 327.94 221.654C328.708 222.498 329.092 223.643 329.092 225.09V225.758H322.333V225.873C322.333 226.699 322.57 227.364 323.045 227.868C323.52 228.366 324.149 228.615 324.935 228.615C325.491 228.615 325.972 228.492 326.376 228.246C326.78 228 327.047 227.669 327.176 227.253Z" fill="#3C4350"/>
</g>
<defs>
<filter id="filter0_d_1511_26943" x="60.8518" y="12.3353" width="501.406" height="271.001" filterUnits="userSpaceOnUse" color-interpolation-filters="sRGB">
<feFlood flood-opacity="0" result="BackgroundImageFix"/>
<feColorMatrix in="SourceAlpha" type="matrix" values="0 0 0 0 0 0 0 0 0 0 0 0 0 0 0 0 0 0 127 0" result="hardAlpha"/>
<feOffset dx="1.06043" dy="9.54387"/>
<feGaussianBlur stdDeviation="10.6043"/>
<feColorMatrix type="matrix" values="0 0 0 0 0.658824 0 0 0 0 0.658824 0 0 0 0 0.658824 0 0 0 0.1 0"/>
<feBlend mode="normal" in2="BackgroundImageFix" result="effect1_dropShadow_1511_26943"/>
<feBlend mode="normal" in="SourceGraphic" in2="effect1_dropShadow_1511_26943" result="shape"/>
</filter>
<filter id="filter1_d_1511_26943" x="93.5141" y="93.8312" width="375.652" height="44.1265" filterUnits="userSpaceOnUse" color-interpolation-filters="sRGB">
<feFlood flood-opacity="0" result="BackgroundImageFix"/>
<feColorMatrix in="SourceAlpha" type="matrix" values="0 0 0 0 0 0 0 0 0 0 0 0 0 0 0 0 0 0 127 0" result="hardAlpha"/>
<feOffset dy="1.00527"/>
<feGaussianBlur stdDeviation="2.01055"/>
<feComposite in2="hardAlpha" operator="out"/>
<feColorMatrix type="matrix" values="0 0 0 0 0 0 0 0 0 0 0 0 0 0 0 0 0 0 0.08 0"/>
<feBlend mode="normal" in2="BackgroundImageFix" result="effect1_dropShadow_1511_26943"/>
<feBlend mode="normal" in="SourceGraphic" in2="effect1_dropShadow_1511_26943" result="shape"/>
</filter>
<filter id="filter2_d_1511_26943" x="461.123" y="93.8312" width="66.3469" height="44.1265" filterUnits="userSpaceOnUse" color-interpolation-filters="sRGB">
<feFlood flood-opacity="0" result="BackgroundImageFix"/>
<feColorMatrix in="SourceAlpha" type="matrix" values="0 0 0 0 0 0 0 0 0 0 0 0 0 0 0 0 0 0 127 0" result="hardAlpha"/>
<feOffset dy="1.00527"/>
<feGaussianBlur stdDeviation="2.01055"/>
<feComposite in2="hardAlpha" operator="out"/>
<feColorMatrix type="matrix" values="0 0 0 0 0 0 0 0 0 0 0 0 0 0 0 0 0 0 0.08 0"/>
<feBlend mode="normal" in2="BackgroundImageFix" result="effect1_dropShadow_1511_26943"/>
<feBlend mode="normal" in="SourceGraphic" in2="effect1_dropShadow_1511_26943" result="shape"/>
</filter>
</defs>
</svg>
