<svg width="580" height="321" viewBox="0 0 580 321" fill="none" xmlns="http://www.w3.org/2000/svg">
<g filter="url(#filter0_dddd_1511_28568)">
<rect x="141" y="101" width="298" height="120" rx="12" fill="white"/>
<rect x="141.444" y="101.444" width="297.112" height="119.112" rx="11.5559" stroke="#D6DAE1" stroke-width="0.88815"/>
<path d="M154.125 119.897C154.125 116.157 157.157 113.125 160.897 113.125H178.353C182.093 113.125 185.125 116.157 185.125 119.897V137.353C185.125 141.093 182.093 144.125 178.353 144.125H160.897C157.157 144.125 154.125 141.093 154.125 137.353V119.897Z" fill="#FAFAFA"/>
<g clip-path="url(#clip0_1511_28568)">
<path d="M177.509 123.791C177.495 123.69 177.407 123.635 177.334 123.629C177.262 123.622 175.725 123.509 175.725 123.509C175.725 123.509 174.657 122.449 174.54 122.331C174.423 122.214 174.194 122.25 174.105 122.276C174.092 122.28 173.871 122.348 173.507 122.46C173.151 121.434 172.521 120.491 171.414 120.491C171.383 120.491 171.352 120.492 171.32 120.494C171.005 120.078 170.615 119.897 170.278 119.897C167.699 119.897 166.467 123.121 166.08 124.76C165.078 125.07 164.366 125.291 164.275 125.32C163.716 125.495 163.698 125.513 163.625 126.04C163.569 126.439 162.105 137.76 162.105 137.76L173.512 139.897L179.692 138.56C179.692 138.56 177.523 123.891 177.509 123.791H177.509ZM172.877 122.655L171.912 122.954C171.912 122.886 171.912 122.819 171.912 122.746C171.912 122.108 171.824 121.595 171.682 121.188C172.252 121.259 172.632 121.908 172.877 122.655ZM170.974 121.314C171.133 121.711 171.236 122.282 171.236 123.052C171.236 123.091 171.235 123.127 171.235 123.163C170.607 123.358 169.925 123.569 169.242 123.781C169.626 122.299 170.345 121.584 170.974 121.314ZM170.208 120.589C170.319 120.589 170.431 120.626 170.538 120.7C169.712 121.089 168.826 122.069 168.452 124.025L166.876 124.513C167.314 123.021 168.355 120.589 170.208 120.589H170.208Z" fill="#95BF46"/>
<path d="M177.334 123.628C177.261 123.622 175.724 123.508 175.724 123.508C175.724 123.508 174.656 122.448 174.539 122.331C174.495 122.287 174.436 122.265 174.374 122.255L173.512 139.896L179.692 138.559C179.692 138.559 177.522 123.891 177.508 123.79C177.494 123.69 177.406 123.634 177.334 123.628Z" fill="#5E8E3E"/>
<path d="M171.415 127.044L170.653 129.311C170.653 129.311 169.986 128.955 169.167 128.955C167.967 128.955 167.907 129.708 167.907 129.897C167.907 130.933 170.606 131.329 170.606 133.754C170.606 135.662 169.396 136.891 167.764 136.891C165.806 136.891 164.805 135.672 164.805 135.672L165.329 133.94C165.329 133.94 166.358 134.824 167.227 134.824C167.794 134.824 168.025 134.377 168.025 134.051C168.025 132.7 165.811 132.64 165.811 130.421C165.811 128.553 167.152 126.745 169.858 126.745C170.9 126.745 171.415 127.044 171.415 127.044Z" fill="white"/>
</g>
<g clip-path="url(#clip1_1511_28568)">
<rect x="375.391" y="116.625" width="39" height="24" rx="12" fill="#787880" fill-opacity="0.32"/>
<g filter="url(#filter1_ddd_1511_28568)">
<rect x="376.918" y="117.921" width="20.6425" height="20.6425" rx="10.3213" fill="white"/>
</g>
</g>
<path d="M153.082 163.713H154.545C154.598 164.185 154.835 164.565 155.254 164.852C155.673 165.139 156.199 165.282 156.83 165.282C157.43 165.282 157.925 165.143 158.313 164.865C158.706 164.587 158.903 164.234 158.903 163.806C158.903 163.435 158.764 163.132 158.486 162.898C158.207 162.66 157.759 162.466 157.141 162.316L155.903 162.018C155.024 161.806 154.375 161.49 153.956 161.071C153.541 160.651 153.334 160.108 153.334 159.442C153.334 158.62 153.656 157.952 154.3 157.435C154.949 156.919 155.786 156.66 156.81 156.66C157.817 156.66 158.638 156.919 159.274 157.435C159.909 157.947 160.238 158.616 160.26 159.442H158.817C158.773 158.969 158.567 158.596 158.201 158.322C157.839 158.049 157.369 157.912 156.79 157.912C156.216 157.912 155.748 158.044 155.386 158.309C155.029 158.574 154.85 158.918 154.85 159.342C154.85 159.678 154.985 159.954 155.254 160.17C155.523 160.382 155.967 160.565 156.585 160.72L157.638 160.978C158.618 161.207 159.324 161.532 159.757 161.951C160.194 162.366 160.413 162.925 160.413 163.627C160.413 164.518 160.081 165.227 159.419 165.752C158.757 166.273 157.859 166.534 156.724 166.534C155.66 166.534 154.797 166.28 154.135 165.772C153.477 165.26 153.126 164.574 153.082 163.713ZM161.658 166.375V156.389H163.081V160.395H163.114C163.551 159.534 164.331 159.104 165.452 159.104C166.242 159.104 166.876 159.347 167.353 159.832C167.834 160.318 168.074 160.967 168.074 161.779V166.375H166.644V162.057C166.644 161.519 166.494 161.097 166.194 160.792C165.893 160.488 165.481 160.336 164.955 160.336C164.399 160.336 163.949 160.512 163.604 160.865C163.265 161.218 163.095 161.682 163.095 162.256V166.375H161.658ZM175.074 165.468C174.465 166.13 173.639 166.461 172.597 166.461C171.555 166.461 170.728 166.13 170.114 165.468C169.5 164.805 169.193 163.909 169.193 162.779C169.193 161.653 169.5 160.757 170.114 160.091C170.732 159.424 171.56 159.091 172.597 159.091C173.635 159.091 174.46 159.424 175.074 160.091C175.688 160.753 175.994 161.649 175.994 162.779C175.994 163.909 175.688 164.805 175.074 165.468ZM171.167 164.613C171.511 165.05 171.988 165.269 172.597 165.269C173.206 165.269 173.681 165.05 174.021 164.613C174.365 164.176 174.538 163.565 174.538 162.779C174.538 161.993 174.365 161.382 174.021 160.945C173.681 160.503 173.206 160.283 172.597 160.283C171.988 160.283 171.511 160.503 171.167 160.945C170.823 161.386 170.65 161.998 170.65 162.779C170.65 163.56 170.823 164.172 171.167 164.613ZM180.855 159.11C181.773 159.11 182.508 159.444 183.06 160.11C183.616 160.777 183.895 161.667 183.895 162.779C183.895 163.887 183.619 164.777 183.067 165.448C182.519 166.114 181.793 166.448 180.888 166.448C180.372 166.448 179.917 166.34 179.524 166.123C179.131 165.903 178.826 165.593 178.61 165.196H178.584V168.726H177.147V159.183H178.531V160.375H178.564C178.767 159.987 179.074 159.68 179.484 159.455C179.899 159.225 180.356 159.11 180.855 159.11ZM180.491 165.229C181.074 165.229 181.541 165.006 181.895 164.56C182.248 164.115 182.424 163.521 182.424 162.779C182.424 162.037 182.248 161.444 181.895 160.998C181.541 160.552 181.074 160.329 180.491 160.329C179.921 160.329 179.46 160.554 179.107 161.004C178.754 161.455 178.575 162.046 178.57 162.779C178.575 163.516 178.751 164.11 179.1 164.56C179.453 165.006 179.917 165.229 180.491 165.229ZM185.093 166.375V159.183H186.53V166.375H185.093ZM186.411 157.918C186.248 158.077 186.049 158.157 185.815 158.157C185.581 158.157 185.382 158.077 185.219 157.918C185.056 157.755 184.974 157.559 184.974 157.329C184.974 157.095 185.056 156.899 185.219 156.74C185.382 156.581 185.581 156.501 185.815 156.501C186.049 156.501 186.248 156.581 186.411 156.74C186.574 156.899 186.656 157.095 186.656 157.329C186.656 157.559 186.574 157.755 186.411 157.918ZM188.49 166.375V160.316H187.497V159.183H188.49V158.521C188.49 157.846 188.654 157.356 188.98 157.051C189.307 156.742 189.832 156.587 190.556 156.587C190.786 156.587 191.029 156.609 191.285 156.654V157.746C191.13 157.711 190.951 157.693 190.748 157.693C190.453 157.693 190.239 157.762 190.106 157.899C189.978 158.035 189.912 158.258 189.907 158.567V159.183H191.291V160.316H189.921V166.375H188.49ZM193.205 168.991C192.967 168.991 192.773 168.977 192.622 168.951V167.785C192.711 167.807 192.863 167.818 193.079 167.818C193.424 167.818 193.695 167.737 193.894 167.573C194.097 167.415 194.26 167.145 194.384 166.766L194.497 166.395L191.887 159.183H193.43L195.278 165.064H195.311L197.159 159.183H198.668L195.973 166.706C195.664 167.567 195.309 168.163 194.907 168.494C194.51 168.825 193.942 168.991 193.205 168.991Z" fill="#0E0E1E"/>
<path d="M156.244 190.693C155.316 190.693 154.582 190.373 154.039 189.733C153.5 189.093 153.23 188.222 153.23 187.122C153.23 186.021 153.5 185.151 154.039 184.511C154.579 183.868 155.312 183.546 156.239 183.546C156.958 183.546 157.573 183.751 158.084 184.161C158.594 184.571 158.9 185.105 159.001 185.764H158.136C158.022 185.323 157.795 184.974 157.454 184.719C157.114 184.46 156.709 184.331 156.239 184.331C155.583 184.331 155.063 184.582 154.678 185.083C154.296 185.585 154.106 186.264 154.106 187.122C154.106 187.98 154.298 188.659 154.683 189.161C155.067 189.659 155.588 189.908 156.244 189.908C156.72 189.908 157.126 189.794 157.464 189.567C157.804 189.337 158.028 189.025 158.136 188.631H159.001C158.888 189.258 158.58 189.76 158.079 190.135C157.581 190.507 156.969 190.693 156.244 190.693ZM161.305 189.392C161.566 189.723 161.939 189.889 162.421 189.889C162.903 189.889 163.276 189.723 163.537 189.392C163.799 189.058 163.93 188.588 163.93 187.983C163.93 187.377 163.799 186.909 163.537 186.578C163.276 186.244 162.903 186.077 162.421 186.077C161.939 186.077 161.566 186.244 161.305 186.578C161.043 186.909 160.912 187.377 160.912 187.983C160.912 188.588 161.043 189.058 161.305 189.392ZM164.138 189.917C163.719 190.387 163.146 190.622 162.421 190.622C161.696 190.622 161.122 190.387 160.699 189.917C160.28 189.444 160.07 188.8 160.07 187.983C160.07 187.163 160.28 186.518 160.699 186.048C161.119 185.578 161.693 185.343 162.421 185.343C163.149 185.343 163.723 185.578 164.143 186.048C164.562 186.518 164.772 187.163 164.772 187.983C164.772 188.8 164.561 189.444 164.138 189.917ZM166.049 190.532V185.433H166.825V186.237H166.9C167.03 185.954 167.236 185.734 167.52 185.58C167.804 185.422 168.14 185.343 168.527 185.343C169.098 185.343 169.538 185.507 169.847 185.835C170.156 186.16 170.311 186.625 170.311 187.231V190.532H169.497V187.429C169.497 186.972 169.398 186.633 169.199 186.412C169.004 186.189 168.703 186.077 168.296 186.077C167.848 186.077 167.496 186.204 167.241 186.46C166.989 186.715 166.863 187.067 166.863 187.515V190.532H166.049ZM171.801 190.532V185.433H172.576V186.237H172.652C172.781 185.954 172.988 185.734 173.272 185.58C173.556 185.422 173.891 185.343 174.279 185.343C174.85 185.343 175.29 185.507 175.599 185.835C175.908 186.16 176.062 186.625 176.062 187.231V190.532H175.249V187.429C175.249 186.972 175.15 186.633 174.951 186.412C174.755 186.189 174.454 186.077 174.047 186.077C173.6 186.077 173.248 186.204 172.993 186.46C172.74 186.715 172.614 187.067 172.614 187.515V190.532H171.801ZM179.586 186.062C179.18 186.062 178.845 186.2 178.584 186.474C178.322 186.748 178.175 187.111 178.144 187.562H180.953C180.944 187.111 180.815 186.748 180.566 186.474C180.316 186.2 179.99 186.062 179.586 186.062ZM180.93 189.213H181.743C181.62 189.654 181.37 189.999 180.991 190.248C180.616 190.498 180.151 190.622 179.596 190.622C178.89 190.622 178.33 190.386 177.917 189.913C177.504 189.436 177.297 188.795 177.297 187.988C177.297 187.183 177.505 186.542 177.921 186.062C178.338 185.583 178.896 185.343 179.596 185.343C180.283 185.343 180.824 185.572 181.218 186.029C181.612 186.487 181.81 187.112 181.81 187.907V188.219H178.144V188.257C178.166 188.762 178.308 189.162 178.569 189.459C178.834 189.755 179.183 189.903 179.615 189.903C180.274 189.903 180.712 189.673 180.93 189.213ZM187.306 186.994H186.483C186.413 186.726 186.264 186.507 186.033 186.337C185.806 186.163 185.518 186.077 185.168 186.077C184.711 186.077 184.346 186.247 184.075 186.587C183.807 186.928 183.673 187.387 183.673 187.964C183.673 188.55 183.809 189.019 184.08 189.369C184.351 189.716 184.714 189.889 185.168 189.889C185.512 189.889 185.797 189.812 186.024 189.657C186.254 189.503 186.407 189.282 186.483 188.995H187.306C187.23 189.477 187.005 189.87 186.629 190.173C186.254 190.472 185.769 190.622 185.173 190.622C184.457 190.622 183.888 190.383 183.465 189.903C183.043 189.421 182.831 188.774 182.831 187.964C182.831 187.169 183.043 186.534 183.465 186.058C183.888 185.581 184.455 185.343 185.168 185.343C185.764 185.343 186.249 185.499 186.625 185.812C187.003 186.124 187.23 186.518 187.306 186.994ZM188.942 184.161H189.756V185.433H190.939V186.114H189.756V189C189.756 189.299 189.816 189.517 189.936 189.652C190.056 189.788 190.248 189.856 190.513 189.856C190.623 189.856 190.746 189.85 190.882 189.837V190.523C190.702 190.554 190.546 190.57 190.414 190.57C189.887 190.57 189.51 190.464 189.283 190.253C189.056 190.042 188.942 189.693 188.942 189.208V186.114H188.086V185.433H188.942V184.161ZM194.633 188.749H195.494C195.547 189.105 195.732 189.389 196.047 189.6C196.362 189.812 196.763 189.917 197.248 189.917C197.709 189.917 198.089 189.807 198.388 189.586C198.691 189.362 198.843 189.082 198.843 188.744C198.843 188.454 198.732 188.215 198.511 188.025C198.291 187.833 197.945 187.677 197.476 187.557L196.6 187.33C195.982 187.176 195.533 186.952 195.252 186.658C194.972 186.365 194.831 185.976 194.831 185.49C194.831 184.91 195.052 184.442 195.494 184.085C195.938 183.726 196.522 183.546 197.244 183.546C197.903 183.546 198.455 183.723 198.899 184.076C199.344 184.429 199.584 184.881 199.618 185.433H198.762C198.702 185.083 198.535 184.81 198.261 184.615C197.99 184.416 197.641 184.317 197.215 184.317C196.761 184.317 196.395 184.423 196.118 184.634C195.844 184.842 195.706 185.118 195.706 185.462C195.706 185.73 195.807 185.947 196.009 186.114C196.214 186.282 196.552 186.425 197.021 186.545L197.736 186.734C198.442 186.911 198.948 187.147 199.254 187.444C199.563 187.74 199.718 188.139 199.718 188.64C199.718 189.268 199.487 189.768 199.027 190.14C198.567 190.509 197.947 190.693 197.168 190.693C196.446 190.693 195.853 190.517 195.39 190.163C194.929 189.81 194.677 189.339 194.633 188.749ZM203.066 186.062C202.66 186.062 202.325 186.2 202.064 186.474C201.802 186.748 201.655 187.111 201.624 187.562H204.433C204.424 187.111 204.295 186.748 204.046 186.474C203.796 186.2 203.47 186.062 203.066 186.062ZM204.41 189.213H205.223C205.1 189.654 204.85 189.999 204.471 190.248C204.096 190.498 203.631 190.622 203.076 190.622C202.37 190.622 201.81 190.386 201.397 189.913C200.984 189.436 200.777 188.795 200.777 187.988C200.777 187.183 200.985 186.542 201.401 186.062C201.818 185.583 202.376 185.343 203.076 185.343C203.763 185.343 204.304 185.572 204.698 186.029C205.093 186.487 205.29 187.112 205.29 187.907V188.219H201.624V188.257C201.646 188.762 201.788 189.162 202.05 189.459C202.314 189.755 202.663 189.903 203.095 189.903C203.754 189.903 204.192 189.673 204.41 189.213ZM206.614 190.532V183.409H207.428V190.532H206.614ZM209.055 190.532V183.409H209.868V190.532H209.055ZM211.33 190.532V189.936L214.272 186.19V186.114H211.335V185.433H215.242V186.043L212.314 189.775V189.851H215.256V190.532H211.33ZM216.552 190.532V189.936L219.494 186.19V186.114H216.557V185.433H220.464V186.043L217.536 189.775V189.851H220.478V190.532H216.552ZM222.327 192.382C222.198 192.382 222.077 192.372 221.963 192.353V191.658C222.045 191.674 222.159 191.682 222.304 191.682C222.537 191.682 222.725 191.617 222.867 191.488C223.008 191.362 223.133 191.146 223.24 190.84L223.335 190.537L221.448 185.433H222.327L223.727 189.629H223.803L225.198 185.433H226.064L224.073 190.844C223.855 191.434 223.622 191.838 223.373 192.055C223.127 192.273 222.778 192.382 222.327 192.382ZM236.3 185.433L234.871 190.532H234.044L232.904 186.587H232.828L231.693 190.532H230.87L229.441 185.433H230.264L231.267 189.511H231.343L232.483 185.433H233.263L234.403 189.511H234.479L235.482 185.433H236.3ZM237.407 190.532V185.433H238.22V190.532H237.407ZM238.216 184.232C238.105 184.342 237.971 184.397 237.814 184.397C237.656 184.397 237.522 184.342 237.412 184.232C237.301 184.118 237.246 183.984 237.246 183.83C237.246 183.675 237.301 183.543 237.412 183.432C237.522 183.319 237.656 183.262 237.814 183.262C237.971 183.262 238.105 183.319 238.216 183.432C238.326 183.543 238.381 183.675 238.381 183.83C238.381 183.984 238.326 184.118 238.216 184.232ZM240.112 184.161H240.926V185.433H242.108V186.114H240.926V189C240.926 189.299 240.986 189.517 241.106 189.652C241.226 189.788 241.418 189.856 241.683 189.856C241.793 189.856 241.916 189.85 242.052 189.837V190.523C241.872 190.554 241.716 190.57 241.583 190.57C241.057 190.57 240.68 190.464 240.453 190.253C240.226 190.042 240.112 189.693 240.112 189.208V186.114H239.256V185.433H240.112V184.161ZM243.338 190.532V183.409H244.152V186.237H244.228C244.357 185.954 244.562 185.734 244.842 185.58C245.123 185.422 245.457 185.343 245.845 185.343C246.422 185.343 246.867 185.509 247.179 185.84C247.494 186.168 247.652 186.632 247.652 187.231V190.532H246.839V187.429C246.839 186.527 246.43 186.077 245.613 186.077C245.163 186.077 244.806 186.207 244.544 186.469C244.283 186.731 244.152 187.079 244.152 187.515V190.532H243.338ZM251.649 188.749H252.51C252.563 189.105 252.748 189.389 253.063 189.6C253.379 189.812 253.779 189.917 254.265 189.917C254.725 189.917 255.105 189.807 255.405 189.586C255.707 189.362 255.859 189.082 255.859 188.744C255.859 188.454 255.748 188.215 255.528 188.025C255.307 187.833 254.962 187.677 254.492 187.557L253.617 187.33C252.999 187.176 252.549 186.952 252.269 186.658C251.988 186.365 251.848 185.976 251.848 185.49C251.848 184.91 252.068 184.442 252.51 184.085C252.955 183.726 253.538 183.546 254.26 183.546C254.919 183.546 255.471 183.723 255.916 184.076C256.36 184.429 256.6 184.881 256.635 185.433H255.778C255.718 185.083 255.551 184.81 255.277 184.615C255.006 184.416 254.657 184.317 254.232 184.317C253.778 184.317 253.412 184.423 253.134 184.634C252.86 184.842 252.723 185.118 252.723 185.462C252.723 185.73 252.824 185.947 253.025 186.114C253.23 186.282 253.568 186.425 254.038 186.545L254.752 186.734C255.458 186.911 255.964 187.147 256.27 187.444C256.579 187.74 256.734 188.139 256.734 188.64C256.734 189.268 256.504 189.768 256.043 190.14C255.583 190.509 254.963 190.693 254.184 190.693C253.462 190.693 252.869 190.517 252.406 190.163C251.945 189.81 251.693 189.339 251.649 188.749ZM258.096 190.532V183.409H258.91V186.237H258.985C259.115 185.954 259.32 185.734 259.6 185.58C259.881 185.422 260.215 185.343 260.603 185.343C261.18 185.343 261.625 185.509 261.937 185.84C262.252 186.168 262.41 186.632 262.41 187.231V190.532H261.596V187.429C261.596 186.527 261.188 186.077 260.371 186.077C259.92 186.077 259.564 186.207 259.302 186.469C259.041 186.731 258.91 187.079 258.91 187.515V190.532H258.096ZM264.874 189.392C265.136 189.723 265.508 189.889 265.991 189.889C266.473 189.889 266.845 189.723 267.107 189.392C267.369 189.058 267.499 188.588 267.499 187.983C267.499 187.377 267.369 186.909 267.107 186.578C266.845 186.244 266.473 186.077 265.991 186.077C265.508 186.077 265.136 186.244 264.874 186.578C264.613 186.909 264.482 187.377 264.482 187.983C264.482 188.588 264.613 189.058 264.874 189.392ZM267.708 189.917C267.288 190.387 266.716 190.622 265.991 190.622C265.265 190.622 264.691 190.387 264.269 189.917C263.849 189.444 263.64 188.8 263.64 187.983C263.64 187.163 263.849 186.518 264.269 186.048C264.688 185.578 265.262 185.343 265.991 185.343C266.719 185.343 267.293 185.578 267.712 186.048C268.132 186.518 268.341 187.163 268.341 187.983C268.341 188.8 268.13 189.444 267.708 189.917ZM272.102 185.343C272.751 185.343 273.27 185.583 273.658 186.062C274.049 186.542 274.245 187.182 274.245 187.983C274.245 188.781 274.049 189.421 273.658 189.903C273.267 190.383 272.748 190.622 272.102 190.622C271.739 190.622 271.418 190.548 271.137 190.4C270.856 190.248 270.647 190.037 270.508 189.766H270.432V192.235H269.619V185.433H270.394V186.285H270.47C270.634 185.991 270.859 185.761 271.146 185.594C271.436 185.427 271.755 185.343 272.102 185.343ZM271.908 189.889C272.375 189.889 272.74 189.72 273.005 189.383C273.27 189.045 273.403 188.579 273.403 187.983C273.403 187.387 273.27 186.92 273.005 186.583C272.744 186.245 272.379 186.077 271.913 186.077C271.452 186.077 271.086 186.248 270.815 186.592C270.544 186.933 270.408 187.396 270.408 187.983C270.408 188.566 270.542 189.03 270.811 189.373C271.082 189.717 271.448 189.889 271.908 189.889ZM275.541 190.532V185.433H276.354V190.532H275.541ZM276.349 184.232C276.239 184.342 276.105 184.397 275.947 184.397C275.79 184.397 275.656 184.342 275.545 184.232C275.435 184.118 275.38 183.984 275.38 183.83C275.38 183.675 275.435 183.543 275.545 183.432C275.656 183.319 275.79 183.262 275.947 183.262C276.105 183.262 276.239 183.319 276.349 183.432C276.46 183.543 276.515 183.675 276.515 183.83C276.515 183.984 276.46 184.118 276.349 184.232ZM278.246 190.532V186.114H277.39V185.433H278.246V184.937C278.246 184.426 278.374 184.052 278.629 183.816C278.888 183.576 279.269 183.456 279.774 183.456C279.919 183.456 280.086 183.472 280.275 183.503V184.185C280.146 184.156 279.995 184.142 279.821 184.142C279.314 184.142 279.06 184.415 279.06 184.96V185.433H280.228V186.114H279.06V190.532H278.246ZM281.851 192.382C281.721 192.382 281.6 192.372 281.486 192.353V191.658C281.568 191.674 281.682 191.682 281.827 191.682C282.06 191.682 282.248 191.617 282.39 191.488C282.532 191.362 282.656 191.146 282.763 190.84L282.858 190.537L280.971 185.433H281.851L283.251 189.629H283.326L284.722 185.433H285.587L283.596 190.844C283.378 191.434 283.145 191.838 282.896 192.055C282.65 192.273 282.301 192.382 281.851 192.382ZM289.75 184.161H290.563V185.433H291.746V186.114H290.563V189C290.563 189.299 290.623 189.517 290.743 189.652C290.863 189.788 291.055 189.856 291.32 189.856C291.43 189.856 291.553 189.85 291.689 189.837V190.523C291.509 190.554 291.353 190.57 291.221 190.57C290.694 190.57 290.317 190.464 290.09 190.253C289.863 190.042 289.75 189.693 289.75 189.208V186.114H288.894V185.433H289.75V184.161ZM293.832 189.392C294.094 189.723 294.466 189.889 294.948 189.889C295.431 189.889 295.803 189.723 296.064 189.392C296.326 189.058 296.457 188.588 296.457 187.983C296.457 187.377 296.326 186.909 296.064 186.578C295.803 186.244 295.431 186.077 294.948 186.077C294.466 186.077 294.094 186.244 293.832 186.578C293.57 186.909 293.439 187.377 293.439 187.983C293.439 188.588 293.57 189.058 293.832 189.392ZM296.665 189.917C296.246 190.387 295.673 190.622 294.948 190.622C294.223 190.622 293.649 190.387 293.226 189.917C292.807 189.444 292.597 188.8 292.597 187.983C292.597 187.163 292.807 186.518 293.226 186.048C293.646 185.578 294.22 185.343 294.948 185.343C295.677 185.343 296.25 185.578 296.67 186.048C297.089 186.518 297.299 187.163 297.299 187.983C297.299 188.8 297.088 189.444 296.665 189.917ZM303.344 186.062C302.937 186.062 302.603 186.2 302.341 186.474C302.079 186.748 301.933 187.111 301.901 187.562H304.711C304.701 187.111 304.572 186.748 304.323 186.474C304.074 186.2 303.748 186.062 303.344 186.062ZM304.687 189.213H305.501C305.378 189.654 305.127 189.999 304.749 190.248C304.374 190.498 303.908 190.622 303.353 190.622C302.647 190.622 302.087 190.386 301.674 189.913C301.261 189.436 301.055 188.795 301.055 187.988C301.055 187.183 301.263 186.542 301.679 186.062C302.095 185.583 302.653 185.343 303.353 185.343C304.041 185.343 304.582 185.572 304.976 186.029C305.37 186.487 305.567 187.112 305.567 187.907V188.219H301.901V188.257C301.923 188.762 302.065 189.162 302.327 189.459C302.592 189.755 302.94 189.903 303.372 189.903C304.031 189.903 304.47 189.673 304.687 189.213ZM307.185 190.532V186.114H306.329V185.433H307.185V184.937C307.185 184.426 307.312 184.052 307.568 183.816C307.826 183.576 308.208 183.456 308.713 183.456C308.858 183.456 309.025 183.472 309.214 183.503V184.185C309.085 184.156 308.933 184.142 308.76 184.142C308.252 184.142 307.998 184.415 307.998 184.96V185.433H309.167V186.114H307.998V190.532H307.185ZM310.694 190.532V186.114H309.838V185.433H310.694V184.937C310.694 184.426 310.822 184.052 311.078 183.816C311.336 183.576 311.718 183.456 312.222 183.456C312.367 183.456 312.534 183.472 312.724 183.503V184.185C312.594 184.156 312.443 184.142 312.27 184.142C311.762 184.142 311.508 184.415 311.508 184.96V185.433H312.676V186.114H311.508V190.532H310.694ZM314.625 189.392C314.887 189.723 315.259 189.889 315.741 189.889C316.224 189.889 316.596 189.723 316.858 189.392C317.119 189.058 317.25 188.588 317.25 187.983C317.25 187.377 317.119 186.909 316.858 186.578C316.596 186.244 316.224 186.077 315.741 186.077C315.259 186.077 314.887 186.244 314.625 186.578C314.363 186.909 314.233 187.377 314.233 187.983C314.233 188.588 314.363 189.058 314.625 189.392ZM317.458 189.917C317.039 190.387 316.467 190.622 315.741 190.622C315.016 190.622 314.442 190.387 314.02 189.917C313.6 189.444 313.391 188.8 313.391 187.983C313.391 187.163 313.6 186.518 314.02 186.048C314.439 185.578 315.013 185.343 315.741 185.343C316.47 185.343 317.044 185.578 317.463 186.048C317.883 186.518 318.092 187.163 318.092 187.983C318.092 188.8 317.881 189.444 317.458 189.917ZM319.369 190.532V185.433H320.145V186.19H320.221C320.297 185.941 320.467 185.738 320.732 185.58C320.997 185.422 321.298 185.343 321.635 185.343C321.79 185.343 321.925 185.351 322.042 185.367V186.181C321.932 186.149 321.758 186.133 321.522 186.133C321.134 186.133 320.814 186.25 320.561 186.483C320.309 186.717 320.183 187.013 320.183 187.373V190.532H319.369ZM323.617 184.161H324.431V185.433H325.613V186.114H324.431V189C324.431 189.299 324.491 189.517 324.61 189.652C324.73 189.788 324.923 189.856 325.187 189.856C325.298 189.856 325.421 189.85 325.556 189.837V190.523C325.377 190.554 325.221 190.57 325.088 190.57C324.561 190.57 324.185 190.464 323.958 190.253C323.731 190.042 323.617 189.693 323.617 189.208V186.114H322.761V185.433H323.617V184.161ZM326.843 190.532V183.409H327.657V190.532H326.843ZM331.27 186.062C330.863 186.062 330.529 186.2 330.268 186.474C330.006 186.748 329.859 187.111 329.828 187.562H332.637C332.628 187.111 332.499 186.748 332.249 186.474C332 186.2 331.674 186.062 331.27 186.062ZM332.614 189.213H333.427C333.304 189.654 333.054 189.999 332.675 190.248C332.3 190.498 331.835 190.622 331.28 190.622C330.573 190.622 330.014 190.386 329.601 189.913C329.187 189.436 328.981 188.795 328.981 187.988C328.981 187.183 329.189 186.542 329.605 186.062C330.022 185.583 330.58 185.343 331.28 185.343C331.967 185.343 332.508 185.572 332.902 186.029C333.296 186.487 333.493 187.112 333.493 187.907V188.219H329.828V188.257C329.85 188.762 329.992 189.162 330.253 189.459C330.518 189.755 330.867 189.903 331.299 189.903C331.958 189.903 332.396 189.673 332.614 189.213ZM334.652 186.829C334.652 186.406 334.834 186.053 335.196 185.769C335.559 185.485 336.011 185.343 336.554 185.343C337.087 185.343 337.527 185.466 337.873 185.712C338.22 185.958 338.421 186.291 338.474 186.71H337.67C337.613 186.502 337.487 186.338 337.292 186.218C337.099 186.095 336.852 186.034 336.549 186.034C336.243 186.034 335.986 186.105 335.778 186.247C335.573 186.389 335.471 186.572 335.471 186.796C335.471 186.969 335.542 187.114 335.683 187.231C335.829 187.344 336.052 187.437 336.355 187.51L337.14 187.699C337.626 187.816 337.984 187.984 338.214 188.205C338.447 188.426 338.564 188.718 338.564 189.08C338.564 189.531 338.37 189.902 337.982 190.192C337.594 190.479 337.107 190.622 336.521 190.622C335.953 190.622 335.488 190.496 335.125 190.244C334.763 189.991 334.559 189.654 334.515 189.232H335.352C335.422 189.452 335.559 189.626 335.764 189.752C335.969 189.875 336.231 189.936 336.549 189.936C336.893 189.936 337.175 189.862 337.396 189.714C337.616 189.566 337.727 189.375 337.727 189.142C337.727 188.795 337.457 188.555 336.918 188.423L336.043 188.21C335.56 188.093 335.207 187.926 334.983 187.708C334.763 187.488 334.652 187.194 334.652 186.829ZM339.628 186.829C339.628 186.406 339.81 186.053 340.172 185.769C340.535 185.485 340.987 185.343 341.53 185.343C342.063 185.343 342.503 185.466 342.849 185.712C343.196 185.958 343.397 186.291 343.45 186.71H342.646C342.589 186.502 342.463 186.338 342.268 186.218C342.075 186.095 341.828 186.034 341.525 186.034C341.219 186.034 340.962 186.105 340.754 186.247C340.549 186.389 340.447 186.572 340.447 186.796C340.447 186.969 340.518 187.114 340.659 187.231C340.805 187.344 341.028 187.437 341.331 187.51L342.116 187.699C342.602 187.816 342.96 187.984 343.19 188.205C343.423 188.426 343.54 188.718 343.54 189.08C343.54 189.531 343.346 189.902 342.958 190.192C342.57 190.479 342.083 190.622 341.497 190.622C340.929 190.622 340.464 190.496 340.101 190.244C339.739 189.991 339.535 189.654 339.491 189.232H340.328C340.398 189.452 340.535 189.626 340.74 189.752C340.945 189.875 341.207 189.936 341.525 189.936C341.869 189.936 342.151 189.862 342.372 189.714C342.592 189.566 342.703 189.375 342.703 189.142C342.703 188.795 342.433 188.555 341.894 188.423L341.019 188.21C340.536 188.093 340.183 187.926 339.959 187.708C339.739 187.488 339.628 187.194 339.628 186.829ZM344.865 190.532V183.409H345.678V190.532H344.865ZM347.693 192.382C347.564 192.382 347.442 192.372 347.329 192.353V191.658C347.411 191.674 347.524 191.682 347.669 191.682C347.903 191.682 348.09 191.617 348.232 191.488C348.374 191.362 348.499 191.146 348.606 190.84L348.701 190.537L346.813 185.433H347.693L349.093 189.629H349.169L350.564 185.433H351.43L349.438 190.844C349.221 191.434 348.988 191.838 348.738 192.055C348.492 192.273 348.144 192.382 347.693 192.382ZM355.252 190.532V185.433H356.027V186.237H356.103C356.22 185.954 356.401 185.734 356.647 185.58C356.893 185.422 357.186 185.343 357.527 185.343C357.861 185.343 358.148 185.424 358.388 185.585C358.631 185.745 358.813 185.963 358.936 186.237H359.012C359.151 185.963 359.359 185.745 359.637 185.585C359.914 185.424 360.226 185.343 360.573 185.343C361.093 185.343 361.494 185.488 361.775 185.779C362.055 186.066 362.195 186.475 362.195 187.008V190.532H361.382V187.198C361.382 186.45 361.024 186.077 360.308 186.077C359.961 186.077 359.678 186.19 359.457 186.417C359.236 186.644 359.126 186.923 359.126 187.254V190.532H358.312V187.07C358.312 186.767 358.214 186.526 358.019 186.346C357.826 186.166 357.569 186.077 357.248 186.077C356.917 186.077 356.636 186.203 356.406 186.455C356.179 186.707 356.065 187.013 356.065 187.373V190.532H355.252ZM365.251 189.908C365.671 189.908 366.017 189.787 366.292 189.544C366.569 189.301 366.708 188.997 366.708 188.631V188.163L365.336 188.252C364.952 188.278 364.669 188.358 364.49 188.494C364.31 188.629 364.22 188.826 364.22 189.085C364.22 189.34 364.316 189.542 364.508 189.69C364.701 189.835 364.948 189.908 365.251 189.908ZM365.1 190.622C364.598 190.622 364.185 190.485 363.86 190.211C363.539 189.933 363.378 189.564 363.378 189.104C363.378 188.65 363.539 188.293 363.86 188.035C364.182 187.776 364.641 187.63 365.237 187.595L366.708 187.505V187.041C366.708 186.726 366.61 186.485 366.415 186.318C366.219 186.151 365.932 186.067 365.554 186.067C365.248 186.067 364.994 186.122 364.792 186.233C364.59 186.343 364.461 186.499 364.404 186.701H363.581C363.635 186.294 363.845 185.966 364.21 185.717C364.579 185.468 365.037 185.343 365.582 185.343C366.2 185.343 366.678 185.493 367.015 185.793C367.353 186.092 367.522 186.509 367.522 187.041V190.532H366.746V189.78H366.67C366.506 190.051 366.289 190.26 366.017 190.405C365.746 190.55 365.44 190.622 365.1 190.622ZM369.026 190.532V185.433H369.801V186.237H369.877C370.006 185.954 370.213 185.734 370.497 185.58C370.781 185.422 371.116 185.343 371.504 185.343C372.075 185.343 372.515 185.507 372.824 185.835C373.133 186.16 373.287 186.625 373.287 187.231V190.532H372.474V187.429C372.474 186.972 372.375 186.633 372.176 186.412C371.98 186.189 371.679 186.077 371.272 186.077C370.825 186.077 370.473 186.204 370.218 186.46C369.965 186.715 369.839 187.067 369.839 187.515V190.532H369.026ZM376.348 189.908C376.767 189.908 377.114 189.787 377.388 189.544C377.666 189.301 377.805 188.997 377.805 188.631V188.163L376.433 188.252C376.048 188.278 375.766 188.358 375.586 188.494C375.407 188.629 375.317 188.826 375.317 189.085C375.317 189.34 375.413 189.542 375.605 189.69C375.798 189.835 376.045 189.908 376.348 189.908ZM376.196 190.622C375.695 190.622 375.282 190.485 374.957 190.211C374.636 189.933 374.475 189.564 374.475 189.104C374.475 188.65 374.636 188.293 374.957 188.035C375.279 187.776 375.738 187.63 376.334 187.595L377.805 187.505V187.041C377.805 186.726 377.707 186.485 377.511 186.318C377.316 186.151 377.029 186.067 376.651 186.067C376.345 186.067 376.091 186.122 375.889 186.233C375.687 186.343 375.558 186.499 375.501 186.701H374.678C374.732 186.294 374.941 185.966 375.307 185.717C375.676 185.468 376.133 185.343 376.679 185.343C377.297 185.343 377.775 185.493 378.112 185.793C378.45 186.092 378.618 186.509 378.618 187.041V190.532H377.843V189.78H377.767C377.603 190.051 377.385 190.26 377.114 190.405C376.843 190.55 376.537 190.622 376.196 190.622ZM383.698 187.907C383.698 187.349 383.563 186.904 383.292 186.573C383.02 186.242 382.651 186.077 382.185 186.077C381.718 186.077 381.355 186.241 381.097 186.568C380.838 186.896 380.709 187.343 380.709 187.907C380.709 188.472 380.838 188.918 381.097 189.246C381.355 189.574 381.718 189.738 382.185 189.738C382.655 189.738 383.024 189.574 383.292 189.246C383.563 188.915 383.698 188.468 383.698 187.907ZM382.223 192.491C381.614 192.491 381.12 192.364 380.742 192.112C380.367 191.86 380.148 191.521 380.085 191.095H380.945C380.99 191.306 381.124 191.474 381.348 191.597C381.571 191.72 381.863 191.781 382.223 191.781C382.68 191.781 383.036 191.674 383.292 191.459C383.55 191.248 383.679 190.955 383.679 190.58V189.577H383.604C383.443 189.857 383.224 190.075 382.946 190.23C382.669 190.381 382.355 190.457 382.005 190.457C381.349 190.457 380.829 190.225 380.444 189.761C380.059 189.295 379.867 188.677 379.867 187.907C379.867 187.138 380.061 186.518 380.449 186.048C380.837 185.578 381.355 185.343 382.005 185.343C382.361 185.343 382.686 185.425 382.979 185.589C383.273 185.75 383.493 185.968 383.642 186.242H383.717V185.433H384.493V190.622C384.493 191.193 384.288 191.647 383.878 191.984C383.468 192.322 382.916 192.491 382.223 192.491ZM388.06 186.062C387.653 186.062 387.318 186.2 387.057 186.474C386.795 186.748 386.648 187.111 386.617 187.562H389.426C389.417 187.111 389.288 186.748 389.039 186.474C388.79 186.2 388.463 186.062 388.06 186.062ZM389.403 189.213H390.216C390.093 189.654 389.843 189.999 389.464 190.248C389.089 190.498 388.624 190.622 388.069 190.622C387.363 190.622 386.803 190.386 386.39 189.913C385.977 189.436 385.77 188.795 385.77 187.988C385.77 187.183 385.978 186.542 386.395 186.062C386.811 185.583 387.369 185.343 388.069 185.343C388.756 185.343 389.297 185.572 389.691 186.029C390.086 186.487 390.283 187.112 390.283 187.907V188.219H386.617V188.257C386.639 188.762 386.781 189.162 387.043 189.459C387.307 189.755 387.656 189.903 388.088 189.903C388.747 189.903 389.185 189.673 389.403 189.213ZM394.729 192.382C394.6 192.382 394.478 192.372 394.365 192.353V191.658C394.447 191.674 394.56 191.682 394.705 191.682C394.939 191.682 395.126 191.617 395.268 191.488C395.41 191.362 395.535 191.146 395.642 190.84L395.736 190.537L393.849 185.433H394.729L396.129 189.629H396.205L397.6 185.433H398.466L396.474 190.844C396.257 191.434 396.023 191.838 395.774 192.055C395.528 192.273 395.18 192.382 394.729 192.382ZM400.343 189.392C400.605 189.723 400.977 189.889 401.46 189.889C401.942 189.889 402.314 189.723 402.576 189.392C402.838 189.058 402.969 188.588 402.969 187.983C402.969 187.377 402.838 186.909 402.576 186.578C402.314 186.244 401.942 186.077 401.46 186.077C400.977 186.077 400.605 186.244 400.343 186.578C400.082 186.909 399.951 187.377 399.951 187.983C399.951 188.588 400.082 189.058 400.343 189.392ZM403.177 189.917C402.757 190.387 402.185 190.622 401.46 190.622C400.735 190.622 400.161 190.387 399.738 189.917C399.319 189.444 399.109 188.8 399.109 187.983C399.109 187.163 399.319 186.518 399.738 186.048C400.157 185.578 400.731 185.343 401.46 185.343C402.188 185.343 402.762 185.578 403.182 186.048C403.601 186.518 403.811 187.163 403.811 187.983C403.811 188.8 403.599 189.444 403.177 189.917ZM409.307 185.433V190.532H408.531V189.733H408.456C408.329 190.017 408.124 190.236 407.841 190.39C407.557 190.545 407.219 190.622 406.828 190.622C406.258 190.622 405.816 190.458 405.504 190.13C405.195 189.802 405.04 189.337 405.04 188.735V185.433H405.854V188.536C405.854 188.993 405.952 189.332 406.147 189.553C406.346 189.771 406.649 189.88 407.055 189.88C407.506 189.88 407.858 189.753 408.11 189.501C408.366 189.249 408.493 188.899 408.493 188.451V185.433H409.307ZM410.84 190.532V185.433H411.615V186.19H411.691C411.767 185.941 411.937 185.738 412.202 185.58C412.467 185.422 412.768 185.343 413.105 185.343C413.26 185.343 413.395 185.351 413.512 185.367V186.181C413.402 186.149 413.228 186.133 412.992 186.133C412.604 186.133 412.284 186.25 412.031 186.483C411.779 186.717 411.653 187.013 411.653 187.373V190.532H410.84ZM153.273 202.829C153.273 202.406 153.454 202.053 153.817 201.769C154.18 201.485 154.632 201.343 155.175 201.343C155.707 201.343 156.147 201.466 156.494 201.712C156.841 201.958 157.041 202.291 157.095 202.71H156.291C156.234 202.502 156.108 202.338 155.912 202.218C155.72 202.095 155.473 202.034 155.17 202.034C154.864 202.034 154.607 202.105 154.399 202.247C154.194 202.389 154.091 202.572 154.091 202.796C154.091 202.969 154.162 203.114 154.304 203.231C154.449 203.344 154.673 203.437 154.976 203.51L155.761 203.699C156.247 203.816 156.605 203.984 156.835 204.205C157.068 204.426 157.185 204.718 157.185 205.08C157.185 205.531 156.991 205.902 156.603 206.192C156.215 206.479 155.728 206.622 155.141 206.622C154.574 206.622 154.109 206.496 153.746 206.244C153.383 205.991 153.18 205.654 153.136 205.232H153.973C154.042 205.452 154.18 205.626 154.385 205.752C154.59 205.875 154.851 205.936 155.17 205.936C155.513 205.936 155.796 205.862 156.016 205.714C156.237 205.566 156.348 205.375 156.348 205.142C156.348 204.795 156.078 204.555 155.539 204.423L154.664 204.21C154.181 204.093 153.828 203.926 153.604 203.708C153.383 203.488 153.273 203.194 153.273 202.829ZM158.755 200.161H159.569V201.433H160.751V202.114H159.569V205C159.569 205.299 159.629 205.517 159.748 205.652C159.868 205.788 160.061 205.856 160.326 205.856C160.436 205.856 160.559 205.85 160.694 205.837V206.523C160.515 206.554 160.359 206.57 160.226 206.57C159.7 206.57 159.323 206.464 159.096 206.253C158.869 206.042 158.755 205.693 158.755 205.208V202.114H157.899V201.433H158.755V200.161ZM162.837 205.392C163.099 205.723 163.471 205.889 163.954 205.889C164.436 205.889 164.808 205.723 165.07 205.392C165.332 205.058 165.462 204.588 165.462 203.983C165.462 203.377 165.332 202.909 165.07 202.578C164.808 202.244 164.436 202.077 163.954 202.077C163.471 202.077 163.099 202.244 162.837 202.578C162.575 202.909 162.445 203.377 162.445 203.983C162.445 204.588 162.575 205.058 162.837 205.392ZM165.671 205.917C165.251 206.387 164.679 206.622 163.954 206.622C163.228 206.622 162.654 206.387 162.232 205.917C161.812 205.444 161.603 204.8 161.603 203.983C161.603 203.163 161.812 202.518 162.232 202.048C162.651 201.578 163.225 201.343 163.954 201.343C164.682 201.343 165.256 201.578 165.675 202.048C166.095 202.518 166.304 203.163 166.304 203.983C166.304 204.8 166.093 205.444 165.671 205.917ZM167.581 206.532V201.433H168.357V202.19H168.433C168.509 201.941 168.679 201.738 168.944 201.58C169.209 201.422 169.51 201.343 169.847 201.343C170.002 201.343 170.137 201.351 170.254 201.367V202.181C170.144 202.149 169.97 202.133 169.734 202.133C169.346 202.133 169.026 202.25 168.773 202.483C168.521 202.717 168.395 203.013 168.395 203.373V206.532H167.581ZM173.163 202.062C172.756 202.062 172.422 202.2 172.16 202.474C171.898 202.748 171.752 203.111 171.72 203.562H174.53C174.52 203.111 174.391 202.748 174.142 202.474C173.893 202.2 173.567 202.062 173.163 202.062ZM174.506 205.213H175.32C175.197 205.654 174.946 205.999 174.568 206.248C174.193 206.498 173.727 206.622 173.172 206.622C172.466 206.622 171.906 206.386 171.493 205.913C171.08 205.436 170.874 204.795 170.874 203.988C170.874 203.183 171.082 202.542 171.498 202.062C171.914 201.583 172.472 201.343 173.172 201.343C173.86 201.343 174.401 201.572 174.795 202.029C175.189 202.487 175.386 203.112 175.386 203.907V204.219H171.72V204.257C171.742 204.762 171.884 205.162 172.146 205.459C172.411 205.755 172.759 205.903 173.191 205.903C173.85 205.903 174.289 205.673 174.506 205.213ZM177.335 202.256H176.578L177.226 199.707H178.078L177.335 202.256ZM178.796 202.829C178.796 202.406 178.978 202.053 179.34 201.769C179.703 201.485 180.156 201.343 180.698 201.343C181.231 201.343 181.671 201.466 182.018 201.712C182.365 201.958 182.565 202.291 182.618 202.71H181.814C181.758 202.502 181.631 202.338 181.436 202.218C181.244 202.095 180.996 202.034 180.693 202.034C180.387 202.034 180.13 202.105 179.922 202.247C179.717 202.389 179.615 202.572 179.615 202.796C179.615 202.969 179.686 203.114 179.828 203.231C179.973 203.344 180.197 203.437 180.499 203.51L181.284 203.699C181.77 203.816 182.128 203.984 182.358 204.205C182.592 204.426 182.708 204.718 182.708 205.08C182.708 205.531 182.514 205.902 182.126 206.192C181.739 206.479 181.251 206.622 180.665 206.622C180.097 206.622 179.632 206.496 179.269 206.244C178.907 205.991 178.703 205.654 178.659 205.232H179.497C179.566 205.452 179.703 205.626 179.908 205.752C180.113 205.875 180.375 205.936 180.693 205.936C181.037 205.936 181.319 205.862 181.54 205.714C181.761 205.566 181.871 205.375 181.871 205.142C181.871 204.795 181.601 204.555 181.062 204.423L180.187 204.21C179.705 204.093 179.351 203.926 179.128 203.708C178.907 203.488 178.796 203.194 178.796 202.829ZM189.203 201.343C189.852 201.343 190.371 201.583 190.759 202.062C191.15 202.542 191.345 203.182 191.345 203.983C191.345 204.781 191.15 205.421 190.759 205.903C190.368 206.383 189.849 206.622 189.203 206.622C188.84 206.622 188.518 206.548 188.238 206.4C187.957 206.248 187.747 206.037 187.609 205.766H187.533V208.235H186.719V201.433H187.495V202.285H187.571C187.735 201.991 187.96 201.761 188.247 201.594C188.537 201.427 188.856 201.343 189.203 201.343ZM189.009 205.889C189.475 205.889 189.841 205.72 190.106 205.383C190.371 205.045 190.503 204.579 190.503 203.983C190.503 203.387 190.371 202.92 190.106 202.583C189.844 202.245 189.48 202.077 189.013 202.077C188.553 202.077 188.187 202.248 187.916 202.592C187.645 202.933 187.509 203.396 187.509 203.983C187.509 204.566 187.643 205.03 187.911 205.373C188.183 205.717 188.548 205.889 189.009 205.889ZM192.622 206.532V201.433H193.398V202.19H193.474C193.55 201.941 193.72 201.738 193.985 201.58C194.25 201.422 194.551 201.343 194.888 201.343C195.043 201.343 195.178 201.351 195.295 201.367V202.181C195.185 202.149 195.011 202.133 194.775 202.133C194.387 202.133 194.067 202.25 193.814 202.483C193.562 202.717 193.436 203.013 193.436 203.373V206.532H192.622ZM197.149 205.392C197.411 205.723 197.783 205.889 198.265 205.889C198.748 205.889 199.12 205.723 199.382 205.392C199.643 205.058 199.774 204.588 199.774 203.983C199.774 203.377 199.643 202.909 199.382 202.578C199.12 202.244 198.748 202.077 198.265 202.077C197.783 202.077 197.411 202.244 197.149 202.578C196.887 202.909 196.757 203.377 196.757 203.983C196.757 204.588 196.887 205.058 197.149 205.392ZM199.982 205.917C199.563 206.387 198.991 206.622 198.265 206.622C197.54 206.622 196.966 206.387 196.544 205.917C196.124 205.444 195.915 204.8 195.915 203.983C195.915 203.163 196.124 202.518 196.544 202.048C196.963 201.578 197.537 201.343 198.265 201.343C198.994 201.343 199.568 201.578 199.987 202.048C200.407 202.518 200.616 203.163 200.616 203.983C200.616 204.8 200.405 205.444 199.982 205.917ZM203.781 206.622C203.128 206.622 202.608 206.383 202.22 205.903C201.832 205.424 201.638 204.784 201.638 203.983C201.638 203.185 201.832 202.546 202.22 202.067C202.611 201.585 203.131 201.343 203.781 201.343C204.137 201.343 204.456 201.424 204.736 201.585C205.02 201.742 205.234 201.96 205.379 202.237H205.45V199.409H206.264V206.532H205.488V205.719H205.413C205.252 206.003 205.028 206.225 204.741 206.386C204.454 206.543 204.134 206.622 203.781 206.622ZM203.97 202.077C203.506 202.077 203.142 202.247 202.877 202.587C202.612 202.925 202.48 203.39 202.48 203.983C202.48 204.579 202.611 205.045 202.873 205.383C203.137 205.72 203.503 205.889 203.97 205.889C204.433 205.889 204.799 205.719 205.067 205.378C205.335 205.038 205.469 204.572 205.469 203.983C205.469 203.399 205.334 202.936 205.063 202.592C204.795 202.248 204.43 202.077 203.97 202.077ZM212.063 201.433V206.532H211.287V205.733H211.212C211.086 206.017 210.881 206.236 210.597 206.39C210.313 206.545 209.976 206.622 209.585 206.622C209.014 206.622 208.572 206.458 208.26 206.13C207.951 205.802 207.797 205.337 207.797 204.735V201.433H208.61V204.536C208.61 204.993 208.708 205.332 208.903 205.553C209.102 205.771 209.405 205.88 209.812 205.88C210.262 205.88 210.614 205.753 210.866 205.501C211.122 205.249 211.249 204.899 211.249 204.451V201.433H212.063ZM217.815 202.994H216.992C216.922 202.726 216.773 202.507 216.542 202.337C216.315 202.163 216.027 202.077 215.677 202.077C215.22 202.077 214.855 202.247 214.584 202.587C214.316 202.928 214.182 203.387 214.182 203.964C214.182 204.55 214.318 205.019 214.589 205.369C214.86 205.716 215.223 205.889 215.677 205.889C216.021 205.889 216.306 205.812 216.533 205.657C216.763 205.503 216.916 205.282 216.992 204.995H217.815C217.739 205.477 217.514 205.87 217.138 206.173C216.763 206.472 216.278 206.622 215.682 206.622C214.966 206.622 214.397 206.383 213.974 205.903C213.551 205.421 213.34 204.774 213.34 203.964C213.34 203.169 213.551 202.534 213.974 202.058C214.397 201.581 214.964 201.343 215.677 201.343C216.273 201.343 216.758 201.499 217.134 201.812C217.512 202.124 217.739 202.518 217.815 202.994ZM219.451 200.161H220.265V201.433H221.448V202.114H220.265V205C220.265 205.299 220.325 205.517 220.445 205.652C220.565 205.788 220.757 205.856 221.022 205.856C221.132 205.856 221.255 205.85 221.391 205.837V206.523C221.211 206.554 221.055 206.57 220.922 206.57C220.396 206.57 220.019 206.464 219.792 206.253C219.565 206.042 219.451 205.693 219.451 205.208V202.114H218.595V201.433H219.451V200.161ZM222.417 202.829C222.417 202.406 222.599 202.053 222.961 201.769C223.324 201.485 223.776 201.343 224.319 201.343C224.852 201.343 225.291 201.466 225.638 201.712C225.985 201.958 226.185 202.291 226.239 202.71H225.435C225.378 202.502 225.252 202.338 225.057 202.218C224.864 202.095 224.617 202.034 224.314 202.034C224.008 202.034 223.751 202.105 223.543 202.247C223.338 202.389 223.235 202.572 223.235 202.796C223.235 202.969 223.306 203.114 223.448 203.231C223.593 203.344 223.817 203.437 224.12 203.51L224.905 203.699C225.391 203.816 225.749 203.984 225.979 204.205C226.212 204.426 226.329 204.718 226.329 205.08C226.329 205.531 226.135 205.902 225.747 206.192C225.359 206.479 224.872 206.622 224.286 206.622C223.718 206.622 223.253 206.496 222.89 206.244C222.528 205.991 222.324 205.654 222.28 205.232H223.117C223.187 205.452 223.324 205.626 223.529 205.752C223.734 205.875 223.995 205.936 224.314 205.936C224.658 205.936 224.94 205.862 225.161 205.714C225.381 205.566 225.492 205.375 225.492 205.142C225.492 204.795 225.222 204.555 224.683 204.423L223.808 204.21C223.325 204.093 222.972 203.926 222.748 203.708C222.528 203.488 222.417 203.194 222.417 202.829ZM228.07 208.268H227.36L227.814 205.577H228.77L228.07 208.268ZM234.29 205.392C234.551 205.723 234.923 205.889 235.406 205.889C235.888 205.889 236.261 205.723 236.522 205.392C236.784 205.058 236.915 204.588 236.915 203.983C236.915 203.377 236.784 202.909 236.522 202.578C236.261 202.244 235.888 202.077 235.406 202.077C234.923 202.077 234.551 202.244 234.29 202.578C234.028 202.909 233.897 203.377 233.897 203.983C233.897 204.588 234.028 205.058 234.29 205.392ZM237.123 205.917C236.704 206.387 236.131 206.622 235.406 206.622C234.681 206.622 234.107 206.387 233.684 205.917C233.265 205.444 233.055 204.8 233.055 203.983C233.055 203.163 233.265 202.518 233.684 202.048C234.104 201.578 234.678 201.343 235.406 201.343C236.134 201.343 236.708 201.578 237.128 202.048C237.547 202.518 237.757 203.163 237.757 203.983C237.757 204.8 237.546 205.444 237.123 205.917ZM239.034 206.532V201.433H239.81V202.19H239.885C239.961 201.941 240.131 201.738 240.396 201.58C240.661 201.422 240.962 201.343 241.3 201.343C241.454 201.343 241.59 201.351 241.706 201.367V202.181C241.596 202.149 241.423 202.133 241.186 202.133C240.798 202.133 240.478 202.25 240.226 202.483C239.974 202.717 239.847 203.013 239.847 203.373V206.532H239.034ZM244.469 206.622C243.816 206.622 243.296 206.383 242.908 205.903C242.52 205.424 242.326 204.784 242.326 203.983C242.326 203.185 242.52 202.546 242.908 202.067C243.299 201.585 243.819 201.343 244.469 201.343C244.825 201.343 245.144 201.424 245.424 201.585C245.708 201.742 245.922 201.96 246.068 202.237H246.138V199.409H246.952V206.532H246.176V205.719H246.101C245.94 206.003 245.716 206.225 245.429 206.386C245.142 206.543 244.822 206.622 244.469 206.622ZM244.658 202.077C244.194 202.077 243.83 202.247 243.565 202.587C243.3 202.925 243.168 203.39 243.168 203.983C243.168 204.579 243.299 205.045 243.561 205.383C243.825 205.72 244.191 205.889 244.658 205.889C245.122 205.889 245.487 205.719 245.755 205.378C246.023 205.038 246.157 204.572 246.157 203.983C246.157 203.399 246.022 202.936 245.751 202.592C245.483 202.248 245.118 202.077 244.658 202.077ZM250.566 202.062C250.159 202.062 249.825 202.2 249.563 202.474C249.301 202.748 249.155 203.111 249.123 203.562H251.933C251.923 203.111 251.794 202.748 251.545 202.474C251.296 202.2 250.969 202.062 250.566 202.062ZM251.909 205.213H252.723C252.6 205.654 252.349 205.999 251.971 206.248C251.595 206.498 251.13 206.622 250.575 206.622C249.869 206.622 249.309 206.386 248.896 205.913C248.483 205.436 248.276 204.795 248.276 203.988C248.276 203.183 248.485 202.542 248.901 202.062C249.317 201.583 249.875 201.343 250.575 201.343C251.263 201.343 251.804 201.572 252.198 202.029C252.592 202.487 252.789 203.112 252.789 203.907V204.219H249.123V204.257C249.145 204.762 249.287 205.162 249.549 205.459C249.814 205.755 250.162 205.903 250.594 205.903C251.253 205.903 251.692 205.673 251.909 205.213ZM254.066 206.532V201.433H254.842V202.19H254.917C254.993 201.941 255.163 201.738 255.428 201.58C255.693 201.422 255.994 201.343 256.332 201.343C256.486 201.343 256.622 201.351 256.739 201.367V202.181C256.628 202.149 256.455 202.133 256.218 202.133C255.83 202.133 255.51 202.25 255.258 202.483C255.006 202.717 254.88 203.013 254.88 203.373V206.532H254.066ZM257.476 202.829C257.476 202.406 257.658 202.053 258.02 201.769C258.383 201.485 258.836 201.343 259.378 201.343C259.911 201.343 260.351 201.466 260.698 201.712C261.045 201.958 261.245 202.291 261.298 202.71H260.494C260.437 202.502 260.311 202.338 260.116 202.218C259.923 202.095 259.676 202.034 259.373 202.034C259.067 202.034 258.81 202.105 258.602 202.247C258.397 202.389 258.295 202.572 258.295 202.796C258.295 202.969 258.366 203.114 258.508 203.231C258.653 203.344 258.877 203.437 259.179 203.51L259.964 203.699C260.45 203.816 260.808 203.984 261.038 204.205C261.272 204.426 261.388 204.718 261.388 205.08C261.388 205.531 261.194 205.902 260.806 206.192C260.419 206.479 259.931 206.622 259.345 206.622C258.777 206.622 258.312 206.496 257.949 206.244C257.587 205.991 257.383 205.654 257.339 205.232H258.177C258.246 205.452 258.383 205.626 258.588 205.752C258.793 205.875 259.055 205.936 259.373 205.936C259.717 205.936 259.999 205.862 260.22 205.714C260.441 205.566 260.551 205.375 260.551 205.142C260.551 204.795 260.281 204.555 259.742 204.423L258.867 204.21C258.385 204.093 258.031 203.926 257.808 203.708C257.587 203.488 257.476 203.194 257.476 202.829ZM263.129 208.268H262.419L262.873 205.577H263.829L263.129 208.268ZM269.94 205.908C270.36 205.908 270.706 205.787 270.981 205.544C271.258 205.301 271.397 204.997 271.397 204.631V204.163L270.025 204.252C269.641 204.278 269.358 204.358 269.179 204.494C268.999 204.629 268.909 204.826 268.909 205.085C268.909 205.34 269.005 205.542 269.198 205.69C269.39 205.835 269.637 205.908 269.94 205.908ZM269.789 206.622C269.287 206.622 268.874 206.485 268.55 206.211C268.228 205.933 268.067 205.564 268.067 205.104C268.067 204.65 268.228 204.293 268.55 204.035C268.871 203.776 269.33 203.63 269.926 203.595L271.397 203.505V203.041C271.397 202.726 271.299 202.485 271.104 202.318C270.908 202.151 270.621 202.067 270.243 202.067C269.937 202.067 269.683 202.122 269.481 202.233C269.28 202.343 269.15 202.499 269.094 202.701H268.27C268.324 202.294 268.534 201.966 268.9 201.717C269.269 201.468 269.726 201.343 270.271 201.343C270.889 201.343 271.367 201.493 271.705 201.793C272.042 202.092 272.211 202.509 272.211 203.041V206.532H271.435V205.78H271.359C271.195 206.051 270.978 206.26 270.706 206.405C270.435 206.55 270.129 206.622 269.789 206.622ZM273.715 206.532V201.433H274.491V202.237H274.566C274.695 201.954 274.902 201.734 275.186 201.58C275.47 201.422 275.805 201.343 276.193 201.343C276.764 201.343 277.204 201.507 277.513 201.835C277.822 202.16 277.977 202.625 277.977 203.231V206.532H277.163V203.429C277.163 202.972 277.064 202.633 276.865 202.412C276.67 202.189 276.368 202.077 275.962 202.077C275.514 202.077 275.162 202.204 274.907 202.46C274.655 202.715 274.528 203.067 274.528 203.515V206.532H273.715ZM281.354 206.622C280.701 206.622 280.181 206.383 279.793 205.903C279.405 205.424 279.211 204.784 279.211 203.983C279.211 203.185 279.405 202.546 279.793 202.067C280.184 201.585 280.704 201.343 281.354 201.343C281.71 201.343 282.029 201.424 282.309 201.585C282.593 201.742 282.808 201.96 282.953 202.237H283.024V199.409H283.837V206.532H283.061V205.719H282.986C282.825 206.003 282.601 206.225 282.314 206.386C282.027 206.543 281.707 206.622 281.354 206.622ZM281.543 202.077C281.08 202.077 280.715 202.247 280.45 202.587C280.186 202.925 280.053 203.39 280.053 203.983C280.053 204.579 280.184 205.045 280.446 205.383C280.711 205.72 281.076 205.889 281.543 205.889C282.007 205.889 282.372 205.719 282.64 205.378C282.908 205.038 283.042 204.572 283.042 203.983C283.042 203.399 282.907 202.936 282.636 202.592C282.368 202.248 282.003 202.077 281.543 202.077ZM292.37 202.994H291.547C291.478 202.726 291.328 202.507 291.098 202.337C290.871 202.163 290.582 202.077 290.232 202.077C289.775 202.077 289.411 202.247 289.14 202.587C288.872 202.928 288.737 203.387 288.737 203.964C288.737 204.55 288.873 205.019 289.144 205.369C289.415 205.716 289.778 205.889 290.232 205.889C290.576 205.889 290.861 205.812 291.088 205.657C291.319 205.503 291.471 205.282 291.547 204.995H292.37C292.295 205.477 292.069 205.87 291.694 206.173C291.319 206.472 290.833 206.622 290.237 206.622C289.521 206.622 288.952 206.383 288.529 205.903C288.107 205.421 287.896 204.774 287.896 203.964C287.896 203.169 288.107 202.534 288.529 202.058C288.952 201.581 289.52 201.343 290.232 201.343C290.828 201.343 291.314 201.499 291.689 201.812C292.067 202.124 292.295 202.518 292.37 202.994ZM297.791 201.433V206.532H297.015V205.733H296.939C296.813 206.017 296.608 206.236 296.325 206.39C296.041 206.545 295.703 206.622 295.312 206.622C294.742 206.622 294.3 206.458 293.988 206.13C293.679 205.802 293.524 205.337 293.524 204.735V201.433H294.338V204.536C294.338 204.993 294.436 205.332 294.631 205.553C294.83 205.771 295.133 205.88 295.539 205.88C295.99 205.88 296.342 205.753 296.594 205.501C296.85 205.249 296.977 204.899 296.977 204.451V201.433H297.791ZM299.205 202.829C299.205 202.406 299.386 202.053 299.749 201.769C300.112 201.485 300.564 201.343 301.107 201.343C301.64 201.343 302.079 201.466 302.426 201.712C302.773 201.958 302.973 202.291 303.027 202.71H302.223C302.166 202.502 302.04 202.338 301.845 202.218C301.652 202.095 301.405 202.034 301.102 202.034C300.796 202.034 300.539 202.105 300.331 202.247C300.126 202.389 300.023 202.572 300.023 202.796C300.023 202.969 300.094 203.114 300.236 203.231C300.381 203.344 300.605 203.437 300.908 203.51L301.693 203.699C302.179 203.816 302.537 203.984 302.767 204.205C303 204.426 303.117 204.718 303.117 205.08C303.117 205.531 302.923 205.902 302.535 206.192C302.147 206.479 301.66 206.622 301.074 206.622C300.506 206.622 300.041 206.496 299.678 206.244C299.316 205.991 299.112 205.654 299.068 205.232H299.905C299.975 205.452 300.112 205.626 300.317 205.752C300.522 205.875 300.783 205.936 301.102 205.936C301.446 205.936 301.728 205.862 301.949 205.714C302.169 205.566 302.28 205.375 302.28 205.142C302.28 204.795 302.01 204.555 301.471 204.423L300.596 204.21C300.113 204.093 299.76 203.926 299.536 203.708C299.316 203.488 299.205 203.194 299.205 202.829ZM304.687 200.161H305.501V201.433H306.683V202.114H305.501V205C305.501 205.299 305.561 205.517 305.681 205.652C305.8 205.788 305.993 205.856 306.258 205.856C306.368 205.856 306.491 205.85 306.627 205.837V206.523C306.447 206.554 306.291 206.57 306.158 206.57C305.632 206.57 305.255 206.464 305.028 206.253C304.801 206.042 304.687 205.693 304.687 205.208V202.114H303.831V201.433H304.687V200.161ZM308.769 205.392C309.031 205.723 309.403 205.889 309.886 205.889C310.368 205.889 310.74 205.723 311.002 205.392C311.264 205.058 311.395 204.588 311.395 203.983C311.395 203.377 311.264 202.909 311.002 202.578C310.74 202.244 310.368 202.077 309.886 202.077C309.403 202.077 309.031 202.244 308.769 202.578C308.508 202.909 308.377 203.377 308.377 203.983C308.377 204.588 308.508 205.058 308.769 205.392ZM311.603 205.917C311.183 206.387 310.611 206.622 309.886 206.622C309.16 206.622 308.586 206.387 308.164 205.917C307.744 205.444 307.535 204.8 307.535 203.983C307.535 203.163 307.744 202.518 308.164 202.048C308.583 201.578 309.157 201.343 309.886 201.343C310.614 201.343 311.188 201.578 311.607 202.048C312.027 202.518 312.236 203.163 312.236 203.983C312.236 204.8 312.025 205.444 311.603 205.917ZM313.514 206.532V201.433H314.289V202.237H314.365C314.482 201.954 314.663 201.734 314.909 201.58C315.155 201.422 315.448 201.343 315.789 201.343C316.123 201.343 316.41 201.424 316.65 201.585C316.892 201.745 317.075 201.963 317.198 202.237H317.274C317.413 201.963 317.621 201.745 317.898 201.585C318.176 201.424 318.488 201.343 318.835 201.343C319.355 201.343 319.756 201.488 320.036 201.779C320.317 202.066 320.457 202.475 320.457 203.008V206.532H319.644V203.198C319.644 202.45 319.286 202.077 318.57 202.077C318.223 202.077 317.939 202.19 317.719 202.417C317.498 202.644 317.388 202.923 317.388 203.254V206.532H316.574V203.07C316.574 202.767 316.476 202.526 316.281 202.346C316.088 202.166 315.831 202.077 315.51 202.077C315.179 202.077 314.898 202.203 314.668 202.455C314.441 202.707 314.327 203.013 314.327 203.373V206.532H313.514ZM323.977 202.062C323.57 202.062 323.235 202.2 322.974 202.474C322.712 202.748 322.565 203.111 322.534 203.562H325.344C325.334 203.111 325.205 202.748 324.956 202.474C324.707 202.2 324.38 202.062 323.977 202.062ZM325.32 205.213H326.133C326.01 205.654 325.76 205.999 325.381 206.248C325.006 206.498 324.541 206.622 323.986 206.622C323.28 206.622 322.72 206.386 322.307 205.913C321.894 205.436 321.687 204.795 321.687 203.988C321.687 203.183 321.895 202.542 322.312 202.062C322.728 201.583 323.286 201.343 323.986 201.343C324.673 201.343 325.214 201.572 325.608 202.029C326.003 202.487 326.2 203.112 326.2 203.907V204.219H322.534V204.257C322.556 204.762 322.698 205.162 322.96 205.459C323.224 205.755 323.573 205.903 324.005 205.903C324.664 205.903 325.102 205.673 325.32 205.213ZM327.477 206.532V201.433H328.252V202.19H328.328C328.404 201.941 328.574 201.738 328.839 201.58C329.104 201.422 329.405 201.343 329.742 201.343C329.897 201.343 330.033 201.351 330.149 201.367V202.181C330.039 202.149 329.865 202.133 329.629 202.133C329.241 202.133 328.921 202.25 328.669 202.483C328.416 202.717 328.29 203.013 328.29 203.373V206.532H327.477ZM330.887 202.829C330.887 202.406 331.068 202.053 331.431 201.769C331.794 201.485 332.246 201.343 332.789 201.343C333.322 201.343 333.761 201.466 334.108 201.712C334.455 201.958 334.655 202.291 334.709 202.71H333.905C333.848 202.502 333.722 202.338 333.527 202.218C333.334 202.095 333.087 202.034 332.784 202.034C332.478 202.034 332.221 202.105 332.013 202.247C331.808 202.389 331.705 202.572 331.705 202.796C331.705 202.969 331.776 203.114 331.918 203.231C332.063 203.344 332.287 203.437 332.59 203.51L333.375 203.699C333.861 203.816 334.219 203.984 334.449 204.205C334.682 204.426 334.799 204.718 334.799 205.08C334.799 205.531 334.605 205.902 334.217 206.192C333.829 206.479 333.342 206.622 332.756 206.622C332.188 206.622 331.723 206.496 331.36 206.244C330.998 205.991 330.794 205.654 330.75 205.232H331.587C331.657 205.452 331.794 205.626 331.999 205.752C332.204 205.875 332.465 205.936 332.784 205.936C333.128 205.936 333.41 205.862 333.631 205.714C333.851 205.566 333.962 205.375 333.962 205.142C333.962 204.795 333.692 204.555 333.153 204.423L332.278 204.21C331.795 204.093 331.442 203.926 331.218 203.708C330.998 203.488 330.887 203.194 330.887 202.829ZM344.997 204.172H335.31V203.401H344.997V204.172ZM347.334 205.908C347.753 205.908 348.1 205.787 348.374 205.544C348.652 205.301 348.79 204.997 348.79 204.631V204.163L347.419 204.252C347.034 204.278 346.752 204.358 346.572 204.494C346.392 204.629 346.302 204.826 346.302 205.085C346.302 205.34 346.399 205.542 346.591 205.69C346.783 205.835 347.031 205.908 347.334 205.908ZM347.182 206.622C346.681 206.622 346.268 206.485 345.943 206.211C345.621 205.933 345.46 205.564 345.46 205.104C345.46 204.65 345.621 204.293 345.943 204.035C346.265 203.776 346.723 203.63 347.319 203.595L348.79 203.505V203.041C348.79 202.726 348.693 202.485 348.497 202.318C348.302 202.151 348.015 202.067 347.636 202.067C347.33 202.067 347.077 202.122 346.875 202.233C346.673 202.343 346.544 202.499 346.487 202.701H345.664C345.717 202.294 345.927 201.966 346.293 201.717C346.662 201.468 347.119 201.343 347.665 201.343C348.283 201.343 348.761 201.493 349.098 201.793C349.435 202.092 349.604 202.509 349.604 203.041V206.532H348.828V205.78H348.753C348.589 206.051 348.371 206.26 348.1 206.405C347.829 206.55 347.523 206.622 347.182 206.622ZM351.156 206.532V199.409H351.969V206.532H351.156ZM353.596 206.532V199.409H354.41V206.532H353.596ZM358.743 206.532V201.433H359.556V206.532H358.743ZM359.551 200.232C359.441 200.342 359.307 200.397 359.149 200.397C358.992 200.397 358.858 200.342 358.747 200.232C358.637 200.118 358.582 199.984 358.582 199.83C358.582 199.675 358.637 199.543 358.747 199.432C358.858 199.319 358.992 199.262 359.149 199.262C359.307 199.262 359.441 199.319 359.551 199.432C359.662 199.543 359.717 199.675 359.717 199.83C359.717 199.984 359.662 200.118 359.551 200.232ZM361.108 206.532V201.433H361.883V202.237H361.959C362.088 201.954 362.295 201.734 362.579 201.58C362.862 201.422 363.198 201.343 363.586 201.343C364.157 201.343 364.597 201.507 364.906 201.835C365.215 202.16 365.369 202.625 365.369 203.231V206.532H364.556V203.429C364.556 202.972 364.456 202.633 364.258 202.412C364.062 202.189 363.761 202.077 363.354 202.077C362.907 202.077 362.555 202.204 362.3 202.46C362.047 202.715 361.921 203.067 361.921 203.515V206.532H361.108ZM370.572 205.392C370.834 205.723 371.206 205.889 371.689 205.889C372.171 205.889 372.543 205.723 372.805 205.392C373.067 205.058 373.198 204.588 373.198 203.983C373.198 203.377 373.067 202.909 372.805 202.578C372.543 202.244 372.171 202.077 371.689 202.077C371.206 202.077 370.834 202.244 370.572 202.578C370.311 202.909 370.18 203.377 370.18 203.983C370.18 204.588 370.311 205.058 370.572 205.392ZM373.406 205.917C372.986 206.387 372.414 206.622 371.689 206.622C370.963 206.622 370.39 206.387 369.967 205.917C369.548 205.444 369.338 204.8 369.338 203.983C369.338 203.163 369.548 202.518 369.967 202.048C370.386 201.578 370.96 201.343 371.689 201.343C372.417 201.343 372.991 201.578 373.41 202.048C373.83 202.518 374.04 203.163 374.04 203.983C374.04 204.8 373.828 205.444 373.406 205.917ZM375.317 206.532V201.433H376.092V202.237H376.168C376.297 201.954 376.504 201.734 376.788 201.58C377.072 201.422 377.407 201.343 377.795 201.343C378.366 201.343 378.806 201.507 379.115 201.835C379.424 202.16 379.578 202.625 379.578 203.231V206.532H378.765V203.429C378.765 202.972 378.666 202.633 378.467 202.412C378.271 202.189 377.97 202.077 377.563 202.077C377.116 202.077 376.764 202.204 376.509 202.46C376.256 202.715 376.13 203.067 376.13 203.515V206.532H375.317ZM383.102 202.062C382.696 202.062 382.361 202.2 382.1 202.474C381.838 202.748 381.691 203.111 381.66 203.562H384.469C384.46 203.111 384.331 202.748 384.082 202.474C383.832 202.2 383.506 202.062 383.102 202.062ZM384.446 205.213H385.259C385.136 205.654 384.886 205.999 384.507 206.248C384.132 206.498 383.667 206.622 383.112 206.622C382.405 206.622 381.846 206.386 381.433 205.913C381.02 205.436 380.813 204.795 380.813 203.988C380.813 203.183 381.021 202.542 381.437 202.062C381.854 201.583 382.412 201.343 383.112 201.343C383.799 201.343 384.34 201.572 384.734 202.029C385.128 202.487 385.326 203.112 385.326 203.907V204.219H381.66V204.257C381.682 204.762 381.824 205.162 382.085 205.459C382.35 205.755 382.699 205.903 383.131 205.903C383.79 205.903 384.228 205.673 384.446 205.213ZM391.82 201.343C392.47 201.343 392.988 201.583 393.376 202.062C393.767 202.542 393.963 203.182 393.963 203.983C393.963 204.781 393.767 205.421 393.376 205.903C392.985 206.383 392.466 206.622 391.82 206.622C391.457 206.622 391.136 206.548 390.855 206.4C390.574 206.248 390.365 206.037 390.226 205.766H390.15V208.235H389.337V201.433H390.112V202.285H390.188C390.352 201.991 390.577 201.761 390.864 201.594C391.155 201.427 391.473 201.343 391.82 201.343ZM391.626 205.889C392.093 205.889 392.458 205.72 392.723 205.383C392.988 205.045 393.121 204.579 393.121 203.983C393.121 203.387 392.988 202.92 392.723 202.583C392.462 202.245 392.097 202.077 391.631 202.077C391.17 202.077 390.805 202.248 390.533 202.592C390.262 202.933 390.127 203.396 390.127 203.983C390.127 204.566 390.261 205.03 390.529 205.373C390.8 205.717 391.166 205.889 391.626 205.889ZM395.287 206.532V199.409H396.101V206.532H395.287ZM399.251 205.908C399.67 205.908 400.017 205.787 400.291 205.544C400.569 205.301 400.708 204.997 400.708 204.631V204.163L399.336 204.252C398.951 204.278 398.669 204.358 398.489 204.494C398.31 204.629 398.22 204.826 398.22 205.085C398.22 205.34 398.316 205.542 398.508 205.69C398.701 205.835 398.948 205.908 399.251 205.908ZM399.099 206.622C398.598 206.622 398.185 206.485 397.86 206.211C397.539 205.933 397.378 205.564 397.378 205.104C397.378 204.65 397.539 204.293 397.86 204.035C398.182 203.776 398.641 203.63 399.237 203.595L400.708 203.505V203.041C400.708 202.726 400.61 202.485 400.414 202.318C400.219 202.151 399.932 202.067 399.554 202.067C399.248 202.067 398.994 202.122 398.792 202.233C398.59 202.343 398.461 202.499 398.404 202.701H397.581C397.635 202.294 397.844 201.966 398.21 201.717C398.579 201.468 399.036 201.343 399.582 201.343C400.2 201.343 400.678 201.493 401.015 201.793C401.353 202.092 401.521 202.509 401.521 203.041V206.532H400.746V205.78H400.67C400.506 206.051 400.288 206.26 400.017 206.405C399.746 206.55 399.44 206.622 399.099 206.622ZM407.245 202.994H406.422C406.352 202.726 406.202 202.507 405.972 202.337C405.745 202.163 405.457 202.077 405.107 202.077C404.649 202.077 404.285 202.247 404.014 202.587C403.746 202.928 403.612 203.387 403.612 203.964C403.612 204.55 403.748 205.019 404.019 205.369C404.29 205.716 404.653 205.889 405.107 205.889C405.45 205.889 405.736 205.812 405.963 205.657C406.193 205.503 406.346 205.282 406.422 204.995H407.245C407.169 205.477 406.944 205.87 406.568 206.173C406.193 206.472 405.707 206.622 405.111 206.622C404.396 206.622 403.826 206.383 403.404 205.903C402.981 205.421 402.77 204.774 402.77 203.964C402.77 203.169 402.981 202.534 403.404 202.058C403.826 201.581 404.394 201.343 405.107 201.343C405.703 201.343 406.188 201.499 406.564 201.812C406.942 202.124 407.169 202.518 407.245 202.994ZM410.48 202.062C410.073 202.062 409.739 202.2 409.477 202.474C409.216 202.748 409.069 203.111 409.037 203.562H411.847C411.838 203.111 411.708 202.748 411.459 202.474C411.21 202.2 410.884 202.062 410.48 202.062ZM411.823 205.213H412.637C412.514 205.654 412.263 205.999 411.885 206.248C411.51 206.498 411.044 206.622 410.49 206.622C409.783 206.622 409.223 206.386 408.81 205.913C408.397 205.436 408.191 204.795 408.191 203.988C408.191 203.183 408.399 202.542 408.815 202.062C409.231 201.583 409.789 201.343 410.49 201.343C411.177 201.343 411.718 201.572 412.112 202.029C412.506 202.487 412.703 203.112 412.703 203.907V204.219H409.037V204.257C409.059 204.762 409.201 205.162 409.463 205.459C409.728 205.755 410.076 205.903 410.508 205.903C411.167 205.903 411.606 205.673 411.823 205.213ZM414.652 206.58C414.485 206.58 414.34 206.52 414.217 206.4C414.097 206.277 414.037 206.132 414.037 205.965C414.037 205.794 414.097 205.649 414.217 205.53C414.34 205.41 414.485 205.35 414.652 205.35C414.822 205.35 414.967 205.41 415.087 205.53C415.207 205.649 415.267 205.794 415.267 205.965C415.267 206.132 415.207 206.277 415.087 206.4C414.967 206.52 414.822 206.58 414.652 206.58Z" fill="#71737C"/>
</g>
<defs>
<filter id="filter0_dddd_1511_28568" x="136.771" y="95.7136" width="358.265" height="165.463" filterUnits="userSpaceOnUse" color-interpolation-filters="sRGB">
<feFlood flood-opacity="0" result="BackgroundImageFix"/>
<feColorMatrix in="SourceAlpha" type="matrix" values="0 0 0 0 0 0 0 0 0 0 0 0 0 0 0 0 0 0 127 0" result="hardAlpha"/>
<feOffset dx="2.11457" dy="1.05729"/>
<feGaussianBlur stdDeviation="3.17186"/>
<feColorMatrix type="matrix" values="0 0 0 0 0.85098 0 0 0 0 0.85098 0 0 0 0 0.85098 0 0 0 0.1 0"/>
<feBlend mode="normal" in2="BackgroundImageFix" result="effect1_dropShadow_1511_28568"/>
<feColorMatrix in="SourceAlpha" type="matrix" values="0 0 0 0 0 0 0 0 0 0 0 0 0 0 0 0 0 0 127 0" result="hardAlpha"/>
<feOffset dx="9.51558" dy="5.28644"/>
<feGaussianBlur stdDeviation="5.28644"/>
<feColorMatrix type="matrix" values="0 0 0 0 0.85098 0 0 0 0 0.85098 0 0 0 0 0.85098 0 0 0 0.09 0"/>
<feBlend mode="normal" in2="effect1_dropShadow_1511_28568" result="effect2_dropShadow_1511_28568"/>
<feColorMatrix in="SourceAlpha" type="matrix" values="0 0 0 0 0 0 0 0 0 0 0 0 0 0 0 0 0 0 127 0" result="hardAlpha"/>
<feOffset dx="21.1457" dy="12.6874"/>
<feGaussianBlur stdDeviation="7.40101"/>
<feColorMatrix type="matrix" values="0 0 0 0 0.85098 0 0 0 0 0.85098 0 0 0 0 0.85098 0 0 0 0.05 0"/>
<feBlend mode="normal" in2="effect2_dropShadow_1511_28568" result="effect3_dropShadow_1511_28568"/>
<feColorMatrix in="SourceAlpha" type="matrix" values="0 0 0 0 0 0 0 0 0 0 0 0 0 0 0 0 0 0 127 0" result="hardAlpha"/>
<feOffset dx="38.0623" dy="22.203"/>
<feGaussianBlur stdDeviation="8.98694"/>
<feColorMatrix type="matrix" values="0 0 0 0 0.85098 0 0 0 0 0.85098 0 0 0 0 0.85098 0 0 0 0.01 0"/>
<feBlend mode="normal" in2="effect3_dropShadow_1511_28568" result="effect4_dropShadow_1511_28568"/>
<feBlend mode="normal" in="SourceGraphic" in2="effect4_dropShadow_1511_28568" result="shape"/>
</filter>
<filter id="filter1_ddd_1511_28568" x="370.802" y="114.099" width="32.8732" height="32.8751" filterUnits="userSpaceOnUse" color-interpolation-filters="sRGB">
<feFlood flood-opacity="0" result="BackgroundImageFix"/>
<feColorMatrix in="SourceAlpha" type="matrix" values="0 0 0 0 0 0 0 0 0 0 0 0 0 0 0 0 0 0 127 0" result="hardAlpha"/>
<feOffset dy="2.29361"/>
<feGaussianBlur stdDeviation="0.382269"/>
<feComposite in2="hardAlpha" operator="out"/>
<feColorMatrix type="matrix" values="0 0 0 0 0 0 0 0 0 0 0 0 0 0 0 0 0 0 0.06 0"/>
<feBlend mode="normal" in2="BackgroundImageFix" result="effect1_dropShadow_1511_28568"/>
<feColorMatrix in="SourceAlpha" type="matrix" values="0 0 0 0 0 0 0 0 0 0 0 0 0 0 0 0 0 0 127 0" result="hardAlpha"/>
<feOffset dy="2.29361"/>
<feGaussianBlur stdDeviation="3.05815"/>
<feComposite in2="hardAlpha" operator="out"/>
<feColorMatrix type="matrix" values="0 0 0 0 0 0 0 0 0 0 0 0 0 0 0 0 0 0 0.15 0"/>
<feBlend mode="normal" in2="effect1_dropShadow_1511_28568" result="effect2_dropShadow_1511_28568"/>
<feColorMatrix in="SourceAlpha" type="matrix" values="0 0 0 0 0 0 0 0 0 0 0 0 0 0 0 0 0 0 127 0" result="hardAlpha"/>
<feMorphology radius="0.764538" operator="dilate" in="SourceAlpha" result="effect3_dropShadow_1511_28568"/>
<feOffset/>
<feComposite in2="hardAlpha" operator="out"/>
<feColorMatrix type="matrix" values="0 0 0 0 0 0 0 0 0 0 0 0 0 0 0 0 0 0 0.04 0"/>
<feBlend mode="normal" in2="effect2_dropShadow_1511_28568" result="effect3_dropShadow_1511_28568"/>
<feBlend mode="normal" in="SourceGraphic" in2="effect3_dropShadow_1511_28568" result="shape"/>
</filter>
<clipPath id="clip0_1511_28568">
<rect width="20" height="20" fill="white" transform="translate(160.898 119.897)"/>
</clipPath>
<clipPath id="clip1_1511_28568">
<rect x="375.391" y="116.625" width="39" height="24" rx="12" fill="white"/>
</clipPath>
</defs>
</svg>
