<svg width="580" height="321" viewBox="0 0 580 321" fill="none" xmlns="http://www.w3.org/2000/svg">
<g clip-path="url(#clip0_1511_28576)">
<g filter="url(#filter0_dddd_1511_28576)">
<rect x="87" y="109.458" width="406" height="102.969" rx="12" fill="white"/>
<rect x="87.544" y="110.002" width="404.912" height="101.881" rx="11.456" stroke="#D6DAE1" stroke-width="1.08795"/>
<path d="M105.687 137.288V151.542H103.105V137.288H105.687ZM110.892 145.278V151.542H108.372V140.851H110.78V142.668H110.906C111.152 142.069 111.544 141.594 112.082 141.241C112.625 140.889 113.295 140.712 114.093 140.712C114.831 140.712 115.474 140.87 116.021 141.186C116.573 141.501 117 141.958 117.302 142.557C117.608 143.155 117.759 143.881 117.754 144.735V151.542H115.235V145.125C115.235 144.41 115.049 143.851 114.678 143.448C114.311 143.044 113.803 142.842 113.154 142.842C112.713 142.842 112.321 142.939 111.977 143.134C111.639 143.325 111.372 143.601 111.177 143.963C110.987 144.325 110.892 144.763 110.892 145.278ZM129.482 140.851L125.675 151.542H122.891L119.084 140.851H121.77L124.227 148.793H124.338L126.802 140.851H129.482ZM135.595 151.751C134.523 151.751 133.597 151.528 132.817 151.083C132.043 150.633 131.446 149.997 131.029 149.176C130.611 148.35 130.402 147.378 130.402 146.259C130.402 145.16 130.611 144.195 131.029 143.364C131.451 142.529 132.04 141.879 132.797 141.415C133.553 140.947 134.441 140.712 135.462 140.712C136.121 140.712 136.743 140.819 137.328 141.032C137.917 141.241 138.437 141.566 138.887 142.007C139.341 142.448 139.699 143.009 139.958 143.691C140.218 144.369 140.348 145.176 140.348 146.113V146.886H131.586V145.188H137.933C137.928 144.705 137.824 144.276 137.62 143.9C137.416 143.519 137.13 143.22 136.764 143.002C136.402 142.784 135.98 142.675 135.497 142.675C134.982 142.675 134.53 142.8 134.14 143.051C133.75 143.297 133.446 143.622 133.228 144.025C133.015 144.424 132.906 144.863 132.901 145.341V146.823C132.901 147.445 133.015 147.979 133.242 148.424C133.469 148.865 133.787 149.203 134.196 149.44C134.604 149.672 135.082 149.788 135.629 149.788C135.996 149.788 136.328 149.737 136.625 149.635C136.922 149.528 137.179 149.373 137.397 149.169C137.615 148.965 137.78 148.712 137.891 148.41L140.244 148.675C140.095 149.296 139.812 149.839 139.395 150.303C138.982 150.763 138.453 151.12 137.808 151.375C137.163 151.626 136.425 151.751 135.595 151.751ZM144.999 145.278V151.542H142.48V140.851H144.888V142.668H145.013C145.259 142.069 145.651 141.594 146.189 141.241C146.732 140.889 147.403 140.712 148.201 140.712C148.939 140.712 149.581 140.87 150.129 141.186C150.681 141.501 151.108 141.958 151.409 142.557C151.716 143.155 151.866 143.881 151.862 144.735V151.542H149.342V145.125C149.342 144.41 149.157 143.851 148.785 143.448C148.419 143.044 147.911 142.842 147.261 142.842C146.82 142.842 146.428 142.939 146.085 143.134C145.746 143.325 145.479 143.601 145.285 143.963C145.094 144.325 144.999 144.763 144.999 145.278ZM159.761 140.851V142.8H153.616V140.851H159.761ZM155.133 138.29H157.653V148.327C157.653 148.665 157.704 148.925 157.806 149.106C157.912 149.282 158.052 149.403 158.223 149.468C158.395 149.533 158.585 149.565 158.794 149.565C158.952 149.565 159.096 149.554 159.226 149.531C159.36 149.507 159.462 149.487 159.532 149.468L159.956 151.438C159.822 151.484 159.629 151.535 159.379 151.591C159.133 151.646 158.831 151.679 158.474 151.688C157.843 151.707 157.274 151.612 156.769 151.403C156.263 151.189 155.862 150.86 155.565 150.415C155.272 149.969 155.128 149.412 155.133 148.744V138.29ZM166.417 151.751C165.373 151.751 164.468 151.521 163.703 151.062C162.937 150.602 162.343 149.96 161.921 149.134C161.503 148.308 161.294 147.343 161.294 146.239C161.294 145.134 161.503 144.167 161.921 143.336C162.343 142.506 162.937 141.861 163.703 141.401C164.468 140.942 165.373 140.712 166.417 140.712C167.461 140.712 168.366 140.942 169.131 141.401C169.897 141.861 170.489 142.506 170.906 143.336C171.328 144.167 171.54 145.134 171.54 146.239C171.54 147.343 171.328 148.308 170.906 149.134C170.489 149.96 169.897 150.602 169.131 151.062C168.366 151.521 167.461 151.751 166.417 151.751ZM166.431 149.732C166.997 149.732 167.47 149.577 167.851 149.266C168.231 148.951 168.514 148.528 168.7 147.999C168.89 147.47 168.985 146.881 168.985 146.232C168.985 145.577 168.89 144.986 168.7 144.457C168.514 143.923 168.231 143.499 167.851 143.183C167.47 142.868 166.997 142.71 166.431 142.71C165.851 142.71 165.368 142.868 164.983 143.183C164.603 143.499 164.317 143.923 164.127 144.457C163.942 144.986 163.849 145.577 163.849 146.232C163.849 146.881 163.942 147.47 164.127 147.999C164.317 148.528 164.603 148.951 164.983 149.266C165.368 149.577 165.851 149.732 166.431 149.732ZM173.678 151.542V140.851H176.121V142.633H176.232C176.427 142.016 176.761 141.541 177.235 141.206C177.712 140.868 178.258 140.698 178.87 140.698C179.009 140.698 179.165 140.705 179.336 140.719C179.513 140.729 179.659 140.745 179.775 140.768V143.086C179.668 143.049 179.499 143.016 179.267 142.988C179.04 142.956 178.819 142.939 178.606 142.939C178.146 142.939 177.733 143.039 177.367 143.239C177.005 143.434 176.72 143.705 176.511 144.053C176.302 144.401 176.198 144.802 176.198 145.257V151.542H173.678ZM183.34 155.551C182.997 155.551 182.679 155.523 182.387 155.468C182.099 155.416 181.869 155.356 181.698 155.287L182.282 153.324C182.649 153.431 182.976 153.482 183.264 153.477C183.551 153.472 183.804 153.382 184.022 153.205C184.245 153.034 184.433 152.746 184.586 152.342L184.802 151.765L180.925 140.851H183.598L186.062 148.925H186.173L188.644 140.851H191.323L187.043 152.837C186.843 153.403 186.579 153.888 186.25 154.291C185.92 154.7 185.516 155.01 185.038 155.224C184.565 155.442 183.999 155.551 183.34 155.551ZM205.786 141.206C205.721 140.599 205.448 140.125 204.965 139.787C204.487 139.448 203.865 139.278 203.1 139.278C202.561 139.278 202.1 139.36 201.715 139.522C201.33 139.685 201.035 139.905 200.831 140.183C200.627 140.462 200.522 140.78 200.518 141.137C200.518 141.434 200.585 141.691 200.719 141.909C200.859 142.127 201.047 142.313 201.283 142.466C201.52 142.615 201.782 142.74 202.07 142.842C202.357 142.944 202.647 143.03 202.94 143.1L204.276 143.434C204.814 143.559 205.332 143.728 205.828 143.942C206.329 144.155 206.777 144.424 207.171 144.749C207.57 145.074 207.886 145.466 208.118 145.925C208.35 146.385 208.466 146.923 208.466 147.54C208.466 148.375 208.252 149.111 207.826 149.746C207.399 150.377 206.782 150.872 205.974 151.229C205.171 151.581 204.199 151.758 203.058 151.758C201.949 151.758 200.986 151.586 200.17 151.243C199.358 150.899 198.722 150.398 198.263 149.739C197.808 149.081 197.562 148.278 197.525 147.331H200.065C200.102 147.828 200.255 148.241 200.525 148.57C200.794 148.9 201.144 149.145 201.575 149.308C202.012 149.47 202.499 149.551 203.037 149.551C203.599 149.551 204.09 149.468 204.513 149.301C204.939 149.129 205.274 148.893 205.515 148.591C205.756 148.285 205.879 147.927 205.884 147.519C205.879 147.148 205.77 146.842 205.557 146.6C205.343 146.355 205.044 146.15 204.659 145.988C204.278 145.821 203.833 145.672 203.322 145.543L201.701 145.125C200.527 144.823 199.599 144.366 198.917 143.754C198.239 143.137 197.901 142.318 197.901 141.297C197.901 140.457 198.128 139.722 198.583 139.091C199.042 138.46 199.666 137.97 200.455 137.622C201.244 137.269 202.137 137.093 203.135 137.093C204.146 137.093 205.032 137.269 205.793 137.622C206.559 137.97 207.16 138.455 207.596 139.077C208.032 139.694 208.257 140.404 208.271 141.206H205.786ZM212.223 155.551C211.879 155.551 211.561 155.523 211.269 155.468C210.981 155.416 210.752 155.356 210.58 155.287L211.165 153.324C211.531 153.431 211.858 153.482 212.146 153.477C212.434 153.472 212.687 153.382 212.905 153.205C213.127 153.034 213.315 152.746 213.468 152.342L213.684 151.765L209.807 140.851H212.48L214.944 148.925H215.055L217.526 140.851H220.206L215.925 152.837C215.726 153.403 215.461 153.888 215.132 154.291C214.802 154.7 214.399 155.01 213.921 155.224C213.448 155.442 212.881 155.551 212.223 155.551ZM224.469 145.278V151.542H221.949V140.851H224.357V142.668H224.483C224.729 142.069 225.121 141.594 225.659 141.241C226.202 140.889 226.872 140.712 227.67 140.712C228.408 140.712 229.051 140.87 229.598 141.186C230.15 141.501 230.577 141.958 230.879 142.557C231.185 143.155 231.336 143.881 231.331 144.735V151.542H228.812V145.125C228.812 144.41 228.626 143.851 228.255 143.448C227.888 143.044 227.38 142.842 226.731 142.842C226.29 142.842 225.898 142.939 225.554 143.134C225.216 143.325 224.949 143.601 224.754 143.963C224.564 144.325 224.469 144.763 224.469 145.278ZM238.556 151.751C237.489 151.751 236.572 151.517 235.807 151.048C235.046 150.579 234.459 149.932 234.046 149.106C233.637 148.275 233.433 147.32 233.433 146.239C233.433 145.153 233.642 144.195 234.06 143.364C234.477 142.529 235.067 141.879 235.827 141.415C236.593 140.947 237.498 140.712 238.542 140.712C239.41 140.712 240.177 140.872 240.846 141.193C241.518 141.508 242.054 141.956 242.453 142.536C242.852 143.111 243.08 143.784 243.136 144.554H240.727C240.63 144.039 240.398 143.61 240.031 143.267C239.669 142.919 239.185 142.745 238.577 142.745C238.062 142.745 237.609 142.884 237.219 143.162C236.83 143.436 236.526 143.83 236.308 144.345C236.094 144.86 235.988 145.478 235.988 146.197C235.988 146.925 236.094 147.552 236.308 148.076C236.521 148.596 236.82 148.997 237.206 149.28C237.595 149.558 238.052 149.698 238.577 149.698C238.948 149.698 239.28 149.628 239.572 149.489C239.869 149.345 240.117 149.139 240.317 148.869C240.516 148.6 240.653 148.273 240.727 147.888H243.136C243.075 148.644 242.852 149.315 242.467 149.899C242.082 150.479 241.558 150.934 240.894 151.264C240.231 151.588 239.451 151.751 238.556 151.751Z" fill="#0E0E1E"/>
<g clip-path="url(#clip1_1511_28576)">
<rect x="413.527" y="129.057" width="49.3054" height="29.97" rx="14.985" fill="#787880" fill-opacity="0.32"/>
<g filter="url(#filter1_ddd_1511_28576)">
<rect x="415.461" y="130.522" width="26.1029" height="26.1029" rx="13.0514" fill="white"/>
</g>
</g>
<path d="M110.03 177.472C109.957 176.855 109.661 176.376 109.141 176.035C108.622 175.694 107.984 175.524 107.229 175.524C106.677 175.524 106.194 175.613 105.78 175.792C105.369 175.97 105.049 176.216 104.817 176.529C104.59 176.841 104.476 177.196 104.476 177.594C104.476 177.927 104.555 178.213 104.714 178.453C104.876 178.688 105.083 178.885 105.335 179.044C105.587 179.198 105.851 179.326 106.127 179.427C106.403 179.525 106.656 179.604 106.888 179.665L108.155 180.006C108.479 180.091 108.841 180.209 109.239 180.359C109.641 180.509 110.024 180.714 110.39 180.974C110.759 181.23 111.064 181.559 111.303 181.961C111.543 182.363 111.662 182.856 111.662 183.441C111.662 184.115 111.486 184.724 111.133 185.268C110.783 185.812 110.272 186.244 109.598 186.565C108.928 186.886 108.114 187.046 107.156 187.046C106.263 187.046 105.489 186.902 104.836 186.614C104.186 186.325 103.674 185.923 103.301 185.408C102.931 184.892 102.722 184.293 102.674 183.611H104.233C104.273 184.082 104.432 184.472 104.708 184.78C104.988 185.085 105.341 185.312 105.767 185.463C106.198 185.609 106.661 185.682 107.156 185.682C107.732 185.682 108.25 185.588 108.709 185.402C109.168 185.211 109.531 184.947 109.799 184.61C110.067 184.269 110.201 183.871 110.201 183.416C110.201 183.002 110.085 182.665 109.854 182.405C109.622 182.146 109.318 181.934 108.94 181.772C108.563 181.61 108.155 181.468 107.716 181.346L106.181 180.907C105.207 180.627 104.436 180.227 103.867 179.707C103.299 179.188 103.015 178.508 103.015 177.667C103.015 176.969 103.203 176.36 103.581 175.84C103.963 175.317 104.474 174.911 105.116 174.622C105.761 174.33 106.482 174.184 107.278 174.184C108.082 174.184 108.796 174.328 109.421 174.616C110.047 174.9 110.542 175.29 110.907 175.786C111.277 176.281 111.472 176.843 111.492 177.472H110.03ZM118.019 177.472V178.69H113.171V177.472H118.019ZM114.584 175.231H116.021V184.147C116.021 184.553 116.08 184.858 116.198 185.061C116.32 185.26 116.474 185.394 116.661 185.463C116.852 185.528 117.053 185.56 117.264 185.56C117.422 185.56 117.552 185.552 117.654 185.536C117.755 185.515 117.836 185.499 117.897 185.487L118.189 186.778C118.092 186.815 117.956 186.851 117.781 186.888C117.607 186.928 117.386 186.949 117.118 186.949C116.712 186.949 116.314 186.861 115.924 186.687C115.538 186.512 115.218 186.246 114.962 185.889C114.71 185.532 114.584 185.081 114.584 184.537V175.231ZM120.181 186.827V177.472H121.569V178.885H121.667C121.837 178.422 122.146 178.047 122.593 177.759C123.039 177.47 123.543 177.326 124.103 177.326C124.208 177.326 124.34 177.328 124.499 177.332C124.657 177.336 124.777 177.343 124.858 177.351V178.812C124.809 178.8 124.698 178.782 124.523 178.757C124.353 178.729 124.172 178.715 123.981 178.715C123.526 178.715 123.12 178.81 122.763 179.001C122.41 179.188 122.13 179.448 121.923 179.781C121.72 180.109 121.618 180.485 121.618 180.907V186.827H120.181ZM130.199 187.022C129.298 187.022 128.52 186.823 127.866 186.425C127.217 186.023 126.715 185.463 126.362 184.744C126.013 184.021 125.839 183.181 125.839 182.223C125.839 181.265 126.013 180.42 126.362 179.689C126.715 178.954 127.207 178.382 127.836 177.972C128.469 177.558 129.208 177.351 130.053 177.351C130.54 177.351 131.021 177.432 131.496 177.594C131.971 177.757 132.404 178.021 132.793 178.386C133.183 178.747 133.494 179.226 133.725 179.823C133.957 180.42 134.072 181.155 134.072 182.028V182.637H126.862V181.394H132.611C132.611 180.867 132.505 180.396 132.294 179.982C132.087 179.567 131.79 179.241 131.405 179.001C131.023 178.762 130.572 178.642 130.053 178.642C129.48 178.642 128.985 178.784 128.567 179.068C128.153 179.348 127.834 179.714 127.611 180.164C127.387 180.615 127.276 181.098 127.276 181.614V182.442C127.276 183.148 127.398 183.747 127.641 184.238C127.889 184.726 128.232 185.097 128.67 185.353C129.109 185.605 129.618 185.731 130.199 185.731C130.577 185.731 130.918 185.678 131.222 185.572C131.531 185.463 131.797 185.3 132.02 185.085C132.243 184.866 132.416 184.594 132.538 184.269L133.926 184.659C133.78 185.13 133.534 185.544 133.189 185.901C132.844 186.254 132.418 186.53 131.91 186.729C131.403 186.924 130.832 187.022 130.199 187.022ZM139.011 187.046C138.418 187.046 137.881 186.934 137.397 186.711C136.914 186.484 136.531 186.157 136.246 185.731C135.962 185.3 135.82 184.78 135.82 184.171C135.82 183.636 135.926 183.201 136.137 182.868C136.348 182.531 136.63 182.267 136.983 182.077C137.336 181.886 137.726 181.744 138.153 181.65C138.583 181.553 139.015 181.476 139.45 181.419C140.018 181.346 140.479 181.291 140.832 181.254C141.189 181.214 141.449 181.147 141.612 181.053C141.778 180.96 141.861 180.798 141.861 180.566V180.517C141.861 179.917 141.697 179.45 141.368 179.117C141.043 178.784 140.55 178.617 139.888 178.617C139.202 178.617 138.664 178.768 138.274 179.068C137.885 179.368 137.611 179.689 137.452 180.03L136.088 179.543C136.332 178.975 136.656 178.532 137.062 178.215C137.472 177.895 137.919 177.671 138.402 177.546C138.889 177.416 139.369 177.351 139.839 177.351C140.14 177.351 140.485 177.387 140.875 177.46C141.269 177.529 141.648 177.673 142.014 177.893C142.383 178.112 142.69 178.443 142.933 178.885C143.177 179.328 143.299 179.921 143.299 180.664V186.827H141.861V185.56H141.788C141.691 185.763 141.528 185.98 141.301 186.212C141.074 186.443 140.771 186.64 140.394 186.802C140.016 186.965 139.555 187.046 139.011 187.046ZM139.23 185.755C139.799 185.755 140.278 185.643 140.668 185.42C141.062 185.197 141.358 184.908 141.557 184.555C141.76 184.202 141.861 183.83 141.861 183.441V182.125C141.8 182.198 141.666 182.265 141.459 182.326C141.256 182.383 141.021 182.434 140.753 182.478C140.489 182.519 140.231 182.556 139.98 182.588C139.732 182.616 139.531 182.641 139.377 182.661C139.003 182.71 138.654 182.789 138.329 182.899C138.008 183.004 137.749 183.165 137.55 183.38C137.355 183.591 137.257 183.879 137.257 184.245C137.257 184.744 137.442 185.122 137.811 185.377C138.185 185.629 138.658 185.755 139.23 185.755ZM145.922 186.827V177.472H147.31V178.934H147.432C147.627 178.435 147.942 178.047 148.376 177.771C148.811 177.491 149.332 177.351 149.941 177.351C150.558 177.351 151.072 177.491 151.482 177.771C151.896 178.047 152.219 178.435 152.45 178.934H152.548C152.787 178.451 153.147 178.067 153.626 177.783C154.105 177.495 154.679 177.351 155.349 177.351C156.186 177.351 156.87 177.613 157.402 178.136C157.933 178.656 158.199 179.466 158.199 180.566V186.827H156.762V180.566C156.762 179.876 156.573 179.383 156.196 179.086C155.818 178.79 155.374 178.642 154.862 178.642C154.204 178.642 153.695 178.841 153.333 179.239C152.972 179.632 152.791 180.132 152.791 180.737V186.827H151.33V180.42C151.33 179.888 151.157 179.46 150.812 179.135C150.467 178.806 150.022 178.642 149.478 178.642C149.105 178.642 148.756 178.741 148.431 178.94C148.11 179.139 147.85 179.415 147.651 179.768C147.457 180.118 147.359 180.522 147.359 180.98V186.827H145.922ZM162.264 174.354V186.827H160.827V174.354H162.264ZM164.897 186.827V177.472H166.334V186.827H164.897ZM165.628 175.913C165.348 175.913 165.106 175.818 164.903 175.627C164.704 175.436 164.605 175.207 164.605 174.939C164.605 174.671 164.704 174.442 164.903 174.251C165.106 174.06 165.348 173.965 165.628 173.965C165.908 173.965 166.147 174.06 166.346 174.251C166.549 174.442 166.651 174.671 166.651 174.939C166.651 175.207 166.549 175.436 166.346 175.627C166.147 175.818 165.908 175.913 165.628 175.913ZM170.404 181.2V186.827H168.966V177.472H170.355V178.934H170.477C170.696 178.459 171.029 178.077 171.476 177.789C171.922 177.497 172.499 177.351 173.205 177.351C173.839 177.351 174.393 177.481 174.868 177.74C175.343 177.996 175.712 178.386 175.976 178.91C176.24 179.429 176.372 180.087 176.372 180.883V186.827H174.935V180.98C174.935 180.245 174.744 179.673 174.362 179.263C173.981 178.849 173.457 178.642 172.791 178.642C172.332 178.642 171.922 178.741 171.561 178.94C171.204 179.139 170.921 179.429 170.714 179.811C170.507 180.193 170.404 180.656 170.404 181.2ZM182.92 187.022C182.019 187.022 181.241 186.823 180.588 186.425C179.938 186.023 179.437 185.463 179.084 184.744C178.734 184.021 178.56 183.181 178.56 182.223C178.56 181.265 178.734 180.42 179.084 179.689C179.437 178.954 179.928 178.382 180.557 177.972C181.191 177.558 181.93 177.351 182.774 177.351C183.261 177.351 183.742 177.432 184.217 177.594C184.692 177.757 185.125 178.021 185.515 178.386C185.904 178.747 186.215 179.226 186.446 179.823C186.678 180.42 186.793 181.155 186.793 182.028V182.637H179.583V181.394H185.332C185.332 180.867 185.226 180.396 185.015 179.982C184.808 179.567 184.512 179.241 184.126 179.001C183.744 178.762 183.294 178.642 182.774 178.642C182.202 178.642 181.706 178.784 181.288 179.068C180.874 179.348 180.555 179.714 180.332 180.164C180.109 180.615 179.997 181.098 179.997 181.614V182.442C179.997 183.148 180.119 183.747 180.362 184.238C180.61 184.726 180.953 185.097 181.392 185.353C181.83 185.605 182.34 185.731 182.92 185.731C183.298 185.731 183.639 185.678 183.943 185.572C184.252 185.463 184.518 185.3 184.741 185.085C184.964 184.866 185.137 184.594 185.259 184.269L186.647 184.659C186.501 185.13 186.256 185.544 185.91 185.901C185.565 186.254 185.139 186.53 184.632 186.729C184.124 186.924 183.554 187.022 182.92 187.022ZM192.926 174.354H194.656L198.115 180.176H198.261L201.72 174.354H203.45L198.943 181.687V186.827H197.433V181.687L192.926 174.354ZM207.685 187.022C206.841 187.022 206.1 186.821 205.462 186.419C204.829 186.017 204.334 185.454 203.976 184.732C203.623 184.009 203.447 183.165 203.447 182.198C203.447 181.224 203.623 180.373 203.976 179.647C204.334 178.92 204.829 178.356 205.462 177.954C206.1 177.552 206.841 177.351 207.685 177.351C208.53 177.351 209.269 177.552 209.902 177.954C210.539 178.356 211.035 178.92 211.388 179.647C211.745 180.373 211.924 181.224 211.924 182.198C211.924 183.165 211.745 184.009 211.388 184.732C211.035 185.454 210.539 186.017 209.902 186.419C209.269 186.821 208.53 187.022 207.685 187.022ZM207.685 185.731C208.327 185.731 208.855 185.566 209.269 185.237C209.683 184.908 209.989 184.476 210.188 183.94C210.387 183.404 210.487 182.824 210.487 182.198C210.487 181.573 210.387 180.99 210.188 180.45C209.989 179.91 209.683 179.474 209.269 179.141C208.855 178.808 208.327 178.642 207.685 178.642C207.044 178.642 206.516 178.808 206.102 179.141C205.688 179.474 205.381 179.91 205.182 180.45C204.983 180.99 204.884 181.573 204.884 182.198C204.884 182.824 204.983 183.404 205.182 183.94C205.381 184.476 205.688 184.908 206.102 185.237C206.516 185.566 207.044 185.731 207.685 185.731ZM220.013 183.002V177.472H221.45V186.827H220.013V185.243H219.916C219.696 185.718 219.355 186.122 218.892 186.455C218.43 186.784 217.845 186.949 217.139 186.949C216.554 186.949 216.034 186.821 215.579 186.565C215.125 186.305 214.767 185.915 214.508 185.396C214.248 184.872 214.118 184.212 214.118 183.416V177.472H215.555V183.319C215.555 184.001 215.746 184.545 216.128 184.951C216.513 185.357 217.005 185.56 217.601 185.56C217.959 185.56 218.322 185.469 218.691 185.286C219.065 185.103 219.378 184.823 219.629 184.446C219.885 184.068 220.013 183.587 220.013 183.002ZM224.083 186.827V177.472H225.471V178.885H225.569C225.739 178.422 226.048 178.047 226.494 177.759C226.941 177.47 227.444 177.326 228.005 177.326C228.11 177.326 228.242 177.328 228.4 177.332C228.559 177.336 228.679 177.343 228.76 177.351V178.812C228.711 178.8 228.599 178.782 228.425 178.757C228.254 178.729 228.074 178.715 227.883 178.715C227.428 178.715 227.022 178.81 226.665 179.001C226.312 179.188 226.031 179.448 225.824 179.781C225.621 180.109 225.52 180.485 225.52 180.907V186.827H224.083ZM235.482 186.827V174.354H239.696C240.674 174.354 241.474 174.531 242.095 174.884C242.721 175.233 243.183 175.706 243.484 176.303C243.784 176.9 243.935 177.566 243.935 178.301C243.935 179.036 243.784 179.703 243.484 180.304C243.188 180.905 242.729 181.384 242.108 181.742C241.486 182.095 240.691 182.271 239.72 182.271H236.7V180.932H239.672C240.341 180.932 240.879 180.816 241.285 180.584C241.691 180.353 241.986 180.04 242.168 179.647C242.355 179.249 242.449 178.8 242.449 178.301C242.449 177.801 242.355 177.355 242.168 176.961C241.986 176.567 241.689 176.259 241.279 176.035C240.869 175.808 240.325 175.694 239.647 175.694H236.992V186.827H235.482ZM246.173 186.827V177.472H247.561V178.885H247.659C247.829 178.422 248.138 178.047 248.584 177.759C249.031 177.47 249.534 177.326 250.095 177.326C250.2 177.326 250.332 177.328 250.491 177.332C250.649 177.336 250.769 177.343 250.85 177.351V178.812C250.801 178.8 250.689 178.782 250.515 178.757C250.344 178.729 250.164 178.715 249.973 178.715C249.518 178.715 249.112 178.81 248.755 179.001C248.402 179.188 248.121 179.448 247.914 179.781C247.711 180.109 247.61 180.485 247.61 180.907V186.827H246.173ZM256.069 187.022C255.224 187.022 254.484 186.821 253.846 186.419C253.213 186.017 252.717 185.454 252.36 184.732C252.007 184.009 251.83 183.165 251.83 182.198C251.83 181.224 252.007 180.373 252.36 179.647C252.717 178.92 253.213 178.356 253.846 177.954C254.484 177.552 255.224 177.351 256.069 177.351C256.913 177.351 257.652 177.552 258.286 177.954C258.923 178.356 259.418 178.92 259.772 179.647C260.129 180.373 260.308 181.224 260.308 182.198C260.308 183.165 260.129 184.009 259.772 184.732C259.418 185.454 258.923 186.017 258.286 186.419C257.652 186.821 256.913 187.022 256.069 187.022ZM256.069 185.731C256.71 185.731 257.238 185.566 257.652 185.237C258.066 184.908 258.373 184.476 258.572 183.94C258.771 183.404 258.87 182.824 258.87 182.198C258.87 181.573 258.771 180.99 258.572 180.45C258.373 179.91 258.066 179.474 257.652 179.141C257.238 178.808 256.71 178.642 256.069 178.642C255.427 178.642 254.9 178.808 254.486 179.141C254.071 179.474 253.765 179.91 253.566 180.45C253.367 180.99 253.268 181.573 253.268 182.198C253.268 182.824 253.367 183.404 253.566 183.94C253.765 184.476 254.071 184.908 254.486 185.237C254.9 185.566 255.427 185.731 256.069 185.731ZM266.034 187.022C265.254 187.022 264.566 186.825 263.969 186.431C263.372 186.033 262.906 185.473 262.569 184.75C262.232 184.023 262.063 183.165 262.063 182.174C262.063 181.191 262.232 180.339 262.569 179.616C262.906 178.893 263.374 178.335 263.975 177.941C264.576 177.548 265.27 177.351 266.058 177.351C266.667 177.351 267.148 177.452 267.501 177.655C267.859 177.854 268.131 178.081 268.318 178.337C268.508 178.589 268.657 178.796 268.762 178.958H268.884V174.354H270.321V186.827H268.933V185.389H268.762C268.657 185.56 268.506 185.775 268.311 186.035C268.117 186.291 267.838 186.52 267.477 186.723C267.116 186.922 266.635 187.022 266.034 187.022ZM266.229 185.731C266.805 185.731 267.292 185.58 267.69 185.28C268.088 184.975 268.391 184.555 268.598 184.019C268.805 183.479 268.908 182.856 268.908 182.15C268.908 181.451 268.807 180.84 268.604 180.316C268.401 179.789 268.1 179.379 267.702 179.086C267.305 178.79 266.813 178.642 266.229 178.642C265.62 178.642 265.112 178.798 264.706 179.111C264.304 179.419 264.002 179.839 263.799 180.371C263.6 180.899 263.5 181.492 263.5 182.15C263.5 182.815 263.602 183.42 263.805 183.964C264.012 184.504 264.316 184.935 264.718 185.255C265.124 185.572 265.628 185.731 266.229 185.731ZM279.048 183.002V177.472H280.485V186.827H279.048V185.243H278.951C278.731 185.718 278.39 186.122 277.928 186.455C277.465 186.784 276.88 186.949 276.174 186.949C275.589 186.949 275.069 186.821 274.615 186.565C274.16 186.305 273.803 185.915 273.543 185.396C273.283 184.872 273.153 184.212 273.153 183.416V177.472H274.59V183.319C274.59 184.001 274.781 184.545 275.163 184.951C275.548 185.357 276.04 185.56 276.636 185.56C276.994 185.56 277.357 185.469 277.727 185.286C278.1 185.103 278.413 184.823 278.664 184.446C278.92 184.068 279.048 183.587 279.048 183.002ZM286.918 187.022C286.041 187.022 285.286 186.815 284.652 186.4C284.019 185.986 283.532 185.416 283.191 184.689C282.85 183.962 282.679 183.132 282.679 182.198C282.679 181.248 282.854 180.41 283.203 179.683C283.556 178.952 284.048 178.382 284.677 177.972C285.31 177.558 286.049 177.351 286.894 177.351C287.551 177.351 288.144 177.472 288.672 177.716C289.2 177.96 289.632 178.301 289.969 178.739C290.306 179.178 290.515 179.689 290.596 180.274H289.159C289.049 179.848 288.806 179.47 288.428 179.141C288.055 178.808 287.551 178.642 286.918 178.642C286.358 178.642 285.866 178.788 285.444 179.08C285.026 179.368 284.699 179.777 284.464 180.304C284.232 180.828 284.117 181.443 284.117 182.15C284.117 182.872 284.23 183.502 284.458 184.037C284.689 184.573 285.014 184.99 285.432 185.286C285.854 185.582 286.35 185.731 286.918 185.731C287.291 185.731 287.63 185.666 287.935 185.536C288.239 185.406 288.497 185.219 288.708 184.975C288.92 184.732 289.07 184.439 289.159 184.098H290.596C290.515 184.651 290.314 185.148 289.993 185.59C289.677 186.029 289.257 186.378 288.733 186.638C288.213 186.894 287.608 187.022 286.918 187.022ZM296.765 177.472V178.69H291.918V177.472H296.765ZM293.331 175.231H294.768V184.147C294.768 184.553 294.827 184.858 294.945 185.061C295.066 185.26 295.221 185.394 295.407 185.463C295.598 185.528 295.799 185.56 296.01 185.56C296.169 185.56 296.299 185.552 296.4 185.536C296.502 185.515 296.583 185.499 296.644 185.487L296.936 186.778C296.839 186.815 296.703 186.851 296.528 186.888C296.353 186.928 296.132 186.949 295.864 186.949C295.458 186.949 295.06 186.861 294.671 186.687C294.285 186.512 293.964 186.246 293.708 185.889C293.457 185.532 293.331 185.081 293.331 184.537V175.231ZM303.946 174.354H305.748L309.987 184.707H310.133L314.372 174.354H316.174V186.827H314.761V177.351H314.64L310.742 186.827H309.378L305.48 177.351H305.359V186.827H303.946V174.354ZM321.76 187.046C321.168 187.046 320.63 186.934 320.147 186.711C319.663 186.484 319.28 186.157 318.996 185.731C318.711 185.3 318.569 184.78 318.569 184.171C318.569 183.636 318.675 183.201 318.886 182.868C319.097 182.531 319.379 182.267 319.732 182.077C320.086 181.886 320.475 181.744 320.902 181.65C321.332 181.553 321.764 181.476 322.199 181.419C322.767 181.346 323.228 181.291 323.581 181.254C323.939 181.214 324.198 181.147 324.361 181.053C324.527 180.96 324.611 180.798 324.611 180.566V180.517C324.611 179.917 324.446 179.45 324.117 179.117C323.792 178.784 323.299 178.617 322.637 178.617C321.951 178.617 321.413 178.768 321.024 179.068C320.634 179.368 320.36 179.689 320.201 180.03L318.837 179.543C319.081 178.975 319.406 178.532 319.812 178.215C320.222 177.895 320.668 177.671 321.151 177.546C321.639 177.416 322.118 177.351 322.589 177.351C322.889 177.351 323.234 177.387 323.624 177.46C324.018 177.529 324.397 177.673 324.763 177.893C325.132 178.112 325.439 178.443 325.682 178.885C325.926 179.328 326.048 179.921 326.048 180.664V186.827H324.611V185.56H324.537C324.44 185.763 324.278 185.98 324.05 186.212C323.823 186.443 323.52 186.64 323.143 186.802C322.765 186.965 322.304 187.046 321.76 187.046ZM321.98 185.755C322.548 185.755 323.027 185.643 323.417 185.42C323.811 185.197 324.107 184.908 324.306 184.555C324.509 184.202 324.611 183.83 324.611 183.441V182.125C324.55 182.198 324.416 182.265 324.209 182.326C324.006 182.383 323.77 182.434 323.502 182.478C323.238 182.519 322.98 182.556 322.729 182.588C322.481 182.616 322.28 182.641 322.126 182.661C321.752 182.71 321.403 182.789 321.078 182.899C320.758 183.004 320.498 183.165 320.299 183.38C320.104 183.591 320.007 183.879 320.007 184.245C320.007 184.744 320.191 185.122 320.561 185.377C320.934 185.629 321.407 185.755 321.98 185.755ZM330.108 181.2V186.827H328.671V177.472H330.06V178.934H330.181C330.401 178.459 330.734 178.077 331.18 177.789C331.627 177.497 332.203 177.351 332.91 177.351C333.543 177.351 334.097 177.481 334.572 177.74C335.047 177.996 335.417 178.386 335.681 178.91C335.945 179.429 336.077 180.087 336.077 180.883V186.827H334.639V180.98C334.639 180.245 334.448 179.673 334.067 179.263C333.685 178.849 333.161 178.642 332.496 178.642C332.037 178.642 331.627 178.741 331.265 178.94C330.908 179.139 330.626 179.429 330.419 179.811C330.212 180.193 330.108 180.656 330.108 181.2ZM341.456 187.046C340.863 187.046 340.325 186.934 339.842 186.711C339.359 186.484 338.975 186.157 338.691 185.731C338.406 185.3 338.264 184.78 338.264 184.171C338.264 183.636 338.37 183.201 338.581 182.868C338.792 182.531 339.074 182.267 339.428 182.077C339.781 181.886 340.171 181.744 340.597 181.65C341.027 181.553 341.46 181.476 341.894 181.419C342.462 181.346 342.923 181.291 343.276 181.254C343.634 181.214 343.894 181.147 344.056 181.053C344.222 180.96 344.306 180.798 344.306 180.566V180.517C344.306 179.917 344.141 179.45 343.812 179.117C343.488 178.784 342.994 178.617 342.333 178.617C341.646 178.617 341.108 178.768 340.719 179.068C340.329 179.368 340.055 179.689 339.897 180.03L338.532 179.543C338.776 178.975 339.101 178.532 339.507 178.215C339.917 177.895 340.363 177.671 340.847 177.546C341.334 177.416 341.813 177.351 342.284 177.351C342.584 177.351 342.929 177.387 343.319 177.46C343.713 177.529 344.093 177.673 344.458 177.893C344.827 178.112 345.134 178.443 345.378 178.885C345.621 179.328 345.743 179.921 345.743 180.664V186.827H344.306V185.56H344.233C344.135 185.763 343.973 185.98 343.745 186.212C343.518 186.443 343.216 186.64 342.838 186.802C342.46 186.965 342 187.046 341.456 187.046ZM341.675 185.755C342.243 185.755 342.722 185.643 343.112 185.42C343.506 185.197 343.802 184.908 344.001 184.555C344.204 184.202 344.306 183.83 344.306 183.441V182.125C344.245 182.198 344.111 182.265 343.904 182.326C343.701 182.383 343.465 182.434 343.197 182.478C342.933 182.519 342.676 182.556 342.424 182.588C342.176 182.616 341.975 182.641 341.821 182.661C341.447 182.71 341.098 182.789 340.773 182.899C340.453 183.004 340.193 183.165 339.994 183.38C339.799 183.591 339.702 183.879 339.702 184.245C339.702 184.744 339.886 185.122 340.256 185.377C340.629 185.629 341.102 185.755 341.675 185.755ZM352.142 190.529C351.448 190.529 350.851 190.44 350.352 190.261C349.852 190.087 349.436 189.855 349.103 189.567C348.774 189.283 348.512 188.979 348.317 188.654L349.462 187.85C349.592 188.02 349.757 188.215 349.956 188.434C350.155 188.658 350.427 188.851 350.772 189.013C351.121 189.179 351.578 189.263 352.142 189.263C352.897 189.263 353.52 189.08 354.012 188.715C354.503 188.349 354.749 187.777 354.749 186.997V185.097H354.627C354.521 185.268 354.371 185.479 354.176 185.731C353.985 185.978 353.709 186.199 353.348 186.394C352.991 186.585 352.507 186.681 351.898 186.681C351.143 186.681 350.465 186.502 349.864 186.145C349.268 185.787 348.795 185.268 348.445 184.586C348.1 183.904 347.928 183.075 347.928 182.101C347.928 181.143 348.096 180.308 348.433 179.598C348.77 178.883 349.239 178.331 349.84 177.941C350.441 177.548 351.135 177.351 351.923 177.351C352.532 177.351 353.015 177.452 353.372 177.655C353.734 177.854 354.01 178.081 354.2 178.337C354.395 178.589 354.546 178.796 354.651 178.958H354.797V177.472H356.186V187.095C356.186 187.899 356.003 188.552 355.638 189.056C355.276 189.563 354.789 189.935 354.176 190.17C353.567 190.41 352.889 190.529 352.142 190.529ZM352.093 185.389C352.67 185.389 353.157 185.258 353.555 184.994C353.953 184.73 354.255 184.35 354.462 183.855C354.669 183.359 354.773 182.767 354.773 182.077C354.773 181.403 354.671 180.808 354.468 180.292C354.265 179.777 353.965 179.373 353.567 179.08C353.169 178.788 352.678 178.642 352.093 178.642C351.484 178.642 350.977 178.796 350.571 179.105C350.169 179.413 349.866 179.827 349.663 180.347C349.464 180.867 349.365 181.443 349.365 182.077C349.365 182.726 349.466 183.301 349.669 183.8C349.877 184.295 350.181 184.685 350.583 184.969C350.989 185.249 351.492 185.389 352.093 185.389ZM362.739 187.022C361.837 187.022 361.06 186.823 360.406 186.425C359.757 186.023 359.255 185.463 358.902 184.744C358.553 184.021 358.378 183.181 358.378 182.223C358.378 181.265 358.553 180.42 358.902 179.689C359.255 178.954 359.746 178.382 360.376 177.972C361.009 177.558 361.748 177.351 362.592 177.351C363.08 177.351 363.561 177.432 364.036 177.594C364.511 177.757 364.943 178.021 365.333 178.386C365.723 178.747 366.033 179.226 366.265 179.823C366.496 180.42 366.612 181.155 366.612 182.028V182.637H359.401V181.394H365.15C365.15 180.867 365.045 180.396 364.834 179.982C364.627 179.567 364.33 179.241 363.944 179.001C363.563 178.762 363.112 178.642 362.592 178.642C362.02 178.642 361.525 178.784 361.107 179.068C360.692 179.348 360.374 179.714 360.15 180.164C359.927 180.615 359.815 181.098 359.815 181.614V182.442C359.815 183.148 359.937 183.747 360.181 184.238C360.428 184.726 360.772 185.097 361.21 185.353C361.649 185.605 362.158 185.731 362.739 185.731C363.116 185.731 363.457 185.678 363.762 185.572C364.07 185.463 364.336 185.3 364.56 185.085C364.783 184.866 364.955 184.594 365.077 184.269L366.466 184.659C366.32 185.13 366.074 185.544 365.729 185.901C365.384 186.254 364.957 186.53 364.45 186.729C363.942 186.924 363.372 187.022 362.739 187.022ZM368.798 186.827V177.472H370.187V178.934H370.309C370.503 178.435 370.818 178.047 371.252 177.771C371.687 177.491 372.209 177.351 372.818 177.351C373.435 177.351 373.948 177.491 374.358 177.771C374.773 178.047 375.095 178.435 375.327 178.934H375.424C375.664 178.451 376.023 178.067 376.502 177.783C376.981 177.495 377.556 177.351 378.226 177.351C379.062 177.351 379.746 177.613 380.278 178.136C380.81 178.656 381.076 179.466 381.076 180.566V186.827H379.638V180.566C379.638 179.876 379.45 179.383 379.072 179.086C378.694 178.79 378.25 178.642 377.738 178.642C377.081 178.642 376.571 178.841 376.21 179.239C375.848 179.632 375.668 180.132 375.668 180.737V186.827H374.206V180.42C374.206 179.888 374.034 179.46 373.688 179.135C373.343 178.806 372.899 178.642 372.355 178.642C371.981 178.642 371.632 178.741 371.307 178.94C370.987 179.139 370.727 179.415 370.528 179.768C370.333 180.118 370.235 180.522 370.235 180.98V186.827H368.798ZM387.626 187.022C386.724 187.022 385.947 186.823 385.293 186.425C384.643 186.023 384.142 185.463 383.789 184.744C383.44 184.021 383.265 183.181 383.265 182.223C383.265 181.265 383.44 180.42 383.789 179.689C384.142 178.954 384.633 178.382 385.263 177.972C385.896 177.558 386.635 177.351 387.479 177.351C387.967 177.351 388.448 177.432 388.923 177.594C389.398 177.757 389.83 178.021 390.22 178.386C390.61 178.747 390.92 179.226 391.152 179.823C391.383 180.42 391.499 181.155 391.499 182.028V182.637H384.288V181.394H390.037C390.037 180.867 389.932 180.396 389.72 179.982C389.513 179.567 389.217 179.241 388.831 179.001C388.45 178.762 387.999 178.642 387.479 178.642C386.907 178.642 386.412 178.784 385.993 179.068C385.579 179.348 385.261 179.714 385.037 180.164C384.814 180.615 384.702 181.098 384.702 181.614V182.442C384.702 183.148 384.824 183.747 385.068 184.238C385.315 184.726 385.658 185.097 386.097 185.353C386.535 185.605 387.045 185.731 387.626 185.731C388.003 185.731 388.344 185.678 388.649 185.572C388.957 185.463 389.223 185.3 389.446 185.085C389.67 184.866 389.842 184.594 389.964 184.269L391.353 184.659C391.206 185.13 390.961 185.544 390.616 185.901C390.271 186.254 389.844 186.53 389.337 186.729C388.829 186.924 388.259 187.022 387.626 187.022ZM395.122 181.2V186.827H393.685V177.472H395.074V178.934H395.195C395.415 178.459 395.748 178.077 396.194 177.789C396.641 177.497 397.217 177.351 397.924 177.351C398.557 177.351 399.111 177.481 399.586 177.74C400.061 177.996 400.431 178.386 400.695 178.91C400.959 179.429 401.091 180.087 401.091 180.883V186.827H399.653V180.98C399.653 180.245 399.462 179.673 399.081 179.263C398.699 178.849 398.175 178.642 397.51 178.642C397.051 178.642 396.641 178.741 396.279 178.94C395.922 179.139 395.64 179.429 395.433 179.811C395.226 180.193 395.122 180.656 395.122 181.2ZM407.785 177.472V178.69H402.937V177.472H407.785ZM404.35 175.231H405.787V184.147C405.787 184.553 405.846 184.858 405.964 185.061C406.086 185.26 406.24 185.394 406.427 185.463C406.618 185.528 406.819 185.56 407.03 185.56C407.188 185.56 407.318 185.552 407.42 185.536C407.521 185.515 407.602 185.499 407.663 185.487L407.955 186.778C407.858 186.815 407.722 186.851 407.547 186.888C407.373 186.928 407.152 186.949 406.884 186.949C406.478 186.949 406.08 186.861 405.69 186.687C405.304 186.512 404.984 186.246 404.728 185.889C404.476 185.532 404.35 185.081 404.35 184.537V175.231Z" fill="#71737C"/>
</g>
</g>
<defs>
<filter id="filter0_dddd_1511_28576" x="81.8194" y="102.982" width="479.823" height="158.659" filterUnits="userSpaceOnUse" color-interpolation-filters="sRGB">
<feFlood flood-opacity="0" result="BackgroundImageFix"/>
<feColorMatrix in="SourceAlpha" type="matrix" values="0 0 0 0 0 0 0 0 0 0 0 0 0 0 0 0 0 0 127 0" result="hardAlpha"/>
<feOffset dx="2.59028" dy="1.29514"/>
<feGaussianBlur stdDeviation="3.88541"/>
<feColorMatrix type="matrix" values="0 0 0 0 0.85098 0 0 0 0 0.85098 0 0 0 0 0.85098 0 0 0 0.1 0"/>
<feBlend mode="normal" in2="BackgroundImageFix" result="effect1_dropShadow_1511_28576"/>
<feColorMatrix in="SourceAlpha" type="matrix" values="0 0 0 0 0 0 0 0 0 0 0 0 0 0 0 0 0 0 127 0" result="hardAlpha"/>
<feOffset dx="11.6562" dy="6.47569"/>
<feGaussianBlur stdDeviation="6.47569"/>
<feColorMatrix type="matrix" values="0 0 0 0 0.85098 0 0 0 0 0.85098 0 0 0 0 0.85098 0 0 0 0.09 0"/>
<feBlend mode="normal" in2="effect1_dropShadow_1511_28576" result="effect2_dropShadow_1511_28576"/>
<feColorMatrix in="SourceAlpha" type="matrix" values="0 0 0 0 0 0 0 0 0 0 0 0 0 0 0 0 0 0 127 0" result="hardAlpha"/>
<feOffset dx="25.9028" dy="15.5417"/>
<feGaussianBlur stdDeviation="9.06597"/>
<feColorMatrix type="matrix" values="0 0 0 0 0.85098 0 0 0 0 0.85098 0 0 0 0 0.85098 0 0 0 0.05 0"/>
<feBlend mode="normal" in2="effect2_dropShadow_1511_28576" result="effect3_dropShadow_1511_28576"/>
<feColorMatrix in="SourceAlpha" type="matrix" values="0 0 0 0 0 0 0 0 0 0 0 0 0 0 0 0 0 0 127 0" result="hardAlpha"/>
<feOffset dx="46.625" dy="27.1979"/>
<feGaussianBlur stdDeviation="11.0087"/>
<feColorMatrix type="matrix" values="0 0 0 0 0.85098 0 0 0 0 0.85098 0 0 0 0 0.85098 0 0 0 0.01 0"/>
<feBlend mode="normal" in2="effect3_dropShadow_1511_28576" result="effect4_dropShadow_1511_28576"/>
<feBlend mode="normal" in="SourceGraphic" in2="effect4_dropShadow_1511_28576" result="shape"/>
</filter>
<filter id="filter1_ddd_1511_28576" x="407.727" y="125.688" width="41.5699" height="41.5713" filterUnits="userSpaceOnUse" color-interpolation-filters="sRGB">
<feFlood flood-opacity="0" result="BackgroundImageFix"/>
<feColorMatrix in="SourceAlpha" type="matrix" values="0 0 0 0 0 0 0 0 0 0 0 0 0 0 0 0 0 0 127 0" result="hardAlpha"/>
<feOffset dy="2.90032"/>
<feGaussianBlur stdDeviation="0.483387"/>
<feComposite in2="hardAlpha" operator="out"/>
<feColorMatrix type="matrix" values="0 0 0 0 0 0 0 0 0 0 0 0 0 0 0 0 0 0 0.06 0"/>
<feBlend mode="normal" in2="BackgroundImageFix" result="effect1_dropShadow_1511_28576"/>
<feColorMatrix in="SourceAlpha" type="matrix" values="0 0 0 0 0 0 0 0 0 0 0 0 0 0 0 0 0 0 127 0" result="hardAlpha"/>
<feOffset dy="2.90032"/>
<feGaussianBlur stdDeviation="3.86709"/>
<feComposite in2="hardAlpha" operator="out"/>
<feColorMatrix type="matrix" values="0 0 0 0 0 0 0 0 0 0 0 0 0 0 0 0 0 0 0.15 0"/>
<feBlend mode="normal" in2="effect1_dropShadow_1511_28576" result="effect2_dropShadow_1511_28576"/>
<feColorMatrix in="SourceAlpha" type="matrix" values="0 0 0 0 0 0 0 0 0 0 0 0 0 0 0 0 0 0 127 0" result="hardAlpha"/>
<feMorphology radius="0.966774" operator="dilate" in="SourceAlpha" result="effect3_dropShadow_1511_28576"/>
<feOffset/>
<feComposite in2="hardAlpha" operator="out"/>
<feColorMatrix type="matrix" values="0 0 0 0 0 0 0 0 0 0 0 0 0 0 0 0 0 0 0.04 0"/>
<feBlend mode="normal" in2="effect2_dropShadow_1511_28576" result="effect3_dropShadow_1511_28576"/>
<feBlend mode="normal" in="SourceGraphic" in2="effect3_dropShadow_1511_28576" result="shape"/>
</filter>
<clipPath id="clip0_1511_28576">
<rect width="580" height="320" fill="white" transform="translate(0 0.941772)"/>
</clipPath>
<clipPath id="clip1_1511_28576">
<rect x="413.527" y="129.057" width="49.3054" height="29.97" rx="14.985" fill="white"/>
</clipPath>
</defs>
</svg>
