<svg width="744" height="321" viewBox="0 0 744 321" fill="none" xmlns="http://www.w3.org/2000/svg">
<g clip-path="url(#clip0_1511_24182)">
<g filter="url(#filter0_dddd_1511_24182)">
<rect x="110" y="66.8699" width="524" height="187.455" rx="12" fill="white"/>
<rect x="110.42" y="67.2899" width="523.16" height="186.615" rx="11.58" stroke="#D6DAE1" stroke-width="0.840027"/>
<path d="M131.385 82.5159C132.867 82.5159 134.041 82.9888 134.907 83.9346C135.778 84.8803 136.213 86.1625 136.213 87.7811C136.213 89.3997 135.778 90.6819 134.907 91.6277C134.041 92.5687 132.867 93.0393 131.385 93.0393C129.898 93.0393 128.72 92.5687 127.849 91.6277C126.983 90.6819 126.551 89.3997 126.551 87.7811C126.551 86.1625 126.983 84.8803 127.849 83.9346C128.72 82.9888 129.898 82.5159 131.385 82.5159ZM133.552 85.0779C133.016 84.4051 132.293 84.0687 131.385 84.0687C130.477 84.0687 129.755 84.4027 129.218 85.0709C128.682 85.739 128.414 86.6425 128.414 87.7811C128.414 88.9151 128.682 89.8162 129.218 90.4843C129.755 91.1525 130.477 91.4865 131.385 91.4865C132.293 91.4865 133.016 91.1525 133.552 90.4843C134.088 89.8162 134.357 88.9151 134.357 87.7811C134.357 86.6472 134.088 85.7461 133.552 85.0779ZM137.518 92.8699V85.1556H139.205V86.4966H139.241C139.363 86.0449 139.586 85.6943 139.911 85.445C140.24 85.1956 140.633 85.0709 141.09 85.0709C141.306 85.0709 141.485 85.0944 141.626 85.1415V86.7436C141.471 86.673 141.238 86.6377 140.927 86.6377C140.415 86.6377 140.01 86.7954 139.714 87.1106C139.422 87.4212 139.276 87.8494 139.276 88.3952V92.8699H137.518ZM145.205 92.9546C144.24 92.9546 143.464 92.597 142.875 91.8818C142.287 91.1619 141.993 90.2043 141.993 89.0092C141.993 87.8188 142.287 86.866 142.875 86.1507C143.464 85.4308 144.238 85.0709 145.197 85.0709C145.748 85.0709 146.233 85.1932 146.651 85.4379C147.07 85.6826 147.385 86.0214 147.597 86.4542H147.64V82.2124H149.397V92.8699H147.675V91.5571H147.64C147.428 91.99 147.108 92.3311 146.68 92.5805C146.256 92.8299 145.764 92.9546 145.205 92.9546ZM145.72 86.5319C145.136 86.5319 144.668 86.7577 144.315 87.2094C143.967 87.6611 143.793 88.2634 143.793 89.0163C143.793 89.7738 143.967 90.3761 144.315 90.8231C144.668 91.2701 145.136 91.4936 145.72 91.4936C146.303 91.4936 146.769 91.2677 147.117 90.816C147.47 90.3643 147.647 89.7644 147.647 89.0163C147.647 88.2728 147.47 87.6729 147.117 87.2165C146.764 86.7601 146.299 86.5319 145.72 86.5319ZM154.246 86.419C153.733 86.419 153.305 86.5907 152.961 86.9342C152.618 87.273 152.427 87.7176 152.389 88.2681H156.045C156.027 87.7129 155.853 87.2659 155.523 86.9271C155.194 86.5883 154.768 86.419 154.246 86.419ZM156.053 90.5761H157.704C157.591 91.2913 157.222 91.8724 156.596 92.3194C155.97 92.7617 155.208 92.9828 154.309 92.9828C153.171 92.9828 152.27 92.6299 151.606 91.9241C150.947 91.2183 150.618 90.2584 150.618 89.0445C150.618 87.8305 150.945 86.8612 151.599 86.1366C152.258 85.412 153.14 85.0497 154.246 85.0497C155.328 85.0497 156.187 85.3932 156.822 86.0802C157.457 86.7671 157.775 87.6941 157.775 88.861V89.4397H152.375V89.5456C152.375 90.1667 152.557 90.6678 152.919 91.0489C153.281 91.4254 153.756 91.6136 154.345 91.6136C154.768 91.6136 155.133 91.5218 155.439 91.3383C155.744 91.1501 155.949 90.896 156.053 90.5761ZM158.96 92.8699V85.1556H160.647V86.4966H160.683C160.805 86.0449 161.028 85.6943 161.353 85.445C161.682 85.1956 162.075 85.0709 162.532 85.0709C162.748 85.0709 162.927 85.0944 163.068 85.1415V86.7436C162.913 86.673 162.68 86.6377 162.369 86.6377C161.856 86.6377 161.452 86.7954 161.155 87.1106C160.864 87.4212 160.718 87.8494 160.718 88.3952V92.8699H158.96ZM169.18 92.8699H167.423V82.6853H169.004L174.057 89.8209H174.121V82.6853H175.871V92.8699H174.304L169.244 85.7273H169.18V92.8699ZM180.91 92.9828C179.772 92.9828 178.868 92.6276 178.2 91.9171C177.532 91.2066 177.198 90.2373 177.198 89.0092C177.198 87.7952 177.532 86.833 178.2 86.1225C178.873 85.4073 179.777 85.0497 180.91 85.0497C182.049 85.0497 182.953 85.405 183.621 86.1155C184.294 86.826 184.63 87.7905 184.63 89.0092C184.63 90.2373 184.296 91.2066 183.628 91.9171C182.96 92.6276 182.054 92.9828 180.91 92.9828ZM180.91 91.5783C181.517 91.5783 181.99 91.3548 182.329 90.9078C182.673 90.4561 182.844 89.8256 182.844 89.0163C182.844 88.2117 182.673 87.5835 182.329 87.1318C181.99 86.6801 181.517 86.4542 180.91 86.4542C180.308 86.4542 179.835 86.6801 179.492 87.1318C179.153 87.5835 178.984 88.2117 178.984 89.0163C178.984 89.8209 179.153 90.449 179.492 90.9007C179.835 91.3524 180.308 91.5783 180.91 91.5783ZM186.303 83.4335H188.06V85.1556H189.521V86.5178H188.06V90.5831C188.06 91.2089 188.371 91.5218 188.992 91.5218C189.152 91.5218 189.326 91.5101 189.514 91.4865V92.8346C189.302 92.8816 188.994 92.9052 188.589 92.9052C187.771 92.9052 187.185 92.7452 186.832 92.4252C186.479 92.1006 186.303 91.5665 186.303 90.8231V86.5178H185.251V85.1556H186.303V83.4335ZM193.925 86.419C193.412 86.419 192.984 86.5907 192.641 86.9342C192.297 87.273 192.107 87.7176 192.069 88.2681H195.725C195.706 87.7129 195.532 87.2659 195.203 86.9271C194.873 86.5883 194.448 86.419 193.925 86.419ZM195.732 90.5761H197.384C197.271 91.2913 196.901 91.8724 196.276 92.3194C195.65 92.7617 194.887 92.9828 193.989 92.9828C192.85 92.9828 191.949 92.6299 191.286 91.9241C190.627 91.2183 190.297 90.2584 190.297 89.0445C190.297 87.8305 190.625 86.8612 191.279 86.1366C191.937 85.412 192.82 85.0497 193.925 85.0497C195.007 85.0497 195.866 85.3932 196.501 86.0802C197.137 86.7671 197.454 87.6941 197.454 88.861V89.4397H192.055V89.5456C192.055 90.1667 192.236 90.6678 192.598 91.0489C192.961 91.4254 193.436 91.6136 194.024 91.6136C194.448 91.6136 194.812 91.5218 195.118 91.3383C195.424 91.1501 195.629 90.896 195.732 90.5761ZM198.506 87.3859C198.506 86.6848 198.79 86.1202 199.36 85.692C199.929 85.2638 200.677 85.0497 201.604 85.0497C202.494 85.0497 203.221 85.2685 203.785 85.7061C204.35 86.139 204.641 86.706 204.66 87.4071H203.023C202.995 87.0824 202.849 86.826 202.585 86.6377C202.327 86.4448 201.988 86.3484 201.569 86.3484C201.16 86.3484 200.83 86.4354 200.581 86.6095C200.336 86.7789 200.214 87.0048 200.214 87.2871C200.214 87.7153 200.588 88.0164 201.336 88.1905L202.691 88.501C203.468 88.6798 204.018 88.9292 204.343 89.2492C204.672 89.5691 204.837 90.0138 204.837 90.5831C204.837 91.2983 204.533 91.8771 203.926 92.3194C203.319 92.7617 202.531 92.9828 201.562 92.9828C200.621 92.9828 199.856 92.7664 199.268 92.3335C198.685 91.8959 198.365 91.3171 198.308 90.5972H200.037C200.089 90.9454 200.251 91.2136 200.524 91.4018C200.802 91.59 201.171 91.6841 201.632 91.6841C202.079 91.6841 202.432 91.6018 202.691 91.4371C202.955 91.2677 203.086 91.0395 203.086 90.7525C203.086 90.5266 203.006 90.3478 202.846 90.2161C202.691 90.0796 202.421 89.9667 202.035 89.8773L200.637 89.5385C199.216 89.2045 198.506 88.4869 198.506 87.3859ZM212.029 91.6065C212.565 91.6065 213.012 91.4559 213.37 91.1548C213.727 90.8537 213.906 90.4702 213.906 90.0044V89.4186L212.142 89.5315C211.163 89.5974 210.674 89.9503 210.674 90.5902C210.674 90.9007 210.796 91.1477 211.041 91.3313C211.29 91.5148 211.619 91.6065 212.029 91.6065ZM211.514 92.9546C210.751 92.9546 210.125 92.7428 209.636 92.3194C209.152 91.8959 208.909 91.343 208.909 90.6607C208.909 89.9738 209.163 89.4374 209.671 89.0515C210.184 88.6657 210.928 88.4422 211.902 88.381L213.906 88.2611V87.6964C213.906 87.2918 213.774 86.9812 213.511 86.7648C213.252 86.5436 212.885 86.4331 212.41 86.4331C212.015 86.4331 211.683 86.5272 211.415 86.7154C211.147 86.9036 210.982 87.1553 210.921 87.4706H209.297C209.321 86.7648 209.627 86.186 210.215 85.7343C210.808 85.2779 211.558 85.0497 212.466 85.0497C213.431 85.0497 214.2 85.2803 214.774 85.7414C215.353 86.2025 215.642 86.8165 215.642 87.5835V92.8699H213.956V91.6277H213.913C213.701 92.037 213.377 92.3617 212.939 92.6017C212.506 92.8369 212.031 92.9546 211.514 92.9546ZM217.118 92.8699V85.1556H218.804V86.4966H218.84C219.305 85.5414 220.136 85.0638 221.331 85.0638C222.187 85.0638 222.86 85.3179 223.35 85.8261C223.839 86.3343 224.084 87.0353 224.084 87.9293V92.8699H222.326V88.2752C222.326 87.7247 222.183 87.3012 221.896 87.0048C221.609 86.7036 221.202 86.5531 220.675 86.5531C220.134 86.5531 219.698 86.7271 219.369 87.0753C219.04 87.4235 218.875 87.8799 218.875 88.4446V92.8699H217.118ZM228.431 92.9546C227.467 92.9546 226.69 92.597 226.102 91.8818C225.514 91.1619 225.22 90.2043 225.22 89.0092C225.22 87.8188 225.514 86.866 226.102 86.1507C226.69 85.4308 227.464 85.0709 228.424 85.0709C228.975 85.0709 229.459 85.1932 229.878 85.4379C230.297 85.6826 230.612 86.0214 230.824 86.4542H230.866V82.2124H232.624V92.8699H230.902V91.5571H230.866C230.655 91.99 230.335 92.3311 229.906 92.5805C229.483 92.8299 228.991 92.9546 228.431 92.9546ZM228.947 86.5319C228.363 86.5319 227.895 86.7577 227.542 87.2094C227.194 87.6611 227.02 88.2634 227.02 89.0163C227.02 89.7738 227.194 90.3761 227.542 90.8231C227.895 91.2701 228.363 91.4936 228.947 91.4936C229.53 91.4936 229.996 91.2677 230.344 90.816C230.697 90.3643 230.873 89.7644 230.873 89.0163C230.873 88.2728 230.697 87.6729 230.344 87.2165C229.991 86.7601 229.525 86.5319 228.947 86.5319ZM241.94 93.0393C240.482 93.0393 239.326 92.5687 238.475 91.6277C237.628 90.6866 237.204 89.4021 237.204 87.7741C237.204 86.1555 237.63 84.8756 238.482 83.9346C239.338 82.9888 240.491 82.5159 241.94 82.5159C243.126 82.5159 244.126 82.8547 244.94 83.5323C245.754 84.2051 246.217 85.0874 246.33 86.179H244.537C244.42 85.5391 244.121 85.0262 243.641 84.6404C243.166 84.2545 242.599 84.0616 241.94 84.0616C241.065 84.0616 240.366 84.398 239.844 85.0709C239.326 85.739 239.068 86.6401 239.068 87.7741C239.068 88.9174 239.326 89.8232 239.844 90.4914C240.362 91.1595 241.063 91.4936 241.947 91.4936C242.62 91.4936 243.185 91.3218 243.641 90.9784C244.102 90.6302 244.403 90.1502 244.545 89.5385H246.33C246.17 90.6302 245.7 91.4865 244.919 92.1076C244.138 92.7287 243.145 93.0393 241.94 93.0393ZM250.953 92.9828C249.814 92.9828 248.911 92.6276 248.243 91.9171C247.575 91.2066 247.241 90.2373 247.241 89.0092C247.241 87.7952 247.575 86.833 248.243 86.1225C248.916 85.4073 249.819 85.0497 250.953 85.0497C252.092 85.0497 252.995 85.405 253.663 86.1155C254.336 86.826 254.673 87.7905 254.673 89.0092C254.673 90.2373 254.339 91.2066 253.67 91.9171C253.002 92.6276 252.096 92.9828 250.953 92.9828ZM250.953 91.5783C251.56 91.5783 252.033 91.3548 252.372 90.9078C252.715 90.4561 252.887 89.8256 252.887 89.0163C252.887 88.2117 252.715 87.5835 252.372 87.1318C252.033 86.6801 251.56 86.4542 250.953 86.4542C250.351 86.4542 249.878 86.6801 249.534 87.1318C249.196 87.5835 249.026 88.2117 249.026 89.0163C249.026 89.8209 249.196 90.449 249.534 90.9007C249.878 91.3524 250.351 91.5783 250.953 91.5783ZM255.851 92.8699V85.1556H257.538V86.5107H257.573C257.743 86.0637 258.023 85.7108 258.413 85.452C258.809 85.1932 259.26 85.0638 259.768 85.0638C260.314 85.0638 260.773 85.1979 261.145 85.4661C261.521 85.7296 261.782 86.106 261.928 86.5954H261.963C262.152 86.1249 262.46 85.7532 262.888 85.4802C263.321 85.2026 263.815 85.0638 264.37 85.0638C265.128 85.0638 265.737 85.2967 266.198 85.7626C266.659 86.2284 266.89 86.8471 266.89 87.6188V92.8699H265.132V88.0493C265.132 87.5694 265.01 87.2 264.765 86.9412C264.521 86.6777 264.173 86.546 263.721 86.546C263.279 86.546 262.919 86.6942 262.641 86.9906C262.363 87.2871 262.225 87.6706 262.225 88.1411V92.8699H260.517V87.9505C260.517 87.5176 260.392 87.1765 260.142 86.9271C259.893 86.673 259.554 86.546 259.126 86.546C258.684 86.546 258.319 86.7013 258.032 87.0118C257.75 87.3177 257.609 87.7082 257.609 88.1834V92.8699H255.851ZM268.358 92.8699V85.1556H270.045V86.5107H270.08C270.249 86.0637 270.529 85.7108 270.92 85.452C271.315 85.1932 271.767 85.0638 272.275 85.0638C272.821 85.0638 273.28 85.1979 273.651 85.4661C274.028 85.7296 274.289 86.106 274.435 86.5954H274.47C274.658 86.1249 274.966 85.7532 275.395 85.4802C275.828 85.2026 276.322 85.0638 276.877 85.0638C277.634 85.0638 278.244 85.2967 278.705 85.7626C279.166 86.2284 279.396 86.8471 279.396 87.6188V92.8699H277.639V88.0493C277.639 87.5694 277.517 87.2 277.272 86.9412C277.027 86.6777 276.679 86.546 276.227 86.546C275.785 86.546 275.425 86.6942 275.148 86.9906C274.87 87.2871 274.731 87.6706 274.731 88.1411V92.8699H273.023V87.9505C273.023 87.5176 272.898 87.1765 272.649 86.9271C272.4 86.673 272.061 86.546 271.633 86.546C271.19 86.546 270.826 86.7013 270.539 87.0118C270.256 87.3177 270.115 87.7082 270.115 88.1834V92.8699H268.358ZM284.168 86.419C283.655 86.419 283.227 86.5907 282.883 86.9342C282.54 87.273 282.349 87.7176 282.311 88.2681H285.967C285.949 87.7129 285.774 87.2659 285.445 86.9271C285.116 86.5883 284.69 86.419 284.168 86.419ZM285.974 90.5761H287.626C287.513 91.2913 287.144 91.8724 286.518 92.3194C285.892 92.7617 285.13 92.9828 284.231 92.9828C283.092 92.9828 282.191 92.6299 281.528 91.9241C280.869 91.2183 280.54 90.2584 280.54 89.0445C280.54 87.8305 280.867 86.8612 281.521 86.1366C282.18 85.412 283.062 85.0497 284.168 85.0497C285.25 85.0497 286.109 85.3932 286.744 86.0802C287.379 86.7671 287.697 87.6941 287.697 88.861V89.4397H282.297V89.5456C282.297 90.1667 282.478 90.6678 282.841 91.0489C283.203 91.4254 283.678 91.6136 284.266 91.6136C284.69 91.6136 285.055 91.5218 285.36 91.3383C285.666 91.1501 285.871 90.896 285.974 90.5761ZM288.882 92.8699V85.1556H290.569V86.4966H290.604C291.07 85.5414 291.901 85.0638 293.096 85.0638C293.952 85.0638 294.625 85.3179 295.114 85.8261C295.604 86.3343 295.848 87.0353 295.848 87.9293V92.8699H294.091V88.2752C294.091 87.7247 293.947 87.3012 293.66 87.0048C293.373 86.7036 292.966 86.5531 292.439 86.5531C291.898 86.5531 291.463 86.7271 291.134 87.0753C290.804 87.4235 290.64 87.8799 290.64 88.4446V92.8699H288.882ZM297.803 83.4335H299.561V85.1556H301.022V86.5178H299.561V90.5831C299.561 91.2089 299.871 91.5218 300.493 91.5218C300.652 91.5218 300.827 91.5101 301.015 91.4865V92.8346C300.803 92.8816 300.495 92.9052 300.09 92.9052C299.271 92.9052 298.686 92.7452 298.333 92.4252C297.98 92.1006 297.803 91.5665 297.803 90.8231V86.5178H296.752V85.1556H297.803V83.4335ZM302.13 87.3859C302.13 86.6848 302.415 86.1202 302.984 85.692C303.553 85.2638 304.301 85.0497 305.228 85.0497C306.118 85.0497 306.845 85.2685 307.409 85.7061C307.974 86.139 308.266 86.706 308.284 87.4071H306.647C306.619 87.0824 306.473 86.826 306.209 86.6377C305.951 86.4448 305.612 86.3484 305.193 86.3484C304.784 86.3484 304.454 86.4354 304.205 86.6095C303.96 86.7789 303.838 87.0048 303.838 87.2871C303.838 87.7153 304.212 88.0164 304.96 88.1905L306.315 88.501C307.092 88.6798 307.642 88.9292 307.967 89.2492C308.296 89.5691 308.461 90.0138 308.461 90.5831C308.461 91.2983 308.157 91.8771 307.55 92.3194C306.943 92.7617 306.155 92.9828 305.186 92.9828C304.245 92.9828 303.48 92.7664 302.892 92.3335C302.309 91.8959 301.989 91.3171 301.932 90.5972H303.662C303.713 90.9454 303.876 91.2136 304.149 91.4018C304.426 91.59 304.795 91.6841 305.257 91.6841C305.704 91.6841 306.056 91.6018 306.315 91.4371C306.579 91.2677 306.711 91.0395 306.711 90.7525C306.711 90.5266 306.631 90.3478 306.471 90.2161C306.315 90.0796 306.045 89.9667 305.659 89.8773L304.261 89.5385C302.84 89.2045 302.13 88.4869 302.13 87.3859Z" fill="#0E0E1E"/>
<g filter="url(#filter1_d_1511_24182)">
<rect x="126" y="110.324" width="488" height="84" rx="3.61365" fill="white" shape-rendering="crispEdges"/>
<rect x="126.452" y="110.776" width="487.097" height="83.0966" rx="3.16194" stroke="#DDDDE3" stroke-width="0.903412" shape-rendering="crispEdges"/>
<path d="M137.376 132.52H138.494C138.547 133.002 138.782 133.389 139.198 133.681C139.618 133.974 140.147 134.12 140.785 134.12C141.386 134.12 141.882 133.978 142.273 133.694C142.669 133.406 142.866 133.043 142.866 132.607C142.866 132.232 142.728 131.923 142.452 131.681C142.181 131.438 141.744 131.238 141.143 131.081L140.001 130.785C139.177 130.575 138.576 130.283 138.197 129.908C137.819 129.529 137.629 129.037 137.629 128.432C137.629 127.691 137.921 127.086 138.506 126.616C139.095 126.147 139.852 125.912 140.779 125.912C141.664 125.912 142.397 126.151 142.977 126.629C143.558 127.102 143.86 127.712 143.885 128.457H142.774C142.724 127.979 142.518 127.603 142.156 127.327C141.794 127.051 141.322 126.913 140.742 126.913C140.165 126.913 139.694 127.049 139.327 127.321C138.965 127.592 138.784 127.946 138.784 128.383C138.784 128.72 138.916 128.998 139.179 129.216C139.447 129.431 139.883 129.616 140.489 129.772L141.421 130.019C142.343 130.25 143.006 130.557 143.41 130.939C143.813 131.322 144.015 131.833 144.015 132.471C144.015 133.286 143.714 133.933 143.113 134.41C142.516 134.884 141.705 135.12 140.68 135.12C139.733 135.12 138.959 134.884 138.358 134.41C137.757 133.937 137.429 133.307 137.376 132.52ZM147.35 134.101C147.893 134.101 148.342 133.945 148.696 133.632C149.054 133.315 149.233 132.918 149.233 132.44V131.903L147.492 132.014C146.479 132.076 145.972 132.432 145.972 133.082C145.972 133.391 146.096 133.638 146.343 133.823C146.594 134.009 146.93 134.101 147.35 134.101ZM147.121 135.034C146.446 135.034 145.903 134.855 145.491 134.497C145.079 134.138 144.873 133.665 144.873 133.076C144.873 132.504 145.087 132.055 145.516 131.73C145.944 131.401 146.561 131.211 147.368 131.162L149.233 131.051V130.495C149.233 130.083 149.102 129.766 148.838 129.544C148.575 129.321 148.198 129.21 147.708 129.21C147.321 129.21 146.994 129.303 146.726 129.488C146.462 129.673 146.298 129.923 146.232 130.235H145.201C145.217 129.676 145.466 129.206 145.948 128.827C146.429 128.444 147.02 128.253 147.72 128.253C148.507 128.253 149.134 128.449 149.604 128.84C150.073 129.227 150.308 129.748 150.308 130.402V134.972H149.289V133.817H149.264C149.075 134.188 148.787 134.484 148.4 134.707C148.013 134.925 147.586 135.034 147.121 135.034ZM152.303 137.387C152.142 137.387 151.986 137.372 151.833 137.344V136.436C151.957 136.461 152.103 136.473 152.272 136.473C152.58 136.473 152.827 136.388 153.013 136.22C153.198 136.055 153.359 135.773 153.494 135.374L153.624 134.978L151.16 128.315H152.303L154.168 133.879H154.192L156.057 128.315H157.188L154.581 135.38C154.297 136.15 153.993 136.677 153.667 136.961C153.346 137.245 152.891 137.387 152.303 137.387ZM160.986 130.174C160.986 129.614 161.214 129.155 161.671 128.797C162.132 128.438 162.725 128.259 163.45 128.259C164.125 128.259 164.691 128.44 165.148 128.803C165.609 129.161 165.85 129.614 165.87 130.161H164.839C164.806 129.848 164.662 129.601 164.407 129.42C164.152 129.239 163.82 129.149 163.413 129.149C163.001 129.149 162.669 129.237 162.418 129.414C162.167 129.591 162.042 129.826 162.042 130.118C162.042 130.563 162.416 130.878 163.166 131.063L164.178 131.316C164.849 131.485 165.321 131.703 165.593 131.971C165.868 132.234 166.006 132.609 166.006 133.095C166.006 133.663 165.759 134.128 165.265 134.49C164.775 134.853 164.145 135.034 163.376 135.034C162.659 135.034 162.064 134.857 161.591 134.503C161.117 134.145 160.854 133.677 160.8 133.101H161.881C161.935 133.439 162.095 133.698 162.363 133.879C162.634 134.056 162.997 134.145 163.45 134.145C163.903 134.145 164.261 134.058 164.524 133.885C164.792 133.708 164.926 133.469 164.926 133.169C164.926 132.934 164.847 132.749 164.691 132.613C164.534 132.473 164.267 132.354 163.888 132.255L162.721 131.952C161.564 131.652 160.986 131.059 160.986 130.174ZM172.151 134.114C171.595 134.727 170.85 135.034 169.916 135.034C168.981 135.034 168.236 134.727 167.68 134.114C167.124 133.5 166.846 132.677 166.846 131.643C166.846 130.61 167.124 129.787 167.68 129.173C168.236 128.56 168.981 128.253 169.916 128.253C170.85 128.253 171.595 128.56 172.151 129.173C172.707 129.787 172.985 130.61 172.985 131.643C172.985 132.677 172.707 133.5 172.151 134.114ZM169.916 134.077C170.537 134.077 171.021 133.863 171.367 133.434C171.717 133.002 171.892 132.405 171.892 131.643C171.892 130.878 171.717 130.281 171.367 129.853C171.021 129.424 170.537 129.21 169.916 129.21C169.294 129.21 168.808 129.426 168.458 129.859C168.112 130.287 167.939 130.882 167.939 131.643C167.939 132.405 168.114 133.002 168.464 133.434C168.814 133.863 169.298 134.077 169.916 134.077ZM174.115 134.972V128.315H175.128V129.396H175.153C175.309 129.041 175.554 128.764 175.887 128.562C176.225 128.356 176.61 128.253 177.042 128.253C177.491 128.253 177.878 128.362 178.203 128.58C178.529 128.799 178.763 129.109 178.907 129.513H178.932C179.121 129.118 179.401 128.809 179.772 128.587C180.142 128.364 180.56 128.253 181.026 128.253C181.684 128.253 182.209 128.451 182.6 128.846C182.996 129.241 183.193 129.768 183.193 130.427V134.972H182.119V130.674C182.119 130.213 181.995 129.855 181.748 129.599C181.505 129.34 181.161 129.21 180.717 129.21C180.272 129.21 179.906 129.358 179.618 129.655C179.333 129.951 179.191 130.328 179.191 130.785V134.972H178.117V130.544C178.117 130.141 177.989 129.818 177.734 129.575C177.483 129.332 177.149 129.21 176.733 129.21C176.289 129.21 175.92 129.367 175.628 129.68C175.336 129.988 175.19 130.375 175.19 130.841V134.972H174.115ZM187.282 129.198C186.759 129.198 186.324 129.371 185.978 129.717C185.637 130.063 185.447 130.517 185.41 131.081H189.072C189.06 130.517 188.889 130.063 188.56 129.717C188.235 129.371 187.809 129.198 187.282 129.198ZM189.048 133.07H190.11C190.019 133.642 189.715 134.114 189.196 134.484C188.677 134.851 188.062 135.034 187.349 135.034C186.415 135.034 185.672 134.731 185.12 134.126C184.572 133.521 184.299 132.702 184.299 131.668C184.299 130.635 184.572 129.807 185.12 129.186C185.668 128.564 186.394 128.253 187.3 128.253C188.189 128.253 188.893 128.547 189.412 129.136C189.931 129.721 190.19 130.515 190.19 131.52V131.94H185.41V132.002C185.41 132.636 185.589 133.142 185.948 133.521C186.306 133.9 186.781 134.089 187.374 134.089C187.79 134.089 188.148 133.998 188.449 133.817C188.753 133.632 188.953 133.383 189.048 133.07ZM191.672 126.814H192.747V128.315H194.044V129.204H192.747V133.2C192.747 133.504 192.813 133.729 192.945 133.873C193.08 134.017 193.29 134.089 193.575 134.089C193.76 134.089 193.914 134.079 194.038 134.058V134.966C193.881 135.003 193.651 135.022 193.346 135.022C192.745 135.022 192.315 134.886 192.055 134.614C191.8 134.338 191.672 133.881 191.672 133.243V129.204H190.746V128.315H191.672V126.814ZM195.298 134.972V125.672H196.372V129.396H196.397C196.817 128.634 197.541 128.253 198.571 128.253C199.299 128.253 199.888 128.479 200.337 128.932C200.786 129.385 201.01 129.982 201.01 130.723V134.972H199.935V130.915C199.935 130.384 199.785 129.968 199.485 129.667C199.188 129.363 198.777 129.21 198.25 129.21C197.685 129.21 197.231 129.387 196.885 129.741C196.543 130.095 196.372 130.563 196.372 131.143V134.972H195.298ZM202.498 134.972V128.315H203.573V134.972H202.498ZM203.036 127.24C202.85 127.24 202.69 127.174 202.554 127.043C202.422 126.907 202.356 126.746 202.356 126.561C202.356 126.372 202.422 126.211 202.554 126.079C202.69 125.947 202.85 125.882 203.036 125.882C203.225 125.882 203.386 125.947 203.517 126.079C203.649 126.211 203.715 126.372 203.715 126.561C203.715 126.746 203.649 126.907 203.517 127.043C203.386 127.174 203.225 127.24 203.036 127.24ZM205.092 134.972V128.315H206.105V129.396H206.13C206.554 128.634 207.278 128.253 208.304 128.253C209.036 128.253 209.615 128.473 210.039 128.914C210.463 129.35 210.675 129.947 210.675 130.705V134.972H209.6V130.89C209.6 130.347 209.46 129.931 209.18 129.643C208.905 129.354 208.505 129.21 207.982 129.21C207.435 129.21 206.994 129.383 206.661 129.729C206.331 130.075 206.167 130.534 206.167 131.106V134.972H205.092ZM214.8 134.015C215.385 134.015 215.856 133.795 216.215 133.354C216.577 132.909 216.758 132.331 216.758 131.619C216.758 130.902 216.577 130.322 216.215 129.877C215.856 129.433 215.385 129.21 214.8 129.21C214.22 129.21 213.755 129.431 213.405 129.871C213.055 130.307 212.88 130.89 212.88 131.619C212.88 132.343 213.055 132.924 213.405 133.36C213.755 133.797 214.22 134.015 214.8 134.015ZM214.819 137.35C214.065 137.35 213.438 137.181 212.935 136.843C212.433 136.51 212.143 136.067 212.064 135.516H213.182C213.261 135.791 213.452 136.01 213.757 136.17C214.065 136.335 214.44 136.417 214.881 136.417C215.457 136.417 215.914 136.277 216.252 135.997C216.589 135.721 216.758 135.347 216.758 134.873V133.83H216.733C216.523 134.192 216.231 134.474 215.856 134.676C215.482 134.873 215.062 134.972 214.597 134.972C213.752 134.972 213.071 134.665 212.552 134.052C212.038 133.434 211.78 132.623 211.78 131.619C211.78 130.602 212.04 129.787 212.559 129.173C213.077 128.56 213.765 128.253 214.621 128.253C215.091 128.253 215.513 128.352 215.887 128.549C216.266 128.747 216.567 129.029 216.789 129.396H216.807V128.315H217.833V134.787C217.833 135.582 217.563 136.207 217.024 136.664C216.488 137.121 215.753 137.35 214.819 137.35ZM224.496 134.101C225.04 134.101 225.488 133.945 225.842 133.632C226.201 133.315 226.38 132.918 226.38 132.44V131.903L224.638 132.014C223.625 132.076 223.119 132.432 223.119 133.082C223.119 133.391 223.242 133.638 223.489 133.823C223.741 134.009 224.076 134.101 224.496 134.101ZM224.268 135.034C223.592 135.034 223.049 134.855 222.637 134.497C222.226 134.138 222.02 133.665 222.02 133.076C222.02 132.504 222.234 132.055 222.662 131.73C223.09 131.401 223.708 131.211 224.515 131.162L226.38 131.051V130.495C226.38 130.083 226.248 129.766 225.984 129.544C225.721 129.321 225.344 129.21 224.854 129.21C224.467 129.21 224.14 129.303 223.872 129.488C223.609 129.673 223.444 129.923 223.378 130.235H222.347C222.363 129.676 222.613 129.206 223.094 128.827C223.576 128.444 224.167 128.253 224.867 128.253C225.653 128.253 226.281 128.449 226.75 128.84C227.22 129.227 227.454 129.748 227.454 130.402V134.972H226.435V133.817H226.411C226.221 134.188 225.933 134.484 225.546 134.707C225.159 134.925 224.733 135.034 224.268 135.034ZM232.154 135.034C231.668 135.034 231.24 134.933 230.869 134.731C230.499 134.525 230.204 134.231 229.986 133.848H229.962V134.972H228.943V125.672H230.017V129.396H230.042C230.252 129.029 230.542 128.747 230.913 128.549C231.283 128.352 231.705 128.253 232.179 128.253C233.019 128.253 233.698 128.566 234.217 129.192C234.735 129.813 234.995 130.631 234.995 131.643C234.995 132.66 234.733 133.48 234.21 134.101C233.692 134.723 233.006 135.034 232.154 135.034ZM231.962 129.21C231.382 129.21 230.911 129.437 230.548 129.89C230.19 130.338 230.011 130.923 230.011 131.643C230.011 132.368 230.19 132.955 230.548 133.404C230.911 133.852 231.382 134.077 231.962 134.077C232.547 134.077 233.014 133.856 233.364 133.416C233.718 132.975 233.895 132.385 233.895 131.643C233.895 130.907 233.718 130.318 233.364 129.877C233.014 129.433 232.547 129.21 231.962 129.21ZM241.109 134.114C240.553 134.727 239.808 135.034 238.873 135.034C237.938 135.034 237.193 134.727 236.637 134.114C236.082 133.5 235.804 132.677 235.804 131.643C235.804 130.61 236.082 129.787 236.637 129.173C237.193 128.56 237.938 128.253 238.873 128.253C239.808 128.253 240.553 128.56 241.109 129.173C241.664 129.787 241.942 130.61 241.942 131.643C241.942 132.677 241.664 133.5 241.109 134.114ZM238.873 134.077C239.495 134.077 239.978 133.863 240.324 133.434C240.674 133.002 240.849 132.405 240.849 131.643C240.849 130.878 240.674 130.281 240.324 129.853C239.978 129.424 239.495 129.21 238.873 129.21C238.251 129.21 237.766 129.426 237.416 129.859C237.07 130.287 236.897 130.882 236.897 131.643C236.897 132.405 237.072 133.002 237.422 133.434C237.772 133.863 238.255 134.077 238.873 134.077ZM248.624 128.315V134.972H247.612V133.873H247.587C247.167 134.647 246.44 135.034 245.407 135.034C244.678 135.034 244.102 134.816 243.678 134.379C243.254 133.939 243.042 133.34 243.042 132.582V128.315H244.116V132.397C244.116 132.94 244.254 133.356 244.53 133.644C244.81 133.933 245.211 134.077 245.734 134.077C246.282 134.077 246.72 133.904 247.05 133.558C247.383 133.212 247.55 132.753 247.55 132.181V128.315H248.624ZM250.44 126.814H251.515V128.315H252.812V129.204H251.515V133.2C251.515 133.504 251.581 133.729 251.712 133.873C251.848 134.017 252.058 134.089 252.342 134.089C252.527 134.089 252.682 134.079 252.805 134.058V134.966C252.649 135.003 252.418 135.022 252.114 135.022C251.513 135.022 251.082 134.886 250.823 134.614C250.568 134.338 250.44 133.881 250.44 133.243V129.204H249.514V128.315H250.44V126.814ZM257.382 126.814H258.456V128.315H259.753V129.204H258.456V133.2C258.456 133.504 258.522 133.729 258.654 133.873C258.79 134.017 259 134.089 259.284 134.089C259.469 134.089 259.623 134.079 259.747 134.058V134.966C259.59 135.003 259.36 135.022 259.055 135.022C258.454 135.022 258.024 134.886 257.764 134.614C257.509 134.338 257.382 133.881 257.382 133.243V129.204H256.455V128.315H257.382V126.814ZM261.007 134.972V125.672H262.081V129.396H262.106C262.526 128.634 263.25 128.253 264.28 128.253C265.008 128.253 265.597 128.479 266.046 128.932C266.495 129.385 266.719 129.982 266.719 130.723V134.972H265.645V130.915C265.645 130.384 265.494 129.968 265.194 129.667C264.897 129.363 264.486 129.21 263.959 129.21C263.395 129.21 262.94 129.387 262.594 129.741C262.252 130.095 262.081 130.563 262.081 131.143V134.972H261.007ZM270.801 129.198C270.278 129.198 269.844 129.371 269.498 129.717C269.156 130.063 268.967 130.517 268.93 131.081H272.592C272.58 130.517 272.409 130.063 272.08 129.717C271.754 129.371 271.328 129.198 270.801 129.198ZM272.567 133.07H273.63C273.539 133.642 273.234 134.114 272.716 134.484C272.197 134.851 271.581 135.034 270.869 135.034C269.935 135.034 269.191 134.731 268.64 134.126C268.092 133.521 267.818 132.702 267.818 131.668C267.818 130.635 268.092 129.807 268.64 129.186C269.187 128.564 269.914 128.253 270.82 128.253C271.709 128.253 272.413 128.547 272.932 129.136C273.451 129.721 273.71 130.515 273.71 131.52V131.94H268.93V132.002C268.93 132.636 269.109 133.142 269.467 133.521C269.825 133.9 270.301 134.089 270.894 134.089C271.31 134.089 271.668 133.998 271.968 133.817C272.273 133.632 272.473 133.383 272.567 133.07ZM282.844 134.114C282.288 134.727 281.543 135.034 280.608 135.034C279.674 135.034 278.928 134.727 278.373 134.114C277.817 133.5 277.539 132.677 277.539 131.643C277.539 130.61 277.817 129.787 278.373 129.173C278.928 128.56 279.674 128.253 280.608 128.253C281.543 128.253 282.288 128.56 282.844 129.173C283.4 129.787 283.677 130.61 283.677 131.643C283.677 132.677 283.4 133.5 282.844 134.114ZM280.608 134.077C281.23 134.077 281.714 133.863 282.059 133.434C282.409 133.002 282.584 132.405 282.584 131.643C282.584 130.878 282.409 130.281 282.059 129.853C281.714 129.424 281.23 129.21 280.608 129.21C279.987 129.21 279.501 129.426 279.151 129.859C278.805 130.287 278.632 130.882 278.632 131.643C278.632 132.405 278.807 133.002 279.157 133.434C279.507 133.863 279.991 134.077 280.608 134.077ZM284.808 134.972V128.315H285.82V129.396H285.845C285.944 129.046 286.14 128.768 286.432 128.562C286.724 128.356 287.066 128.253 287.457 128.253C287.626 128.253 287.764 128.267 287.871 128.296V129.358C287.755 129.309 287.57 129.284 287.315 129.284C286.883 129.284 286.535 129.428 286.271 129.717C286.012 130.005 285.882 130.384 285.882 130.853V134.972H284.808ZM291.039 135.034C290.199 135.034 289.514 134.723 288.982 134.101C288.451 133.476 288.186 132.656 288.186 131.643C288.186 130.635 288.449 129.818 288.976 129.192C289.503 128.566 290.183 128.253 291.014 128.253C291.488 128.253 291.908 128.352 292.274 128.549C292.645 128.747 292.933 129.029 293.139 129.396H293.163V125.672H294.238V134.972H293.213V133.848H293.194C292.976 134.231 292.682 134.525 292.311 134.731C291.945 134.933 291.521 135.034 291.039 135.034ZM291.23 129.21C290.646 129.21 290.174 129.433 289.816 129.877C289.462 130.322 289.285 130.911 289.285 131.643C289.285 132.38 289.462 132.971 289.816 133.416C290.174 133.856 290.646 134.077 291.23 134.077C291.807 134.077 292.274 133.852 292.632 133.404C292.99 132.955 293.169 132.368 293.169 131.643C293.169 130.919 292.99 130.332 292.632 129.883C292.274 129.435 291.807 129.21 291.23 129.21ZM298.419 129.198C297.896 129.198 297.462 129.371 297.116 129.717C296.774 130.063 296.585 130.517 296.548 131.081H300.21C300.197 130.517 300.027 130.063 299.697 129.717C299.372 129.371 298.946 129.198 298.419 129.198ZM300.185 133.07H301.247C301.157 133.642 300.852 134.114 300.333 134.484C299.815 134.851 299.199 135.034 298.487 135.034C297.552 135.034 296.809 134.731 296.257 134.126C295.71 133.521 295.436 132.702 295.436 131.668C295.436 130.635 295.71 129.807 296.257 129.186C296.805 128.564 297.532 128.253 298.437 128.253C299.327 128.253 300.031 128.547 300.549 129.136C301.068 129.721 301.328 130.515 301.328 131.52V131.94H296.548V132.002C296.548 132.636 296.727 133.142 297.085 133.521C297.443 133.9 297.919 134.089 298.511 134.089C298.927 134.089 299.285 133.998 299.586 133.817C299.891 133.632 300.09 133.383 300.185 133.07ZM302.458 134.972V128.315H303.471V129.396H303.495C303.594 129.046 303.79 128.768 304.082 128.562C304.374 128.356 304.716 128.253 305.107 128.253C305.276 128.253 305.414 128.267 305.521 128.296V129.358C305.406 129.309 305.22 129.284 304.965 129.284C304.533 129.284 304.185 129.428 303.921 129.717C303.662 130.005 303.532 130.384 303.532 130.853V134.972H302.458Z" fill="#9B9DA5"/>
</g>
<path d="M128.75 221.054C128.75 219.408 130.084 218.074 131.729 218.074H142.271C143.916 218.074 145.25 219.408 145.25 221.054V231.595C145.25 233.241 143.916 234.574 142.271 234.574H131.729C130.084 234.574 128.75 233.241 128.75 231.595V221.054ZM131.729 219.449C130.843 219.449 130.125 220.168 130.125 221.054V231.595C130.125 232.481 130.843 233.199 131.729 233.199H142.271C143.157 233.199 143.875 232.481 143.875 231.595V221.054C143.875 220.168 143.157 219.449 142.271 219.449H131.729Z" fill="#9B9DA5"/>
<path d="M159.76 230.973C158.528 230.973 157.551 230.559 156.826 229.731C156.106 228.9 155.745 227.778 155.745 226.366C155.745 224.966 156.11 223.85 156.838 223.018C157.567 222.183 158.541 221.765 159.76 221.765C160.731 221.765 161.555 222.036 162.23 222.58C162.909 223.119 163.319 223.834 163.459 224.723H162.335C162.191 224.138 161.884 223.671 161.415 223.321C160.945 222.967 160.394 222.79 159.76 222.79C158.891 222.79 158.195 223.115 157.672 223.766C157.149 224.416 156.888 225.283 156.888 226.366C156.888 227.461 157.147 228.332 157.666 228.978C158.185 229.624 158.885 229.948 159.766 229.948C160.42 229.948 160.972 229.797 161.421 229.497C161.87 229.196 162.174 228.774 162.335 228.231H163.459C163.253 229.112 162.831 229.789 162.193 230.262C161.555 230.736 160.743 230.973 159.76 230.973ZM169.616 229.966C169.06 230.579 168.315 230.886 167.38 230.886C166.446 230.886 165.7 230.579 165.145 229.966C164.589 229.353 164.311 228.529 164.311 227.496C164.311 226.462 164.589 225.639 165.145 225.026C165.7 224.412 166.446 224.105 167.38 224.105C168.315 224.105 169.06 224.412 169.616 225.026C170.172 225.639 170.45 226.462 170.45 227.496C170.45 228.529 170.172 229.353 169.616 229.966ZM167.38 229.929C168.002 229.929 168.486 229.715 168.832 229.287C169.182 228.854 169.356 228.257 169.356 227.496C169.356 226.73 169.182 226.133 168.832 225.705C168.486 225.277 168.002 225.063 167.38 225.063C166.759 225.063 166.273 225.279 165.923 225.711C165.577 226.139 165.404 226.734 165.404 227.496C165.404 228.257 165.579 228.854 165.929 229.287C166.279 229.715 166.763 229.929 167.38 229.929ZM171.58 230.824V224.167H172.593V225.248H172.617C172.774 224.894 173.019 224.616 173.352 224.414C173.69 224.208 174.075 224.105 174.507 224.105C174.956 224.105 175.343 224.214 175.668 224.433C175.993 224.651 176.228 224.962 176.372 225.365H176.397C176.586 224.97 176.866 224.661 177.237 224.439C177.607 224.217 178.025 224.105 178.49 224.105C179.149 224.105 179.674 224.303 180.065 224.698C180.46 225.093 180.658 225.62 180.658 226.279V230.824H179.583V226.526C179.583 226.065 179.46 225.707 179.213 225.452C178.97 225.192 178.626 225.063 178.182 225.063C177.737 225.063 177.37 225.211 177.082 225.507C176.798 225.804 176.656 226.18 176.656 226.637V230.824H175.582V226.397C175.582 225.993 175.454 225.67 175.199 225.427C174.948 225.184 174.614 225.063 174.198 225.063C173.754 225.063 173.385 225.219 173.093 225.532C172.8 225.841 172.654 226.228 172.654 226.693V230.824H171.58ZM182.091 230.824V224.167H183.104V225.248H183.128C183.285 224.894 183.53 224.616 183.863 224.414C184.201 224.208 184.586 224.105 185.018 224.105C185.467 224.105 185.854 224.214 186.179 224.433C186.504 224.651 186.739 224.962 186.883 225.365H186.908C187.097 224.97 187.377 224.661 187.748 224.439C188.118 224.217 188.536 224.105 189.001 224.105C189.66 224.105 190.185 224.303 190.576 224.698C190.971 225.093 191.169 225.62 191.169 226.279V230.824H190.094V226.526C190.094 226.065 189.971 225.707 189.724 225.452C189.481 225.192 189.137 225.063 188.692 225.063C188.248 225.063 187.881 225.211 187.593 225.507C187.309 225.804 187.167 226.18 187.167 226.637V230.824H186.093V226.397C186.093 225.993 185.965 225.67 185.71 225.427C185.459 225.184 185.125 225.063 184.709 225.063C184.265 225.063 183.896 225.219 183.604 225.532C183.311 225.841 183.165 226.228 183.165 226.693V230.824H182.091ZM195.257 225.05C194.734 225.05 194.3 225.223 193.954 225.569C193.612 225.915 193.423 226.37 193.386 226.934H197.048C197.036 226.37 196.865 225.915 196.536 225.569C196.21 225.223 195.784 225.05 195.257 225.05ZM197.023 228.922H198.086C197.995 229.495 197.69 229.966 197.172 230.337C196.653 230.703 196.037 230.886 195.325 230.886C194.391 230.886 193.647 230.584 193.096 229.978C192.548 229.373 192.274 228.554 192.274 227.52C192.274 226.487 192.548 225.66 193.096 225.038C193.643 224.416 194.37 224.105 195.276 224.105C196.165 224.105 196.869 224.4 197.388 224.988C197.907 225.573 198.166 226.368 198.166 227.372V227.792H193.386V227.854C193.386 228.488 193.565 228.994 193.923 229.373C194.281 229.752 194.757 229.941 195.35 229.941C195.766 229.941 196.124 229.851 196.424 229.67C196.729 229.484 196.929 229.235 197.023 228.922ZM199.296 230.824V224.167H200.309V225.248H200.334C200.758 224.486 201.482 224.105 202.507 224.105C203.24 224.105 203.819 224.326 204.243 224.766C204.667 225.203 204.879 225.8 204.879 226.557V230.824H203.804V226.742C203.804 226.199 203.664 225.783 203.384 225.495C203.109 225.207 202.709 225.063 202.186 225.063C201.639 225.063 201.198 225.235 200.865 225.581C200.535 225.927 200.371 226.386 200.371 226.958V230.824H199.296ZM206.664 222.666H207.738V224.167H209.035V225.056H207.738V229.052C207.738 229.357 207.804 229.581 207.936 229.725C208.072 229.869 208.282 229.941 208.566 229.941C208.751 229.941 208.905 229.931 209.029 229.91V230.818C208.873 230.855 208.642 230.874 208.337 230.874C207.736 230.874 207.306 230.738 207.047 230.466C206.791 230.19 206.664 229.733 206.664 229.095V225.056H205.737V224.167H206.664V222.666ZM216.452 224.105C217.304 224.105 217.992 224.418 218.515 225.044C219.042 225.666 219.305 226.483 219.305 227.496C219.305 228.509 219.044 229.328 218.521 229.954C217.998 230.575 217.317 230.886 216.477 230.886C216.007 230.886 215.588 230.787 215.217 230.59C214.851 230.392 214.562 230.11 214.352 229.744H214.328V233.048H213.253V224.167H214.272V225.248H214.297C214.49 224.902 214.783 224.626 215.174 224.42C215.565 224.21 215.991 224.105 216.452 224.105ZM216.254 229.929C216.843 229.929 217.315 229.709 217.669 229.268C218.027 228.824 218.206 228.233 218.206 227.496C218.206 226.763 218.027 226.174 217.669 225.73C217.315 225.285 216.843 225.063 216.254 225.063C215.682 225.063 215.217 225.287 214.859 225.736C214.501 226.184 214.322 226.771 214.322 227.496C214.322 228.22 214.499 228.807 214.853 229.256C215.211 229.705 215.678 229.929 216.254 229.929ZM225.419 229.966C224.863 230.579 224.118 230.886 223.184 230.886C222.249 230.886 221.504 230.579 220.948 229.966C220.392 229.353 220.114 228.529 220.114 227.496C220.114 226.462 220.392 225.639 220.948 225.026C221.504 224.412 222.249 224.105 223.184 224.105C224.118 224.105 224.863 224.412 225.419 225.026C225.975 225.639 226.253 226.462 226.253 227.496C226.253 228.529 225.975 229.353 225.419 229.966ZM223.184 229.929C223.805 229.929 224.289 229.715 224.635 229.287C224.985 228.854 225.16 228.257 225.16 227.496C225.16 226.73 224.985 226.133 224.635 225.705C224.289 225.277 223.805 225.063 223.184 225.063C222.562 225.063 222.076 225.279 221.726 225.711C221.38 226.139 221.207 226.734 221.207 227.496C221.207 228.257 221.382 228.854 221.732 229.287C222.082 229.715 222.566 229.929 223.184 229.929ZM227.272 226.026C227.272 225.466 227.5 225.007 227.957 224.649C228.418 224.291 229.011 224.112 229.736 224.112C230.411 224.112 230.977 224.293 231.434 224.655C231.895 225.013 232.136 225.466 232.157 226.014H231.125C231.093 225.701 230.948 225.454 230.693 225.273C230.438 225.091 230.107 225.001 229.699 225.001C229.287 225.001 228.956 225.089 228.705 225.266C228.453 225.443 228.328 225.678 228.328 225.97C228.328 226.415 228.703 226.73 229.452 226.915L230.465 227.168C231.136 227.337 231.607 227.555 231.879 227.823C232.155 228.087 232.293 228.461 232.293 228.947C232.293 229.515 232.046 229.98 231.552 230.343C231.062 230.705 230.432 230.886 229.662 230.886C228.945 230.886 228.351 230.709 227.877 230.355C227.404 229.997 227.14 229.53 227.087 228.953H228.167C228.221 229.291 228.381 229.55 228.649 229.731C228.921 229.908 229.283 229.997 229.736 229.997C230.189 229.997 230.547 229.91 230.811 229.738C231.078 229.561 231.212 229.322 231.212 229.021C231.212 228.786 231.134 228.601 230.977 228.465C230.821 228.325 230.553 228.206 230.174 228.107L229.007 227.805C227.85 227.504 227.272 226.911 227.272 226.026ZM233.812 222.666H234.886V224.167H236.183V225.056H234.886V229.052C234.886 229.357 234.952 229.581 235.084 229.725C235.22 229.869 235.43 229.941 235.714 229.941C235.899 229.941 236.054 229.931 236.177 229.91V230.818C236.021 230.855 235.79 230.874 235.486 230.874C234.884 230.874 234.454 230.738 234.195 230.466C233.94 230.19 233.812 229.733 233.812 229.095V225.056H232.886V224.167H233.812V222.666ZM242.575 229.954C243.119 229.954 243.567 229.797 243.921 229.484C244.28 229.167 244.459 228.77 244.459 228.292V227.755L242.717 227.866C241.704 227.928 241.198 228.284 241.198 228.935C241.198 229.243 241.322 229.491 241.569 229.676C241.82 229.861 242.155 229.954 242.575 229.954ZM242.347 230.886C241.671 230.886 241.128 230.707 240.716 230.349C240.305 229.991 240.099 229.517 240.099 228.929C240.099 228.356 240.313 227.907 240.741 227.582C241.169 227.253 241.787 227.063 242.594 227.014L244.459 226.903V226.347C244.459 225.935 244.327 225.618 244.064 225.396C243.8 225.174 243.423 225.063 242.933 225.063C242.546 225.063 242.219 225.155 241.951 225.34C241.688 225.526 241.523 225.775 241.457 226.088H240.426C240.443 225.528 240.692 225.058 241.173 224.68C241.655 224.297 242.246 224.105 242.946 224.105C243.732 224.105 244.36 224.301 244.829 224.692C245.299 225.079 245.533 225.6 245.533 226.254V230.824H244.514V229.67H244.49C244.3 230.04 244.012 230.337 243.625 230.559C243.238 230.777 242.812 230.886 242.347 230.886ZM246.849 226.026C246.849 225.466 247.077 225.007 247.534 224.649C247.995 224.291 248.588 224.112 249.313 224.112C249.988 224.112 250.554 224.293 251.011 224.655C251.472 225.013 251.713 225.466 251.734 226.014H250.702C250.669 225.701 250.525 225.454 250.27 225.273C250.015 225.091 249.683 225.001 249.276 225.001C248.864 225.001 248.533 225.089 248.281 225.266C248.03 225.443 247.905 225.678 247.905 225.97C247.905 226.415 248.279 226.73 249.029 226.915L250.042 227.168C250.713 227.337 251.184 227.555 251.456 227.823C251.732 228.087 251.87 228.461 251.87 228.947C251.87 229.515 251.623 229.98 251.128 230.343C250.639 230.705 250.009 230.886 249.239 230.886C248.522 230.886 247.927 230.709 247.454 230.355C246.98 229.997 246.717 229.53 246.663 228.953H247.744C247.798 229.291 247.958 229.55 248.226 229.731C248.498 229.908 248.86 229.997 249.313 229.997C249.766 229.997 250.124 229.91 250.387 229.738C250.655 229.561 250.789 229.322 250.789 229.021C250.789 228.786 250.711 228.601 250.554 228.465C250.398 228.325 250.13 228.206 249.751 228.107L248.584 227.805C247.427 227.504 246.849 226.911 246.849 226.026ZM256.125 230.824V224.167H257.199V230.824H256.125ZM256.662 223.093C256.477 223.093 256.316 223.027 256.18 222.895C256.048 222.759 255.983 222.598 255.983 222.413C255.983 222.224 256.048 222.063 256.18 221.932C256.316 221.8 256.477 221.734 256.662 221.734C256.851 221.734 257.012 221.8 257.144 221.932C257.275 222.063 257.341 222.224 257.341 222.413C257.341 222.598 257.275 222.759 257.144 222.895C257.012 223.027 256.851 223.093 256.662 223.093ZM258.718 230.824V224.167H259.731V225.248H259.756C260.18 224.486 260.905 224.105 261.93 224.105C262.663 224.105 263.241 224.326 263.665 224.766C264.089 225.203 264.301 225.8 264.301 226.557V230.824H263.227V226.742C263.227 226.199 263.087 225.783 262.807 225.495C262.531 225.207 262.131 225.063 261.609 225.063C261.061 225.063 260.62 225.235 260.287 225.581C259.958 225.927 259.793 226.386 259.793 226.958V230.824H258.718ZM266.086 222.666H267.161V224.167H268.457V225.056H267.161V229.052C267.161 229.357 267.226 229.581 267.358 229.725C267.494 229.869 267.704 229.941 267.988 229.941C268.173 229.941 268.328 229.931 268.451 229.91V230.818C268.295 230.855 268.064 230.874 267.76 230.874C267.158 230.874 266.728 230.738 266.469 230.466C266.214 230.19 266.086 229.733 266.086 229.095V225.056H265.16V224.167H266.086V222.666ZM272.12 225.05C271.597 225.05 271.162 225.223 270.817 225.569C270.475 225.915 270.285 226.37 270.248 226.934H273.911C273.898 226.37 273.727 225.915 273.398 225.569C273.073 225.223 272.647 225.05 272.12 225.05ZM273.886 228.922H274.948C274.857 229.495 274.553 229.966 274.034 230.337C273.515 230.703 272.9 230.886 272.188 230.886C271.253 230.886 270.51 230.584 269.958 229.978C269.411 229.373 269.137 228.554 269.137 227.52C269.137 226.487 269.411 225.66 269.958 225.038C270.506 224.416 271.232 224.105 272.138 224.105C273.027 224.105 273.731 224.4 274.25 224.988C274.769 225.573 275.028 226.368 275.028 227.372V227.792H270.248V227.854C270.248 228.488 270.427 228.994 270.786 229.373C271.144 229.752 271.619 229.941 272.212 229.941C272.628 229.941 272.986 229.851 273.287 229.67C273.591 229.484 273.791 229.235 273.886 228.922ZM276.158 230.824V224.167H277.171V225.248H277.196C277.295 224.898 277.49 224.62 277.783 224.414C278.075 224.208 278.417 224.105 278.808 224.105C278.977 224.105 279.115 224.12 279.222 224.149V225.211C279.106 225.161 278.921 225.137 278.666 225.137C278.233 225.137 277.886 225.281 277.622 225.569C277.363 225.857 277.233 226.236 277.233 226.705V230.824H276.158ZM280.173 230.824V224.167H281.185V225.248H281.21C281.634 224.486 282.359 224.105 283.384 224.105C284.117 224.105 284.695 224.326 285.119 224.766C285.543 225.203 285.755 225.8 285.755 226.557V230.824H284.681V226.742C284.681 226.199 284.541 225.783 284.261 225.495C283.985 225.207 283.586 225.063 283.063 225.063C282.515 225.063 282.075 225.235 281.741 225.581C281.412 225.927 281.247 226.386 281.247 226.958V230.824H280.173ZM289.362 229.954C289.905 229.954 290.354 229.797 290.708 229.484C291.067 229.167 291.246 228.77 291.246 228.292V227.755L289.504 227.866C288.491 227.928 287.985 228.284 287.985 228.935C287.985 229.243 288.108 229.491 288.355 229.676C288.607 229.861 288.942 229.954 289.362 229.954ZM289.134 230.886C288.458 230.886 287.915 230.707 287.503 230.349C287.091 229.991 286.886 229.517 286.886 228.929C286.886 228.356 287.1 227.907 287.528 227.582C287.956 227.253 288.574 227.063 289.381 227.014L291.246 226.903V226.347C291.246 225.935 291.114 225.618 290.85 225.396C290.587 225.174 290.21 225.063 289.72 225.063C289.333 225.063 289.006 225.155 288.738 225.34C288.475 225.526 288.31 225.775 288.244 226.088H287.213C287.229 225.528 287.478 225.058 287.96 224.68C288.442 224.297 289.033 224.105 289.733 224.105C290.519 224.105 291.147 224.301 291.616 224.692C292.086 225.079 292.32 225.6 292.32 226.254V230.824H291.301V229.67H291.276C291.087 230.04 290.799 230.337 290.412 230.559C290.025 230.777 289.599 230.886 289.134 230.886ZM293.809 230.824V221.524H294.883V230.824H293.809ZM302.627 224.105C303.48 224.105 304.167 224.418 304.69 225.044C305.217 225.666 305.481 226.483 305.481 227.496C305.481 228.509 305.219 229.328 304.696 229.954C304.173 230.575 303.492 230.886 302.652 230.886C302.183 230.886 301.763 230.787 301.392 230.59C301.026 230.392 300.738 230.11 300.528 229.744H300.503V233.048H299.428V224.167H300.447V225.248H300.472C300.666 224.902 300.958 224.626 301.349 224.42C301.74 224.21 302.166 224.105 302.627 224.105ZM302.43 229.929C303.018 229.929 303.49 229.709 303.844 229.268C304.202 228.824 304.381 228.233 304.381 227.496C304.381 226.763 304.202 226.174 303.844 225.73C303.49 225.285 303.018 225.063 302.43 225.063C301.857 225.063 301.392 225.287 301.034 225.736C300.676 226.184 300.497 226.771 300.497 227.496C300.497 228.22 300.674 228.807 301.028 229.256C301.386 229.705 301.853 229.929 302.43 229.929ZM312.169 224.167V230.824H311.156V229.725H311.131C310.711 230.499 309.985 230.886 308.951 230.886C308.223 230.886 307.646 230.668 307.222 230.232C306.798 229.791 306.586 229.192 306.586 228.434V224.167H307.661V228.249C307.661 228.793 307.798 229.208 308.074 229.497C308.354 229.785 308.756 229.929 309.279 229.929C309.826 229.929 310.265 229.756 310.594 229.41C310.927 229.064 311.094 228.605 311.094 228.033V224.167H312.169ZM313.632 230.824V224.167H314.645V225.248H314.67C314.769 224.898 314.964 224.62 315.257 224.414C315.549 224.208 315.891 224.105 316.282 224.105C316.451 224.105 316.588 224.12 316.696 224.149V225.211C316.58 225.161 316.395 225.137 316.14 225.137C315.707 225.137 315.36 225.281 315.096 225.569C314.837 225.857 314.707 226.236 314.707 226.705V230.824H313.632ZM320.846 224.105C321.698 224.105 322.385 224.418 322.908 225.044C323.435 225.666 323.699 226.483 323.699 227.496C323.699 228.509 323.437 229.328 322.914 229.954C322.392 230.575 321.71 230.886 320.87 230.886C320.401 230.886 319.981 230.787 319.61 230.59C319.244 230.392 318.956 230.11 318.746 229.744H318.721V233.048H317.647V224.167H318.666V225.248H318.69C318.884 224.902 319.176 224.626 319.567 224.42C319.958 224.21 320.384 224.105 320.846 224.105ZM320.648 229.929C321.237 229.929 321.708 229.709 322.062 229.268C322.42 228.824 322.599 228.233 322.599 227.496C322.599 226.763 322.42 226.174 322.062 225.73C321.708 225.285 321.237 225.063 320.648 225.063C320.076 225.063 319.61 225.287 319.252 225.736C318.894 226.184 318.715 226.771 318.715 227.496C318.715 228.22 318.892 228.807 319.246 229.256C319.604 229.705 320.072 229.929 320.648 229.929ZM329.813 229.966C329.257 230.579 328.512 230.886 327.577 230.886C326.642 230.886 325.897 230.579 325.341 229.966C324.786 229.353 324.508 228.529 324.508 227.496C324.508 226.462 324.786 225.639 325.341 225.026C325.897 224.412 326.642 224.105 327.577 224.105C328.512 224.105 329.257 224.412 329.813 225.026C330.368 225.639 330.646 226.462 330.646 227.496C330.646 228.529 330.368 229.353 329.813 229.966ZM327.577 229.929C328.199 229.929 328.682 229.715 329.028 229.287C329.378 228.854 329.553 228.257 329.553 227.496C329.553 226.73 329.378 226.133 329.028 225.705C328.682 225.277 328.199 225.063 327.577 225.063C326.955 225.063 326.47 225.279 326.12 225.711C325.774 226.139 325.601 226.734 325.601 227.496C325.601 228.257 325.776 228.854 326.126 229.287C326.476 229.715 326.959 229.929 327.577 229.929ZM331.665 226.026C331.665 225.466 331.894 225.007 332.351 224.649C332.812 224.291 333.405 224.112 334.129 224.112C334.805 224.112 335.371 224.293 335.828 224.655C336.289 225.013 336.53 225.466 336.55 226.014H335.519C335.486 225.701 335.342 225.454 335.087 225.273C334.831 225.091 334.5 225.001 334.092 225.001C333.681 225.001 333.349 225.089 333.098 225.266C332.847 225.443 332.721 225.678 332.721 225.97C332.721 226.415 333.096 226.73 333.845 226.915L334.858 227.168C335.529 227.337 336.001 227.555 336.272 227.823C336.548 228.087 336.686 228.461 336.686 228.947C336.686 229.515 336.439 229.98 335.945 230.343C335.455 230.705 334.825 230.886 334.055 230.886C333.339 230.886 332.744 230.709 332.271 230.355C331.797 229.997 331.534 229.53 331.48 228.953H332.561C332.614 229.291 332.775 229.55 333.043 229.731C333.314 229.908 333.677 229.997 334.129 229.997C334.582 229.997 334.941 229.91 335.204 229.738C335.472 229.561 335.605 229.322 335.605 229.021C335.605 228.786 335.527 228.601 335.371 228.465C335.214 228.325 334.947 228.206 334.568 228.107L333.401 227.805C332.244 227.504 331.665 226.911 331.665 226.026ZM340.509 225.05C339.986 225.05 339.552 225.223 339.206 225.569C338.864 225.915 338.675 226.37 338.638 226.934H342.3C342.287 226.37 342.117 225.915 341.787 225.569C341.462 225.223 341.036 225.05 340.509 225.05ZM342.275 228.922H343.337C343.247 229.495 342.942 229.966 342.423 230.337C341.905 230.703 341.289 230.886 340.577 230.886C339.642 230.886 338.899 230.584 338.347 229.978C337.8 229.373 337.526 228.554 337.526 227.52C337.526 226.487 337.8 225.66 338.347 225.038C338.895 224.416 339.622 224.105 340.527 224.105C341.417 224.105 342.121 224.4 342.64 224.988C343.158 225.573 343.418 226.368 343.418 227.372V227.792H338.638V227.854C338.638 228.488 338.817 228.994 339.175 229.373C339.533 229.752 340.009 229.941 340.602 229.941C341.017 229.941 341.376 229.851 341.676 229.67C341.981 229.484 342.18 229.235 342.275 228.922ZM350.538 232.535H349.593C349.437 232.342 349.289 232.134 349.149 231.911C349.013 231.693 348.867 231.415 348.71 231.078C348.554 230.74 348.42 230.386 348.309 230.015C348.202 229.641 348.111 229.202 348.037 228.7C347.963 228.198 347.926 227.673 347.926 227.125C347.926 226.578 347.963 226.063 348.037 225.581C348.111 225.096 348.2 224.686 348.303 224.352C348.406 224.019 348.541 223.687 348.71 223.358C348.883 223.029 349.035 222.769 349.167 222.58C349.299 222.386 349.462 222.166 349.655 221.919H350.557C350.404 222.1 350.248 222.331 350.087 222.611C349.931 222.891 349.766 223.245 349.593 223.673C349.424 224.097 349.287 224.612 349.18 225.217C349.072 225.818 349.019 226.45 349.019 227.113C349.019 227.566 349.042 228 349.087 228.416C349.132 228.828 349.2 229.213 349.291 229.571C349.385 229.929 349.474 230.24 349.556 230.503C349.643 230.767 349.756 231.045 349.896 231.337C350.04 231.629 350.147 231.841 350.217 231.973C350.291 232.109 350.398 232.296 350.538 232.535ZM352.397 223.006C353.134 222.179 354.134 221.765 355.398 221.765C356.662 221.765 357.663 222.179 358.4 223.006C359.137 223.834 359.505 224.956 359.505 226.372C359.505 227.788 359.137 228.91 358.4 229.738C357.663 230.561 356.662 230.973 355.398 230.973C354.134 230.973 353.134 230.561 352.397 229.738C351.66 228.91 351.292 227.788 351.292 226.372C351.292 224.956 351.66 223.834 352.397 223.006ZM357.56 223.76C357.029 223.113 356.308 222.79 355.398 222.79C354.489 222.79 353.766 223.113 353.231 223.76C352.7 224.402 352.434 225.273 352.434 226.372C352.434 227.467 352.7 228.338 353.231 228.984C353.766 229.626 354.489 229.948 355.398 229.948C356.308 229.948 357.029 229.626 357.56 228.984C358.095 228.338 358.363 227.467 358.363 226.372C358.363 225.273 358.095 224.402 357.56 223.76ZM360.753 230.824V224.167H361.766V225.248H361.79C362.214 224.486 362.939 224.105 363.964 224.105C364.697 224.105 365.275 224.326 365.699 224.766C366.124 225.203 366.336 225.8 366.336 226.557V230.824H365.261V226.742C365.261 226.199 365.121 225.783 364.841 225.495C364.565 225.207 364.166 225.063 363.643 225.063C363.095 225.063 362.655 225.235 362.321 225.581C361.992 225.927 361.827 226.386 361.827 226.958V230.824H360.753ZM367.83 230.824V221.524H368.905V230.824H367.83ZM370.992 233.239C370.831 233.239 370.675 233.225 370.523 233.196V232.288C370.646 232.313 370.792 232.325 370.961 232.325C371.27 232.325 371.517 232.241 371.702 232.072C371.887 231.907 372.048 231.625 372.184 231.226L372.314 230.831L369.849 224.167H370.992L372.857 229.731H372.882L374.747 224.167H375.877L373.271 231.232C372.987 232.002 372.682 232.529 372.357 232.813C372.036 233.097 371.581 233.239 370.992 233.239ZM379.496 228.373H380.614C380.667 228.854 380.902 229.241 381.318 229.534C381.738 229.826 382.267 229.972 382.905 229.972C383.506 229.972 384.002 229.83 384.393 229.546C384.788 229.258 384.986 228.896 384.986 228.459C384.986 228.085 384.848 227.776 384.572 227.533C384.301 227.29 383.864 227.09 383.263 226.934L382.121 226.637C381.297 226.427 380.696 226.135 380.317 225.76C379.938 225.382 379.749 224.89 379.749 224.284C379.749 223.543 380.041 222.938 380.626 222.469C381.215 221.999 381.972 221.765 382.899 221.765C383.784 221.765 384.517 222.004 385.097 222.481C385.678 222.955 385.98 223.564 386.005 224.309H384.893C384.844 223.832 384.638 223.455 384.276 223.179C383.914 222.903 383.442 222.765 382.862 222.765C382.285 222.765 381.814 222.901 381.447 223.173C381.085 223.445 380.904 223.799 380.904 224.235C380.904 224.573 381.036 224.851 381.299 225.069C381.567 225.283 382.003 225.468 382.608 225.625L383.541 225.872C384.463 226.102 385.126 226.409 385.53 226.792C385.933 227.175 386.135 227.685 386.135 228.323C386.135 229.139 385.834 229.785 385.233 230.262C384.636 230.736 383.825 230.973 382.8 230.973C381.853 230.973 381.079 230.736 380.478 230.262C379.877 229.789 379.549 229.159 379.496 228.373ZM387.648 222.666H388.722V224.167H390.019V225.056H388.722V229.052C388.722 229.357 388.788 229.581 388.92 229.725C389.056 229.869 389.266 229.941 389.55 229.941C389.735 229.941 389.89 229.931 390.013 229.91V230.818C389.857 230.855 389.626 230.874 389.321 230.874C388.72 230.874 388.29 230.738 388.031 230.466C387.775 230.19 387.648 229.733 387.648 229.095V225.056H386.721V224.167H387.648V222.666ZM396.763 224.167V230.824H395.75V229.725H395.726C395.306 230.499 394.579 230.886 393.546 230.886C392.817 230.886 392.24 230.668 391.816 230.232C391.392 229.791 391.18 229.192 391.18 228.434V224.167H392.255V228.249C392.255 228.793 392.393 229.208 392.669 229.497C392.949 229.785 393.35 229.929 393.873 229.929C394.42 229.929 394.859 229.756 395.188 229.41C395.522 229.064 395.688 228.605 395.688 228.033V224.167H396.763ZM398.579 230.824V225.056H397.652V224.167H398.579V223.55C398.579 222.932 398.719 222.481 398.999 222.197C399.283 221.913 399.734 221.771 400.351 221.771C400.549 221.771 400.748 221.789 400.95 221.827V222.716C400.798 222.683 400.631 222.666 400.45 222.666C400.17 222.666 399.968 222.736 399.845 222.876C399.721 223.012 399.657 223.237 399.653 223.55V224.167H400.95V225.056H399.653V230.824H398.579ZM402.469 230.824V225.056H401.543V224.167H402.469V223.55C402.469 222.932 402.609 222.481 402.889 222.197C403.173 221.913 403.624 221.771 404.242 221.771C404.439 221.771 404.639 221.789 404.841 221.827V222.716C404.688 222.683 404.522 222.666 404.341 222.666C404.061 222.666 403.859 222.736 403.735 222.876C403.612 223.012 403.548 223.237 403.544 223.55V224.167H404.841V225.056H403.544V230.824H402.469ZM417.458 224.167L415.593 230.824H414.506L412.987 225.649H412.962L411.443 230.824H410.356L408.491 224.167H409.553L410.905 229.608H410.93L412.455 224.167H413.493L415.018 229.608H415.043L416.395 224.167H417.458ZM418.433 230.824V224.167H419.508V230.824H418.433ZM418.971 223.093C418.785 223.093 418.625 223.027 418.489 222.895C418.357 222.759 418.291 222.598 418.291 222.413C418.291 222.224 418.357 222.063 418.489 221.932C418.625 221.8 418.785 221.734 418.971 221.734C419.16 221.734 419.321 221.8 419.452 221.932C419.584 222.063 419.65 222.224 419.65 222.413C419.65 222.598 419.584 222.759 419.452 222.895C419.321 223.027 419.16 223.093 418.971 223.093ZM421.089 230.824V221.524H422.164V230.824H421.089ZM423.745 230.824V221.524H424.819V230.824H423.745ZM429.253 226.026C429.253 225.466 429.482 225.007 429.939 224.649C430.4 224.291 430.993 224.112 431.717 224.112C432.393 224.112 432.959 224.293 433.416 224.655C433.877 225.013 434.118 225.466 434.138 226.014H433.107C433.074 225.701 432.93 225.454 432.675 225.273C432.419 225.091 432.088 225.001 431.68 225.001C431.269 225.001 430.937 225.089 430.686 225.266C430.435 225.443 430.309 225.678 430.309 225.97C430.309 226.415 430.684 226.73 431.433 226.915L432.446 227.168C433.117 227.337 433.589 227.555 433.86 227.823C434.136 228.087 434.274 228.461 434.274 228.947C434.274 229.515 434.027 229.98 433.533 230.343C433.043 230.705 432.413 230.886 431.643 230.886C430.927 230.886 430.332 230.709 429.858 230.355C429.385 229.997 429.121 229.53 429.068 228.953H430.149C430.202 229.291 430.363 229.55 430.63 229.731C430.902 229.908 431.264 229.997 431.717 229.997C432.17 229.997 432.528 229.91 432.792 229.738C433.059 229.561 433.193 229.322 433.193 229.021C433.193 228.786 433.115 228.601 432.959 228.465C432.802 228.325 432.535 228.206 432.156 228.107L430.989 227.805C429.832 227.504 429.253 226.911 429.253 226.026ZM438.097 225.05C437.574 225.05 437.14 225.223 436.794 225.569C436.452 225.915 436.263 226.37 436.226 226.934H439.888C439.875 226.37 439.705 225.915 439.375 225.569C439.05 225.223 438.624 225.05 438.097 225.05ZM439.863 228.922H440.925C440.835 229.495 440.53 229.966 440.011 230.337C439.492 230.703 438.877 230.886 438.165 230.886C437.23 230.886 436.487 230.584 435.935 229.978C435.388 229.373 435.114 228.554 435.114 227.52C435.114 226.487 435.388 225.66 435.935 225.038C436.483 224.416 437.21 224.105 438.115 224.105C439.005 224.105 439.709 224.4 440.227 224.988C440.746 225.573 441.006 226.368 441.006 227.372V227.792H436.226V227.854C436.226 228.488 436.405 228.994 436.763 229.373C437.121 229.752 437.597 229.941 438.189 229.941C438.605 229.941 438.963 229.851 439.264 229.67C439.569 229.484 439.768 229.235 439.863 228.922ZM444.791 225.05C444.268 225.05 443.834 225.223 443.488 225.569C443.146 225.915 442.957 226.37 442.92 226.934H446.582C446.57 226.37 446.399 225.915 446.07 225.569C445.744 225.223 445.318 225.05 444.791 225.05ZM446.557 228.922H447.62C447.529 229.495 447.224 229.966 446.706 230.337C446.187 230.703 445.571 230.886 444.859 230.886C443.925 230.886 443.181 230.584 442.63 229.978C442.082 229.373 441.808 228.554 441.808 227.52C441.808 226.487 442.082 225.66 442.63 225.038C443.177 224.416 443.904 224.105 444.81 224.105C445.699 224.105 446.403 224.4 446.922 224.988C447.441 225.573 447.7 226.368 447.7 227.372V227.792H442.92V227.854C442.92 228.488 443.099 228.994 443.457 229.373C443.815 229.752 444.291 229.941 444.884 229.941C445.3 229.941 445.658 229.851 445.958 229.67C446.263 229.484 446.463 229.235 446.557 228.922ZM448.33 232.535C448.47 232.296 448.575 232.109 448.645 231.973C448.719 231.841 448.826 231.629 448.966 231.337C449.11 231.045 449.223 230.767 449.306 230.503C449.392 230.24 449.481 229.929 449.571 229.571C449.666 229.213 449.736 228.828 449.781 228.416C449.826 228 449.849 227.566 449.849 227.113C449.849 226.45 449.796 225.816 449.688 225.211C449.581 224.606 449.444 224.091 449.275 223.667C449.106 223.243 448.943 222.891 448.787 222.611C448.63 222.327 448.474 222.096 448.317 221.919H449.219C449.413 222.166 449.575 222.386 449.707 222.58C449.839 222.769 449.989 223.029 450.158 223.358C450.331 223.687 450.469 224.019 450.572 224.352C450.675 224.686 450.763 225.096 450.837 225.581C450.911 226.063 450.948 226.578 450.948 227.125C450.948 229.336 450.39 231.139 449.275 232.535H448.33Z" fill="#71737C"/>
<path d="M514 215.489C514 213.465 515.641 211.824 517.664 211.824H610.336C612.359 211.824 614 213.465 614 215.489V237.16C614 239.184 612.359 240.824 610.336 240.824H517.664C515.641 240.824 514 239.184 514 237.16V215.489Z" fill="#00B0F4"/>
<path d="M547.972 228.576H549.482C549.537 229.064 549.781 229.456 550.214 229.752C550.647 230.048 551.189 230.197 551.841 230.197C552.461 230.197 552.971 230.053 553.372 229.766C553.778 229.479 553.98 229.114 553.98 228.672C553.98 228.289 553.837 227.977 553.55 227.736C553.263 227.49 552.8 227.289 552.162 227.134L550.884 226.826C549.977 226.608 549.307 226.282 548.874 225.849C548.446 225.416 548.231 224.855 548.231 224.167C548.231 223.32 548.564 222.629 549.229 222.096C549.899 221.563 550.763 221.296 551.82 221.296C552.859 221.296 553.707 221.563 554.363 222.096C555.02 222.625 555.359 223.315 555.382 224.167H553.892C553.846 223.68 553.634 223.295 553.256 223.012C552.882 222.729 552.397 222.588 551.8 222.588C551.207 222.588 550.724 222.725 550.351 222.998C549.981 223.272 549.797 223.627 549.797 224.065C549.797 224.411 549.936 224.696 550.214 224.919C550.492 225.138 550.95 225.327 551.588 225.487L552.675 225.753C553.687 225.99 554.416 226.325 554.862 226.758C555.313 227.186 555.539 227.763 555.539 228.488C555.539 229.408 555.197 230.14 554.514 230.682C553.83 231.22 552.903 231.489 551.731 231.489C550.633 231.489 549.742 231.226 549.059 230.702C548.38 230.174 548.017 229.465 547.972 228.576ZM559.853 225.015C559.319 225.015 558.875 225.193 558.52 225.548C558.169 225.904 557.973 226.366 557.932 226.936H561.698C561.68 226.357 561.502 225.892 561.165 225.541C560.828 225.19 560.39 225.015 559.853 225.015ZM561.691 229.151H563.106C563.002 229.816 562.653 230.361 562.061 230.784C561.468 231.204 560.755 231.413 559.921 231.413C558.845 231.413 557.993 231.076 557.364 230.402C556.74 229.723 556.428 228.802 556.428 227.64C556.428 226.478 556.74 225.548 557.364 224.851C557.989 224.154 558.82 223.805 559.859 223.805C560.88 223.805 561.689 224.135 562.286 224.796C562.883 225.452 563.182 226.343 563.182 227.469V227.989H557.925V228.077C557.925 228.72 558.109 229.237 558.479 229.629C558.848 230.017 559.338 230.21 559.948 230.21C560.381 230.21 560.755 230.115 561.069 229.923C561.384 229.732 561.591 229.474 561.691 229.151ZM564.378 231.324V223.901H565.793V225.152H565.82C566.281 224.263 567.085 223.819 568.233 223.819C569.054 223.819 569.699 224.065 570.168 224.557C570.642 225.045 570.879 225.714 570.879 226.567V231.324H569.396V226.847C569.396 226.282 569.252 225.849 568.965 225.548C568.678 225.243 568.263 225.09 567.721 225.09C567.16 225.09 566.709 225.27 566.367 225.63C566.03 225.986 565.861 226.455 565.861 227.038V231.324H564.378ZM575.158 231.4C574.224 231.4 573.467 231.053 572.889 230.361C572.314 229.668 572.027 228.75 572.027 227.606C572.027 226.471 572.314 225.557 572.889 224.865C573.467 224.172 574.219 223.825 575.145 223.825C575.673 223.825 576.14 223.942 576.546 224.174C576.956 224.402 577.268 224.721 577.482 225.131H577.517V221.016H578.993V231.324H577.558V230.067H577.53C577.312 230.49 576.995 230.819 576.58 231.051C576.17 231.283 575.696 231.4 575.158 231.4ZM575.534 225.083C574.937 225.083 574.456 225.313 574.092 225.774C573.727 226.234 573.545 226.847 573.545 227.613C573.545 228.383 573.725 228.998 574.085 229.458C574.45 229.914 574.933 230.142 575.534 230.142C576.131 230.142 576.612 229.909 576.977 229.445C577.341 228.98 577.523 228.369 577.523 227.613C577.523 226.856 577.339 226.245 576.97 225.781C576.605 225.316 576.127 225.083 575.534 225.083Z" fill="white"/>
</g>
</g>
<defs>
<filter id="filter0_dddd_1511_24182" x="106" y="61.8699" width="581" height="230.455" filterUnits="userSpaceOnUse" color-interpolation-filters="sRGB">
<feFlood flood-opacity="0" result="BackgroundImageFix"/>
<feColorMatrix in="SourceAlpha" type="matrix" values="0 0 0 0 0 0 0 0 0 0 0 0 0 0 0 0 0 0 127 0" result="hardAlpha"/>
<feOffset dx="2" dy="1"/>
<feGaussianBlur stdDeviation="3"/>
<feColorMatrix type="matrix" values="0 0 0 0 0.85098 0 0 0 0 0.85098 0 0 0 0 0.85098 0 0 0 0.1 0"/>
<feBlend mode="normal" in2="BackgroundImageFix" result="effect1_dropShadow_1511_24182"/>
<feColorMatrix in="SourceAlpha" type="matrix" values="0 0 0 0 0 0 0 0 0 0 0 0 0 0 0 0 0 0 127 0" result="hardAlpha"/>
<feOffset dx="9" dy="5"/>
<feGaussianBlur stdDeviation="5"/>
<feColorMatrix type="matrix" values="0 0 0 0 0.85098 0 0 0 0 0.85098 0 0 0 0 0.85098 0 0 0 0.09 0"/>
<feBlend mode="normal" in2="effect1_dropShadow_1511_24182" result="effect2_dropShadow_1511_24182"/>
<feColorMatrix in="SourceAlpha" type="matrix" values="0 0 0 0 0 0 0 0 0 0 0 0 0 0 0 0 0 0 127 0" result="hardAlpha"/>
<feOffset dx="20" dy="12"/>
<feGaussianBlur stdDeviation="7"/>
<feColorMatrix type="matrix" values="0 0 0 0 0.85098 0 0 0 0 0.85098 0 0 0 0 0.85098 0 0 0 0.05 0"/>
<feBlend mode="normal" in2="effect2_dropShadow_1511_24182" result="effect3_dropShadow_1511_24182"/>
<feColorMatrix in="SourceAlpha" type="matrix" values="0 0 0 0 0 0 0 0 0 0 0 0 0 0 0 0 0 0 127 0" result="hardAlpha"/>
<feOffset dx="36" dy="21"/>
<feGaussianBlur stdDeviation="8.5"/>
<feColorMatrix type="matrix" values="0 0 0 0 0.85098 0 0 0 0 0.85098 0 0 0 0 0.85098 0 0 0 0.01 0"/>
<feBlend mode="normal" in2="effect3_dropShadow_1511_24182" result="effect4_dropShadow_1511_24182"/>
<feBlend mode="normal" in="SourceGraphic" in2="effect4_dropShadow_1511_24182" result="shape"/>
</filter>
<filter id="filter1_d_1511_24182" x="122.386" y="107.614" width="495.227" height="91.2273" filterUnits="userSpaceOnUse" color-interpolation-filters="sRGB">
<feFlood flood-opacity="0" result="BackgroundImageFix"/>
<feColorMatrix in="SourceAlpha" type="matrix" values="0 0 0 0 0 0 0 0 0 0 0 0 0 0 0 0 0 0 127 0" result="hardAlpha"/>
<feOffset dy="0.903412"/>
<feGaussianBlur stdDeviation="1.80682"/>
<feComposite in2="hardAlpha" operator="out"/>
<feColorMatrix type="matrix" values="0 0 0 0 0 0 0 0 0 0 0 0 0 0 0 0 0 0 0.08 0"/>
<feBlend mode="normal" in2="BackgroundImageFix" result="effect1_dropShadow_1511_24182"/>
<feBlend mode="normal" in="SourceGraphic" in2="effect1_dropShadow_1511_24182" result="shape"/>
</filter>
<clipPath id="clip0_1511_24182">
<rect width="744" height="320" fill="white" transform="translate(0 0.097168)"/>
</clipPath>
</defs>
</svg>
