<svg width="416" height="321" viewBox="0 0 416 321" fill="none" xmlns="http://www.w3.org/2000/svg">
<g filter="url(#filter0_dddd_1511_24165)">
<rect x="80" y="105.097" width="256" height="126.504" rx="7.63076" fill="white"/>
<rect x="80.4769" y="105.574" width="255.046" height="125.55" rx="7.15384" stroke="#D6DAE1" stroke-width="0.953845"/>
<path d="M99.2419 136.265V126.49H102.726C103.487 126.49 104.117 126.629 104.616 126.905C105.116 127.182 105.49 127.561 105.738 128.041C105.986 128.519 106.11 129.056 106.11 129.655C106.11 130.256 105.984 130.797 105.733 131.277C105.485 131.755 105.109 132.133 104.607 132.413C104.107 132.69 103.479 132.829 102.721 132.829H100.325V131.578H102.588C103.068 131.578 103.458 131.495 103.757 131.33C104.056 131.161 104.276 130.932 104.416 130.643C104.556 130.353 104.626 130.024 104.626 129.655C104.626 129.285 104.556 128.958 104.416 128.671C104.276 128.385 104.055 128.161 103.752 127.998C103.453 127.836 103.059 127.755 102.569 127.755H100.717V136.265H99.2419ZM110.792 136.413C110.07 136.413 109.448 136.259 108.926 135.95C108.407 135.638 108.006 135.201 107.723 134.637C107.443 134.071 107.303 133.408 107.303 132.647C107.303 131.896 107.443 131.234 107.723 130.662C108.006 130.089 108.401 129.642 108.907 129.32C109.416 128.999 110.011 128.838 110.692 128.838C111.106 128.838 111.507 128.907 111.895 129.044C112.283 129.18 112.631 129.395 112.94 129.688C113.249 129.981 113.492 130.361 113.67 130.829C113.848 131.293 113.938 131.858 113.938 132.523V133.029H108.11V131.96H112.539C112.539 131.584 112.463 131.252 112.31 130.962C112.157 130.67 111.943 130.439 111.666 130.27C111.392 130.102 111.071 130.017 110.702 130.017C110.301 130.017 109.951 130.116 109.652 130.313C109.356 130.507 109.127 130.762 108.964 131.077C108.805 131.389 108.726 131.728 108.726 132.094V132.929C108.726 133.419 108.811 133.836 108.983 134.179C109.158 134.523 109.402 134.785 109.714 134.967C110.025 135.145 110.39 135.234 110.807 135.234C111.077 135.234 111.324 135.196 111.546 135.12C111.769 135.04 111.962 134.922 112.124 134.766C112.286 134.61 112.41 134.418 112.496 134.189L113.847 134.432C113.739 134.83 113.545 135.178 113.265 135.477C112.988 135.773 112.639 136.004 112.219 136.17C111.802 136.332 111.327 136.413 110.792 136.413ZM115.521 136.265V128.934H116.9V130.098H116.977C117.11 129.704 117.346 129.394 117.683 129.168C118.024 128.939 118.409 128.824 118.838 128.824C118.927 128.824 119.032 128.827 119.153 128.834C119.277 128.84 119.374 128.848 119.444 128.858V130.223C119.387 130.207 119.285 130.189 119.139 130.17C118.992 130.148 118.846 130.137 118.7 130.137C118.362 130.137 118.062 130.208 117.798 130.351C117.537 130.491 117.33 130.687 117.177 130.938C117.024 131.187 116.948 131.47 116.948 131.788V136.265H115.521ZM124.601 128.934V130.079H120.459V128.934H124.601ZM121.594 136.265V128.084C121.594 127.626 121.695 127.246 121.895 126.944C122.096 126.638 122.361 126.411 122.692 126.261C123.023 126.108 123.383 126.032 123.771 126.032C124.057 126.032 124.302 126.056 124.506 126.104C124.71 126.148 124.861 126.189 124.959 126.228L124.625 127.383C124.558 127.364 124.473 127.341 124.368 127.316C124.262 127.287 124.135 127.273 123.986 127.273C123.639 127.273 123.391 127.359 123.241 127.531C123.095 127.702 123.022 127.951 123.022 128.275V136.265H121.594ZM128.873 136.413C128.186 136.413 127.586 136.255 127.074 135.94C126.561 135.625 126.164 135.185 125.881 134.618C125.597 134.052 125.456 133.39 125.456 132.633C125.456 131.872 125.597 131.207 125.881 130.638C126.164 130.068 126.561 129.626 127.074 129.311C127.586 128.996 128.186 128.838 128.873 128.838C129.56 128.838 130.16 128.996 130.672 129.311C131.185 129.626 131.583 130.068 131.866 130.638C132.149 131.207 132.29 131.872 132.29 132.633C132.29 133.39 132.149 134.052 131.866 134.618C131.583 135.185 131.185 135.625 130.672 135.94C130.16 136.255 129.56 136.413 128.873 136.413ZM128.878 135.215C129.323 135.215 129.692 135.097 129.985 134.862C130.278 134.626 130.494 134.313 130.634 133.922C130.777 133.53 130.849 133.099 130.849 132.628C130.849 132.16 130.777 131.731 130.634 131.339C130.494 130.945 130.278 130.628 129.985 130.39C129.692 130.151 129.323 130.032 128.878 130.032C128.429 130.032 128.057 130.151 127.761 130.39C127.468 130.628 127.25 130.945 127.107 131.339C126.967 131.731 126.897 132.16 126.897 132.628C126.897 133.099 126.967 133.53 127.107 133.922C127.25 134.313 127.468 134.626 127.761 134.862C128.057 135.097 128.429 135.215 128.878 135.215ZM133.883 136.265V128.934H135.263V130.098H135.339C135.473 129.704 135.708 129.394 136.046 129.168C136.386 128.939 136.771 128.824 137.201 128.824C137.29 128.824 137.395 128.827 137.516 128.834C137.64 128.84 137.737 128.848 137.807 128.858V130.223C137.749 130.207 137.648 130.189 137.501 130.17C137.355 130.148 137.209 130.137 137.062 130.137C136.725 130.137 136.424 130.208 136.16 130.351C135.899 130.491 135.692 130.687 135.54 130.938C135.387 131.187 135.311 131.47 135.311 131.788V136.265H133.883ZM139.042 136.265V128.934H140.412V130.127H140.502C140.655 129.723 140.905 129.408 141.252 129.182C141.598 128.953 142.014 128.838 142.497 128.838C142.987 128.838 143.398 128.953 143.729 129.182C144.063 129.411 144.309 129.726 144.468 130.127H144.545C144.72 129.736 144.998 129.424 145.38 129.192C145.762 128.956 146.217 128.838 146.745 128.838C147.41 128.838 147.953 129.047 148.373 129.464C148.796 129.88 149.007 130.509 149.007 131.349V136.265H147.58V131.483C147.58 130.986 147.445 130.627 147.175 130.404C146.904 130.181 146.581 130.07 146.206 130.07C145.741 130.07 145.38 130.213 145.122 130.499C144.865 130.783 144.736 131.147 144.736 131.592V136.265H143.313V131.392C143.313 130.994 143.189 130.674 142.941 130.433C142.693 130.191 142.37 130.07 141.972 130.07C141.702 130.07 141.452 130.141 141.223 130.285C140.997 130.425 140.814 130.62 140.674 130.872C140.537 131.123 140.469 131.414 140.469 131.745V136.265H139.042ZM153.054 136.427C152.589 136.427 152.169 136.341 151.794 136.17C151.418 135.995 151.121 135.742 150.901 135.411C150.685 135.08 150.577 134.674 150.577 134.194C150.577 133.78 150.656 133.439 150.815 133.172C150.974 132.905 151.189 132.693 151.46 132.537C151.73 132.381 152.032 132.264 152.366 132.184C152.701 132.105 153.041 132.044 153.388 132.003C153.827 131.952 154.183 131.911 154.457 131.879C154.731 131.844 154.929 131.788 155.054 131.712C155.178 131.635 155.24 131.511 155.24 131.339V131.306C155.24 130.889 155.122 130.566 154.886 130.337C154.654 130.108 154.307 129.993 153.846 129.993C153.366 129.993 152.987 130.1 152.71 130.313C152.436 130.523 152.247 130.757 152.142 131.015L150.801 130.709C150.96 130.264 151.192 129.904 151.498 129.631C151.806 129.354 152.161 129.153 152.562 129.029C152.963 128.902 153.385 128.838 153.827 128.838C154.12 128.838 154.43 128.873 154.758 128.943C155.089 129.01 155.397 129.134 155.684 129.316C155.973 129.497 156.21 129.756 156.395 130.094C156.579 130.428 156.672 130.862 156.672 131.397V136.265H155.278V135.263H155.221C155.128 135.447 154.99 135.629 154.805 135.807C154.621 135.985 154.384 136.133 154.094 136.251C153.805 136.368 153.458 136.427 153.054 136.427ZM153.364 135.282C153.759 135.282 154.096 135.204 154.376 135.048C154.659 134.892 154.874 134.688 155.02 134.437C155.17 134.182 155.244 133.91 155.244 133.621V132.676C155.194 132.727 155.095 132.774 154.949 132.819C154.805 132.86 154.641 132.897 154.457 132.929C154.272 132.957 154.093 132.984 153.918 133.01C153.743 133.032 153.596 133.051 153.478 133.067C153.202 133.102 152.949 133.161 152.72 133.244C152.494 133.327 152.312 133.446 152.175 133.602C152.042 133.754 151.975 133.958 151.975 134.213C151.975 134.566 152.105 134.833 152.366 135.015C152.627 135.193 152.96 135.282 153.364 135.282ZM159.999 131.912V136.265H158.572V128.934H159.942V130.127H160.033C160.201 129.739 160.466 129.427 160.825 129.192C161.188 128.956 161.644 128.838 162.195 128.838C162.695 128.838 163.132 128.943 163.508 129.153C163.883 129.36 164.174 129.669 164.381 130.079C164.588 130.49 164.691 130.997 164.691 131.602V136.265H163.264V131.774C163.264 131.242 163.126 130.827 162.849 130.528C162.572 130.226 162.192 130.075 161.708 130.075C161.377 130.075 161.083 130.146 160.825 130.289C160.571 130.433 160.369 130.643 160.219 130.919C160.073 131.193 159.999 131.524 159.999 131.912ZM169.693 136.413C168.984 136.413 168.373 136.252 167.86 135.931C167.351 135.606 166.96 135.159 166.686 134.59C166.413 134.02 166.276 133.368 166.276 132.633C166.276 131.888 166.416 131.231 166.696 130.662C166.976 130.089 167.37 129.642 167.879 129.32C168.389 128.999 168.988 128.838 169.679 128.838C170.236 128.838 170.732 128.942 171.168 129.149C171.604 129.352 171.956 129.639 172.223 130.008C172.493 130.377 172.654 130.808 172.705 131.301H171.316C171.24 130.958 171.065 130.662 170.791 130.413C170.52 130.165 170.158 130.041 169.703 130.041C169.305 130.041 168.957 130.146 168.657 130.356C168.362 130.563 168.131 130.859 167.965 131.244C167.8 131.626 167.717 132.078 167.717 132.599C167.717 133.134 167.798 133.595 167.961 133.984C168.123 134.372 168.352 134.672 168.648 134.886C168.947 135.099 169.299 135.205 169.703 135.205C169.973 135.205 170.218 135.156 170.438 135.057C170.66 134.956 170.847 134.811 170.996 134.623C171.149 134.435 171.255 134.209 171.316 133.945H172.705C172.654 134.42 172.5 134.843 172.242 135.215C171.984 135.587 171.639 135.88 171.206 136.093C170.777 136.306 170.272 136.413 169.693 136.413ZM177.391 136.413C176.668 136.413 176.046 136.259 175.524 135.95C175.006 135.638 174.605 135.201 174.322 134.637C174.042 134.071 173.902 133.408 173.902 132.647C173.902 131.896 174.042 131.234 174.322 130.662C174.605 130.089 174.999 129.642 175.505 129.32C176.014 128.999 176.609 128.838 177.29 128.838C177.704 128.838 178.105 128.907 178.493 129.044C178.881 129.18 179.23 129.395 179.538 129.688C179.847 129.981 180.09 130.361 180.269 130.829C180.447 131.293 180.536 131.858 180.536 132.523V133.029H174.708V131.96H179.137C179.137 131.584 179.061 131.252 178.908 130.962C178.756 130.67 178.541 130.439 178.264 130.27C177.99 130.102 177.669 130.017 177.3 130.017C176.899 130.017 176.549 130.116 176.25 130.313C175.954 130.507 175.725 130.762 175.563 131.077C175.404 131.389 175.324 131.728 175.324 132.094V132.929C175.324 133.419 175.41 133.836 175.582 134.179C175.757 134.523 176 134.785 176.312 134.967C176.624 135.145 176.988 135.234 177.405 135.234C177.675 135.234 177.922 135.196 178.145 135.12C178.367 135.04 178.56 134.922 178.722 134.766C178.885 134.61 179.009 134.418 179.095 134.189L180.445 134.432C180.337 134.83 180.143 135.178 179.863 135.477C179.586 135.773 179.238 136.004 178.818 136.17C178.401 136.332 177.925 136.413 177.391 136.413ZM187.266 126.49V136.265H185.791V126.49H187.266ZM190.726 131.912V136.265H189.299V128.934H190.669V130.127H190.759C190.928 129.739 191.192 129.427 191.552 129.192C191.914 128.956 192.371 128.838 192.922 128.838C193.421 128.838 193.859 128.943 194.234 129.153C194.61 129.36 194.901 129.669 195.108 130.079C195.314 130.49 195.418 130.997 195.418 131.602V136.265H193.991V131.774C193.991 131.242 193.852 130.827 193.575 130.528C193.299 130.226 192.918 130.075 192.435 130.075C192.104 130.075 191.809 130.146 191.552 130.289C191.297 130.433 191.095 130.643 190.946 130.919C190.799 131.193 190.726 131.524 190.726 131.912ZM202.825 130.724L201.532 130.953C201.478 130.787 201.392 130.63 201.274 130.48C201.16 130.331 201.004 130.208 200.806 130.113C200.609 130.017 200.362 129.97 200.067 129.97C199.662 129.97 199.325 130.06 199.055 130.242C198.784 130.42 198.649 130.651 198.649 130.934C198.649 131.179 198.74 131.376 198.921 131.526C199.102 131.675 199.395 131.798 199.799 131.893L200.964 132.16C201.638 132.316 202.141 132.556 202.472 132.881C202.803 133.206 202.968 133.627 202.968 134.146C202.968 134.585 202.841 134.976 202.587 135.32C202.335 135.66 201.984 135.928 201.532 136.122C201.083 136.316 200.563 136.413 199.971 136.413C199.15 136.413 198.48 136.238 197.962 135.888C197.443 135.535 197.125 135.034 197.007 134.384L198.387 134.174C198.472 134.534 198.649 134.806 198.916 134.991C199.184 135.172 199.532 135.263 199.962 135.263C200.429 135.263 200.803 135.166 201.083 134.972C201.363 134.774 201.503 134.534 201.503 134.251C201.503 134.022 201.417 133.829 201.245 133.673C201.077 133.517 200.818 133.4 200.467 133.32L199.227 133.048C198.542 132.892 198.037 132.644 197.709 132.304C197.384 131.963 197.222 131.532 197.222 131.01C197.222 130.577 197.343 130.199 197.585 129.874C197.827 129.55 198.161 129.297 198.587 129.115C199.013 128.931 199.502 128.838 200.052 128.838C200.845 128.838 201.468 129.01 201.923 129.354C202.378 129.694 202.679 130.151 202.825 130.724ZM204.538 136.265V128.934H205.965V136.265H204.538ZM205.258 127.803C205.01 127.803 204.797 127.72 204.619 127.555C204.444 127.386 204.356 127.185 204.356 126.953C204.356 126.718 204.444 126.517 204.619 126.352C204.797 126.183 205.01 126.099 205.258 126.099C205.506 126.099 205.718 126.183 205.893 126.352C206.071 126.517 206.16 126.718 206.16 126.953C206.16 127.185 206.071 127.386 205.893 127.555C205.718 127.72 205.506 127.803 205.258 127.803ZM210.958 139.167C210.376 139.167 209.875 139.091 209.455 138.938C209.038 138.785 208.698 138.583 208.433 138.332C208.169 138.08 207.972 137.805 207.842 137.506L209.068 137C209.154 137.14 209.269 137.288 209.412 137.444C209.558 137.603 209.756 137.738 210.004 137.85C210.255 137.961 210.578 138.017 210.973 138.017C211.514 138.017 211.961 137.885 212.314 137.621C212.667 137.36 212.844 136.943 212.844 136.37V134.929H212.753C212.667 135.085 212.543 135.258 212.381 135.449C212.222 135.64 212.002 135.805 211.722 135.945C211.442 136.085 211.078 136.155 210.629 136.155C210.05 136.155 209.528 136.02 209.063 135.75C208.602 135.476 208.236 135.073 207.966 134.542C207.698 134.007 207.565 133.35 207.565 132.571C207.565 131.791 207.697 131.123 207.961 130.566C208.228 130.009 208.594 129.583 209.059 129.287C209.523 128.988 210.05 128.838 210.639 128.838C211.094 128.838 211.461 128.915 211.741 129.068C212.021 129.217 212.239 129.392 212.395 129.593C212.554 129.793 212.677 129.97 212.762 130.122H212.867V128.934H214.266V136.427C214.266 137.057 214.12 137.574 213.827 137.978C213.534 138.383 213.138 138.682 212.638 138.876C212.142 139.07 211.582 139.167 210.958 139.167ZM210.944 134.972C211.354 134.972 211.701 134.876 211.984 134.685C212.271 134.491 212.487 134.214 212.634 133.855C212.783 133.492 212.858 133.058 212.858 132.552C212.858 132.059 212.785 131.624 212.638 131.249C212.492 130.873 212.277 130.581 211.994 130.371C211.711 130.157 211.361 130.051 210.944 130.051C210.514 130.051 210.156 130.162 209.87 130.385C209.584 130.604 209.367 130.903 209.221 131.282C209.078 131.661 209.006 132.084 209.006 132.552C209.006 133.032 209.079 133.454 209.226 133.817C209.372 134.179 209.588 134.462 209.875 134.666C210.164 134.87 210.521 134.972 210.944 134.972ZM217.607 131.912V136.265H216.18V126.49H217.588V130.127H217.679C217.85 129.733 218.113 129.419 218.466 129.187C218.819 128.955 219.281 128.838 219.85 128.838C220.353 128.838 220.792 128.942 221.167 129.149C221.546 129.355 221.839 129.664 222.046 130.075C222.256 130.482 222.361 130.991 222.361 131.602V136.265H220.934V131.774C220.934 131.236 220.795 130.819 220.518 130.523C220.242 130.224 219.857 130.075 219.363 130.075C219.026 130.075 218.724 130.146 218.456 130.289C218.192 130.433 217.984 130.643 217.831 130.919C217.682 131.193 217.607 131.524 217.607 131.912ZM227.687 128.934V130.079H223.683V128.934H227.687ZM224.757 127.177H226.184V134.112C226.184 134.389 226.225 134.598 226.308 134.738C226.391 134.875 226.497 134.968 226.628 135.019C226.761 135.067 226.906 135.091 227.062 135.091C227.177 135.091 227.277 135.083 227.363 135.067C227.449 135.051 227.515 135.038 227.563 135.029L227.821 136.208C227.738 136.24 227.62 136.271 227.468 136.303C227.315 136.338 227.124 136.357 226.895 136.36C226.519 136.367 226.169 136.3 225.845 136.16C225.52 136.02 225.258 135.804 225.057 135.511C224.857 135.218 224.757 134.851 224.757 134.408V127.177ZM234.641 130.724L233.348 130.953C233.294 130.787 233.208 130.63 233.09 130.48C232.976 130.331 232.82 130.208 232.622 130.113C232.425 130.017 232.179 129.97 231.883 129.97C231.478 129.97 231.141 130.06 230.871 130.242C230.6 130.42 230.465 130.651 230.465 130.934C230.465 131.179 230.556 131.376 230.737 131.526C230.918 131.675 231.211 131.798 231.615 131.893L232.78 132.16C233.454 132.316 233.957 132.556 234.288 132.881C234.619 133.206 234.785 133.627 234.785 134.146C234.785 134.585 234.657 134.976 234.403 135.32C234.151 135.66 233.8 135.928 233.348 136.122C232.899 136.316 232.379 136.413 231.787 136.413C230.966 136.413 230.296 136.238 229.778 135.888C229.259 135.535 228.941 135.034 228.823 134.384L230.203 134.174C230.288 134.534 230.465 134.806 230.732 134.991C231 135.172 231.348 135.263 231.778 135.263C232.245 135.263 232.619 135.166 232.899 134.972C233.179 134.774 233.319 134.534 233.319 134.251C233.319 134.022 233.233 133.829 233.061 133.673C232.893 133.517 232.634 133.4 232.284 133.32L231.043 133.048C230.358 132.892 229.853 132.644 229.525 132.304C229.2 131.963 229.038 131.532 229.038 131.01C229.038 130.577 229.159 130.199 229.401 129.874C229.643 129.55 229.977 129.297 230.403 129.115C230.829 128.931 231.318 128.838 231.868 128.838C232.661 128.838 233.284 129.01 233.739 129.354C234.194 129.694 234.495 130.151 234.641 130.724Z" fill="black"/>
<path d="M105.032 178.569C104.873 178.398 104.786 178.173 104.79 177.94C104.794 177.706 104.889 177.484 105.054 177.319C105.219 177.154 105.441 177.06 105.674 177.056C105.907 177.051 106.133 177.138 106.304 177.297L106.904 177.897C107.063 178.068 107.149 178.293 107.145 178.526C107.141 178.76 107.047 178.982 106.882 179.147C106.717 179.312 106.494 179.406 106.261 179.41C106.028 179.415 105.802 179.328 105.632 179.169L105.032 178.569ZM102.983 182.387C102.871 182.35 102.767 182.291 102.678 182.214C102.589 182.136 102.515 182.042 102.462 181.936C102.409 181.83 102.378 181.715 102.369 181.597C102.361 181.479 102.376 181.361 102.413 181.249C102.451 181.136 102.51 181.033 102.587 180.943C102.665 180.854 102.759 180.781 102.865 180.728C102.97 180.675 103.086 180.643 103.203 180.635C103.321 180.626 103.44 180.641 103.552 180.679L105.352 181.279C105.464 181.316 105.568 181.375 105.657 181.452C105.747 181.53 105.82 181.624 105.873 181.73C105.926 181.836 105.957 181.951 105.966 182.069C105.974 182.187 105.959 182.305 105.922 182.417C105.885 182.53 105.826 182.633 105.748 182.723C105.671 182.812 105.576 182.885 105.471 182.938C105.365 182.991 105.25 183.023 105.132 183.031C105.014 183.04 104.895 183.025 104.783 182.987L102.983 182.387ZM115.304 177.297C115.472 177.466 115.567 177.695 115.567 177.933C115.567 178.172 115.472 178.4 115.304 178.569L114.704 179.169C114.533 179.328 114.307 179.415 114.074 179.41C113.841 179.406 113.619 179.312 113.454 179.147C113.289 178.982 113.194 178.76 113.19 178.526C113.186 178.293 113.273 178.068 113.432 177.897L114.032 177.297C114.2 177.128 114.429 177.034 114.668 177.034C114.906 177.034 115.135 177.128 115.304 177.297ZM117.922 181.249C117.959 181.361 117.974 181.479 117.966 181.597C117.958 181.715 117.926 181.83 117.873 181.936C117.82 182.042 117.747 182.136 117.658 182.214C117.568 182.291 117.464 182.35 117.352 182.387L115.552 182.987C115.325 183.063 115.078 183.045 114.865 182.938C114.651 182.831 114.489 182.644 114.413 182.417C114.338 182.191 114.356 181.944 114.462 181.73C114.569 181.516 114.757 181.354 114.983 181.279L116.783 180.679C116.895 180.641 117.014 180.626 117.132 180.635C117.25 180.643 117.365 180.675 117.471 180.728C117.577 180.781 117.671 180.854 117.748 180.943C117.826 181.033 117.885 181.136 117.922 181.249ZM109.869 180.257L109.277 184.406C109.252 184.638 109.319 184.87 109.462 185.054C109.605 185.238 109.814 185.36 110.045 185.393C110.276 185.426 110.51 185.368 110.699 185.231C110.888 185.094 111.017 184.89 111.058 184.66L111.917 178.648C112.046 177.748 111.023 177.142 110.296 177.687L108.128 179.313C107.937 179.456 107.81 179.669 107.777 179.906C107.76 180.023 107.767 180.142 107.796 180.256C107.825 180.371 107.877 180.478 107.948 180.573C108.019 180.668 108.107 180.747 108.209 180.807C108.311 180.868 108.423 180.907 108.54 180.924C108.777 180.958 109.017 180.896 109.208 180.753L109.869 180.257Z" fill="#818181"/>
<path fill-rule="evenodd" clip-rule="evenodd" d="M104.354 185.433L104.513 184.365C104.53 184.248 104.524 184.129 104.496 184.014C104.467 183.9 104.416 183.792 104.345 183.697C104.275 183.602 104.186 183.522 104.085 183.461C103.984 183.4 103.871 183.36 103.754 183.343C103.637 183.325 103.518 183.331 103.404 183.36C103.289 183.389 103.181 183.44 103.086 183.51C102.991 183.58 102.911 183.669 102.85 183.77C102.79 183.872 102.749 183.984 102.732 184.101L102.48 185.801C102.405 186.311 102.367 186.826 102.367 187.341V189.334C102.367 190.369 102.778 191.361 103.509 192.092C104.241 192.823 105.233 193.234 106.267 193.234H114.067C115.102 193.234 116.094 192.823 116.825 192.092C117.556 191.361 117.967 190.369 117.967 189.334V187.342C117.967 186.826 117.929 186.313 117.853 185.803L117.601 184.102C117.56 183.872 117.43 183.668 117.24 183.531C117.05 183.395 116.815 183.338 116.584 183.372C116.352 183.407 116.144 183.53 116.001 183.715C115.859 183.901 115.795 184.134 115.822 184.366L115.98 185.434H112.999C112.684 185.434 112.377 185.533 112.122 185.717C111.867 185.902 111.675 186.161 111.576 186.46L111.386 187.029C111.366 187.089 111.328 187.141 111.277 187.178C111.226 187.214 111.165 187.234 111.102 187.234H109.232C109.17 187.234 109.108 187.215 109.057 187.178C109.006 187.141 108.968 187.09 108.948 187.03L108.757 186.46C108.658 186.161 108.467 185.901 108.212 185.717C107.957 185.533 107.65 185.433 107.335 185.433H104.354ZM104.168 187.233L104.167 187.341V189.333C104.167 190.493 105.107 191.433 106.267 191.433H114.067C114.624 191.433 115.158 191.212 115.552 190.818C115.946 190.424 116.167 189.89 116.167 189.333V187.233H113.215L113.095 187.597C112.956 188.015 112.689 188.379 112.331 188.636C111.974 188.894 111.544 189.033 111.103 189.033H109.231C108.79 189.033 108.361 188.894 108.003 188.636C107.646 188.379 107.378 188.015 107.239 187.597L107.119 187.233H104.168Z" fill="#818181"/>
<path d="M131.989 180.433V171.676H128.811V170.569H136.398V171.676H133.22V180.433H131.989ZM138.217 180.433V170.138H139.406V174.171H139.516C139.702 173.779 139.971 173.476 140.322 173.262C140.673 173.043 141.12 172.934 141.662 172.934C142.214 172.934 142.681 173.041 143.063 173.255C143.446 173.465 143.738 173.773 143.938 174.178C144.139 174.584 144.239 175.078 144.239 175.661V180.433H143.05V175.949C143.05 175.283 142.909 174.791 142.626 174.472C142.348 174.148 141.915 173.987 141.327 173.987C140.935 173.987 140.596 174.071 140.309 174.24C140.021 174.408 139.798 174.648 139.639 174.957C139.484 175.267 139.406 175.639 139.406 176.072V180.433H138.217ZM146.42 180.433V173.064H147.609V180.433H146.42ZM147.021 171.642C146.798 171.642 146.604 171.562 146.44 171.403C146.281 171.239 146.201 171.045 146.201 170.822C146.201 170.594 146.281 170.4 146.44 170.241C146.604 170.081 146.798 170.001 147.021 170.001C147.249 170.001 147.443 170.081 147.603 170.241C147.762 170.4 147.842 170.594 147.842 170.822C147.842 171.045 147.762 171.239 147.603 171.403C147.443 171.562 147.249 171.642 147.021 171.642ZM152.381 180.563C151.834 180.563 151.351 180.481 150.932 180.317C150.512 180.148 150.175 179.913 149.92 179.613C149.669 179.312 149.521 178.959 149.476 178.553H150.692C150.793 178.858 150.989 179.105 151.28 179.291C151.572 179.478 151.952 179.572 152.422 179.572C152.755 179.572 153.046 179.524 153.297 179.428C153.552 179.328 153.753 179.193 153.898 179.025C154.044 178.852 154.117 178.653 154.117 178.43V178.416C154.117 178.166 154.017 177.954 153.816 177.781C153.616 177.603 153.288 177.459 152.832 177.35L151.69 177.077C151.23 176.967 150.852 176.826 150.556 176.653C150.259 176.475 150.041 176.259 149.899 176.003C149.758 175.744 149.688 175.438 149.688 175.087V175.08C149.688 174.67 149.806 174.303 150.043 173.98C150.285 173.656 150.613 173.401 151.027 173.214C151.442 173.027 151.909 172.934 152.429 172.934C152.944 172.934 153.399 173.016 153.796 173.18C154.197 173.34 154.518 173.567 154.76 173.864C155.006 174.16 155.156 174.509 155.211 174.91H154.042C153.965 174.618 153.787 174.381 153.509 174.199C153.231 174.016 152.868 173.925 152.422 173.925C152.13 173.925 151.87 173.973 151.643 174.069C151.415 174.16 151.235 174.287 151.103 174.452C150.97 174.616 150.904 174.807 150.904 175.026V175.039C150.904 175.203 150.948 175.349 151.034 175.477C151.121 175.605 151.255 175.716 151.438 175.812C151.62 175.908 151.854 175.992 152.142 176.065L153.276 176.338C153.969 176.507 154.484 176.748 154.821 177.063C155.163 177.377 155.334 177.799 155.334 178.328V178.341C155.334 178.779 155.204 179.166 154.944 179.503C154.685 179.836 154.331 180.096 153.885 180.283C153.443 180.469 152.941 180.563 152.381 180.563ZM161.145 180.433V173.064H162.334V180.433H161.145ZM161.746 171.642C161.523 171.642 161.329 171.562 161.165 171.403C161.006 171.239 160.926 171.045 160.926 170.822C160.926 170.594 161.006 170.4 161.165 170.241C161.329 170.081 161.523 170.001 161.746 170.001C161.974 170.001 162.168 170.081 162.327 170.241C162.487 170.4 162.566 170.594 162.566 170.822C162.566 171.045 162.487 171.239 162.327 171.403C162.168 171.562 161.974 171.642 161.746 171.642ZM167.105 180.563C166.559 180.563 166.076 180.481 165.656 180.317C165.237 180.148 164.9 179.913 164.645 179.613C164.394 179.312 164.246 178.959 164.2 178.553H165.417C165.517 178.858 165.713 179.105 166.005 179.291C166.297 179.478 166.677 179.572 167.146 179.572C167.479 179.572 167.771 179.524 168.021 179.428C168.277 179.328 168.477 179.193 168.623 179.025C168.769 178.852 168.842 178.653 168.842 178.43V178.416C168.842 178.166 168.742 177.954 168.541 177.781C168.34 177.603 168.012 177.459 167.557 177.35L166.415 177.077C165.955 176.967 165.576 176.826 165.28 176.653C164.984 176.475 164.765 176.259 164.624 176.003C164.483 175.744 164.412 175.438 164.412 175.087V175.08C164.412 174.67 164.531 174.303 164.768 173.98C165.009 173.656 165.337 173.401 165.752 173.214C166.167 173.027 166.634 172.934 167.153 172.934C167.668 172.934 168.124 173.016 168.521 173.18C168.922 173.34 169.243 173.567 169.484 173.864C169.73 174.16 169.881 174.509 169.936 174.91H168.767C168.689 174.618 168.511 174.381 168.233 174.199C167.955 174.016 167.593 173.925 167.146 173.925C166.855 173.925 166.595 173.973 166.367 174.069C166.139 174.16 165.959 174.287 165.827 174.452C165.695 174.616 165.629 174.807 165.629 175.026V175.039C165.629 175.203 165.672 175.349 165.759 175.477C165.845 175.605 165.98 175.716 166.162 175.812C166.344 175.908 166.579 175.992 166.866 176.065L168.001 176.338C168.694 176.507 169.209 176.748 169.546 177.063C169.888 177.377 170.059 177.799 170.059 178.328V178.341C170.059 178.779 169.929 179.166 169.669 179.503C169.409 179.836 169.056 180.096 168.609 180.283C168.167 180.469 167.666 180.563 167.105 180.563ZM178.46 180.488C177.703 180.488 177.154 180.335 176.812 180.03C176.475 179.724 176.307 179.221 176.307 178.519V174.048H175.145V173.064H176.307V171.157H177.537V173.064H179.15V174.048H177.537V178.218C177.537 178.651 177.619 178.963 177.783 179.155C177.947 179.342 178.221 179.435 178.604 179.435C178.708 179.435 178.797 179.433 178.87 179.428C178.948 179.424 179.041 179.417 179.15 179.408V180.419C179.036 180.438 178.923 180.453 178.809 180.467C178.695 180.481 178.578 180.488 178.46 180.488ZM180.996 180.433V170.138H182.186V174.171H182.295C182.482 173.779 182.751 173.476 183.102 173.262C183.452 173.043 183.899 172.934 184.441 172.934C184.993 172.934 185.46 173.041 185.843 173.255C186.226 173.465 186.517 173.773 186.718 174.178C186.918 174.584 187.019 175.078 187.019 175.661V180.433H185.829V175.949C185.829 175.283 185.688 174.791 185.405 174.472C185.127 174.148 184.694 173.987 184.106 173.987C183.715 173.987 183.375 174.071 183.088 174.24C182.801 174.408 182.577 174.648 182.418 174.957C182.263 175.267 182.186 175.639 182.186 176.072V180.433H180.996ZM192.18 180.563C191.478 180.563 190.874 180.408 190.368 180.098C189.867 179.788 189.479 179.351 189.206 178.786C188.937 178.216 188.803 177.546 188.803 176.776V176.769C188.803 176.008 188.937 175.34 189.206 174.766C189.479 174.192 189.865 173.743 190.361 173.419C190.858 173.096 191.439 172.934 192.104 172.934C192.774 172.934 193.349 173.089 193.827 173.399C194.31 173.709 194.679 174.142 194.935 174.698C195.194 175.249 195.324 175.892 195.324 176.625V177.09H189.418V176.14H194.716L194.128 177.008V176.536C194.128 175.958 194.041 175.481 193.868 175.108C193.695 174.734 193.456 174.456 193.15 174.274C192.845 174.087 192.494 173.994 192.098 173.994C191.701 173.994 191.346 174.092 191.031 174.287C190.721 174.479 190.475 174.764 190.293 175.142C190.111 175.52 190.02 175.985 190.02 176.536V177.008C190.02 177.532 190.108 177.981 190.286 178.355C190.464 178.724 190.717 179.009 191.045 179.209C191.373 179.405 191.76 179.503 192.207 179.503C192.54 179.503 192.829 179.458 193.075 179.367C193.321 179.275 193.524 179.159 193.684 179.018C193.843 178.877 193.955 178.733 194.019 178.587L194.046 178.526H195.235L195.222 178.58C195.158 178.831 195.044 179.075 194.88 179.312C194.72 179.544 194.513 179.756 194.258 179.948C194.003 180.134 193.7 180.285 193.349 180.399C193.002 180.508 192.613 180.563 192.18 180.563ZM201.6 180.433V174.048H200.376V173.064H201.6V172.244C201.6 171.751 201.679 171.346 201.839 171.027C202.003 170.703 202.244 170.464 202.563 170.309C202.882 170.149 203.274 170.07 203.739 170.07C203.885 170.07 204.022 170.077 204.149 170.09C204.282 170.099 204.409 170.115 204.532 170.138V171.088C204.459 171.075 204.375 171.065 204.279 171.061C204.184 171.056 204.083 171.054 203.979 171.054C203.555 171.054 203.249 171.157 203.062 171.362C202.88 171.567 202.789 171.872 202.789 172.278V173.064H204.464V174.048H202.789V180.433H201.6ZM206.207 180.433V173.064H207.396V180.433H206.207ZM206.809 171.642C206.585 171.642 206.392 171.562 206.228 171.403C206.068 171.239 205.988 171.045 205.988 170.822C205.988 170.594 206.068 170.4 206.228 170.241C206.392 170.081 206.585 170.001 206.809 170.001C207.036 170.001 207.23 170.081 207.39 170.241C207.549 170.4 207.629 170.594 207.629 170.822C207.629 171.045 207.549 171.239 207.39 171.403C207.23 171.562 207.036 171.642 206.809 171.642ZM209.639 180.433V173.064H210.828V174.158H210.938C211.079 173.77 211.318 173.469 211.655 173.255C211.993 173.041 212.41 172.934 212.906 172.934C213.02 172.934 213.132 172.941 213.241 172.954C213.355 172.964 213.442 172.973 213.501 172.982V174.137C213.378 174.114 213.257 174.098 213.139 174.089C213.025 174.076 212.902 174.069 212.77 174.069C212.391 174.069 212.056 174.144 211.765 174.294C211.473 174.445 211.243 174.654 211.074 174.923C210.91 175.192 210.828 175.507 210.828 175.867V180.433H209.639ZM217.363 180.563C216.816 180.563 216.333 180.481 215.914 180.317C215.495 180.148 215.158 179.913 214.902 179.613C214.652 179.312 214.504 178.959 214.458 178.553H215.675C215.775 178.858 215.971 179.105 216.263 179.291C216.554 179.478 216.935 179.572 217.404 179.572C217.737 179.572 218.029 179.524 218.279 179.428C218.535 179.328 218.735 179.193 218.881 179.025C219.027 178.852 219.1 178.653 219.1 178.43V178.416C219.1 178.166 218.999 177.954 218.799 177.781C218.598 177.603 218.27 177.459 217.814 177.35L216.673 177.077C216.213 176.967 215.834 176.826 215.538 176.653C215.242 176.475 215.023 176.259 214.882 176.003C214.741 175.744 214.67 175.438 214.67 175.087V175.08C214.67 174.67 214.788 174.303 215.025 173.98C215.267 173.656 215.595 173.401 216.01 173.214C216.424 173.027 216.892 172.934 217.411 172.934C217.926 172.934 218.382 173.016 218.778 173.18C219.179 173.34 219.501 173.567 219.742 173.864C219.988 174.16 220.139 174.509 220.193 174.91H219.024C218.947 174.618 218.769 174.381 218.491 174.199C218.213 174.016 217.851 173.925 217.404 173.925C217.113 173.925 216.853 173.973 216.625 174.069C216.397 174.16 216.217 174.287 216.085 174.452C215.953 174.616 215.887 174.807 215.887 175.026V175.039C215.887 175.203 215.93 175.349 216.017 175.477C216.103 175.605 216.238 175.716 216.42 175.812C216.602 175.908 216.837 175.992 217.124 176.065L218.259 176.338C218.951 176.507 219.466 176.748 219.804 177.063C220.146 177.377 220.316 177.799 220.316 178.328V178.341C220.316 178.779 220.187 179.166 219.927 179.503C219.667 179.836 219.314 180.096 218.867 180.283C218.425 180.469 217.924 180.563 217.363 180.563ZM224.712 180.488C223.955 180.488 223.406 180.335 223.064 180.03C222.727 179.724 222.559 179.221 222.559 178.519V174.048H221.396V173.064H222.559V171.157H223.789V173.064H225.402V174.048H223.789V178.218C223.789 178.651 223.871 178.963 224.035 179.155C224.199 179.342 224.473 179.435 224.855 179.435C224.96 179.435 225.049 179.433 225.122 179.428C225.2 179.424 225.293 179.417 225.402 179.408V180.419C225.288 180.438 225.174 180.453 225.061 180.467C224.947 180.481 224.83 180.488 224.712 180.488ZM234.146 180.563C233.448 180.563 232.844 180.41 232.334 180.105C231.828 179.795 231.436 179.355 231.158 178.786C230.885 178.216 230.748 177.539 230.748 176.755V176.742C230.748 175.953 230.885 175.274 231.158 174.704C231.436 174.135 231.828 173.697 232.334 173.392C232.844 173.087 233.448 172.934 234.146 172.934C234.847 172.934 235.451 173.087 235.957 173.392C236.463 173.697 236.853 174.135 237.126 174.704C237.404 175.274 237.543 175.953 237.543 176.742V176.755C237.543 177.539 237.404 178.216 237.126 178.786C236.853 179.355 236.463 179.795 235.957 180.105C235.451 180.41 234.847 180.563 234.146 180.563ZM234.146 179.51C234.61 179.51 235.005 179.401 235.328 179.182C235.652 178.963 235.898 178.649 236.066 178.239C236.24 177.828 236.326 177.334 236.326 176.755V176.742C236.326 176.158 236.24 175.661 236.066 175.251C235.898 174.841 235.652 174.529 235.328 174.315C235.005 174.096 234.61 173.987 234.146 173.987C233.681 173.987 233.286 174.096 232.963 174.315C232.639 174.529 232.391 174.841 232.218 175.251C232.049 175.661 231.965 176.158 231.965 176.742V176.755C231.965 177.334 232.049 177.828 232.218 178.239C232.391 178.649 232.639 178.963 232.963 179.182C233.286 179.401 233.681 179.51 234.146 179.51ZM239.389 180.433V173.064H240.578V174.158H240.688C240.829 173.77 241.068 173.469 241.405 173.255C241.743 173.041 242.16 172.934 242.656 172.934C242.77 172.934 242.882 172.941 242.991 172.954C243.105 172.964 243.192 172.973 243.251 172.982V174.137C243.128 174.114 243.007 174.098 242.889 174.089C242.775 174.076 242.652 174.069 242.52 174.069C242.141 174.069 241.806 174.144 241.515 174.294C241.223 174.445 240.993 174.654 240.824 174.923C240.66 175.192 240.578 175.507 240.578 175.867V180.433H239.389ZM247.236 180.563C246.617 180.563 246.074 180.406 245.609 180.091C245.145 179.777 244.785 179.335 244.529 178.765C244.274 178.191 244.146 177.521 244.146 176.755V176.742C244.146 175.971 244.274 175.301 244.529 174.732C244.785 174.162 245.142 173.72 245.603 173.406C246.067 173.091 246.612 172.934 247.236 172.934C247.574 172.934 247.89 172.989 248.187 173.098C248.487 173.203 248.754 173.351 248.986 173.542C249.219 173.734 249.401 173.962 249.533 174.226H249.643V170.138H250.832V180.433H249.643V179.257H249.533C249.383 179.531 249.194 179.765 248.966 179.961C248.738 180.153 248.478 180.301 248.187 180.406C247.895 180.51 247.578 180.563 247.236 180.563ZM247.51 179.51C247.956 179.51 248.341 179.398 248.665 179.175C248.989 178.952 249.237 178.635 249.41 178.225C249.583 177.81 249.67 177.32 249.67 176.755V176.742C249.67 176.172 249.583 175.682 249.41 175.272C249.237 174.862 248.989 174.545 248.665 174.322C248.341 174.098 247.956 173.987 247.51 173.987C247.063 173.987 246.678 174.098 246.354 174.322C246.035 174.54 245.789 174.855 245.616 175.265C245.448 175.675 245.363 176.167 245.363 176.742V176.755C245.363 177.325 245.448 177.817 245.616 178.232C245.789 178.642 246.035 178.959 246.354 179.182C246.678 179.401 247.063 179.51 247.51 179.51ZM256.123 180.563C255.421 180.563 254.817 180.408 254.312 180.098C253.81 179.788 253.423 179.351 253.149 178.786C252.881 178.216 252.746 177.546 252.746 176.776V176.769C252.746 176.008 252.881 175.34 253.149 174.766C253.423 174.192 253.808 173.743 254.305 173.419C254.801 173.096 255.382 172.934 256.048 172.934C256.718 172.934 257.292 173.089 257.771 173.399C258.254 173.709 258.623 174.142 258.878 174.698C259.138 175.249 259.268 175.892 259.268 176.625V177.09H253.361V176.14H258.659L258.071 177.008V176.536C258.071 175.958 257.985 175.481 257.812 175.108C257.638 174.734 257.399 174.456 257.094 174.274C256.788 174.087 256.438 173.994 256.041 173.994C255.645 173.994 255.289 174.092 254.975 174.287C254.665 174.479 254.419 174.764 254.236 175.142C254.054 175.52 253.963 175.985 253.963 176.536V177.008C253.963 177.532 254.052 177.981 254.229 178.355C254.407 178.724 254.66 179.009 254.988 179.209C255.316 179.405 255.704 179.503 256.15 179.503C256.483 179.503 256.772 179.458 257.019 179.367C257.265 179.275 257.467 179.159 257.627 179.018C257.786 178.877 257.898 178.733 257.962 178.587L257.989 178.526H259.179L259.165 178.58C259.101 178.831 258.987 179.075 258.823 179.312C258.664 179.544 258.456 179.756 258.201 179.948C257.946 180.134 257.643 180.285 257.292 180.399C256.946 180.508 256.556 180.563 256.123 180.563ZM261.113 180.433V173.064H262.303V174.158H262.412C262.553 173.77 262.793 173.469 263.13 173.255C263.467 173.041 263.884 172.934 264.381 172.934C264.495 172.934 264.606 172.941 264.716 172.954C264.83 172.964 264.916 172.973 264.976 172.982V174.137C264.853 174.114 264.732 174.098 264.613 174.089C264.499 174.076 264.376 174.069 264.244 174.069C263.866 174.069 263.531 174.144 263.239 174.294C262.948 174.445 262.717 174.654 262.549 174.923C262.385 175.192 262.303 175.507 262.303 175.867V180.433H261.113ZM273.411 180.563C272.714 180.563 272.11 180.41 271.6 180.105C271.094 179.795 270.702 179.355 270.424 178.786C270.15 178.216 270.014 177.539 270.014 176.755V176.742C270.014 175.953 270.15 175.274 270.424 174.704C270.702 174.135 271.094 173.697 271.6 173.392C272.11 173.087 272.714 172.934 273.411 172.934C274.113 172.934 274.717 173.087 275.223 173.392C275.729 173.697 276.118 174.135 276.392 174.704C276.67 175.274 276.809 175.953 276.809 176.742V176.755C276.809 177.539 276.67 178.216 276.392 178.786C276.118 179.355 275.729 179.795 275.223 180.105C274.717 180.41 274.113 180.563 273.411 180.563ZM273.411 179.51C273.876 179.51 274.27 179.401 274.594 179.182C274.917 178.963 275.163 178.649 275.332 178.239C275.505 177.828 275.592 177.334 275.592 176.755V176.742C275.592 176.158 275.505 175.661 275.332 175.251C275.163 174.841 274.917 174.529 274.594 174.315C274.27 174.096 273.876 173.987 273.411 173.987C272.946 173.987 272.552 174.096 272.229 174.315C271.905 174.529 271.657 174.841 271.483 175.251C271.315 175.661 271.23 176.158 271.23 176.742V176.755C271.23 177.334 271.315 177.828 271.483 178.239C271.657 178.649 271.905 178.963 272.229 179.182C272.552 179.401 272.946 179.51 273.411 179.51ZM279.146 180.433V174.048H277.923V173.064H279.146V172.244C279.146 171.751 279.226 171.346 279.386 171.027C279.55 170.703 279.791 170.464 280.11 170.309C280.429 170.149 280.821 170.07 281.286 170.07C281.432 170.07 281.569 170.077 281.696 170.09C281.828 170.099 281.956 170.115 282.079 170.138V171.088C282.006 171.075 281.922 171.065 281.826 171.061C281.73 171.056 281.63 171.054 281.525 171.054C281.102 171.054 280.796 171.157 280.609 171.362C280.427 171.567 280.336 171.872 280.336 172.278V173.064H282.011V174.048H280.336V180.433H279.146ZM290.282 180.488C289.526 180.488 288.977 180.335 288.635 180.03C288.298 179.724 288.129 179.221 288.129 178.519V174.048H286.967V173.064H288.129V171.157H289.359V173.064H290.973V174.048H289.359V178.218C289.359 178.651 289.441 178.963 289.605 179.155C289.77 179.342 290.043 179.435 290.426 179.435C290.531 179.435 290.619 179.433 290.692 179.428C290.77 179.424 290.863 179.417 290.973 179.408V180.419C290.859 180.438 290.745 180.453 290.631 180.467C290.517 180.481 290.401 180.488 290.282 180.488ZM292.818 180.433V170.138H294.008V174.171H294.117C294.304 173.779 294.573 173.476 294.924 173.262C295.275 173.043 295.721 172.934 296.264 172.934C296.815 172.934 297.282 173.041 297.665 173.255C298.048 173.465 298.34 173.773 298.54 174.178C298.741 174.584 298.841 175.078 298.841 175.661V180.433H297.651V175.949C297.651 175.283 297.51 174.791 297.228 174.472C296.95 174.148 296.517 173.987 295.929 173.987C295.537 173.987 295.197 174.071 294.91 174.24C294.623 174.408 294.4 174.648 294.24 174.957C294.085 175.267 294.008 175.639 294.008 176.072V180.433H292.818ZM301.021 180.433V173.064H302.211V180.433H301.021ZM301.623 171.642C301.4 171.642 301.206 171.562 301.042 171.403C300.882 171.239 300.803 171.045 300.803 170.822C300.803 170.594 300.882 170.4 301.042 170.241C301.206 170.081 301.4 170.001 301.623 170.001C301.851 170.001 302.045 170.081 302.204 170.241C302.364 170.4 302.443 170.594 302.443 170.822C302.443 171.045 302.364 171.239 302.204 171.403C302.045 171.562 301.851 171.642 301.623 171.642ZM306.982 180.563C306.436 180.563 305.952 180.481 305.533 180.317C305.114 180.148 304.777 179.913 304.521 179.613C304.271 179.312 304.123 178.959 304.077 178.553H305.294C305.394 178.858 305.59 179.105 305.882 179.291C306.174 179.478 306.554 179.572 307.023 179.572C307.356 179.572 307.648 179.524 307.898 179.428C308.154 179.328 308.354 179.193 308.5 179.025C308.646 178.852 308.719 178.653 308.719 178.43V178.416C308.719 178.166 308.618 177.954 308.418 177.781C308.217 177.603 307.889 177.459 307.434 177.35L306.292 177.077C305.832 176.967 305.453 176.826 305.157 176.653C304.861 176.475 304.642 176.259 304.501 176.003C304.36 175.744 304.289 175.438 304.289 175.087V175.08C304.289 174.67 304.408 174.303 304.645 173.98C304.886 173.656 305.214 173.401 305.629 173.214C306.044 173.027 306.511 172.934 307.03 172.934C307.545 172.934 308.001 173.016 308.397 173.18C308.799 173.34 309.12 173.567 309.361 173.864C309.607 174.16 309.758 174.509 309.812 174.91H308.644C308.566 174.618 308.388 174.381 308.11 174.199C307.832 174.016 307.47 173.925 307.023 173.925C306.732 173.925 306.472 173.973 306.244 174.069C306.016 174.16 305.836 174.287 305.704 174.452C305.572 174.616 305.506 174.807 305.506 175.026V175.039C305.506 175.203 305.549 175.349 305.636 175.477C305.722 175.605 305.857 175.716 306.039 175.812C306.221 175.908 306.456 175.992 306.743 176.065L307.878 176.338C308.571 176.507 309.086 176.748 309.423 177.063C309.765 177.377 309.936 177.799 309.936 178.328V178.341C309.936 178.779 309.806 179.166 309.546 179.503C309.286 179.836 308.933 180.096 308.486 180.283C308.044 180.469 307.543 180.563 306.982 180.563ZM132.29 200.563C131.602 200.563 131.005 200.406 130.499 200.091C129.993 199.777 129.601 199.332 129.323 198.758C129.045 198.184 128.906 197.507 128.906 196.728V196.714C128.906 195.949 129.043 195.283 129.316 194.718C129.594 194.153 129.986 193.716 130.492 193.406C130.998 193.091 131.595 192.934 132.283 192.934C132.88 192.934 133.395 193.039 133.828 193.248C134.261 193.458 134.607 193.741 134.867 194.096C135.127 194.447 135.293 194.841 135.366 195.279L135.373 195.32H134.19L134.184 195.299C134.092 194.935 133.885 194.625 133.562 194.37C133.238 194.114 132.812 193.987 132.283 193.987C131.841 193.987 131.458 194.098 131.135 194.322C130.811 194.545 130.561 194.862 130.383 195.272C130.21 195.677 130.123 196.158 130.123 196.714V196.728C130.123 197.293 130.212 197.785 130.39 198.204C130.567 198.619 130.818 198.94 131.142 199.168C131.465 199.396 131.846 199.51 132.283 199.51C132.78 199.51 133.186 199.403 133.5 199.189C133.814 198.975 134.04 198.662 134.177 198.252L134.19 198.211L135.366 198.204L135.353 198.28C135.252 198.722 135.075 199.116 134.819 199.462C134.564 199.804 134.227 200.073 133.808 200.269C133.388 200.465 132.882 200.563 132.29 200.563ZM139.577 200.563C139.021 200.563 138.554 200.458 138.176 200.248C137.798 200.034 137.513 199.724 137.321 199.319C137.134 198.909 137.041 198.414 137.041 197.835V193.064H138.23V197.548C138.23 198.209 138.358 198.701 138.613 199.025C138.873 199.348 139.297 199.51 139.885 199.51C140.208 199.51 140.493 199.462 140.739 199.367C140.99 199.271 141.2 199.134 141.368 198.956C141.537 198.774 141.662 198.555 141.744 198.3C141.831 198.04 141.874 197.749 141.874 197.425V193.064H143.063V200.433H141.874V199.332H141.765C141.646 199.592 141.484 199.815 141.279 200.002C141.074 200.185 140.828 200.324 140.541 200.419C140.258 200.515 139.937 200.563 139.577 200.563ZM147.814 200.563C147.268 200.563 146.785 200.481 146.365 200.317C145.946 200.148 145.609 199.913 145.354 199.613C145.103 199.312 144.955 198.959 144.909 198.553H146.126C146.226 198.858 146.422 199.105 146.714 199.291C147.006 199.478 147.386 199.572 147.855 199.572C148.188 199.572 148.48 199.524 148.73 199.428C148.986 199.328 149.186 199.193 149.332 199.025C149.478 198.852 149.551 198.653 149.551 198.43V198.416C149.551 198.166 149.451 197.954 149.25 197.781C149.049 197.603 148.721 197.459 148.266 197.35L147.124 197.077C146.664 196.967 146.285 196.826 145.989 196.653C145.693 196.475 145.474 196.259 145.333 196.003C145.192 195.744 145.121 195.438 145.121 195.087V195.08C145.121 194.67 145.24 194.303 145.477 193.98C145.718 193.656 146.046 193.401 146.461 193.214C146.876 193.027 147.343 192.934 147.862 192.934C148.377 192.934 148.833 193.016 149.229 193.18C149.631 193.34 149.952 193.567 150.193 193.864C150.439 194.16 150.59 194.509 150.645 194.91H149.476C149.398 194.618 149.22 194.381 148.942 194.199C148.664 194.016 148.302 193.925 147.855 193.925C147.564 193.925 147.304 193.973 147.076 194.069C146.848 194.16 146.668 194.287 146.536 194.452C146.404 194.616 146.338 194.807 146.338 195.026V195.039C146.338 195.203 146.381 195.349 146.468 195.477C146.554 195.605 146.689 195.716 146.871 195.812C147.053 195.908 147.288 195.992 147.575 196.065L148.71 196.338C149.403 196.507 149.918 196.748 150.255 197.063C150.597 197.377 150.768 197.799 150.768 198.328V198.341C150.768 198.779 150.638 199.166 150.378 199.503C150.118 199.836 149.765 200.096 149.318 200.283C148.876 200.469 148.375 200.563 147.814 200.563ZM155.163 200.488C154.407 200.488 153.857 200.335 153.516 200.03C153.178 199.724 153.01 199.221 153.01 198.519V194.048H151.848V193.064H153.01V191.157H154.24V193.064H155.854V194.048H154.24V198.218C154.24 198.651 154.322 198.963 154.486 199.155C154.65 199.342 154.924 199.435 155.307 199.435C155.411 199.435 155.5 199.433 155.573 199.428C155.651 199.424 155.744 199.417 155.854 199.408V200.419C155.74 200.438 155.626 200.453 155.512 200.467C155.398 200.481 155.282 200.488 155.163 200.488ZM160.563 200.563C159.866 200.563 159.262 200.41 158.752 200.105C158.246 199.795 157.854 199.355 157.576 198.786C157.303 198.216 157.166 197.539 157.166 196.755V196.742C157.166 195.953 157.303 195.274 157.576 194.704C157.854 194.135 158.246 193.697 158.752 193.392C159.262 193.087 159.866 192.934 160.563 192.934C161.265 192.934 161.869 193.087 162.375 193.392C162.881 193.697 163.271 194.135 163.544 194.704C163.822 195.274 163.961 195.953 163.961 196.742V196.755C163.961 197.539 163.822 198.216 163.544 198.786C163.271 199.355 162.881 199.795 162.375 200.105C161.869 200.41 161.265 200.563 160.563 200.563ZM160.563 199.51C161.028 199.51 161.423 199.401 161.746 199.182C162.07 198.963 162.316 198.649 162.484 198.239C162.658 197.828 162.744 197.334 162.744 196.755V196.742C162.744 196.158 162.658 195.661 162.484 195.251C162.316 194.841 162.07 194.529 161.746 194.315C161.423 194.096 161.028 193.987 160.563 193.987C160.099 193.987 159.704 194.096 159.381 194.315C159.057 194.529 158.809 194.841 158.636 195.251C158.467 195.661 158.383 196.158 158.383 196.742V196.755C158.383 197.334 158.467 197.828 158.636 198.239C158.809 198.649 159.057 198.963 159.381 199.182C159.704 199.401 160.099 199.51 160.563 199.51ZM165.807 200.433V193.064H166.996V194.185H167.105C167.27 193.788 167.52 193.481 167.857 193.262C168.199 193.043 168.612 192.934 169.095 192.934C169.427 192.934 169.726 192.989 169.99 193.098C170.255 193.207 170.482 193.36 170.674 193.556C170.865 193.747 171.018 193.971 171.132 194.226H171.241C171.373 193.966 171.551 193.741 171.774 193.549C171.998 193.353 172.255 193.203 172.547 193.098C172.843 192.989 173.16 192.934 173.497 192.934C173.998 192.934 174.422 193.027 174.769 193.214C175.119 193.401 175.386 193.675 175.568 194.035C175.751 194.39 175.842 194.825 175.842 195.34V200.433H174.652V195.614C174.652 195.249 174.595 194.948 174.481 194.711C174.372 194.47 174.203 194.29 173.976 194.171C173.748 194.048 173.461 193.987 173.114 193.987C172.772 193.987 172.474 194.064 172.219 194.219C171.964 194.374 171.765 194.581 171.624 194.841C171.483 195.096 171.412 195.381 171.412 195.696V200.433H170.223V195.429C170.223 195.137 170.159 194.884 170.031 194.67C169.908 194.452 169.73 194.283 169.498 194.164C169.27 194.046 169.001 193.987 168.691 193.987C168.372 193.987 168.083 194.071 167.823 194.24C167.568 194.408 167.365 194.636 167.215 194.923C167.069 195.206 166.996 195.52 166.996 195.867V200.433H165.807ZM180.996 200.563C180.294 200.563 179.69 200.408 179.185 200.098C178.683 199.788 178.296 199.351 178.022 198.786C177.754 198.216 177.619 197.546 177.619 196.776V196.769C177.619 196.008 177.754 195.34 178.022 194.766C178.296 194.192 178.681 193.743 179.178 193.419C179.674 193.096 180.256 192.934 180.921 192.934C181.591 192.934 182.165 193.089 182.644 193.399C183.127 193.709 183.496 194.142 183.751 194.698C184.011 195.249 184.141 195.892 184.141 196.625V197.09H178.234V196.14H183.532L182.944 197.008V196.536C182.944 195.958 182.858 195.481 182.685 195.108C182.511 194.734 182.272 194.456 181.967 194.274C181.661 194.087 181.311 193.994 180.914 193.994C180.518 193.994 180.162 194.092 179.848 194.287C179.538 194.479 179.292 194.764 179.109 195.142C178.927 195.52 178.836 195.985 178.836 196.536V197.008C178.836 197.532 178.925 197.981 179.103 198.355C179.28 198.724 179.533 199.009 179.861 199.209C180.189 199.405 180.577 199.503 181.023 199.503C181.356 199.503 181.646 199.458 181.892 199.367C182.138 199.275 182.34 199.159 182.5 199.018C182.66 198.877 182.771 198.733 182.835 198.587L182.862 198.526H184.052L184.038 198.58C183.974 198.831 183.86 199.075 183.696 199.312C183.537 199.544 183.329 199.756 183.074 199.948C182.819 200.134 182.516 200.285 182.165 200.399C181.819 200.508 181.429 200.563 180.996 200.563ZM185.986 200.433V193.064H187.176V194.158H187.285C187.426 193.77 187.666 193.469 188.003 193.255C188.34 193.041 188.757 192.934 189.254 192.934C189.368 192.934 189.479 192.941 189.589 192.954C189.703 192.964 189.789 192.973 189.849 192.982V194.137C189.726 194.114 189.605 194.098 189.486 194.089C189.372 194.076 189.249 194.069 189.117 194.069C188.739 194.069 188.404 194.144 188.112 194.294C187.821 194.445 187.59 194.654 187.422 194.923C187.258 195.192 187.176 195.507 187.176 195.867V200.433H185.986ZM191.4 200.501C191.159 200.501 190.949 200.415 190.771 200.242C190.598 200.064 190.512 199.854 190.512 199.613C190.512 199.367 190.598 199.157 190.771 198.984C190.949 198.811 191.159 198.724 191.4 198.724C191.646 198.724 191.856 198.811 192.029 198.984C192.202 199.157 192.289 199.367 192.289 199.613C192.289 199.854 192.202 200.064 192.029 200.242C191.856 200.415 191.646 200.501 191.4 200.501Z" fill="#464F5E"/>
</g>
<defs>
<filter id="filter0_dddd_1511_24165" x="75.458" y="99.4197" width="320.723" height="175.33" filterUnits="userSpaceOnUse" color-interpolation-filters="sRGB">
<feFlood flood-opacity="0" result="BackgroundImageFix"/>
<feColorMatrix in="SourceAlpha" type="matrix" values="0 0 0 0 0 0 0 0 0 0 0 0 0 0 0 0 0 0 127 0" result="hardAlpha"/>
<feOffset dx="2.27099" dy="1.13549"/>
<feGaussianBlur stdDeviation="3.40648"/>
<feColorMatrix type="matrix" values="0 0 0 0 0.85098 0 0 0 0 0.85098 0 0 0 0 0.85098 0 0 0 0.1 0"/>
<feBlend mode="normal" in2="BackgroundImageFix" result="effect1_dropShadow_1511_24165"/>
<feColorMatrix in="SourceAlpha" type="matrix" values="0 0 0 0 0 0 0 0 0 0 0 0 0 0 0 0 0 0 127 0" result="hardAlpha"/>
<feOffset dx="10.2194" dy="5.67747"/>
<feGaussianBlur stdDeviation="5.67747"/>
<feColorMatrix type="matrix" values="0 0 0 0 0.85098 0 0 0 0 0.85098 0 0 0 0 0.85098 0 0 0 0.09 0"/>
<feBlend mode="normal" in2="effect1_dropShadow_1511_24165" result="effect2_dropShadow_1511_24165"/>
<feColorMatrix in="SourceAlpha" type="matrix" values="0 0 0 0 0 0 0 0 0 0 0 0 0 0 0 0 0 0 127 0" result="hardAlpha"/>
<feOffset dx="22.7099" dy="13.6259"/>
<feGaussianBlur stdDeviation="7.94845"/>
<feColorMatrix type="matrix" values="0 0 0 0 0.85098 0 0 0 0 0.85098 0 0 0 0 0.85098 0 0 0 0.05 0"/>
<feBlend mode="normal" in2="effect2_dropShadow_1511_24165" result="effect3_dropShadow_1511_24165"/>
<feColorMatrix in="SourceAlpha" type="matrix" values="0 0 0 0 0 0 0 0 0 0 0 0 0 0 0 0 0 0 127 0" result="hardAlpha"/>
<feOffset dx="40.8778" dy="23.8454"/>
<feGaussianBlur stdDeviation="9.65169"/>
<feColorMatrix type="matrix" values="0 0 0 0 0.85098 0 0 0 0 0.85098 0 0 0 0 0.85098 0 0 0 0.01 0"/>
<feBlend mode="normal" in2="effect3_dropShadow_1511_24165" result="effect4_dropShadow_1511_24165"/>
<feBlend mode="normal" in="SourceGraphic" in2="effect4_dropShadow_1511_24165" result="shape"/>
</filter>
</defs>
</svg>
