<svg width="580" height="321" viewBox="0 0 580 321" fill="none" xmlns="http://www.w3.org/2000/svg">
<g filter="url(#filter0_dddd_1511_24150)">
<g clip-path="url(#clip0_1511_24150)">
<rect x="63" y="51.0972" width="453.979" height="218" rx="12" fill="white"/>
<g clip-path="url(#clip1_1511_24150)">
<circle cx="99.5216" cy="134.813" r="11.2371" stroke="#0E0E1E" stroke-width="1.12371"/>
<circle cx="99.5216" cy="134.813" r="8.42784" fill="#0E0E1E"/>
<line x1="100.085" y1="146.612" x2="100.085" y2="252.241" stroke="#0E0E1E" stroke-width="1.12371"/>
<circle cx="99.5216" cy="264.04" r="11.2371" stroke="#0E0E1E" stroke-width="1.12371"/>
<circle cx="99.5216" cy="264.04" r="8.42784" fill="#0E0E1E"/>
<path d="M129.368 139.015H128.262V129.513H129.638L132.891 137.375H132.996L136.249 129.513H137.625V139.015H136.519V131.759H136.44L133.444 138.949H132.443L129.447 131.759H129.368V139.015ZM142.089 138.145C142.673 138.145 143.156 137.976 143.538 137.638C143.924 137.3 144.117 136.877 144.117 136.368V135.716L142.208 135.841C141.672 135.876 141.279 135.988 141.029 136.177C140.779 136.365 140.654 136.64 140.654 137C140.654 137.355 140.788 137.636 141.055 137.843C141.323 138.044 141.668 138.145 142.089 138.145ZM141.879 139.14C141.181 139.14 140.606 138.949 140.153 138.567C139.706 138.181 139.482 137.667 139.482 137.026C139.482 136.394 139.706 135.898 140.153 135.538C140.601 135.178 141.24 134.974 142.069 134.926L144.117 134.801V134.155C144.117 133.716 143.981 133.381 143.709 133.148C143.437 132.915 143.037 132.799 142.511 132.799C142.085 132.799 141.731 132.876 141.451 133.029C141.17 133.183 140.99 133.4 140.911 133.681H139.765C139.84 133.115 140.131 132.659 140.641 132.312C141.154 131.965 141.791 131.792 142.55 131.792C143.41 131.792 144.075 132 144.545 132.417C145.015 132.834 145.25 133.414 145.25 134.155V139.015H144.17V137.968H144.064C143.836 138.345 143.533 138.635 143.156 138.837C142.778 139.039 142.353 139.14 141.879 139.14ZM147.686 141.589C147.506 141.589 147.337 141.576 147.179 141.549V140.582C147.293 140.604 147.451 140.614 147.653 140.614C147.978 140.614 148.239 140.525 148.436 140.345C148.634 140.169 148.807 139.868 148.957 139.443L149.088 139.021L146.461 131.917H147.686L149.635 137.757H149.74L151.682 131.917H152.887L150.115 139.449C149.813 140.27 149.488 140.832 149.141 141.135C148.799 141.438 148.314 141.589 147.686 141.589ZM160.472 139.015V130.83H160.367L157.951 132.582V131.331L160.479 129.513H161.658V139.015H160.472ZM167.689 139.238C166.618 139.238 165.788 138.804 165.2 137.935C164.612 137.066 164.318 135.841 164.318 134.261C164.318 132.694 164.614 131.473 165.206 130.6C165.799 129.726 166.626 129.29 167.689 129.29C168.747 129.29 169.57 129.729 170.158 130.606C170.75 131.484 171.047 132.709 171.047 134.28C171.047 135.856 170.753 137.077 170.164 137.941C169.581 138.806 168.755 139.238 167.689 139.238ZM166.069 137.184C166.447 137.864 166.986 138.205 167.689 138.205C168.391 138.205 168.927 137.867 169.295 137.191C169.668 136.51 169.855 135.534 169.855 134.261C169.855 133.001 169.666 132.031 169.289 131.35C168.916 130.67 168.382 130.33 167.689 130.33C166.995 130.33 166.457 130.672 166.076 131.357C165.698 132.037 165.509 133.005 165.509 134.261C165.509 135.529 165.696 136.504 166.069 137.184ZM172.982 141.431H171.995L172.627 137.685H173.957L172.982 141.431ZM180.212 132.187C180.212 131.344 180.497 130.65 181.068 130.106C181.643 129.562 182.372 129.29 183.254 129.29C184.105 129.29 184.819 129.546 185.394 130.06C185.973 130.569 186.263 131.201 186.263 131.956C186.263 132.452 186.122 132.939 185.842 133.418C185.561 133.896 185.032 134.553 184.255 135.387L181.97 137.843V137.948H186.421V139.015H180.271V138.198L183.557 134.61C184.167 133.947 184.573 133.442 184.775 133.095C184.977 132.749 185.078 132.384 185.078 132.002C185.078 131.528 184.898 131.131 184.538 130.811C184.182 130.486 183.743 130.323 183.221 130.323C182.664 130.323 182.214 130.495 181.871 130.837C181.529 131.179 181.358 131.629 181.358 132.187V132.193H180.212V132.187ZM191.616 139.238C190.545 139.238 189.715 138.804 189.127 137.935C188.539 137.066 188.245 135.841 188.245 134.261C188.245 132.694 188.541 131.473 189.134 130.6C189.726 129.726 190.554 129.29 191.616 129.29C192.674 129.29 193.497 129.729 194.085 130.606C194.678 131.484 194.974 132.709 194.974 134.28C194.974 135.856 194.68 137.077 194.092 137.941C193.508 138.806 192.683 139.238 191.616 139.238ZM189.996 137.184C190.374 137.864 190.914 138.205 191.616 138.205C192.318 138.205 192.854 137.867 193.222 137.191C193.596 136.51 193.782 135.534 193.782 134.261C193.782 133.001 193.593 132.031 193.216 131.35C192.843 130.67 192.309 130.33 191.616 130.33C190.922 130.33 190.385 130.672 190.003 131.357C189.625 132.037 189.437 133.005 189.437 134.261C189.437 135.529 189.623 136.504 189.996 137.184ZM196.857 132.187C196.857 131.344 197.142 130.65 197.713 130.106C198.288 129.562 199.017 129.29 199.899 129.29C200.75 129.29 201.464 129.546 202.039 130.06C202.618 130.569 202.908 131.201 202.908 131.956C202.908 132.452 202.767 132.939 202.486 133.418C202.206 133.896 201.677 134.553 200.9 135.387L198.615 137.843V137.948H203.066V139.015H196.916V138.198L200.202 134.61C200.812 133.947 201.218 133.442 201.42 133.095C201.622 132.749 201.723 132.384 201.723 132.002C201.723 131.528 201.543 131.131 201.183 130.811C200.827 130.486 200.388 130.323 199.866 130.323C199.308 130.323 198.859 130.495 198.516 130.837C198.174 131.179 198.003 131.629 198.003 132.187V132.193H196.857V132.187ZM207.01 134.636V133.622H208.162C208.702 133.622 209.143 133.464 209.486 133.148C209.832 132.832 210.006 132.428 210.006 131.936C210.006 131.454 209.839 131.065 209.505 130.771C209.172 130.473 208.731 130.323 208.182 130.323C207.633 130.323 207.19 130.468 206.852 130.758C206.514 131.043 206.321 131.44 206.272 131.95H205.12C205.182 131.124 205.489 130.475 206.042 130.001C206.595 129.527 207.324 129.29 208.228 129.29C208.772 129.29 209.273 129.402 209.729 129.625C210.19 129.845 210.552 130.146 210.816 130.527C211.079 130.909 211.211 131.326 211.211 131.778C211.211 132.345 211.064 132.823 210.769 133.214C210.475 133.604 210.067 133.863 209.545 133.991V134.096C210.19 134.179 210.697 134.432 211.066 134.853C211.434 135.27 211.619 135.804 211.619 136.453C211.619 137.235 211.296 137.895 210.651 138.435C210.006 138.971 209.213 139.238 208.274 139.238C207.308 139.238 206.52 138.993 205.91 138.501C205.3 138.005 204.973 137.351 204.929 136.539H206.075C206.128 137.044 206.351 137.447 206.747 137.75C207.142 138.053 207.646 138.205 208.261 138.205C208.884 138.205 209.396 138.038 209.795 137.704C210.199 137.371 210.401 136.943 210.401 136.42C210.401 135.872 210.205 135.437 209.815 135.117C209.424 134.796 208.891 134.636 208.215 134.636H207.01ZM213.778 141.431H212.791L213.423 137.685H214.753L213.778 141.431ZM223.339 139.015V130.83H223.233L220.817 132.582V131.331L223.345 129.513H224.524V139.015H223.339ZM229.633 139.015V130.83H229.528L227.112 132.582V131.331L229.64 129.513H230.819V139.015H229.633ZM234.005 137.777C233.83 137.601 233.742 137.377 233.742 137.105C233.742 136.833 233.83 136.609 234.005 136.434C234.181 136.258 234.405 136.17 234.677 136.17C234.945 136.17 235.164 136.258 235.335 136.434C235.511 136.609 235.599 136.833 235.599 137.105C235.599 137.377 235.511 137.601 235.335 137.777C235.164 137.952 234.945 138.04 234.677 138.04C234.405 138.04 234.181 137.952 234.005 137.777ZM234.005 132.661C233.83 132.485 233.742 132.261 233.742 131.989C233.742 131.717 233.83 131.493 234.005 131.318C234.181 131.138 234.405 131.048 234.677 131.048C234.945 131.048 235.164 131.138 235.335 131.318C235.511 131.493 235.599 131.717 235.599 131.989C235.599 132.261 235.511 132.485 235.335 132.661C235.164 132.836 234.945 132.924 234.677 132.924C234.405 132.924 234.181 132.836 234.005 132.661ZM239.747 134.636V133.622H240.899C241.439 133.622 241.88 133.464 242.222 133.148C242.569 132.832 242.743 132.428 242.743 131.936C242.743 131.454 242.576 131.065 242.242 130.771C241.909 130.473 241.467 130.323 240.919 130.323C240.37 130.323 239.927 130.468 239.589 130.758C239.251 131.043 239.058 131.44 239.009 131.95H237.857C237.919 131.124 238.226 130.475 238.779 130.001C239.332 129.527 240.061 129.29 240.965 129.29C241.509 129.29 242.01 129.402 242.466 129.625C242.927 129.845 243.289 130.146 243.552 130.527C243.816 130.909 243.947 131.326 243.947 131.778C243.947 132.345 243.8 132.823 243.506 133.214C243.212 133.604 242.804 133.863 242.282 133.991V134.096C242.927 134.179 243.434 134.432 243.803 134.853C244.171 135.27 244.356 135.804 244.356 136.453C244.356 137.235 244.033 137.895 243.388 138.435C242.743 138.971 241.95 139.238 241.011 139.238C240.045 139.238 239.257 138.993 238.647 138.501C238.037 138.005 237.71 137.351 237.666 136.539H238.812C238.864 137.044 239.088 137.447 239.483 137.75C239.878 138.053 240.383 138.205 240.998 138.205C241.621 138.205 242.132 138.038 242.532 137.704C242.936 137.371 243.138 136.943 243.138 136.42C243.138 135.872 242.942 135.437 242.552 135.117C242.161 134.796 241.628 134.636 240.952 134.636H239.747ZM249.393 139.238C248.493 139.238 247.749 138.986 247.161 138.481C246.572 137.972 246.252 137.307 246.199 136.486H247.365C247.417 137 247.63 137.415 248.003 137.731C248.381 138.042 248.848 138.198 249.406 138.198C250.042 138.198 250.554 137.998 250.94 137.599C251.331 137.199 251.526 136.675 251.526 136.025C251.526 135.376 251.331 134.849 250.94 134.445C250.554 134.037 250.049 133.833 249.426 133.833C248.995 133.833 248.609 133.927 248.267 134.116C247.924 134.3 247.657 134.561 247.463 134.899H246.351L246.871 129.513H252.171V130.574H247.799L247.529 133.622H247.635C248.096 133.082 248.765 132.812 249.643 132.812C250.547 132.812 251.285 133.108 251.855 133.701C252.426 134.294 252.711 135.057 252.711 135.992C252.711 136.958 252.404 137.742 251.789 138.343C251.175 138.94 250.376 139.238 249.393 139.238ZM258.565 129.513H262.153C263.053 129.513 263.784 129.801 264.345 130.376C264.912 130.947 265.195 131.684 265.195 132.588C265.195 133.475 264.907 134.204 264.332 134.774C263.762 135.341 263.031 135.624 262.14 135.624H259.75V139.015H258.565V129.513ZM259.75 130.567V134.57H261.843C262.519 134.57 263.044 134.397 263.417 134.05C263.79 133.703 263.977 133.216 263.977 132.588C263.977 131.934 263.792 131.434 263.424 131.087C263.059 130.74 262.533 130.567 261.843 130.567H259.75ZM268.243 139.015H267.137V129.513H268.513L271.766 137.375H271.871L275.124 129.513H276.5V139.015H275.394V131.759H275.315L272.319 138.949H271.318L268.322 131.759H268.243V139.015Z" fill="#71737C"/>
<path d="M135.67 163.015L134.556 159.842H130.146L129.033 163.015H127.581L131.667 151.93H133.035L137.121 163.015H135.67ZM132.29 153.72L130.554 158.667H134.149L132.413 153.72H132.29ZM147.714 164.067H146.685V163.038C145.645 162.961 144.813 162.646 144.188 162.093C143.564 161.535 143.249 160.83 143.244 159.98H144.557C144.598 160.492 144.806 160.912 145.179 161.24C145.553 161.568 146.055 161.77 146.685 161.847V157.852L146.07 157.683C145.246 157.463 144.614 157.107 144.173 156.616C143.733 156.124 143.512 155.525 143.512 154.818C143.512 153.984 143.797 153.297 144.365 152.76C144.934 152.217 145.707 151.897 146.685 151.799V150.724H147.714V151.792C148.667 151.874 149.435 152.189 150.019 152.737C150.608 153.279 150.915 153.968 150.941 154.803H149.635C149.619 154.321 149.435 153.914 149.082 153.581C148.733 153.249 148.278 153.049 147.714 152.982V156.739L148.375 156.9C149.322 157.151 150.019 157.52 150.464 158.006C150.915 158.487 151.14 159.112 151.14 159.88C151.14 160.792 150.841 161.524 150.242 162.077C149.642 162.625 148.8 162.943 147.714 163.03V164.067ZM149.811 159.988C149.811 159.476 149.642 159.066 149.304 158.759C148.966 158.447 148.436 158.214 147.714 158.06V161.87C148.38 161.834 148.895 161.652 149.258 161.325C149.627 160.997 149.811 160.551 149.811 159.988ZM144.834 154.741C144.834 155.197 144.99 155.576 145.302 155.878C145.62 156.175 146.081 156.388 146.685 156.516V152.982C146.147 153.013 145.704 153.195 145.356 153.528C145.008 153.855 144.834 154.26 144.834 154.741ZM158.592 163.015V160.718H153.191V159.458C154.205 157.655 155.788 155.146 157.939 151.93H159.943V159.481H161.518V160.718H159.943V163.015H158.592ZM154.605 159.396V159.489H158.599V153.213H158.507C157.309 154.954 156.008 157.015 154.605 159.396ZM167.195 163.268C166.253 163.268 165.454 163.009 164.798 162.492C164.148 161.97 163.736 161.263 163.562 160.372H164.983C165.131 160.889 165.403 161.296 165.797 161.593C166.196 161.89 166.667 162.039 167.21 162.039C168.112 162.039 168.811 161.65 169.307 160.871C169.809 160.093 170.078 158.966 170.114 157.491H170.052H170.022H169.991C169.72 158.029 169.325 158.449 168.808 158.751C168.291 159.048 167.702 159.197 167.041 159.197C165.986 159.197 165.116 158.849 164.43 158.152C163.743 157.45 163.4 156.562 163.4 155.487C163.4 154.37 163.764 153.456 164.491 152.744C165.218 152.027 166.15 151.669 167.287 151.669C168.117 151.669 168.844 151.884 169.469 152.314C170.093 152.744 170.577 153.369 170.921 154.188C171.279 155.028 171.458 156.058 171.458 157.276C171.458 159.181 171.087 160.656 170.344 161.701C169.602 162.746 168.552 163.268 167.195 163.268ZM165.49 157.292C165.956 157.763 166.555 157.998 167.287 157.998C168.019 157.998 168.621 157.763 169.092 157.292C169.569 156.821 169.807 156.219 169.807 155.487C169.807 154.744 169.566 154.124 169.085 153.628C168.608 153.131 168.014 152.882 167.302 152.882C166.591 152.882 165.994 153.128 165.513 153.62C165.036 154.106 164.798 154.713 164.798 155.44C164.798 156.198 165.029 156.815 165.49 157.292ZM174.016 163.091C173.745 163.091 173.509 162.994 173.309 162.799C173.115 162.6 173.018 162.364 173.018 162.093C173.018 161.816 173.115 161.581 173.309 161.386C173.509 161.191 173.745 161.094 174.016 161.094C174.293 161.094 174.528 161.191 174.723 161.386C174.918 161.581 175.015 161.816 175.015 162.093C175.015 162.364 174.918 162.6 174.723 162.799C174.528 162.994 174.293 163.091 174.016 163.091ZM180.546 163.276C179.296 163.276 178.328 162.769 177.642 161.755C176.956 160.741 176.613 159.312 176.613 157.468C176.613 155.64 176.958 154.217 177.65 153.197C178.341 152.178 179.306 151.669 180.546 151.669C181.78 151.669 182.74 152.181 183.426 153.205C184.118 154.229 184.463 155.658 184.463 157.491C184.463 159.33 184.12 160.754 183.434 161.762C182.753 162.771 181.79 163.276 180.546 163.276ZM178.656 160.879C179.096 161.673 179.726 162.07 180.546 162.07C181.365 162.07 181.99 161.675 182.42 160.887C182.855 160.093 183.073 158.954 183.073 157.468C183.073 155.999 182.853 154.867 182.412 154.073C181.977 153.279 181.355 152.882 180.546 152.882C179.736 152.882 179.109 153.282 178.664 154.081C178.223 154.875 178.003 156.004 178.003 157.468C178.003 158.948 178.221 160.085 178.656 160.879ZM190.455 163.276C189.205 163.276 188.237 162.769 187.551 161.755C186.865 160.741 186.522 159.312 186.522 157.468C186.522 155.64 186.868 154.217 187.559 153.197C188.25 152.178 189.216 151.669 190.455 151.669C191.689 151.669 192.649 152.181 193.335 153.205C194.027 154.229 194.373 155.658 194.373 157.491C194.373 159.33 194.029 160.754 193.343 161.762C192.662 162.771 191.699 163.276 190.455 163.276ZM188.565 160.879C189.006 161.673 189.636 162.07 190.455 162.07C191.274 162.07 191.899 161.675 192.329 160.887C192.764 160.093 192.982 158.954 192.982 157.468C192.982 155.999 192.762 154.867 192.322 154.073C191.886 153.279 191.264 152.882 190.455 152.882C189.646 152.882 189.018 153.282 188.573 154.081C188.132 154.875 187.912 156.004 187.912 157.468C187.912 158.948 188.13 160.085 188.565 160.879ZM202.676 151.93V159.112C202.676 159.967 202.943 160.664 203.475 161.202C204.013 161.734 204.753 162.001 205.695 162.001C206.637 162.001 207.375 161.734 207.908 161.202C208.445 160.664 208.714 159.967 208.714 159.112V151.93H210.097V159.204C210.097 160.408 209.7 161.389 208.906 162.147C208.117 162.899 207.047 163.276 205.695 163.276C204.343 163.276 203.27 162.899 202.477 162.147C201.688 161.389 201.294 160.408 201.294 159.204V151.93H202.676ZM212.432 160.119H213.83C213.917 160.697 214.217 161.158 214.729 161.501C215.241 161.844 215.891 162.016 216.68 162.016C217.428 162.016 218.045 161.837 218.531 161.478C219.023 161.115 219.269 160.659 219.269 160.111C219.269 159.64 219.089 159.251 218.731 158.943C218.372 158.631 217.812 158.377 217.049 158.183L215.628 157.814C214.624 157.563 213.894 157.2 213.438 156.723C212.983 156.247 212.755 155.615 212.755 154.826C212.755 153.884 213.113 153.123 213.83 152.544C214.552 151.961 215.5 151.669 216.672 151.669C217.743 151.669 218.639 151.956 219.361 152.529C220.083 153.103 220.472 153.838 220.528 154.734H219.138C219.041 154.165 218.769 153.722 218.324 153.405C217.883 153.082 217.318 152.921 216.626 152.921C215.889 152.921 215.295 153.092 214.844 153.436C214.398 153.774 214.176 154.222 214.176 154.78C214.176 155.215 214.34 155.568 214.667 155.84C215 156.111 215.548 156.344 216.311 156.539L217.471 156.846C218.618 157.133 219.44 157.517 219.937 157.998C220.439 158.48 220.69 159.128 220.69 159.942C220.69 160.961 220.316 161.773 219.568 162.377C218.821 162.976 217.814 163.276 216.549 163.276C215.377 163.276 214.414 162.989 213.661 162.415C212.913 161.842 212.504 161.076 212.432 160.119ZM222.994 151.93H226.797C228.44 151.93 229.723 152.419 230.645 153.397C231.567 154.37 232.028 155.727 232.028 157.468C232.028 159.215 231.567 160.577 230.645 161.555C229.728 162.528 228.446 163.015 226.797 163.015H222.994V151.93ZM224.377 153.174V161.77H226.704C227.939 161.77 228.899 161.394 229.585 160.641C230.271 159.888 230.614 158.836 230.614 157.484C230.614 156.127 230.269 155.069 229.577 154.311C228.891 153.553 227.934 153.174 226.704 153.174H224.377ZM238.695 163.015V154.734H239.955V155.963H240.078C240.201 155.558 240.478 155.228 240.908 154.972C241.338 154.716 241.827 154.588 242.375 154.588C242.626 154.588 242.846 154.601 243.036 154.626V155.947C242.856 155.896 242.575 155.871 242.191 155.871C241.561 155.871 241.041 156.06 240.631 156.439C240.222 156.818 240.017 157.299 240.017 157.883V163.015H238.695ZM247.76 155.755C247.099 155.755 246.556 155.978 246.131 156.424C245.706 156.869 245.468 157.458 245.417 158.19H249.98C249.964 157.458 249.754 156.869 249.35 156.424C248.945 155.978 248.415 155.755 247.76 155.755ZM249.941 160.871H251.263C251.063 161.588 250.656 162.149 250.041 162.554C249.432 162.958 248.676 163.16 247.775 163.16C246.628 163.16 245.719 162.776 245.048 162.008C244.377 161.235 244.042 160.193 244.042 158.882C244.042 157.576 244.38 156.534 245.056 155.755C245.732 154.977 246.638 154.588 247.775 154.588C248.892 154.588 249.77 154.959 250.41 155.702C251.05 156.444 251.37 157.461 251.37 158.751V159.258H245.417V159.32C245.453 160.139 245.683 160.789 246.108 161.271C246.538 161.752 247.104 161.993 247.806 161.993C248.876 161.993 249.588 161.619 249.941 160.871ZM260.296 157.269H258.96C258.847 156.833 258.604 156.477 258.23 156.201C257.861 155.919 257.393 155.778 256.824 155.778C256.082 155.778 255.49 156.055 255.05 156.608C254.614 157.161 254.397 157.906 254.397 158.843C254.397 159.796 254.617 160.556 255.057 161.125C255.498 161.688 256.087 161.97 256.824 161.97C257.382 161.97 257.846 161.844 258.214 161.593C258.588 161.342 258.837 160.984 258.96 160.518H260.296C260.173 161.302 259.807 161.939 259.198 162.431C258.588 162.917 257.8 163.16 256.832 163.16C255.669 163.16 254.745 162.771 254.059 161.993C253.372 161.209 253.029 160.16 253.029 158.843C253.029 157.553 253.372 156.521 254.059 155.748C254.745 154.974 255.667 154.588 256.824 154.588C257.792 154.588 258.581 154.841 259.19 155.348C259.805 155.855 260.173 156.495 260.296 157.269ZM269.099 154.734V163.015H267.84V161.716H267.717C267.512 162.177 267.179 162.533 266.718 162.784C266.257 163.035 265.709 163.16 265.074 163.16C264.147 163.16 263.43 162.894 262.923 162.362C262.421 161.829 262.17 161.074 262.17 160.096V154.734H263.492V159.773C263.492 160.515 263.65 161.066 263.968 161.424C264.291 161.778 264.782 161.954 265.443 161.954C266.175 161.954 266.746 161.75 267.156 161.34C267.571 160.93 267.778 160.362 267.778 159.635V154.734H269.099ZM271.588 163.015V154.734H272.848V155.963H272.971C273.094 155.558 273.37 155.228 273.8 154.972C274.231 154.716 274.72 154.588 275.268 154.588C275.519 154.588 275.739 154.601 275.928 154.626V155.947C275.749 155.896 275.467 155.871 275.083 155.871C274.453 155.871 273.934 156.06 273.524 156.439C273.114 156.818 272.909 157.299 272.909 157.883V163.015H271.588ZM277.626 163.015V154.734H278.886V155.963H279.009C279.132 155.558 279.408 155.228 279.838 154.972C280.268 154.716 280.757 154.588 281.305 154.588C281.556 154.588 281.777 154.601 281.966 154.626V155.947C281.787 155.896 281.505 155.871 281.121 155.871C280.491 155.871 279.971 156.06 279.562 156.439C279.152 156.818 278.947 157.299 278.947 157.883V163.015H277.626ZM283.694 163.015V154.734H285.016V163.015H283.694ZM285.008 152.783C284.829 152.962 284.611 153.051 284.355 153.051C284.099 153.051 283.881 152.962 283.702 152.783C283.523 152.598 283.433 152.381 283.433 152.13C283.433 151.879 283.523 151.664 283.702 151.484C283.881 151.3 284.099 151.208 284.355 151.208C284.611 151.208 284.829 151.3 285.008 151.484C285.187 151.664 285.277 151.879 285.277 152.13C285.277 152.381 285.187 152.598 285.008 152.783ZM287.535 163.015V154.734H288.795V156.04H288.918C289.128 155.579 289.463 155.223 289.924 154.972C290.385 154.716 290.93 154.588 291.56 154.588C292.487 154.588 293.202 154.854 293.704 155.387C294.205 155.914 294.456 156.67 294.456 157.653V163.015H293.135V157.975C293.135 157.233 292.974 156.682 292.651 156.324C292.334 155.96 291.845 155.778 291.184 155.778C290.457 155.778 289.886 155.986 289.471 156.401C289.061 156.815 288.856 157.386 288.856 158.114V163.015H287.535ZM302.683 158.751C302.683 157.845 302.463 157.123 302.023 156.585C301.582 156.047 300.983 155.778 300.225 155.778C299.467 155.778 298.878 156.045 298.458 156.577C298.039 157.11 297.829 157.835 297.829 158.751C297.829 159.668 298.039 160.393 298.458 160.925C298.878 161.458 299.467 161.724 300.225 161.724C300.988 161.724 301.587 161.458 302.023 160.925C302.463 160.387 302.683 159.663 302.683 158.751ZM300.287 166.195C299.298 166.195 298.497 165.99 297.882 165.58C297.273 165.171 296.917 164.62 296.815 163.929H298.213C298.284 164.272 298.502 164.543 298.866 164.743C299.229 164.943 299.703 165.042 300.287 165.042C301.029 165.042 301.608 164.868 302.023 164.52C302.443 164.177 302.653 163.701 302.653 163.091V161.463H302.53C302.269 161.919 301.913 162.272 301.462 162.523C301.011 162.769 300.502 162.892 299.933 162.892C298.868 162.892 298.023 162.515 297.398 161.762C296.774 161.005 296.461 160.001 296.461 158.751C296.461 157.502 296.776 156.495 297.406 155.732C298.036 154.969 298.878 154.588 299.933 154.588C300.512 154.588 301.039 154.721 301.516 154.987C301.992 155.248 302.35 155.602 302.591 156.047H302.714V154.734H303.974V163.16C303.974 164.087 303.641 164.825 302.975 165.373C302.31 165.921 301.413 166.195 300.287 166.195ZM314.936 154.588C315.99 154.588 316.833 154.977 317.463 155.755C318.098 156.534 318.415 157.573 318.415 158.874C318.415 160.17 318.098 161.209 317.463 161.993C316.828 162.771 315.985 163.16 314.936 163.16C314.347 163.16 313.824 163.04 313.368 162.799C312.913 162.554 312.572 162.211 312.347 161.77H312.224V165.78H310.903V154.734H312.162V156.116H312.285C312.552 155.64 312.918 155.266 313.384 154.995C313.855 154.723 314.372 154.588 314.936 154.588ZM314.621 161.97C315.379 161.97 315.973 161.696 316.403 161.148C316.833 160.6 317.048 159.842 317.048 158.874C317.048 157.906 316.833 157.148 316.403 156.6C315.978 156.052 315.386 155.778 314.628 155.778C313.881 155.778 313.287 156.058 312.846 156.616C312.406 157.169 312.186 157.922 312.186 158.874C312.186 159.822 312.403 160.574 312.838 161.133C313.279 161.691 313.873 161.97 314.621 161.97ZM323.04 162.001C323.721 162.001 324.284 161.803 324.73 161.409C325.18 161.015 325.406 160.521 325.406 159.927V159.166L323.178 159.312C322.553 159.353 322.095 159.484 321.803 159.704C321.511 159.924 321.365 160.244 321.365 160.664C321.365 161.079 321.521 161.407 321.834 161.647C322.146 161.883 322.548 162.001 323.04 162.001ZM322.794 163.16C321.98 163.16 321.309 162.938 320.781 162.492C320.259 162.042 319.998 161.442 319.998 160.695C319.998 159.957 320.259 159.379 320.781 158.959C321.304 158.539 322.049 158.301 323.017 158.244L325.406 158.098V157.345C325.406 156.833 325.247 156.442 324.929 156.17C324.612 155.899 324.146 155.763 323.531 155.763C323.035 155.763 322.622 155.853 322.295 156.032C321.967 156.211 321.757 156.465 321.665 156.792H320.328C320.415 156.132 320.756 155.599 321.35 155.195C321.949 154.79 322.691 154.588 323.577 154.588C324.581 154.588 325.357 154.831 325.905 155.318C326.453 155.804 326.727 156.48 326.727 157.345V163.015H325.467V161.793H325.344C325.078 162.234 324.724 162.572 324.284 162.807C323.844 163.043 323.347 163.16 322.794 163.16ZM329.569 166.018C329.359 166.018 329.162 166.003 328.978 165.972V164.843C329.111 164.868 329.295 164.881 329.531 164.881C329.91 164.881 330.214 164.776 330.445 164.566C330.675 164.361 330.877 164.011 331.052 163.514L331.205 163.022L328.14 154.734H329.569L331.843 161.547H331.966L334.232 154.734H335.638L332.404 163.522C332.05 164.479 331.671 165.135 331.267 165.488C330.867 165.841 330.301 166.018 329.569 166.018ZM337.404 163.015V154.734H338.664V156.04H338.787C338.976 155.579 339.271 155.223 339.67 154.972C340.07 154.716 340.546 154.588 341.099 154.588C341.642 154.588 342.108 154.718 342.497 154.98C342.892 155.241 343.189 155.594 343.388 156.04H343.511C343.736 155.594 344.074 155.241 344.525 154.98C344.976 154.718 345.483 154.588 346.046 154.588C346.891 154.588 347.541 154.823 347.997 155.294C348.453 155.761 348.681 156.426 348.681 157.292V163.015H347.36V157.599C347.36 156.385 346.778 155.778 345.616 155.778C345.053 155.778 344.592 155.963 344.233 156.332C343.875 156.7 343.696 157.153 343.696 157.691V163.015H342.374V157.392C342.374 156.9 342.216 156.508 341.898 156.216C341.586 155.924 341.168 155.778 340.646 155.778C340.108 155.778 339.652 155.983 339.279 156.393C338.91 156.803 338.726 157.299 338.726 157.883V163.015H337.404ZM354.396 155.755C353.735 155.755 353.193 155.978 352.768 156.424C352.342 156.869 352.104 157.458 352.053 158.19H356.616C356.601 157.458 356.391 156.869 355.986 156.424C355.582 155.978 355.052 155.755 354.396 155.755ZM356.578 160.871H357.899C357.699 161.588 357.292 162.149 356.677 162.554C356.068 162.958 355.313 163.16 354.411 163.16C353.264 163.16 352.355 162.776 351.684 162.008C351.014 161.235 350.678 160.193 350.678 158.882C350.678 157.576 351.016 156.534 351.692 155.755C352.368 154.977 353.274 154.588 354.411 154.588C355.528 154.588 356.406 154.959 357.046 155.702C357.686 156.444 358.006 157.461 358.006 158.751V159.258H352.053V159.32C352.089 160.139 352.319 160.789 352.744 161.271C353.175 161.752 353.741 161.993 354.442 161.993C355.512 161.993 356.224 161.619 356.578 160.871ZM360.08 163.015V154.734H361.34V156.04H361.463C361.673 155.579 362.009 155.223 362.469 154.972C362.93 154.716 363.476 154.588 364.106 154.588C365.033 154.588 365.747 154.854 366.249 155.387C366.751 155.914 367.002 156.67 367.002 157.653V163.015H365.68V157.975C365.68 157.233 365.519 156.682 365.196 156.324C364.879 155.96 364.39 155.778 363.729 155.778C363.002 155.778 362.431 155.986 362.016 156.401C361.607 156.815 361.402 157.386 361.402 158.114V163.015H360.08ZM369.974 152.667H371.296V154.734H373.216V155.84H371.296V160.526C371.296 161.012 371.393 161.366 371.587 161.586C371.782 161.806 372.094 161.916 372.525 161.916C372.704 161.916 372.904 161.906 373.124 161.885V162.999C372.832 163.05 372.578 163.076 372.363 163.076C371.508 163.076 370.896 162.904 370.527 162.561C370.159 162.218 369.974 161.652 369.974 160.864V155.84H368.584V154.734H369.974V152.667ZM389.993 154.734L387.673 163.015H386.329L384.477 156.608H384.354L382.511 163.015H381.174L378.854 154.734H380.191L381.819 161.355H381.942L383.794 154.734H385.061L386.912 161.355H387.035L388.664 154.734H389.993ZM394.079 162.001C394.76 162.001 395.324 161.803 395.769 161.409C396.22 161.015 396.445 160.521 396.445 159.927V159.166L394.218 159.312C393.593 159.353 393.134 159.484 392.843 159.704C392.551 159.924 392.405 160.244 392.405 160.664C392.405 161.079 392.561 161.407 392.873 161.647C393.186 161.883 393.588 162.001 394.079 162.001ZM393.833 163.16C393.019 163.16 392.348 162.938 391.821 162.492C391.299 162.042 391.037 161.442 391.037 160.695C391.037 159.957 391.299 159.379 391.821 158.959C392.343 158.539 393.088 158.301 394.056 158.244L396.445 158.098V157.345C396.445 156.833 396.286 156.442 395.969 156.17C395.651 155.899 395.185 155.763 394.571 155.763C394.074 155.763 393.662 155.853 393.334 156.032C393.006 156.211 392.796 156.465 392.704 156.792H391.368C391.455 156.132 391.795 155.599 392.389 155.195C392.988 154.79 393.731 154.588 394.617 154.588C395.621 154.588 396.397 154.831 396.945 155.318C397.492 155.804 397.766 156.48 397.766 157.345V163.015H396.507V161.793H396.384C396.117 162.234 395.764 162.572 395.324 162.807C394.883 163.043 394.387 163.16 393.833 163.16ZM400.017 157C400.017 156.314 400.312 155.74 400.901 155.279C401.489 154.818 402.224 154.588 403.105 154.588C403.971 154.588 404.685 154.788 405.248 155.187C405.812 155.586 406.137 156.127 406.224 156.808H404.918C404.826 156.47 404.621 156.203 404.304 156.009C403.991 155.809 403.589 155.709 403.097 155.709C402.601 155.709 402.183 155.825 401.845 156.055C401.513 156.285 401.346 156.582 401.346 156.946C401.346 157.228 401.461 157.463 401.692 157.653C401.927 157.837 402.291 157.988 402.783 158.106L404.058 158.413C404.846 158.603 405.428 158.877 405.801 159.235C406.18 159.594 406.37 160.067 406.37 160.656C406.37 161.389 406.055 161.99 405.425 162.461C404.795 162.927 404.004 163.16 403.051 163.16C402.13 163.16 401.374 162.956 400.785 162.546C400.196 162.136 399.866 161.588 399.794 160.902H401.154C401.267 161.261 401.489 161.542 401.822 161.747C402.155 161.947 402.58 162.047 403.097 162.047C403.656 162.047 404.114 161.926 404.473 161.686C404.831 161.445 405.01 161.135 405.01 160.756C405.01 160.193 404.572 159.804 403.697 159.589L402.276 159.243C401.492 159.053 400.918 158.782 400.555 158.429C400.196 158.07 400.017 157.594 400.017 157ZM132.328 176.588C133.383 176.588 134.225 176.977 134.855 177.755C135.49 178.534 135.808 179.573 135.808 180.874C135.808 182.17 135.49 183.209 134.855 183.993C134.22 184.771 133.378 185.16 132.328 185.16C131.739 185.16 131.217 185.04 130.761 184.799C130.305 184.554 129.965 184.211 129.739 183.77H129.616V187.78H128.295V176.734H129.555V178.116H129.678C129.944 177.64 130.31 177.266 130.776 176.995C131.248 176.723 131.765 176.588 132.328 176.588ZM132.013 183.97C132.771 183.97 133.365 183.696 133.795 183.148C134.225 182.6 134.44 181.842 134.44 180.874C134.44 179.906 134.225 179.148 133.795 178.6C133.37 178.052 132.779 177.778 132.021 177.778C131.273 177.778 130.679 178.058 130.239 178.616C129.798 179.169 129.578 179.922 129.578 180.874C129.578 181.822 129.796 182.574 130.231 183.133C130.671 183.691 131.265 183.97 132.013 183.97ZM137.882 185.015V176.734H139.142V177.963H139.265C139.387 177.558 139.664 177.228 140.094 176.972C140.524 176.716 141.013 176.588 141.561 176.588C141.812 176.588 142.033 176.601 142.222 176.626V177.947C142.043 177.896 141.761 177.871 141.377 177.871C140.747 177.871 140.227 178.06 139.818 178.439C139.408 178.818 139.203 179.299 139.203 179.883V185.015H137.882ZM145.233 183.163C145.658 183.701 146.263 183.97 147.046 183.97C147.83 183.97 148.434 183.701 148.859 183.163C149.284 182.62 149.496 181.857 149.496 180.874C149.496 179.891 149.284 179.13 148.859 178.593C148.434 178.05 147.83 177.778 147.046 177.778C146.263 177.778 145.658 178.05 145.233 178.593C144.808 179.13 144.596 179.891 144.596 180.874C144.596 181.857 144.808 182.62 145.233 183.163ZM149.834 184.016C149.153 184.779 148.224 185.16 147.046 185.16C145.868 185.16 144.936 184.779 144.25 184.016C143.569 183.248 143.228 182.2 143.228 180.874C143.228 179.543 143.569 178.495 144.25 177.732C144.931 176.969 145.863 176.588 147.046 176.588C148.229 176.588 149.161 176.969 149.842 177.732C150.523 178.495 150.864 179.543 150.864 180.874C150.864 182.2 150.521 183.248 149.834 184.016ZM159.79 179.269H158.453C158.341 178.833 158.097 178.477 157.723 178.201C157.355 177.919 156.886 177.778 156.318 177.778C155.575 177.778 154.984 178.055 154.543 178.608C154.108 179.161 153.89 179.906 153.89 180.843C153.89 181.796 154.111 182.556 154.551 183.125C154.991 183.688 155.58 183.97 156.318 183.97C156.876 183.97 157.339 183.844 157.708 183.593C158.082 183.342 158.33 182.984 158.453 182.518H159.79C159.667 183.302 159.301 183.939 158.691 184.431C158.082 184.917 157.293 185.16 156.325 185.16C155.163 185.16 154.239 184.771 153.552 183.993C152.866 183.209 152.523 182.16 152.523 180.843C152.523 179.553 152.866 178.521 153.552 177.748C154.239 176.974 155.16 176.588 156.318 176.588C157.286 176.588 158.074 176.841 158.684 177.348C159.298 177.855 159.667 178.495 159.79 179.269ZM165.044 177.755C164.383 177.755 163.841 177.978 163.416 178.424C162.991 178.869 162.752 179.458 162.701 180.19H167.264C167.249 179.458 167.039 178.869 166.634 178.424C166.23 177.978 165.7 177.755 165.044 177.755ZM167.226 182.871H168.547C168.347 183.588 167.94 184.149 167.326 184.554C166.716 184.958 165.961 185.16 165.059 185.16C163.912 185.16 163.003 184.776 162.332 184.008C161.662 183.235 161.326 182.193 161.326 180.882C161.326 179.576 161.664 178.534 162.34 177.755C163.016 176.977 163.923 176.588 165.059 176.588C166.176 176.588 167.054 176.959 167.694 177.702C168.334 178.444 168.654 179.461 168.654 180.751V181.258H162.701V181.32C162.737 182.139 162.967 182.789 163.393 183.271C163.823 183.752 164.389 183.993 165.09 183.993C166.16 183.993 166.872 183.619 167.226 182.871ZM170.536 179C170.536 178.314 170.831 177.74 171.42 177.279C172.009 176.818 172.744 176.588 173.624 176.588C174.49 176.588 175.204 176.788 175.768 177.187C176.331 177.586 176.656 178.127 176.743 178.808H175.437C175.345 178.47 175.14 178.203 174.823 178.009C174.51 177.809 174.108 177.709 173.617 177.709C173.12 177.709 172.703 177.825 172.365 178.055C172.032 178.285 171.865 178.582 171.865 178.946C171.865 179.228 171.981 179.463 172.211 179.653C172.447 179.837 172.81 179.988 173.302 180.106L174.577 180.413C175.366 180.603 175.947 180.877 176.321 181.235C176.7 181.594 176.889 182.067 176.889 182.656C176.889 183.389 176.574 183.99 175.944 184.461C175.314 184.927 174.523 185.16 173.571 185.16C172.649 185.16 171.894 184.956 171.305 184.546C170.716 184.136 170.385 183.588 170.314 182.902H171.673C171.786 183.261 172.009 183.542 172.342 183.747C172.674 183.947 173.1 184.047 173.617 184.047C174.175 184.047 174.633 183.926 174.992 183.686C175.35 183.445 175.529 183.135 175.529 182.756C175.529 182.193 175.092 181.804 174.216 181.589L172.795 181.243C172.011 181.053 171.438 180.782 171.074 180.429C170.716 180.07 170.536 179.594 170.536 179ZM178.617 179C178.617 178.314 178.912 177.74 179.501 177.279C180.09 176.818 180.825 176.588 181.706 176.588C182.571 176.588 183.285 176.788 183.849 177.187C184.412 177.586 184.737 178.127 184.824 178.808H183.518C183.426 178.47 183.221 178.203 182.904 178.009C182.591 177.809 182.189 177.709 181.698 177.709C181.201 177.709 180.784 177.825 180.446 178.055C180.113 178.285 179.946 178.582 179.946 178.946C179.946 179.228 180.062 179.463 180.292 179.653C180.528 179.837 180.891 179.988 181.383 180.106L182.658 180.413C183.447 180.603 184.028 180.877 184.402 181.235C184.781 181.594 184.97 182.067 184.97 182.656C184.97 183.389 184.655 183.99 184.025 184.461C183.395 184.927 182.604 185.16 181.652 185.16C180.73 185.16 179.975 184.956 179.386 184.546C178.797 184.136 178.466 183.588 178.395 182.902H179.754C179.867 183.261 180.09 183.542 180.423 183.747C180.756 183.947 181.181 184.047 181.698 184.047C182.256 184.047 182.714 183.926 183.073 183.686C183.431 183.445 183.611 183.135 183.611 182.756C183.611 182.193 183.173 181.804 182.297 181.589L180.876 181.243C180.092 181.053 179.519 180.782 179.155 180.429C178.797 180.07 178.617 179.594 178.617 179ZM190.347 177.755C189.687 177.755 189.144 177.978 188.719 178.424C188.294 178.869 188.056 179.458 188.004 180.19H192.567C192.552 179.458 192.342 178.869 191.937 178.424C191.533 177.978 191.003 177.755 190.347 177.755ZM192.529 182.871H193.85C193.65 183.588 193.243 184.149 192.629 184.554C192.019 184.958 191.264 185.16 190.363 185.16C189.216 185.16 188.307 184.776 187.636 184.008C186.965 183.235 186.629 182.193 186.629 180.882C186.629 179.576 186.967 178.534 187.643 177.755C188.319 176.977 189.226 176.588 190.363 176.588C191.479 176.588 192.357 176.959 192.997 177.702C193.638 178.444 193.958 179.461 193.958 180.751V181.258H188.004V181.32C188.04 182.139 188.271 182.789 188.696 183.271C189.126 183.752 189.692 183.993 190.393 183.993C191.464 183.993 192.176 183.619 192.529 182.871ZM199.097 185.16C198.037 185.16 197.192 184.771 196.562 183.993C195.932 183.214 195.617 182.175 195.617 180.874C195.617 179.578 195.932 178.541 196.562 177.763C197.197 176.98 198.042 176.588 199.097 176.588C199.675 176.588 200.193 176.718 200.648 176.98C201.109 177.236 201.458 177.589 201.693 178.04H201.808V173.446H203.13V185.015H201.87V183.693H201.747C201.486 184.154 201.122 184.515 200.656 184.776C200.19 185.032 199.67 185.16 199.097 185.16ZM199.404 177.778C198.651 177.778 198.06 178.055 197.63 178.608C197.199 179.156 196.984 179.911 196.984 180.874C196.984 181.842 197.197 182.6 197.622 183.148C198.052 183.696 198.646 183.97 199.404 183.97C200.157 183.97 200.751 183.693 201.186 183.14C201.621 182.587 201.839 181.832 201.839 180.874C201.839 179.927 201.619 179.174 201.178 178.616C200.743 178.058 200.152 177.778 199.404 177.778ZM216.987 176.734V185.015H215.727V183.716H215.604C215.4 184.177 215.067 184.533 214.606 184.784C214.145 185.035 213.597 185.16 212.962 185.16C212.035 185.16 211.318 184.894 210.811 184.362C210.309 183.829 210.058 183.074 210.058 182.096V176.734H211.38V181.773C211.38 182.515 211.538 183.066 211.856 183.424C212.178 183.778 212.67 183.954 213.331 183.954C214.063 183.954 214.634 183.75 215.044 183.34C215.459 182.93 215.666 182.362 215.666 181.635V176.734H216.987ZM219.284 179C219.284 178.314 219.578 177.74 220.167 177.279C220.756 176.818 221.491 176.588 222.372 176.588C223.237 176.588 223.952 176.788 224.515 177.187C225.078 177.586 225.404 178.127 225.491 178.808H224.185C224.093 178.47 223.888 178.203 223.57 178.009C223.258 177.809 222.856 177.709 222.364 177.709C221.868 177.709 221.45 177.825 221.112 178.055C220.779 178.285 220.613 178.582 220.613 178.946C220.613 179.228 220.728 179.463 220.959 179.653C221.194 179.837 221.558 179.988 222.049 180.106L223.325 180.413C224.113 180.603 224.694 180.877 225.068 181.235C225.447 181.594 225.637 182.067 225.637 182.656C225.637 183.389 225.322 183.99 224.692 184.461C224.062 184.927 223.271 185.16 222.318 185.16C221.396 185.16 220.641 184.956 220.052 184.546C219.463 184.136 219.133 183.588 219.061 182.902H220.421C220.534 183.261 220.756 183.542 221.089 183.747C221.422 183.947 221.847 184.047 222.364 184.047C222.923 184.047 223.381 183.926 223.739 183.686C224.098 183.445 224.277 183.135 224.277 182.756C224.277 182.193 223.839 181.804 222.963 181.589L221.542 181.243C220.759 181.053 220.185 180.782 219.822 180.429C219.463 180.07 219.284 179.594 219.284 179ZM227.741 185.015V176.734H229.063V185.015H227.741ZM229.055 174.783C228.876 174.962 228.658 175.051 228.402 175.051C228.146 175.051 227.928 174.962 227.749 174.783C227.57 174.598 227.48 174.381 227.48 174.13C227.48 173.879 227.57 173.664 227.749 173.484C227.928 173.3 228.146 173.208 228.402 173.208C228.658 173.208 228.876 173.3 229.055 173.484C229.234 173.664 229.324 173.879 229.324 174.13C229.324 174.381 229.234 174.598 229.055 174.783ZM231.582 185.015V176.734H232.842V178.04H232.965C233.175 177.579 233.51 177.223 233.971 176.972C234.432 176.716 234.978 176.588 235.607 176.588C236.534 176.588 237.249 176.854 237.751 177.387C238.252 177.914 238.503 178.67 238.503 179.653V185.015H237.182V179.975C237.182 179.233 237.021 178.682 236.698 178.324C236.381 177.96 235.892 177.778 235.231 177.778C234.504 177.778 233.933 177.986 233.518 178.401C233.108 178.815 232.904 179.386 232.904 180.114V185.015H231.582ZM246.73 180.751C246.73 179.845 246.51 179.123 246.07 178.585C245.629 178.047 245.03 177.778 244.272 177.778C243.514 177.778 242.925 178.045 242.506 178.577C242.086 179.11 241.876 179.835 241.876 180.751C241.876 181.668 242.086 182.393 242.506 182.925C242.925 183.458 243.514 183.724 244.272 183.724C245.035 183.724 245.635 183.458 246.07 182.925C246.51 182.387 246.73 181.663 246.73 180.751ZM244.334 188.195C243.345 188.195 242.544 187.99 241.929 187.58C241.32 187.171 240.964 186.62 240.862 185.929H242.26C242.331 186.272 242.549 186.543 242.913 186.743C243.276 186.943 243.75 187.042 244.334 187.042C245.076 187.042 245.655 186.868 246.07 186.52C246.49 186.177 246.7 185.701 246.7 185.091V183.463H246.577C246.316 183.919 245.96 184.272 245.509 184.523C245.058 184.769 244.549 184.892 243.98 184.892C242.915 184.892 242.07 184.515 241.445 183.762C240.821 183.005 240.508 182.001 240.508 180.751C240.508 179.502 240.823 178.495 241.453 177.732C242.083 176.969 242.925 176.588 243.98 176.588C244.559 176.588 245.087 176.721 245.563 176.987C246.039 177.248 246.398 177.602 246.638 178.047H246.761V176.734H248.021V185.16C248.021 186.087 247.688 186.825 247.022 187.373C246.357 187.921 245.46 188.195 244.334 188.195ZM257.5 184.001C258.181 184.001 258.744 183.803 259.19 183.409C259.641 183.015 259.866 182.521 259.866 181.927V181.166L257.638 181.312C257.014 181.353 256.555 181.484 256.263 181.704C255.971 181.924 255.825 182.244 255.825 182.664C255.825 183.079 255.982 183.407 256.294 183.647C256.606 183.883 257.008 184.001 257.5 184.001ZM257.254 185.16C256.44 185.16 255.769 184.938 255.242 184.492C254.719 184.042 254.458 183.442 254.458 182.695C254.458 181.957 254.719 181.379 255.242 180.959C255.764 180.539 256.509 180.301 257.477 180.244L259.866 180.098V179.345C259.866 178.833 259.707 178.442 259.39 178.17C259.072 177.899 258.606 177.763 257.992 177.763C257.495 177.763 257.083 177.853 256.755 178.032C256.427 178.211 256.217 178.465 256.125 178.792H254.788C254.876 178.132 255.216 177.599 255.81 177.195C256.409 176.79 257.152 176.588 258.038 176.588C259.042 176.588 259.817 176.831 260.365 177.318C260.913 177.804 261.187 178.48 261.187 179.345V185.015H259.927V183.793H259.805C259.538 184.234 259.185 184.572 258.744 184.807C258.304 185.043 257.807 185.16 257.254 185.16ZM268.201 173.922H271.673V174.967H269.491V185.821H271.765V186.858H268.201V173.922ZM281.267 185.015L280.153 181.842H275.744L274.63 185.015H273.178L277.265 173.93H278.632L282.719 185.015H281.267ZM277.887 175.72L276.151 180.667H279.746L278.01 175.72H277.887ZM284.493 185.015V176.734H285.753V178.04H285.876C286.065 177.579 286.36 177.223 286.759 176.972C287.159 176.716 287.635 176.588 288.188 176.588C288.731 176.588 289.197 176.718 289.586 176.98C289.981 177.241 290.278 177.594 290.477 178.04H290.6C290.825 177.594 291.163 177.241 291.614 176.98C292.065 176.718 292.572 176.588 293.135 176.588C293.98 176.588 294.63 176.823 295.086 177.294C295.542 177.761 295.77 178.426 295.77 179.292V185.015H294.449V179.599C294.449 178.385 293.867 177.778 292.705 177.778C292.142 177.778 291.681 177.963 291.322 178.332C290.964 178.7 290.785 179.153 290.785 179.691V185.015H289.463V179.392C289.463 178.9 289.305 178.508 288.987 178.216C288.675 177.924 288.257 177.778 287.735 177.778C287.197 177.778 286.741 177.983 286.368 178.393C285.999 178.803 285.815 179.299 285.815 179.883V185.015H284.493ZM301.485 177.755C300.824 177.755 300.282 177.978 299.857 178.424C299.431 178.869 299.193 179.458 299.142 180.19H303.705C303.69 179.458 303.48 178.869 303.075 178.424C302.671 177.978 302.141 177.755 301.485 177.755ZM303.667 182.871H304.988C304.788 183.588 304.381 184.149 303.766 184.554C303.157 184.958 302.402 185.16 301.5 185.16C300.353 185.16 299.444 184.776 298.773 184.008C298.103 183.235 297.767 182.193 297.767 180.882C297.767 179.576 298.105 178.534 298.781 177.755C299.457 176.977 300.364 176.588 301.5 176.588C302.617 176.588 303.495 176.959 304.135 177.702C304.775 178.444 305.095 179.461 305.095 180.751V181.258H299.142V181.32C299.178 182.139 299.408 182.789 299.833 183.271C300.264 183.752 300.83 183.993 301.531 183.993C302.601 183.993 303.313 183.619 303.667 182.871ZM307.169 185.015V176.734H308.429V177.963H308.552C308.675 177.558 308.952 177.228 309.382 176.972C309.812 176.716 310.301 176.588 310.849 176.588C311.1 176.588 311.32 176.601 311.51 176.626V177.947C311.33 177.896 311.049 177.871 310.665 177.871C310.035 177.871 309.515 178.06 309.105 178.439C308.695 178.818 308.491 179.299 308.491 179.883V185.015H307.169ZM313.238 185.015V176.734H314.559V185.015H313.238ZM314.551 174.783C314.372 174.962 314.155 175.051 313.899 175.051C313.642 175.051 313.425 174.962 313.246 174.783C313.066 174.598 312.977 174.381 312.977 174.13C312.977 173.879 313.066 173.664 313.246 173.484C313.425 173.3 313.642 173.208 313.899 173.208C314.155 173.208 314.372 173.3 314.551 173.484C314.731 173.664 314.82 173.879 314.82 174.13C314.82 174.381 314.731 174.598 314.551 174.783ZM323.931 179.269H322.594C322.481 178.833 322.238 178.477 321.864 178.201C321.496 177.919 321.027 177.778 320.459 177.778C319.716 177.778 319.125 178.055 318.684 178.608C318.249 179.161 318.031 179.906 318.031 180.843C318.031 181.796 318.251 182.556 318.692 183.125C319.132 183.688 319.721 183.97 320.459 183.97C321.017 183.97 321.48 183.844 321.849 183.593C322.223 183.342 322.471 182.984 322.594 182.518H323.931C323.808 183.302 323.442 183.939 322.832 184.431C322.223 184.917 321.434 185.16 320.466 185.16C319.304 185.16 318.379 184.771 317.693 183.993C317.007 183.209 316.664 182.16 316.664 180.843C316.664 179.553 317.007 178.521 317.693 177.748C318.379 176.974 319.301 176.588 320.459 176.588C321.426 176.588 322.215 176.841 322.825 177.348C323.439 177.855 323.808 178.495 323.931 179.269ZM328.432 184.001C329.113 184.001 329.677 183.803 330.122 183.409C330.573 183.015 330.798 182.521 330.798 181.927V181.166L328.57 181.312C327.946 181.353 327.487 181.484 327.195 181.704C326.903 181.924 326.758 182.244 326.758 182.664C326.758 183.079 326.914 183.407 327.226 183.647C327.539 183.883 327.941 184.001 328.432 184.001ZM328.186 185.16C327.372 185.16 326.701 184.938 326.174 184.492C325.651 184.042 325.39 183.442 325.39 182.695C325.39 181.957 325.651 181.379 326.174 180.959C326.696 180.539 327.441 180.301 328.409 180.244L330.798 180.098V179.345C330.798 178.833 330.639 178.442 330.322 178.17C330.004 177.899 329.538 177.763 328.924 177.763C328.427 177.763 328.015 177.853 327.687 178.032C327.359 178.211 327.149 178.465 327.057 178.792H325.721C325.808 178.132 326.148 177.599 326.742 177.195C327.341 176.79 328.084 176.588 328.97 176.588C329.974 176.588 330.749 176.831 331.297 177.318C331.845 177.804 332.119 178.48 332.119 179.345V185.015H330.86V183.793H330.737C330.47 184.234 330.117 184.572 329.677 184.807C329.236 185.043 328.739 185.16 328.186 185.16ZM334.562 185.015V176.734H335.822V178.04H335.945C336.155 177.579 336.49 177.223 336.951 176.972C337.412 176.716 337.957 176.588 338.587 176.588C339.514 176.588 340.229 176.854 340.73 177.387C341.232 177.914 341.483 178.67 341.483 179.653V185.015H340.162V179.975C340.162 179.233 340.001 178.682 339.678 178.324C339.361 177.96 338.871 177.778 338.211 177.778C337.484 177.778 336.913 177.986 336.498 178.401C336.088 178.815 335.883 179.386 335.883 180.114V185.015H334.562ZM355.379 183.77V185.015H348.512V173.93H355.379V175.174H349.895V178.731H355.095V179.96H349.895V183.77H355.379ZM360.649 181.888H360.526L358.559 185.015H357.062L359.896 180.874L357.031 176.734H358.606L360.572 179.814H360.695L362.638 176.734H364.136L361.325 180.82L364.175 185.015H362.608L360.649 181.888ZM370.013 176.588C371.068 176.588 371.91 176.977 372.54 177.755C373.175 178.534 373.493 179.573 373.493 180.874C373.493 182.17 373.175 183.209 372.54 183.993C371.905 184.771 371.063 185.16 370.013 185.16C369.424 185.16 368.901 185.04 368.446 184.799C367.99 184.554 367.649 184.211 367.424 183.77H367.301V187.78H365.98V176.734H367.24V178.116H367.363C367.629 177.64 367.995 177.266 368.461 176.995C368.932 176.723 369.449 176.588 370.013 176.588ZM369.698 183.97C370.456 183.97 371.05 183.696 371.48 183.148C371.91 182.6 372.125 181.842 372.125 180.874C372.125 179.906 371.91 179.148 371.48 178.6C371.055 178.052 370.463 177.778 369.705 177.778C368.958 177.778 368.364 178.058 367.923 178.616C367.483 179.169 367.263 179.922 367.263 180.874C367.263 181.822 367.48 182.574 367.916 183.133C368.356 183.691 368.95 183.97 369.698 183.97ZM375.567 185.015V176.734H376.826V177.963H376.949C377.072 177.558 377.349 177.228 377.779 176.972C378.209 176.716 378.698 176.588 379.246 176.588C379.497 176.588 379.717 176.601 379.907 176.626V177.947C379.727 177.896 379.446 177.871 379.062 177.871C378.432 177.871 377.912 178.06 377.502 178.439C377.093 178.818 376.888 179.299 376.888 179.883V185.015H375.567ZM384.631 177.755C383.97 177.755 383.427 177.978 383.002 178.424C382.577 178.869 382.339 179.458 382.288 180.19H386.851C386.836 179.458 386.626 178.869 386.221 178.424C385.816 177.978 385.286 177.755 384.631 177.755ZM386.812 182.871H388.134C387.934 183.588 387.527 184.149 386.912 184.554C386.303 184.958 385.548 185.16 384.646 185.16C383.499 185.16 382.59 184.776 381.919 184.008C381.248 183.235 380.913 182.193 380.913 180.882C380.913 179.576 381.251 178.534 381.927 177.755C382.603 176.977 383.509 176.588 384.646 176.588C385.763 176.588 386.641 176.959 387.281 177.702C387.921 178.444 388.241 179.461 388.241 180.751V181.258H382.288V181.32C382.324 182.139 382.554 182.789 382.979 183.271C383.41 183.752 383.975 183.993 384.677 183.993C385.747 183.993 386.459 183.619 386.812 182.871ZM390.123 179C390.123 178.314 390.418 177.74 391.007 177.279C391.596 176.818 392.33 176.588 393.211 176.588C394.077 176.588 394.791 176.788 395.354 177.187C395.918 177.586 396.243 178.127 396.33 178.808H395.024C394.932 178.47 394.727 178.203 394.41 178.009C394.097 177.809 393.695 177.709 393.204 177.709C392.707 177.709 392.289 177.825 391.951 178.055C391.619 178.285 391.452 178.582 391.452 178.946C391.452 179.228 391.567 179.463 391.798 179.653C392.033 179.837 392.397 179.988 392.889 180.106L394.164 180.413C394.952 180.603 395.534 180.877 395.908 181.235C396.286 181.594 396.476 182.067 396.476 182.656C396.476 183.389 396.161 183.99 395.531 184.461C394.901 184.927 394.11 185.16 393.157 185.16C392.236 185.16 391.48 184.956 390.891 184.546C390.302 184.136 389.972 183.588 389.9 182.902H391.26C391.373 183.261 391.596 183.542 391.928 183.747C392.261 183.947 392.686 184.047 393.204 184.047C393.762 184.047 394.22 183.926 394.579 183.686C394.937 183.445 395.116 183.135 395.116 182.756C395.116 182.193 394.678 181.804 393.803 181.589L392.382 181.243C391.598 181.053 391.025 180.782 390.661 180.429C390.302 180.07 390.123 179.594 390.123 179ZM398.204 179C398.204 178.314 398.499 177.74 399.088 177.279C399.677 176.818 400.411 176.588 401.292 176.588C402.158 176.588 402.872 176.788 403.435 177.187C403.999 177.586 404.324 178.127 404.411 178.808H403.105C403.013 178.47 402.808 178.203 402.491 178.009C402.178 177.809 401.776 177.709 401.285 177.709C400.788 177.709 400.371 177.825 400.033 178.055C399.7 178.285 399.533 178.582 399.533 178.946C399.533 179.228 399.648 179.463 399.879 179.653C400.114 179.837 400.478 179.988 400.97 180.106L402.245 180.413C403.033 180.603 403.615 180.877 403.989 181.235C404.368 181.594 404.557 182.067 404.557 182.656C404.557 183.389 404.242 183.99 403.612 184.461C402.982 184.927 402.191 185.16 401.239 185.16C400.317 185.16 399.561 184.956 398.972 184.546C398.384 184.136 398.053 183.588 397.982 182.902H399.341C399.454 183.261 399.677 183.542 400.009 183.747C400.342 183.947 400.767 184.047 401.285 184.047C401.843 184.047 402.301 183.926 402.66 183.686C403.018 183.445 403.197 183.135 403.197 182.756C403.197 182.193 402.759 181.804 401.884 181.589L400.463 181.243C399.679 181.053 399.106 180.782 398.742 180.429C398.384 180.07 398.204 179.594 398.204 179ZM409.827 173.922V186.858H406.262V185.821H408.544V174.967H406.362V173.922H409.827ZM420.197 177.755C419.536 177.755 418.993 177.978 418.568 178.424C418.143 178.869 417.905 179.458 417.854 180.19H422.417C422.401 179.458 422.191 178.869 421.787 178.424C421.382 177.978 420.852 177.755 420.197 177.755ZM422.378 182.871H423.7C423.5 183.588 423.093 184.149 422.478 184.554C421.869 184.958 421.113 185.16 420.212 185.16C419.065 185.16 418.156 184.776 417.485 184.008C416.814 183.235 416.479 182.193 416.479 180.882C416.479 179.576 416.817 178.534 417.493 177.755C418.169 176.977 419.075 176.588 420.212 176.588C421.329 176.588 422.207 176.959 422.847 177.702C423.487 178.444 423.807 179.461 423.807 180.751V181.258H417.854V181.32C417.89 182.139 418.12 182.789 418.545 183.271C418.975 183.752 419.541 183.993 420.243 183.993C421.313 183.993 422.025 183.619 422.378 182.871ZM425.881 185.015V176.734H427.141V178.04H427.264C427.474 177.579 427.809 177.223 428.27 176.972C428.731 176.716 429.276 176.588 429.906 176.588C430.833 176.588 431.548 176.854 432.05 177.387C432.551 177.914 432.802 178.67 432.802 179.653V185.015H431.481V179.975C431.481 179.233 431.32 178.682 430.997 178.324C430.68 177.96 430.191 177.778 429.53 177.778C428.803 177.778 428.232 177.986 427.817 178.401C427.407 178.815 427.202 179.386 427.202 180.114V185.015H425.881ZM438.287 185.16C437.227 185.16 436.382 184.771 435.752 183.993C435.122 183.214 434.807 182.175 434.807 180.874C434.807 179.578 435.122 178.541 435.752 177.763C436.387 176.98 437.232 176.588 438.287 176.588C438.866 176.588 439.383 176.718 439.839 176.98C440.3 177.236 440.648 177.589 440.883 178.04H440.999V173.446H442.32V185.015H441.06V183.693H440.937C440.676 184.154 440.312 184.515 439.846 184.776C439.38 185.032 438.861 185.16 438.287 185.16ZM438.594 177.778C437.841 177.778 437.25 178.055 436.82 178.608C436.39 179.156 436.175 179.911 436.175 180.874C436.175 181.842 436.387 182.6 436.812 183.148C437.242 183.696 437.836 183.97 438.594 183.97C439.347 183.97 439.941 183.693 440.376 183.14C440.812 182.587 441.029 181.832 441.029 180.874C441.029 179.927 440.809 179.174 440.369 178.616C439.933 178.058 439.342 177.778 438.594 177.778ZM444.916 185.015V176.734H446.237V185.015H444.916ZM446.23 174.783C446.051 174.962 445.833 175.051 445.577 175.051C445.321 175.051 445.103 174.962 444.924 174.783C444.745 174.598 444.655 174.381 444.655 174.13C444.655 173.879 444.745 173.664 444.924 173.484C445.103 173.3 445.321 173.208 445.577 173.208C445.833 173.208 446.051 173.3 446.23 173.484C446.409 173.664 446.499 173.879 446.499 174.13C446.499 174.381 446.409 174.598 446.23 174.783ZM448.757 185.015V176.734H450.017V178.04H450.14C450.35 177.579 450.685 177.223 451.146 176.972C451.607 176.716 452.152 176.588 452.782 176.588C453.709 176.588 454.424 176.854 454.925 177.387C455.427 177.914 455.678 178.67 455.678 179.653V185.015H454.357V179.975C454.357 179.233 454.196 178.682 453.873 178.324C453.555 177.96 453.066 177.778 452.406 177.778C451.679 177.778 451.108 177.986 450.693 178.401C450.283 178.815 450.078 179.386 450.078 180.114V185.015H448.757ZM463.905 180.751C463.905 179.845 463.685 179.123 463.245 178.585C462.804 178.047 462.205 177.778 461.447 177.778C460.689 177.778 460.1 178.045 459.68 178.577C459.26 179.11 459.05 179.835 459.05 180.751C459.05 181.668 459.26 182.393 459.68 182.925C460.1 183.458 460.689 183.724 461.447 183.724C462.21 183.724 462.809 183.458 463.245 182.925C463.685 182.387 463.905 181.663 463.905 180.751ZM461.509 188.195C460.52 188.195 459.719 187.99 459.104 187.58C458.495 187.171 458.139 186.62 458.036 185.929H459.434C459.506 186.272 459.724 186.543 460.087 186.743C460.451 186.943 460.925 187.042 461.509 187.042C462.251 187.042 462.83 186.868 463.245 186.52C463.664 186.177 463.874 185.701 463.874 185.091V183.463H463.752C463.49 183.919 463.134 184.272 462.684 184.523C462.233 184.769 461.724 184.892 461.155 184.892C460.09 184.892 459.245 184.515 458.62 183.762C457.995 183.005 457.683 182.001 457.683 180.751C457.683 179.502 457.998 178.495 458.628 177.732C459.258 176.969 460.1 176.588 461.155 176.588C461.734 176.588 462.261 176.721 462.738 176.987C463.214 177.248 463.572 177.602 463.813 178.047H463.936V176.734H465.196V185.16C465.196 186.087 464.863 186.825 464.197 187.373C463.531 187.921 462.635 188.195 461.509 188.195ZM128.326 208.015V199.734H129.647V208.015H128.326ZM129.639 197.783C129.46 197.962 129.243 198.051 128.987 198.051C128.73 198.051 128.513 197.962 128.334 197.783C128.154 197.598 128.065 197.381 128.065 197.13C128.065 196.879 128.154 196.664 128.334 196.484C128.513 196.3 128.73 196.208 128.987 196.208C129.243 196.208 129.46 196.3 129.639 196.484C129.819 196.664 129.908 196.879 129.908 197.13C129.908 197.381 129.819 197.598 129.639 197.783ZM132.167 208.015V199.734H133.427V201.04H133.549C133.759 200.579 134.095 200.223 134.556 199.972C135.017 199.716 135.562 199.588 136.192 199.588C137.119 199.588 137.833 199.854 138.335 200.387C138.837 200.914 139.088 201.67 139.088 202.653V208.015H137.767V202.975C137.767 202.233 137.605 201.682 137.283 201.324C136.965 200.96 136.476 200.778 135.816 200.778C135.088 200.778 134.517 200.986 134.103 201.401C133.693 201.815 133.488 202.386 133.488 203.114V208.015H132.167ZM148.59 208.015V198.466H148.467L145.648 200.51V199.05L148.598 196.93H149.973V208.015H148.59ZM157.009 208.276C155.76 208.276 154.792 207.769 154.105 206.755C153.419 205.741 153.076 204.312 153.076 202.468C153.076 200.64 153.422 199.217 154.113 198.197C154.804 197.178 155.77 196.669 157.009 196.669C158.243 196.669 159.203 197.181 159.89 198.205C160.581 199.229 160.927 200.658 160.927 202.491C160.927 204.33 160.584 205.754 159.897 206.762C159.216 207.771 158.254 208.276 157.009 208.276ZM155.119 205.879C155.56 206.673 156.19 207.07 157.009 207.07C157.828 207.07 158.453 206.675 158.883 205.887C159.319 205.093 159.536 203.954 159.536 202.468C159.536 200.999 159.316 199.867 158.876 199.073C158.44 198.279 157.818 197.882 157.009 197.882C156.2 197.882 155.573 198.282 155.127 199.081C154.687 199.875 154.466 201.004 154.466 202.468C154.466 203.948 154.684 205.085 155.119 205.879ZM166.918 208.276C165.669 208.276 164.701 207.769 164.015 206.755C163.329 205.741 162.985 204.312 162.985 202.468C162.985 200.64 163.331 199.217 164.022 198.197C164.714 197.178 165.679 196.669 166.918 196.669C168.153 196.669 169.113 197.181 169.799 198.205C170.49 199.229 170.836 200.658 170.836 202.491C170.836 204.33 170.493 205.754 169.807 206.762C169.126 207.771 168.163 208.276 166.918 208.276ZM165.029 205.879C165.469 206.673 166.099 207.07 166.918 207.07C167.738 207.07 168.363 206.675 168.793 205.887C169.228 205.093 169.446 203.954 169.446 202.468C169.446 200.999 169.225 199.867 168.785 199.073C168.35 198.279 167.728 197.882 166.918 197.882C166.109 197.882 165.482 198.282 165.036 199.081C164.596 199.875 164.376 201.004 164.376 202.468C164.376 203.948 164.593 205.085 165.029 205.879ZM175.752 208.015V198.466H175.629L172.81 200.51V199.05L175.76 196.93H177.135V208.015H175.752ZM184.171 199.734H185.585L187.851 206.555H187.974L190.24 199.734H191.653L188.588 208.015H187.236L184.171 199.734ZM193.451 208.015V199.734H194.772V208.015H193.451ZM194.764 197.783C194.585 197.962 194.367 198.051 194.111 198.051C193.855 198.051 193.638 197.962 193.458 197.783C193.279 197.598 193.19 197.381 193.19 197.13C193.19 196.879 193.279 196.664 193.458 196.484C193.638 196.3 193.855 196.208 194.111 196.208C194.367 196.208 194.585 196.3 194.764 196.484C194.944 196.664 195.033 196.879 195.033 197.13C195.033 197.381 194.944 197.598 194.764 197.783ZM199.842 207.001C200.523 207.001 201.086 206.803 201.532 206.409C201.982 206.015 202.208 205.521 202.208 204.927V204.166L199.98 204.312C199.355 204.353 198.897 204.484 198.605 204.704C198.313 204.924 198.167 205.244 198.167 205.664C198.167 206.079 198.323 206.407 198.636 206.647C198.948 206.883 199.35 207.001 199.842 207.001ZM199.596 208.16C198.782 208.16 198.111 207.938 197.583 207.492C197.061 207.042 196.8 206.442 196.8 205.695C196.8 204.957 197.061 204.379 197.583 203.959C198.106 203.539 198.851 203.301 199.819 203.244L202.208 203.098V202.345C202.208 201.833 202.049 201.442 201.731 201.17C201.414 200.899 200.948 200.763 200.333 200.763C199.837 200.763 199.424 200.853 199.097 201.032C198.769 201.211 198.559 201.465 198.467 201.792H197.13C197.217 201.132 197.558 200.599 198.152 200.195C198.751 199.79 199.494 199.588 200.38 199.588C201.383 199.588 202.159 199.831 202.707 200.318C203.255 200.804 203.529 201.48 203.529 202.345V208.015H202.269V206.793H202.146C201.88 207.234 201.527 207.572 201.086 207.807C200.646 208.043 200.149 208.16 199.596 208.16ZM210.051 205.119H211.449C211.536 205.697 211.835 206.158 212.347 206.501C212.86 206.844 213.51 207.016 214.299 207.016C215.046 207.016 215.663 206.837 216.15 206.478C216.642 206.115 216.887 205.659 216.887 205.111C216.887 204.64 216.708 204.251 216.35 203.943C215.991 203.631 215.43 203.377 214.667 203.183L213.246 202.814C212.243 202.563 211.513 202.2 211.057 201.723C210.601 201.247 210.373 200.615 210.373 199.826C210.373 198.884 210.732 198.123 211.449 197.544C212.171 196.961 213.118 196.669 214.291 196.669C215.361 196.669 216.257 196.956 216.98 197.529C217.702 198.103 218.091 198.838 218.147 199.734H216.757C216.659 199.165 216.388 198.722 215.942 198.405C215.502 198.082 214.936 197.921 214.245 197.921C213.507 197.921 212.913 198.092 212.463 198.436C212.017 198.774 211.794 199.222 211.794 199.78C211.794 200.215 211.958 200.568 212.286 200.84C212.619 201.111 213.167 201.344 213.93 201.539L215.09 201.846C216.237 202.133 217.059 202.517 217.556 202.998C218.058 203.48 218.308 204.128 218.308 204.942C218.308 205.961 217.935 206.773 217.187 207.377C216.439 207.976 215.433 208.276 214.168 208.276C212.995 208.276 212.033 207.989 211.28 207.415C210.532 206.842 210.122 206.076 210.051 205.119ZM223.747 200.755C223.086 200.755 222.544 200.978 222.119 201.424C221.693 201.869 221.455 202.458 221.404 203.19H225.967C225.952 202.458 225.742 201.869 225.337 201.424C224.933 200.978 224.403 200.755 223.747 200.755ZM225.929 205.871H227.25C227.05 206.588 226.643 207.149 226.028 207.554C225.419 207.958 224.664 208.16 223.762 208.16C222.615 208.16 221.706 207.776 221.035 207.008C220.365 206.235 220.029 205.193 220.029 203.882C220.029 202.576 220.367 201.534 221.043 200.755C221.719 199.977 222.626 199.588 223.762 199.588C224.879 199.588 225.757 199.959 226.397 200.702C227.037 201.444 227.357 202.461 227.357 203.751V204.258H221.404V204.32C221.44 205.139 221.67 205.789 222.095 206.271C222.526 206.752 223.092 206.993 223.793 206.993C224.863 206.993 225.575 206.619 225.929 205.871ZM229.508 208.015V196.446H230.829V208.015H229.508ZM233.472 208.015V196.446H234.793V208.015H233.472ZM240.293 204.888H240.17L238.204 208.015H236.706L239.54 203.874L236.675 199.734H238.25L240.216 202.814H240.339L242.283 199.734H243.781L240.969 203.82L243.819 208.015H242.252L240.293 204.888ZM245.793 196.93H249.596C251.24 196.93 252.522 197.419 253.444 198.397C254.366 199.37 254.827 200.727 254.827 202.468C254.827 204.215 254.366 205.577 253.444 206.555C252.527 207.528 251.245 208.015 249.596 208.015H245.793V196.93ZM247.176 198.174V206.77H249.503C250.738 206.77 251.698 206.394 252.384 205.641C253.07 204.888 253.413 203.836 253.413 202.484C253.413 201.127 253.068 200.069 252.376 199.311C251.69 198.553 250.733 198.174 249.503 198.174H247.176ZM261.663 196.93H265.85C266.9 196.93 267.752 197.265 268.408 197.936C269.069 198.602 269.399 199.462 269.399 200.517C269.399 201.552 269.063 202.402 268.393 203.068C267.727 203.728 266.874 204.058 265.835 204.058H263.046V208.015H261.663V196.93ZM263.046 198.159V202.829H265.489C266.278 202.829 266.89 202.627 267.325 202.223C267.76 201.818 267.978 201.25 267.978 200.517C267.978 199.754 267.763 199.17 267.333 198.766C266.907 198.361 266.293 198.159 265.489 198.159H263.046ZM273.739 207.001C274.42 207.001 274.983 206.803 275.429 206.409C275.88 206.015 276.105 205.521 276.105 204.927V204.166L273.877 204.312C273.253 204.353 272.794 204.484 272.502 204.704C272.21 204.924 272.064 205.244 272.064 205.664C272.064 206.079 272.221 206.407 272.533 206.647C272.845 206.883 273.247 207.001 273.739 207.001ZM273.493 208.16C272.679 208.16 272.008 207.938 271.481 207.492C270.958 207.042 270.697 206.442 270.697 205.695C270.697 204.957 270.958 204.379 271.481 203.959C272.003 203.539 272.748 203.301 273.716 203.244L276.105 203.098V202.345C276.105 201.833 275.946 201.442 275.629 201.17C275.311 200.899 274.845 200.763 274.231 200.763C273.734 200.763 273.322 200.853 272.994 201.032C272.666 201.211 272.456 201.465 272.364 201.792H271.027C271.114 201.132 271.455 200.599 272.049 200.195C272.648 199.79 273.391 199.588 274.277 199.588C275.28 199.588 276.056 199.831 276.604 200.318C277.152 200.804 277.426 201.48 277.426 202.345V208.015H276.166V206.793H276.043C275.777 207.234 275.424 207.572 274.983 207.807C274.543 208.043 274.046 208.16 273.493 208.16ZM280.268 211.018C280.058 211.018 279.861 211.003 279.677 210.972V209.843C279.81 209.868 279.994 209.881 280.23 209.881C280.609 209.881 280.914 209.776 281.144 209.566C281.375 209.361 281.577 209.011 281.751 208.514L281.905 208.022L278.84 199.734H280.268L282.542 206.547H282.665L284.931 199.734H286.337L283.103 208.522C282.75 209.479 282.371 210.135 281.966 210.488C281.567 210.841 281.001 211.018 280.268 211.018ZM288.042 208.091C287.771 208.091 287.535 207.994 287.335 207.799C287.141 207.6 287.044 207.364 287.044 207.093C287.044 206.816 287.141 206.581 287.335 206.386C287.535 206.191 287.771 206.094 288.042 206.094C288.319 206.094 288.554 206.191 288.749 206.386C288.943 206.581 289.041 206.816 289.041 207.093C289.041 207.364 288.943 207.6 288.749 207.799C288.554 207.994 288.319 208.091 288.042 208.091Z" fill="#0E0E1E"/>
<path d="M129.354 268.221H128.255V258.78H129.622L132.854 266.592H132.959L136.191 258.78H137.558V268.221H136.459V261.011H136.38L133.403 268.155H132.409L129.432 261.011H129.354V268.221ZM141.994 267.357C142.574 267.357 143.054 267.189 143.433 266.853C143.817 266.517 144.009 266.097 144.009 265.591V264.943L142.111 265.067C141.579 265.102 141.189 265.213 140.94 265.401C140.692 265.588 140.567 265.861 140.567 266.219C140.567 266.572 140.7 266.851 140.967 267.056C141.233 267.257 141.575 267.357 141.994 267.357ZM141.784 268.345C141.091 268.345 140.519 268.155 140.07 267.776C139.625 267.392 139.403 266.882 139.403 266.245C139.403 265.617 139.625 265.124 140.07 264.766C140.515 264.409 141.15 264.206 141.974 264.158L144.009 264.034V263.392C144.009 262.956 143.874 262.623 143.603 262.391C143.333 262.16 142.936 262.045 142.412 262.045C141.989 262.045 141.638 262.121 141.359 262.274C141.08 262.426 140.901 262.642 140.823 262.921H139.684C139.758 262.359 140.048 261.905 140.554 261.56C141.065 261.216 141.697 261.044 142.452 261.044C143.307 261.044 143.967 261.251 144.434 261.665C144.901 262.08 145.134 262.655 145.134 263.392V268.221H144.061V267.18H143.956C143.73 267.556 143.429 267.843 143.054 268.044C142.678 268.245 142.255 268.345 141.784 268.345ZM147.555 270.779C147.376 270.779 147.208 270.766 147.051 270.74V269.778C147.164 269.8 147.321 269.811 147.522 269.811C147.845 269.811 148.104 269.721 148.301 269.542C148.497 269.368 148.669 269.069 148.817 268.646L148.948 268.227L146.338 261.168H147.555L149.491 266.971H149.596L151.526 261.168H152.723L149.969 268.653C149.668 269.468 149.345 270.026 149.001 270.327C148.66 270.628 148.179 270.779 147.555 270.779ZM160.26 268.221V260.088H160.156L157.754 261.829V260.586L160.267 258.78H161.438V268.221H160.26ZM164.199 261.436C164.199 260.599 164.482 259.91 165.049 259.369C165.621 258.828 166.345 258.558 167.221 258.558C168.068 258.558 168.776 258.813 169.348 259.323C169.923 259.829 170.211 260.457 170.211 261.207C170.211 261.7 170.072 262.184 169.793 262.66C169.513 263.135 168.988 263.787 168.216 264.616L165.946 267.056V267.161H170.368V268.221H164.258V267.409L167.522 263.844C168.129 263.185 168.532 262.684 168.733 262.339C168.933 261.994 169.034 261.632 169.034 261.253C169.034 260.782 168.855 260.387 168.497 260.069C168.144 259.746 167.708 259.585 167.189 259.585C166.635 259.585 166.188 259.755 165.847 260.095C165.507 260.435 165.337 260.882 165.337 261.436V261.443H164.199V261.436ZM173.005 270.622H172.024L172.652 266.899H173.973L173.005 270.622ZM180.188 261.436C180.188 260.599 180.472 259.91 181.039 259.369C181.61 258.828 182.334 258.558 183.211 258.558C184.057 258.558 184.766 258.813 185.337 259.323C185.913 259.829 186.201 260.457 186.201 261.207C186.201 261.7 186.061 262.184 185.782 262.66C185.503 263.135 184.978 263.787 184.206 264.616L181.935 267.056V267.161H186.358V268.221H180.247V267.409L183.512 263.844C184.118 263.185 184.522 262.684 184.722 262.339C184.923 261.994 185.023 261.632 185.023 261.253C185.023 260.782 184.845 260.387 184.487 260.069C184.134 259.746 183.697 259.585 183.178 259.585C182.624 259.585 182.177 259.755 181.837 260.095C181.497 260.435 181.327 260.882 181.327 261.436V261.443H180.188V261.436ZM191.52 268.443C190.456 268.443 189.631 268.011 189.047 267.148C188.462 266.284 188.17 265.067 188.17 263.497C188.17 261.94 188.465 260.727 189.053 259.859C189.642 258.992 190.464 258.558 191.52 258.558C192.571 258.558 193.389 258.994 193.973 259.866C194.562 260.738 194.857 261.955 194.857 263.517C194.857 265.083 194.564 266.295 193.98 267.154C193.4 268.014 192.58 268.443 191.52 268.443ZM189.911 266.402C190.286 267.078 190.822 267.416 191.52 267.416C192.218 267.416 192.75 267.08 193.116 266.408C193.487 265.732 193.672 264.762 193.672 263.497C193.672 262.245 193.485 261.281 193.11 260.605C192.739 259.929 192.209 259.591 191.52 259.591C190.831 259.591 190.297 259.931 189.917 260.612C189.542 261.288 189.354 262.25 189.354 263.497C189.354 264.758 189.54 265.726 189.911 266.402ZM196.728 261.436C196.728 260.599 197.011 259.91 197.578 259.369C198.15 258.828 198.874 258.558 199.75 258.558C200.597 258.558 201.305 258.813 201.877 259.323C202.452 259.829 202.74 260.457 202.74 261.207C202.74 261.7 202.601 262.184 202.322 262.66C202.042 263.135 201.517 263.787 200.745 264.616L198.475 267.056V267.161H202.897V268.221H196.787V267.409L200.051 263.844C200.658 263.185 201.061 262.684 201.262 262.339C201.462 261.994 201.563 261.632 201.563 261.253C201.563 260.782 201.384 260.387 201.026 260.069C200.673 259.746 200.237 259.585 199.718 259.585C199.164 259.585 198.717 259.755 198.376 260.095C198.036 260.435 197.866 260.882 197.866 261.436V261.443H196.728V261.436ZM206.816 263.87V262.862H207.961C208.498 262.862 208.936 262.705 209.276 262.391C209.621 262.077 209.793 261.676 209.793 261.188C209.793 260.708 209.627 260.322 209.296 260.03C208.964 259.733 208.526 259.585 207.981 259.585C207.436 259.585 206.995 259.729 206.659 260.016C206.323 260.3 206.131 260.695 206.083 261.201H204.939C205 260.381 205.305 259.735 205.854 259.264C206.404 258.793 207.128 258.558 208.027 258.558C208.567 258.558 209.065 258.669 209.518 258.891C209.976 259.109 210.336 259.408 210.598 259.787C210.859 260.167 210.99 260.581 210.99 261.031C210.99 261.593 210.844 262.069 210.552 262.457C210.26 262.845 209.854 263.102 209.335 263.229V263.334C209.976 263.416 210.48 263.667 210.846 264.086C211.213 264.5 211.396 265.03 211.396 265.676C211.396 266.452 211.075 267.108 210.434 267.645C209.793 268.177 209.006 268.443 208.072 268.443C207.113 268.443 206.33 268.199 205.724 267.71C205.117 267.218 204.792 266.568 204.749 265.761H205.887C205.94 266.262 206.162 266.664 206.555 266.965C206.947 267.266 207.449 267.416 208.059 267.416C208.679 267.416 209.187 267.25 209.584 266.919C209.985 266.587 210.186 266.162 210.186 265.643C210.186 265.098 209.991 264.666 209.603 264.348C209.215 264.029 208.685 263.87 208.013 263.87H206.816ZM213.542 270.622H212.56L213.189 266.899H214.51L213.542 270.622ZM223.041 268.221V260.088H222.937L220.536 261.829V260.586L223.048 258.78H224.219V268.221H223.041ZM229.296 268.221V260.088H229.191L226.79 261.829V260.586L229.303 258.78H230.474V268.221H229.296ZM233.64 266.991C233.466 266.816 233.379 266.594 233.379 266.323C233.379 266.053 233.466 265.831 233.64 265.656C233.815 265.482 234.037 265.394 234.308 265.394C234.574 265.394 234.792 265.482 234.962 265.656C235.136 265.831 235.223 266.053 235.223 266.323C235.223 266.594 235.136 266.816 234.962 266.991C234.792 267.165 234.574 267.252 234.308 267.252C234.037 267.252 233.815 267.165 233.64 266.991ZM233.64 261.907C233.466 261.733 233.379 261.51 233.379 261.24C233.379 260.969 233.466 260.747 233.64 260.573C233.815 260.394 234.037 260.304 234.308 260.304C234.574 260.304 234.792 260.394 234.962 260.573C235.136 260.747 235.223 260.969 235.223 261.24C235.223 261.51 235.136 261.733 234.962 261.907C234.792 262.082 234.574 262.169 234.308 262.169C234.037 262.169 233.815 262.082 233.64 261.907ZM239.345 263.87V262.862H240.49C241.027 262.862 241.465 262.705 241.805 262.391C242.15 262.077 242.322 261.676 242.322 261.188C242.322 260.708 242.156 260.322 241.825 260.03C241.493 259.733 241.055 259.585 240.51 259.585C239.965 259.585 239.524 259.729 239.188 260.016C238.852 260.3 238.66 260.695 238.612 261.201H237.468C237.529 260.381 237.834 259.735 238.383 259.264C238.933 258.793 239.657 258.558 240.556 258.558C241.096 258.558 241.594 258.669 242.047 258.891C242.505 259.109 242.865 259.408 243.127 259.787C243.388 260.167 243.519 260.581 243.519 261.031C243.519 261.593 243.373 262.069 243.081 262.457C242.789 262.845 242.383 263.102 241.864 263.229V263.334C242.505 263.416 243.009 263.667 243.375 264.086C243.742 264.5 243.925 265.03 243.925 265.676C243.925 266.452 243.604 267.108 242.963 267.645C242.322 268.177 241.535 268.443 240.601 268.443C239.642 268.443 238.859 268.199 238.253 267.71C237.646 267.218 237.321 266.568 237.278 265.761H238.416C238.469 266.262 238.691 266.664 239.084 266.965C239.476 267.266 239.978 267.416 240.588 267.416C241.208 267.416 241.716 267.25 242.113 266.919C242.514 266.587 242.715 266.162 242.715 265.643C242.715 265.098 242.52 264.666 242.132 264.348C241.744 264.029 241.214 263.87 240.542 263.87H239.345ZM248.93 268.443C248.036 268.443 247.296 268.192 246.712 267.691C246.128 267.185 245.809 266.524 245.757 265.708H246.915C246.967 266.219 247.179 266.631 247.549 266.945C247.925 267.255 248.389 267.409 248.943 267.409C249.575 267.409 250.084 267.211 250.467 266.814C250.856 266.417 251.05 265.896 251.05 265.25C251.05 264.605 250.856 264.082 250.467 263.68C250.084 263.275 249.582 263.072 248.963 263.072C248.535 263.072 248.151 263.166 247.811 263.353C247.471 263.536 247.205 263.796 247.013 264.132H245.907L246.424 258.78H251.691V259.833H247.347L247.078 262.862H247.183C247.641 262.326 248.306 262.058 249.179 262.058C250.077 262.058 250.81 262.352 251.377 262.941C251.944 263.53 252.227 264.289 252.227 265.218C252.227 266.177 251.922 266.956 251.311 267.553C250.701 268.147 249.907 268.443 248.93 268.443ZM258.044 258.78H261.609C262.503 258.78 263.23 259.066 263.788 259.637C264.35 260.204 264.632 260.937 264.632 261.835C264.632 262.716 264.346 263.44 263.775 264.007C263.208 264.57 262.481 264.851 261.596 264.851H259.221V268.221H258.044V258.78ZM259.221 259.827V263.805H261.302C261.973 263.805 262.495 263.632 262.865 263.288C263.236 262.943 263.421 262.459 263.421 261.835C263.421 261.185 263.238 260.688 262.872 260.344C262.51 259.999 261.986 259.827 261.302 259.827H259.221ZM267.661 268.221H266.562V258.78H267.929L271.161 266.592H271.266L274.498 258.78H275.865V268.221H274.766V261.011H274.687L271.711 268.155H270.716L267.739 261.011H267.661V268.221Z" fill="#71737C"/>
</g>
<path d="M88.8903 74.4084H93.8504C95.0795 74.4084 96.0832 74.7947 96.8616 75.5673C97.64 76.3398 98.0292 77.3406 98.0292 78.5697C98.0292 79.8046 97.6341 80.8113 96.844 81.5897C96.0539 82.3622 95.0356 82.7485 93.7889 82.7485H90.8568V87.0765H88.8903V74.4084ZM90.8568 76.0677V81.098H93.3324C94.1869 81.098 94.8483 80.8786 95.3165 80.4396C95.7847 79.9948 96.0188 79.3744 96.0188 78.5785C96.0188 77.7767 95.7847 77.1592 95.3165 76.7261C94.8483 76.2872 94.1869 76.0677 93.3324 76.0677H90.8568ZM102.138 85.6543C102.846 85.6543 103.437 85.4524 103.911 85.0486C104.385 84.6389 104.622 84.1209 104.622 83.4947V82.7485L102.305 82.9065C100.988 82.9885 100.329 83.4567 100.329 84.3112C100.329 84.7208 100.493 85.0486 100.821 85.2944C101.149 85.5344 101.588 85.6543 102.138 85.6543ZM101.629 87.1731C100.675 87.1731 99.8991 86.9156 99.3022 86.4006C98.7052 85.8797 98.4067 85.1949 98.4067 84.3463C98.4067 83.5152 98.7169 82.8626 99.3373 82.3886C99.9635 81.9145 100.868 81.6394 102.05 81.5633L104.622 81.4141V80.6767C104.622 80.1324 104.447 79.7168 104.095 79.43C103.75 79.1374 103.259 78.9911 102.621 78.9911C102.106 78.9911 101.67 79.114 101.313 79.3598C100.961 79.6056 100.745 79.9363 100.663 80.3518H98.8808C98.91 79.509 99.2817 78.8097 99.9957 78.2536C100.71 77.6976 101.602 77.4196 102.673 77.4196C103.838 77.4196 104.766 77.7035 105.456 78.2712C106.153 78.8389 106.501 79.5939 106.501 80.5362V87.0765H104.684V85.4875H104.64C104.376 86.0026 103.973 86.4123 103.428 86.7166C102.884 87.0209 102.284 87.1731 101.629 87.1731ZM109.372 90.5442C109.056 90.5442 108.798 90.5267 108.599 90.4916V88.9465C108.716 88.9757 108.918 88.9904 109.205 88.9904C109.661 88.9904 110.021 88.8821 110.285 88.6655C110.554 88.4548 110.77 88.0978 110.934 87.5945L111.084 87.1029L107.625 77.5425H109.67L112.119 85.3383H112.163L114.613 77.5425H116.614L113.041 87.5155C112.632 88.6568 112.16 89.4469 111.628 89.8858C111.101 90.3248 110.349 90.5442 109.372 90.5442ZM117.773 87.0765V77.5425H119.59V79.1579H119.626C119.842 78.6253 120.19 78.2068 120.67 77.9025C121.156 77.5923 121.712 77.4372 122.338 77.4372C123 77.4372 123.561 77.5981 124.024 77.92C124.486 78.2419 124.814 78.6985 125.007 79.2896H125.051C125.303 78.716 125.692 78.2654 126.219 77.9376C126.751 77.604 127.357 77.4372 128.036 77.4372C128.978 77.4372 129.73 77.724 130.292 78.2975C130.86 78.8653 131.144 79.6261 131.144 80.5801V87.0765H129.247V81.0366C129.247 80.4104 129.083 79.9275 128.756 79.5881C128.434 79.2427 127.977 79.0701 127.386 79.0701C126.801 79.0701 126.321 79.2662 125.946 79.6583C125.578 80.0504 125.393 80.5508 125.393 81.1595V87.0765H123.523V80.8786C123.523 80.3284 123.357 79.8895 123.023 79.5617C122.695 79.234 122.253 79.0701 121.697 79.0701C121.112 79.0701 120.629 79.2749 120.249 79.6846C119.868 80.0885 119.678 80.6035 119.678 81.2297V87.0765H117.773ZM137.017 78.9735C136.332 78.9735 135.761 79.2018 135.305 79.6583C134.854 80.1148 134.602 80.7088 134.55 81.4404H139.387C139.364 80.6971 139.135 80.1002 138.702 79.6495C138.269 79.1989 137.707 78.9735 137.017 78.9735ZM139.378 84.2848H141.196C141.061 85.1393 140.613 85.8387 139.852 86.383C139.091 86.9214 138.176 87.1907 137.105 87.1907C135.723 87.1907 134.629 86.7576 133.821 85.8914C133.019 85.0193 132.618 83.8371 132.618 82.3447C132.618 80.8522 133.019 79.6583 133.821 78.7628C134.623 77.8674 135.691 77.4196 137.025 77.4196C138.336 77.4196 139.375 77.844 140.142 78.6926C140.909 79.5354 141.292 80.6796 141.292 82.1252V82.7924H134.541V82.9065C134.541 83.7317 134.778 84.396 135.252 84.8993C135.726 85.3968 136.355 85.6456 137.14 85.6456C137.696 85.6456 138.176 85.5227 138.579 85.2768C138.983 85.031 139.25 84.7004 139.378 84.2848ZM142.828 87.0765V77.5425H144.646V79.1491H144.681C145.272 78.0078 146.305 77.4372 147.78 77.4372C148.833 77.4372 149.661 77.7532 150.264 78.3853C150.873 79.0116 151.177 79.8719 151.177 80.9664V87.0765H149.272V81.3263C149.272 80.6006 149.088 80.0446 148.719 79.6583C148.35 79.2662 147.818 79.0701 147.121 79.0701C146.401 79.0701 145.822 79.3013 145.383 79.7636C144.95 80.2201 144.733 80.823 144.733 81.5721V87.0765H142.828ZM153.653 75.4005H155.549V77.5425H157.375V79.0438H155.549V84.3726C155.549 84.7881 155.643 85.0954 155.83 85.2944C156.023 85.4875 156.319 85.5841 156.717 85.5841C156.945 85.5841 157.162 85.5695 157.366 85.5402V87.0414C157.109 87.1058 156.752 87.138 156.295 87.138C155.341 87.138 154.662 86.9419 154.259 86.5498C153.855 86.1518 153.653 85.4905 153.653 84.5657V79.0438H152.336V77.5425H153.653V75.4005ZM173.757 87.0765H171.79V81.4668H165.285V87.0765H163.319V74.4084H165.285V79.7636H171.79V74.4084H173.757V87.0765ZM175.96 87.0765V77.5425H177.865V87.0765H175.96ZM177.707 75.8658C177.491 76.0765 177.227 76.1818 176.917 76.1818C176.607 76.1818 176.344 76.0765 176.127 75.8658C175.911 75.6492 175.802 75.3888 175.802 75.0844C175.802 74.7742 175.911 74.5138 176.127 74.3031C176.344 74.0924 176.607 73.9871 176.917 73.9871C177.227 73.9871 177.491 74.0924 177.707 74.3031C177.924 74.5138 178.032 74.7742 178.032 75.0844C178.032 75.3888 177.924 75.6492 177.707 75.8658ZM179.735 80.2553C179.735 79.4183 180.078 78.7394 180.762 78.2185C181.447 77.6918 182.337 77.4284 183.431 77.4284C184.473 77.4284 185.333 77.6947 186.012 78.2273C186.697 78.7541 187.051 79.433 187.075 80.264H185.284C185.243 79.8426 185.052 79.509 184.713 79.2632C184.374 79.0174 183.932 78.8945 183.387 78.8945C182.849 78.8945 182.413 79.0116 182.079 79.2457C181.752 79.4739 181.588 79.7753 181.588 80.1499C181.588 80.7235 182.082 81.1302 183.071 81.3702L184.652 81.7477C185.611 81.9818 186.29 82.292 186.688 82.6783C187.086 83.0645 187.285 83.6088 187.285 84.3112C187.285 85.1598 186.919 85.8533 186.188 86.3918C185.456 86.9244 184.514 87.1907 183.361 87.1907C182.255 87.1907 181.348 86.9302 180.64 86.4093C179.937 85.8826 179.551 85.1861 179.481 84.3199H181.359C181.435 84.7764 181.652 85.1276 182.009 85.3734C182.372 85.6134 182.855 85.7334 183.458 85.7334C184.049 85.7334 184.517 85.6192 184.862 85.391C185.213 85.1627 185.389 84.8555 185.389 84.4692C185.389 84.1648 185.284 83.9249 185.073 83.7493C184.868 83.5737 184.514 83.4215 184.011 83.2928L182.308 82.8714C180.593 82.45 179.735 81.578 179.735 80.2553ZM189.401 75.4005H191.297V77.5425H193.123V79.0438H191.297V84.3726C191.297 84.7881 191.391 85.0954 191.578 85.2944C191.771 85.4875 192.067 85.5841 192.465 85.5841C192.693 85.5841 192.91 85.5695 193.114 85.5402V87.0414C192.857 87.1058 192.5 87.138 192.043 87.138C191.089 87.138 190.411 86.9419 190.007 86.5498C189.603 86.1518 189.401 85.4905 189.401 84.5657V79.0438H188.084V77.5425H189.401V75.4005ZM201.867 85.8738C201.059 86.7517 199.965 87.1907 198.584 87.1907C197.203 87.1907 196.105 86.7517 195.292 85.8738C194.478 84.9959 194.071 83.8078 194.071 82.3095C194.071 80.8171 194.478 79.629 195.292 78.7453C196.111 77.8615 197.208 77.4196 198.584 77.4196C199.959 77.4196 201.054 77.8615 201.867 78.7453C202.681 79.6232 203.087 80.8113 203.087 82.3095C203.087 83.8078 202.681 84.9959 201.867 85.8738ZM196.688 84.7413C197.144 85.3207 197.776 85.6104 198.584 85.6104C199.391 85.6104 200.021 85.3207 200.471 84.7413C200.928 84.1619 201.156 83.3513 201.156 82.3095C201.156 81.2678 200.928 80.4572 200.471 79.8778C200.021 79.2925 199.391 78.9999 198.584 78.9999C197.776 78.9999 197.144 79.2925 196.688 79.8778C196.231 80.463 196.003 81.2736 196.003 82.3095C196.003 83.3455 196.231 84.1561 196.688 84.7413ZM204.615 87.0765V77.5425H206.432V79.1491H206.467C206.614 78.6165 206.892 78.201 207.301 77.9025C207.717 77.5981 208.206 77.446 208.767 77.446C209.031 77.446 209.242 77.4694 209.4 77.5162V79.2983C209.189 79.2164 208.911 79.1754 208.566 79.1754C207.939 79.1754 207.442 79.3774 207.073 79.7812C206.704 80.1792 206.52 80.7147 206.52 81.3877V87.0765H204.615ZM211.612 90.5442C211.296 90.5442 211.038 90.5267 210.839 90.4916V88.9465C210.956 88.9757 211.158 88.9904 211.445 88.9904C211.902 88.9904 212.261 88.8821 212.525 88.6655C212.794 88.4548 213.011 88.0978 213.174 87.5945L213.324 87.1029L209.865 77.5425H211.91L214.36 85.3383H214.404L216.853 77.5425H218.855L215.281 87.5155C214.872 88.6568 214.401 89.4469 213.868 89.8858C213.341 90.3248 212.589 90.5442 211.612 90.5442Z" fill="#0E0E1E"/>
<rect x="63" y="226.097" width="453.979" height="42.701" fill="url(#paint0_linear_1511_24150)"/>
</g>
<rect x="63.472" y="51.5691" width="453.035" height="217.056" rx="11.528" stroke="#D6DAE1" stroke-width="0.943948"/>
</g>
<defs>
<filter id="filter0_dddd_1511_24150" x="58.5052" y="45.4786" width="518.032" height="266.32" filterUnits="userSpaceOnUse" color-interpolation-filters="sRGB">
<feFlood flood-opacity="0" result="BackgroundImageFix"/>
<feColorMatrix in="SourceAlpha" type="matrix" values="0 0 0 0 0 0 0 0 0 0 0 0 0 0 0 0 0 0 127 0" result="hardAlpha"/>
<feOffset dx="2.24742" dy="1.12371"/>
<feGaussianBlur stdDeviation="3.37113"/>
<feColorMatrix type="matrix" values="0 0 0 0 0.85098 0 0 0 0 0.85098 0 0 0 0 0.85098 0 0 0 0.1 0"/>
<feBlend mode="normal" in2="BackgroundImageFix" result="effect1_dropShadow_1511_24150"/>
<feColorMatrix in="SourceAlpha" type="matrix" values="0 0 0 0 0 0 0 0 0 0 0 0 0 0 0 0 0 0 127 0" result="hardAlpha"/>
<feOffset dx="10.1134" dy="5.61856"/>
<feGaussianBlur stdDeviation="5.61856"/>
<feColorMatrix type="matrix" values="0 0 0 0 0.85098 0 0 0 0 0.85098 0 0 0 0 0.85098 0 0 0 0.09 0"/>
<feBlend mode="normal" in2="effect1_dropShadow_1511_24150" result="effect2_dropShadow_1511_24150"/>
<feColorMatrix in="SourceAlpha" type="matrix" values="0 0 0 0 0 0 0 0 0 0 0 0 0 0 0 0 0 0 127 0" result="hardAlpha"/>
<feOffset dx="22.4742" dy="13.4845"/>
<feGaussianBlur stdDeviation="7.86598"/>
<feColorMatrix type="matrix" values="0 0 0 0 0.85098 0 0 0 0 0.85098 0 0 0 0 0.85098 0 0 0 0.05 0"/>
<feBlend mode="normal" in2="effect2_dropShadow_1511_24150" result="effect3_dropShadow_1511_24150"/>
<feColorMatrix in="SourceAlpha" type="matrix" values="0 0 0 0 0 0 0 0 0 0 0 0 0 0 0 0 0 0 127 0" result="hardAlpha"/>
<feOffset dx="40.4536" dy="23.5979"/>
<feGaussianBlur stdDeviation="9.55155"/>
<feColorMatrix type="matrix" values="0 0 0 0 0.85098 0 0 0 0 0.85098 0 0 0 0 0.85098 0 0 0 0.01 0"/>
<feBlend mode="normal" in2="effect3_dropShadow_1511_24150" result="effect4_dropShadow_1511_24150"/>
<feBlend mode="normal" in="SourceGraphic" in2="effect4_dropShadow_1511_24150" result="shape"/>
</filter>
<linearGradient id="paint0_linear_1511_24150" x1="316.892" y1="210.084" x2="316.892" y2="268.798" gradientUnits="userSpaceOnUse">
<stop stop-color="white" stop-opacity="0"/>
<stop offset="1" stop-color="white"/>
</linearGradient>
<clipPath id="clip0_1511_24150">
<rect x="63" y="51.0972" width="453.979" height="218" rx="12" fill="white"/>
</clipPath>
<clipPath id="clip1_1511_24150">
<rect width="393.299" height="353.969" fill="white" transform="translate(87.7227 105.035)"/>
</clipPath>
</defs>
</svg>
