<svg width="580" height="321" viewBox="0 0 580 321" fill="none" xmlns="http://www.w3.org/2000/svg">
<g filter="url(#filter0_dddd_1511_24157)">
<rect x="71" y="56.0972" width="437.169" height="207.01" rx="12" fill="white"/>
<rect x="71.4769" y="56.5741" width="436.215" height="206.056" rx="11.5231" stroke="#D6DAE1" stroke-width="0.953845"/>
<path d="M93.9831 89.265H90.2535V78.2589H94.0584C95.1511 78.2589 96.0898 78.4793 96.8744 78.92C97.6626 79.357 98.268 79.9858 98.6908 80.8063C99.1136 81.6267 99.3249 82.6084 99.3249 83.7512C99.3249 84.8977 99.1118 85.8829 98.6854 86.707C98.2627 87.531 97.6518 88.1633 96.8529 88.604C96.0575 89.0447 95.1009 89.265 93.9831 89.265ZM92.2473 87.5399H93.8864C94.6531 87.5399 95.2926 87.4002 95.8049 87.1208C96.3173 86.8377 96.7024 86.4168 96.9604 85.8579C97.2183 85.2954 97.3473 84.5932 97.3473 83.7512C97.3473 82.9093 97.2183 82.2107 96.9604 81.6554C96.7024 81.0964 96.3208 80.6791 95.8157 80.4032C95.3141 80.1237 94.6907 79.984 93.9455 79.984H92.2473V87.5399ZM101.133 89.265V81.0105H103.079V89.265H101.133ZM102.111 79.8389C101.803 79.8389 101.538 79.7368 101.316 79.5326C101.094 79.3248 100.983 79.0758 100.983 78.7856C100.983 78.4918 101.094 78.2428 101.316 78.0386C101.538 77.8308 101.803 77.7269 102.111 77.7269C102.423 77.7269 102.688 77.8308 102.907 78.0386C103.129 78.2428 103.24 78.4918 103.24 78.7856C103.24 79.0758 103.129 79.3248 102.907 79.5326C102.688 79.7368 102.423 79.8389 102.111 79.8389ZM108.669 92.5324C107.97 92.5324 107.37 92.4375 106.869 92.2476C106.367 92.0613 105.964 91.8105 105.66 91.4952C105.355 91.18 105.144 90.8307 105.025 90.4473L106.777 90.0228C106.856 90.184 106.971 90.3434 107.121 90.501C107.272 90.6623 107.474 90.7948 107.729 90.8987C107.987 91.0062 108.311 91.0599 108.701 91.0599C109.253 91.0599 109.71 90.9256 110.072 90.6569C110.434 90.3918 110.614 89.9547 110.614 89.3456V87.7818H110.518C110.417 87.9824 110.271 88.1884 110.077 88.3998C109.887 88.6112 109.635 88.7885 109.319 88.9318C109.008 89.0751 108.615 89.1468 108.142 89.1468C107.508 89.1468 106.933 88.9981 106.417 88.7007C105.905 88.3998 105.497 87.952 105.192 87.3572C104.891 86.7589 104.741 86.0101 104.741 85.1109C104.741 84.2044 104.891 83.4395 105.192 82.8161C105.497 82.1892 105.907 81.7145 106.423 81.392C106.939 81.066 107.514 80.903 108.148 80.903C108.631 80.903 109.029 80.9854 109.341 81.1502C109.656 81.3114 109.907 81.5067 110.093 81.736C110.279 81.9617 110.421 82.1748 110.518 82.3755H110.625V81.0105H112.544V89.3994C112.544 90.1052 112.375 90.6891 112.039 91.1513C111.702 91.6135 111.241 91.9592 110.657 92.1885C110.073 92.4178 109.411 92.5324 108.669 92.5324ZM108.685 87.6206C109.097 87.6206 109.448 87.5202 109.739 87.3196C110.029 87.119 110.249 86.8306 110.4 86.4544C110.55 86.0782 110.625 85.6268 110.625 85.1001C110.625 84.5806 110.55 84.1256 110.4 83.7351C110.253 83.3446 110.034 83.0419 109.744 82.8269C109.457 82.6084 109.104 82.4991 108.685 82.4991C108.252 82.4991 107.89 82.6119 107.6 82.8376C107.309 83.0634 107.091 83.3733 106.944 83.7674C106.797 84.1579 106.724 84.6021 106.724 85.1001C106.724 85.6053 106.797 86.0477 106.944 86.4275C107.094 86.8037 107.315 87.0975 107.605 87.3089C107.899 87.5167 108.259 87.6206 108.685 87.6206ZM114.538 89.265V81.0105H116.483V89.265H114.538ZM115.516 79.8389C115.208 79.8389 114.942 79.7368 114.72 79.5326C114.498 79.3248 114.387 79.0758 114.387 78.7856C114.387 78.4918 114.498 78.2428 114.72 78.0386C114.942 77.8308 115.208 77.7269 115.516 77.7269C115.827 77.7269 116.092 77.8308 116.311 78.0386C116.533 78.2428 116.644 78.4918 116.644 78.7856C116.644 79.0758 116.533 79.3248 116.311 79.5326C116.092 79.7368 115.827 79.8389 115.516 79.8389ZM122.605 81.0105V82.5152H117.86V81.0105H122.605ZM119.032 79.0328H120.977V86.7822C120.977 87.0437 121.016 87.2444 121.095 87.3841C121.178 87.5202 121.285 87.6134 121.418 87.6635C121.55 87.7137 121.697 87.7388 121.858 87.7388C121.98 87.7388 122.091 87.7298 122.192 87.7119C122.295 87.694 122.374 87.6779 122.428 87.6635L122.756 89.1844C122.652 89.2202 122.503 89.2596 122.31 89.3026C122.12 89.3456 121.887 89.3707 121.611 89.3779C121.124 89.3922 120.685 89.3188 120.294 89.1575C119.904 88.9927 119.594 88.7384 119.365 88.3944C119.139 88.0505 119.028 87.6206 119.032 87.1046V79.0328ZM126.608 89.4316C126.085 89.4316 125.613 89.3385 125.194 89.1522C124.779 88.9623 124.449 88.6828 124.205 88.3138C123.965 87.9448 123.845 87.4898 123.845 86.9488C123.845 86.483 123.931 86.0979 124.103 85.7934C124.275 85.4888 124.51 85.2452 124.807 85.0625C125.105 84.8798 125.44 84.7419 125.812 84.6487C126.188 84.552 126.577 84.4821 126.978 84.4391C127.462 84.389 127.854 84.3442 128.155 84.3048C128.456 84.2618 128.675 84.1973 128.811 84.1113C128.951 84.0217 129.021 83.8838 129.021 83.6975V83.6652C129.021 83.2604 128.901 82.9469 128.661 82.7248C128.421 82.5027 128.075 82.3916 127.623 82.3916C127.147 82.3916 126.769 82.4955 126.489 82.7033C126.214 82.9111 126.027 83.1565 125.931 83.4395L124.114 83.1816C124.257 82.68 124.494 82.2608 124.823 81.9241C125.153 81.5837 125.556 81.3293 126.033 81.1609C126.509 80.989 127.036 80.903 127.613 80.903C128.01 80.903 128.406 80.9496 128.8 81.0427C129.194 81.1359 129.554 81.2899 129.88 81.5049C130.206 81.7163 130.468 82.0047 130.665 82.3701C130.866 82.7355 130.966 83.1923 130.966 83.7405V89.265H129.096V88.1311H129.031C128.913 88.3604 128.747 88.5753 128.532 88.776C128.32 88.973 128.053 89.1325 127.731 89.2543C127.412 89.3725 127.038 89.4316 126.608 89.4316ZM127.113 88.0021C127.503 88.0021 127.842 87.9251 128.129 87.771C128.415 87.6134 128.635 87.4056 128.79 87.1476C128.947 86.8897 129.026 86.6084 129.026 86.3039V85.3312C128.965 85.3814 128.861 85.4279 128.714 85.4709C128.571 85.5139 128.41 85.5515 128.231 85.5838C128.052 85.616 127.874 85.6447 127.699 85.6698C127.523 85.6949 127.371 85.7163 127.242 85.7343C126.952 85.7737 126.692 85.8382 126.463 85.9277C126.233 86.0173 126.052 86.1427 125.92 86.3039C125.787 86.4615 125.721 86.6658 125.721 86.9166C125.721 87.2748 125.852 87.5453 126.113 87.728C126.375 87.9108 126.708 88.0021 127.113 88.0021ZM134.868 78.2589V89.265H132.922V78.2589H134.868ZM150.542 83.762C150.542 84.9479 150.32 85.9636 149.876 86.8091C149.435 87.651 148.833 88.2959 148.07 88.7437C147.311 89.1916 146.449 89.4155 145.485 89.4155C144.522 89.4155 143.658 89.1916 142.895 88.7437C142.136 88.2923 141.534 87.6456 141.089 86.8037C140.649 85.9582 140.428 84.9443 140.428 83.762C140.428 82.5761 140.649 81.5622 141.089 80.7203C141.534 79.8747 142.136 79.2281 142.895 78.7802C143.658 78.3324 144.522 78.1085 145.485 78.1085C146.449 78.1085 147.311 78.3324 148.07 78.7802C148.833 79.2281 149.435 79.8747 149.876 80.7203C150.32 81.5622 150.542 82.5761 150.542 83.762ZM148.538 83.762C148.538 82.9272 148.407 82.2232 148.146 81.65C147.888 81.0732 147.529 80.6379 147.071 80.3441C146.612 80.0467 146.084 79.898 145.485 79.898C144.887 79.898 144.359 80.0467 143.9 80.3441C143.441 80.6379 143.081 81.0732 142.82 81.65C142.562 82.2232 142.433 82.9272 142.433 83.762C142.433 84.5968 142.562 85.3025 142.82 85.8794C143.081 86.4526 143.441 86.8879 143.9 87.1853C144.359 87.479 144.887 87.6259 145.485 87.6259C146.084 87.6259 146.612 87.479 147.071 87.1853C147.529 86.8879 147.888 86.4526 148.146 85.8794C148.407 85.3025 148.538 84.5968 148.538 83.762ZM152.341 89.265V81.0105H154.228V82.3862H154.314C154.464 81.9097 154.722 81.5425 155.087 81.2845C155.456 81.023 155.877 80.8922 156.35 80.8922C156.458 80.8922 156.578 80.8976 156.71 80.9084C156.847 80.9155 156.959 80.9281 157.049 80.946V82.7355C156.967 82.7069 156.836 82.6818 156.657 82.6603C156.481 82.6352 156.311 82.6227 156.146 82.6227C155.791 82.6227 155.473 82.6997 155.19 82.8538C154.91 83.0042 154.69 83.2138 154.529 83.4825C154.367 83.7512 154.287 84.0611 154.287 84.4122V89.265H152.341ZM161.065 89.4101C160.416 89.4101 159.836 89.2435 159.324 88.9103C158.811 88.5771 158.406 88.0935 158.109 87.4593C157.812 86.8252 157.663 86.0549 157.663 85.1485C157.663 84.2313 157.813 83.4575 158.114 82.8269C158.419 82.1928 158.829 81.7145 159.345 81.392C159.861 81.066 160.436 80.903 161.07 80.903C161.554 80.903 161.951 80.9854 162.263 81.1502C162.575 81.3114 162.822 81.5067 163.005 81.736C163.188 81.9617 163.329 82.1748 163.429 82.3755H163.51V78.2589H165.461V89.265H163.548V87.9645H163.429C163.329 88.1651 163.184 88.3783 162.994 88.604C162.804 88.8261 162.553 89.016 162.242 89.1737C161.93 89.3313 161.538 89.4101 161.065 89.4101ZM161.608 87.814C162.02 87.814 162.371 87.703 162.661 87.4808C162.951 87.2551 163.171 86.9416 163.322 86.5404C163.472 86.1391 163.548 85.6716 163.548 85.1377C163.548 84.6039 163.472 84.14 163.322 83.7459C163.175 83.3518 162.956 83.0454 162.666 82.8269C162.38 82.6084 162.027 82.4991 161.608 82.4991C161.174 82.4991 160.812 82.6119 160.522 82.8376C160.232 83.0634 160.013 83.375 159.866 83.7727C159.719 84.1704 159.646 84.6254 159.646 85.1377C159.646 85.6536 159.719 86.114 159.866 86.5189C160.017 86.9201 160.237 87.2372 160.527 87.4701C160.821 87.6994 161.181 87.814 161.608 87.814ZM171.188 89.4262C170.361 89.4262 169.646 89.2543 169.044 88.9103C168.446 88.5628 167.985 88.072 167.663 87.4378C167.34 86.8001 167.179 86.0495 167.179 85.1861C167.179 84.337 167.34 83.5918 167.663 82.9505C167.989 82.3056 168.444 81.804 169.028 81.4458C169.612 81.0839 170.298 80.903 171.086 80.903C171.595 80.903 172.075 80.9854 172.526 81.1502C172.981 81.3114 173.383 81.5622 173.73 81.9026C174.081 82.2429 174.357 82.6764 174.558 83.2031C174.758 83.7262 174.859 84.3495 174.859 85.0733V85.6698H168.093V84.3585H172.994C172.99 83.9859 172.91 83.6545 172.752 83.3643C172.594 83.0705 172.374 82.8394 172.091 82.671C171.812 82.5027 171.486 82.4185 171.113 82.4185C170.715 82.4185 170.366 82.5152 170.065 82.7087C169.764 82.8985 169.529 83.1493 169.361 83.461C169.196 83.7691 169.112 84.1077 169.108 84.4767V85.6214C169.108 86.1015 169.196 86.5135 169.372 86.8574C169.547 87.1978 169.793 87.4593 170.108 87.642C170.423 87.8212 170.792 87.9108 171.215 87.9108C171.498 87.9108 171.754 87.8713 171.984 87.7925C172.213 87.7101 172.412 87.5901 172.58 87.4325C172.748 87.2748 172.876 87.0796 172.962 86.8467L174.778 87.0509C174.663 87.531 174.445 87.9502 174.122 88.3084C173.804 88.6631 173.395 88.939 172.897 89.136C172.399 89.3295 171.829 89.4262 171.188 89.4262ZM176.504 89.265V81.0105H178.391V82.3862H178.477C178.627 81.9097 178.885 81.5425 179.251 81.2845C179.62 81.023 180.041 80.8922 180.513 80.8922C180.621 80.8922 180.741 80.8976 180.874 80.9084C181.01 80.9155 181.123 80.9281 181.212 80.946V82.7355C181.13 82.7069 180.999 82.6818 180.82 82.6603C180.644 82.6352 180.474 82.6227 180.309 82.6227C179.955 82.6227 179.636 82.6997 179.353 82.8538C179.073 83.0042 178.853 83.2138 178.692 83.4825C178.53 83.7512 178.45 84.0611 178.45 84.4122V89.265H176.504ZM186.344 89.265V78.2589H190.472C191.317 78.2589 192.027 78.4058 192.6 78.6996C193.177 78.9934 193.612 79.4054 193.906 79.9357C194.203 80.4623 194.352 81.0767 194.352 81.779C194.352 82.4847 194.201 83.0974 193.9 83.6169C193.603 84.1328 193.164 84.5323 192.584 84.8153C192.003 85.0947 191.29 85.2345 190.445 85.2345H187.505V83.5793H190.176C190.67 83.5793 191.075 83.5112 191.391 83.375C191.706 83.2353 191.939 83.0329 192.089 82.7678C192.243 82.4991 192.32 82.1695 192.32 81.779C192.32 81.3884 192.243 81.0552 192.089 80.7794C191.935 80.4999 191.7 80.2885 191.385 80.1452C191.07 79.9984 190.663 79.9249 190.165 79.9249H188.338V89.265H186.344ZM192.03 84.2779L194.755 89.265H192.53L189.854 84.2779H192.03ZM196.101 89.265V81.0105H198.046V89.265H196.101ZM197.079 79.8389C196.771 79.8389 196.506 79.7368 196.284 79.5326C196.062 79.3248 195.95 79.0758 195.95 78.7856C195.95 78.4918 196.062 78.2428 196.284 78.0386C196.506 77.8308 196.771 77.7269 197.079 77.7269C197.391 77.7269 197.656 77.8308 197.874 78.0386C198.096 78.2428 198.208 78.4918 198.208 78.7856C198.208 79.0758 198.096 79.3248 197.874 79.5326C197.656 79.7368 197.391 79.8389 197.079 79.8389ZM206.571 83.1923L204.797 83.3858C204.747 83.2067 204.66 83.0383 204.534 82.8806C204.412 82.723 204.248 82.5958 204.04 82.4991C203.832 82.4023 203.578 82.354 203.277 82.354C202.872 82.354 202.531 82.4418 202.256 82.6173C201.983 82.7929 201.849 83.0204 201.853 83.2998C201.849 83.5399 201.937 83.7351 202.116 83.8856C202.299 84.0361 202.6 84.1597 203.019 84.2564L204.427 84.5573C205.208 84.7257 205.788 84.9926 206.168 85.3581C206.551 85.7235 206.745 86.2018 206.748 86.7929C206.745 87.3124 206.592 87.771 206.291 88.1687C205.994 88.5628 205.58 88.8709 205.05 89.093C204.52 89.3152 203.911 89.4262 203.223 89.4262C202.213 89.4262 201.399 89.2149 200.783 88.7921C200.167 88.3658 199.8 87.7728 199.681 87.0133L201.578 86.8306C201.664 87.2032 201.847 87.4844 202.127 87.6743C202.406 87.8642 202.77 87.9591 203.218 87.9591C203.68 87.9591 204.051 87.8642 204.33 87.6743C204.613 87.4844 204.755 87.2497 204.755 86.9703C204.755 86.7338 204.663 86.5386 204.48 86.3845C204.301 86.2305 204.022 86.1122 203.642 86.0298L202.234 85.7343C201.442 85.5695 200.857 85.2918 200.477 84.9013C200.097 84.5072 199.909 84.0092 199.912 83.4073C199.909 82.8985 200.047 82.4579 200.326 82.0853C200.609 81.7091 201.002 81.4189 201.503 81.2147C202.008 81.0069 202.591 80.903 203.25 80.903C204.217 80.903 204.978 81.109 205.534 81.521C206.093 81.933 206.438 82.4901 206.571 83.1923ZM210.126 86.6747L210.12 84.3263H210.432L213.399 81.0105H215.672L212.023 85.0733H211.62L210.126 86.6747ZM208.352 89.265V78.2589H210.298V89.265H208.352ZM213.533 89.265L210.846 85.5085L212.157 84.1382L215.86 89.265H213.533ZM226.789 81.2845C226.739 80.8152 226.528 80.4498 226.155 80.1882C225.786 79.9267 225.306 79.7959 224.715 79.7959C224.299 79.7959 223.943 79.8586 223.646 79.984C223.348 80.1094 223.121 80.2796 222.963 80.4946C222.806 80.7095 222.725 80.9549 222.721 81.2308C222.721 81.4601 222.773 81.6589 222.877 81.8273C222.985 81.9957 223.13 82.139 223.312 82.2572C223.495 82.3719 223.698 82.4686 223.92 82.5474C224.142 82.6263 224.366 82.6925 224.591 82.7463L225.623 83.0042C226.039 83.101 226.438 83.2317 226.822 83.3965C227.209 83.5614 227.554 83.7691 227.859 84.0199C228.167 84.2707 228.411 84.5735 228.59 84.9282C228.769 85.2828 228.858 85.6984 228.858 86.1749C228.858 86.8198 228.694 87.3877 228.364 87.8785C228.034 88.3658 227.558 88.7473 226.935 89.0232C226.315 89.2955 225.564 89.4316 224.683 89.4316C223.827 89.4316 223.083 89.2991 222.453 89.0339C221.826 88.7688 221.335 88.3819 220.98 87.8731C220.629 87.3644 220.439 86.7446 220.41 86.0137H222.372C222.401 86.3971 222.519 86.7159 222.727 86.9703C222.934 87.2247 223.205 87.4145 223.538 87.5399C223.875 87.6653 224.251 87.728 224.667 87.728C225.1 87.728 225.48 87.6635 225.806 87.5346C226.136 87.402 226.394 87.2193 226.58 86.9864C226.766 86.75 226.861 86.4741 226.865 86.1588C226.861 85.8722 226.777 85.6357 226.612 85.4494C226.447 85.2596 226.216 85.1019 225.919 84.9765C225.625 84.8475 225.281 84.7329 224.887 84.6326L223.635 84.3101C222.728 84.0773 222.012 83.7244 221.485 83.2514C220.962 82.7749 220.701 82.1426 220.701 81.3544C220.701 80.7059 220.876 80.1381 221.227 79.6508C221.582 79.1636 222.064 78.7856 222.673 78.5169C223.282 78.2446 223.972 78.1085 224.742 78.1085C225.523 78.1085 226.207 78.2446 226.795 78.5169C227.386 78.7856 227.85 79.16 228.187 79.6401C228.524 80.1166 228.697 80.6647 228.708 81.2845H226.789ZM234.672 81.0105V82.5152H229.927V81.0105H234.672ZM231.098 79.0328H233.044V86.7822C233.044 87.0437 233.083 87.2444 233.162 87.3841C233.244 87.5202 233.352 87.6134 233.484 87.6635C233.617 87.7137 233.764 87.7388 233.925 87.7388C234.047 87.7388 234.158 87.7298 234.258 87.7119C234.362 87.694 234.441 87.6779 234.495 87.6635L234.822 89.1844C234.718 89.2202 234.57 89.2596 234.376 89.3026C234.186 89.3456 233.954 89.3707 233.678 89.3779C233.19 89.3922 232.752 89.3188 232.361 89.1575C231.971 88.9927 231.661 88.7384 231.431 88.3944C231.206 88.0505 231.095 87.6206 231.098 87.1046V79.0328ZM238.674 89.4316C238.151 89.4316 237.68 89.3385 237.261 89.1522C236.845 88.9623 236.516 88.6828 236.272 88.3138C236.032 87.9448 235.912 87.4898 235.912 86.9488C235.912 86.483 235.998 86.0979 236.17 85.7934C236.342 85.4888 236.577 85.2452 236.874 85.0625C237.171 84.8798 237.506 84.7419 237.879 84.6487C238.255 84.552 238.644 84.4821 239.045 84.4391C239.529 84.389 239.921 84.3442 240.222 84.3048C240.523 84.2618 240.741 84.1973 240.878 84.1113C241.017 84.0217 241.087 83.8838 241.087 83.6975V83.6652C241.087 83.2604 240.967 82.9469 240.727 82.7248C240.487 82.5027 240.141 82.3916 239.69 82.3916C239.213 82.3916 238.835 82.4955 238.556 82.7033C238.28 82.9111 238.094 83.1565 237.997 83.4395L236.181 83.1816C236.324 82.68 236.56 82.2608 236.89 81.9241C237.22 81.5837 237.623 81.3293 238.099 81.1609C238.576 80.989 239.102 80.903 239.679 80.903C240.077 80.903 240.473 80.9496 240.867 81.0427C241.261 81.1359 241.621 81.2899 241.947 81.5049C242.273 81.7163 242.535 82.0047 242.732 82.3701C242.932 82.7355 243.033 83.1923 243.033 83.7405V89.265H241.162V88.1311H241.098C240.98 88.3604 240.813 88.5753 240.598 88.776C240.387 88.973 240.12 89.1325 239.797 89.2543C239.479 89.3725 239.104 89.4316 238.674 89.4316ZM239.179 88.0021C239.57 88.0021 239.908 87.9251 240.195 87.771C240.482 87.6134 240.702 87.4056 240.856 87.1476C241.014 86.8897 241.093 86.6084 241.093 86.3039V85.3312C241.032 85.3814 240.928 85.4279 240.781 85.4709C240.638 85.5139 240.476 85.5515 240.297 85.5838C240.118 85.616 239.941 85.6447 239.765 85.6698C239.59 85.6949 239.437 85.7163 239.308 85.7343C239.018 85.7737 238.758 85.8382 238.529 85.9277C238.3 86.0173 238.119 86.1427 237.986 86.3039C237.854 86.4615 237.787 86.6658 237.787 86.9166C237.787 87.2748 237.918 87.5453 238.18 87.728C238.441 87.9108 238.775 88.0021 239.179 88.0021ZM249.111 81.0105V82.5152H244.365V81.0105H249.111ZM245.537 79.0328H247.482V86.7822C247.482 87.0437 247.522 87.2444 247.601 87.3841C247.683 87.5202 247.79 87.6134 247.923 87.6635C248.056 87.7137 248.202 87.7388 248.364 87.7388C248.485 87.7388 248.596 87.7298 248.697 87.7119C248.801 87.694 248.88 87.6779 248.933 87.6635L249.261 89.1844C249.157 89.2202 249.009 89.2596 248.815 89.3026C248.625 89.3456 248.392 89.3707 248.116 89.3779C247.629 89.3922 247.19 89.3188 246.8 89.1575C246.409 88.9927 246.099 88.7384 245.87 88.3944C245.644 88.0505 245.533 87.6206 245.537 87.1046V79.0328ZM255.999 85.7934V81.0105H257.944V89.265H256.058V87.7979H255.972C255.786 88.2601 255.479 88.638 255.053 88.9318C254.63 89.2256 254.109 89.3725 253.489 89.3725C252.948 89.3725 252.47 89.2525 252.054 89.0124C251.642 88.7688 251.32 88.4159 251.087 87.9537C250.854 87.488 250.738 86.9255 250.738 86.2663V81.0105H252.683V85.9653C252.683 86.4884 252.826 86.904 253.113 87.2121C253.4 87.5202 253.776 87.6743 254.241 87.6743C254.528 87.6743 254.806 87.6044 255.074 87.4647C255.343 87.325 255.564 87.1172 255.735 86.8413C255.911 86.5619 255.999 86.2126 255.999 85.7934ZM266.469 83.1923L264.695 83.3858C264.645 83.2067 264.557 83.0383 264.432 82.8806C264.31 82.723 264.145 82.5958 263.938 82.4991C263.73 82.4023 263.475 82.354 263.175 82.354C262.77 82.354 262.429 82.4418 262.153 82.6173C261.881 82.7929 261.747 83.0204 261.75 83.2998C261.747 83.5399 261.835 83.7351 262.014 83.8856C262.196 84.0361 262.497 84.1597 262.917 84.2564L264.325 84.5573C265.106 84.7257 265.686 84.9926 266.066 85.3581C266.449 85.7235 266.643 86.2018 266.646 86.7929C266.643 87.3124 266.49 87.771 266.189 88.1687C265.892 88.5628 265.478 88.8709 264.948 89.093C264.418 89.3152 263.809 89.4262 263.121 89.4262C262.11 89.4262 261.297 89.2149 260.681 88.7921C260.065 88.3658 259.697 87.7728 259.579 87.0133L261.476 86.8306C261.562 87.2032 261.745 87.4844 262.024 87.6743C262.304 87.8642 262.668 87.9591 263.115 87.9591C263.578 87.9591 263.948 87.8642 264.228 87.6743C264.511 87.4844 264.652 87.2497 264.652 86.9703C264.652 86.7338 264.561 86.5386 264.378 86.3845C264.199 86.2305 263.92 86.1122 263.54 86.0298L262.132 85.7343C261.34 85.5695 260.754 85.2918 260.375 84.9013C259.995 84.5072 259.807 84.0092 259.81 83.4073C259.807 82.8985 259.945 82.4579 260.224 82.0853C260.507 81.7091 260.899 81.4189 261.401 81.2147C261.906 81.0069 262.488 80.903 263.148 80.903C264.115 80.903 264.876 81.109 265.432 81.521C265.991 81.933 266.336 82.4901 266.469 83.1923Z" fill="#0E0E1E"/>
<rect x="89.168" y="107.398" width="391.631" height="11.3253" rx="5.66266" fill="#F0F0F3"/>
<rect x="220.09" y="107.398" width="130.923" height="11.3253" rx="5.66266" fill="#FFA820"/>
<path d="M91.224 141.29H90.0732V131.96H91.2047L96.3125 139.286H96.3707V131.96H97.5216V141.29H96.3901L91.2822 133.991H91.224V141.29ZM104.401 140.392C103.819 141.034 103.039 141.355 102.06 141.355C101.082 141.355 100.302 141.034 99.7199 140.392C99.138 139.749 98.8471 138.887 98.8471 137.805C98.8471 136.723 99.138 135.861 99.7199 135.219C100.302 134.577 101.082 134.256 102.06 134.256C103.039 134.256 103.819 134.577 104.401 135.219C104.983 135.861 105.274 136.723 105.274 137.805C105.274 138.887 104.983 139.749 104.401 140.392ZM102.06 140.353C102.711 140.353 103.218 140.129 103.58 139.68C103.946 139.228 104.13 138.603 104.13 137.805C104.13 137.004 103.946 136.379 103.58 135.93C103.218 135.482 102.711 135.258 102.06 135.258C101.41 135.258 100.901 135.484 100.535 135.937C100.173 136.385 99.9915 137.008 99.9915 137.805C99.9915 138.603 100.175 139.228 100.541 139.68C100.907 140.129 101.414 140.353 102.06 140.353ZM106.457 141.29V134.32H107.518V135.452H107.543C107.647 135.085 107.852 134.794 108.158 134.579C108.464 134.363 108.821 134.256 109.231 134.256C109.408 134.256 109.552 134.271 109.664 134.301V135.413C109.543 135.361 109.349 135.335 109.082 135.335C108.63 135.335 108.265 135.486 107.99 135.788C107.718 136.09 107.582 136.486 107.582 136.978V141.29H106.457ZM110.66 141.29V134.32H111.72V135.452H111.746C111.91 135.081 112.166 134.79 112.515 134.579C112.869 134.363 113.272 134.256 113.725 134.256C114.194 134.256 114.6 134.37 114.94 134.598C115.281 134.827 115.526 135.152 115.677 135.575H115.703C115.901 135.161 116.194 134.838 116.582 134.605C116.97 134.372 117.408 134.256 117.895 134.256C118.585 134.256 119.134 134.463 119.544 134.876C119.957 135.29 120.164 135.842 120.164 136.532V141.29H119.039V136.79C119.039 136.307 118.91 135.932 118.651 135.665C118.397 135.394 118.037 135.258 117.572 135.258C117.106 135.258 116.722 135.413 116.421 135.723C116.123 136.034 115.975 136.428 115.975 136.907V141.29H114.85V136.654C114.85 136.232 114.716 135.894 114.449 135.639C114.186 135.385 113.837 135.258 113.401 135.258C112.936 135.258 112.55 135.422 112.244 135.749C111.938 136.072 111.785 136.478 111.785 136.965V141.29H110.66ZM123.94 140.379C124.509 140.379 124.979 140.215 125.35 139.887C125.725 139.555 125.912 139.139 125.912 138.639V138.077L124.089 138.193C123.029 138.258 122.498 138.631 122.498 139.312C122.498 139.635 122.628 139.894 122.886 140.088C123.149 140.282 123.501 140.379 123.94 140.379ZM123.701 141.355C122.994 141.355 122.425 141.167 121.994 140.792C121.563 140.417 121.348 139.922 121.348 139.305C121.348 138.706 121.572 138.236 122.02 137.896C122.468 137.551 123.115 137.353 123.96 137.301L125.912 137.185V136.603C125.912 136.172 125.774 135.84 125.499 135.607C125.223 135.374 124.828 135.258 124.315 135.258C123.91 135.258 123.567 135.355 123.287 135.549C123.011 135.743 122.839 136.004 122.77 136.331H121.69C121.707 135.745 121.968 135.254 122.473 134.857C122.977 134.456 123.595 134.256 124.328 134.256C125.152 134.256 125.809 134.46 126.3 134.87C126.792 135.275 127.037 135.82 127.037 136.506V141.29H125.971V140.081H125.945C125.746 140.469 125.445 140.779 125.039 141.012C124.634 141.241 124.188 141.355 123.701 141.355ZM128.596 141.29V131.553H129.721V141.29H128.596Z" fill="#0E0E1E"/>
<path d="M461.151 141.29H459.987V137.042H454.866V141.29H453.702V131.96H454.866V135.995H459.987V131.96H461.151V141.29ZM462.883 141.29V134.32H464.008V141.29H462.883ZM463.446 133.195C463.252 133.195 463.084 133.126 462.941 132.988C462.804 132.846 462.735 132.678 462.735 132.484C462.735 132.286 462.804 132.118 462.941 131.98C463.084 131.842 463.252 131.773 463.446 131.773C463.644 131.773 463.812 131.842 463.95 131.98C464.088 132.118 464.157 132.286 464.157 132.484C464.157 132.678 464.088 132.846 463.95 132.988C463.812 133.126 463.644 133.195 463.446 133.195ZM468.418 140.288C469.03 140.288 469.524 140.057 469.899 139.596C470.278 139.131 470.468 138.525 470.468 137.779C470.468 137.029 470.278 136.422 469.899 135.956C469.524 135.491 469.03 135.258 468.418 135.258C467.81 135.258 467.323 135.488 466.957 135.95C466.59 136.407 466.407 137.016 466.407 137.779C466.407 138.538 466.59 139.146 466.957 139.603C467.323 140.06 467.81 140.288 468.418 140.288ZM468.437 143.78C467.648 143.78 466.991 143.603 466.465 143.249C465.939 142.9 465.636 142.437 465.554 141.859H466.724C466.806 142.148 467.006 142.377 467.325 142.545C467.648 142.717 468.041 142.803 468.502 142.803C469.105 142.803 469.584 142.657 469.937 142.364C470.291 142.075 470.468 141.683 470.468 141.187V140.094H470.442C470.222 140.473 469.916 140.769 469.524 140.98C469.131 141.187 468.692 141.29 468.205 141.29C467.321 141.29 466.608 140.969 466.064 140.327C465.526 139.68 465.256 138.831 465.256 137.779C465.256 136.715 465.528 135.861 466.071 135.219C466.614 134.577 467.334 134.256 468.23 134.256C468.722 134.256 469.164 134.359 469.556 134.566C469.952 134.773 470.267 135.068 470.5 135.452H470.519V134.32H471.593V141.096C471.593 141.928 471.31 142.583 470.746 143.062C470.185 143.54 469.416 143.78 468.437 143.78ZM473.19 141.29V131.553H474.315V135.452H474.34C474.78 134.654 475.539 134.256 476.616 134.256C477.379 134.256 477.996 134.493 478.466 134.967C478.935 135.441 479.17 136.066 479.17 136.842V141.29H478.045V137.042C478.045 136.486 477.888 136.051 477.573 135.736C477.263 135.417 476.832 135.258 476.28 135.258C475.69 135.258 475.213 135.443 474.851 135.814C474.493 136.185 474.315 136.674 474.315 137.282V141.29H473.19Z" fill="#0E0E1E"/>
<path d="M269.249 131.96V141.29H267.749V134.669H267.704L265.008 141.213H263.87L261.174 134.669H261.128V141.29H259.622V131.96H261.555L264.413 139.001H264.465L267.323 131.96H269.249ZM273.788 135.381C273.318 135.381 272.926 135.538 272.611 135.853C272.297 136.163 272.122 136.57 272.088 137.075H275.437C275.42 136.566 275.26 136.156 274.958 135.846C274.657 135.536 274.267 135.381 273.788 135.381ZM275.443 139.189H276.956C276.853 139.844 276.515 140.376 275.941 140.786C275.368 141.191 274.67 141.394 273.846 141.394C272.803 141.394 271.978 141.07 271.37 140.424C270.767 139.777 270.465 138.898 270.465 137.786C270.465 136.674 270.764 135.786 271.364 135.122C271.967 134.458 272.775 134.126 273.788 134.126C274.78 134.126 275.566 134.441 276.148 135.07C276.73 135.7 277.021 136.549 277.021 137.618V138.148H272.075V138.245C272.075 138.814 272.241 139.273 272.573 139.622C272.905 139.967 273.34 140.139 273.879 140.139C274.267 140.139 274.601 140.055 274.881 139.887C275.161 139.715 275.349 139.482 275.443 139.189ZM280.752 141.368C279.868 141.368 279.157 141.04 278.618 140.385C278.079 139.725 277.81 138.848 277.81 137.753C277.81 136.663 278.079 135.79 278.618 135.135C279.157 134.475 279.866 134.146 280.745 134.146C281.25 134.146 281.694 134.258 282.077 134.482C282.461 134.706 282.75 135.016 282.944 135.413H282.982V131.527H284.592V141.29H283.015V140.088H282.982C282.788 140.484 282.495 140.797 282.103 141.025C281.715 141.254 281.265 141.368 280.752 141.368ZM281.224 135.484C280.689 135.484 280.26 135.691 279.937 136.105C279.618 136.519 279.459 137.07 279.459 137.76C279.459 138.454 279.618 139.006 279.937 139.415C280.26 139.825 280.689 140.029 281.224 140.029C281.758 140.029 282.185 139.822 282.504 139.409C282.827 138.995 282.989 138.445 282.989 137.76C282.989 137.079 282.827 136.529 282.504 136.111C282.181 135.693 281.754 135.484 281.224 135.484ZM286.054 141.29V134.223H287.663V141.29H286.054ZM286.855 133.324C286.605 133.324 286.392 133.238 286.215 133.066C286.038 132.893 285.95 132.684 285.95 132.439C285.95 132.189 286.038 131.98 286.215 131.812C286.392 131.639 286.605 131.553 286.855 131.553C287.11 131.553 287.323 131.639 287.495 131.812C287.672 131.98 287.76 132.189 287.76 132.439C287.76 132.689 287.672 132.9 287.495 133.072C287.323 133.24 287.11 133.324 286.855 133.324ZM295.435 134.223V141.29H293.89V140.055H293.851C293.657 140.486 293.366 140.816 292.978 141.044C292.595 141.269 292.136 141.381 291.601 141.381C290.825 141.381 290.207 141.146 289.745 140.676C289.284 140.206 289.054 139.566 289.054 138.756V134.223H290.664V138.432C290.664 138.941 290.795 139.333 291.058 139.609C291.325 139.881 291.698 140.016 292.177 140.016C292.668 140.016 293.064 139.857 293.366 139.538C293.672 139.219 293.825 138.799 293.825 138.277V134.223H295.435ZM296.806 141.29V134.223H298.351V135.465H298.384C298.539 135.055 298.795 134.732 299.153 134.495C299.515 134.258 299.929 134.139 300.394 134.139C300.894 134.139 301.315 134.262 301.655 134.508C302 134.749 302.239 135.094 302.373 135.542H302.405C302.578 135.111 302.86 134.771 303.252 134.521C303.649 134.266 304.101 134.139 304.61 134.139C305.304 134.139 305.862 134.353 306.285 134.779C306.707 135.206 306.918 135.773 306.918 136.48V141.29H305.308V136.874C305.308 136.434 305.196 136.096 304.972 135.859C304.748 135.618 304.429 135.497 304.015 135.497C303.61 135.497 303.28 135.633 303.026 135.904C302.772 136.176 302.644 136.527 302.644 136.958V141.29H301.08V136.784C301.08 136.387 300.966 136.075 300.737 135.846C300.509 135.613 300.198 135.497 299.806 135.497C299.401 135.497 299.067 135.639 298.804 135.924C298.545 136.204 298.416 136.562 298.416 136.997V141.29H296.806Z" fill="#F59E0B"/>
<path d="M93.9138 178.458C92.6249 178.458 91.6012 178.025 90.8426 177.158C90.0882 176.288 89.7111 175.113 89.7111 173.635C89.7111 172.169 90.0926 171.001 90.8555 170.13C91.6185 169.255 92.6379 168.818 93.9138 168.818C94.931 168.818 95.7931 169.102 96.5 169.671C97.2113 170.236 97.6401 170.984 97.7867 171.915H96.6099C96.4591 171.303 96.138 170.813 95.6466 170.447C95.1552 170.076 94.5776 169.891 93.9138 169.891C93.0043 169.891 92.2758 170.232 91.7284 170.913C91.1809 171.594 90.9072 172.501 90.9072 173.635C90.9072 174.781 91.1788 175.693 91.7219 176.37C92.265 177.046 92.9978 177.385 93.9202 177.385C94.6056 177.385 95.1832 177.227 95.653 176.913C96.1229 176.598 96.4418 176.156 96.6099 175.587H97.7867C97.5712 176.51 97.1294 177.219 96.4612 177.714C95.7931 178.21 94.944 178.458 93.9138 178.458ZM99.0863 178.303V168.566H100.211V172.464H100.237C100.677 171.667 101.435 171.268 102.513 171.268C103.276 171.268 103.892 171.505 104.362 171.979C104.832 172.454 105.067 173.079 105.067 173.854V178.303H103.942V174.055C103.942 173.499 103.785 173.064 103.47 172.749C103.16 172.43 102.729 172.27 102.177 172.27C101.586 172.27 101.11 172.456 100.748 172.826C100.39 173.197 100.211 173.686 100.211 174.294V178.303H99.0863ZM108.837 177.391C109.405 177.391 109.875 177.227 110.246 176.9C110.621 176.568 110.809 176.152 110.809 175.652V175.089L108.985 175.206C107.925 175.27 107.395 175.643 107.395 176.324C107.395 176.648 107.524 176.906 107.783 177.1C108.046 177.294 108.397 177.391 108.837 177.391ZM108.597 178.368C107.89 178.368 107.321 178.18 106.89 177.805C106.459 177.43 106.244 176.934 106.244 176.318C106.244 175.719 106.468 175.249 106.916 174.908C107.364 174.564 108.011 174.365 108.856 174.314L110.809 174.197V173.615C110.809 173.184 110.671 172.852 110.395 172.62C110.119 172.387 109.724 172.27 109.212 172.27C108.806 172.27 108.464 172.367 108.183 172.561C107.908 172.755 107.735 173.016 107.666 173.344H106.586C106.604 172.757 106.864 172.266 107.369 171.87C107.873 171.469 108.492 171.268 109.224 171.268C110.048 171.268 110.705 171.473 111.196 171.882C111.688 172.288 111.934 172.833 111.934 173.518V178.303H110.867V177.094H110.841C110.643 177.482 110.341 177.792 109.936 178.025C109.53 178.253 109.084 178.368 108.597 178.368ZM113.427 178.303V171.333H114.487V172.464H114.513C114.617 172.098 114.822 171.807 115.128 171.592C115.434 171.376 115.791 171.268 116.201 171.268C116.378 171.268 116.522 171.283 116.634 171.313V172.426C116.513 172.374 116.319 172.348 116.052 172.348C115.6 172.348 115.235 172.499 114.959 172.801C114.688 173.102 114.552 173.499 114.552 173.99V178.303H113.427ZM119.906 177.391C120.475 177.391 120.945 177.227 121.315 176.9C121.69 176.568 121.878 176.152 121.878 175.652V175.089L120.054 175.206C118.994 175.27 118.464 175.643 118.464 176.324C118.464 176.648 118.593 176.906 118.852 177.1C119.115 177.294 119.466 177.391 119.906 177.391ZM119.666 178.368C118.96 178.368 118.391 178.18 117.96 177.805C117.529 177.43 117.313 176.934 117.313 176.318C117.313 175.719 117.537 175.249 117.985 174.908C118.434 174.564 119.08 174.365 119.925 174.314L121.878 174.197V173.615C121.878 173.184 121.74 172.852 121.464 172.62C121.188 172.387 120.794 172.27 120.281 172.27C119.876 172.27 119.533 172.367 119.253 172.561C118.977 172.755 118.804 173.016 118.735 173.344H117.656C117.673 172.757 117.934 172.266 118.438 171.87C118.942 171.469 119.561 171.268 120.294 171.268C121.117 171.268 121.774 171.473 122.266 171.882C122.757 172.288 123.003 172.833 123.003 173.518V178.303H121.936V177.094H121.91C121.712 177.482 121.41 177.792 121.005 178.025C120.6 178.253 120.154 178.368 119.666 178.368ZM130.257 173.602H129.152C129.078 173.21 128.884 172.891 128.57 172.645C128.255 172.395 127.846 172.27 127.341 172.27C126.729 172.27 126.236 172.503 125.861 172.969C125.486 173.434 125.298 174.051 125.298 174.818C125.298 175.602 125.486 176.223 125.861 176.68C126.24 177.137 126.738 177.365 127.354 177.365C127.841 177.365 128.24 177.255 128.55 177.036C128.865 176.811 129.07 176.49 129.165 176.072H130.27C130.175 176.758 129.861 177.311 129.326 177.734C128.796 178.156 128.137 178.368 127.348 178.368C126.382 178.368 125.608 178.049 125.027 177.411C124.445 176.768 124.154 175.904 124.154 174.818C124.154 173.749 124.445 172.891 125.027 172.245C125.608 171.594 126.378 171.268 127.335 171.268C128.158 171.268 128.833 171.497 129.359 171.954C129.884 172.406 130.184 172.956 130.257 173.602ZM131.718 169.762H132.844V171.333H134.201V172.264H132.844V176.447C132.844 176.766 132.912 177.001 133.05 177.152C133.193 177.303 133.412 177.378 133.71 177.378C133.904 177.378 134.066 177.367 134.195 177.346V178.296C134.031 178.335 133.79 178.355 133.471 178.355C132.841 178.355 132.391 178.212 132.119 177.928C131.852 177.639 131.718 177.161 131.718 176.492V172.264H130.749V171.333H131.718V169.762ZM138.035 172.257C137.488 172.257 137.033 172.439 136.671 172.801C136.313 173.163 136.115 173.639 136.076 174.229H139.91C139.898 173.639 139.719 173.163 139.374 172.801C139.033 172.439 138.587 172.257 138.035 172.257ZM139.885 176.311H140.997C140.902 176.911 140.583 177.404 140.04 177.792C139.497 178.176 138.852 178.368 138.107 178.368C137.128 178.368 136.35 178.051 135.772 177.417C135.199 176.783 134.913 175.926 134.913 174.844C134.913 173.762 135.199 172.895 135.772 172.245C136.346 171.594 137.107 171.268 138.055 171.268C138.986 171.268 139.723 171.576 140.266 172.193C140.809 172.805 141.081 173.637 141.081 174.689V175.128H136.076V175.193C136.076 175.857 136.264 176.387 136.639 176.783C137.014 177.18 137.512 177.378 138.132 177.378C138.568 177.378 138.943 177.283 139.257 177.094C139.576 176.9 139.785 176.639 139.885 176.311ZM142.264 178.303V171.333H143.324V172.464H143.35C143.454 172.098 143.658 171.807 143.964 171.592C144.27 171.376 144.628 171.268 145.038 171.268C145.214 171.268 145.359 171.283 145.471 171.313V172.426C145.35 172.374 145.156 172.348 144.889 172.348C144.436 172.348 144.072 172.499 143.796 172.801C143.525 173.102 143.389 173.499 143.389 173.99V178.303H142.264ZM146.531 178.303V171.333H147.656V178.303H146.531ZM147.094 170.208C146.9 170.208 146.732 170.139 146.589 170.001C146.452 169.859 146.383 169.691 146.383 169.497C146.383 169.298 146.452 169.13 146.589 168.992C146.732 168.854 146.9 168.785 147.094 168.785C147.292 168.785 147.46 168.854 147.598 168.992C147.736 169.13 147.805 169.298 147.805 169.497C147.805 169.691 147.736 169.859 147.598 170.001C147.46 170.139 147.292 170.208 147.094 170.208ZM149.131 173.279C149.131 172.693 149.37 172.212 149.848 171.837C150.331 171.462 150.952 171.275 151.71 171.275C152.417 171.275 153.01 171.464 153.488 171.844C153.971 172.219 154.223 172.693 154.245 173.266H153.165C153.131 172.939 152.98 172.68 152.712 172.49C152.445 172.301 152.098 172.206 151.672 172.206C151.24 172.206 150.893 172.298 150.631 172.484C150.368 172.669 150.236 172.915 150.236 173.221C150.236 173.686 150.628 174.016 151.413 174.21L152.473 174.475C153.176 174.652 153.669 174.88 153.954 175.161C154.243 175.436 154.387 175.829 154.387 176.337C154.387 176.932 154.128 177.419 153.611 177.799C153.098 178.178 152.439 178.368 151.633 178.368C150.883 178.368 150.26 178.182 149.764 177.811C149.268 177.436 148.993 176.947 148.937 176.344H150.068C150.124 176.697 150.292 176.969 150.572 177.158C150.857 177.344 151.236 177.436 151.71 177.436C152.184 177.436 152.559 177.346 152.835 177.165C153.116 176.98 153.256 176.73 153.256 176.415C153.256 176.169 153.174 175.975 153.01 175.833C152.846 175.686 152.566 175.561 152.169 175.458L150.947 175.141C149.736 174.826 149.131 174.206 149.131 173.279ZM155.978 169.762H157.103V171.333H158.46V172.264H157.103V176.447C157.103 176.766 157.172 177.001 157.31 177.152C157.452 177.303 157.672 177.378 157.969 177.378C158.163 177.378 158.325 177.367 158.454 177.346V178.296C158.29 178.335 158.049 178.355 157.73 178.355C157.101 178.355 156.65 178.212 156.379 177.928C156.111 177.639 155.978 177.161 155.978 176.492V172.264H155.008V171.333H155.978V169.762ZM159.773 178.303V171.333H160.898V178.303H159.773ZM160.335 170.208C160.142 170.208 159.973 170.139 159.831 170.001C159.693 169.859 159.624 169.691 159.624 169.497C159.624 169.298 159.693 169.13 159.831 168.992C159.973 168.854 160.142 168.785 160.335 168.785C160.534 168.785 160.702 168.854 160.84 168.992C160.978 169.13 161.047 169.298 161.047 169.497C161.047 169.691 160.978 169.859 160.84 170.001C160.702 170.139 160.534 170.208 160.335 170.208ZM168.249 173.602H167.144C167.071 173.21 166.877 172.891 166.562 172.645C166.247 172.395 165.838 172.27 165.333 172.27C164.721 172.27 164.228 172.503 163.853 172.969C163.478 173.434 163.29 174.051 163.29 174.818C163.29 175.602 163.478 176.223 163.853 176.68C164.232 177.137 164.73 177.365 165.346 177.365C165.833 177.365 166.232 177.255 166.543 177.036C166.857 176.811 167.062 176.49 167.157 176.072H168.262C168.168 176.758 167.853 177.311 167.318 177.734C166.788 178.156 166.129 178.368 165.34 178.368C164.374 178.368 163.601 178.049 163.019 177.411C162.437 176.768 162.146 175.904 162.146 174.818C162.146 173.749 162.437 172.891 163.019 172.245C163.601 171.594 164.37 171.268 165.327 171.268C166.15 171.268 166.825 171.497 167.351 171.954C167.877 172.406 168.176 172.956 168.249 173.602ZM169.226 173.279C169.226 172.693 169.465 172.212 169.943 171.837C170.426 171.462 171.047 171.275 171.806 171.275C172.512 171.275 173.105 171.464 173.584 171.844C174.066 172.219 174.319 172.693 174.34 173.266H173.26C173.226 172.939 173.075 172.68 172.808 172.49C172.541 172.301 172.194 172.206 171.767 172.206C171.336 172.206 170.989 172.298 170.726 172.484C170.463 172.669 170.331 172.915 170.331 173.221C170.331 173.686 170.724 174.016 171.508 174.21L172.569 174.475C173.271 174.652 173.765 174.88 174.049 175.161C174.338 175.436 174.482 175.829 174.482 176.337C174.482 176.932 174.224 177.419 173.706 177.799C173.194 178.178 172.534 178.368 171.728 178.368C170.978 178.368 170.355 178.182 169.859 177.811C169.364 177.436 169.088 176.947 169.032 176.344H170.163C170.219 176.697 170.387 176.969 170.668 177.158C170.952 177.344 171.331 177.436 171.806 177.436C172.28 177.436 172.655 177.346 172.931 177.165C173.211 176.98 173.351 176.73 173.351 176.415C173.351 176.169 173.269 175.975 173.105 175.833C172.941 175.686 172.661 175.561 172.265 175.458L171.043 175.141C169.831 174.826 169.226 174.206 169.226 173.279ZM184.084 177.404C183.502 178.046 182.722 178.368 181.743 178.368C180.765 178.368 179.985 178.046 179.403 177.404C178.821 176.762 178.53 175.9 178.53 174.818C178.53 173.736 178.821 172.874 179.403 172.232C179.985 171.589 180.765 171.268 181.743 171.268C182.722 171.268 183.502 171.589 184.084 172.232C184.666 172.874 184.957 173.736 184.957 174.818C184.957 175.9 184.666 176.762 184.084 177.404ZM181.743 177.365C182.394 177.365 182.901 177.141 183.263 176.693C183.629 176.24 183.812 175.615 183.812 174.818C183.812 174.016 183.629 173.391 183.263 172.943C182.901 172.495 182.394 172.27 181.743 172.27C181.092 172.27 180.584 172.497 180.217 172.949C179.855 173.398 179.674 174.02 179.674 174.818C179.674 175.615 179.857 176.24 180.224 176.693C180.59 177.141 181.097 177.365 181.743 177.365ZM186.508 178.303V172.264H185.539V171.333H186.508V170.686C186.508 170.04 186.655 169.568 186.948 169.27C187.246 168.973 187.718 168.824 188.364 168.824C188.571 168.824 188.78 168.844 188.991 168.882V169.813C188.832 169.779 188.657 169.762 188.468 169.762C188.174 169.762 187.963 169.835 187.834 169.982C187.705 170.124 187.638 170.359 187.634 170.686V171.333H188.991V172.264H187.634V178.303H186.508ZM193.75 169.762H194.875V171.333H196.233V172.264H194.875V176.447C194.875 176.766 194.944 177.001 195.082 177.152C195.224 177.303 195.444 177.378 195.741 177.378C195.935 177.378 196.097 177.367 196.226 177.346V178.296C196.063 178.335 195.821 178.355 195.502 178.355C194.873 178.355 194.422 178.212 194.151 177.928C193.884 177.639 193.75 177.161 193.75 176.492V172.264H192.78V171.333H193.75V169.762ZM197.545 178.303V168.566H198.67V172.464H198.696C199.136 171.667 199.895 171.268 200.972 171.268C201.735 171.268 202.352 171.505 202.821 171.979C203.291 172.454 203.526 173.079 203.526 173.854V178.303H202.401V174.055C202.401 173.499 202.244 173.064 201.929 172.749C201.619 172.43 201.188 172.27 200.636 172.27C200.045 172.27 199.569 172.456 199.207 172.826C198.849 173.197 198.67 173.686 198.67 174.294V178.303H197.545ZM205.084 178.303V171.333H206.209V178.303H205.084ZM205.647 170.208C205.453 170.208 205.285 170.139 205.143 170.001C205.005 169.859 204.936 169.691 204.936 169.497C204.936 169.298 205.005 169.13 205.143 168.992C205.285 168.854 205.453 168.785 205.647 168.785C205.845 168.785 206.013 168.854 206.151 168.992C206.289 169.13 206.358 169.298 206.358 169.497C206.358 169.691 206.289 169.859 206.151 170.001C206.013 170.139 205.845 170.208 205.647 170.208ZM207.684 173.279C207.684 172.693 207.923 172.212 208.401 171.837C208.884 171.462 209.505 171.275 210.263 171.275C210.97 171.275 211.563 171.464 212.041 171.844C212.524 172.219 212.776 172.693 212.798 173.266H211.718C211.684 172.939 211.533 172.68 211.265 172.49C210.998 172.301 210.651 172.206 210.225 172.206C209.793 172.206 209.446 172.298 209.184 172.484C208.921 172.669 208.789 172.915 208.789 173.221C208.789 173.686 209.181 174.016 209.966 174.21L211.026 174.475C211.729 174.652 212.222 174.88 212.507 175.161C212.796 175.436 212.94 175.829 212.94 176.337C212.94 176.932 212.681 177.419 212.164 177.799C211.651 178.178 210.992 178.368 210.186 178.368C209.436 178.368 208.813 178.182 208.317 177.811C207.821 177.436 207.546 176.947 207.49 176.344H208.621C208.677 176.697 208.845 176.969 209.125 177.158C209.41 177.344 209.789 177.436 210.263 177.436C210.737 177.436 211.112 177.346 211.388 177.165C211.669 176.98 211.809 176.73 211.809 176.415C211.809 176.169 211.727 175.975 211.563 175.833C211.399 175.686 211.119 175.561 210.722 175.458L209.5 175.141C208.289 174.826 207.684 174.206 207.684 173.279ZM222.542 177.404C221.96 178.046 221.18 178.368 220.201 178.368C219.223 178.368 218.442 178.046 217.86 177.404C217.279 176.762 216.988 175.9 216.988 174.818C216.988 173.736 217.279 172.874 217.86 172.232C218.442 171.589 219.223 171.268 220.201 171.268C221.18 171.268 221.96 171.589 222.542 172.232C223.124 172.874 223.414 173.736 223.414 174.818C223.414 175.9 223.124 176.762 222.542 177.404ZM220.201 177.365C220.852 177.365 221.358 177.141 221.72 176.693C222.087 176.24 222.27 175.615 222.27 174.818C222.27 174.016 222.087 173.391 221.72 172.943C221.358 172.495 220.852 172.27 220.201 172.27C219.55 172.27 219.042 172.497 218.675 172.949C218.313 173.398 218.132 174.02 218.132 174.818C218.132 175.615 218.315 176.24 218.682 176.693C219.048 177.141 219.554 177.365 220.201 177.365ZM224.598 178.303V171.333H225.658V172.464H225.684C225.787 172.098 225.992 171.807 226.298 171.592C226.604 171.376 226.962 171.268 227.371 171.268C227.548 171.268 227.693 171.283 227.805 171.313V172.426C227.684 172.374 227.49 172.348 227.223 172.348C226.77 172.348 226.406 172.499 226.13 172.801C225.858 173.102 225.723 173.499 225.723 173.99V178.303H224.598ZM231.122 178.368C230.242 178.368 229.525 178.042 228.968 177.391C228.412 176.736 228.134 175.878 228.134 174.818C228.134 173.762 228.41 172.906 228.962 172.251C229.514 171.596 230.225 171.268 231.096 171.268C231.591 171.268 232.031 171.372 232.415 171.579C232.803 171.785 233.104 172.081 233.32 172.464H233.346V168.566H234.471V178.303H233.397V177.126H233.378C233.15 177.527 232.841 177.835 232.453 178.051C232.07 178.262 231.626 178.368 231.122 178.368ZM231.322 172.27C230.71 172.27 230.216 172.503 229.841 172.969C229.471 173.434 229.285 174.051 229.285 174.818C229.285 175.589 229.471 176.208 229.841 176.674C230.216 177.135 230.71 177.365 231.322 177.365C231.925 177.365 232.415 177.13 232.79 176.661C233.165 176.191 233.352 175.577 233.352 174.818C233.352 174.059 233.165 173.445 232.79 172.975C232.415 172.505 231.925 172.27 231.322 172.27ZM238.848 172.257C238.301 172.257 237.846 172.439 237.484 172.801C237.126 173.163 236.928 173.639 236.889 174.229H240.723C240.71 173.639 240.531 173.163 240.186 172.801C239.846 172.439 239.4 172.257 238.848 172.257ZM240.697 176.311H241.809C241.714 176.911 241.395 177.404 240.852 177.792C240.309 178.176 239.665 178.368 238.919 178.368C237.941 178.368 237.163 178.051 236.585 177.417C236.012 176.783 235.725 175.926 235.725 174.844C235.725 173.762 236.012 172.895 236.585 172.245C237.158 171.594 237.919 171.268 238.867 171.268C239.798 171.268 240.536 171.576 241.079 172.193C241.622 172.805 241.893 173.637 241.893 174.689V175.128H236.889V175.193C236.889 175.857 237.076 176.387 237.451 176.783C237.826 177.18 238.324 177.378 238.945 177.378C239.38 177.378 239.755 177.283 240.07 177.094C240.389 176.9 240.598 176.639 240.697 176.311ZM243.077 178.303V171.333H244.137V172.464H244.163C244.266 172.098 244.471 171.807 244.777 171.592C245.083 171.376 245.441 171.268 245.85 171.268C246.027 171.268 246.171 171.283 246.284 171.313V172.426C246.163 172.374 245.969 172.348 245.702 172.348C245.249 172.348 244.885 172.499 244.609 172.801C244.337 173.102 244.202 173.499 244.202 173.99V178.303H243.077ZM252.723 177.391C253.292 177.391 253.762 177.227 254.133 176.9C254.508 176.568 254.695 176.152 254.695 175.652V175.089L252.872 175.206C251.812 175.27 251.281 175.643 251.281 176.324C251.281 176.648 251.411 176.906 251.669 177.1C251.932 177.294 252.284 177.391 252.723 177.391ZM252.484 178.368C251.777 178.368 251.208 178.18 250.777 177.805C250.346 177.43 250.131 176.934 250.131 176.318C250.131 175.719 250.355 175.249 250.803 174.908C251.251 174.564 251.898 174.365 252.743 174.314L254.695 174.197V173.615C254.695 173.184 254.557 172.852 254.282 172.62C254.006 172.387 253.611 172.27 253.098 172.27C252.693 172.27 252.35 172.367 252.07 172.561C251.794 172.755 251.622 173.016 251.553 173.344H250.473C250.491 172.757 250.751 172.266 251.256 171.87C251.76 171.469 252.378 171.268 253.111 171.268C253.935 171.268 254.592 171.473 255.083 171.882C255.575 172.288 255.82 172.833 255.82 173.518V178.303H254.754V177.094H254.728C254.529 177.482 254.228 177.792 253.822 178.025C253.417 178.253 252.971 178.368 252.484 178.368ZM257.314 178.303V171.333H258.374V172.464H258.4C258.504 172.098 258.708 171.807 259.014 171.592C259.32 171.376 259.678 171.268 260.088 171.268C260.264 171.268 260.409 171.283 260.521 171.313V172.426C260.4 172.374 260.206 172.348 259.939 172.348C259.486 172.348 259.122 172.499 258.846 172.801C258.575 173.102 258.439 173.499 258.439 173.99V178.303H257.314ZM263.974 172.257C263.426 172.257 262.971 172.439 262.609 172.801C262.252 173.163 262.053 173.639 262.014 174.229H265.849C265.836 173.639 265.657 173.163 265.312 172.801C264.971 172.439 264.525 172.257 263.974 172.257ZM265.823 176.311H266.935C266.84 176.911 266.521 177.404 265.978 177.792C265.435 178.176 264.79 178.368 264.045 178.368C263.066 178.368 262.288 178.051 261.711 177.417C261.137 176.783 260.851 175.926 260.851 174.844C260.851 173.762 261.137 172.895 261.711 172.245C262.284 171.594 263.045 171.268 263.993 171.268C264.924 171.268 265.661 171.576 266.204 172.193C266.747 172.805 267.019 173.637 267.019 174.689V175.128H262.014V175.193C262.014 175.857 262.202 176.387 262.577 176.783C262.952 177.18 263.45 177.378 264.071 177.378C264.506 177.378 264.881 177.283 265.196 177.094C265.515 176.9 265.724 176.639 265.823 176.311ZM271.254 173.279C271.254 172.693 271.493 172.212 271.972 171.837C272.454 171.462 273.075 171.275 273.834 171.275C274.541 171.275 275.133 171.464 275.612 171.844C276.095 172.219 276.347 172.693 276.368 173.266H275.288C275.254 172.939 275.103 172.68 274.836 172.49C274.569 172.301 274.222 172.206 273.795 172.206C273.364 172.206 273.017 172.298 272.754 172.484C272.491 172.669 272.36 172.915 272.36 173.221C272.36 173.686 272.752 174.016 273.536 174.21L274.597 174.475C275.299 174.652 275.793 174.88 276.077 175.161C276.366 175.436 276.51 175.829 276.51 176.337C276.51 176.932 276.252 177.419 275.735 177.799C275.222 178.178 274.562 178.368 273.756 178.368C273.006 178.368 272.383 178.182 271.888 177.811C271.392 177.436 271.116 176.947 271.06 176.344H272.191C272.247 176.697 272.416 176.969 272.696 177.158C272.98 177.344 273.36 177.436 273.834 177.436C274.308 177.436 274.683 177.346 274.959 177.165C275.239 176.98 275.379 176.73 275.379 176.415C275.379 176.169 275.297 175.975 275.133 175.833C274.969 175.686 274.689 175.561 274.293 175.458L273.071 175.141C271.86 174.826 271.254 174.206 271.254 173.279ZM277.797 178.303V171.333H278.922V178.303H277.797ZM278.36 170.208C278.166 170.208 277.998 170.139 277.855 170.001C277.717 169.859 277.648 169.691 277.648 169.497C277.648 169.298 277.717 169.13 277.855 168.992C277.998 168.854 278.166 168.785 278.36 168.785C278.558 168.785 278.726 168.854 278.864 168.992C279.002 169.13 279.071 169.298 279.071 169.497C279.071 169.691 279.002 169.859 278.864 170.001C278.726 170.139 278.558 170.208 278.36 170.208ZM280.513 178.303V171.333H281.573V172.464H281.599C281.763 172.094 282.019 171.803 282.368 171.592C282.722 171.376 283.125 171.268 283.577 171.268C284.047 171.268 284.452 171.382 284.793 171.611C285.134 171.839 285.379 172.165 285.53 172.587H285.556C285.754 172.173 286.047 171.85 286.435 171.617C286.823 171.385 287.261 171.268 287.748 171.268C288.437 171.268 288.987 171.475 289.397 171.889C289.81 172.303 290.017 172.854 290.017 173.544V178.303H288.892V173.803C288.892 173.32 288.763 172.945 288.504 172.678C288.25 172.406 287.89 172.27 287.425 172.27C286.959 172.27 286.575 172.426 286.274 172.736C285.976 173.046 285.827 173.441 285.827 173.919V178.303H284.702V173.667C284.702 173.245 284.569 172.906 284.302 172.652C284.039 172.398 283.69 172.27 283.254 172.27C282.789 172.27 282.403 172.434 282.097 172.762C281.791 173.085 281.638 173.49 281.638 173.977V178.303H280.513ZM291.582 178.303V171.333H292.707V178.303H291.582ZM292.144 170.208C291.95 170.208 291.782 170.139 291.64 170.001C291.502 169.859 291.433 169.691 291.433 169.497C291.433 169.298 291.502 169.13 291.64 168.992C291.782 168.854 291.95 168.785 292.144 168.785C292.343 168.785 292.511 168.854 292.649 168.992C292.787 169.13 292.856 169.298 292.856 169.497C292.856 169.691 292.787 169.859 292.649 170.001C292.511 170.139 292.343 170.208 292.144 170.208ZM294.362 178.303V168.566H295.487V178.303H294.362ZM299.354 177.391C299.923 177.391 300.392 177.227 300.763 176.9C301.138 176.568 301.326 176.152 301.326 175.652V175.089L299.502 175.206C298.442 175.27 297.912 175.643 297.912 176.324C297.912 176.648 298.041 176.906 298.3 177.1C298.563 177.294 298.914 177.391 299.354 177.391ZM299.114 178.368C298.408 178.368 297.839 178.18 297.407 177.805C296.976 177.43 296.761 176.934 296.761 176.318C296.761 175.719 296.985 175.249 297.433 174.908C297.882 174.564 298.528 174.365 299.373 174.314L301.326 174.197V173.615C301.326 173.184 301.188 172.852 300.912 172.62C300.636 172.387 300.242 172.27 299.729 172.27C299.323 172.27 298.981 172.367 298.701 172.561C298.425 172.755 298.252 173.016 298.183 173.344H297.104C297.121 172.757 297.382 172.266 297.886 171.87C298.39 171.469 299.009 171.268 299.742 171.268C300.565 171.268 301.222 171.473 301.714 171.882C302.205 172.288 302.451 172.833 302.451 173.518V178.303H301.384V177.094H301.358C301.16 177.482 300.858 177.792 300.453 178.025C300.048 178.253 299.601 178.368 299.114 178.368ZM303.944 178.303V171.333H305.005V172.464H305.03C305.134 172.098 305.339 171.807 305.645 171.592C305.951 171.376 306.309 171.268 306.718 171.268C306.895 171.268 307.039 171.283 307.151 171.313V172.426C307.031 172.374 306.837 172.348 306.569 172.348C306.117 172.348 305.752 172.499 305.477 172.801C305.205 173.102 305.069 173.499 305.069 173.99V178.303H303.944ZM311.684 169.762H312.809V171.333H314.166V172.264H312.809V176.447C312.809 176.766 312.878 177.001 313.016 177.152C313.158 177.303 313.378 177.378 313.675 177.378C313.869 177.378 314.031 177.367 314.16 177.346V178.296C313.996 178.335 313.755 178.355 313.436 178.355C312.807 178.355 312.356 178.212 312.085 177.928C311.817 177.639 311.684 177.161 311.684 176.492V172.264H310.714V171.333H311.684V169.762ZM320.432 177.404C319.85 178.046 319.07 178.368 318.091 178.368C317.113 178.368 316.332 178.046 315.751 177.404C315.169 176.762 314.878 175.9 314.878 174.818C314.878 173.736 315.169 172.874 315.751 172.232C316.332 171.589 317.113 171.268 318.091 171.268C319.07 171.268 319.85 171.589 320.432 172.232C321.014 172.874 321.305 173.736 321.305 174.818C321.305 175.9 321.014 176.762 320.432 177.404ZM318.091 177.365C318.742 177.365 319.248 177.141 319.611 176.693C319.977 176.24 320.16 175.615 320.16 174.818C320.16 174.016 319.977 173.391 319.611 172.943C319.248 172.495 318.742 172.27 318.091 172.27C317.44 172.27 316.932 172.497 316.565 172.949C316.203 173.398 316.022 174.02 316.022 174.818C316.022 175.615 316.205 176.24 316.572 176.693C316.938 177.141 317.445 177.365 318.091 177.365ZM326.949 178.303H325.798V168.973H326.93L332.038 176.299H332.096V168.973H333.247V178.303H332.115L327.007 171.003H326.949V178.303ZM340.126 177.404C339.544 178.046 338.764 178.368 337.786 178.368C336.807 178.368 336.027 178.046 335.445 177.404C334.863 176.762 334.572 175.9 334.572 174.818C334.572 173.736 334.863 172.874 335.445 172.232C336.027 171.589 336.807 171.268 337.786 171.268C338.764 171.268 339.544 171.589 340.126 172.232C340.708 172.874 340.999 173.736 340.999 174.818C340.999 175.9 340.708 176.762 340.126 177.404ZM337.786 177.365C338.436 177.365 338.943 177.141 339.305 176.693C339.671 176.24 339.855 175.615 339.855 174.818C339.855 174.016 339.671 173.391 339.305 172.943C338.943 172.495 338.436 172.27 337.786 172.27C337.135 172.27 336.626 172.497 336.26 172.949C335.898 173.398 335.717 174.02 335.717 174.818C335.717 175.615 335.9 176.24 336.266 176.693C336.632 177.141 337.139 177.365 337.786 177.365ZM342.182 178.303V171.333H343.243V172.464H343.268C343.712 171.667 344.471 171.268 345.544 171.268C346.312 171.268 346.917 171.499 347.361 171.96C347.805 172.417 348.027 173.042 348.027 173.835V178.303H346.902V174.029C346.902 173.46 346.756 173.025 346.462 172.723C346.174 172.421 345.756 172.27 345.208 172.27C344.635 172.27 344.174 172.451 343.824 172.814C343.48 173.176 343.307 173.656 343.307 174.255V178.303H342.182ZM353.723 175.148H349.482V174.1H353.723V175.148ZM355.573 178.303V172.264H354.603V171.333H355.573V170.686C355.573 170.04 355.719 169.568 356.012 169.27C356.31 168.973 356.782 168.824 357.428 168.824C357.635 168.824 357.844 168.844 358.055 168.882V169.813C357.896 169.779 357.721 169.762 357.532 169.762C357.239 169.762 357.027 169.835 356.898 169.982C356.769 170.124 356.702 170.359 356.698 170.686V171.333H358.055V172.264H356.698V178.303H355.573ZM359.277 178.303V171.333H360.338V172.464H360.364C360.467 172.098 360.672 171.807 360.978 171.592C361.284 171.376 361.642 171.268 362.051 171.268C362.228 171.268 362.372 171.283 362.484 171.313V172.426C362.364 172.374 362.17 172.348 361.902 172.348C361.45 172.348 361.086 172.499 360.81 172.801C360.538 173.102 360.402 173.499 360.402 173.99V178.303H359.277ZM365.756 177.391C366.325 177.391 366.795 177.227 367.166 176.9C367.541 176.568 367.728 176.152 367.728 175.652V175.089L365.905 175.206C364.844 175.27 364.314 175.643 364.314 176.324C364.314 176.648 364.443 176.906 364.702 177.1C364.965 177.294 365.316 177.391 365.756 177.391ZM365.517 178.368C364.81 178.368 364.241 178.18 363.81 177.805C363.379 177.43 363.163 176.934 363.163 176.318C363.163 175.719 363.387 175.249 363.836 174.908C364.284 174.564 364.931 174.365 365.775 174.314L367.728 174.197V173.615C367.728 173.184 367.59 172.852 367.314 172.62C367.038 172.387 366.644 172.27 366.131 172.27C365.726 172.27 365.383 172.367 365.103 172.561C364.827 172.755 364.655 173.016 364.586 173.344H363.506C363.523 172.757 363.784 172.266 364.288 171.87C364.793 171.469 365.411 171.268 366.144 171.268C366.967 171.268 367.625 171.473 368.116 171.882C368.607 172.288 368.853 172.833 368.853 173.518V178.303H367.786V177.094H367.76C367.562 177.482 367.26 177.792 366.855 178.025C366.45 178.253 366.004 178.368 365.517 178.368ZM376.159 171.333V178.303H375.099V177.152H375.073C374.633 177.962 373.873 178.368 372.791 178.368C372.028 178.368 371.424 178.139 370.98 177.682C370.536 177.221 370.314 176.594 370.314 175.801V171.333H371.439V175.607C371.439 176.176 371.584 176.611 371.872 176.913C372.166 177.214 372.586 177.365 373.133 177.365C373.707 177.365 374.166 177.184 374.51 176.822C374.86 176.46 375.034 175.98 375.034 175.38V171.333H376.159ZM380.336 178.368C379.457 178.368 378.739 178.042 378.183 177.391C377.627 176.736 377.349 175.878 377.349 174.818C377.349 173.762 377.625 172.906 378.177 172.251C378.728 171.596 379.439 171.268 380.31 171.268C380.806 171.268 381.246 171.372 381.629 171.579C382.017 171.785 382.319 172.081 382.534 172.464H382.56V168.566H383.685V178.303H382.612V177.126H382.593C382.364 177.527 382.056 177.835 381.668 178.051C381.284 178.262 380.84 178.368 380.336 178.368ZM380.536 172.27C379.924 172.27 379.431 172.503 379.056 172.969C378.685 173.434 378.5 174.051 378.5 174.818C378.5 175.589 378.685 176.208 379.056 176.674C379.431 177.135 379.924 177.365 380.536 177.365C381.14 177.365 381.629 177.13 382.004 176.661C382.379 176.191 382.567 175.577 382.567 174.818C382.567 174.059 382.379 173.445 382.004 172.975C381.629 172.505 381.14 172.27 380.536 172.27ZM391.095 171.333V178.303H390.035V177.152H390.009C389.569 177.962 388.808 178.368 387.726 178.368C386.963 178.368 386.36 178.139 385.916 177.682C385.472 177.221 385.25 176.594 385.25 175.801V171.333H386.375V175.607C386.375 176.176 386.519 176.611 386.808 176.913C387.101 177.214 387.522 177.365 388.069 177.365C388.642 177.365 389.101 177.184 389.446 176.822C389.795 176.46 389.97 175.98 389.97 175.38V171.333H391.095ZM392.692 178.303V168.566H393.817V178.303H392.692ZM398.188 172.257C397.64 172.257 397.186 172.439 396.823 172.801C396.466 173.163 396.267 173.639 396.229 174.229H400.063C400.05 173.639 399.871 173.163 399.526 172.801C399.186 172.439 398.739 172.257 398.188 172.257ZM400.037 176.311H401.149C401.054 176.911 400.735 177.404 400.192 177.792C399.649 178.176 399.005 178.368 398.259 178.368C397.28 178.368 396.502 178.051 395.925 177.417C395.351 176.783 395.065 175.926 395.065 174.844C395.065 173.762 395.351 172.895 395.925 172.245C396.498 171.594 397.259 171.268 398.207 171.268C399.138 171.268 399.875 171.576 400.418 172.193C400.962 172.805 401.233 173.637 401.233 174.689V175.128H396.229V175.193C396.229 175.857 396.416 176.387 396.791 176.783C397.166 177.18 397.664 177.378 398.285 177.378C398.72 177.378 399.095 177.283 399.41 177.094C399.729 176.9 399.938 176.639 400.037 176.311ZM402.416 178.303V171.333H403.477V172.464H403.502C403.946 171.667 404.705 171.268 405.778 171.268C406.546 171.268 407.151 171.499 407.595 171.96C408.039 172.417 408.261 173.042 408.261 173.835V178.303H407.136V174.029C407.136 173.46 406.99 173.025 406.697 172.723C406.408 172.421 405.99 172.27 405.442 172.27C404.869 172.27 404.408 172.451 404.059 172.814C403.714 173.176 403.541 173.656 403.541 174.255V178.303H402.416ZM410.13 169.762H411.255V171.333H412.613V172.264H411.255V176.447C411.255 176.766 411.324 177.001 411.462 177.152C411.604 177.303 411.824 177.378 412.121 177.378C412.315 177.378 412.477 177.367 412.606 177.346V178.296C412.442 178.335 412.201 178.355 411.882 178.355C411.253 178.355 410.802 178.212 410.531 177.928C410.263 177.639 410.13 177.161 410.13 176.492V172.264H409.16V171.333H410.13V169.762ZM422.24 177.404C421.658 178.046 420.878 178.368 419.899 178.368C418.921 178.368 418.141 178.046 417.559 177.404C416.977 176.762 416.686 175.9 416.686 174.818C416.686 173.736 416.977 172.874 417.559 172.232C418.141 171.589 418.921 171.268 419.899 171.268C420.878 171.268 421.658 171.589 422.24 172.232C422.822 172.874 423.113 173.736 423.113 174.818C423.113 175.9 422.822 176.762 422.24 177.404ZM419.899 177.365C420.55 177.365 421.057 177.141 421.419 176.693C421.785 176.24 421.968 175.615 421.968 174.818C421.968 174.016 421.785 173.391 421.419 172.943C421.057 172.495 420.55 172.27 419.899 172.27C419.249 172.27 418.74 172.497 418.374 172.949C418.011 173.398 417.83 174.02 417.83 174.818C417.83 175.615 418.014 176.24 418.38 176.693C418.746 177.141 419.253 177.365 419.899 177.365ZM424.296 178.303V171.333H425.356V172.464H425.382C425.486 172.098 425.691 171.807 425.997 171.592C426.303 171.376 426.66 171.268 427.07 171.268C427.247 171.268 427.391 171.283 427.503 171.313V172.426C427.382 172.374 427.188 172.348 426.921 172.348C426.469 172.348 426.104 172.499 425.828 172.801C425.557 173.102 425.421 173.499 425.421 173.99V178.303H424.296ZM430.82 178.368C429.941 178.368 429.223 178.042 428.667 177.391C428.111 176.736 427.833 175.878 427.833 174.818C427.833 173.762 428.109 172.906 428.66 172.251C429.212 171.596 429.923 171.268 430.794 171.268C431.29 171.268 431.729 171.372 432.113 171.579C432.501 171.785 432.803 172.081 433.018 172.464H433.044V168.566H434.169V178.303H433.096V177.126H433.076C432.848 177.527 432.54 177.835 432.152 178.051C431.768 178.262 431.324 178.368 430.82 178.368ZM431.02 172.27C430.408 172.27 429.915 172.503 429.54 172.969C429.169 173.434 428.984 174.051 428.984 174.818C428.984 175.589 429.169 176.208 429.54 176.674C429.915 177.135 430.408 177.365 431.02 177.365C431.624 177.365 432.113 177.13 432.488 176.661C432.863 176.191 433.051 175.577 433.051 174.818C433.051 174.059 432.863 173.445 432.488 172.975C432.113 172.505 431.624 172.27 431.02 172.27ZM438.546 172.257C437.999 172.257 437.544 172.439 437.182 172.801C436.824 173.163 436.626 173.639 436.587 174.229H440.421C440.408 173.639 440.23 173.163 439.885 172.801C439.544 172.439 439.098 172.257 438.546 172.257ZM440.396 176.311H441.508C441.413 176.911 441.094 177.404 440.551 177.792C440.008 178.176 439.363 178.368 438.618 178.368C437.639 178.368 436.861 178.051 436.283 177.417C435.71 176.783 435.423 175.926 435.423 174.844C435.423 173.762 435.71 172.895 436.283 172.245C436.857 171.594 437.617 171.268 438.566 171.268C439.497 171.268 440.234 171.576 440.777 172.193C441.32 172.805 441.592 173.637 441.592 174.689V175.128H436.587V175.193C436.587 175.857 436.775 176.387 437.15 176.783C437.525 177.18 438.023 177.378 438.643 177.378C439.079 177.378 439.454 177.283 439.768 177.094C440.087 176.9 440.296 176.639 440.396 176.311ZM442.775 178.303V171.333H443.835V172.464H443.861C443.965 172.098 444.169 171.807 444.475 171.592C444.781 171.376 445.139 171.268 445.549 171.268C445.725 171.268 445.87 171.283 445.982 171.313V172.426C445.861 172.374 445.667 172.348 445.4 172.348C444.947 172.348 444.583 172.499 444.307 172.801C444.036 173.102 443.9 173.499 443.9 173.99V178.303H442.775ZM446.861 173.279C446.861 172.693 447.1 172.212 447.579 171.837C448.062 171.462 448.682 171.275 449.441 171.275C450.148 171.275 450.741 171.464 451.219 171.844C451.702 172.219 451.954 172.693 451.976 173.266H450.896C450.861 172.939 450.71 172.68 450.443 172.49C450.176 172.301 449.829 172.206 449.402 172.206C448.971 172.206 448.624 172.298 448.361 172.484C448.098 172.669 447.967 172.915 447.967 173.221C447.967 173.686 448.359 174.016 449.144 174.21L450.204 174.475C450.907 174.652 451.4 174.88 451.685 175.161C451.973 175.436 452.118 175.829 452.118 176.337C452.118 176.932 451.859 177.419 451.342 177.799C450.829 178.178 450.169 178.368 449.363 178.368C448.613 178.368 447.991 178.182 447.495 177.811C446.999 177.436 446.723 176.947 446.667 176.344H447.799C447.855 176.697 448.023 176.969 448.303 177.158C448.588 177.344 448.967 177.436 449.441 177.436C449.915 177.436 450.29 177.346 450.566 177.165C450.846 176.98 450.986 176.73 450.986 176.415C450.986 176.169 450.904 175.975 450.741 175.833C450.577 175.686 450.297 175.561 449.9 175.458L448.678 175.141C447.467 174.826 446.861 174.206 446.861 173.279ZM95.1422 198.404C94.5603 199.046 93.7801 199.368 92.8017 199.368C91.8232 199.368 91.043 199.046 90.4611 198.404C89.8792 197.762 89.5882 196.9 89.5882 195.818C89.5882 194.736 89.8792 193.874 90.4611 193.232C91.043 192.589 91.8232 192.268 92.8017 192.268C93.7801 192.268 94.5603 192.589 95.1422 193.232C95.7241 193.874 96.0151 194.736 96.0151 195.818C96.0151 196.9 95.7241 197.762 95.1422 198.404ZM92.8017 198.365C93.4525 198.365 93.959 198.141 94.3211 197.693C94.6875 197.24 94.8707 196.615 94.8707 195.818C94.8707 195.016 94.6875 194.391 94.3211 193.943C93.959 193.495 93.4525 193.27 92.8017 193.27C92.1508 193.27 91.6422 193.497 91.2758 193.949C90.9137 194.398 90.7327 195.02 90.7327 195.818C90.7327 196.615 90.9159 197.24 91.2822 197.693C91.6486 198.141 92.1551 198.365 92.8017 198.365ZM100.625 199.368C100.116 199.368 99.6682 199.262 99.2803 199.051C98.8923 198.835 98.5841 198.527 98.3557 198.126H98.3298V199.303H97.263V189.566H98.388V193.464H98.4139C98.6337 193.081 98.9376 192.785 99.3255 192.579C99.7135 192.372 100.155 192.268 100.651 192.268C101.53 192.268 102.242 192.596 102.785 193.251C103.328 193.902 103.599 194.757 103.599 195.818C103.599 196.883 103.326 197.74 102.778 198.391C102.235 199.042 101.517 199.368 100.625 199.368ZM100.425 193.27C99.8169 193.27 99.3234 193.507 98.944 193.982C98.569 194.451 98.3815 195.064 98.3815 195.818C98.3815 196.577 98.569 197.191 98.944 197.661C99.3234 198.13 99.8169 198.365 100.425 198.365C101.037 198.365 101.526 198.135 101.892 197.674C102.263 197.212 102.448 196.594 102.448 195.818C102.448 195.046 102.263 194.43 101.892 193.969C101.526 193.503 101.037 193.27 100.425 193.27ZM104.673 194.279C104.673 193.693 104.912 193.212 105.39 192.837C105.873 192.462 106.494 192.275 107.252 192.275C107.959 192.275 108.552 192.464 109.03 192.844C109.513 193.219 109.765 193.693 109.787 194.266H108.707C108.673 193.939 108.522 193.68 108.255 193.49C107.987 193.301 107.64 193.206 107.214 193.206C106.783 193.206 106.436 193.298 106.173 193.484C105.91 193.669 105.778 193.915 105.778 194.221C105.778 194.686 106.171 195.016 106.955 195.21L108.015 195.475C108.718 195.652 109.212 195.88 109.496 196.161C109.785 196.436 109.929 196.829 109.929 197.337C109.929 197.932 109.671 198.419 109.153 198.799C108.64 199.178 107.981 199.368 107.175 199.368C106.425 199.368 105.802 199.182 105.306 198.811C104.811 198.436 104.535 197.947 104.479 197.344H105.61C105.666 197.697 105.834 197.969 106.114 198.158C106.399 198.344 106.778 198.436 107.252 198.436C107.727 198.436 108.102 198.346 108.377 198.165C108.658 197.98 108.798 197.73 108.798 197.415C108.798 197.169 108.716 196.975 108.552 196.833C108.388 196.686 108.108 196.561 107.711 196.458L106.489 196.141C105.278 195.826 104.673 195.206 104.673 194.279ZM113.931 193.257C113.384 193.257 112.929 193.439 112.567 193.801C112.209 194.163 112.011 194.639 111.972 195.229H115.806C115.794 194.639 115.615 194.163 115.27 193.801C114.929 193.439 114.483 193.257 113.931 193.257ZM115.781 197.311H116.893C116.798 197.911 116.479 198.404 115.936 198.792C115.393 199.176 114.748 199.368 114.003 199.368C113.024 199.368 112.246 199.051 111.668 198.417C111.095 197.783 110.809 196.926 110.809 195.844C110.809 194.762 111.095 193.895 111.668 193.245C112.242 192.594 113.003 192.268 113.951 192.268C114.882 192.268 115.619 192.576 116.162 193.193C116.705 193.805 116.977 194.637 116.977 195.689V196.128H111.972V196.193C111.972 196.857 112.16 197.387 112.535 197.783C112.91 198.18 113.408 198.378 114.028 198.378C114.464 198.378 114.839 198.283 115.153 198.094C115.472 197.9 115.681 197.639 115.781 197.311ZM118.16 199.303V192.333H119.22V193.464H119.246C119.35 193.098 119.554 192.807 119.86 192.592C120.166 192.376 120.524 192.268 120.934 192.268C121.11 192.268 121.255 192.283 121.367 192.313V193.426C121.246 193.374 121.052 193.348 120.785 193.348C120.332 193.348 119.968 193.499 119.692 193.801C119.421 194.102 119.285 194.499 119.285 194.99V199.303H118.16ZM128.046 192.333L125.473 199.303H124.335L121.761 192.333H122.938L124.891 198.087H124.917L126.876 192.333H128.046ZM131.557 193.257C131.009 193.257 130.555 193.439 130.193 193.801C129.835 194.163 129.637 194.639 129.598 195.229H133.432C133.419 194.639 133.24 194.163 132.895 193.801C132.555 193.439 132.109 193.257 131.557 193.257ZM133.406 197.311H134.518C134.423 197.911 134.104 198.404 133.561 198.792C133.018 199.176 132.374 199.368 131.628 199.368C130.649 199.368 129.871 199.051 129.294 198.417C128.721 197.783 128.434 196.926 128.434 195.844C128.434 194.762 128.721 193.895 129.294 193.245C129.867 192.594 130.628 192.268 131.576 192.268C132.507 192.268 133.244 192.576 133.787 193.193C134.331 193.805 134.602 194.637 134.602 195.689V196.128H129.598V196.193C129.598 196.857 129.785 197.387 130.16 197.783C130.535 198.18 131.033 198.378 131.654 198.378C132.089 198.378 132.464 198.283 132.779 198.094C133.098 197.9 133.307 197.639 133.406 197.311ZM138.43 199.368C137.551 199.368 136.833 199.042 136.277 198.391C135.721 197.736 135.443 196.878 135.443 195.818C135.443 194.762 135.719 193.906 136.27 193.251C136.822 192.596 137.533 192.268 138.404 192.268C138.9 192.268 139.339 192.372 139.723 192.579C140.111 192.785 140.413 193.081 140.628 193.464H140.654V189.566H141.779V199.303H140.706V198.126H140.686C140.458 198.527 140.15 198.835 139.762 199.051C139.378 199.262 138.934 199.368 138.43 199.368ZM138.63 193.27C138.018 193.27 137.525 193.503 137.15 193.969C136.779 194.434 136.594 195.051 136.594 195.818C136.594 196.589 136.779 197.208 137.15 197.674C137.525 198.135 138.018 198.365 138.63 198.365C139.234 198.365 139.723 198.13 140.098 197.661C140.473 197.191 140.66 196.577 140.66 195.818C140.66 195.059 140.473 194.445 140.098 193.975C139.723 193.505 139.234 193.27 138.63 193.27ZM146.609 199.303V192.333H147.734V199.303H146.609ZM147.171 191.208C146.977 191.208 146.809 191.139 146.667 191.001C146.529 190.859 146.46 190.691 146.46 190.497C146.46 190.298 146.529 190.13 146.667 189.992C146.809 189.854 146.977 189.785 147.171 189.785C147.37 189.785 147.538 189.854 147.676 189.992C147.814 190.13 147.883 190.298 147.883 190.497C147.883 190.691 147.814 190.859 147.676 191.001C147.538 191.139 147.37 191.208 147.171 191.208ZM149.324 199.303V192.333H150.385V193.464H150.411C150.855 192.667 151.613 192.268 152.687 192.268C153.454 192.268 154.059 192.499 154.503 192.96C154.947 193.417 155.169 194.042 155.169 194.835V199.303H154.044V195.029C154.044 194.46 153.898 194.025 153.605 193.723C153.316 193.421 152.898 193.27 152.35 193.27C151.777 193.27 151.316 193.451 150.967 193.814C150.622 194.176 150.449 194.656 150.449 195.255V199.303H149.324ZM160.206 190.762H161.331V192.333H162.689V193.264H161.331V197.447C161.331 197.766 161.4 198.001 161.538 198.152C161.68 198.303 161.9 198.378 162.198 198.378C162.392 198.378 162.553 198.367 162.683 198.346V199.296C162.519 199.335 162.277 199.355 161.958 199.355C161.329 199.355 160.879 199.212 160.607 198.928C160.34 198.639 160.206 198.161 160.206 197.492V193.264H159.236V192.333H160.206V190.762ZM164.002 199.303V189.566H165.127V193.464H165.152C165.592 192.667 166.351 192.268 167.428 192.268C168.191 192.268 168.808 192.505 169.278 192.979C169.747 193.454 169.982 194.079 169.982 194.854V199.303H168.857V195.055C168.857 194.499 168.7 194.064 168.385 193.749C168.075 193.43 167.644 193.27 167.092 193.27C166.502 193.27 166.025 193.456 165.663 193.826C165.305 194.197 165.127 194.686 165.127 195.294V199.303H164.002ZM174.256 193.257C173.709 193.257 173.254 193.439 172.892 193.801C172.534 194.163 172.336 194.639 172.297 195.229H176.131C176.118 194.639 175.939 194.163 175.594 193.801C175.254 193.439 174.808 193.257 174.256 193.257ZM176.105 197.311H177.217C177.123 197.911 176.804 198.404 176.26 198.792C175.717 199.176 175.073 199.368 174.327 199.368C173.349 199.368 172.571 199.051 171.993 198.417C171.42 197.783 171.133 196.926 171.133 195.844C171.133 194.762 171.42 193.895 171.993 193.245C172.566 192.594 173.327 192.268 174.275 192.268C175.207 192.268 175.944 192.576 176.487 193.193C177.03 193.805 177.301 194.637 177.301 195.689V196.128H172.297V196.193C172.297 196.857 172.484 197.387 172.859 197.783C173.234 198.18 173.732 198.378 174.353 198.378C174.788 198.378 175.163 198.283 175.478 198.094C175.797 197.9 176.006 197.639 176.105 197.311ZM185.002 192.268C185.894 192.268 186.614 192.596 187.162 193.251C187.713 193.902 187.989 194.757 187.989 195.818C187.989 196.878 187.715 197.736 187.168 198.391C186.621 199.042 185.907 199.368 185.028 199.368C184.536 199.368 184.097 199.264 183.709 199.057C183.325 198.85 183.023 198.555 182.804 198.171H182.778V201.63H181.653V192.333H182.72V193.464H182.745C182.948 193.102 183.254 192.813 183.664 192.598C184.073 192.378 184.519 192.268 185.002 192.268ZM184.795 198.365C185.411 198.365 185.905 198.135 186.276 197.674C186.651 197.208 186.838 196.589 186.838 195.818C186.838 195.051 186.651 194.434 186.276 193.969C185.905 193.503 185.411 193.27 184.795 193.27C184.196 193.27 183.709 193.505 183.334 193.975C182.959 194.445 182.771 195.059 182.771 195.818C182.771 196.577 182.957 197.191 183.327 197.661C183.702 198.13 184.192 198.365 184.795 198.365ZM191.455 198.391C192.024 198.391 192.494 198.227 192.864 197.9C193.239 197.568 193.427 197.152 193.427 196.652V196.089L191.603 196.206C190.543 196.27 190.013 196.643 190.013 197.324C190.013 197.648 190.142 197.906 190.401 198.1C190.664 198.294 191.015 198.391 191.455 198.391ZM191.215 199.368C190.509 199.368 189.94 199.18 189.509 198.805C189.078 198.43 188.862 197.934 188.862 197.318C188.862 196.719 189.086 196.249 189.534 195.908C189.983 195.564 190.629 195.365 191.474 195.314L193.427 195.197V194.615C193.427 194.184 193.289 193.852 193.013 193.62C192.737 193.387 192.343 193.27 191.83 193.27C191.425 193.27 191.082 193.367 190.802 193.561C190.526 193.755 190.353 194.016 190.284 194.344H189.205C189.222 193.757 189.483 193.266 189.987 192.87C190.491 192.469 191.11 192.268 191.843 192.268C192.666 192.268 193.323 192.473 193.815 192.882C194.306 193.288 194.552 193.833 194.552 194.518V199.303H193.485V198.094H193.459C193.261 198.482 192.959 198.792 192.554 199.025C192.149 199.253 191.703 199.368 191.215 199.368ZM195.929 194.279C195.929 193.693 196.168 193.212 196.647 192.837C197.129 192.462 197.75 192.275 198.509 192.275C199.216 192.275 199.808 192.464 200.287 192.844C200.77 193.219 201.022 193.693 201.043 194.266H199.964C199.929 193.939 199.778 193.68 199.511 193.49C199.244 193.301 198.897 193.206 198.47 193.206C198.039 193.206 197.692 193.298 197.429 193.484C197.166 193.669 197.035 193.915 197.035 194.221C197.035 194.686 197.427 195.016 198.211 195.21L199.272 195.475C199.974 195.652 200.468 195.88 200.752 196.161C201.041 196.436 201.186 196.829 201.186 197.337C201.186 197.932 200.927 198.419 200.41 198.799C199.897 199.178 199.237 199.368 198.431 199.368C197.681 199.368 197.058 199.182 196.563 198.811C196.067 198.436 195.791 197.947 195.735 197.344H196.866C196.923 197.697 197.091 197.969 197.371 198.158C197.655 198.344 198.035 198.436 198.509 198.436C198.983 198.436 199.358 198.346 199.634 198.165C199.914 197.98 200.054 197.73 200.054 197.415C200.054 197.169 199.972 196.975 199.808 196.833C199.645 196.686 199.364 196.561 198.968 196.458L197.746 196.141C196.535 195.826 195.929 195.206 195.929 194.279ZM202.776 190.762H203.901V192.333H205.259V193.264H203.901V197.447C203.901 197.766 203.97 198.001 204.108 198.152C204.25 198.303 204.47 198.378 204.768 198.378C204.961 198.378 205.123 198.367 205.252 198.346V199.296C205.089 199.335 204.847 199.355 204.528 199.355C203.899 199.355 203.449 199.212 203.177 198.928C202.91 198.639 202.776 198.161 202.776 197.492V193.264H201.806V192.333H202.776V190.762Z" fill="#71737C"/>
<path d="M94.0107 240.094C92.6745 240.094 91.6163 239.663 90.8361 238.801C90.0602 237.939 89.6723 236.762 89.6723 235.271C89.6723 233.788 90.0624 232.616 90.8426 231.754C91.6271 230.887 92.6831 230.454 94.0107 230.454C95.097 230.454 96.0129 230.764 96.7587 231.385C97.5044 232.002 97.9289 232.81 98.0324 233.81H96.3901C96.2824 233.224 96.0086 232.754 95.569 232.4C95.1336 232.047 94.6142 231.87 94.0107 231.87C93.209 231.87 92.5689 232.178 92.0904 232.795C91.6163 233.407 91.3792 234.232 91.3792 235.271C91.3792 236.318 91.6163 237.148 92.0904 237.76C92.5646 238.372 93.2069 238.678 94.0172 238.678C94.6336 238.678 95.1509 238.521 95.569 238.206C95.9914 237.887 96.2673 237.448 96.3966 236.887H98.0324C97.8858 237.887 97.4548 238.672 96.7393 239.241C96.0237 239.81 95.1142 240.094 94.0107 240.094ZM102.267 240.043C101.224 240.043 100.397 239.717 99.7846 239.066C99.1725 238.415 98.8665 237.528 98.8665 236.402C98.8665 235.29 99.1725 234.409 99.7846 233.758C100.401 233.103 101.229 232.775 102.267 232.775C103.311 232.775 104.138 233.101 104.75 233.752C105.367 234.402 105.675 235.286 105.675 236.402C105.675 237.528 105.369 238.415 104.757 239.066C104.145 239.717 103.315 240.043 102.267 240.043ZM102.267 238.756C102.823 238.756 103.257 238.551 103.567 238.142C103.882 237.728 104.039 237.15 104.039 236.409C104.039 235.672 103.882 235.096 103.567 234.683C103.257 234.269 102.823 234.062 102.267 234.062C101.716 234.062 101.282 234.269 100.968 234.683C100.657 235.096 100.502 235.672 100.502 236.409C100.502 237.146 100.657 237.721 100.968 238.135C101.282 238.549 101.716 238.756 102.267 238.756ZM106.755 239.939V232.872H108.3V234.101H108.332C108.759 233.226 109.52 232.788 110.615 232.788C111.399 232.788 112.015 233.021 112.464 233.486C112.912 233.952 113.136 234.594 113.136 235.413V239.939H111.526V235.73C111.526 235.226 111.395 234.838 111.132 234.566C110.869 234.29 110.496 234.152 110.013 234.152C109.518 234.152 109.119 234.312 108.817 234.631C108.515 234.95 108.365 235.368 108.365 235.885V239.939H106.755ZM114.927 231.295H116.537V232.872H117.876V234.12H116.537V237.844C116.537 238.418 116.822 238.704 117.391 238.704C117.537 238.704 117.697 238.693 117.869 238.672V239.907C117.675 239.95 117.393 239.972 117.022 239.972C116.272 239.972 115.735 239.825 115.412 239.532C115.089 239.234 114.927 238.745 114.927 238.064V234.12H113.964V232.872H114.927V231.295ZM121.516 238.782C122.007 238.782 122.417 238.644 122.744 238.368C123.072 238.092 123.236 237.741 123.236 237.314V236.778L121.619 236.881C120.723 236.941 120.274 237.265 120.274 237.851C120.274 238.135 120.386 238.362 120.61 238.53C120.839 238.698 121.141 238.782 121.516 238.782ZM121.044 240.017C120.345 240.017 119.772 239.823 119.324 239.435C118.88 239.047 118.658 238.54 118.658 237.915C118.658 237.286 118.891 236.795 119.356 236.441C119.826 236.088 120.507 235.883 121.399 235.827L123.236 235.717V235.2C123.236 234.829 123.115 234.545 122.873 234.346C122.636 234.144 122.3 234.043 121.865 234.043C121.503 234.043 121.199 234.129 120.953 234.301C120.707 234.474 120.557 234.704 120.501 234.993H119.013C119.035 234.346 119.315 233.816 119.854 233.402C120.397 232.984 121.085 232.775 121.917 232.775C122.8 232.775 123.505 232.986 124.031 233.409C124.561 233.831 124.826 234.394 124.826 235.096V239.939H123.281V238.801H123.242C123.048 239.176 122.751 239.474 122.35 239.694C121.953 239.909 121.518 240.017 121.044 240.017ZM132.365 235.374H130.846C130.785 234.991 130.617 234.68 130.341 234.443C130.065 234.206 129.708 234.088 129.268 234.088C128.738 234.088 128.313 234.297 127.994 234.715C127.675 235.133 127.516 235.696 127.516 236.402C127.516 237.127 127.675 237.696 127.994 238.109C128.313 238.523 128.74 238.73 129.274 238.73C129.706 238.73 130.057 238.622 130.328 238.407C130.604 238.191 130.779 237.883 130.852 237.482H132.372C132.303 238.258 131.986 238.879 131.421 239.344C130.861 239.81 130.141 240.043 129.262 240.043C128.231 240.043 127.41 239.717 126.798 239.066C126.186 238.411 125.88 237.523 125.88 236.402C125.88 235.299 126.186 234.42 126.798 233.765C127.41 233.105 128.227 232.775 129.249 232.775C130.149 232.775 130.88 233.021 131.44 233.512C132.001 234.004 132.309 234.624 132.365 235.374ZM133.82 231.295H135.43V232.872H136.768V234.12H135.43V237.844C135.43 238.418 135.714 238.704 136.283 238.704C136.43 238.704 136.589 238.693 136.762 238.672V239.907C136.568 239.95 136.285 239.972 135.915 239.972C135.165 239.972 134.628 239.825 134.305 239.532C133.981 239.234 133.82 238.745 133.82 238.064V234.12H132.856V232.872H133.82V231.295ZM145.025 240.094C143.689 240.094 142.63 239.663 141.85 238.801C141.074 237.939 140.686 236.762 140.686 235.271C140.686 233.788 141.076 232.616 141.857 231.754C142.641 230.887 143.697 230.454 145.025 230.454C146.111 230.454 147.027 230.764 147.773 231.385C148.518 232.002 148.943 232.81 149.046 233.81H147.404C147.296 233.224 147.023 232.754 146.583 232.4C146.148 232.047 145.628 231.87 145.025 231.87C144.223 231.87 143.583 232.178 143.105 232.795C142.63 233.407 142.393 234.232 142.393 235.271C142.393 236.318 142.63 237.148 143.105 237.76C143.579 238.372 144.221 238.678 145.031 238.678C145.648 238.678 146.165 238.521 146.583 238.206C147.005 237.887 147.281 237.448 147.411 236.887H149.046C148.9 237.887 148.469 238.672 147.753 239.241C147.038 239.81 146.128 240.094 145.025 240.094ZM156.527 232.872V239.939H154.982V238.704H154.943C154.749 239.135 154.458 239.465 154.07 239.694C153.687 239.918 153.228 240.03 152.693 240.03C151.917 240.03 151.299 239.795 150.837 239.325C150.376 238.855 150.146 238.215 150.146 237.405V232.872H151.756V237.081C151.756 237.59 151.887 237.982 152.15 238.258C152.417 238.53 152.79 238.665 153.269 238.665C153.76 238.665 154.156 238.506 154.458 238.187C154.764 237.868 154.917 237.448 154.917 236.926V232.872H156.527ZM157.775 234.915C157.775 234.273 158.036 233.756 158.557 233.364C159.079 232.971 159.764 232.775 160.614 232.775C161.428 232.775 162.094 232.976 162.611 233.377C163.129 233.773 163.396 234.293 163.413 234.935H161.913C161.887 234.637 161.754 234.402 161.512 234.23C161.275 234.053 160.965 233.965 160.581 233.965C160.206 233.965 159.904 234.045 159.676 234.204C159.452 234.359 159.34 234.566 159.34 234.825C159.34 235.217 159.682 235.493 160.368 235.652L161.609 235.937C162.32 236.101 162.825 236.329 163.122 236.622C163.424 236.915 163.575 237.323 163.575 237.844C163.575 238.5 163.297 239.03 162.741 239.435C162.185 239.84 161.463 240.043 160.575 240.043C159.713 240.043 159.012 239.844 158.473 239.448C157.939 239.047 157.646 238.517 157.594 237.857H159.178C159.226 238.176 159.374 238.422 159.624 238.594C159.879 238.767 160.217 238.853 160.639 238.853C161.049 238.853 161.372 238.778 161.609 238.627C161.851 238.472 161.971 238.262 161.971 238C161.971 237.793 161.898 237.629 161.751 237.508C161.609 237.383 161.361 237.28 161.008 237.198L159.728 236.887C158.426 236.581 157.775 235.924 157.775 234.915ZM165.101 231.295H166.711V232.872H168.049V234.12H166.711V237.844C166.711 238.418 166.995 238.704 167.564 238.704C167.711 238.704 167.87 238.693 168.043 238.672V239.907C167.849 239.95 167.566 239.972 167.196 239.972C166.446 239.972 165.909 239.825 165.586 239.532C165.262 239.234 165.101 238.745 165.101 238.064V234.12H164.137V232.872H165.101V231.295ZM172.161 240.043C171.118 240.043 170.29 239.717 169.678 239.066C169.066 238.415 168.76 237.528 168.76 236.402C168.76 235.29 169.066 234.409 169.678 233.758C170.295 233.103 171.122 232.775 172.161 232.775C173.204 232.775 174.032 233.101 174.644 233.752C175.26 234.402 175.569 235.286 175.569 236.402C175.569 237.528 175.263 238.415 174.65 239.066C174.038 239.717 173.209 240.043 172.161 240.043ZM172.161 238.756C172.717 238.756 173.15 238.551 173.461 238.142C173.775 237.728 173.933 237.15 173.933 236.409C173.933 235.672 173.775 235.096 173.461 234.683C173.15 234.269 172.717 234.062 172.161 234.062C171.609 234.062 171.176 234.269 170.862 234.683C170.551 235.096 170.396 235.672 170.396 236.409C170.396 237.146 170.551 237.721 170.862 238.135C171.176 238.549 171.609 238.756 172.161 238.756ZM176.648 239.939V232.872H178.194V234.114H178.226C178.381 233.704 178.638 233.381 178.995 233.144C179.357 232.907 179.771 232.788 180.237 232.788C180.737 232.788 181.157 232.911 181.498 233.157C181.842 233.398 182.082 233.743 182.215 234.191H182.248C182.42 233.76 182.702 233.42 183.095 233.17C183.491 232.915 183.944 232.788 184.452 232.788C185.146 232.788 185.705 233.002 186.127 233.428C186.549 233.855 186.761 234.422 186.761 235.129V239.939H185.151V235.523C185.151 235.083 185.039 234.745 184.814 234.508C184.59 234.267 184.271 234.146 183.858 234.146C183.452 234.146 183.123 234.282 182.868 234.553C182.614 234.825 182.487 235.176 182.487 235.607V239.939H180.922V235.433C180.922 235.036 180.808 234.724 180.579 234.495C180.351 234.262 180.041 234.146 179.648 234.146C179.243 234.146 178.909 234.288 178.646 234.573C178.388 234.853 178.258 235.211 178.258 235.646V239.939H176.648ZM191.131 234.03C190.662 234.03 190.269 234.187 189.955 234.502C189.64 234.812 189.465 235.219 189.431 235.724H192.78C192.763 235.215 192.603 234.805 192.302 234.495C192 234.185 191.61 234.03 191.131 234.03ZM192.787 237.838H194.3C194.196 238.493 193.858 239.025 193.284 239.435C192.711 239.84 192.013 240.043 191.19 240.043C190.146 240.043 189.321 239.719 188.713 239.073C188.11 238.426 187.808 237.547 187.808 236.435C187.808 235.323 188.108 234.435 188.707 233.771C189.31 233.107 190.118 232.775 191.131 232.775C192.123 232.775 192.909 233.09 193.491 233.719C194.073 234.349 194.364 235.198 194.364 236.267V236.797H189.418V236.894C189.418 237.463 189.584 237.922 189.916 238.271C190.248 238.616 190.683 238.788 191.222 238.788C191.61 238.788 191.944 238.704 192.224 238.536C192.504 238.364 192.692 238.131 192.787 237.838ZM195.45 239.939V232.872H196.996V234.101H197.028C197.14 233.687 197.345 233.366 197.642 233.137C197.944 232.909 198.304 232.795 198.722 232.795C198.92 232.795 199.084 232.816 199.214 232.859V234.327C199.071 234.262 198.858 234.23 198.573 234.23C198.104 234.23 197.733 234.374 197.461 234.663C197.194 234.948 197.06 235.34 197.06 235.84V239.939H195.45ZM203.52 231.295H205.13V232.872H206.468V234.12H205.13V237.844C205.13 238.418 205.414 238.704 205.983 238.704C206.13 238.704 206.289 238.693 206.462 238.672V239.907C206.268 239.95 205.985 239.972 205.615 239.972C204.864 239.972 204.328 239.825 204.005 239.532C203.681 239.234 203.52 238.745 203.52 238.064V234.12H202.556V232.872H203.52V231.295ZM210.58 240.043C209.537 240.043 208.709 239.717 208.097 239.066C207.485 238.415 207.179 237.528 207.179 236.402C207.179 235.29 207.485 234.409 208.097 233.758C208.714 233.103 209.541 232.775 210.58 232.775C211.623 232.775 212.451 233.101 213.063 233.752C213.679 234.402 213.988 235.286 213.988 236.402C213.988 237.528 213.681 238.415 213.069 239.066C212.457 239.717 211.628 240.043 210.58 240.043ZM210.58 238.756C211.136 238.756 211.569 238.551 211.88 238.142C212.194 237.728 212.352 237.15 212.352 236.409C212.352 235.672 212.194 235.096 211.88 234.683C211.569 234.269 211.136 234.062 210.58 234.062C210.028 234.062 209.595 234.269 209.281 234.683C208.97 235.096 208.815 235.672 208.815 236.409C208.815 237.146 208.97 237.721 209.281 238.135C209.595 238.549 210.028 238.756 210.58 238.756ZM224.203 232.872L221.708 239.939H219.942L217.434 232.872H219.147L220.822 238.426H220.854L222.522 232.872H224.203ZM227.818 234.03C227.348 234.03 226.955 234.187 226.641 234.502C226.326 234.812 226.152 235.219 226.117 235.724H229.466C229.449 235.215 229.29 234.805 228.988 234.495C228.686 234.185 228.296 234.03 227.818 234.03ZM229.473 237.838H230.986C230.882 238.493 230.544 239.025 229.971 239.435C229.397 239.84 228.699 240.043 227.876 240.043C226.833 240.043 226.007 239.719 225.399 239.073C224.796 238.426 224.494 237.547 224.494 236.435C224.494 235.323 224.794 234.435 225.393 233.771C225.996 233.107 226.805 232.775 227.818 232.775C228.809 232.775 229.596 233.09 230.178 233.719C230.759 234.349 231.05 235.198 231.05 236.267V236.797H226.104V236.894C226.104 237.463 226.27 237.922 226.602 238.271C226.934 238.616 227.369 238.788 227.908 238.788C228.296 238.788 228.63 238.704 228.91 238.536C229.19 238.364 229.378 238.131 229.473 237.838ZM232.137 239.939V232.872H233.682V234.101H233.714C233.826 233.687 234.031 233.366 234.329 233.137C234.63 232.909 234.99 232.795 235.408 232.795C235.607 232.795 235.77 232.816 235.9 232.859V234.327C235.757 234.262 235.544 234.23 235.26 234.23C234.79 234.23 234.419 234.374 234.147 234.663C233.88 234.948 233.747 235.34 233.747 235.84V239.939H232.137ZM236.837 239.939V232.872H238.447V239.939H236.837ZM237.639 231.974C237.389 231.974 237.176 231.887 236.999 231.715C236.822 231.542 236.734 231.333 236.734 231.088C236.734 230.838 236.822 230.629 236.999 230.461C237.176 230.288 237.389 230.202 237.639 230.202C237.893 230.202 238.107 230.288 238.279 230.461C238.456 230.629 238.544 230.838 238.544 231.088C238.544 231.338 238.456 231.549 238.279 231.721C238.107 231.889 237.893 231.974 237.639 231.974ZM240.322 239.939V234.12H239.359V232.872H240.322V232.239C240.322 231.566 240.488 231.081 240.82 230.784C241.156 230.482 241.704 230.331 242.462 230.331C242.755 230.331 243.016 230.353 243.245 230.396V231.566C243.094 231.532 242.921 231.514 242.727 231.514C242.439 231.514 242.23 231.577 242.1 231.702C241.975 231.827 241.913 232.03 241.913 232.31V232.872H243.251V234.12H241.932V239.939H240.322ZM245.158 242.513C244.844 242.513 244.633 242.502 244.525 242.48V241.2C244.607 241.217 244.753 241.226 244.965 241.226C245.309 241.226 245.581 241.153 245.779 241.006C245.982 240.864 246.133 240.627 246.232 240.295L246.322 239.965L243.794 232.872H245.546L247.24 238.549H247.273L248.96 232.872H250.661L248.1 240.185C247.799 241.051 247.43 241.655 246.995 241.995C246.564 242.34 245.952 242.513 245.158 242.513ZM258.251 232.795C259.152 232.795 259.868 233.12 260.398 233.771C260.928 234.422 261.193 235.301 261.193 236.409C261.193 237.512 260.93 238.39 260.405 239.04C259.879 239.691 259.17 240.017 258.277 240.017C257.773 240.017 257.327 239.909 256.939 239.694C256.555 239.474 256.262 239.165 256.06 238.769H256.027V242.209H254.417V232.872H255.988V234.062H256.021C256.215 233.674 256.512 233.366 256.913 233.137C257.314 232.909 257.76 232.795 258.251 232.795ZM257.779 238.678C258.314 238.678 258.741 238.474 259.06 238.064C259.383 237.65 259.545 237.099 259.545 236.409C259.545 235.719 259.383 235.168 259.06 234.754C258.741 234.34 258.314 234.133 257.779 234.133C257.254 234.133 256.829 234.342 256.506 234.76C256.182 235.178 256.021 235.728 256.021 236.409C256.021 237.09 256.182 237.64 256.506 238.058C256.829 238.472 257.254 238.678 257.779 238.678ZM264.833 238.782C265.325 238.782 265.734 238.644 266.062 238.368C266.39 238.092 266.553 237.741 266.553 237.314V236.778L264.937 236.881C264.04 236.941 263.592 237.265 263.592 237.851C263.592 238.135 263.704 238.362 263.928 238.53C264.157 238.698 264.458 238.782 264.833 238.782ZM264.361 240.017C263.663 240.017 263.09 239.823 262.642 239.435C262.198 239.047 261.976 238.54 261.976 237.915C261.976 237.286 262.208 236.795 262.674 236.441C263.144 236.088 263.825 235.883 264.717 235.827L266.553 235.717V235.2C266.553 234.829 266.433 234.545 266.191 234.346C265.954 234.144 265.618 234.043 265.183 234.043C264.821 234.043 264.517 234.129 264.271 234.301C264.025 234.474 263.874 234.704 263.818 234.993H262.331C262.353 234.346 262.633 233.816 263.172 233.402C263.715 232.984 264.402 232.775 265.234 232.775C266.118 232.775 266.823 232.986 267.349 233.409C267.879 233.831 268.144 234.394 268.144 235.096V239.939H266.599V238.801H266.56C266.366 239.176 266.068 239.474 265.668 239.694C265.271 239.909 264.836 240.017 264.361 240.017ZM270.258 242.513C269.944 242.513 269.732 242.502 269.625 242.48V241.2C269.706 241.217 269.853 241.226 270.064 241.226C270.409 241.226 270.681 241.153 270.879 241.006C271.081 240.864 271.232 240.627 271.331 240.295L271.422 239.965L268.894 232.872H270.646L272.34 238.549H272.372L274.06 232.872H275.76L273.2 240.185C272.898 241.051 272.53 241.655 272.094 241.995C271.663 242.34 271.051 242.513 270.258 242.513ZM276.556 239.939V232.872H278.101V234.114H278.133C278.289 233.704 278.545 233.381 278.903 233.144C279.265 232.907 279.679 232.788 280.144 232.788C280.644 232.788 281.064 232.911 281.405 233.157C281.75 233.398 281.989 233.743 282.123 234.191H282.155C282.327 233.76 282.61 233.42 283.002 233.17C283.399 232.915 283.851 232.788 284.36 232.788C285.054 232.788 285.612 233.002 286.034 233.428C286.457 233.855 286.668 234.422 286.668 235.129V239.939H285.058V235.523C285.058 235.083 284.946 234.745 284.722 234.508C284.498 234.267 284.179 234.146 283.765 234.146C283.36 234.146 283.03 234.282 282.776 234.553C282.521 234.825 282.394 235.176 282.394 235.607V239.939H280.83V235.433C280.83 235.036 280.715 234.724 280.487 234.495C280.258 234.262 279.948 234.146 279.556 234.146C279.151 234.146 278.817 234.288 278.554 234.573C278.295 234.853 278.166 235.211 278.166 235.646V239.939H276.556ZM291.039 234.03C290.569 234.03 290.177 234.187 289.862 234.502C289.547 234.812 289.373 235.219 289.338 235.724H292.688C292.67 235.215 292.511 234.805 292.209 234.495C291.907 234.185 291.517 234.03 291.039 234.03ZM292.694 237.838H294.207C294.104 238.493 293.765 239.025 293.192 239.435C292.619 239.84 291.92 240.043 291.097 240.043C290.054 240.043 289.228 239.719 288.621 239.073C288.017 238.426 287.715 237.547 287.715 236.435C287.715 235.323 288.015 234.435 288.614 233.771C289.218 233.107 290.026 232.775 291.039 232.775C292.03 232.775 292.817 233.09 293.399 233.719C293.981 234.349 294.272 235.198 294.272 236.267V236.797H289.325V236.894C289.325 237.463 289.491 237.922 289.823 238.271C290.155 238.616 290.591 238.788 291.129 238.788C291.517 238.788 291.851 238.704 292.132 238.536C292.412 238.364 292.599 238.131 292.694 237.838ZM295.358 239.939V232.872H296.903V234.101H296.935C297.362 233.226 298.123 232.788 299.218 232.788C300.002 232.788 300.619 233.021 301.067 233.486C301.515 233.952 301.739 234.594 301.739 235.413V239.939H300.13V235.73C300.13 235.226 299.998 234.838 299.735 234.566C299.472 234.29 299.099 234.152 298.617 234.152C298.121 234.152 297.722 234.312 297.42 234.631C297.119 234.95 296.968 235.368 296.968 235.885V239.939H295.358ZM303.53 231.295H305.14V232.872H306.479V234.12H305.14V237.844C305.14 238.418 305.425 238.704 305.994 238.704C306.14 238.704 306.3 238.693 306.472 238.672V239.907C306.278 239.95 305.996 239.972 305.625 239.972C304.875 239.972 304.339 239.825 304.015 239.532C303.692 239.234 303.53 238.745 303.53 238.064V234.12H302.567V232.872H303.53V231.295Z" fill="#71737C"/>
<path d="M89.168 241.071H118.328V241.394H89.168V241.071ZM118.276 241.071H132.682V241.394H118.276V241.071ZM132.682 241.071H157.213V241.394H132.682V241.071ZM157.213 241.071H168.502V241.394H157.213V241.071ZM168.372 241.071H206.921V241.394H168.372V241.071ZM206.791 241.071H217.343V241.394H206.791V241.071ZM217.343 241.071H224.294V241.394H217.343V241.071ZM224.106 241.071H253.732V241.394H224.106V241.071ZM253.732 241.071H268.81V241.394H253.732V241.071ZM268.784 241.071H306.931V241.394H268.784V241.071Z" fill="#71737C"/>
</g>
<defs>
<filter id="filter0_dddd_1511_24157" x="66.458" y="50.4197" width="501.891" height="255.836" filterUnits="userSpaceOnUse" color-interpolation-filters="sRGB">
<feFlood flood-opacity="0" result="BackgroundImageFix"/>
<feColorMatrix in="SourceAlpha" type="matrix" values="0 0 0 0 0 0 0 0 0 0 0 0 0 0 0 0 0 0 127 0" result="hardAlpha"/>
<feOffset dx="2.27099" dy="1.13549"/>
<feGaussianBlur stdDeviation="3.40648"/>
<feColorMatrix type="matrix" values="0 0 0 0 0.85098 0 0 0 0 0.85098 0 0 0 0 0.85098 0 0 0 0.1 0"/>
<feBlend mode="normal" in2="BackgroundImageFix" result="effect1_dropShadow_1511_24157"/>
<feColorMatrix in="SourceAlpha" type="matrix" values="0 0 0 0 0 0 0 0 0 0 0 0 0 0 0 0 0 0 127 0" result="hardAlpha"/>
<feOffset dx="10.2194" dy="5.67747"/>
<feGaussianBlur stdDeviation="5.67747"/>
<feColorMatrix type="matrix" values="0 0 0 0 0.85098 0 0 0 0 0.85098 0 0 0 0 0.85098 0 0 0 0.09 0"/>
<feBlend mode="normal" in2="effect1_dropShadow_1511_24157" result="effect2_dropShadow_1511_24157"/>
<feColorMatrix in="SourceAlpha" type="matrix" values="0 0 0 0 0 0 0 0 0 0 0 0 0 0 0 0 0 0 127 0" result="hardAlpha"/>
<feOffset dx="22.7099" dy="13.6259"/>
<feGaussianBlur stdDeviation="7.94845"/>
<feColorMatrix type="matrix" values="0 0 0 0 0.85098 0 0 0 0 0.85098 0 0 0 0 0.85098 0 0 0 0.05 0"/>
<feBlend mode="normal" in2="effect2_dropShadow_1511_24157" result="effect3_dropShadow_1511_24157"/>
<feColorMatrix in="SourceAlpha" type="matrix" values="0 0 0 0 0 0 0 0 0 0 0 0 0 0 0 0 0 0 127 0" result="hardAlpha"/>
<feOffset dx="40.8778" dy="23.8454"/>
<feGaussianBlur stdDeviation="9.65169"/>
<feColorMatrix type="matrix" values="0 0 0 0 0.85098 0 0 0 0 0.85098 0 0 0 0 0.85098 0 0 0 0.01 0"/>
<feBlend mode="normal" in2="effect3_dropShadow_1511_24157" result="effect4_dropShadow_1511_24157"/>
<feBlend mode="normal" in="SourceGraphic" in2="effect4_dropShadow_1511_24157" result="shape"/>
</filter>
</defs>
</svg>
